<?xml version="1.0" encoding="UTF-8" standalone="no"?>
<!-- Generator: Adobe Illustrator 19.0.0, SVG Export Plug-In . SVG Version: 6.00 Build 0)  -->

<svg
   xmlns:dc="http://purl.org/dc/elements/1.1/"
   xmlns:cc="http://creativecommons.org/ns#"
   xmlns:rdf="http://www.w3.org/1999/02/22-rdf-syntax-ns#"
   xmlns:svg="http://www.w3.org/2000/svg"
   xmlns="http://www.w3.org/2000/svg"
   xmlns:sodipodi="http://sodipodi.sourceforge.net/DTD/sodipodi-0.dtd"
   xmlns:inkscape="http://www.inkscape.org/namespaces/inkscape"
   version="1.1"
   id="Capa_1"
   x="0px"
   y="0px"
   viewBox="0 0 512 512"
   style="enable-background:new 0 0 512 512;"
   xml:space="preserve"
   sodipodi:docname="Statistics.svg"
   inkscape:version="0.92.2 (5c3e80d, 2017-08-06)"><metadata
     id="metadata53"><rdf:RDF><cc:Work
         rdf:about=""><dc:format>image/svg+xml</dc:format><dc:type
           rdf:resource="http://purl.org/dc/dcmitype/StillImage" /></cc:Work></rdf:RDF></metadata><defs
     id="defs51" /><sodipodi:namedview
     pagecolor="#ffffff"
     bordercolor="#666666"
     borderopacity="1"
     objecttolerance="10"
     gridtolerance="10"
     guidetolerance="10"
     inkscape:pageopacity="0"
     inkscape:pageshadow="2"
     inkscape:window-width="1920"
     inkscape:window-height="1028"
     id="namedview49"
     showgrid="false"
     inkscape:zoom="0.4609375"
     inkscape:cx="-46.644068"
     inkscape:cy="256"
     inkscape:window-x="-8"
     inkscape:window-y="-8"
     inkscape:window-maximized="1"
     inkscape:current-layer="Capa_1" /><g
     id="g867"
     transform="matrix(1.0145372,0,0,1.0145372,-6.6194045,-7.1411597)"
     style="stroke-width:0.9856711"><path
       id="path2"
       d="m 166.418,397.125 h -78.6 c -1.042,0 -1.887,0.845 -1.887,1.887 v 92.221 h 82.374 v -92.221 c 0,-1.043 -0.844,-1.887 -1.887,-1.887 z"
       style="fill:#ffb125;stroke-width:0.97154748"
       inkscape:connector-curvature="0" /><path
       id="path4"
       d="m 166.418,397.125 h -39.3 v 94.108 h 41.187 v -92.221 c 0,-1.043 -0.844,-1.887 -1.887,-1.887 z"
       style="fill:#ff901d;stroke-width:0.97154748"
       inkscape:connector-curvature="0" /><path
       id="path6"
       d="m 309.937,329.579 h -78.601 c -1.042,0 -1.887,0.845 -1.887,1.887 v 159.766 h 82.374 V 331.466 c 0,-1.042 -0.844,-1.887 -1.886,-1.887 z"
       style="fill:#ff6d3a;stroke-width:0.97154748"
       inkscape:connector-curvature="0" /><path
       id="path8"
       d="m 309.937,329.579 h -39.3 v 161.653 h 41.187 V 331.466 c -0.001,-1.042 -0.845,-1.887 -1.887,-1.887 z"
       style="fill:#ed5729;stroke-width:0.97154748"
       inkscape:connector-curvature="0" /><path
       id="path10"
       d="m 453.455,208.909 h -78.601 c -1.042,0 -1.887,0.845 -1.887,1.887 v 280.436 h 82.374 V 210.796 c 10e-4,-1.042 -0.844,-1.887 -1.886,-1.887 z"
       style="fill:#21d8de;stroke-width:0.97154748"
       inkscape:connector-curvature="0" /><path
       id="path12"
       d="m 453.455,208.909 h -39.3 v 282.323 h 41.187 V 210.796 c 0,-1.042 -0.845,-1.887 -1.887,-1.887 z"
       style="fill:#10c4c4;stroke-width:0.97154748"
       inkscape:connector-curvature="0" /><path
       id="path14"
       d="m 431.116,43.73 c -23.194,10.859 -46.582,20.061 -70.963,27.78 -1.936,0.613 -2.07,3.306 -0.196,4.089 9.799,4.097 19.621,8.089 29.508,11.994 -81.416,104.552 -192.05,176.167 -317.567,207.232 -5.252,1.3 -8.943,6.007 -8.943,11.417 v 0 c 0,7.657 7.194,13.266 14.627,11.426 130.677,-32.359 246.027,-107.052 330.646,-215.875 6.331,8.718 12.562,17.475 18.72,26.306 1.153,1.654 3.745,0.992 3.947,-1.014 2.728,-27.186 3.859,-54.089 3.326,-81.433 -0.031,-1.575 -1.679,-2.589 -3.105,-1.922 z"
       style="fill:#61aff6;stroke-width:0.97154748"
       inkscape:connector-curvature="0" /></g><g
     id="g18" /><g
     id="g20" /><g
     id="g22" /><g
     id="g24" /><g
     id="g26" /><g
     id="g28" /><g
     id="g30" /><g
     id="g32" /><g
     id="g34" /><g
     id="g36" /><g
     id="g38" /><g
     id="g40" /><g
     id="g42" /><g
     id="g44" /><g
     id="g46" /></svg>