<?xml version="1.0" encoding="UTF-8" standalone="no"?>
<svg
   xmlns:dc="http://purl.org/dc/elements/1.1/"
   xmlns:cc="http://creativecommons.org/ns#"
   xmlns:rdf="http://www.w3.org/1999/02/22-rdf-syntax-ns#"
   xmlns:svg="http://www.w3.org/2000/svg"
   xmlns="http://www.w3.org/2000/svg"
   xmlns:sodipodi="http://sodipodi.sourceforge.net/DTD/sodipodi-0.dtd"
   xmlns:inkscape="http://www.inkscape.org/namespaces/inkscape"
   id="Layer_1"
   enable-background="new 0 0 404.644 404.644"
   height="512"
   viewBox="0 0 404.644 404.644"
   width="512"
   version="1.1"
   sodipodi:docname="Diagnostic.svg"
   inkscape:version="0.92.2 (5c3e80d, 2017-08-06)">
  <metadata
     id="metadata23">
    <rdf:RDF>
      <cc:Work
         rdf:about="">
        <dc:format>image/svg+xml</dc:format>
        <dc:type
           rdf:resource="http://purl.org/dc/dcmitype/StillImage" />
      </cc:Work>
    </rdf:RDF>
  </metadata>
  <defs
     id="defs21" />
  <sodipodi:namedview
     pagecolor="#ffffff"
     bordercolor="#666666"
     borderopacity="1"
     objecttolerance="10"
     gridtolerance="10"
     guidetolerance="10"
     inkscape:pageopacity="0"
     inkscape:pageshadow="2"
     inkscape:window-width="1920"
     inkscape:window-height="1028"
     id="namedview19"
     showgrid="false"
     inkscape:zoom="0.4609375"
     inkscape:cx="-46.644068"
     inkscape:cy="256"
     inkscape:window-x="-8"
     inkscape:window-y="-8"
     inkscape:window-maximized="1"
     inkscape:current-layer="Layer_1" />
  <g
     id="g16"
     transform="matrix(0.78246171,0,0,0.78246171,44.012594,44.012868)"
     style="stroke-width:1.27801776">
    <path
       d="m 287.511,244.908 c -22.716,0 -42.271,16.162 -46.499,38.43 l -10.799,56.89 c -8.952,47.164 -80.874,40.617 -80.874,-7.536 v -82.295 c 14.032,-4.273 25.856,-14.1 32.628,-27.702 L 260.712,85.438 C 278.454,54.605 254.357,15.282 219.35,15.282 h -32.09 v 32 h 32.091 c 11.26,0 18.949,12.316 13.518,22.385 l -78.912,137.548 c -10.045,17.519 -31.247,17.385 -41.234,0 L 33.811,69.668 C 28.422,59.677 35.982,47.283 47.329,47.283 H 79.42 v -32 H 47.329 c -34.974,0 -59.084,39.358 -41.362,70.156 l 78.782,137.321 0.07,0.138 c 6.807,13.52 18.589,23.255 32.521,27.5 v 82.294 c 0,85.463 128.388,97.393 144.312,13.503 l 10.799,-56.89 c 1.364,-7.184 7.697,-12.398 15.06,-12.398 h 84.554 v -32 h -84.554 z"
       id="path2"
       inkscape:connector-curvature="0"
       style="fill:#3e4d6c;stroke-width:1.63332951" />
    <g
       id="g6"
       style="stroke-width:1.27801776">
      <ellipse
         cx="77.402"
         cy="31.583"
         rx="30.301001"
         ry="30.247"
         id="ellipse4"
         style="fill:#0795fe;stroke-width:1.27801776" />
    </g>
    <g
       id="g10"
       style="stroke-width:1.27801776">
      <ellipse
         cx="187.27901"
         cy="31.583"
         rx="30.301001"
         ry="30.247"
         id="ellipse8"
         style="fill:#0795fe;stroke-width:1.27801776" />
    </g>
    <g
       id="g14"
       style="stroke-width:1.27801776">
      <ellipse
         cx="374.36301"
         cy="260.479"
         rx="30.281"
         ry="30.176001"
         id="ellipse12"
         style="fill:#0795fe;stroke-width:1.27801776" />
    </g>
  </g>
</svg>
