<svg id="Layer_1" enable-background="new 0 0 132 132" height="512" viewBox="0 0 132 132" width="512" xmlns="http://www.w3.org/2000/svg"><g><circle cx="66" cy="66" fill="#705c85" r="64"/><g fill="#5f4d77"><path d="m42.96859 108.39761c0-.55517.45005-1.00522 1.00522-1.00522h6.32154c.55278 0 1.00515.45232 1.00515 1.0052 0 .55286-.45237 1.00524-1.00515 1.00524h-6.32154c-.55517-.00001-1.00522-.45006-1.00522-1.00522z"/><path d="m40.10067 108.39761c0 .55517-.45005 1.00522-1.00522 1.00522h-12.65654c-.55517 0-1.00522-.45005-1.00522-1.00522 0-.55517.45005-1.00522 1.00522-1.00522h12.65654c.55517 0 1.00522.45005 1.00522 1.00522z"/><path d="m101.29789 111.29445c-.55518 0-1.00513.45001-1.00513 1.00519s.44995 1.00525 1.00513 1.00525h7.8103c.71777-.65454 1.42139-1.32428 2.10864-2.01044z"/><path d="m92.20071 112.29955c0-.55517.45005-1.00522 1.00522-1.00522l4.12341.00001c.55278 0 1.00515.45232 1.00515 1.0052s-.45237 1.00524-1.00515 1.00524h-4.12341c-.55517 0-1.00522-.45006-1.00522-1.00523z"/><path d="m119.03129 42.02864h6.30859c-.27344-.67627-.55884-1.34583-.85449-2.01044h-5.4541c-.55518 0-1.00513.45001-1.00513 1.00519 0 .55524.44995 1.00525 1.00513 1.00525z"/><path d="m114.51167 40.01824h.94627c.55517 0 1.00522.45005 1.00522 1.00521 0 .55516-.45005 1.00522-1.00522 1.00522h-.94627c-.55514 0-1.00515-.45006-1.00515-1.0052v-.00005c0-.55512.45001-1.00518 1.00515-1.00518z"/><path d="m44.02976 73.5041c0 .55517-.45005 1.00522-1.00522 1.00522l-16.00727.00001c-.55296 0-1.00515-.45238-1.00515-1.00524 0-.55287.45219-1.0052 1.00515-1.0052l16.00727-.00001c.55517.00001 1.00522.45006 1.00522 1.00522z"/><path d="m45.59109 73.5041c0-.55517.45005-1.00522 1.00522-1.00522h4.80804c.55516 0 1.00522.45005 1.00522 1.00522 0 .55517-.45005 1.00522-1.00522 1.00522h-4.80804c-.55516 0-1.00522-.45005-1.00522-1.00522z"/><path d="m95.55791 48.85477c0 .55516-.45005 1.00521-1.00522 1.00522h-16.00727c-.55296 0-1.00515-.45237-1.00515-1.00524s.45219-1.0052 1.00515-1.0052h16.00727c.55517-.00001 1.00522.45005 1.00522 1.00522z"/><path d="m97.11924 48.85477c0-.55517.45005-1.00522 1.00522-1.00522h4.80804c.55517 0 1.00522.45005 1.00522 1.00522 0 .55517-.45005 1.00522-1.00522 1.00522h-4.80804c-.55517-.00001-1.00522-.45006-1.00522-1.00522z"/><path d="m2.15498 61.65348c.04004-.68018.09985-1.3501.15991-2.00977h9.88013c.55981 0 1.01001.44971 1.01001 1 0 .56006-.4502 1.00977-1.01001 1.00977z"/><path d="m14.76461 60.64503c0-.55517.45005-1.00522 1.00522-1.00522h4.80804c.55517 0 1.00522.45005 1.00522 1.00522 0 .55516-.45005 1.00522-1.00522 1.00522h-4.80804c-.55517 0-1.00522-.45005-1.00522-1.00522z"/><path d="m104.56673 81.79954c0 .55516-.45005 1.00522-1.00522 1.00522h-16.00727c-.55296 0-1.00515-.45237-1.00515-1.00524 0-.55286.45219-1.0052 1.00515-1.0052h16.00727c.55517 0 1.00522.45005 1.00522 1.00522z"/><path d="m106.12806 81.79954c0-.55517.45005-1.00523 1.00522-1.00523h4.80804c.55517 0 1.00522.45006 1.00522 1.00522v.00001c0 .55516-.45005 1.00521-1.00522 1.00522h-4.80804c-.55517 0-1.00522-.45006-1.00522-1.00522z"/><path d="m90.60892 6.9134h-4.52295c-.55518 0-1.00513.45007-1.00513 1.00519v.00006c0 .55518.44995 1.00519 1.00513 1.00519h8.85034c-1.41503-.71887-2.85424-1.39612-4.32739-2.01044z"/><path d="m72.99117 8.92387h8.95542c.55516 0 1.00522-.45005 1.00522-1.00522 0-.55517-.45006-1.00522-1.00522-1.00522h-8.95542c-.55296 0-1.00533.45237-1.00533 1.00524s.45237 1.0052 1.00533 1.0052z"/><path d="m48.9818 19.8602h-12.75004c-.55516 0-1.00525-.45005-1.00529-1.00522-.00005-.55517.44997-1.00522 1.00513-1.00522l12.75004.00001c.55296 0 1.00518.45237 1.00523 1.00524.00004.55287-.45211 1.00519-1.00507 1.00519z"/><path d="m32.61391 18.85498c.00005.55517-.44997 1.00522-1.00513 1.00522h-1.0803c-.55513 0-1.00518-.45006-1.00523-1.0052-.00004-.55518.44993-1.00524 1.00507-1.00524h1.08029c.55517 0 1.00526.45005 1.0053 1.00522z"/><path d="m78.5497 121.66981h-12.75005c-.55516 0-1.00525-.45006-1.00529-1.00522v-.00001c-.00005-.55516.44997-1.00522 1.00513-1.00522l12.75005.00001c.55296 0 1.00518.45237 1.00523 1.00524s-.45212 1.0052-1.00507 1.0052z"/><path d="m62.18181 120.66458c.00005.55517-.44997 1.00522-1.00513 1.00522h-1.0803c-.55513 0-1.00518-.45006-1.00523-1.0052-.00005-.55518.44993-1.00524 1.00507-1.00524h1.0803c.55516 0 1.00524.45005 1.00529 1.00522z"/><path d="m122.73325 65.99999h-12.75005c-.55516 0-1.00525-.45006-1.00529-1.00522v-.00001c-.00005-.55516.44997-1.00521 1.00513-1.00521h12.75005c.55296 0 1.00518.45237 1.00523 1.00524s-.45211 1.0052-1.00507 1.0052z"/><path d="m106.36536 64.99477c.00005.55517-.44997 1.00522-1.00513 1.00522h-1.08029c-.55514 0-1.00519-.45006-1.00523-1.0052-.00004-.55518.44994-1.00524 1.00507-1.00524h1.08029c.55517 0 1.00525.45005 1.00529 1.00522z"/><path d="m34.66043 39.74487h-12.75004c-.55517 0-1.00525-.45005-1.0053-1.00522-.00004-.55517.44997-1.00522 1.00513-1.00522h12.75004c.55296 0 1.00518.45237 1.00523 1.00524.00005.55288-.4521 1.0052-1.00506 1.0052z"/><path d="m18.29254 38.73965c.00005.55517-.44997 1.00522-1.00513 1.00522h-1.0803c-.55513 0-1.00518-.45006-1.00523-1.0052-.00004-.55518.44993-1.00524 1.00507-1.00524h1.08029c.55517 0 1.00525.45005 1.0053 1.00522z"/><path d="m104.49433 27.38131-12.75004-.00001c-.55517 0-1.00526-.45005-1.00529-1.00522-.00005-.55517.44997-1.00522 1.00513-1.00522h12.75005c.55296 0 1.00519.45237 1.00523 1.00524.00003.55288-.45212 1.00521-1.00508 1.00521z"/><path d="m88.12644 26.37609c.00005.55517-.44997 1.00522-1.00513 1.00522h-1.08029c-.55513 0-1.00518-.45006-1.00523-1.0052-.00005-.55518.44993-1.00524 1.00507-1.00524h1.08029c.55517-.00001 1.00525.45005 1.00529 1.00522z"/><path d="m20.78518 93.33266c0 .55517-.45005 1.00523-1.00522 1.00523h-1.67143c-.55517 0-1.00522-.45005-1.00522-1.00522 0-.55517.45005-1.00522 1.00522-1.00523h1.67143c.55517.00001 1.00522.45006 1.00522 1.00522z"/><path d="m13.43852 92.32747h-5.77051c.30518.67554.61621 1.3476.94409 2.01044h4.82642c.55518 0 1.00537-.45007 1.00537-1.00525s-.4502-1.00519-1.00537-1.00519z"/></g><g fill="#5f4d77"><path d="m62.16 59.865h10.19v29.6h-10.19z"/><path d="m25.825 87.937h82.86v10.19h-82.86z"/><path d="m80.40048 86.22496v13.60999h-26.29004v-13.60999h6.34009v-6.34003h13.60986v6.34003z"/><path d="m92.25224 30.89296v34.09772c0 4.38954-3.55843 7.94797-7.94797 7.94797h-34.09772c-4.38954 0-7.94797-3.55843-7.94797-7.94797v-34.09772c0-4.38954 3.55843-7.94797 7.94797-7.94797h34.09772c4.38955 0 7.94797 3.55843 7.94797 7.94797z"/></g><g><path d="m60.905 58.61h10.19v29.6h-10.19z" fill="#fff"/><path d="m24.57 86.681h82.86v10.19h-82.86z" fill="#fff"/><path d="m107.43511 86.67951v10.19h-82.87012v-1.64996h72.66993c4.71653 0 8.54003-3.8235 8.54003-8.54003v-.00001z" fill="#ededed"/><path d="m79.14507 84.96955v13.60999h-26.29004v-13.60999h6.34009v-6.34003h13.60987v6.34003z" fill="#168de2"/><path d="m70.875 78.63h1.93v6.34h-1.93z" fill="#2e6bce"/><path d="m79.14507 84.96955v13.60999h-26.29004v-1.92999h12.67988c6.45068 0 11.67999-5.22931 11.67999-11.67999v-.00001z" fill="#2e6bce"/><path d="m90.99683 29.63755v34.09772c0 4.38954-3.55843 7.94797-7.94797 7.94797h-34.09772c-4.38954 0-7.94797-3.55843-7.94797-7.94797v-34.09772c0-4.38954 3.55843-7.94797 7.94797-7.94797h34.09772c4.38954 0 7.94797 3.55843 7.94797 7.94797z" fill="#fad553"/><path d="m90.99517 29.63953v34.09998c0 4.39001-3.56006 7.94-7.9502 7.94h-34.08984c-3.07007 0-5.72998-1.73999-7.06006-4.27997 1.1001.57001 2.33984.89001 3.65991.89001h34.1001c4.38989 0 7.94995-3.56006 7.94995-7.95001v-34.09002c0-1.32996-.32007-2.56995-.89014-3.66998 2.54005 1.33001 4.28028 3.98998 4.28028 7.05999z" fill="#fab941"/><g fill="#fff"><path d="m55.51123 56.01525c-.19522 0-.36441-.0705-.50541-.21366-.14316-.14208-.21474-.31018-.21474-.50649v-17.21846c0-.19522.07158-.36333.21474-.50649.14099-.14208.31018-.21257.50541-.21257h2.16044c.19522 0 .36224.0705.50541.21257.14316.14316.21257.31127.21257.50649v17.21846c0 .1963-.06941.36441-.21257.50649-.14316.14316-.31018.21366-.50541.21366z"/><path d="m70.4109 37.35757c2.15176 0 3.82198.50649 5.01283 1.51947 1.18867 1.01298 1.78519 2.49666 1.78519 4.45103 0 1.95438-.59651 3.44781-1.78519 4.47815-1.19085 1.03033-2.86107 1.5455-5.01283 1.5455h-4.26449v5.94339c0 .1963-.06941.36441-.21257.50649-.14317.14316-.31019.21366-.50541.21366h-2.16044c-.19522 0-.36441-.0705-.50541-.21366-.14316-.14208-.21474-.31018-.21474-.50649v-17.21847c0-.19522.07158-.36333.21474-.50649.141-.14208.31018-.21257.50541-.21257h7.14291zm-4.26448 8.66238h4.13217c1.01298 0 1.82206-.19956 2.42507-.59976.60519-.4002.90669-1.09649.90669-2.09212 0-.99562-.30151-1.68324-.90669-2.06609-.60301-.38176-1.41209-.57265-2.42507-.57265h-4.13217z"/></g><g fill="#fcde7e"><path d="m58.38506 25.18952c0 .52002-.42993.96002-.94995.96002h-6.33008c-.53003 0-.95996-.44-.95996-.96002 0-.52997.42993-.95996.95996-.95996h6.33008c.52002 0 .94995.42999.94995.95996z"/><path d="m74.81499 25.18952c0 .52002-.42993.96002-.95996.96002h-11.71997c-.52002 0-.94995-.44-.94995-.96002 0-.52997.42993-.95996.94995-.95996h11.71997c.53003 0 .95996.42999.95996.95996z"/><path d="m43.82429 38.29968c-.52002 0-.96002-.42993-.96002-.94995v-6.33008c0-.53003.44-.95996.96002-.95996.52997 0 .95996.42993.95996.95996v6.33008c0 .52002-.42999.94995-.95996.94995z"/><path d="m43.82429 54.72961c-.52002 0-.96002-.42993-.96002-.95996v-11.71997c0-.52002.44-.94995.96002-.94995.52997 0 .95996.42993.95996.94995v11.71997c0 .53003-.42999.95996-.95996.95996z"/></g></g></g></svg>