<?xml version="1.0" encoding="UTF-8" standalone="no"?>
<!-- Generator: Adobe Illustrator 19.0.0, SVG Export Plug-In . SVG Version: 6.00 Build 0)  -->

<svg
   xmlns:dc="http://purl.org/dc/elements/1.1/"
   xmlns:cc="http://creativecommons.org/ns#"
   xmlns:rdf="http://www.w3.org/1999/02/22-rdf-syntax-ns#"
   xmlns:svg="http://www.w3.org/2000/svg"
   xmlns="http://www.w3.org/2000/svg"
   xmlns:sodipodi="http://sodipodi.sourceforge.net/DTD/sodipodi-0.dtd"
   xmlns:inkscape="http://www.inkscape.org/namespaces/inkscape"
   version="1.1"
   id="Capa_1"
   x="0px"
   y="0px"
   viewBox="0 0 512 512"
   style="enable-background:new 0 0 512 512;"
   xml:space="preserve"
   sodipodi:docname="Lens.svg"
   inkscape:version="0.92.2 (5c3e80d, 2017-08-06)"><metadata
     id="metadata77"><rdf:RDF><cc:Work
         rdf:about=""><dc:format>image/svg+xml</dc:format><dc:type
           rdf:resource="http://purl.org/dc/dcmitype/StillImage" /></cc:Work></rdf:RDF></metadata><defs
     id="defs75" /><sodipodi:namedview
     pagecolor="#ffffff"
     bordercolor="#666666"
     borderopacity="1"
     objecttolerance="10"
     gridtolerance="10"
     guidetolerance="10"
     inkscape:pageopacity="0"
     inkscape:pageshadow="2"
     inkscape:window-width="1920"
     inkscape:window-height="1028"
     id="namedview73"
     showgrid="false"
     inkscape:zoom="0.4609375"
     inkscape:cx="-46.644068"
     inkscape:cy="256"
     inkscape:window-x="-8"
     inkscape:window-y="-8"
     inkscape:window-maximized="1"
     inkscape:current-layer="Capa_1" /><g
     id="g919"
     transform="matrix(0.80508475,0,0,0.80508475,49.898304,49.898304)"
     style="stroke-width:1.24210525"><circle
       id="circle2"
       r="249.87199"
       cy="256"
       cx="256"
       style="fill:#8c98a8;stroke-width:1.54282546" /><path
       id="path4"
       d="m 505.868,256.001 c 0,137.996 -111.872,249.868 -249.868,249.868 -5.641,0 -11.231,-0.182 -16.772,-0.556 C 369.41,496.689 472.325,388.355 472.325,256 472.325,123.645 369.41,15.311 239.228,6.688 244.768,6.314 250.359,6.132 256,6.132 c 137.996,0 249.868,111.872 249.868,249.869 z"
       style="fill:#808993;stroke-width:1.54282546"
       inkscape:connector-curvature="0" /><circle
       id="circle6"
       r="198.401"
       cy="256"
       cx="256"
       style="fill:#55d1e7;stroke-width:1.54282546" /><g
       id="g34"
       style="stroke-width:1.24210525"><path
         id="path8"
         d="m 256.503,36.913 c -4.162,0 -7.534,-3.372 -7.534,-7.534 V 7.534 c 0,-4.162 3.372,-7.534 7.534,-7.534 4.162,0 7.534,3.372 7.534,7.534 v 21.845 c 0,4.162 -3.374,7.534 -7.534,7.534 z"
         style="fill:#5c6777;stroke-width:1.24210525"
         inkscape:connector-curvature="0" /><path
         id="path10"
         d="m 255.498,512 c -4.162,0 -7.534,-3.372 -7.534,-7.534 v -21.845 c 0,-4.162 3.372,-7.534 7.534,-7.534 4.162,0 7.534,3.372 7.534,7.534 v 21.845 c 0,4.162 -3.373,7.534 -7.534,7.534 z"
         style="fill:#5c6777;stroke-width:1.24210525"
         inkscape:connector-curvature="0" /><path
         id="path12"
         d="m 143.132,67.025 c -2.604,0 -5.135,-1.351 -6.531,-3.768 L 125.678,44.338 c -2.08,-3.603 -0.846,-8.211 2.757,-10.291 3.601,-2.079 8.211,-0.846 10.291,2.757 l 10.923,18.919 c 2.08,3.603 0.846,8.211 -2.757,10.291 -1.186,0.684 -2.482,1.011 -3.76,1.011 z"
         style="fill:#5c6777;stroke-width:1.24210525"
         inkscape:connector-curvature="0" /><path
         id="path14"
         d="m 379.805,478.964 c -2.604,0 -5.135,-1.351 -6.531,-3.768 l -10.923,-18.919 c -2.08,-3.603 -0.846,-8.211 2.757,-10.291 3.601,-2.079 8.21,-0.847 10.291,2.757 l 10.923,18.919 c 2.08,3.603 0.846,8.211 -2.757,10.291 -1.186,0.685 -2.482,1.011 -3.76,1.011 z"
         style="fill:#5c6777;stroke-width:1.24210525"
         inkscape:connector-curvature="0" /><path
         id="path16"
         d="m 59.985,149.79 c -1.278,0 -2.575,-0.325 -3.76,-1.011 L 37.306,137.856 c -3.603,-2.08 -4.838,-6.688 -2.757,-10.291 2.079,-3.604 6.689,-4.838 10.291,-2.757 l 18.919,10.923 c 3.603,2.08 4.838,6.688 2.757,10.291 -1.395,2.417 -3.927,3.768 -6.531,3.768 z"
         style="fill:#5c6777;stroke-width:1.24210525"
         inkscape:connector-curvature="0" /><path
         id="path18"
         d="m 470.921,388.203 c -1.278,0 -2.575,-0.325 -3.76,-1.011 l -18.919,-10.923 c -3.603,-2.08 -4.838,-6.688 -2.757,-10.291 2.078,-3.604 6.688,-4.837 10.291,-2.757 l 18.919,10.923 c 3.603,2.08 4.838,6.688 2.757,10.291 -1.395,2.417 -3.929,3.768 -6.531,3.768 z"
         style="fill:#5c6777;stroke-width:1.24210525"
         inkscape:connector-curvature="0" /><path
         id="path20"
         d="M 29.379,263.032 H 7.534 C 3.372,263.032 0,259.66 0,255.498 c 0,-4.162 3.372,-7.534 7.534,-7.534 h 21.845 c 4.162,0 7.534,3.372 7.534,7.534 0,4.162 -3.372,7.534 -7.534,7.534 z"
         style="fill:#5c6777;stroke-width:1.24210525"
         inkscape:connector-curvature="0" /><path
         id="path22"
         d="m 504.466,264.037 h -21.845 c -4.162,0 -7.534,-3.372 -7.534,-7.534 0,-4.162 3.372,-7.534 7.534,-7.534 h 21.845 c 4.162,0 7.534,3.372 7.534,7.534 0,4.161 -3.372,7.534 -7.534,7.534 z"
         style="fill:#5c6777;stroke-width:1.24210525"
         inkscape:connector-curvature="0" /><path
         id="path24"
         d="m 40.578,387.333 c -2.604,0 -5.135,-1.351 -6.531,-3.768 -2.08,-3.603 -0.846,-8.211 2.757,-10.291 l 18.919,-10.923 c 3.601,-2.078 8.21,-0.847 10.291,2.757 2.08,3.603 0.846,8.211 -2.757,10.291 l -18.919,10.923 c -1.186,0.686 -2.482,1.011 -3.76,1.011 z"
         style="fill:#5c6777;stroke-width:1.24210525"
         inkscape:connector-curvature="0" /><path
         id="path26"
         d="m 452.517,150.66 c -2.604,0 -5.135,-1.351 -6.531,-3.768 -2.08,-3.603 -0.846,-8.211 2.757,-10.291 l 18.919,-10.923 c 3.602,-2.078 8.21,-0.847 10.291,2.757 2.08,3.603 0.846,8.211 -2.757,10.291 l -18.919,10.923 c -1.186,0.685 -2.481,1.011 -3.76,1.011 z"
         style="fill:#5c6777;stroke-width:1.24210525"
         inkscape:connector-curvature="0" /><path
         id="path28"
         d="m 131.325,478.461 c -1.278,0 -2.575,-0.325 -3.76,-1.011 -3.603,-2.08 -4.838,-6.688 -2.757,-10.291 l 10.923,-18.919 c 2.079,-3.604 6.689,-4.837 10.291,-2.757 3.603,2.08 4.838,6.688 2.757,10.291 l -10.923,18.919 c -1.394,2.418 -3.928,3.768 -6.531,3.768 z"
         style="fill:#5c6777;stroke-width:1.24210525"
         inkscape:connector-curvature="0" /><path
         id="path30"
         d="m 369.738,67.527 c -1.278,0 -2.575,-0.325 -3.76,-1.011 -3.603,-2.08 -4.838,-6.688 -2.757,-10.291 l 10.923,-18.919 c 2.079,-3.604 6.689,-4.838 10.291,-2.757 3.603,2.08 4.838,6.688 2.757,10.291 L 376.27,63.759 c -1.396,2.417 -3.928,3.768 -6.532,3.768 z"
         style="fill:#5c6777;stroke-width:1.24210525"
         inkscape:connector-curvature="0" /><circle
         id="circle32"
         r="89.903999"
         cy="256"
         cx="256"
         style="fill:#5c6777;stroke-width:1.24210525" /></g><path
       id="path36"
       d="m 345.91,256.001 c 0,49.66 -40.255,89.914 -89.914,89.914 -7.868,0 -15.498,-1.007 -22.762,-2.909 38.645,-10.082 67.152,-45.213 67.152,-87.005 0,-41.792 -28.508,-76.923 -67.152,-87.005 7.265,-1.903 14.894,-2.909 22.762,-2.909 49.659,-10e-4 89.914,40.254 89.914,89.914 z"
       style="fill:#525760;stroke-width:1.54282546"
       inkscape:connector-curvature="0" /><circle
       id="circle38"
       r="41.853001"
       cy="190.12399"
       cx="318.94199"
       style="fill:#e1e6e9;stroke-width:1.54282546" /><path
       id="path40"
       d="m 360.803,190.123 c 0,23.118 -18.739,41.857 -41.857,41.857 -3.662,0 -7.214,-0.468 -10.597,-1.354 17.99,-4.693 31.261,-21.048 31.261,-40.503 0,-19.455 -13.271,-35.81 -31.261,-40.503 3.381,-0.886 6.933,-1.354 10.597,-1.354 23.117,0 41.857,18.739 41.857,41.857 z"
       style="fill:#d2d6d8;stroke-width:1.54282546"
       inkscape:connector-curvature="0" /><g
       id="g42"
       style="stroke-width:1.24210525" /><g
       id="g44"
       style="stroke-width:1.24210525" /><g
       id="g46"
       style="stroke-width:1.24210525" /><g
       id="g48"
       style="stroke-width:1.24210525" /><g
       id="g50"
       style="stroke-width:1.24210525" /><g
       id="g52"
       style="stroke-width:1.24210525" /><g
       id="g54"
       style="stroke-width:1.24210525" /><g
       id="g56"
       style="stroke-width:1.24210525" /><g
       id="g58"
       style="stroke-width:1.24210525" /><g
       id="g60"
       style="stroke-width:1.24210525" /><g
       id="g62"
       style="stroke-width:1.24210525" /><g
       id="g64"
       style="stroke-width:1.24210525" /><g
       id="g66"
       style="stroke-width:1.24210525" /><g
       id="g68"
       style="stroke-width:1.24210525" /><g
       id="g70"
       style="stroke-width:1.24210525" /></g></svg>