<?xml version="1.0" encoding="UTF-8" standalone="no"?>
<!-- Generator: Adobe Illustrator 19.0.0, SVG Export Plug-In . SVG Version: 6.00 Build 0)  -->

<svg
   xmlns:dc="http://purl.org/dc/elements/1.1/"
   xmlns:cc="http://creativecommons.org/ns#"
   xmlns:rdf="http://www.w3.org/1999/02/22-rdf-syntax-ns#"
   xmlns:svg="http://www.w3.org/2000/svg"
   xmlns="http://www.w3.org/2000/svg"
   xmlns:sodipodi="http://sodipodi.sourceforge.net/DTD/sodipodi-0.dtd"
   xmlns:inkscape="http://www.inkscape.org/namespaces/inkscape"
   version="1.1"
   id="Capa_1"
   x="0px"
   y="0px"
   viewBox="0 0 512.001 512.001"
   style="enable-background:new 0 0 512.001 512.001;"
   xml:space="preserve"
   sodipodi:docname="Quality.svg"
   inkscape:version="0.92.2 (5c3e80d, 2017-08-06)"><metadata
     id="metadata83"><rdf:RDF><cc:Work
         rdf:about=""><dc:format>image/svg+xml</dc:format><dc:type
           rdf:resource="http://purl.org/dc/dcmitype/StillImage" /></cc:Work></rdf:RDF></metadata><defs
     id="defs81" /><sodipodi:namedview
     pagecolor="#ffffff"
     bordercolor="#666666"
     borderopacity="1"
     objecttolerance="10"
     gridtolerance="10"
     guidetolerance="10"
     inkscape:pageopacity="0"
     inkscape:pageshadow="2"
     inkscape:window-width="1920"
     inkscape:window-height="1028"
     id="namedview79"
     showgrid="false"
     inkscape:zoom="0.46093662"
     inkscape:cx="-46.644157"
     inkscape:cy="256.00049"
     inkscape:window-x="-8"
     inkscape:window-y="-8"
     inkscape:window-maximized="1"
     inkscape:current-layer="Capa_1" /><g
     id="g911"
     transform="matrix(0.89514005,0,0,0.89514005,25.923644,33.760935)"
     style="stroke-width:1.11714363"><path
       id="path2"
       d="M 390.044,127.227 H 260 c -2.209,0 -4,-1.791 -4,-4 V 30.27 c 0,-2.209 1.791,-4 4,-4 h 130.044 c 2.209,0 4,1.791 4,4 v 92.958 c 0,2.209 -1.791,3.999 -4,3.999 z"
       style="fill:#ff444a;stroke-width:1.24800992"
       inkscape:connector-curvature="0" /><path
       id="path4"
       d="M 270.423,291.026 H 241.578 V 14.208 C 241.577,6.361 247.938,0 255.785,0 h 0.43 c 7.847,0 14.208,6.361 14.208,14.208 z"
       style="fill:#bd6953;stroke-width:1.24800992"
       inkscape:connector-curvature="0" /><path
       id="path6"
       d="m 292.056,325.5 h -72.113 v -56.743 c 0,-2.209 1.791,-4 4,-4 h 64.113 c 2.209,0 4,1.791 4,4 z"
       style="fill:#fbd560;stroke-width:1.24800992"
       inkscape:connector-curvature="0" /><path
       id="path8"
       d="m 292.056,325.5 h -30.905 v -60.743 h 26.905 c 2.209,0 4,1.791 4,4 z"
       style="fill:#ffbd00;stroke-width:1.24800992"
       inkscape:connector-curvature="0" /><path
       id="path10"
       d="M 183.887,496.547 H 39.662 V 340.869 c 0,-2.209 1.791,-4 4,-4 h 136.225 c 2.209,0 4,1.791 4,4 z"
       style="fill:#fbd560;stroke-width:1.24800992"
       inkscape:connector-curvature="0" /><path
       id="path12"
       d="M 183.887,496.547 H 152.982 V 336.869 h 26.905 c 2.209,0 4,1.791 4,4 z"
       style="fill:#ffbd00;stroke-width:1.24800992"
       inkscape:connector-curvature="0" /><path
       id="path14"
       d="M 472.338,496.547 H 328.113 V 371.775 c 0,-2.209 1.791,-4 4,-4 h 136.225 c 2.209,0 4,1.791 4,4 z"
       style="fill:#ff444a;stroke-width:1.24800992"
       inkscape:connector-curvature="0" /><path
       id="path16"
       d="M 472.338,496.547 H 441.433 V 367.775 h 26.905 c 2.209,0 4,1.791 4,4 z"
       style="fill:#ea3d4a;stroke-width:1.24800992"
       inkscape:connector-curvature="0" /><path
       id="path18"
       d="M 328.113,496.547 H 183.887 V 299.662 c 0,-2.209 1.791,-4 4,-4 h 136.225 c 2.209,0 4,1.791 4,4 v 196.885 z"
       style="fill:#51e3f0;stroke-width:1.24800992"
       inkscape:connector-curvature="0" /><path
       id="path20"
       d="M 328.113,496.547 H 297.208 V 295.662 h 26.905 c 2.209,0 4,1.791 4,4 z"
       style="fill:#49b9db;stroke-width:1.24800992"
       inkscape:connector-curvature="0" /><g
       id="g26"
       style="stroke-width:1.11714363"><path
         id="path22"
         d="m 452.741,263.42 7.792,15.432 c 0.331,0.656 0.971,1.111 1.711,1.216 l 17.416,2.474 c 1.865,0.265 2.61,2.511 1.259,3.798 l -12.597,12.001 c -0.537,0.512 -0.782,1.249 -0.655,1.972 l 2.974,16.951 c 0.319,1.818 -1.628,3.205 -3.296,2.348 l -15.586,-8.009 c -0.661,-0.34 -1.451,-0.34 -2.112,0 l -15.586,8.009 c -1.668,0.857 -3.615,-0.53 -3.296,-2.348 l 2.974,-16.951 c 0.127,-0.723 -0.118,-1.461 -0.655,-1.972 L 420.487,286.34 c -1.351,-1.287 -0.607,-3.533 1.259,-3.798 l 17.416,-2.474 c 0.74,-0.105 1.38,-0.56 1.711,-1.216 l 7.792,-15.432 c 0.836,-1.652 3.242,-1.652 4.076,0 z"
         style="fill:#fbd560;stroke-width:1.11714363"
         inkscape:connector-curvature="0" /><path
         id="path24"
         d="m 65.393,109.923 7.792,15.432 c 0.331,0.656 0.971,1.111 1.711,1.216 l 17.416,2.474 c 1.865,0.265 2.61,2.511 1.259,3.798 l -12.597,12.001 c -0.537,0.512 -0.782,1.249 -0.655,1.972 l 2.974,16.951 c 0.319,1.818 -1.628,3.205 -3.296,2.348 l -15.586,-8.009 c -0.661,-0.34 -1.451,-0.34 -2.112,0 l -15.586,8.009 c -1.668,0.857 -3.615,-0.53 -3.296,-2.348 l 2.974,-16.951 c 0.127,-0.723 -0.118,-1.461 -0.655,-1.972 L 33.139,132.843 c -1.351,-1.287 -0.607,-3.533 1.259,-3.798 l 17.416,-2.474 c 0.74,-0.105 1.38,-0.56 1.711,-1.216 l 7.792,-15.432 c 0.836,-1.652 3.242,-1.652 4.076,0 z"
         style="fill:#fbd560;stroke-width:1.11714363"
         inkscape:connector-curvature="0" /></g><g
       id="g34"
       style="stroke-width:1.11714363"><path
         id="path28"
         d="M 127.228,370.577 H 96.322 c -4.143,0 -7.5,3.358 -7.5,7.5 0,4.142 3.357,7.5 7.5,7.5 h 23.405 v 15.905 H 96.322 c -4.143,0 -7.5,3.358 -7.5,7.5 v 30.905 c 0,4.142 3.357,7.5 7.5,7.5 h 30.905 c 4.143,0 7.5,-3.358 7.5,-7.5 0,-4.142 -3.357,-7.5 -7.5,-7.5 h -23.405 v -15.905 h 23.405 c 4.143,0 7.5,-3.358 7.5,-7.5 v -30.905 c 0.001,-4.142 -3.357,-7.5 -7.499,-7.5 z"
         style="fill:#fff6cf;stroke-width:1.11714363"
         inkscape:connector-curvature="0" /><path
         id="path30"
         d="m 415.678,386.029 h -30.905 c -4.143,0 -7.5,3.358 -7.5,7.5 0,4.142 3.357,7.5 7.5,7.5 h 23.405 v 15.905 h -23.405 c -4.143,0 -7.5,3.358 -7.5,7.5 0,4.142 3.357,7.5 7.5,7.5 h 23.405 v 15.905 h -23.405 c -4.143,0 -7.5,3.358 -7.5,7.5 0,4.142 3.357,7.5 7.5,7.5 h 30.905 c 4.143,0 7.5,-3.358 7.5,-7.5 v -30.905 -30.905 c 0,-4.142 -3.358,-7.5 -7.5,-7.5 z"
         style="fill:#fff6cf;stroke-width:1.11714363"
         inkscape:connector-curvature="0" /><path
         id="path32"
         d="M 271.453,416.935 H 263.5 v -54.311 c 0,-4.142 -3.357,-7.5 -7.5,-7.5 h -15.453 c -4.143,0 -7.5,3.358 -7.5,7.5 0,4.142 3.357,7.5 7.5,7.5 h 7.953 v 46.811 h -7.953 c -4.143,0 -7.5,3.358 -7.5,7.5 0,4.142 3.357,7.5 7.5,7.5 h 30.906 c 4.143,0 7.5,-3.358 7.5,-7.5 0,-4.142 -3.357,-7.5 -7.5,-7.5 z"
         style="fill:#fff6cf;stroke-width:1.11714363"
         inkscape:connector-curvature="0" /></g><g
       id="g42"
       style="stroke-width:1.11714363"><path
         id="path36"
         d="M 183.988,72.876 H 172.945 V 61.833 c 0,-4.142 -3.357,-7.5 -7.5,-7.5 -4.143,0 -7.5,3.358 -7.5,7.5 v 11.043 h -11.043 c -4.143,0 -7.5,3.358 -7.5,7.5 0,4.142 3.357,7.5 7.5,7.5 h 11.043 v 11.043 c 0,4.142 3.357,7.5 7.5,7.5 4.143,0 7.5,-3.358 7.5,-7.5 V 87.876 h 11.043 c 4.143,0 7.5,-3.358 7.5,-7.5 0,-4.142 -3.357,-7.5 -7.5,-7.5 z"
         style="fill:#ff444a;stroke-width:1.11714363"
         inkscape:connector-curvature="0" /><path
         id="path38"
         d="m 400.803,184.93 h -8.983 v -8.983 c 0,-4.142 -3.357,-7.5 -7.5,-7.5 -4.143,0 -7.5,3.358 -7.5,7.5 v 8.983 h -8.982 c -4.143,0 -7.5,3.358 -7.5,7.5 0,4.142 3.357,7.5 7.5,7.5 h 8.982 v 8.983 c 0,4.142 3.357,7.5 7.5,7.5 4.143,0 7.5,-3.358 7.5,-7.5 v -8.983 h 8.983 c 4.143,0 7.5,-3.358 7.5,-7.5 0,-4.142 -3.358,-7.5 -7.5,-7.5 z"
         style="fill:#ff444a;stroke-width:1.11714363"
         inkscape:connector-curvature="0" /><path
         id="path40"
         d="m 131.931,236.653 h -5.893 v -5.892 c 0,-4.142 -3.357,-7.5 -7.5,-7.5 -4.143,0 -7.5,3.358 -7.5,7.5 v 5.892 h -5.893 c -4.143,0 -7.5,3.358 -7.5,7.5 0,4.142 3.357,7.5 7.5,7.5 h 5.893 v 5.893 c 0,4.142 3.357,7.5 7.5,7.5 4.143,0 7.5,-3.358 7.5,-7.5 v -5.893 h 5.893 c 4.143,0 7.5,-3.358 7.5,-7.5 0,-4.142 -3.358,-7.5 -7.5,-7.5 z"
         style="fill:#ff444a;stroke-width:1.11714363"
         inkscape:connector-curvature="0" /></g></g><g
     id="g48" /><g
     id="g50" /><g
     id="g52" /><g
     id="g54" /><g
     id="g56" /><g
     id="g58" /><g
     id="g60" /><g
     id="g62" /><g
     id="g64" /><g
     id="g66" /><g
     id="g68" /><g
     id="g70" /><g
     id="g72" /><g
     id="g74" /><g
     id="g76" /></svg>