<?xml version="1.0" encoding="UTF-8" standalone="no"?>
<!-- Generator: Adobe Illustrator 19.0.0, SVG Export Plug-In . SVG Version: 6.00 Build 0)  -->

<svg
   xmlns:dc="http://purl.org/dc/elements/1.1/"
   xmlns:cc="http://creativecommons.org/ns#"
   xmlns:rdf="http://www.w3.org/1999/02/22-rdf-syntax-ns#"
   xmlns:svg="http://www.w3.org/2000/svg"
   xmlns="http://www.w3.org/2000/svg"
   xmlns:sodipodi="http://sodipodi.sourceforge.net/DTD/sodipodi-0.dtd"
   xmlns:inkscape="http://www.inkscape.org/namespaces/inkscape"
   version="1.1"
   id="Capa_1"
   x="0px"
   y="0px"
   viewBox="0 0 512 512"
   style="enable-background:new 0 0 512 512;"
   xml:space="preserve"
   sodipodi:docname="Workflow.svg"
   inkscape:version="0.92.2 (5c3e80d, 2017-08-06)"><metadata
     id="metadata51"><rdf:RDF><cc:Work
         rdf:about=""><dc:format>image/svg+xml</dc:format><dc:type
           rdf:resource="http://purl.org/dc/dcmitype/StillImage" /></cc:Work></rdf:RDF></metadata><defs
     id="defs49" /><sodipodi:namedview
     pagecolor="#ffffff"
     bordercolor="#666666"
     borderopacity="1"
     objecttolerance="10"
     gridtolerance="10"
     guidetolerance="10"
     inkscape:pageopacity="0"
     inkscape:pageshadow="2"
     inkscape:window-width="2560"
     inkscape:window-height="1388"
     id="namedview47"
     showgrid="false"
     inkscape:zoom="1.3037281"
     inkscape:cx="202.41064"
     inkscape:cy="210.15102"
     inkscape:window-x="-8"
     inkscape:window-y="-8"
     inkscape:window-maximized="1"
     inkscape:current-layer="Capa_1" /><path
     inkscape:connector-curvature="0"
     style="fill:#465059;stroke-width:1.28260875"
     d="m 378.32959,378.13342 c -6.66766,0 -12.07305,-5.40539 -12.07305,-12.07305 V 158.00392 H 145.74268 v 208.05723 c 0,6.66766 -5.40539,12.07305 -12.07305,12.07305 -6.66766,0 -12.07305,-5.40539 -12.07305,-12.07305 V 145.93087 c 0,-6.66766 5.40539,-12.07305 12.07305,-12.07305 h 244.65918 c 6.66767,0 12.07306,5.40539 12.07306,12.07305 v 220.13028 c 0,6.66766 -5.40539,12.07227 -12.07228,12.07227 z"
     id="path2" /><circle
     style="fill:#6d948f;stroke-width:1.28260875;fill-opacity:1"
     cx="133.67352"
     cy="145.93477"
     r="77.266747"
     id="circle4" /><path
     inkscape:connector-curvature="0"
     style="fill:#b5999b;stroke-width:1.28260875;fill-opacity:1"
     d="m 367.458,73.170568 -61.88949,61.889492 c -6.00495,6.00495 -6.00495,15.73902 0,21.74319 l 61.88871,61.88871 c 6.00495,6.00495 15.73902,6.00495 21.74319,0 l 61.88871,-61.88871 c 6.00495,-6.00495 6.00495,-15.73902 0,-21.74319 L 389.20119,73.170568 c -6.00417,-6.00417 -15.73902,-6.00417 -21.74319,0 z"
     id="path8" /><path
     inkscape:connector-curvature="0"
     style="fill:#aba38c;stroke-width:1.28260875;fill-opacity:1"
     d="M 190.84685,288.7983 H 76.494745 c -11.094576,0 -20.087966,8.99261 -20.087966,20.08718 v 114.35133 c 0,11.09457 8.99339,20.08796 20.087966,20.08796 H 190.84685 c 11.09457,0 20.08796,-8.99339 20.08796,-20.08796 V 308.88548 c 0,-11.09457 -8.99417,-20.08718 -20.08796,-20.08718 z"
     id="path10" /><circle
     style="fill:#cfcdda;stroke-width:1.28260875;fill-opacity:1"
     cx="378.32648"
     cy="366.06583"
     r="77.266747"
     id="circle12" /><g
     id="g16" /><g
     id="g18" /><g
     id="g20" /><g
     id="g22" /><g
     id="g24" /><g
     id="g26" /><g
     id="g28" /><g
     id="g30" /><g
     id="g32" /><g
     id="g34" /><g
     id="g36" /><g
     id="g38" /><g
     id="g40" /><g
     id="g42" /><g
     id="g44" /></svg>