<?xml version="1.0" encoding="iso-8859-1"?>
<!-- Generator: Adobe Illustrator 19.0.0, SVG Export Plug-In . SVG Version: 6.00 Build 0)  -->
<svg version="1.1" id="Layer_1" xmlns="http://www.w3.org/2000/svg" xmlns:xlink="http://www.w3.org/1999/xlink" x="0px" y="0px"
	 viewBox="0 0 512 512" style="enable-background:new 0 0 512 512;" xml:space="preserve">
<g>
	<g>
		<path d="M444.644,344.233L266.667,176.729V10.667C266.667,4.771,261.896,0,256,0s-10.667,4.771-10.667,10.667v145.984
			L81.977,2.908c-3.115-2.906-7.635-3.74-11.542-2.021c-3.906,1.688-6.437,5.531-6.437,9.791v490.655
			c0,4.312,2.594,8.208,6.583,9.854C71.904,511.74,73.29,512,74.665,512c2.771,0,5.5-1.083,7.542-3.125L228.415,362.67h16.918
			v138.663c0,5.896,4.771,10.667,10.667,10.667s10.667-4.771,10.667-10.667V362.67h170.665c4.375,0,8.302-2.667,9.917-6.739
			C448.863,351.868,447.832,347.233,444.644,344.233z M223.998,341.333c-2.833,0-5.542,1.125-7.542,3.125L85.332,475.583V35.354
			l160.002,150.589v155.39H223.998z M266.667,341.333V206.022l143.769,135.312H266.667z"/>
	</g>
</g>
<g>
</g>
<g>
</g>
<g>
</g>
<g>
</g>
<g>
</g>
<g>
</g>
<g>
</g>
<g>
</g>
<g>
</g>
<g>
</g>
<g>
</g>
<g>
</g>
<g>
</g>
<g>
</g>
<g>
</g>
</svg>
