<?xml version="1.0" encoding="UTF-8" standalone="no"?>
<svg
   xmlns:dc="http://purl.org/dc/elements/1.1/"
   xmlns:cc="http://creativecommons.org/ns#"
   xmlns:rdf="http://www.w3.org/1999/02/22-rdf-syntax-ns#"
   xmlns:svg="http://www.w3.org/2000/svg"
   xmlns="http://www.w3.org/2000/svg"
   xmlns:sodipodi="http://sodipodi.sourceforge.net/DTD/sodipodi-0.dtd"
   xmlns:inkscape="http://www.inkscape.org/namespaces/inkscape"
   id="Layer_1"
   height="512"
   viewBox="0 0 512 512"
   width="512"
   data-name="Layer 1"
   version="1.1"
   sodipodi:docname="FeaturePackage.svg"
   inkscape:version="0.92.2 (5c3e80d, 2017-08-06)">
  <metadata
     id="metadata9">
    <rdf:RDF>
      <cc:Work
         rdf:about="">
        <dc:format>image/svg+xml</dc:format>
        <dc:type
           rdf:resource="http://purl.org/dc/dcmitype/StillImage" />
      </cc:Work>
    </rdf:RDF>
  </metadata>
  <defs
     id="defs7" />
  <sodipodi:namedview
     pagecolor="#8E8E8E"
     bordercolor="#666666"
     borderopacity="1"
     objecttolerance="10"
     gridtolerance="10"
     guidetolerance="10"
     inkscape:pageopacity="0"
     inkscape:pageshadow="2"
     inkscape:window-width="1920"
     inkscape:window-height="1028"
     id="namedview5"
     showgrid="false"
     inkscape:zoom="0.4609375"
     inkscape:cx="-64"
     inkscape:cy="256"
     inkscape:window-x="-8"
     inkscape:window-y="-8"
     inkscape:window-maximized="1"
     inkscape:current-layer="Layer_1" />
  <path
     d="m 255.9762,247.34806 -58.40263,-33.72107 58.40263,-33.72107 58.4114,33.72107 z m -116.25131,-49.81521 26.95087,15.55864 7.48918,-4.32443 v -8.65325 l -26.95087,-15.55425 a 56.283426,56.283426 0 0 1 -7.48742,12.97329 z m 7.48216,129.90758 34.4462,-19.87956 -7.49357,-4.32706 v -8.64886 l -34.43742,19.88132 a 56.478315,56.478315 0 0 1 4.17782,6.23293 55.908571,55.908571 0 0 1 3.31048,6.73684 z m 116.25921,58.46671 v -31.10938 l -7.49006,-4.32706 -7.49182,4.32531 v 31.11552 a 56.151744,56.151744 0 0 1 14.98539,0 z m 108.76563,-71.44087 -34.43215,-19.8822 v 8.64974 l -7.4962,4.32706 34.43917,19.87781 a 56.33522,56.33522 0 0 1 7.48918,-12.97241 z m -7.48654,-129.91022 -26.94122,15.55074 v 8.65412 l 7.49006,4.32443 26.93507,-15.55249 a 56.348389,56.348389 0 0 1 -7.4883,-12.97241 z M 255.9762,161.5249 l 7.49357,4.32531 v -39.76263 a 56.151744,56.151744 0 0 1 -14.98539,0 v 39.76263 z m 194.62567,206.84311 a 39.72927,39.72927 0 1 1 -14.52977,-54.23622 39.492243,39.492243 0 0 1 14.52977,54.23622 z m -187.1321,-40.60452 58.4114,-33.72019 v -67.43687 l -58.4114,33.7158 z m 32.20936,113.2674 a 39.702934,39.702934 0 1 1 -39.70293,-39.70206 39.747706,39.747706 0 0 1 39.70205,39.70206 z M 190.08176,226.60643 v 67.43687 l 58.40262,33.72019 v -67.44126 z m -55.99548,132.17866 a 39.707323,39.707323 0 1 1 -3.97153,-30.12002 39.460639,39.460639 0 0 1 3.97153,30.12002 z M 106.01172,201.83445 a 39.717858,39.717858 0 1 1 24.10303,-18.50217 39.494877,39.494877 0 0 1 -24.10303,18.50217 z M 216.27326,70.962085 A 39.702934,39.702934 0 1 1 255.9762,110.67116 39.747706,39.747706 0 0 1 216.27326,70.963835 Z m 161.59286,82.245795 a 39.717858,39.717858 0 1 1 3.97152,30.1244 39.411478,39.411478 0 0 1 -3.97064,-30.12264 z"
     id="path2"
     inkscape:connector-curvature="0"
     style="fill-rule:evenodd;stroke-width:0.99999994;fill:#8E8E8E;fill-opacity:1" />
</svg>
