<?xml version="1.0" encoding="UTF-8" standalone="no"?>
<svg
   xmlns:dc="http://purl.org/dc/elements/1.1/"
   xmlns:cc="http://creativecommons.org/ns#"
   xmlns:rdf="http://www.w3.org/1999/02/22-rdf-syntax-ns#"
   xmlns:svg="http://www.w3.org/2000/svg"
   xmlns="http://www.w3.org/2000/svg"
   xmlns:sodipodi="http://sodipodi.sourceforge.net/DTD/sodipodi-0.dtd"
   xmlns:inkscape="http://www.inkscape.org/namespaces/inkscape"
   id="Layer_1"
   enable-background="new 0 0 32 32"
   height="512"
   viewBox="0 0 32 32"
   width="512"
   version="1.1"
   sodipodi:docname="FeatureList.svg"
   inkscape:version="1.0.2-2 (e86c870879, 2021-01-15)">
  <metadata
     id="metadata17">
    <rdf:RDF>
      <cc:Work
         rdf:about="">
        <dc:format>image/svg+xml</dc:format>
        <dc:type
           rdf:resource="http://purl.org/dc/dcmitype/StillImage" />
      </cc:Work>
    </rdf:RDF>
  </metadata>
  <defs
     id="defs15" />
  <sodipodi:namedview
     pagecolor="#ffffff"
     bordercolor="#666666"
     borderopacity="1"
     objecttolerance="10"
     gridtolerance="10"
     guidetolerance="10"
     inkscape:pageopacity="0"
     inkscape:pageshadow="2"
     inkscape:window-width="1920"
     inkscape:window-height="1017"
     id="namedview13"
     showgrid="false"
     inkscape:zoom="0.4609375"
     inkscape:cx="-64"
     inkscape:cy="256"
     inkscape:window-x="-8"
     inkscape:window-y="-8"
     inkscape:window-maximized="1"
     inkscape:current-layer="Layer_1"
     inkscape:document-rotation="0" />
  <g
     id="g10"
     transform="matrix(0.89285714,0,0,0.89285714,1.7142858,1.7142858)"
     style="stroke-width:1.12;fill:#ffffff;fill-opacity:1">
    <path
       d="M 4,6 H 24 C 25.1,6 26,5.1 26,4 26,2.9 25.1,2 24,2 H 4 C 2.9,2 2,2.9 2,4 2,5.1 2.9,6 4,6 Z"
       id="path2"
       inkscape:connector-curvature="0"
       style="stroke-width:1.12;fill:#ffffff;fill-opacity:1" />
    <path
       d="m 4,16 h 20 c 1.1,0 2,-0.9 2,-2 0,-1.1 -0.9,-2 -2,-2 H 4 c -1.1,0 -2,0.9 -2,2 0,1.1 0.9,2 2,2 z"
       id="path4"
       inkscape:connector-curvature="0"
       style="stroke-width:1.12;fill:#ffffff;fill-opacity:1" />
    <path
       d="M 14,22 H 4 c -1.1,0 -2,0.9 -2,2 0,1.1 0.9,2 2,2 h 10 c 1.1,0 2,-0.9 2,-2 0,-1.1 -0.9,-2 -2,-2 z"
       id="path6"
       inkscape:connector-curvature="0"
       style="stroke-width:1.12;fill:#ffffff;fill-opacity:1" />
    <path
       d="m 28,22 h -2 v -2 c 0,-1.1 -0.9,-2 -2,-2 -1.1,0 -2,0.9 -2,2 v 2 h -2 c -1.1,0 -2,0.9 -2,2 0,1.1 0.9,2 2,2 h 2 v 2 c 0,1.1 0.9,2 2,2 1.1,0 2,-0.9 2,-2 v -2 h 2 c 1.1,0 2,-0.9 2,-2 0,-1.1 -0.9,-2 -2,-2 z"
       id="path8"
       inkscape:connector-curvature="0"
       style="stroke-width:1.12;fill:#ffffff;fill-opacity:1" />
  </g>
</svg>
