<?xml version="1.0" encoding="iso-8859-1"?>
<!-- Generator: Adobe Illustrator 19.0.0, SVG Export Plug-In . SVG Version: 6.00 Build 0)  -->
<svg version="1.1" id="Layer_1" xmlns="http://www.w3.org/2000/svg" xmlns:xlink="http://www.w3.org/1999/xlink" x="0px" y="0px"
	 viewBox="0 0 512.01 512.01" style="enable-background:new 0 0 512.01 512.01;" xml:space="preserve">
<g>
	<g>
		<g>
			<path d="M394.672,0.01c-64.698,0-117.333,52.635-117.333,117.333s52.635,117.333,117.333,117.333s117.333-52.635,117.333-117.333
				S459.37,0.01,394.672,0.01z M455.561,43.746c17.648,14.629,29.936,35.212,33.621,58.858
				c-5.305,7.775-11.766,13.557-22.125,19.531c-10.99,6.354-24.417,8.677-37,6.385c-5.397-0.995-10.23-2.876-14.441-5.326
				c23.215-10.362,40.733-36.734,40.733-66.143C456.349,52.298,456.053,47.927,455.561,43.746z M394.672,21.344
				c12.165,0,23.704,2.505,34.424,6.651c4.125,8.508,5.919,17.02,5.919,29.057c0,18.925-10.806,37.03-24.844,45.143
				c0.951-9.086-0.027-18.71-3.417-28.237c-5.938-16.688-18.135-31.333-33.458-40.177c-4.203-2.428-8.212-4.379-12.159-6.064
				C371.617,23.781,382.833,21.344,394.672,21.344z M334.832,42.88c9.303,0.725,17.504,3.427,27.798,9.38
				c11,6.344,19.76,16.865,24.021,28.854c1.848,5.184,2.639,10.324,2.617,15.208c-7.387-5.354-16.201-9.311-26.128-11.135
				c-17.406-3.229-36.208,0.031-51.51,8.885c-4.22,2.431-7.923,4.938-11.366,7.521C304.213,77.893,316.871,57.346,334.832,42.88z
				 M333.782,190.941c-17.648-14.629-29.936-35.212-33.621-58.858c5.305-7.775,11.766-13.557,22.125-19.531
				c11-6.344,24.458-8.646,37-6.385c5.397,0.995,10.23,2.876,14.441,5.326c-23.215,10.362-40.733,36.734-40.733,66.143
				C332.995,182.389,333.29,186.76,333.782,190.941z M394.672,213.344c-12.165,0-23.704-2.505-34.424-6.651
				c-4.125-8.509-5.919-17.018-5.919-29.057c0-18.924,10.807-37.031,24.844-45.145c-0.951,9.086,0.027,18.711,3.417,28.238
				c5.938,16.688,18.135,31.333,33.458,40.177c4.203,2.428,8.212,4.379,12.159,6.064
				C417.727,210.906,406.51,213.344,394.672,213.344z M454.513,191.807c-9.305-0.725-17.505-3.427-27.799-9.38
				c-11-6.344-19.76-16.865-24.021-28.854c-1.848-5.184-2.638-10.324-2.616-15.208c7.387,5.354,16.199,9.311,26.126,11.135
				c4.396,0.813,8.885,1.208,13.385,1.208c13.302,0,26.688-3.479,38.125-10.094c4.22-2.431,7.923-4.938,11.366-7.521
				C485.13,156.794,472.474,177.342,454.513,191.807z"/>
			<path d="M17.984,2.906C14.88-0.011,10.349-0.823,6.443,0.885c-3.906,1.687-6.438,5.531-6.438,9.792v490.667
				c0,4.313,2.594,8.208,6.583,9.854c1.323,0.552,2.708,0.813,4.083,0.813c2.771,0,5.5-1.083,7.542-3.125l146.208-146.208h208.917
				c4.375,0,8.302-2.667,9.917-6.74c1.615-4.063,0.583-8.698-2.604-11.698L17.984,2.906z M160.005,341.344
				c-2.833,0-5.542,1.125-7.542,3.125L21.338,475.594V35.364l325.104,305.979H160.005z"/>
		</g>
	</g>
</g>
<g>
</g>
<g>
</g>
<g>
</g>
<g>
</g>
<g>
</g>
<g>
</g>
<g>
</g>
<g>
</g>
<g>
</g>
<g>
</g>
<g>
</g>
<g>
</g>
<g>
</g>
<g>
</g>
<g>
</g>
</svg>
