<?xml version="1.0" encoding="UTF-8" standalone="no"?>
<!-- Generator: Adobe Illustrator 19.0.0, SVG Export Plug-In . SVG Version: 6.00 Build 0)  -->

<svg
   xmlns:dc="http://purl.org/dc/elements/1.1/"
   xmlns:cc="http://creativecommons.org/ns#"
   xmlns:rdf="http://www.w3.org/1999/02/22-rdf-syntax-ns#"
   xmlns:svg="http://www.w3.org/2000/svg"
   xmlns="http://www.w3.org/2000/svg"
   xmlns:sodipodi="http://sodipodi.sourceforge.net/DTD/sodipodi-0.dtd"
   xmlns:inkscape="http://www.inkscape.org/namespaces/inkscape"
   version="1.1"
   id="Layer_1"
   x="0px"
   y="0px"
   viewBox="0 0 469.333 469.333"
   style="enable-background:new 0 0 469.333 469.333;"
   xml:space="preserve"
   sodipodi:docname="BoxFromSelection.svg"
   inkscape:version="0.92.4 (5da689c313, 2019-01-14)"><metadata
     id="metadata67"><rdf:RDF><cc:Work
         rdf:about=""><dc:format>image/svg+xml</dc:format><dc:type
           rdf:resource="http://purl.org/dc/dcmitype/StillImage" /><dc:title></dc:title></cc:Work></rdf:RDF></metadata><defs
     id="defs65" /><sodipodi:namedview
     pagecolor="#ffffff"
     bordercolor="#666666"
     borderopacity="1"
     objecttolerance="10"
     gridtolerance="10"
     guidetolerance="10"
     inkscape:pageopacity="0"
     inkscape:pageshadow="2"
     inkscape:window-width="1920"
     inkscape:window-height="1028"
     id="namedview63"
     showgrid="false"
     inkscape:zoom="0.70710678"
     inkscape:cx="152.01048"
     inkscape:cy="413.6528"
     inkscape:window-x="-8"
     inkscape:window-y="-8"
     inkscape:window-maximized="1"
     inkscape:current-layer="Layer_1" /><g
     id="g1699"
     transform="translate(36,-28)"><g
       transform="matrix(1.1222827,0,0,1.1267193,-5.1214611,63.239176)"
       id="g1653"><g
         id="g26"
         style="fill:#D9D9D9;fill-opacity:1;stroke:#D9D9D9;stroke-width:3.39607;stroke-miterlimit:4;stroke-dasharray:none;stroke-opacity:1"
         transform="matrix(0.97308486,0,0,0.97033987,6.316821,6.9602428)"><path
           d="M 42.669,341.333 H 21.336 V 320 c 0,-5.896 -4.771,-10.667 -10.667,-10.667 -5.896,0 -10.667,4.771 -10.667,10.667 v 32 c 0,5.896 4.771,10.667 10.667,10.667 h 32 c 5.896,0 10.667,-4.771 10.667,-10.667 0,-5.896 -4.771,-10.667 -10.667,-10.667 z"
           id="path4"
           style="fill:#D9D9D9;fill-opacity:1;stroke:#D9D9D9;stroke-width:3.39607;stroke-miterlimit:4;stroke-dasharray:none;stroke-opacity:1"
           inkscape:connector-curvature="0" /><path
           d="m 10.669,160 c 5.896,0 10.667,-4.771 10.667,-10.667 v -42.667 c 0,-5.896 -4.771,-10.667 -10.667,-10.667 -5.896,0 -10.667,4.771 -10.667,10.667 v 42.667 c 0,5.896 4.771,10.667 10.667,10.667 z"
           id="path6"
           style="fill:#D9D9D9;fill-opacity:1;stroke:#D9D9D9;stroke-width:3.39607;stroke-miterlimit:4;stroke-dasharray:none;stroke-opacity:1"
           inkscape:connector-curvature="0" /><path
           d="m 10.669,266.667 c 5.896,0 10.667,-4.771 10.667,-10.667 v -42.667 c 0,-5.896 -4.771,-10.667 -10.667,-10.667 -5.896,0 -10.667,4.771 -10.667,10.667 V 256 c 0,5.896 4.771,10.667 10.667,10.667 z"
           id="path8"
           style="fill:#D9D9D9;fill-opacity:1;stroke:#D9D9D9;stroke-width:3.39607;stroke-miterlimit:4;stroke-dasharray:none;stroke-opacity:1"
           inkscape:connector-curvature="0" /><path
           d="m 42.669,0 h -32 C 4.773,0 0.002,4.771 0.002,10.667 v 32 c 0,5.896 4.771,10.667 10.667,10.667 5.896,0 10.667,-4.771 10.667,-10.667 V 21.333 h 21.333 c 5.896,0 10.667,-4.771 10.667,-10.667 C 53.336,4.77 48.565,0 42.669,0 Z"
           id="path10"
           style="fill:#D9D9D9;fill-opacity:1;stroke:#D9D9D9;stroke-width:3.39607;stroke-miterlimit:4;stroke-dasharray:none;stroke-opacity:1"
           inkscape:connector-curvature="0" /><path
           d="m 149.336,0 h -42.667 c -5.896,0 -10.667,4.771 -10.667,10.667 0,5.896 4.771,10.667 10.667,10.667 h 42.667 c 5.896,0 10.667,-4.771 10.667,-10.667 C 160.003,4.771 155.231,0 149.336,0 Z"
           id="path12"
           style="fill:#D9D9D9;fill-opacity:1;stroke:#D9D9D9;stroke-width:3.39607;stroke-miterlimit:4;stroke-dasharray:none;stroke-opacity:1"
           inkscape:connector-curvature="0" /><path
           d="m 256.002,0 h -42.667 c -5.896,0 -10.667,4.771 -10.667,10.667 0,5.896 4.771,10.667 10.667,10.667 h 42.667 c 5.896,0 10.667,-4.771 10.667,-10.667 C 266.669,4.771 261.898,0 256.002,0 Z"
           id="path14"
           style="fill:#D9D9D9;fill-opacity:1;stroke:#D9D9D9;stroke-width:3.39607;stroke-miterlimit:4;stroke-dasharray:none;stroke-opacity:1"
           inkscape:connector-curvature="0" /><path
           d="m 149.336,341.333 h -42.667 c -5.896,0 -10.667,4.771 -10.667,10.667 0,5.896 4.771,10.667 10.667,10.667 h 42.667 c 5.896,0 10.667,-4.771 10.667,-10.667 -10e-4,-5.896 -4.772,-10.667 -10.667,-10.667 z"
           id="path16"
           style="fill:#D9D9D9;fill-opacity:1;stroke:#D9D9D9;stroke-width:3.39607;stroke-miterlimit:4;stroke-dasharray:none;stroke-opacity:1"
           inkscape:connector-curvature="0" /><path
           d="m 256.002,341.333 h -42.667 c -5.896,0 -10.667,4.771 -10.667,10.667 0,5.896 4.771,10.667 10.667,10.667 h 42.667 c 5.896,0 10.667,-4.771 10.667,-10.667 0,-5.896 -4.771,-10.667 -10.667,-10.667 z"
           id="path18"
           style="fill:#D9D9D9;fill-opacity:1;stroke:#D9D9D9;stroke-width:3.39607;stroke-miterlimit:4;stroke-dasharray:none;stroke-opacity:1"
           inkscape:connector-curvature="0" /><path
           d="m 320.002,21.333 h 21.333 v 21.333 c 0,5.896 4.771,10.667 10.667,10.667 5.896,0 10.667,-4.771 10.667,-10.667 v -32 C 362.669,4.771 357.898,0 352.002,0 h -32 c -5.896,0 -10.667,4.771 -10.667,10.667 0,5.896 4.771,10.666 10.667,10.666 z"
           id="path20"
           style="fill:#D9D9D9;fill-opacity:1;stroke:#D9D9D9;stroke-width:3.39607;stroke-miterlimit:4;stroke-dasharray:none;stroke-opacity:1"
           inkscape:connector-curvature="0" /><path
           d="m 362.669,106.667 c 0,-5.896 -4.771,-10.667 -10.667,-10.667 -5.896,0 -10.667,4.771 -10.667,10.667 v 42.667 c 0,5.896 4.771,10.667 10.667,10.667 5.896,0 10.667,-4.771 10.667,-10.667 z"
           id="path24"
           style="fill:#D9D9D9;fill-opacity:1;stroke:#D9D9D9;stroke-width:3.39607;stroke-miterlimit:4;stroke-dasharray:none;stroke-opacity:1"
           inkscape:connector-curvature="0" /></g><g
         id="g32" /><g
         id="g34" /><g
         id="g36" /><g
         id="g38" /><g
         id="g40" /><g
         id="g42" /><g
         id="g44" /><g
         id="g46" /><g
         id="g48" /><g
         id="g50" /><g
         id="g52" /><g
         id="g54" /><g
         id="g56" /><g
         id="g58" /><g
         id="g60" /><path
         d="m 348.84347,265.70039 c 5.73731,0 10.3799,-4.62949 10.3799,-10.35061 v -41.36243 c 0,-5.72113 -4.64259,-10.35062 -10.3799,-10.35062 -5.73731,0 -10.3799,4.59043 -10.3799,10.31156 v 41.40149 c 0,5.72112 4.64259,10.35061 10.3799,10.35061 z"
         id="path8-7"
         style="fill:#335977;fill-opacity:1;stroke:#D9D9D9;stroke-width:3.29999995;stroke-miterlimit:4;stroke-dasharray:none;stroke-opacity:1"
         inkscape:connector-curvature="0"
         sodipodi:nodetypes="sssssss" /></g><path
       d="m 374.69849,420.88066 v 23.29726 h -23.32338 c -6.4461,0 -11.66224,5.2103 -11.66224,11.64918 0,6.43888 5.21614,11.64918 11.66224,11.64918 h 34.98562 c 6.4461,0 11.66224,-5.2103 11.66224,-11.64918 v -34.94644 c 0,-6.43888 -5.21614,-11.64918 -11.66224,-11.64918 -6.4461,0 -11.66224,5.2103 -11.66224,11.64918 z"
       id="path4-6"
       style="fill:#D9D9D9;fill-opacity:1;stroke:#D9D9D9;stroke-width:3.71084595;stroke-miterlimit:4;stroke-dasharray:none;stroke-opacity:1"
       inkscape:connector-curvature="0" /></g><circle
     style="opacity:1;fill:#335977;fill-opacity:1"
     id="path1701"
     cx="92.409149"
     cy="171.51974"
     r="30" /><circle
     style="opacity:1;fill:#335977;fill-opacity:1"
     id="path1701-2"
     cx="315.36963"
     cy="98.223267"
     r="30" /><circle
     style="opacity:1;fill:#335977;fill-opacity:1"
     id="path1701-8"
     cx="274.35742"
     cy="384.48019"
     r="30" /><circle
     style="opacity:1;fill:#335977;fill-opacity:1"
     id="path1701-4"
     cx="378.18079"
     cy="327.91165"
     r="30" /></svg>