<?xml version="1.0" encoding="UTF-8" standalone="no"?>
<!-- Generator: Adobe Illustrator 19.0.0, SVG Export Plug-In . SVG Version: 6.00 Build 0)  -->

<svg
   xmlns:dc="http://purl.org/dc/elements/1.1/"
   xmlns:cc="http://creativecommons.org/ns#"
   xmlns:rdf="http://www.w3.org/1999/02/22-rdf-syntax-ns#"
   xmlns:svg="http://www.w3.org/2000/svg"
   xmlns="http://www.w3.org/2000/svg"
   xmlns:sodipodi="http://sodipodi.sourceforge.net/DTD/sodipodi-0.dtd"
   xmlns:inkscape="http://www.inkscape.org/namespaces/inkscape"
   version="1.1"
   id="Layer_1"
   x="0px"
   y="0px"
   viewBox="0 0 512 512"
   style="enable-background:new 0 0 512 512;"
   xml:space="preserve"
   sodipodi:docname="CircleSelection.svg"
   inkscape:version="0.92.2 (5c3e80d, 2017-08-06)"><metadata
     id="metadata67"><rdf:RDF><cc:Work
         rdf:about=""><dc:format>image/svg+xml</dc:format><dc:type
           rdf:resource="http://purl.org/dc/dcmitype/StillImage" /></cc:Work></rdf:RDF></metadata><defs
     id="defs65" /><sodipodi:namedview
     pagecolor="#ffffff"
     bordercolor="#666666"
     borderopacity="1"
     objecttolerance="10"
     gridtolerance="10"
     guidetolerance="10"
     inkscape:pageopacity="0"
     inkscape:pageshadow="2"
     inkscape:window-width="2048"
     inkscape:window-height="1228"
     id="namedview63"
     showgrid="false"
     inkscape:zoom="0.4609375"
     inkscape:cx="-520.67797"
     inkscape:cy="256"
     inkscape:window-x="-8"
     inkscape:window-y="-8"
     inkscape:window-maximized="1"
     inkscape:current-layer="Layer_1" /><g
     id="g30"
     style="fill:#D9D9D9;fill-opacity:1;stroke:#D9D9D9;stroke-width:3.40180159;stroke-miterlimit:4;stroke-dasharray:none;stroke-opacity:1"
     transform="matrix(0.97012775,0,0,0.9700206,7.6480596,7.6752114)"><g
       id="g28"
       style="fill:#D9D9D9;fill-opacity:1;stroke:#D9D9D9;stroke-width:3.40180159;stroke-miterlimit:4;stroke-dasharray:none;stroke-opacity:1"><g
         id="g26"
         style="fill:#D9D9D9;fill-opacity:1;stroke:#D9D9D9;stroke-width:3.40180159;stroke-miterlimit:4;stroke-dasharray:none;stroke-opacity:1"><path
           d="M 508.877,429.792 379.875,300.789 c 2.72,-4.905 5.393,-9.841 7.69,-14.956 2.417,-5.375 0.021,-11.688 -5.354,-14.104 -5.375,-2.406 -11.708,0 -14.104,5.354 -1.212,2.697 -2.71,5.25 -4.053,7.884 l -4.509,-4.509 c -3.042,-3.052 -7.667,-3.958 -11.625,-2.313 -3.979,1.646 -6.583,5.542 -6.583,9.854 v 213.333 c 0,4.313 2.604,8.208 6.583,9.854 1.313,0.552 2.708,0.813 4.083,0.813 2.771,0 5.5,-1.083 7.542,-3.125 L 420.419,448 h 80.917 c 4.313,0 8.208,-2.594 9.854,-6.583 1.646,-3.99 0.729,-8.573 -2.313,-11.625 z m -92.875,-3.125 c -2.833,0 -5.542,1.125 -7.542,3.125 l -45.792,45.792 V 325.305 c 1.443,-0.733 2.753,-1.784 3.771,-3.18 0.654,-0.892 1.182,-1.879 1.822,-2.783 l 107.324,107.324 h -59.583 z"
           id="path2"
           style="fill:#D9D9D9;fill-opacity:1;stroke:#D9D9D9;stroke-width:3.40180159;stroke-miterlimit:4;stroke-dasharray:none;stroke-opacity:1"
           inkscape:connector-curvature="0" /><path
           d="m 119.544,17.74 c -12.75,5.729 -24.938,12.823 -36.271,21.083 -4.75,3.469 -5.792,10.146 -2.333,14.896 2.104,2.865 5.333,4.385 8.625,4.385 2.188,0 4.396,-0.667 6.292,-2.052 10.125,-7.385 21.042,-13.729 32.438,-18.854 5.375,-2.417 7.771,-8.729 5.354,-14.104 -2.418,-5.365 -8.751,-7.781 -14.105,-5.354 z"
           id="path4"
           style="fill:#D9D9D9;fill-opacity:1;stroke:#D9D9D9;stroke-width:3.40180159;stroke-miterlimit:4;stroke-dasharray:none;stroke-opacity:1"
           inkscape:connector-curvature="0" /><path
           d="m 53.815,80.906 c -4.771,-3.469 -11.438,-2.448 -14.917,2.302 -8.25,11.271 -15.375,23.49 -21.125,36.292 -2.417,5.375 -0.021,11.688 5.354,14.104 1.417,0.635 2.917,0.938 4.375,0.938 4.063,0 7.958,-2.344 9.729,-6.292 5.146,-11.448 11.5,-22.365 18.875,-32.438 3.48,-4.749 2.459,-11.427 -2.291,-14.906 z"
           id="path6"
           style="fill:#D9D9D9;fill-opacity:1;stroke:#D9D9D9;stroke-width:3.40180159;stroke-miterlimit:4;stroke-dasharray:none;stroke-opacity:1"
           inkscape:connector-curvature="0" /><path
           d="m 382.898,182.521 c 0.729,6.615 1.104,13.333 1.104,20.146 0,6.813 -0.375,13.531 -1.104,20.146 -0.646,5.854 3.583,11.125 9.438,11.771 0.396,0.042 0.792,0.063 1.188,0.063 5.354,0 9.979,-4.042 10.583,-9.5 0.813,-7.385 1.229,-14.875 1.229,-22.479 0,-7.604 -0.417,-15.094 -1.229,-22.479 -0.646,-5.865 -6.042,-10.042 -11.771,-9.438 -5.855,0.645 -10.084,5.916 -9.438,11.77 z"
           id="path8"
           style="fill:#D9D9D9;fill-opacity:1;stroke:#D9D9D9;stroke-width:3.40180159;stroke-miterlimit:4;stroke-dasharray:none;stroke-opacity:1"
           inkscape:connector-curvature="0" /><path
           d="m 368.106,128.25 c 1.771,3.948 5.667,6.292 9.729,6.292 1.458,0 2.958,-0.302 4.375,-0.938 5.375,-2.417 7.771,-8.729 5.354,-14.104 -5.75,-12.802 -12.875,-25.021 -21.125,-36.292 -3.479,-4.771 -10.146,-5.792 -14.917,-2.302 -4.75,3.479 -5.771,10.156 -2.292,14.906 7.376,10.073 13.731,20.99 18.876,32.438 z"
           id="path10"
           style="fill:#D9D9D9;fill-opacity:1;stroke:#D9D9D9;stroke-width:3.40180159;stroke-miterlimit:4;stroke-dasharray:none;stroke-opacity:1"
           inkscape:connector-curvature="0" /><path
           d="m 322.065,38.823 c -11.333,-8.26 -23.521,-15.354 -36.271,-21.083 -5.375,-2.417 -11.708,-0.01 -14.104,5.354 -2.417,5.375 -0.021,11.688 5.354,14.104 11.396,5.125 22.313,11.469 32.438,18.854 1.896,1.385 4.104,2.052 6.292,2.052 3.292,0 6.521,-1.521 8.625,-4.385 3.457,-4.75 2.416,-11.427 -2.334,-14.896 z"
           id="path12"
           style="fill:#D9D9D9;fill-opacity:1;stroke:#D9D9D9;stroke-width:3.40180159;stroke-miterlimit:4;stroke-dasharray:none;stroke-opacity:1"
           inkscape:connector-curvature="0" /><path
           d="M 225.148,1.229 C 217.773,0.417 210.273,0 202.669,0 195.065,0 187.565,0.417 180.19,1.229 174.336,1.875 170.107,7.146 170.752,13 c 0.604,5.458 5.229,9.5 10.583,9.5 0.396,0 0.792,-0.021 1.188,-0.063 6.625,-0.729 13.333,-1.104 20.146,-1.104 6.813,0 13.521,0.375 20.146,1.104 0.396,0.042 0.792,0.063 1.188,0.063 5.354,0 9.979,-4.042 10.583,-9.5 0.645,-5.854 -3.584,-11.125 -9.438,-11.771 z"
           id="path14"
           style="fill:#D9D9D9;fill-opacity:1;stroke:#D9D9D9;stroke-width:3.40180159;stroke-miterlimit:4;stroke-dasharray:none;stroke-opacity:1"
           inkscape:connector-curvature="0" /><path
           d="m 22.44,222.813 c -0.729,-6.615 -1.104,-13.333 -1.104,-20.146 0,-6.813 0.375,-13.531 1.104,-20.146 0.646,-5.854 -3.583,-11.125 -9.438,-11.771 -5.812,-0.625 -11.125,3.573 -11.771,9.438 -0.813,7.385 -1.229,14.875 -1.229,22.479 0,7.604 0.417,15.094 1.229,22.479 0.604,5.458 5.229,9.5 10.583,9.5 0.396,0 0.792,-0.021 1.188,-0.063 5.854,-0.645 10.084,-5.916 9.438,-11.77 z"
           id="path16"
           style="fill:#D9D9D9;fill-opacity:1;stroke:#D9D9D9;stroke-width:3.40180159;stroke-miterlimit:4;stroke-dasharray:none;stroke-opacity:1"
           inkscape:connector-curvature="0" /><path
           d="m 128.294,368.135 c -11.396,-5.125 -22.313,-11.469 -32.438,-18.854 -4.75,-3.469 -11.417,-2.427 -14.917,2.333 -3.458,4.75 -2.417,11.427 2.333,14.896 11.333,8.26 23.521,15.354 36.271,21.083 1.417,0.635 2.917,0.938 4.375,0.938 4.063,0 7.958,-2.344 9.729,-6.292 2.418,-5.374 0.022,-11.687 -5.353,-14.104 z"
           id="path18"
           style="fill:#D9D9D9;fill-opacity:1;stroke:#D9D9D9;stroke-width:3.40180159;stroke-miterlimit:4;stroke-dasharray:none;stroke-opacity:1"
           inkscape:connector-curvature="0" /><path
           d="m 37.231,277.083 c -2.396,-5.365 -8.75,-7.781 -14.104,-5.354 -5.375,2.417 -7.771,8.729 -5.354,14.104 5.75,12.802 12.875,25.021 21.125,36.292 2.083,2.854 5.333,4.365 8.604,4.365 2.188,0 4.396,-0.667 6.313,-2.063 4.75,-3.479 5.771,-10.156 2.292,-14.906 -7.376,-10.073 -13.73,-20.99 -18.876,-32.438 z"
           id="path20"
           style="fill:#D9D9D9;fill-opacity:1;stroke:#D9D9D9;stroke-width:3.40180159;stroke-miterlimit:4;stroke-dasharray:none;stroke-opacity:1"
           inkscape:connector-curvature="0" /><path
           d="m 309.481,349.281 c -10.125,7.385 -21.042,13.729 -32.438,18.854 -5.375,2.417 -7.771,8.729 -5.354,14.104 1.771,3.948 5.667,6.292 9.729,6.292 1.458,0 2.958,-0.302 4.375,-0.938 12.75,-5.729 24.938,-12.823 36.271,-21.083 4.75,-3.469 5.792,-10.146 2.333,-14.896 -3.499,-4.76 -10.166,-5.801 -14.916,-2.333 z"
           id="path22"
           style="fill:#D9D9D9;fill-opacity:1;stroke:#D9D9D9;stroke-width:3.40180159;stroke-miterlimit:4;stroke-dasharray:none;stroke-opacity:1"
           inkscape:connector-curvature="0" /><path
           d="m 222.815,382.896 c -6.625,0.729 -13.333,1.104 -20.146,1.104 -6.813,0 -13.521,-0.375 -20.146,-1.104 -5.854,-0.625 -11.125,3.573 -11.771,9.438 -0.646,5.854 3.583,11.125 9.438,11.771 7.375,0.813 14.875,1.229 22.479,1.229 7.604,0 15.104,-0.417 22.479,-1.229 5.854,-0.646 10.083,-5.917 9.438,-11.771 -0.646,-5.865 -6,-10.042 -11.771,-9.438 z"
           id="path24"
           style="fill:#D9D9D9;fill-opacity:1;stroke:#D9D9D9;stroke-width:3.40180159;stroke-miterlimit:4;stroke-dasharray:none;stroke-opacity:1"
           inkscape:connector-curvature="0" /></g></g></g><g
     id="g32" /><g
     id="g34" /><g
     id="g36" /><g
     id="g38" /><g
     id="g40" /><g
     id="g42" /><g
     id="g44" /><g
     id="g46" /><g
     id="g48" /><g
     id="g50" /><g
     id="g52" /><g
     id="g54" /><g
     id="g56" /><g
     id="g58" /><g
     id="g60" /></svg>