<?xml version="1.0" encoding="UTF-8" standalone="no"?>
<!-- Generator: Adobe Illustrator 19.0.0, SVG Export Plug-In . SVG Version: 6.00 Build 0)  -->

<svg
   xmlns:dc="http://purl.org/dc/elements/1.1/"
   xmlns:cc="http://creativecommons.org/ns#"
   xmlns:rdf="http://www.w3.org/1999/02/22-rdf-syntax-ns#"
   xmlns:svg="http://www.w3.org/2000/svg"
   xmlns="http://www.w3.org/2000/svg"
   xmlns:sodipodi="http://sodipodi.sourceforge.net/DTD/sodipodi-0.dtd"
   xmlns:inkscape="http://www.inkscape.org/namespaces/inkscape"
   version="1.1"
   id="Layer_1"
   x="0px"
   y="0px"
   viewBox="0 0 512 512"
   style="enable-background:new 0 0 512 512;"
   xml:space="preserve"
   sodipodi:docname="ClearSelection.svg"
   inkscape:version="0.92.2 (5c3e80d, 2017-08-06)"><metadata
     id="metadata43"><rdf:RDF><cc:Work
         rdf:about=""><dc:format>image/svg+xml</dc:format><dc:type
           rdf:resource="http://purl.org/dc/dcmitype/StillImage" /></cc:Work></rdf:RDF></metadata><defs
     id="defs41" /><sodipodi:namedview
     pagecolor="#ffffff"
     bordercolor="#666666"
     borderopacity="1"
     objecttolerance="10"
     gridtolerance="10"
     guidetolerance="10"
     inkscape:pageopacity="0"
     inkscape:pageshadow="2"
     inkscape:window-width="2048"
     inkscape:window-height="1228"
     id="namedview39"
     showgrid="false"
     inkscape:zoom="0.4609375"
     inkscape:cx="-46.644068"
     inkscape:cy="256"
     inkscape:window-x="-8"
     inkscape:window-y="-8"
     inkscape:window-maximized="1"
     inkscape:current-layer="Layer_1" /><g
     id="g6"
     transform="matrix(1,0,0,0.97656179,8.0094376e-4,6.0001818)"
     style="fill:#D9D9D9;fill-opacity:1;stroke:#D9D9D9;stroke-width:3.33936644;stroke-miterlimit:4;stroke-dasharray:none;stroke-opacity:1"><g
       id="g4"
       style="fill:#D9D9D9;fill-opacity:1;stroke:#D9D9D9;stroke-width:3.33936644;stroke-miterlimit:4;stroke-dasharray:none;stroke-opacity:1"><path
         d="M 444.644,344.233 266.667,176.729 V 10.667 C 266.667,4.771 261.896,0 256,0 250.104,0 245.333,4.771 245.333,10.667 V 156.651 L 81.977,2.908 C 78.862,0.002 74.342,-0.832 70.435,0.887 66.529,2.575 63.998,6.418 63.998,10.678 v 490.655 c 0,4.312 2.594,8.208 6.583,9.854 1.323,0.553 2.709,0.813 4.084,0.813 2.771,0 5.5,-1.083 7.542,-3.125 L 228.415,362.67 h 16.918 v 138.663 c 0,5.896 4.771,10.667 10.667,10.667 5.896,0 10.667,-4.771 10.667,-10.667 V 362.67 h 170.665 c 4.375,0 8.302,-2.667 9.917,-6.739 1.614,-4.063 0.583,-8.698 -2.605,-11.698 z m -220.646,-2.9 c -2.833,0 -5.542,1.125 -7.542,3.125 L 85.332,475.583 V 35.354 l 160.002,150.589 v 155.39 z m 42.669,0 V 206.022 L 410.436,341.334 H 266.667 Z"
         id="path2"
         inkscape:connector-curvature="0"
         style="fill:#D9D9D9;fill-opacity:1;stroke:#D9D9D9;stroke-width:3.33936644;stroke-miterlimit:4;stroke-dasharray:none;stroke-opacity:1" /></g></g><g
     id="g8" /><g
     id="g10" /><g
     id="g12" /><g
     id="g14" /><g
     id="g16" /><g
     id="g18" /><g
     id="g20" /><g
     id="g22" /><g
     id="g24" /><g
     id="g26" /><g
     id="g28" /><g
     id="g30" /><g
     id="g32" /><g
     id="g34" /><g
     id="g36" /></svg>