<?xml version="1.0" encoding="UTF-8" standalone="no"?>
<svg
   xmlns:dc="http://purl.org/dc/elements/1.1/"
   xmlns:cc="http://creativecommons.org/ns#"
   xmlns:rdf="http://www.w3.org/1999/02/22-rdf-syntax-ns#"
   xmlns:svg="http://www.w3.org/2000/svg"
   xmlns="http://www.w3.org/2000/svg"
   xmlns:sodipodi="http://sodipodi.sourceforge.net/DTD/sodipodi-0.dtd"
   xmlns:inkscape="http://www.inkscape.org/namespaces/inkscape"
   height="512"
   viewBox="0 0 383.99999 383.99999"
   width="512"
   version="1.1"
   id="svg10"
   sodipodi:docname="FreeRotation.svg"
   inkscape:version="0.92.4 (5da689c313, 2019-01-14)">
  <metadata
     id="metadata16">
    <rdf:RDF>
      <cc:Work
         rdf:about="">
        <dc:format>image/svg+xml</dc:format>
        <dc:type
           rdf:resource="http://purl.org/dc/dcmitype/StillImage" />
        <dc:title />
      </cc:Work>
    </rdf:RDF>
  </metadata>
  <defs
     id="defs14" />
  <sodipodi:namedview
     pagecolor="#ffffff"
     bordercolor="#666666"
     borderopacity="1"
     objecttolerance="10"
     gridtolerance="10"
     guidetolerance="10"
     inkscape:pageopacity="0"
     inkscape:pageshadow="2"
     inkscape:window-width="1920"
     inkscape:window-height="1028"
     id="namedview12"
     showgrid="false"
     units="px"
     inkscape:zoom="0.34570313"
     inkscape:cx="-128.72316"
     inkscape:cy="341.33333"
     inkscape:window-x="-8"
     inkscape:window-y="-8"
     inkscape:window-maximized="1"
     inkscape:current-layer="svg10" />
  <g
     id="g827"
     transform="matrix(0.73242186,0,0,0.73242186,4.4999999,98.250018)"
     style="fill:#D9D9D9">
    <path
       inkscape:connector-curvature="0"
       id="path2"
       d="m 212.11719,120.32028 c 5.24218,-2.46094 8.34765,-9.30859 8.34765,-17.76562 0,-14.234382 -9.63281,-19.156252 -22.58203,-19.156252 -18.08594,0 -23.4375,11.02343 -23.4375,18.621092 0,4.49609 0.96094,5.99609 7.16797,5.99609 5.14063,0 6.63672,-2.14453 6.63672,-5.35156 0,-4.281252 2.57031,-7.171872 9.52734,-7.171872 5.77735,0 9.41797,2.35547 9.41797,9.417972 0,9.20312 -4.49609,10.48828 -9.84765,10.48828 -3.10547,0 -4.17579,2.78125 -4.17579,5.45703 0,2.78125 1.07032,5.45703 4.17579,5.45703 6.84765,0 11.77343,2.25 11.77343,10.16797 v 2.03515 c 0,8.13282 -3.42578,11.5586 -11.45312,11.5586 -6.85156,0 -11.13281,-3 -11.13281,-7.8125 0,-3.42578 -1.4961,-4.92578 -7.16797,-4.92578 -4.81641,0 -6.63672,1.17968 -6.63672,5.46093 0,8.66797 7.0625,19.47657 24.61719,19.47657 14.125,0 25.68359,-6.52735 25.68359,-23.75782 v -2.03515 c 0,-8.88281 -4.60156,-13.69922 -10.91406,-16.16016 z m 0,0"
       style="fill:#D9D9D9" />
    <path
       inkscape:connector-curvature="0"
       id="path4"
       d="m 256.74609,95.597628 c 5.88672,0 10.91797,2.89062 10.91797,7.921872 0,4.17188 3.42578,5.24219 7.27735,5.24219 4.38672,0 6.52734,-1.39063 6.52734,-5.77735 0,-8.992182 -7.27734,-19.585932 -24.40234,-19.585932 -14.55469,0 -25.79297,6.63672 -25.79297,24.507812 v 29.86328 c 0,17.87109 11.02344,24.50781 25.15234,24.50781 14.12891,0 25.04297,-6.63672 25.04297,-24.50781 v -1.5 c 0,-16.91015 -10.05859,-22.15234 -22.15234,-22.15234 -5.56641,0 -10.70313,1.28125 -14.23438,5.45703 v -11.66797 c 0,-8.453122 4.38672,-12.308592 11.66406,-12.308592 z m -0.42578,29.433592 c 7.0625,0 11.23828,3.31641 11.23828,12.19922 v 1.39453 c 0,8.45312 -4.17578,12.30859 -11.13281,12.30859 -7.0625,0 -11.34375,-3.85547 -11.34375,-12.30859 v -2.35547 c 0,-8.13672 4.4961,-11.23828 11.23828,-11.23828 z m 0,0"
       style="fill:#D9D9D9" />
    <path
       inkscape:connector-curvature="0"
       id="path6"
       d="m 340.23047,107.90622 c 0,-17.871092 -11.02344,-24.507812 -25.15235,-24.507812 -14.1289,0 -25.04296,6.63672 -25.04296,24.507812 v 29.85937 c 0,17.875 10.91406,24.51172 25.04296,24.51172 14.12891,0 25.15235,-6.63672 25.15235,-24.51172 z m -13.91406,29.85937 c 0,8.45704 -4.28125,12.3086 -11.23829,12.3086 -7.0625,0 -11.13281,-3.85156 -11.13281,-12.3086 v -29.85937 c 0,-8.453132 4.07031,-12.308592 11.13281,-12.308592 6.95704,0 11.23829,3.85546 11.23829,12.308592 z m 0,0"
       style="fill:#D9D9D9" />
    <path
       inkscape:connector-curvature="0"
       id="path8"
       d="M 512,127.56638 C 511.89453,65.972628 489.61719,6.5077783 449.23828,-39.921902 c -2.71875,-3.125 -7.45703,-3.453125 -10.58203,-0.734375 -3.125,2.71875 -3.45313,7.457031 -0.73438,10.582031 26.05079,29.95312432 44.09375,65.671874 52.90625,103.847654 -12.98828,-15.70703 -31.74218,-30.04297 -55.69531,-42.28907 -17.96094,-9.17968 -38.10937,-16.82031 -59.83594,-22.7812497 -5.96093,-21.7265603 -13.59765,-41.8749903 -22.78125,-59.8359273 -12.24609,-23.953126 -26.57812,-42.707032 -42.28515,-55.691411 38.00781,8.773442 73.58594,26.699223 103.44922,52.558598 3.1289,2.710937 7.86718,2.371094 10.57812,-0.757813 2.71094,-3.132812 2.3711,-7.871093 -0.76172,-10.582031 C 377.02734,-105.83987 317.54297,-128.00003 256,-128.00003 c -68.37891,0 -132.66797,26.62891 -181.019531,74.980472 C 26.628906,-4.6680017 0,59.621058 0,127.99997 v 0.43359 c 0.105469,61.56641 22.367188,121.01563 62.71875,167.4336 1.480469,1.70703 3.566406,2.57812 5.660156,2.57812 1.746094,0 3.5,-0.60156 4.917969,-1.83593 3.128906,-2.71875 3.457031,-7.45704 0.738281,-10.58204 -26.023437,-29.9414 -44.054687,-65.64453 -52.859375,-103.80078 12.984375,15.70703 31.738281,30.04297 55.695313,42.28907 17.957031,9.17968 38.105466,16.82031 59.832026,22.78125 5.96094,21.72656 13.60157,41.875 22.78125,59.83593 12.2461,23.95313 26.58204,42.70703 42.28907,55.69141 -38.15625,-8.80469 -73.85938,-26.83594 -103.800784,-52.86328 -3.125,-2.71485 -7.863281,-2.38672 -10.578125,0.74219 -2.71875,3.125 -2.386719,7.86328 0.738281,10.57812 C 134.55469,361.63278 194,383.8945 255.56641,383.99997 H 256 c 68.37891,0 132.66797,-26.62891 181.01953,-74.98047 C 485.37109,260.66794 512,196.37888 512,127.99997 c 0,-0.14453 0,-0.28906 0,-0.43359 z M 85.585938,-42.414089 c 32.519532,-32.515626 72.691402,-54.597657 116.457032,-64.558591 -16.31641,13.406247 -31.12891,32.945309 -43.56641,57.828122 l -8.29687,-24.828125 c -1.31641,-3.929688 -5.5625,-6.050782 -9.49219,-4.738282 -3.92969,1.3125 -6.04688,5.5625 -4.73438,9.492188 l 14.33204,42.886715 c 1.05078,3.14062 3.97656,5.125 7.11328,5.125 0.78906,0 1.58984,-0.125 2.3789,-0.38672 l 42.88672,-14.335933 c 3.92969,-1.3125 6.05078,-5.5625 4.73828,-9.492187 -1.3125,-3.925781 -5.55859,-6.046875 -9.49218,-4.734375 l -26.60938,8.894531 C 193.85156,-87.085965 224.19141,-113.00003 256,-113.00003 c 30.97656,0 60.51172,24.398441 83.16016,68.699222 7.5664,14.800781 14.03906,31.191406 19.33203,48.7968663 -31.88672,-7.23828 -66.63672,-11.04687 -102.49219,-11.04687 -67.54297,0 -131.15625,13.50781 -179.128906,38.0351497 -24.027344,12.28516 -42.824219,26.66797 -55.8125,42.42969 C 31.03125,30.199188 53.101562,-9.9258117 85.585938,-42.414089 Z M 132.49609,230.49216 C 114.89453,225.19919 98.5,218.72653 83.699219,211.16013 39.398438,188.51169 15,158.97653 15,127.99997 15,97.023408 39.398438,67.488248 83.699219,44.839808 c 14.808593,-7.57031 31.210941,-14.04687 48.828121,-19.34375 -7.35156,32.27344 -11.07812,66.6875 -11.07812,102.503912 0,35.85547 3.80859,70.60547 11.04687,102.49219 z M 256,368.99997 c -30.97656,0 -60.51172,-24.39844 -83.16016,-68.69922 -7.5664,-14.80078 -14.03906,-31.19141 -19.33203,-48.79687 31.88672,7.23828 66.63672,11.04687 102.49219,11.04687 17.71484,0 35.30078,-0.9375 52.48437,-2.79687 l -16.38671,22.91796 c -2.41016,3.36719 -1.63282,8.05469 1.73828,10.46485 1.32031,0.9414 2.84375,1.39844 4.35547,1.39844 2.33593,0 4.64062,-1.08985 6.10547,-3.13672 l 26.30078,-36.78516 c 0.875,-1.22265 1.35547,-2.66797 1.39843,-4.14844 0.0156,-0.45703 -0.008,-0.91797 -0.0742,-1.38672 -0.36328,-2.48437 -1.90234,-4.5039 -3.97265,-5.57812 l -35.875,-25.65234 c -3.36719,-2.40625 -8.05078,-1.63282 -10.46094,1.73828 -2.41015,3.36719 -1.63281,8.05469 1.73828,10.46484 l 21.05078,15.05078 c -15.86328,1.62891 -32.07422,2.44922 -48.40625,2.44922 -37.75,0 -74.14843,-4.33203 -107.01953,-12.53125 -8.19924,-32.86719 -12.53127,-69.26953 -12.53127,-107.01953 0,-37.628912 4.23438,-73.613282 12.58203,-107.031252 C 181.88672,12.777308 218.26953,8.4491883 256,8.4491883 c 37.75,0 74.15234,4.3320297 107.01953,12.5312497 8.19922,32.86719 12.53125,69.26953 12.53125,107.019532 0,39.07422 -4.64062,76.70313 -13.40625,110.46484 -0.19922,0.51172 -0.33984,1.05079 -0.42187,1.60157 -5.8125,21.96875 -13.37891,42.27343 -22.5625,60.23437 -22.64844,44.30078 -52.1836,68.69922 -83.16016,68.69922 z m 170.41406,-70.58594 c -32.48828,32.48438 -72.61328,54.55469 -116.32812,64.53125 15.76172,-12.99219 30.14453,-31.78515 42.42968,-55.8125 9.1875,-17.96875 16.82813,-38.1289 22.78907,-59.87109 52.75,-14.46094 92.9375,-37.62891 115.67187,-65.32813 -9.95703,43.77344 -32.03906,83.95703 -64.5625,116.48047 z m 35.78906,-109.03515 c -20.60546,16.8789 -49.01171,30.96093 -82.6914,41.0664 7.23437,-31.875 11.03906,-66.60937 11.03906,-102.44531 0,-35.855472 -3.80859,-70.605472 -11.04687,-102.496092 17.60156,5.29687 33.99609,11.76562 48.79687,19.33593 C 472.60156,67.488248 497,97.023408 497,127.99997 c 0,21.50781 -12.03125,42.73438 -34.79688,61.37891 z m 0,0"
       style="fill:#D9D9D9" />
  </g>
</svg>
