<?xml version="1.0" encoding="UTF-8" standalone="no"?>
<!-- Generator: Adobe Illustrator 19.0.0, SVG Export Plug-In . SVG Version: 6.00 Build 0)  -->

<svg
   version="1.1"
   id="Capa_1"
   x="0px"
   y="0px"
   viewBox="0 0 512 512"
   style="enable-background:new 0 0 512 512;"
   xml:space="preserve"
   sodipodi:docname="Ortho.svg"
   inkscape:version="1.3 (0e150ed6c4, 2023-07-21)"
   xmlns:inkscape="http://www.inkscape.org/namespaces/inkscape"
   xmlns:sodipodi="http://sodipodi.sourceforge.net/DTD/sodipodi-0.dtd"
   xmlns="http://www.w3.org/2000/svg"
   xmlns:svg="http://www.w3.org/2000/svg"><defs
   id="defs25" /><sodipodi:namedview
   id="namedview25"
   pagecolor="#ffffff"
   bordercolor="#000000"
   borderopacity="0.25"
   inkscape:showpageshadow="2"
   inkscape:pageopacity="0.0"
   inkscape:pagecheckerboard="0"
   inkscape:deskcolor="#d1d1d1"
   inkscape:zoom="2.2929688"
   inkscape:cx="255.78194"
   inkscape:cy="256"
   inkscape:window-width="2560"
   inkscape:window-height="1370"
   inkscape:window-x="-6"
   inkscape:window-y="-6"
   inkscape:window-maximized="1"
   inkscape:current-layer="Capa_1" />&#10;&#10;&#10;&#10;&#10;&#10;&#10;&#10;&#10;&#10;&#10;&#10;&#10;&#10;&#10;&#10;&#10;&#10;&#10;&#10;<g
   id="g26"
   transform="matrix(0.78146979,0,0,0.78146979,55.943734,55.943734)"
   style="fill:#d9d9d9;fill-opacity:1"><g
     id="g2"
     style="fill:#d9d9d9;fill-opacity:1">&#10;	<g
   id="g1"
   style="fill:#d9d9d9;fill-opacity:1">&#10;		<path
   d="M 75.051,0 H 15.068 C 6.787,0 0.073,6.714 0.073,14.996 v 60.983 c 0,8.282 6.713,14.996 14.996,14.996 8.282,0 14.996,-6.714 14.996,-14.996 V 29.992 h 44.987 c 8.282,0 14.996,-6.714 14.996,-14.996 C 90.047,6.714 83.333,0 75.051,0 Z"
   id="path1"
   style="fill:#d9d9d9;fill-opacity:1" />&#10;	</g>&#10;</g><g
     id="g4"
     style="fill:#d9d9d9;fill-opacity:1">&#10;	<g
   id="g3"
   style="fill:#d9d9d9;fill-opacity:1">&#10;		<path
   d="m 496.932,0 h -59.983 c -8.282,0 -14.996,6.714 -14.996,14.996 0,8.282 6.713,14.996 14.996,14.996 h 44.987 v 45.987 c 0,8.282 6.714,14.996 14.996,14.996 8.282,0 14.996,-6.714 14.996,-14.996 V 14.996 C 511.928,6.714 505.214,0 496.932,0 Z"
   id="path2"
   style="fill:#d9d9d9;fill-opacity:1" />&#10;	</g>&#10;</g><g
     id="g6"
     style="fill:#d9d9d9;fill-opacity:1">&#10;	<g
   id="g5"
   style="fill:#d9d9d9;fill-opacity:1">&#10;		<path
   d="M 75.051,481.864 H 30.064 v -45.987 c 0,-8.282 -6.714,-14.996 -14.996,-14.996 -8.282,0 -14.996,6.714 -14.996,14.996 v 60.983 c 0,8.282 6.713,14.996 14.996,14.996 h 59.983 c 8.282,0 14.996,-6.714 14.996,-14.996 0,-8.282 -6.714,-14.996 -14.996,-14.996 z"
   id="path4"
   style="fill:#d9d9d9;fill-opacity:1" />&#10;	</g>&#10;</g><g
     id="g8"
     style="fill:#d9d9d9;fill-opacity:1">&#10;	<g
   id="g7"
   style="fill:#d9d9d9;fill-opacity:1">&#10;		<path
   d="m 496.932,420.881 c -8.282,0 -14.996,6.714 -14.996,14.996 v 45.987 h -44.987 c -8.282,0 -14.996,6.714 -14.996,14.996 0,8.282 6.714,14.996 14.996,14.996 h 59.983 c 8.282,0 14.996,-6.714 14.996,-14.996 v -60.983 c 0,-8.282 -6.714,-14.996 -14.996,-14.996 z"
   id="path6"
   style="fill:#d9d9d9;fill-opacity:1" />&#10;	</g>&#10;</g><g
     id="g10"
     style="fill:#d9d9d9;fill-opacity:1">&#10;	<g
   id="g9"
   style="fill:#d9d9d9;fill-opacity:1">&#10;		<path
   d="M 472.37,123.023 263.517,2.021 c -4.649,-2.694 -10.386,-2.694 -15.035,0 L 39.544,123.022 c -4.606,2.669 -7.481,7.638 -7.481,12.966 0,0.03 0.003,0.06 0.003,0.089 v 239.924 c 0,5.379 2.923,10.413 7.63,13.063 L 248.483,509.98 c 2.249,1.303 4.925,2.02 7.518,2.02 2.707,0 5.352,-0.766 7.518,-2.02 L 472.221,389.063 c 0.035,-0.02 0.069,-0.04 0.104,-0.06 4.837,-3.49 7.444,-6.423 7.517,-12.821 0.001,-0.06 0.006,-0.119 0.006,-0.179 V 136.079 c 0,-0.03 0.003,-0.06 0.003,-0.089 0,-5.333 -2.877,-10.303 -7.481,-12.967 z M 241.004,470.986 77.178,376.069 203.477,303.64 c 7.185,-4.12 9.669,-13.284 5.548,-20.468 -4.119,-7.185 -13.283,-9.668 -20.468,-5.548 L 62.055,350.116 V 161.909 l 178.949,102.77 V 470.986 Z M 256,238.706 77.156,135.945 256,32.327 434.844,135.945 Z m 193.954,111.41 -126.511,-72.493 c -7.184,-4.119 -16.348,-1.637 -20.468,5.548 -4.121,7.185 -1.637,16.348 5.548,20.468 l 126.299,72.428 -163.827,94.917 V 264.679 l 178.958,-102.77 v 188.207 z"
   id="path8"
   style="fill:#d9d9d9;fill-opacity:1" />&#10;	</g>&#10;</g><g
     id="g11"
     style="fill:#d9d9d9;fill-opacity:1">&#10;</g><g
     id="g12"
     style="fill:#d9d9d9;fill-opacity:1">&#10;</g><g
     id="g13"
     style="fill:#d9d9d9;fill-opacity:1">&#10;</g><g
     id="g14"
     style="fill:#d9d9d9;fill-opacity:1">&#10;</g><g
     id="g15"
     style="fill:#d9d9d9;fill-opacity:1">&#10;</g><g
     id="g16"
     style="fill:#d9d9d9;fill-opacity:1">&#10;</g><g
     id="g17"
     style="fill:#d9d9d9;fill-opacity:1">&#10;</g><g
     id="g18"
     style="fill:#d9d9d9;fill-opacity:1">&#10;</g><g
     id="g19"
     style="fill:#d9d9d9;fill-opacity:1">&#10;</g><g
     id="g20"
     style="fill:#d9d9d9;fill-opacity:1">&#10;</g><g
     id="g21"
     style="fill:#d9d9d9;fill-opacity:1">&#10;</g><g
     id="g22"
     style="fill:#d9d9d9;fill-opacity:1">&#10;</g><g
     id="g23"
     style="fill:#d9d9d9;fill-opacity:1">&#10;</g><g
     id="g24"
     style="fill:#d9d9d9;fill-opacity:1">&#10;</g><g
     id="g25"
     style="fill:#d9d9d9;fill-opacity:1">&#10;</g></g>&#10;</svg>
