<?xml version="1.0" encoding="UTF-8" standalone="no"?>
<svg
   id="line"
   height="512"
   viewBox="0 0 64 64"
   width="512"
   version="1.1"
   sodipodi:docname="Projection.svg"
   inkscape:version="1.3 (0e150ed6c4, 2023-07-21)"
   xmlns:inkscape="http://www.inkscape.org/namespaces/inkscape"
   xmlns:sodipodi="http://sodipodi.sourceforge.net/DTD/sodipodi-0.dtd"
   xmlns="http://www.w3.org/2000/svg"
   xmlns:svg="http://www.w3.org/2000/svg">
  <defs
     id="defs10" />
  <sodipodi:namedview
     id="namedview10"
     pagecolor="#ffffff"
     bordercolor="#000000"
     borderopacity="0.25"
     inkscape:showpageshadow="2"
     inkscape:pageopacity="0.0"
     inkscape:pagecheckerboard="0"
     inkscape:deskcolor="#d1d1d1"
     inkscape:zoom="2.2929688"
     inkscape:cx="255.78194"
     inkscape:cy="256"
     inkscape:window-width="2560"
     inkscape:window-height="1370"
     inkscape:window-x="-6"
     inkscape:window-y="-6"
     inkscape:window-maximized="1"
     inkscape:current-layer="line" />
  <g
     id="g46"
     transform="matrix(0.87107234,0,0,0.87107234,4.1187014,4.1134531)">
    <path
       d="M 39.26953,42.73145 36.49902,41.7129 c -1.23816,-0.43207 -1.91724,1.40179 -0.68939,1.87695 0.18549,0.04773 3.00409,1.16479 3.11517,1.08008 1.08514,0.01941 1.38617,-1.57123 0.34473,-1.93848 z"
       id="path1"
       style="fill:#d9d9d9;fill-opacity:1" />
    <path
       d="m 19.53613,46.70703 c 0.10272,0.08643 2.93738,-1.03589 3.11426,-1.08008 1.22601,-0.47363 0.5506,-2.31079 -0.68951,-1.87695 6e-5,0 -2.76947,1.01855 -2.76947,1.01855 -1.04034,0.367 -0.74152,1.95813 0.34473,1.93848 z"
       id="path2"
       style="fill:#d9d9d9;fill-opacity:1" />
    <path
       d="m 13.99707,48.74414 c 0.10272,0.08643 2.93738,-1.03589 3.11426,-1.08008 1.22534,-0.47339 0.55188,-2.31104 -0.68951,-1.87695 6e-5,0 -2.76947,1.01855 -2.76947,1.01855 -1.04034,0.367 -0.74152,1.95813 0.34473,1.93848 z"
       id="path3"
       style="fill:#d9d9d9;fill-opacity:1" />
    <path
       d="m 10.88275,47.82422 c 6e-5,0 -2.77045,1.01758 -2.77045,1.01758 -1.04028,0.36646 -0.7417,1.9574 0.34473,1.93848 0.10242,0.08624 2.93842,-1.03497 3.11523,-1.0791 1.22589,-0.47302 0.55078,-2.31018 -0.68951,-1.87695 z"
       id="path4"
       style="fill:#d9d9d9;fill-opacity:1" />
    <path
       d="m 52.42877,49.7002 c 0.18561,0.04779 3.00287,1.16473 3.1142,1.08008 1.08514,0.01941 1.38617,-1.57123 0.34473,-1.93848 l -2.76953,-1.01855 c -1.23914,-0.43091 -1.91681,1.40155 -0.68939,1.87695 z"
       id="path5"
       style="fill:#d9d9d9;fill-opacity:1" />
    <path
       d="m 25.07617,44.66992 c 0.10272,0.08643 2.93738,-1.03589 3.11426,-1.08008 1.22589,-0.47406 0.55096,-2.30951 -0.68951,-1.87695 6e-5,0 -2.76947,1.01855 -2.76947,1.01855 -1.04034,0.367 -0.74152,1.95813 0.34473,1.93848 z"
       id="path6"
       style="fill:#d9d9d9;fill-opacity:1" />
    <path
       d="m 46.88873,47.66406 c 0.18549,0.04773 3.00415,1.16364 3.11517,1.0791 1.08533,0.01868 1.38611,-1.57172 0.34473,-1.93848 L 47.57812,45.7871 c -1.23895,-0.43152 -1.91681,1.40259 -0.68939,1.87695 z"
       id="path7"
       style="fill:#d9d9d9;fill-opacity:1" />
    <path
       d="M 44.80859,44.76855 42.03906,43.75 c -1.23816,-0.43207 -1.91724,1.40179 -0.68939,1.87695 0.18561,0.04779 3.00287,1.16473 3.1142,1.08008 1.08514,0.01941 1.38617,-1.57123 0.34473,-1.93848 z"
       id="path8"
       style="fill:#d9d9d9;fill-opacity:1" />
    <path
       d="M 50.67285,10.23975 C 50.59009,9.9198 50.34332,9.67127 50.04492,9.53907 L 32.34375,3.06055 c -0.11115,-0.04175 -0.57654,-0.04285 -0.6875,0 L 13.95508,9.53907 c -0.29785,0.13611 -0.54541,0.3772 -0.62793,0.70117 L 3.30859,51.07812 c -0.02148,0.19501 0.37872,1.09735 0.6709,1.19238 l 27.53027,8.68359 c 0.19696,0.06165 0.40363,0.05847 0.59766,9.8e-4 0.22845,-0.04706 27.6745,-8.62793 27.90967,-8.68372 0.39294,-0.12579 0.69653,-0.51837 0.69061,-0.93115 C 60.79596,51.11352 50.682,10.48461 50.67285,10.23974 Z M 30.8789,40.47083 30.2705,40.69434 c -0.51855,0.19043 -0.78418,0.76465 -0.59375,1.2832 0.1806,0.49268 0.70679,0.74438 1.20215,0.60645 V 58.65766 L 6.64532,51.01349 C 6.6864,50.83185 6.695,50.64166 6.62597,50.4541 6.47735,50.04724 6.0899,49.8056 5.68041,49.80823 l 9.33613,-38.05622 15.86237,4.97937 v 23.73944 z m 1.12109,-27.40247 c -0.55273,0 -1,0.44727 -1,1 v 0.60437 L 17.40624,10.40625 30.99999,5.43048 c -0.03455,0.57617 0.4198,1.07153 1,1.06952 0.58014,0.00232 1.03461,-0.49371 1,-1.06952 l 13.5752,4.96893 -13.5752,4.20331 v -0.53436 c 0,-0.55273 -0.44727,-1 -1,-1 z M 57.35265,51.00543 32.8789,58.62036 V 42.51214 c 1.27747,0.63293 2.17163,-1.27081 0.85059,-1.81787 0,6e-5 -0.85059,-0.31244 -0.85059,-0.31244 V 16.73412 l 16.10352,-4.98633 9.33722,38.06073 c -0.60486,-0.0285 -1.14288,0.59479 -0.96698,1.1969 z"
       id="path9"
       style="fill:#d9d9d9;fill-opacity:1" />
    <path
       d="m 33,8.35547 c 0,-0.55273 -0.44727,-1 -1,-1 -0.55273,0 -1,0.44727 -1,1 v 2.85645 c 0,0.55273 0.44727,1 1,1 0.55273,0 1,-0.44727 1,-1 z"
       id="path10"
       style="fill:#d9d9d9;fill-opacity:1" />
  </g>
</svg>
