<?xml version="1.0" encoding="UTF-8" standalone="no"?>
<svg
   id="_x31_px"
   enable-background="new 0 0 24 24"
   height="512"
   viewBox="0 0 24 24"
   width="512"
   version="1.1"
   sodipodi:docname="PointCloud.svg"
   inkscape:version="1.3 (0e150ed6c4, 2023-07-21)"
   xmlns:inkscape="http://www.inkscape.org/namespaces/inkscape"
   xmlns:sodipodi="http://sodipodi.sourceforge.net/DTD/sodipodi-0.dtd"
   xmlns="http://www.w3.org/2000/svg"
   xmlns:svg="http://www.w3.org/2000/svg">
  <defs
     id="defs16" />
  <sodipodi:namedview
     id="namedview16"
     pagecolor="#ffffff"
     bordercolor="#000000"
     borderopacity="0.25"
     inkscape:showpageshadow="2"
     inkscape:pageopacity="0.0"
     inkscape:pagecheckerboard="0"
     inkscape:deskcolor="#d1d1d1"
     inkscape:zoom="2.2929688"
     inkscape:cx="255.56388"
     inkscape:cy="255.78194"
     inkscape:window-width="2547"
     inkscape:window-height="1357"
     inkscape:window-x="73"
     inkscape:window-y="73"
     inkscape:window-maximized="0"
     inkscape:current-layer="_x31_px" />
  <g
     id="g16"
     style="fill:#d9d9d9;fill-opacity:1"
     transform="matrix(0.78125,0,0,0.78125,2.625,2.625)">
    <path
       d="M 4.37,5.81 C 4.166,5.81 3.975,5.685 3.901,5.483 3.806,5.224 3.938,4.936 4.197,4.841 l 5.76,-2.12 c 0.259,-0.096 0.546,0.037 0.642,0.296 0.095,0.259 -0.038,0.547 -0.296,0.642 l -5.76,2.12 C 4.486,5.8 4.428,5.81 4.37,5.81 Z"
       id="path1"
       style="fill:#d9d9d9;fill-opacity:1" />
    <path
       d="m 13.87,9.31 c -0.204,0 -0.395,-0.125 -0.469,-0.327 -0.095,-0.259 0.038,-0.547 0.296,-0.642 l 5.76,-2.12 c 0.259,-0.096 0.547,0.037 0.642,0.296 0.095,0.259 -0.038,0.547 -0.296,0.642 l -5.76,2.12 C 13.986,9.3 13.928,9.31 13.87,9.31 Z"
       id="path2"
       style="fill:#d9d9d9;fill-opacity:1" />
    <path
       d="M 10.13,9.31 C 10.072,9.31 10.014,9.3 9.957,9.279 L 4.197,7.159 C 3.938,7.064 3.806,6.776 3.901,6.517 3.997,6.258 4.285,6.126 4.543,6.221 l 5.76,2.12 c 0.259,0.095 0.392,0.383 0.296,0.642 C 10.525,9.185 10.333,9.31 10.13,9.31 Z"
       id="path3"
       style="fill:#d9d9d9;fill-opacity:1" />
    <path
       d="m 19.63,5.81 c -0.058,0 -0.116,-0.01 -0.173,-0.031 l -5.76,-2.12 C 13.438,3.564 13.305,3.276 13.401,3.017 13.496,2.758 13.785,2.626 14.043,2.721 l 5.76,2.12 c 0.259,0.095 0.392,0.383 0.296,0.642 C 20.025,5.685 19.833,5.81 19.63,5.81 Z"
       id="path4"
       style="fill:#d9d9d9;fill-opacity:1" />
    <path
       d="m 13.87,21.31 c -0.204,0 -0.395,-0.125 -0.469,-0.327 -0.095,-0.259 0.038,-0.547 0.296,-0.642 l 5.76,-2.12 c 0.259,-0.095 0.547,0.037 0.642,0.296 0.095,0.259 -0.038,0.547 -0.296,0.642 l -5.76,2.12 C 13.986,21.3 13.928,21.31 13.87,21.31 Z"
       id="path5"
       style="fill:#d9d9d9;fill-opacity:1" />
    <path
       d="m 10.13,21.31 c -0.058,0 -0.116,-0.01 -0.173,-0.031 l -5.76,-2.12 C 3.938,19.064 3.805,18.776 3.901,18.517 3.997,18.258 4.285,18.127 4.543,18.221 l 5.76,2.12 c 0.259,0.095 0.392,0.383 0.296,0.642 -0.074,0.202 -0.266,0.327 -0.469,0.327 z"
       id="path6"
       style="fill:#d9d9d9;fill-opacity:1" />
    <path
       d="M 2.5,16.5 C 2.224,16.5 2,16.276 2,16 V 8 C 2,7.724 2.224,7.5 2.5,7.5 2.776,7.5 3,7.724 3,8 v 8 c 0,0.276 -0.224,0.5 -0.5,0.5 z"
       id="path7"
       style="fill:#d9d9d9;fill-opacity:1" />
    <path
       d="M 21.5,16.5 C 21.224,16.5 21,16.276 21,16 V 8 C 21,7.724 21.224,7.5 21.5,7.5 21.776,7.5 22,7.724 22,8 v 8 c 0,0.276 -0.224,0.5 -0.5,0.5 z"
       id="path8"
       style="fill:#d9d9d9;fill-opacity:1" />
    <path
       d="m 12,20 c -0.276,0 -0.5,-0.224 -0.5,-0.5 v -8 c 0,-0.276 0.224,-0.5 0.5,-0.5 0.276,0 0.5,0.224 0.5,0.5 v 8 c 0,0.276 -0.224,0.5 -0.5,0.5 z"
       id="path9"
       style="fill:#d9d9d9;fill-opacity:1" />
    <path
       d="M 12,5 C 10.622,5 9.5,3.878 9.5,2.5 9.5,1.122 10.622,0 12,0 13.378,0 14.5,1.122 14.5,2.5 14.5,3.878 13.378,5 12,5 Z M 12,1 C 11.173,1 10.5,1.673 10.5,2.5 10.5,3.327 11.173,4 12,4 12.827,4 13.5,3.327 13.5,2.5 13.5,1.673 12.827,1 12,1 Z"
       id="path10"
       style="fill:#d9d9d9;fill-opacity:1" />
    <path
       d="M 12,12 C 10.622,12 9.5,10.878 9.5,9.5 9.5,8.122 10.622,7 12,7 c 1.378,0 2.5,1.122 2.5,2.5 0,1.378 -1.122,2.5 -2.5,2.5 z m 0,-4 c -0.827,0 -1.5,0.673 -1.5,1.5 0,0.827 0.673,1.5 1.5,1.5 0.827,0 1.5,-0.673 1.5,-1.5 C 13.5,8.673 12.827,8 12,8 Z"
       id="path11"
       style="fill:#d9d9d9;fill-opacity:1" />
    <path
       d="M 12,24 C 10.622,24 9.5,22.878 9.5,21.5 9.5,20.122 10.622,19 12,19 c 1.378,0 2.5,1.122 2.5,2.5 0,1.378 -1.122,2.5 -2.5,2.5 z m 0,-4 c -0.827,0 -1.5,0.673 -1.5,1.5 0,0.827 0.673,1.5 1.5,1.5 0.827,0 1.5,-0.673 1.5,-1.5 C 13.5,20.673 12.827,20 12,20 Z"
       id="path12"
       style="fill:#d9d9d9;fill-opacity:1" />
    <path
       d="M 2.5,20.5 C 1.122,20.5 0,19.378 0,18 0,16.622 1.122,15.5 2.5,15.5 3.878,15.5 5,16.622 5,18 5,19.378 3.878,20.5 2.5,20.5 Z m 0,-4 C 1.673,16.5 1,17.173 1,18 1,18.827 1.673,19.5 2.5,19.5 3.327,19.5 4,18.827 4,18 4,17.173 3.327,16.5 2.5,16.5 Z"
       id="path13"
       style="fill:#d9d9d9;fill-opacity:1" />
    <path
       d="M 21.5,20.5 C 20.122,20.5 19,19.378 19,18 c 0,-1.378 1.122,-2.5 2.5,-2.5 1.378,0 2.5,1.122 2.5,2.5 0,1.378 -1.122,2.5 -2.5,2.5 z m 0,-4 c -0.827,0 -1.5,0.673 -1.5,1.5 0,0.827 0.673,1.5 1.5,1.5 0.827,0 1.5,-0.673 1.5,-1.5 0,-0.827 -0.673,-1.5 -1.5,-1.5 z"
       id="path14"
       style="fill:#d9d9d9;fill-opacity:1" />
    <path
       d="M 21.5,8.5 C 20.122,8.5 19,7.378 19,6 19,4.622 20.122,3.5 21.5,3.5 22.878,3.5 24,4.622 24,6 24,7.378 22.878,8.5 21.5,8.5 Z m 0,-4 C 20.673,4.5 20,5.173 20,6 20,6.827 20.673,7.5 21.5,7.5 22.327,7.5 23,6.827 23,6 23,5.173 22.327,4.5 21.5,4.5 Z"
       id="path15"
       style="fill:#d9d9d9;fill-opacity:1" />
    <path
       d="M 2.5,8.5 C 1.122,8.5 0,7.378 0,6 0,4.622 1.122,3.5 2.5,3.5 3.878,3.5 5,4.622 5,6 5,7.378 3.878,8.5 2.5,8.5 Z m 0,-4 C 1.673,4.5 1,5.173 1,6 1,6.827 1.673,7.5 2.5,7.5 3.327,7.5 4,6.827 4,6 4,5.173 3.327,4.5 2.5,4.5 Z"
       id="path16"
       style="fill:#d9d9d9;fill-opacity:1" />
  </g>
</svg>
