<?xml version="1.0" encoding="UTF-8" standalone="no"?>
<!-- Generator: Adobe Illustrator 19.0.0, SVG Export Plug-In . SVG Version: 6.00 Build 0)  -->

<svg
   xmlns:dc="http://purl.org/dc/elements/1.1/"
   xmlns:cc="http://creativecommons.org/ns#"
   xmlns:rdf="http://www.w3.org/1999/02/22-rdf-syntax-ns#"
   xmlns:svg="http://www.w3.org/2000/svg"
   xmlns="http://www.w3.org/2000/svg"
   xmlns:sodipodi="http://sodipodi.sourceforge.net/DTD/sodipodi-0.dtd"
   xmlns:inkscape="http://www.inkscape.org/namespaces/inkscape"
   version="1.1"
   id="Layer_1"
   x="0px"
   y="0px"
   viewBox="0 0 511.99999 511.99999"
   xml:space="preserve"
   sodipodi:docname="RotationAroundZ.svg"
   inkscape:version="0.92.4 (5da689c313, 2019-01-14)"
   width="512"
   height="512"><metadata
     id="metadata51"><rdf:RDF><cc:Work
         rdf:about=""><dc:format>image/svg+xml</dc:format><dc:type
           rdf:resource="http://purl.org/dc/dcmitype/StillImage" /><dc:title /></cc:Work></rdf:RDF></metadata><defs
     id="defs49" /><sodipodi:namedview
     pagecolor="#ffffff"
     bordercolor="#666666"
     borderopacity="1"
     objecttolerance="10"
     gridtolerance="10"
     guidetolerance="10"
     inkscape:pageopacity="0"
     inkscape:pageshadow="2"
     inkscape:window-width="1920"
     inkscape:window-height="1028"
     id="namedview47"
     showgrid="false"
     inkscape:zoom="1.3037561"
     inkscape:cx="223.28022"
     inkscape:cy="250.81312"
     inkscape:window-x="-8"
     inkscape:window-y="-8"
     inkscape:window-maximized="1"
     inkscape:current-layer="Layer_1" /><g
     id="g16"
     transform="translate(0,0.01098633)" /><g
     id="g18"
     transform="translate(0,0.01098633)" /><g
     id="g20"
     transform="translate(0,0.01098633)" /><g
     id="g22"
     transform="translate(0,0.01098633)" /><g
     id="g24"
     transform="translate(0,0.01098633)" /><g
     id="g26"
     transform="translate(0,0.01098633)" /><g
     id="g28"
     transform="translate(0,0.01098633)" /><g
     id="g30"
     transform="translate(0,0.01098633)" /><g
     id="g32"
     transform="translate(0,0.01098633)" /><g
     id="g34"
     transform="translate(0,0.01098633)" /><g
     id="g36"
     transform="translate(0,0.01098633)" /><g
     id="g38"
     transform="translate(0,0.01098633)" /><g
     id="g40"
     transform="translate(0,0.01098633)" /><g
     id="g42"
     transform="translate(0,0.01098633)" /><g
     id="g44"
     transform="translate(0,0.01098633)" /><path
     id="path510"
     d="m 255.99999,56 c -75,0 -139.99998,39.999998 -172.499989,102.5 L 56,131 v 99.99999 H 156 L 118.49999,193.5 c 25,-50 77.5,-87.5 137.5,-87.5 C 338.49999,106 406,173.5 406,255.99999 406,338.49999 338.49999,406 255.99999,406 c -44.99999,0 -85,-20 -112.5,-52.5 L 106,386 c 35,42.5 89.99999,70 149.99999,70 C 366,456 456,366 456,255.99999 456,146 366,56 255.99999,56 Z"
     inkscape:connector-curvature="0"
     style="fill:#D9D9D9;stroke-width:25" /><path
     inkscape:connector-curvature="0"
     d="m 294.78958,288.99959 h -53.22302 l 61.66799,-69.73947 c 4.00009,-4.61995 3.55528,-11.54986 -1.00002,-15.50981 C 300.23449,201.98999 297.67922,201 295.0125,201 h -77.55791 c -5.55533,0 -10.55544,3.95995 -11.33358,9.35023 -1.00002,6.81957 4.33343,12.65018 11.00024,12.65018 h 53.33447 l -61.66798,69.73947 c -4.00009,4.61995 -3.55529,11.54986 1.11148,15.50981 2.00004,1.76032 4.66677,2.75031 7.33349,2.75031 h 77.33499 c 5.55532,0 10.55543,-3.95995 11.33357,-9.35023 0.88856,-6.8206 -4.33342,-12.65018 -11.11169,-12.65018 z"
     id="path6"
     style="fill:#D9D9D9;fill-opacity:1;stroke-width:1.03644991" /></svg>
