<?xml version="1.0" encoding="UTF-8" standalone="no"?>
<!-- Generator: Adobe Illustrator 19.0.0, SVG Export Plug-In . SVG Version: 6.00 Build 0)  -->

<svg
   xmlns:dc="http://purl.org/dc/elements/1.1/"
   xmlns:cc="http://creativecommons.org/ns#"
   xmlns:rdf="http://www.w3.org/1999/02/22-rdf-syntax-ns#"
   xmlns:svg="http://www.w3.org/2000/svg"
   xmlns="http://www.w3.org/2000/svg"
   xmlns:sodipodi="http://sodipodi.sourceforge.net/DTD/sodipodi-0.dtd"
   xmlns:inkscape="http://www.inkscape.org/namespaces/inkscape"
   version="1.1"
   id="Layer_1"
   x="0px"
   y="0px"
   viewBox="0 0 469.333 469.333"
   style="enable-background:new 0 0 469.333 469.333;"
   xml:space="preserve"
   sodipodi:docname="BoxSelection.svg"
   inkscape:version="0.92.2 (5c3e80d, 2017-08-06)"><metadata
     id="metadata67"><rdf:RDF><cc:Work
         rdf:about=""><dc:format>image/svg+xml</dc:format><dc:type
           rdf:resource="http://purl.org/dc/dcmitype/StillImage" /></cc:Work></rdf:RDF></metadata><defs
     id="defs65" /><sodipodi:namedview
     pagecolor="#ffffff"
     bordercolor="#666666"
     borderopacity="1"
     objecttolerance="10"
     gridtolerance="10"
     guidetolerance="10"
     inkscape:pageopacity="0"
     inkscape:pageshadow="2"
     inkscape:window-width="2048"
     inkscape:window-height="1228"
     id="namedview63"
     showgrid="false"
     inkscape:zoom="0.50284126"
     inkscape:cx="-477.2878"
     inkscape:cy="234.6665"
     inkscape:window-x="-8"
     inkscape:window-y="-8"
     inkscape:window-maximized="1"
     inkscape:current-layer="Layer_1" /><g
     id="g30"
     style="fill:#5A5A5A;fill-opacity:1;stroke:#5A5A5A;stroke-width:3.39607008;stroke-miterlimit:4;stroke-dasharray:none;stroke-opacity:1"
     transform="matrix(0.97308486,0,0,0.97033987,6.316821,6.9602428)"><g
       id="g28"
       style="fill:#5A5A5A;fill-opacity:1;stroke:#5A5A5A;stroke-width:3.39607008;stroke-miterlimit:4;stroke-dasharray:none;stroke-opacity:1"><g
         id="g26"
         style="fill:#5A5A5A;fill-opacity:1;stroke:#5A5A5A;stroke-width:3.39607008;stroke-miterlimit:4;stroke-dasharray:none;stroke-opacity:1"><path
           d="M 466.211,387.125 316.877,237.792 c -3.042,-3.052 -7.646,-3.948 -11.625,-2.313 -3.979,1.646 -6.583,5.542 -6.583,9.854 v 213.333 c 0,4.313 2.604,8.208 6.583,9.854 1.313,0.552 2.708,0.813 4.083,0.813 2.771,0 5.5,-1.083 7.542,-3.125 l 60.875,-60.875 h 80.917 c 4.313,0 8.208,-2.594 9.854,-6.583 1.646,-3.99 0.729,-8.573 -2.312,-11.625 z M 373.336,384 c -2.833,0 -5.542,1.125 -7.542,3.125 l -45.792,45.792 V 271.083 L 432.919,384 Z"
           id="path2"
           style="fill:#5A5A5A;fill-opacity:1;stroke:#5A5A5A;stroke-width:3.39607008;stroke-miterlimit:4;stroke-dasharray:none;stroke-opacity:1"
           inkscape:connector-curvature="0" /><path
           d="M 42.669,341.333 H 21.336 V 320 c 0,-5.896 -4.771,-10.667 -10.667,-10.667 -5.896,0 -10.667,4.771 -10.667,10.667 v 32 c 0,5.896 4.771,10.667 10.667,10.667 h 32 c 5.896,0 10.667,-4.771 10.667,-10.667 0,-5.896 -4.771,-10.667 -10.667,-10.667 z"
           id="path4"
           style="fill:#5A5A5A;fill-opacity:1;stroke:#5A5A5A;stroke-width:3.39607008;stroke-miterlimit:4;stroke-dasharray:none;stroke-opacity:1"
           inkscape:connector-curvature="0" /><path
           d="m 10.669,160 c 5.896,0 10.667,-4.771 10.667,-10.667 v -42.667 c 0,-5.896 -4.771,-10.667 -10.667,-10.667 -5.896,0 -10.667,4.771 -10.667,10.667 v 42.667 c 0,5.896 4.771,10.667 10.667,10.667 z"
           id="path6"
           style="fill:#5A5A5A;fill-opacity:1;stroke:#5A5A5A;stroke-width:3.39607008;stroke-miterlimit:4;stroke-dasharray:none;stroke-opacity:1"
           inkscape:connector-curvature="0" /><path
           d="m 10.669,266.667 c 5.896,0 10.667,-4.771 10.667,-10.667 v -42.667 c 0,-5.896 -4.771,-10.667 -10.667,-10.667 -5.896,0 -10.667,4.771 -10.667,10.667 V 256 c 0,5.896 4.771,10.667 10.667,10.667 z"
           id="path8"
           style="fill:#5A5A5A;fill-opacity:1;stroke:#5A5A5A;stroke-width:3.39607008;stroke-miterlimit:4;stroke-dasharray:none;stroke-opacity:1"
           inkscape:connector-curvature="0" /><path
           d="m 42.669,0 h -32 C 4.773,0 0.002,4.771 0.002,10.667 v 32 c 0,5.896 4.771,10.667 10.667,10.667 5.896,0 10.667,-4.771 10.667,-10.667 V 21.333 h 21.333 c 5.896,0 10.667,-4.771 10.667,-10.667 C 53.336,4.77 48.565,0 42.669,0 Z"
           id="path10"
           style="fill:#5A5A5A;fill-opacity:1;stroke:#5A5A5A;stroke-width:3.39607008;stroke-miterlimit:4;stroke-dasharray:none;stroke-opacity:1"
           inkscape:connector-curvature="0" /><path
           d="m 149.336,0 h -42.667 c -5.896,0 -10.667,4.771 -10.667,10.667 0,5.896 4.771,10.667 10.667,10.667 h 42.667 c 5.896,0 10.667,-4.771 10.667,-10.667 C 160.003,4.771 155.231,0 149.336,0 Z"
           id="path12"
           style="fill:#5A5A5A;fill-opacity:1;stroke:#5A5A5A;stroke-width:3.39607008;stroke-miterlimit:4;stroke-dasharray:none;stroke-opacity:1"
           inkscape:connector-curvature="0" /><path
           d="m 256.002,0 h -42.667 c -5.896,0 -10.667,4.771 -10.667,10.667 0,5.896 4.771,10.667 10.667,10.667 h 42.667 c 5.896,0 10.667,-4.771 10.667,-10.667 C 266.669,4.771 261.898,0 256.002,0 Z"
           id="path14"
           style="fill:#5A5A5A;fill-opacity:1;stroke:#5A5A5A;stroke-width:3.39607008;stroke-miterlimit:4;stroke-dasharray:none;stroke-opacity:1"
           inkscape:connector-curvature="0" /><path
           d="m 149.336,341.333 h -42.667 c -5.896,0 -10.667,4.771 -10.667,10.667 0,5.896 4.771,10.667 10.667,10.667 h 42.667 c 5.896,0 10.667,-4.771 10.667,-10.667 -10e-4,-5.896 -4.772,-10.667 -10.667,-10.667 z"
           id="path16"
           style="fill:#5A5A5A;fill-opacity:1;stroke:#5A5A5A;stroke-width:3.39607008;stroke-miterlimit:4;stroke-dasharray:none;stroke-opacity:1"
           inkscape:connector-curvature="0" /><path
           d="m 256.002,341.333 h -42.667 c -5.896,0 -10.667,4.771 -10.667,10.667 0,5.896 4.771,10.667 10.667,10.667 h 42.667 c 5.896,0 10.667,-4.771 10.667,-10.667 0,-5.896 -4.771,-10.667 -10.667,-10.667 z"
           id="path18"
           style="fill:#5A5A5A;fill-opacity:1;stroke:#5A5A5A;stroke-width:3.39607008;stroke-miterlimit:4;stroke-dasharray:none;stroke-opacity:1"
           inkscape:connector-curvature="0" /><path
           d="m 320.002,21.333 h 21.333 v 21.333 c 0,5.896 4.771,10.667 10.667,10.667 5.896,0 10.667,-4.771 10.667,-10.667 v -32 C 362.669,4.771 357.898,0 352.002,0 h -32 c -5.896,0 -10.667,4.771 -10.667,10.667 0,5.896 4.771,10.666 10.667,10.666 z"
           id="path20"
           style="fill:#5A5A5A;fill-opacity:1;stroke:#5A5A5A;stroke-width:3.39607008;stroke-miterlimit:4;stroke-dasharray:none;stroke-opacity:1"
           inkscape:connector-curvature="0" /><path
           d="m 352.002,202.667 c -5.896,0 -10.667,4.771 -10.667,10.667 v 21.333 c 0,5.896 4.771,10.667 10.667,10.667 5.896,0 10.667,-4.771 10.667,-10.667 v -21.333 c 0,-5.897 -4.771,-10.667 -10.667,-10.667 z"
           id="path22"
           style="fill:#5A5A5A;fill-opacity:1;stroke:#5A5A5A;stroke-width:3.39607008;stroke-miterlimit:4;stroke-dasharray:none;stroke-opacity:1"
           inkscape:connector-curvature="0" /><path
           d="m 362.669,106.667 c 0,-5.896 -4.771,-10.667 -10.667,-10.667 -5.896,0 -10.667,4.771 -10.667,10.667 v 42.667 c 0,5.896 4.771,10.667 10.667,10.667 5.896,0 10.667,-4.771 10.667,-10.667 z"
           id="path24"
           style="fill:#5A5A5A;fill-opacity:1;stroke:#5A5A5A;stroke-width:3.39607008;stroke-miterlimit:4;stroke-dasharray:none;stroke-opacity:1"
           inkscape:connector-curvature="0" /></g></g></g><g
     id="g32" /><g
     id="g34" /><g
     id="g36" /><g
     id="g38" /><g
     id="g40" /><g
     id="g42" /><g
     id="g44" /><g
     id="g46" /><g
     id="g48" /><g
     id="g50" /><g
     id="g52" /><g
     id="g54" /><g
     id="g56" /><g
     id="g58" /><g
     id="g60" /></svg>