<?xml version="1.0" encoding="UTF-8" standalone="no"?>
<!-- Generator: Adobe Illustrator 19.0.0, SVG Export Plug-In . SVG Version: 6.00 Build 0)  -->

<svg
   xmlns:dc="http://purl.org/dc/elements/1.1/"
   xmlns:cc="http://creativecommons.org/ns#"
   xmlns:rdf="http://www.w3.org/1999/02/22-rdf-syntax-ns#"
   xmlns:svg="http://www.w3.org/2000/svg"
   xmlns="http://www.w3.org/2000/svg"
   xmlns:sodipodi="http://sodipodi.sourceforge.net/DTD/sodipodi-0.dtd"
   xmlns:inkscape="http://www.inkscape.org/namespaces/inkscape"
   version="1.1"
   id="Layer_1"
   x="0px"
   y="0px"
   viewBox="0 0 512 512"
   style="enable-background:new 0 0 512 512;"
   xml:space="preserve"
   sodipodi:docname="DeleteSelection.svg"
   inkscape:version="0.92.2 (5c3e80d, 2017-08-06)"><metadata
     id="metadata49"><rdf:RDF><cc:Work
         rdf:about=""><dc:format>image/svg+xml</dc:format><dc:type
           rdf:resource="http://purl.org/dc/dcmitype/StillImage" /></cc:Work></rdf:RDF></metadata><defs
     id="defs47" /><sodipodi:namedview
     pagecolor="#ffffff"
     bordercolor="#666666"
     borderopacity="1"
     objecttolerance="10"
     gridtolerance="10"
     guidetolerance="10"
     inkscape:pageopacity="0"
     inkscape:pageshadow="2"
     inkscape:window-width="2048"
     inkscape:window-height="1228"
     id="namedview45"
     showgrid="false"
     inkscape:zoom="0.4609375"
     inkscape:cx="-46.644068"
     inkscape:cy="256"
     inkscape:window-x="-8"
     inkscape:window-y="-8"
     inkscape:window-maximized="1"
     inkscape:current-layer="Layer_1" /><g
     id="g12"
     transform="matrix(0.9765625,0,0,0.9765625,6,6)"
     style="stroke-width:3.3792;fill:#335777;fill-opacity:1;stroke:#335777;stroke-opacity:1;stroke-miterlimit:4;stroke-dasharray:none"><g
       id="g10"
       style="stroke-width:3.3792;fill:#335777;fill-opacity:1;stroke:#335777;stroke-opacity:1;stroke-miterlimit:4;stroke-dasharray:none"><g
         id="g8"
         style="stroke-width:3.3792;fill:#335777;fill-opacity:1;stroke:#335777;stroke-opacity:1;stroke-miterlimit:4;stroke-dasharray:none"><path
           d="m 394.667,0 c -64.688,0 -117.333,52.635 -117.333,117.333 0,64.698 52.646,117.333 117.333,117.333 C 459.354,234.666 512,182.031 512,117.333 512,52.635 459.354,0 394.667,0 Z m 0,213.333 c -52.938,0 -96,-43.063 -96,-96 0,-52.937 43.063,-96 96,-96 52.937,0 96,43.063 96,96 0,52.937 -43.063,96 -96,96 z"
           id="path2"
           inkscape:connector-curvature="0"
           style="stroke-width:3.3792;fill:#335777;fill-opacity:1;stroke:#335777;stroke-opacity:1;stroke-miterlimit:4;stroke-dasharray:none" /><path
           d="M 437.333,106.667 H 352 c -5.896,0 -10.667,4.771 -10.667,10.667 0,5.896 4.771,10.667 10.667,10.667 h 85.333 c 5.896,0 10.667,-4.771 10.667,-10.667 0,-5.896 -4.771,-10.667 -10.667,-10.667 z"
           id="path4"
           inkscape:connector-curvature="0"
           style="stroke-width:3.3792;fill:#335777;fill-opacity:1;stroke:#335777;stroke-opacity:1;stroke-miterlimit:4;stroke-dasharray:none" /><path
           d="M 17.979,2.896 C 14.875,-0.01 10.292,-0.802 6.438,0.875 2.521,2.563 0,6.406 0,10.667 v 490.667 c 0,4.313 2.604,8.208 6.583,9.854 1.313,0.552 2.709,0.812 4.084,0.812 2.771,0 5.5,-1.083 7.542,-3.125 L 164.417,362.667 h 208.917 c 4.375,0 8.313,-2.667 9.917,-6.74 1.604,-4.063 0.583,-8.698 -2.604,-11.698 z M 160,341.333 c -2.833,0 -5.542,1.125 -7.542,3.125 L 21.333,475.583 V 35.354 l 325.104,305.979 z"
           id="path6"
           inkscape:connector-curvature="0"
           style="stroke-width:3.3792;fill:#335777;fill-opacity:1;stroke:#335777;stroke-opacity:1;stroke-miterlimit:4;stroke-dasharray:none" /></g></g></g><g
     id="g14" /><g
     id="g16" /><g
     id="g18" /><g
     id="g20" /><g
     id="g22" /><g
     id="g24" /><g
     id="g26" /><g
     id="g28" /><g
     id="g30" /><g
     id="g32" /><g
     id="g34" /><g
     id="g36" /><g
     id="g38" /><g
     id="g40" /><g
     id="g42" /></svg>