<?xml version="1.0" encoding="UTF-8" standalone="no"?>
<!-- Generator: Adobe Illustrator 19.0.0, SVG Export Plug-In . SVG Version: 6.00 Build 0)  -->

<svg
   xmlns:dc="http://purl.org/dc/elements/1.1/"
   xmlns:cc="http://creativecommons.org/ns#"
   xmlns:rdf="http://www.w3.org/1999/02/22-rdf-syntax-ns#"
   xmlns:svg="http://www.w3.org/2000/svg"
   xmlns="http://www.w3.org/2000/svg"
   xmlns:sodipodi="http://sodipodi.sourceforge.net/DTD/sodipodi-0.dtd"
   xmlns:inkscape="http://www.inkscape.org/namespaces/inkscape"
   version="1.1"
   id="Layer_1"
   x="0px"
   y="0px"
   viewBox="0 0 512.01 512.01"
   style="enable-background:new 0 0 512.01 512.01;"
   xml:space="preserve"
   sodipodi:docname="InvertSelection.svg"
   inkscape:version="0.92.2 (5c3e80d, 2017-08-06)"><metadata
     id="metadata47"><rdf:RDF><cc:Work
         rdf:about=""><dc:format>image/svg+xml</dc:format><dc:type
           rdf:resource="http://purl.org/dc/dcmitype/StillImage" /></cc:Work></rdf:RDF></metadata><defs
     id="defs45" /><sodipodi:namedview
     pagecolor="#ffffff"
     bordercolor="#666666"
     borderopacity="1"
     objecttolerance="10"
     gridtolerance="10"
     guidetolerance="10"
     inkscape:pageopacity="0"
     inkscape:pageshadow="2"
     inkscape:window-width="2048"
     inkscape:window-height="1228"
     id="namedview43"
     showgrid="false"
     inkscape:zoom="0.46092849"
     inkscape:cx="-46.64498"
     inkscape:cy="256.005"
     inkscape:window-x="-8"
     inkscape:window-y="-8"
     inkscape:window-maximized="1"
     inkscape:current-layer="Layer_1" /><g
     id="g10"
     transform="matrix(0.9765625,0,0,0.97654133,6.0001221,6.005103)"
     style="stroke-width:3.37923663;fill:#5A5A5A;fill-opacity:1;stroke:#5A5A5A;stroke-opacity:1;stroke-miterlimit:4;stroke-dasharray:none"><g
       id="g8"
       style="stroke-width:3.37923663;fill:#5A5A5A;fill-opacity:1;stroke:#5A5A5A;stroke-opacity:1;stroke-miterlimit:4;stroke-dasharray:none"><g
         id="g6"
         style="stroke-width:3.37923663;fill:#5A5A5A;fill-opacity:1;stroke:#5A5A5A;stroke-opacity:1;stroke-miterlimit:4;stroke-dasharray:none"><path
           d="m 394.672,0.01 c -64.698,0 -117.333,52.635 -117.333,117.333 0,64.698 52.635,117.333 117.333,117.333 64.698,0 117.333,-52.635 117.333,-117.333 C 512.005,52.645 459.37,0.01 394.672,0.01 Z m 60.889,43.736 c 17.648,14.629 29.936,35.212 33.621,58.858 -5.305,7.775 -11.766,13.557 -22.125,19.531 -10.99,6.354 -24.417,8.677 -37,6.385 -5.397,-0.995 -10.23,-2.876 -14.441,-5.326 23.215,-10.362 40.733,-36.734 40.733,-66.143 0,-4.753 -0.296,-9.124 -0.788,-13.305 z M 394.672,21.344 c 12.165,0 23.704,2.505 34.424,6.651 4.125,8.508 5.919,17.02 5.919,29.057 0,18.925 -10.806,37.03 -24.844,45.143 0.951,-9.086 -0.027,-18.71 -3.417,-28.237 -5.938,-16.688 -18.135,-31.333 -33.458,-40.177 -4.203,-2.428 -8.212,-4.379 -12.159,-6.064 10.48,-3.936 21.696,-6.373 33.535,-6.373 z m -59.84,21.536 c 9.303,0.725 17.504,3.427 27.798,9.38 11,6.344 19.76,16.865 24.021,28.854 1.848,5.184 2.639,10.324 2.617,15.208 -7.387,-5.354 -16.201,-9.311 -26.128,-11.135 -17.406,-3.229 -36.208,0.031 -51.51,8.885 -4.22,2.431 -7.923,4.938 -11.366,7.521 3.949,-23.7 16.607,-44.247 34.568,-58.713 z m -1.05,148.061 c -17.648,-14.629 -29.936,-35.212 -33.621,-58.858 5.305,-7.775 11.766,-13.557 22.125,-19.531 11,-6.344 24.458,-8.646 37,-6.385 5.397,0.995 10.23,2.876 14.441,5.326 -23.215,10.362 -40.733,36.734 -40.733,66.143 10e-4,4.753 0.296,9.124 0.788,13.305 z m 60.89,22.403 c -12.165,0 -23.704,-2.505 -34.424,-6.651 -4.125,-8.509 -5.919,-17.018 -5.919,-29.057 0,-18.924 10.807,-37.031 24.844,-45.145 -0.951,9.086 0.027,18.711 3.417,28.238 5.938,16.688 18.135,31.333 33.458,40.177 4.203,2.428 8.212,4.379 12.159,6.064 -10.48,3.936 -21.697,6.374 -33.535,6.374 z m 59.841,-21.537 c -9.305,-0.725 -17.505,-3.427 -27.799,-9.38 -11,-6.344 -19.76,-16.865 -24.021,-28.854 -1.848,-5.184 -2.638,-10.324 -2.616,-15.208 7.387,5.354 16.199,9.311 26.126,11.135 4.396,0.813 8.885,1.208 13.385,1.208 13.302,0 26.688,-3.479 38.125,-10.094 4.22,-2.431 7.923,-4.938 11.366,-7.521 -3.949,23.701 -16.605,44.249 -34.566,58.714 z"
           id="path2"
           inkscape:connector-curvature="0"
           style="stroke-width:3.37923663;fill:#5A5A5A;fill-opacity:1;stroke:#5A5A5A;stroke-opacity:1;stroke-miterlimit:4;stroke-dasharray:none" /><path
           d="M 17.984,2.906 C 14.88,-0.011 10.349,-0.823 6.443,0.885 2.537,2.572 0.005,6.416 0.005,10.677 v 490.667 c 0,4.313 2.594,8.208 6.583,9.854 1.323,0.552 2.708,0.813 4.083,0.813 2.771,0 5.5,-1.083 7.542,-3.125 L 164.421,362.678 h 208.917 c 4.375,0 8.302,-2.667 9.917,-6.74 1.615,-4.063 0.583,-8.698 -2.604,-11.698 z m 142.021,338.438 c -2.833,0 -5.542,1.125 -7.542,3.125 L 21.338,475.594 V 35.364 L 346.442,341.343 H 160.005 Z"
           id="path4"
           inkscape:connector-curvature="0"
           style="stroke-width:3.37923663;fill:#5A5A5A;fill-opacity:1;stroke:#5A5A5A;stroke-opacity:1;stroke-miterlimit:4;stroke-dasharray:none" /></g></g></g><g
     id="g12" /><g
     id="g14" /><g
     id="g16" /><g
     id="g18" /><g
     id="g20" /><g
     id="g22" /><g
     id="g24" /><g
     id="g26" /><g
     id="g28" /><g
     id="g30" /><g
     id="g32" /><g
     id="g34" /><g
     id="g36" /><g
     id="g38" /><g
     id="g40" /></svg>