<?xml version="1.0" encoding="UTF-8" standalone="no"?>
<!-- Generator: Adobe Illustrator 19.0.0, SVG Export Plug-In . SVG Version: 6.00 Build 0)  -->

<svg
   xmlns:dc="http://purl.org/dc/elements/1.1/"
   xmlns:cc="http://creativecommons.org/ns#"
   xmlns:rdf="http://www.w3.org/1999/02/22-rdf-syntax-ns#"
   xmlns:svg="http://www.w3.org/2000/svg"
   xmlns="http://www.w3.org/2000/svg"
   xmlns:sodipodi="http://sodipodi.sourceforge.net/DTD/sodipodi-0.dtd"
   xmlns:inkscape="http://www.inkscape.org/namespaces/inkscape"
   version="1.1"
   id="Capa_1"
   x="0px"
   y="0px"
   viewBox="0 0 512 512"
   xml:space="preserve"
   sodipodi:docname="View.svg"
   width="512"
   height="512"
   inkscape:version="0.92.4 (5da689c313, 2019-01-14)"><metadata
   id="metadata937"><rdf:RDF><cc:Work
       rdf:about=""><dc:format>image/svg+xml</dc:format><dc:type
         rdf:resource="http://purl.org/dc/dcmitype/StillImage" /><dc:title></dc:title></cc:Work></rdf:RDF></metadata><defs
   id="defs935" /><sodipodi:namedview
   pagecolor="#ffffff"
   bordercolor="#666666"
   borderopacity="1"
   objecttolerance="10"
   gridtolerance="10"
   guidetolerance="10"
   inkscape:pageopacity="0"
   inkscape:pageshadow="2"
   inkscape:window-width="1920"
   inkscape:window-height="1028"
   id="namedview933"
   showgrid="false"
   inkscape:zoom="0.89479167"
   inkscape:cx="-250.60982"
   inkscape:cy="100.24434"
   inkscape:window-x="-8"
   inkscape:window-y="-8"
   inkscape:window-maximized="1"
   inkscape:current-layer="Capa_1" />

<g
   id="g902"
   transform="translate(0,452)">
</g>
<g
   id="g904"
   transform="translate(0,452)">
</g>
<g
   id="g906"
   transform="translate(0,452)">
</g>
<g
   id="g908"
   transform="translate(0,452)">
</g>
<g
   id="g910"
   transform="translate(0,452)">
</g>
<g
   id="g912"
   transform="translate(0,452)">
</g>
<g
   id="g914"
   transform="translate(0,452)">
</g>
<g
   id="g916"
   transform="translate(0,452)">
</g>
<g
   id="g918"
   transform="translate(0,452)">
</g>
<g
   id="g920"
   transform="translate(0,452)">
</g>
<g
   id="g922"
   transform="translate(0,452)">
</g>
<g
   id="g924"
   transform="translate(0,452)">
</g>
<g
   id="g926"
   transform="translate(0,452)">
</g>
<g
   id="g928"
   transform="translate(0,452)">
</g>
<g
   id="g930"
   transform="translate(0,452)">
</g>
<g
   id="g4598"
   transform="matrix(0.97157819,0,0,0.8632002,7.4576697,32.935552)"
   style="opacity:1;fill:#335777;fill-opacity:1;stroke:#335777;stroke-width:3.00062251;stroke-miterlimit:4;stroke-dasharray:none;stroke-opacity:1"><path
     d="M 505.918,236.117 C 479.267,192.53 443.433,157.508 398.421,131.052 353.406,104.595 305.872,91.365 255.813,91.365 c -50.059,0 -97.595,13.225 -142.61,39.687 C 68.187,157.508 32.355,192.53 5.708,236.117 1.903,242.778 0,249.345 0,255.818 c 0,6.473 1.903,13.04 5.708,19.699 26.647,43.589 62.479,78.614 107.495,105.064 45.015,26.46 92.551,39.68 142.61,39.68 50.06,0 97.594,-13.176 142.608,-39.536 45.012,-26.361 80.852,-61.432 107.497,-105.208 3.806,-6.659 5.708,-13.223 5.708,-19.699 0,-6.473 -1.902,-13.04 -5.708,-19.701 z M 194.568,158.03 c 17.034,-17.034 37.447,-25.554 61.242,-25.554 3.805,0 7.043,1.336 9.709,3.999 2.662,2.664 4,5.901 4,9.707 0,3.809 -1.338,7.044 -3.994,9.704 -2.662,2.667 -5.902,3.999 -9.708,3.999 -16.368,0 -30.362,5.808 -41.971,17.416 -11.613,11.615 -17.416,25.603 -17.416,41.971 0,3.811 -1.336,7.044 -3.999,9.71 -2.667,2.668 -5.901,3.999 -9.707,3.999 -3.809,0 -7.044,-1.334 -9.71,-3.999 -2.667,-2.666 -3.999,-5.903 -3.999,-9.71 0,-23.79 8.52,-44.207 25.553,-61.242 z m 185.299,191.01 c -38.164,23.12 -79.514,34.687 -124.054,34.687 -44.539,0 -85.889,-11.56 -124.051,-34.687 C 93.6,325.913 61.861,294.84 36.547,255.818 65.478,210.897 101.737,177.3 145.324,155.035 c -11.61,19.792 -17.417,41.207 -17.417,64.236 0,35.216 12.517,65.329 37.544,90.362 25.027,25.033 55.151,37.544 90.362,37.544 35.214,0 65.329,-12.518 90.362,-37.544 25.033,-25.026 37.545,-55.146 37.545,-90.362 0,-23.029 -5.808,-44.447 -17.419,-64.236 43.585,22.265 79.846,55.865 108.776,100.783 -25.31,39.022 -57.046,70.095 -95.21,93.222 z"
     id="path4596"
     inkscape:connector-curvature="0"
     style="fill:#335777;fill-opacity:1;stroke:#335777;stroke-width:3.00062251;stroke-miterlimit:4;stroke-dasharray:none;stroke-opacity:1" /></g></svg>