<?xml version="1.0" encoding="UTF-8" standalone="no"?>
<!-- Generator: Adobe Illustrator 19.0.0, SVG Export Plug-In . SVG Version: 6.00 Build 0)  -->

<svg
   xmlns:dc="http://purl.org/dc/elements/1.1/"
   xmlns:cc="http://creativecommons.org/ns#"
   xmlns:rdf="http://www.w3.org/1999/02/22-rdf-syntax-ns#"
   xmlns:svg="http://www.w3.org/2000/svg"
   xmlns="http://www.w3.org/2000/svg"
   xmlns:sodipodi="http://sodipodi.sourceforge.net/DTD/sodipodi-0.dtd"
   xmlns:inkscape="http://www.inkscape.org/namespaces/inkscape"
   version="1.1"
   id="Layer_1"
   x="0px"
   y="0px"
   viewBox="0 0 511.99999 511.99999"
   xml:space="preserve"
   sodipodi:docname="PointSelection.svg"
   inkscape:version="0.92.4 (5da689c313, 2019-01-14)"
   width="512"
   height="512"><metadata
     id="metadata67"><rdf:RDF><cc:Work
         rdf:about=""><dc:format>image/svg+xml</dc:format><dc:type
           rdf:resource="http://purl.org/dc/dcmitype/StillImage" /><dc:title></dc:title></cc:Work></rdf:RDF></metadata><defs
     id="defs65" /><sodipodi:namedview
     pagecolor="#ffffff"
     bordercolor="#666666"
     borderopacity="1"
     objecttolerance="10"
     gridtolerance="10"
     guidetolerance="10"
     inkscape:pageopacity="0"
     inkscape:pageshadow="2"
     inkscape:window-width="1920"
     inkscape:window-height="1028"
     id="namedview63"
     showgrid="false"
     inkscape:zoom="1.4222499"
     inkscape:cx="108.80333"
     inkscape:cy="269.35962"
     inkscape:window-x="-8"
     inkscape:window-y="-8"
     inkscape:window-maximized="1"
     inkscape:current-layer="Layer_1" /><g
     style="fill:#5A5A5A;fill-opacity:1;stroke:#5A5A5A;stroke-width:3.39607;stroke-miterlimit:4;stroke-dasharray:none;stroke-opacity:1"
     id="g28"
     transform="matrix(1.4410689,0,0,1.4370038,-259.22091,-220.10688)"><g
       style="fill:#5A5A5A;fill-opacity:1;stroke:#5A5A5A;stroke-width:3.39607;stroke-miterlimit:4;stroke-dasharray:none;stroke-opacity:1"
       id="g26"><path
         inkscape:connector-curvature="0"
         style="fill:#5A5A5A;fill-opacity:1;stroke:#5A5A5A;stroke-width:3.39607;stroke-miterlimit:4;stroke-dasharray:none;stroke-opacity:1"
         id="path2"
         d="M 466.211,387.125 316.877,237.792 c -3.042,-3.052 -7.646,-3.948 -11.625,-2.313 -3.979,1.646 -6.583,5.542 -6.583,9.854 v 213.333 c 0,4.313 2.604,8.208 6.583,9.854 1.313,0.552 2.708,0.813 4.083,0.813 2.771,0 5.5,-1.083 7.542,-3.125 l 60.875,-60.875 h 80.917 c 4.313,0 8.208,-2.594 9.854,-6.583 1.646,-3.99 0.729,-8.573 -2.312,-11.625 z M 373.336,384 c -2.833,0 -5.542,1.125 -7.542,3.125 l -45.792,45.792 V 271.083 L 432.919,384 Z" /></g></g><g
     id="g32"
     transform="translate(0,42.666992)" /><g
     id="g34"
     transform="translate(0,42.666992)" /><g
     id="g36"
     transform="translate(0,42.666992)" /><g
     id="g38"
     transform="translate(0,42.666992)" /><g
     id="g40"
     transform="translate(0,42.666992)" /><g
     id="g42"
     transform="translate(0,42.666992)" /><g
     id="g44"
     transform="translate(0,42.666992)" /><g
     id="g46"
     transform="translate(0,42.666992)" /><g
     id="g48"
     transform="translate(0,42.666992)" /><g
     id="g50"
     transform="translate(0,42.666992)" /><g
     id="g52"
     transform="translate(0,42.666992)" /><g
     id="g54"
     transform="translate(0,42.666992)" /><g
     id="g56"
     transform="translate(0,42.666992)" /><g
     id="g58"
     transform="translate(0,42.666992)" /><g
     id="g60"
     transform="translate(0,42.666992)" /><circle
     id="path5165"
     cx="171.79428"
     cy="100.44475"
     style="fill:#5A5A5A;stroke-width:1.0315913"
     r="37.5" /></svg>