<?xml version="1.0" encoding="UTF-8" standalone="no"?>
<!-- Generator: Adobe Illustrator 19.0.0, SVG Export Plug-In . SVG Version: 6.00 Build 0)  -->

<svg
   xmlns:dc="http://purl.org/dc/elements/1.1/"
   xmlns:cc="http://creativecommons.org/ns#"
   xmlns:rdf="http://www.w3.org/1999/02/22-rdf-syntax-ns#"
   xmlns:svg="http://www.w3.org/2000/svg"
   xmlns="http://www.w3.org/2000/svg"
   xmlns:sodipodi="http://sodipodi.sourceforge.net/DTD/sodipodi-0.dtd"
   xmlns:inkscape="http://www.inkscape.org/namespaces/inkscape"
   version="1.1"
   id="Layer_1"
   x="0px"
   y="0px"
   viewBox="0 0 511.99999 511.99999"
   xml:space="preserve"
   sodipodi:docname="RotationAroundX.svg"
   inkscape:version="0.92.4 (5da689c313, 2019-01-14)"
   width="512"
   height="512"><metadata
     id="metadata51"><rdf:RDF><cc:Work
         rdf:about=""><dc:format>image/svg+xml</dc:format><dc:type
           rdf:resource="http://purl.org/dc/dcmitype/StillImage" /><dc:title /></cc:Work></rdf:RDF></metadata><defs
     id="defs49" /><sodipodi:namedview
     pagecolor="#ffffff"
     bordercolor="#666666"
     borderopacity="1"
     objecttolerance="10"
     gridtolerance="10"
     guidetolerance="10"
     inkscape:pageopacity="0"
     inkscape:pageshadow="2"
     inkscape:window-width="1920"
     inkscape:window-height="1028"
     id="namedview47"
     showgrid="false"
     inkscape:zoom="1.3037561"
     inkscape:cx="223.28022"
     inkscape:cy="250.81312"
     inkscape:window-x="-8"
     inkscape:window-y="-8"
     inkscape:window-maximized="1"
     inkscape:current-layer="Layer_1" /><g
     id="g14"
     style="fill:#757575;fill-opacity:1"
     transform="matrix(1.0330416,0,0,1.0225374,-222.87573,-212.52766)"><g
       id="g12"
       style="fill:#757575;fill-opacity:1"><g
         id="g10"
         style="fill:#757575;fill-opacity:1"><path
           d="m 508.839,493.828 -31.147,-35.627 31.147,-35.627 c 4.16,-4.16 4.16,-10.88 0,-15.04 -4.16,-4.16 -10.88,-4.16 -15.04,0 -0.32,0.32 -0.64,0.747 -0.96,1.067 l -29.333,33.493 -29.227,-33.493 c -3.627,-4.693 -10.24,-5.547 -14.933,-2.027 -4.693,3.627 -5.547,10.24 -2.027,14.933 0.32,0.427 0.64,0.747 0.96,1.067 l 31.147,35.627 -31.147,35.627 c -4.16,4.16 -4.16,10.88 0,15.04 4.16,4.16 10.88,4.16 15.04,0 0.32,-0.32 0.64,-0.747 0.96,-1.067 l 29.333,-33.493 29.227,33.493 c 3.627,4.693 10.24,5.547 14.933,2.027 4.693,-3.627 5.547,-10.24 2.027,-14.933 -0.32,-0.427 -0.64,-0.747 -0.96,-1.067 z"
           id="path8"
           style="fill:#757575;fill-opacity:1"
           inkscape:connector-curvature="0" /></g></g></g><g
     id="g16"
     transform="translate(0,0.01098633)" /><g
     id="g18"
     transform="translate(0,0.01098633)" /><g
     id="g20"
     transform="translate(0,0.01098633)" /><g
     id="g22"
     transform="translate(0,0.01098633)" /><g
     id="g24"
     transform="translate(0,0.01098633)" /><g
     id="g26"
     transform="translate(0,0.01098633)" /><g
     id="g28"
     transform="translate(0,0.01098633)" /><g
     id="g30"
     transform="translate(0,0.01098633)" /><g
     id="g32"
     transform="translate(0,0.01098633)" /><g
     id="g34"
     transform="translate(0,0.01098633)" /><g
     id="g36"
     transform="translate(0,0.01098633)" /><g
     id="g38"
     transform="translate(0,0.01098633)" /><g
     id="g40"
     transform="translate(0,0.01098633)" /><g
     id="g42"
     transform="translate(0,0.01098633)" /><g
     id="g44"
     transform="translate(0,0.01098633)" /><path
     id="path510"
     d="m 255.99999,56 c -75,0 -139.99998,39.999998 -172.499989,102.5 L 56,131 v 99.99999 H 156 L 118.49999,193.5 c 25,-50 77.5,-87.5 137.5,-87.5 C 338.49999,106 406,173.5 406,255.99999 406,338.49999 338.49999,406 255.99999,406 c -44.99999,0 -85,-20 -112.5,-52.5 L 106,386 c 35,42.5 89.99999,70 149.99999,70 C 366,456 456,366 456,255.99999 456,146 366,56 255.99999,56 Z"
     inkscape:connector-curvature="0"
     style="fill:#757575;stroke-width:25" /></svg>
