<?xml version="1.0" encoding="UTF-8" standalone="no"?>
<!-- Generator: Adobe Illustrator 19.0.0, SVG Export Plug-In . SVG Version: 6.00 Build 0)  -->

<svg
   xmlns:dc="http://purl.org/dc/elements/1.1/"
   xmlns:cc="http://creativecommons.org/ns#"
   xmlns:rdf="http://www.w3.org/1999/02/22-rdf-syntax-ns#"
   xmlns:svg="http://www.w3.org/2000/svg"
   xmlns="http://www.w3.org/2000/svg"
   xmlns:sodipodi="http://sodipodi.sourceforge.net/DTD/sodipodi-0.dtd"
   xmlns:inkscape="http://www.inkscape.org/namespaces/inkscape"
   version="1.1"
   id="Capa_1"
   x="0px"
   y="0px"
   viewBox="0 0 512 512"
   xml:space="preserve"
   sodipodi:docname="SeleactAll.svg"
   width="512"
   height="512"
   inkscape:version="0.92.4 (5da689c313, 2019-01-14)"><metadata
   id="metadata5327"><rdf:RDF><cc:Work
       rdf:about=""><dc:format>image/svg+xml</dc:format><dc:type
         rdf:resource="http://purl.org/dc/dcmitype/StillImage" /><dc:title /></cc:Work></rdf:RDF></metadata><defs
   id="defs5325" /><sodipodi:namedview
   pagecolor="#ffffff"
   bordercolor="#666666"
   borderopacity="1"
   objecttolerance="10"
   gridtolerance="10"
   guidetolerance="10"
   inkscape:pageopacity="0"
   inkscape:pageshadow="2"
   inkscape:window-width="1920"
   inkscape:window-height="1028"
   id="namedview5323"
   showgrid="false"
   inkscape:zoom="0.79089157"
   inkscape:cx="-329.37598"
   inkscape:cy="91.992458"
   inkscape:window-x="-8"
   inkscape:window-y="-8"
   inkscape:window-maximized="1"
   inkscape:current-layer="Capa_1" />
<g
   id="g5290"
   transform="matrix(1.0416666,0,0,1.0416666,56,56.000018)"
   style="fill:#757575">
	<g
   id="g5288"
   style="fill:#757575">
		<g
   id="g5286"
   style="fill:#757575">
			<rect
   x="0"
   y="85.333"
   width="42.667"
   height="42.667"
   id="rect5252"
   style="fill:#757575" />
			<rect
   x="0"
   y="170.66701"
   width="42.667"
   height="42.667"
   id="rect5254"
   style="fill:#757575" />
			<path
   d="M 0,42.667 H 42.667 V 0 C 19.093,0 0,19.093 0,42.667 Z"
   id="path5256"
   inkscape:connector-curvature="0"
   style="fill:#757575" />
			<rect
   x="0"
   y="256"
   width="42.667"
   height="42.667"
   id="rect5258"
   style="fill:#757575" />
			<path
   d="M 341.333,0 V 42.667 H 384 C 384,19.093 364.907,0 341.333,0 Z"
   id="path5260"
   inkscape:connector-curvature="0"
   style="fill:#757575" />
			<rect
   x="170.66701"
   y="0"
   width="42.667"
   height="42.667"
   id="rect5262"
   style="fill:#757575" />
			<path
   d="M 42.667,384 V 341.333 H 0 C 0,364.907 19.093,384 42.667,384 Z"
   id="path5264"
   inkscape:connector-curvature="0"
   style="fill:#757575" />
			<rect
   x="85.333"
   y="341.33301"
   width="42.667"
   height="42.667"
   id="rect5266"
   style="fill:#757575" />
			<rect
   x="85.333"
   y="0"
   width="42.667"
   height="42.667"
   id="rect5268"
   style="fill:#757575" />
			<path
   d="M 341.333,384 C 364.907,384 384,364.907 384,341.333 h -42.667 z"
   id="path5270"
   inkscape:connector-curvature="0"
   style="fill:#757575" />
			<rect
   x="341.33301"
   y="170.66701"
   width="42.667"
   height="42.667"
   id="rect5272"
   style="fill:#757575" />
			<rect
   x="170.66701"
   y="341.33301"
   width="42.667"
   height="42.667"
   id="rect5274"
   style="fill:#757575" />
			<rect
   x="341.33301"
   y="85.333"
   width="42.667"
   height="42.667"
   id="rect5276"
   style="fill:#757575" />
			<rect
   x="341.33301"
   y="256"
   width="42.667"
   height="42.667"
   id="rect5278"
   style="fill:#757575" />
			<rect
   x="256"
   y="341.33301"
   width="42.667"
   height="42.667"
   id="rect5280"
   style="fill:#757575" />
			<path
   d="M 85.333,298.667 H 298.666 V 85.333 H 85.333 Z M 128,128 H 256 V 256 H 128 Z"
   id="path5282"
   inkscape:connector-curvature="0"
   style="fill:#757575" />
			<rect
   x="256"
   y="0"
   width="42.667"
   height="42.667"
   id="rect5284"
   style="fill:#757575" />
		</g>
	</g>
</g>
<g
   id="g5292"
   transform="translate(0,128)">
</g>
<g
   id="g5294"
   transform="translate(0,128)">
</g>
<g
   id="g5296"
   transform="translate(0,128)">
</g>
<g
   id="g5298"
   transform="translate(0,128)">
</g>
<g
   id="g5300"
   transform="translate(0,128)">
</g>
<g
   id="g5302"
   transform="translate(0,128)">
</g>
<g
   id="g5304"
   transform="translate(0,128)">
</g>
<g
   id="g5306"
   transform="translate(0,128)">
</g>
<g
   id="g5308"
   transform="translate(0,128)">
</g>
<g
   id="g5310"
   transform="translate(0,128)">
</g>
<g
   id="g5312"
   transform="translate(0,128)">
</g>
<g
   id="g5314"
   transform="translate(0,128)">
</g>
<g
   id="g5316"
   transform="translate(0,128)">
</g>
<g
   id="g5318"
   transform="translate(0,128)">
</g>
<g
   id="g5320"
   transform="translate(0,128)">
</g>
</svg>