<?xml version="1.0" encoding="UTF-8" standalone="no"?>
<!-- Created with Inkscape (http://www.inkscape.org/) -->

<svg
   xmlns:osb="http://www.openswatchbook.org/uri/2009/osb"
   xmlns:dc="http://purl.org/dc/elements/1.1/"
   xmlns:cc="http://creativecommons.org/ns#"
   xmlns:rdf="http://www.w3.org/1999/02/22-rdf-syntax-ns#"
   xmlns:svg="http://www.w3.org/2000/svg"
   xmlns="http://www.w3.org/2000/svg"
   xmlns:sodipodi="http://sodipodi.sourceforge.net/DTD/sodipodi-0.dtd"
   xmlns:inkscape="http://www.inkscape.org/namespaces/inkscape"
   width="200mm"
   height="200mm"
   viewBox="0 0 200 200"
   version="1.1"
   id="svg8"
   inkscape:version="0.92.2 (5c3e80d, 2017-08-06)"
   sodipodi:docname="ViewBottom.svg">
  <defs
     id="defs2">
    <linearGradient
       id="linearGradient6739"
       osb:paint="solid">
      <stop
         style="stop-color:#000000;stop-opacity:1;"
         offset="0"
         id="stop6737" />
    </linearGradient>
    <inkscape:perspective
       sodipodi:type="inkscape:persp3d"
       inkscape:vp_x="376.31174 : 406.07549 : 1"
       inkscape:vp_y="20.43405 : -2149.6806 : 0"
       inkscape:vp_z="-1020.9819 : 408.07723 : 1"
       inkscape:persp3d-origin="-323.34657 : 513.48555 : 1"
       id="perspective4485" />
  </defs>
  <sodipodi:namedview
     id="base"
     pagecolor="#ffffff"
     bordercolor="#666666"
     borderopacity="1.0"
     inkscape:pageopacity="0.0"
     inkscape:pageshadow="2"
     inkscape:zoom="0.9899495"
     inkscape:cx="276.39057"
     inkscape:cy="303.37673"
     inkscape:document-units="mm"
     inkscape:current-layer="g4487"
     showgrid="false"
     inkscape:window-width="2048"
     inkscape:window-height="1228"
     inkscape:window-x="-8"
     inkscape:window-y="-8"
     inkscape:window-maximized="1" />
  <metadata
     id="metadata5">
    <rdf:RDF>
      <cc:Work
         rdf:about="">
        <dc:format>image/svg+xml</dc:format>
        <dc:type
           rdf:resource="http://purl.org/dc/dcmitype/StillImage" />
        <dc:title />
      </cc:Work>
    </rdf:RDF>
  </metadata>
  <g
     inkscape:label="Layer 1"
     inkscape:groupmode="layer"
     id="layer1"
     transform="translate(0,-97)">
    <g
       id="g4487"
       style="opacity:1;fill:#b0aaa6;fill-opacity:1;stroke:#ad3535;stroke-width:3;stroke-miterlimit:4;stroke-dasharray:none;stroke-opacity:0.04210528">
      <g
         aria-label="R"
         transform="scale(1.0228379,0.97767201)"
         style="font-style:normal;font-weight:normal;font-size:33.69023132px;line-height:1.25;font-family:sans-serif;letter-spacing:0px;word-spacing:0px;fill:#000000;fill-opacity:1;stroke:none;stroke-width:2.52676749"
         id="text4556">
        <text
           xml:space="preserve"
           style="font-style:normal;font-weight:normal;font-size:10.58333302px;line-height:1.25;font-family:sans-serif;letter-spacing:0px;word-spacing:0px;fill:#000000;fill-opacity:1;stroke:none;stroke-width:0.66854054"
           x="32.883926"
           y="135.22618"
           id="text4563"
           transform="scale(0.97767202,1.0228379)"><tspan
             sodipodi:role="line"
             id="tspan4561"
             x="32.883926"
             y="144.88168"
             style="stroke-width:0.66854054" /></text>
      </g>
      <path
         style="fill:none;stroke:#757575;stroke-width:2.01900911;stroke-linecap:butt;stroke-linejoin:miter;stroke-miterlimit:4;stroke-dasharray:none;stroke-opacity:1"
         d="M 98.09217,126.14243 97.361251,239.46847 1.2459785,288.27741 M 96.995787,225.12667 199.3238,250.19106"
         id="path4573"
         inkscape:connector-curvature="0"
         sodipodi:nodetypes="ccccc" />
      <path
         d="m 164.57338,172.10155 -48.4364,31.0917 -76.362068,-12.85869 58.059116,-27.13533 z"
         style="opacity:1;fill:#e0e0e0;fill-opacity:1;fill-rule:evenodd;stroke:#757575;stroke-width:2.01900911;stroke-linejoin:round;stroke-miterlimit:4;stroke-dasharray:none;stroke-opacity:1"
         id="path4521"
         inkscape:connector-curvature="0" />
      <path
         d="m 116.87202,287.48439 -0.73504,-84.29114 -76.362068,-12.85869 0.682716,78.29171 z"
         style="opacity:1;fill:#dcdcdc;fill-opacity:1;fill-rule:evenodd;stroke:#757575;stroke-width:2.01900911;stroke-linejoin:round;stroke-miterlimit:4;stroke-dasharray:none;stroke-opacity:1"
         id="path4523"
         inkscape:connector-curvature="0" />
      <path
         d="m 165.18042,241.71497 -48.3084,45.76942 -0.73504,-84.29114 48.4364,-31.0917 z"
         style="opacity:1;fill:#cccccc;fill-opacity:1;fill-rule:evenodd;stroke:#757575;stroke-width:2.01900911;stroke-linejoin:round;stroke-miterlimit:4;stroke-dasharray:none;stroke-opacity:1"
         id="path4525"
         inkscape:connector-curvature="0" />
      <g
         id="g4598"
         transform="matrix(0.18486818,0,0,0.16424643,104.52284,84.68836)"
         style="stroke-width:3.00062251;stroke-miterlimit:4;stroke-dasharray:none;fill:#757575;fill-opacity:1;stroke:#757575;stroke-opacity:1">
        <path
           d="M 505.918,236.117 C 479.267,192.53 443.433,157.508 398.421,131.052 353.406,104.595 305.872,91.365 255.813,91.365 c -50.059,0 -97.595,13.225 -142.61,39.687 C 68.187,157.508 32.355,192.53 5.708,236.117 1.903,242.778 0,249.345 0,255.818 c 0,6.473 1.903,13.04 5.708,19.699 26.647,43.589 62.479,78.614 107.495,105.064 45.015,26.46 92.551,39.68 142.61,39.68 50.06,0 97.594,-13.176 142.608,-39.536 45.012,-26.361 80.852,-61.432 107.497,-105.208 3.806,-6.659 5.708,-13.223 5.708,-19.699 0,-6.473 -1.902,-13.04 -5.708,-19.701 z M 194.568,158.03 c 17.034,-17.034 37.447,-25.554 61.242,-25.554 3.805,0 7.043,1.336 9.709,3.999 2.662,2.664 4,5.901 4,9.707 0,3.809 -1.338,7.044 -3.994,9.704 -2.662,2.667 -5.902,3.999 -9.708,3.999 -16.368,0 -30.362,5.808 -41.971,17.416 -11.613,11.615 -17.416,25.603 -17.416,41.971 0,3.811 -1.336,7.044 -3.999,9.71 -2.667,2.668 -5.901,3.999 -9.707,3.999 -3.809,0 -7.044,-1.334 -9.71,-3.999 -2.667,-2.666 -3.999,-5.903 -3.999,-9.71 0,-23.79 8.52,-44.207 25.553,-61.242 z m 185.299,191.01 c -38.164,23.12 -79.514,34.687 -124.054,34.687 -44.539,0 -85.889,-11.56 -124.051,-34.687 C 93.6,325.913 61.861,294.84 36.547,255.818 65.478,210.897 101.737,177.3 145.324,155.035 c -11.61,19.792 -17.417,41.207 -17.417,64.236 0,35.216 12.517,65.329 37.544,90.362 25.027,25.033 55.151,37.544 90.362,37.544 35.214,0 65.329,-12.518 90.362,-37.544 25.033,-25.026 37.545,-55.146 37.545,-90.362 0,-23.029 -5.808,-44.447 -17.419,-64.236 43.585,22.265 79.846,55.865 108.776,100.783 -25.31,39.022 -57.046,70.095 -95.21,93.222 z"
           id="path4596"
           inkscape:connector-curvature="0"
           style="fill:#757575;fill-opacity:1;stroke:#757575;stroke-width:3.00062251;stroke-miterlimit:4;stroke-dasharray:none;stroke-opacity:1" />
      </g>
      <g
         transform="matrix(0.26458333,0,0,0.26458333,114.58824,-77.607346)"
         id="g4600" />
      <g
         transform="matrix(0.26458333,0,0,0.26458333,114.58824,-77.607346)"
         id="g4602" />
      <g
         transform="matrix(0.26458333,0,0,0.26458333,114.58824,-77.607346)"
         id="g4604" />
      <g
         transform="matrix(0.26458333,0,0,0.26458333,114.58824,-77.607346)"
         id="g4606" />
      <g
         transform="matrix(0.26458333,0,0,0.26458333,114.58824,-77.607346)"
         id="g4608" />
      <g
         transform="matrix(0.26458333,0,0,0.26458333,114.58824,-77.607346)"
         id="g4610" />
      <g
         transform="matrix(0.26458333,0,0,0.26458333,114.58824,-77.607346)"
         id="g4612" />
      <g
         transform="matrix(0.26458333,0,0,0.26458333,114.58824,-77.607346)"
         id="g4614" />
      <g
         transform="matrix(0.26458333,0,0,0.26458333,114.58824,-77.607346)"
         id="g4616" />
      <g
         transform="matrix(0.26458333,0,0,0.26458333,114.58824,-77.607346)"
         id="g4618" />
      <g
         transform="matrix(0.26458333,0,0,0.26458333,114.58824,-77.607346)"
         id="g4620" />
      <g
         transform="matrix(0.26458333,0,0,0.26458333,114.58824,-77.607346)"
         id="g4622" />
      <g
         transform="matrix(0.26458333,0,0,0.26458333,114.58824,-77.607346)"
         id="g4624" />
      <g
         transform="matrix(0.26458333,0,0,0.26458333,114.58824,-77.607346)"
         id="g4626" />
      <g
         transform="matrix(0.26458333,0,0,0.26458333,114.58824,-77.607346)"
         id="g4628" />
      <path
         d="m 165.18042,241.71497 -48.3084,45.76942 -76.414392,-18.85812 61.981742,-36.37408 z"
         style="opacity:1;fill:#99bedd;fill-opacity:1;fill-rule:evenodd;stroke:#eb5777;stroke-width:2.0190001;stroke-linejoin:round;stroke-miterlimit:4;stroke-dasharray:12.11400061, 2.01900009999999996;stroke-opacity:1;stroke-dashoffset:0"
         id="path4521-4"
         inkscape:connector-curvature="0"
         sodipodi:nodetypes="ccccc" />
      <path
         style="fill:none;stroke:#757575;stroke-width:2;stroke-linecap:butt;stroke-linejoin:miter;stroke-opacity:1;stroke-miterlimit:4;stroke-dasharray:none"
         d="m 116.13698,203.19325 0.73504,84.29114"
         id="path4624"
         inkscape:connector-curvature="0" />
    </g>
  </g>
</svg>
