<?xml version="1.0" encoding="UTF-8" standalone="no"?>
<!-- Generator: Adobe Illustrator 19.0.0, SVG Export Plug-In . SVG Version: 6.00 Build 0)  -->

<svg
   xmlns:osb="http://www.openswatchbook.org/uri/2009/osb"
   xmlns:dc="http://purl.org/dc/elements/1.1/"
   xmlns:cc="http://creativecommons.org/ns#"
   xmlns:rdf="http://www.w3.org/1999/02/22-rdf-syntax-ns#"
   xmlns:svg="http://www.w3.org/2000/svg"
   xmlns="http://www.w3.org/2000/svg"
   xmlns:xlink="http://www.w3.org/1999/xlink"
   xmlns:sodipodi="http://sodipodi.sourceforge.net/DTD/sodipodi-0.dtd"
   xmlns:inkscape="http://www.inkscape.org/namespaces/inkscape"
   version="1.1"
   id="Capa_1"
   x="0px"
   y="0px"
   viewBox="0 0 485.811 485.811"
   style="enable-background:new 0 0 485.811 485.811;"
   xml:space="preserve"
   width="512px"
   height="512px"
   sodipodi:docname="Error.svg"
   inkscape:version="0.92.2 (5c3e80d, 2017-08-06)"><metadata
     id="metadata41"><rdf:RDF><cc:Work
         rdf:about=""><dc:format>image/svg+xml</dc:format><dc:type
           rdf:resource="http://purl.org/dc/dcmitype/StillImage" /></cc:Work></rdf:RDF></metadata><defs
     id="defs39"><linearGradient
       id="linearGradient2306"
       osb:paint="solid"><stop
         style="stop-color:#fc0000;stop-opacity:1;"
         offset="0"
         id="stop2304" /></linearGradient><linearGradient
       id="linearGradient2298"
       osb:paint="solid"><stop
         style="stop-color:#fc0000;stop-opacity:1;"
         offset="0"
         id="stop2296" /></linearGradient><linearGradient
       inkscape:collect="always"
       xlink:href="#linearGradient2306"
       id="linearGradient2308"
       x1="-0.00027453201"
       y1="242.9055"
       x2="485.81059"
       y2="242.9055"
       gradientUnits="userSpaceOnUse" /></defs><sodipodi:namedview
     pagecolor="#ffffff"
     bordercolor="#666666"
     borderopacity="1"
     objecttolerance="10"
     gridtolerance="10"
     guidetolerance="10"
     inkscape:pageopacity="0"
     inkscape:pageshadow="2"
     inkscape:window-width="2560"
     inkscape:window-height="1388"
     id="namedview37"
     showgrid="false"
     inkscape:zoom="0.4609375"
     inkscape:cx="-1468.7458"
     inkscape:cy="256"
     inkscape:window-x="-8"
     inkscape:window-y="-8"
     inkscape:window-maximized="1"
     inkscape:current-layer="layer3" /><g
     id="g4"
     style="fill:url(#linearGradient2308);fill-opacity:1;stroke-width:1.06090021"
     transform="matrix(0.93750025,0,0,0.94771881,15.181852,12.699389)" /><g
     inkscape:groupmode="layer"
     id="layer3"
     inkscape:label="Background"
     style="display:inline"><rect
       style="display:inline;opacity:0.78699999;fill:#ffffff;fill-opacity:1;stroke:none;stroke-width:2.04002666;stroke-linecap:round;stroke-linejoin:round;stroke-miterlimit:4;stroke-dasharray:none;stroke-dashoffset:84.31999969;stroke-opacity:1;paint-order:stroke fill markers"
       id="rect2312"
       width="111.16014"
       height="279.95886"
       x="187.32542"
       y="131.39157" /></g><g
     id="g6" /><g
     id="g8" /><g
     id="g10" /><g
     id="g12" /><g
     id="g14" /><g
     id="g16" /><g
     id="g18" /><g
     id="g20" /><g
     id="g22" /><g
     id="g24" /><g
     id="g26" /><g
     id="g28" /><g
     id="g30" /><g
     id="g32" /><g
     id="g34" /><g
     inkscape:groupmode="layer"
     id="layer2"
     inkscape:label="Layer 1"
     style="display:inline"><path
       d="M 461.52479,348.16153 301.96224,68.774007 c -26.0625,-46.1539 -91.96877,-46.1539 -117.93754,0 L 24.368417,348.16153 c -26.0625096,46.1539 6.375,103.49089 58.96876,103.49089 H 401.99352 c 52.59376,0 85.59376,-57.90562 59.53127,-103.49089 z m -218.62506,41.51008 c -13.87501,0 -25.40626,-11.65694 -25.40626,-25.68318 0,-14.02624 11.53125,-25.68318 25.40626,-25.68318 13.875,0 25.40625,11.65694 24.84375,26.34658 0.65625,13.36284 -11.53125,25.01978 -24.84375,25.01978 z m 23.15625,-166.04033 c -1.125,19.90209 -2.34375,39.70941 -3.46875,59.61151 -0.5625,6.44449 -0.5625,12.32034 -0.5625,18.67006 -0.5625,10.51968 -8.71875,18.67006 -19.125,18.67006 -10.40626,0 -18.46876,-7.58175 -19.12501,-18.10143 -1.6875,-30.9904 -3.46875,-61.41218 -5.15625,-92.40258 -0.5625,-8.15038 -1.125,-16.39554 -1.78125,-24.54592 0,-13.45761 7.5,-24.54593 19.68751,-28.05249 12.1875,-2.93793 24.28125,2.93793 29.53125,14.59488 1.78125,4.07519 2.34375,8.15038 2.34375,12.88898 -0.5625,12.98375 -1.78125,25.87272 -2.34375,38.66693 z"
       id="path2"
       style="fill:#fc0000;fill-opacity:1;stroke:none;stroke-width:0.99999994;stroke-opacity:1"
       inkscape:connector-curvature="0" /></g></svg>