<?xml version="1.0" encoding="UTF-8" standalone="no"?>
<!-- Generator: Adobe Illustrator 19.0.0, SVG Export Plug-In . SVG Version: 6.00 Build 0)  -->

<svg
   xmlns:dc="http://purl.org/dc/elements/1.1/"
   xmlns:cc="http://creativecommons.org/ns#"
   xmlns:rdf="http://www.w3.org/1999/02/22-rdf-syntax-ns#"
   xmlns:svg="http://www.w3.org/2000/svg"
   xmlns="http://www.w3.org/2000/svg"
   xmlns:sodipodi="http://sodipodi.sourceforge.net/DTD/sodipodi-0.dtd"
   xmlns:inkscape="http://www.inkscape.org/namespaces/inkscape"
   version="1.1"
   id="Capa_1"
   x="0px"
   y="0px"
   viewBox="0 0 512 512"
   style="enable-background:new 0 0 512 512;"
   xml:space="preserve"
   width="512px"
   height="512px"
   sodipodi:docname="Grid.svg"
   inkscape:version="0.92.2 (5c3e80d, 2017-08-06)"><metadata
     id="metadata185"><rdf:RDF><cc:Work
         rdf:about=""><dc:format>image/svg+xml</dc:format><dc:type
           rdf:resource="http://purl.org/dc/dcmitype/StillImage" /></cc:Work></rdf:RDF></metadata><defs
     id="defs183" /><sodipodi:namedview
     pagecolor="#ffffff"
     bordercolor="#666666"
     borderopacity="1"
     objecttolerance="10"
     gridtolerance="10"
     guidetolerance="10"
     inkscape:pageopacity="0"
     inkscape:pageshadow="2"
     inkscape:window-width="2560"
     inkscape:window-height="1388"
     id="namedview181"
     showgrid="false"
     inkscape:zoom="1.3037281"
     inkscape:cx="-1.6257156"
     inkscape:cy="503.02756"
     inkscape:window-x="-8"
     inkscape:window-y="-8"
     inkscape:window-maximized="1"
     inkscape:current-layer="Capa_1" /><g
     id="g1066"
     transform="matrix(0.78710784,0,0,0.78124695,54.500787,56)"
     style="stroke-width:1.27523053"><g
       id="g6"
       style="stroke-width:1.27523053"><g
         id="g4"
         style="stroke-width:1.27523053"><path
           id="path2"
           d="m 503.172,476.69 c -4.873,0 -8.828,3.955 -8.828,8.828 v 8.828 h -8.828 c -4.873,0 -8.828,3.955 -8.828,8.828 0,4.873 3.955,8.828 8.828,8.828 h 17.655 c 4.873,0 8.828,-3.955 8.828,-8.828 v -17.655 c 10e-4,-4.875 -3.954,-8.829 -8.827,-8.829 z"
           inkscape:connector-curvature="0"
           style="fill:#D9D9D9;stroke-width:1.27523053" /></g></g><g
       id="g16"
       style="stroke-width:1.27523053"><g
         id="g14"
         style="stroke-width:1.27523053"><g
           id="g12"
           style="stroke-width:1.27523053"><path
             id="path8"
             d="M 354.366,494.345 H 321.58 c -4.873,0 -8.828,3.955 -8.828,8.828 0,4.873 3.955,8.827 8.828,8.827 h 32.786 c 4.873,0 8.828,-3.955 8.828,-8.828 0,-4.873 -3.955,-8.827 -8.828,-8.827 z"
             inkscape:connector-curvature="0"
             style="fill:#D9D9D9;stroke-width:1.27523053" /><path
             id="path10"
             d="m 436.339,494.345 h -32.786 c -4.873,0 -8.828,3.955 -8.828,8.828 0,4.873 3.955,8.827 8.828,8.827 h 32.786 c 4.873,0 8.828,-3.955 8.828,-8.828 0,-4.873 -3.955,-8.827 -8.828,-8.827 z"
             inkscape:connector-curvature="0"
             style="fill:#D9D9D9;stroke-width:1.27523053" /></g></g></g><g
       id="g28"
       style="stroke-width:1.27523053"><g
         id="g26"
         style="stroke-width:1.27523053"><g
           id="g24"
           style="stroke-width:1.27523053"><path
             id="path18"
             d="M 108.456,494.345 H 75.67 c -4.873,0 -8.828,3.955 -8.828,8.828 0,4.873 3.955,8.827 8.828,8.827 h 32.786 c 4.873,0 8.828,-3.955 8.828,-8.828 0,-4.873 -3.955,-8.827 -8.828,-8.827 z"
             inkscape:connector-curvature="0"
             style="fill:#D9D9D9;stroke-width:1.27523053" /><path
             id="path20"
             d="m 190.429,494.345 h -32.786 c -4.873,0 -8.828,3.955 -8.828,8.828 0,4.873 3.955,8.827 8.828,8.827 h 32.786 c 4.873,0 8.828,-3.955 8.828,-8.828 0,-4.873 -3.955,-8.827 -8.828,-8.827 z"
             inkscape:connector-curvature="0"
             style="fill:#D9D9D9;stroke-width:1.27523053" /><path
             id="path22"
             d="m 272.393,494.345 h -32.786 c -4.873,0 -8.828,3.955 -8.828,8.828 0,4.873 3.955,8.828 8.828,8.828 h 32.786 c 4.882,0 8.828,-3.955 8.828,-8.828 0,-4.873 -3.955,-8.828 -8.828,-8.828 z"
             inkscape:connector-curvature="0"
             style="fill:#D9D9D9;stroke-width:1.27523053" /></g></g></g><g
       id="g34"
       style="stroke-width:1.27523053"><g
         id="g32"
         style="stroke-width:1.27523053"><path
           id="path30"
           d="m 26.483,494.345 h -8.828 v -8.828 c 0,-4.873 -3.955,-8.828 -8.828,-8.828 -4.873,0 -8.828,3.955 -8.828,8.828 v 17.655 C 0,508.045 3.955,512 8.828,512 h 17.655 c 4.873,0 8.828,-3.955 8.828,-8.828 0,-4.873 -3.955,-8.827 -8.828,-8.827 z"
           inkscape:connector-curvature="0"
           style="fill:#D9D9D9;stroke-width:1.27523053" /></g></g><g
       id="g44"
       style="stroke-width:1.27523053"><g
         id="g42"
         style="stroke-width:1.27523053"><g
           id="g40"
           style="stroke-width:1.27523053"><path
             id="path36"
             d="M 8.828,394.726 C 3.955,394.726 0,398.681 0,403.554 v 32.786 c 0,4.873 3.955,8.828 8.828,8.828 4.873,0 8.828,-3.955 8.828,-8.828 V 403.554 C 17.655,398.68 13.7,394.726 8.828,394.726 Z"
             inkscape:connector-curvature="0"
             style="fill:#D9D9D9;stroke-width:1.27523053" /><path
             id="path38"
             d="M 8.828,312.753 C 3.955,312.753 0,316.708 0,321.581 v 32.786 c 0,4.873 3.955,8.828 8.828,8.828 4.873,0 8.828,-3.955 8.828,-8.828 V 321.58 c -10e-4,-4.873 -3.956,-8.827 -8.828,-8.827 z"
             inkscape:connector-curvature="0"
             style="fill:#D9D9D9;stroke-width:1.27523053" /></g></g></g><g
       id="g56"
       style="stroke-width:1.27523053"><g
         id="g54"
         style="stroke-width:1.27523053"><g
           id="g52"
           style="stroke-width:1.27523053"><path
             id="path46"
             d="M 8.828,230.78 C 3.955,230.78 0,234.735 0,239.608 v 32.786 c 0,4.873 3.955,8.828 8.828,8.828 4.873,0 8.828,-3.955 8.828,-8.828 V 239.608 C 17.655,234.734 13.7,230.78 8.828,230.78 Z"
             inkscape:connector-curvature="0"
             style="fill:#D9D9D9;stroke-width:1.27523053" /><path
             id="path48"
             d="M 8.828,66.834 C 3.955,66.834 0,70.788 0,75.661 v 32.794 c 0,4.873 3.955,8.828 8.828,8.828 4.873,0 8.828,-3.955 8.828,-8.836 V 75.661 C 17.655,70.788 13.7,66.834 8.828,66.834 Z"
             inkscape:connector-curvature="0"
             style="fill:#D9D9D9;stroke-width:1.27523053" /><path
             id="path50"
             d="M 8.828,148.807 C 3.955,148.807 0,152.762 0,157.635 v 32.786 c 0,4.873 3.955,8.828 8.828,8.828 4.873,0 8.828,-3.946 8.828,-8.828 v -32.786 c -10e-4,-4.874 -3.956,-8.828 -8.828,-8.828 z"
             inkscape:connector-curvature="0"
             style="fill:#D9D9D9;stroke-width:1.27523053" /></g></g></g><g
       id="g62"
       style="stroke-width:1.27523053"><g
         id="g60"
         style="stroke-width:1.27523053"><path
           id="path58"
           d="M 26.483,0 H 8.828 C 3.955,0 0,3.955 0,8.828 v 17.655 c 0,4.873 3.955,8.828 8.828,8.828 4.873,0 8.828,-3.955 8.828,-8.828 v -8.828 h 8.828 c 4.873,0 8.828,-3.955 8.828,-8.828 C 35.31,3.955 31.356,0 26.483,0 Z"
           inkscape:connector-curvature="0"
           style="fill:#D9D9D9;stroke-width:1.27523053" /></g></g><g
       id="g72"
       style="stroke-width:1.27523053"><g
         id="g70"
         style="stroke-width:1.27523053"><g
           id="g68"
           style="stroke-width:1.27523053"><path
             id="path64"
             d="M 108.447,0 H 75.661 c -4.873,0 -8.828,3.955 -8.828,8.828 0,4.873 3.955,8.828 8.828,8.828 h 32.794 c 4.873,0 8.819,-3.955 8.819,-8.828 C 117.274,3.955 113.32,0 108.447,0 Z"
             inkscape:connector-curvature="0"
             style="fill:#D9D9D9;stroke-width:1.27523053" /><path
             id="path66"
             d="m 190.42,0 h -32.786 c -4.873,0 -8.828,3.955 -8.828,8.828 0,4.873 3.955,8.828 8.828,8.828 h 32.786 c 4.882,0 8.828,-3.955 8.828,-8.828 C 199.247,3.955 195.293,0 190.42,0 Z"
             inkscape:connector-curvature="0"
             style="fill:#D9D9D9;stroke-width:1.27523053" /></g></g></g><g
       id="g84"
       style="stroke-width:1.27523053"><g
         id="g82"
         style="stroke-width:1.27523053"><g
           id="g80"
           style="stroke-width:1.27523053"><path
             id="path74"
             d="m 272.393,0 h -32.786 c -4.873,0 -8.828,3.955 -8.828,8.828 0,4.873 3.955,8.828 8.828,8.828 h 32.786 c 4.873,0 8.828,-3.955 8.828,-8.828 C 281.22,3.955 277.266,0 272.393,0 Z"
             inkscape:connector-curvature="0"
             style="fill:#D9D9D9;stroke-width:1.27523053" /><path
             id="path76"
             d="m 436.33,0 h -32.786 c -4.873,0 -8.828,3.955 -8.828,8.828 0,4.873 3.955,8.828 8.828,8.828 h 32.786 c 4.873,0 8.828,-3.955 8.828,-8.828 C 445.158,3.955 441.203,0 436.33,0 Z"
             inkscape:connector-curvature="0"
             style="fill:#D9D9D9;stroke-width:1.27523053" /><path
             id="path78"
             d="M 354.366,0 H 321.58 c -4.873,0 -8.828,3.955 -8.828,8.828 0,4.873 3.955,8.828 8.828,8.828 h 32.786 c 4.873,0 8.828,-3.955 8.828,-8.828 C 363.193,3.955 359.239,0 354.366,0 Z"
             inkscape:connector-curvature="0"
             style="fill:#D9D9D9;stroke-width:1.27523053" /></g></g></g><g
       id="g90"
       style="stroke-width:1.27523053"><g
         id="g88"
         style="stroke-width:1.27523053"><path
           id="path86"
           d="m 503.172,0 h -17.655 c -4.873,0 -8.828,3.955 -8.828,8.828 0,4.873 3.955,8.828 8.828,8.828 h 8.828 v 8.828 c 0,4.873 3.955,8.828 8.828,8.828 4.873,0 8.827,-3.956 8.827,-8.829 V 8.828 C 512,3.955 508.045,0 503.172,0 Z"
           inkscape:connector-curvature="0"
           style="fill:#D9D9D9;stroke-width:1.27523053" /></g></g><g
       id="g100"
       style="stroke-width:1.27523053"><g
         id="g98"
         style="stroke-width:1.27523053"><g
           id="g96"
           style="stroke-width:1.27523053"><path
             id="path92"
             d="m 503.172,148.807 c -4.873,0 -8.828,3.955 -8.828,8.828 v 32.786 c 0,4.873 3.955,8.828 8.828,8.828 4.873,0 8.828,-3.947 8.828,-8.829 v -32.786 c 0,-4.873 -3.955,-8.827 -8.828,-8.827 z"
             inkscape:connector-curvature="0"
             style="fill:#D9D9D9;stroke-width:1.27523053" /><path
             id="path94"
             d="m 503.172,66.834 c -4.873,0 -8.828,3.955 -8.828,8.828 v 32.794 c 0,4.873 3.955,8.828 8.828,8.828 4.873,0 8.828,-3.955 8.828,-8.836 V 75.661 c 0,-4.873 -3.955,-8.827 -8.828,-8.827 z"
             inkscape:connector-curvature="0"
             style="fill:#D9D9D9;stroke-width:1.27523053" /></g></g></g><g
       id="g112"
       style="stroke-width:1.27523053"><g
         id="g110"
         style="stroke-width:1.27523053"><g
           id="g108"
           style="stroke-width:1.27523053"><path
             id="path102"
             d="m 503.172,394.726 c -4.873,0 -8.828,3.955 -8.828,8.828 v 32.786 c 0,4.873 3.955,8.828 8.828,8.828 4.873,0 8.828,-3.955 8.828,-8.828 v -32.786 c 0,-4.874 -3.955,-8.828 -8.828,-8.828 z"
             inkscape:connector-curvature="0"
             style="fill:#D9D9D9;stroke-width:1.27523053" /><path
             id="path104"
             d="m 503.172,230.78 c -4.873,0 -8.828,3.955 -8.828,8.828 v 32.786 c 0,4.873 3.955,8.828 8.828,8.828 4.873,0 8.828,-3.946 8.828,-8.828 v -32.786 c 0,-4.874 -3.955,-8.828 -8.828,-8.828 z"
             inkscape:connector-curvature="0"
             style="fill:#D9D9D9;stroke-width:1.27523053" /><path
             id="path106"
             d="m 503.172,312.753 c -4.873,0 -8.828,3.955 -8.828,8.828 v 32.786 c 0,4.873 3.955,8.828 8.828,8.828 4.873,0 8.828,-3.955 8.828,-8.828 V 321.58 c 0,-4.873 -3.955,-8.827 -8.828,-8.827 z"
             inkscape:connector-curvature="0"
             style="fill:#D9D9D9;stroke-width:1.27523053" /></g></g></g><g
       id="g118"
       style="stroke-width:1.27523053"><g
         id="g116"
         style="stroke-width:1.27523053"><path
           id="path114"
           d="m 132.414,44.138 c -4.873,0 -8.828,3.955 -8.828,8.828 v 406.069 c 0,4.873 3.955,8.828 8.828,8.828 4.873,0 8.828,-3.955 8.828,-8.828 V 52.966 c -10e-4,-4.873 -3.955,-8.828 -8.828,-8.828 z"
           inkscape:connector-curvature="0"
           style="fill:#D9D9D9;stroke-width:1.27523053" /></g></g><g
       id="g124"
       style="stroke-width:1.27523053"><g
         id="g122"
         style="stroke-width:1.27523053"><path
           id="path120"
           d="m 256,44.138 c -4.873,0 -8.828,3.955 -8.828,8.828 v 406.069 c 0,4.873 3.955,8.828 8.828,8.828 4.873,0 8.828,-3.955 8.828,-8.828 V 52.966 c 0,-4.873 -3.955,-8.828 -8.828,-8.828 z"
           inkscape:connector-curvature="0"
           style="fill:#D9D9D9;stroke-width:1.27523053" /></g></g><g
       id="g130"
       style="stroke-width:1.27523053"><g
         id="g128"
         style="stroke-width:1.27523053"><path
           id="path126"
           d="m 379.586,44.138 c -4.873,0 -8.828,3.955 -8.828,8.828 v 406.069 c 0,4.873 3.955,8.828 8.828,8.828 4.873,0 8.828,-3.955 8.828,-8.828 V 52.966 c 0,-4.873 -3.955,-8.828 -8.828,-8.828 z"
           inkscape:connector-curvature="0"
           style="fill:#D9D9D9;stroke-width:1.27523053" /></g></g><g
       id="g136"
       style="stroke-width:1.27523053"><g
         id="g134"
         style="stroke-width:1.27523053"><path
           id="path132"
           d="M 459.034,123.586 H 52.966 c -4.873,0 -8.828,3.955 -8.828,8.828 0,4.873 3.955,8.828 8.828,8.828 h 406.069 c 4.873,0 8.828,-3.955 8.828,-8.828 -10e-4,-4.873 -3.956,-8.828 -8.829,-8.828 z"
           inkscape:connector-curvature="0"
           style="fill:#D9D9D9;stroke-width:1.27523053" /></g></g><g
       id="g142"
       style="stroke-width:1.27523053"><g
         id="g140"
         style="stroke-width:1.27523053"><path
           id="path138"
           d="M 459.034,247.172 H 52.966 c -4.873,0 -8.828,3.955 -8.828,8.828 0,4.873 3.955,8.828 8.828,8.828 h 406.069 c 4.873,0 8.828,-3.955 8.828,-8.828 0,-4.873 -3.956,-8.828 -8.829,-8.828 z"
           inkscape:connector-curvature="0"
           style="fill:#D9D9D9;stroke-width:1.27523053" /></g></g><g
       id="g148"
       style="stroke-width:1.27523053"><g
         id="g146"
         style="stroke-width:1.27523053"><path
           id="path144"
           d="M 459.034,370.759 H 52.966 c -4.873,0 -8.828,3.955 -8.828,8.828 0,4.873 3.955,8.828 8.828,8.828 h 406.069 c 4.873,0 8.828,-3.955 8.828,-8.828 -10e-4,-4.874 -3.956,-8.828 -8.829,-8.828 z"
           inkscape:connector-curvature="0"
           style="fill:#D9D9D9;stroke-width:1.27523053" /></g></g></g><g
     id="g150" /><g
     id="g152" /><g
     id="g154" /><g
     id="g156" /><g
     id="g158" /><g
     id="g160" /><g
     id="g162" /><g
     id="g164" /><g
     id="g166" /><g
     id="g168" /><g
     id="g170" /><g
     id="g172" /><g
     id="g174" /><g
     id="g176" /><g
     id="g178" /></svg>