<?xml version="1.0" encoding="UTF-8" standalone="no"?>
<!-- Generator: Adobe Illustrator 19.0.0, SVG Export Plug-In . SVG Version: 6.00 Build 0)  -->

<svg
   xmlns:dc="http://purl.org/dc/elements/1.1/"
   xmlns:cc="http://creativecommons.org/ns#"
   xmlns:rdf="http://www.w3.org/1999/02/22-rdf-syntax-ns#"
   xmlns:svg="http://www.w3.org/2000/svg"
   xmlns="http://www.w3.org/2000/svg"
   xmlns:sodipodi="http://sodipodi.sourceforge.net/DTD/sodipodi-0.dtd"
   xmlns:inkscape="http://www.inkscape.org/namespaces/inkscape"
   version="1.1"
   id="Layer_1"
   x="0px"
   y="0px"
   viewBox="0 0 512 512"
   xml:space="preserve"
   sodipodi:docname="ArrowRight.svg"
   width="512"
   height="512"
   inkscape:version="0.92.2 (5c3e80d, 2017-08-06)"><metadata
     id="metadata43"><rdf:RDF><cc:Work
         rdf:about=""><dc:format>image/svg+xml</dc:format><dc:type
           rdf:resource="http://purl.org/dc/dcmitype/StillImage" /><dc:title /></cc:Work></rdf:RDF></metadata><defs
     id="defs41" /><sodipodi:namedview
     pagecolor="#ffffff"
     bordercolor="#666666"
     borderopacity="1"
     objecttolerance="10"
     gridtolerance="10"
     guidetolerance="10"
     inkscape:pageopacity="0"
     inkscape:pageshadow="2"
     inkscape:window-width="2560"
     inkscape:window-height="1388"
     id="namedview39"
     showgrid="false"
     inkscape:zoom="0.4609303"
     inkscape:cx="-520.6861"
     inkscape:cy="256.004"
     inkscape:window-x="-8"
     inkscape:window-y="-8"
     inkscape:window-maximized="1"
     inkscape:current-layer="Layer_1" /><g
     id="g6"
     style="fill:#ffffff;fill-opacity:1;stroke-width:1.31283367"
     transform="matrix(0.76171554,0,0,0.76170661,60.997835,61.000121)"><g
       id="g4"
       style="fill:#ffffff;fill-opacity:1;stroke-width:1.31283367"><path
         d="M 500.208,236.915 30.875,2.248 C 22.32,-2.019 11.952,-0.099 5.51,7.048 -0.933,14.173 -1.807,24.691 3.334,32.797 L 145.371,256.008 3.334,479.219 c -5.141,8.107 -4.267,18.624 2.176,25.749 4.139,4.608 9.941,7.04 15.829,7.04 3.243,0 6.507,-0.725 9.536,-2.24 L 500.208,275.101 c 7.232,-3.627 11.797,-11.008 11.797,-19.093 0,-8.085 -4.565,-15.467 -11.797,-19.093 z"
         id="path2"
         style="fill:#ffffff;fill-opacity:1;stroke-width:1.31283367"
         inkscape:connector-curvature="0" /></g></g><g
     id="g8"
     transform="translate(0,-0.00799561)" /><g
     id="g10"
     transform="translate(0,-0.00799561)" /><g
     id="g12"
     transform="translate(0,-0.00799561)" /><g
     id="g14"
     transform="translate(0,-0.00799561)" /><g
     id="g16"
     transform="translate(0,-0.00799561)" /><g
     id="g18"
     transform="translate(0,-0.00799561)" /><g
     id="g20"
     transform="translate(0,-0.00799561)" /><g
     id="g22"
     transform="translate(0,-0.00799561)" /><g
     id="g24"
     transform="translate(0,-0.00799561)" /><g
     id="g26"
     transform="translate(0,-0.00799561)" /><g
     id="g28"
     transform="translate(0,-0.00799561)" /><g
     id="g30"
     transform="translate(0,-0.00799561)" /><g
     id="g32"
     transform="translate(0,-0.00799561)" /><g
     id="g34"
     transform="translate(0,-0.00799561)" /><g
     id="g36"
     transform="translate(0,-0.00799561)" /></svg>