<?xml version="1.0" encoding="UTF-8" standalone="no"?>
<!-- Generator: Adobe Illustrator 19.0.0, SVG Export Plug-In . SVG Version: 6.00 Build 0)  -->

<svg
   xmlns:dc="http://purl.org/dc/elements/1.1/"
   xmlns:cc="http://creativecommons.org/ns#"
   xmlns:rdf="http://www.w3.org/1999/02/22-rdf-syntax-ns#"
   xmlns:svg="http://www.w3.org/2000/svg"
   xmlns="http://www.w3.org/2000/svg"
   xmlns:sodipodi="http://sodipodi.sourceforge.net/DTD/sodipodi-0.dtd"
   xmlns:inkscape="http://www.inkscape.org/namespaces/inkscape"
   version="1.1"
   id="Layer_1"
   x="0px"
   y="0px"
   viewBox="0 0 512 512"
   style="enable-background:new 0 0 512 512;"
   xml:space="preserve"
   width="512px"
   height="512px"
   sodipodi:docname="CameraLens2.svg"
   inkscape:version="0.92.2 (5c3e80d, 2017-08-06)"><metadata
     id="metadata55"><rdf:RDF><cc:Work
         rdf:about=""><dc:format>image/svg+xml</dc:format><dc:type
           rdf:resource="http://purl.org/dc/dcmitype/StillImage" /></cc:Work></rdf:RDF></metadata><defs
     id="defs53" /><sodipodi:namedview
     pagecolor="#ffffff"
     bordercolor="#666666"
     borderopacity="1"
     objecttolerance="10"
     gridtolerance="10"
     guidetolerance="10"
     inkscape:pageopacity="0"
     inkscape:pageshadow="2"
     inkscape:window-width="2560"
     inkscape:window-height="1388"
     id="namedview51"
     showgrid="false"
     inkscape:zoom="1.84375"
     inkscape:cx="157.17735"
     inkscape:cy="298.3096"
     inkscape:window-x="-8"
     inkscape:window-y="-8"
     inkscape:window-maximized="1"
     inkscape:current-layer="Layer_1" /><g
     id="g6"
     style="fill:#757575;fill-opacity:1;stroke:#757575;stroke-opacity:1;stroke-width:4;stroke-miterlimit:4;stroke-dasharray:none"><g
       id="g4"
       style="fill:#757575;fill-opacity:1;stroke:#757575;stroke-opacity:1;stroke-width:4;stroke-miterlimit:4;stroke-dasharray:none"><path
         d="M121.492,117.153c-48.661,0-86.78,60.987-86.78,138.847s38.119,138.847,86.78,138.847    c48.661,0,86.78-60.987,86.78-138.847S170.153,117.153,121.492,117.153z M121.492,377.492c-37.636,0-69.424-55.635-69.424-121.492    s31.788-121.492,69.424-121.492S190.915,190.144,190.915,256S159.127,377.492,121.492,377.492z"
         fill="#33aa77"
         id="path2"
         style="fill:#757575;fill-opacity:1;stroke:#757575;stroke-opacity:1;stroke-width:4;stroke-miterlimit:4;stroke-dasharray:none" /></g></g><g
     id="g12"
     transform="matrix(0.77432123,0,0,0.8253931,57.773765,44.699366)"
     style="fill:#757575;fill-opacity:1;stroke:#757575;stroke-width:5.00344324;stroke-miterlimit:4;stroke-dasharray:none;stroke-opacity:1"><g
       id="g10"
       style="fill:#757575;fill-opacity:1;stroke:#757575;stroke-width:5.00344324;stroke-miterlimit:4;stroke-dasharray:none;stroke-opacity:1"><path
         d="M 401.093,108.475 H 347.754 C 329.093,97.471 308.142,91.119 285.915,91.119 H 219.97 C 208.08,85.55 195.415,82.441 182.237,82.441 h -52.068 c -0.814,0 -1.544,0.253 -2.29,0.463 -2.129,-0.16 -4.231,-0.463 -6.388,-0.463 C 54.5,82.441 0,160.301 0,256 c 0,95.699 54.5,173.559 121.492,173.559 2.157,0 4.258,-0.303 6.388,-0.463 0.746,0.21 1.477,0.463 2.29,0.463 h 52.068 c 13.178,0 25.843,-3.109 37.733,-8.678 h 65.945 c 22.227,0 43.178,-6.352 61.839,-17.356 h 53.339 C 462.246,403.525 512,337.347 512,256 512,174.653 462.246,108.475 401.093,108.475 Z M 121.492,412.203 C 64.068,412.203 17.356,342.131 17.356,256 c 0,-86.131 46.712,-156.203 104.136,-156.203 57.424,0 104.136,70.072 104.136,156.203 0,86.131 -46.713,156.203 -104.136,156.203 z m 94.207,-8.425 c -1.881,0.283 -3.619,1.019 -4.9,2.309 -9.091,3.898 -18.648,6.116 -28.561,6.116 h -8.14 c 40.684,-28.081 68.886,-87.449 68.886,-156.203 0,-68.754 -28.201,-128.123 -68.886,-156.203 h 8.14 c 9.913,0 19.47,2.218 28.561,6.117 1.282,1.289 3.019,2.025 4.9,2.308 41.036,20.97 70.674,79.22 70.674,147.778 0,68.558 -29.638,126.807 -70.674,147.778 z m 70.216,-0.253 h -39.996 c 34.621,-30.615 57.81,-85.206 57.81,-147.525 0,-62.319 -23.189,-116.91 -57.809,-147.525 h 39.996 c 67.246,0 121.949,66.178 121.949,147.525 0,81.347 -54.704,147.525 -121.95,147.525 z M 401.093,386.169 H 371.104 C 403.955,355.98 425.22,308.926 425.22,256 c 0,-52.926 -21.265,-99.98 -54.116,-130.169 h 29.989 c 51.585,0 93.551,58.394 93.551,130.169 0,71.775 -41.966,130.169 -93.551,130.169 z"
         id="path8"
         inkscape:connector-curvature="0"
         style="fill:#757575;fill-opacity:1;stroke:#757575;stroke-width:5.00344324;stroke-miterlimit:4;stroke-dasharray:none;stroke-opacity:1" /></g></g><g
     id="g18"
     style="fill:#757575;fill-opacity:1;stroke:#757575;stroke-opacity:1;stroke-width:4;stroke-miterlimit:4;stroke-dasharray:none"><g
       id="g16"
       style="fill:#757575;fill-opacity:1;stroke:#757575;stroke-opacity:1;stroke-width:4;stroke-miterlimit:4;stroke-dasharray:none"><path
         d="M121.492,151.864c-4.797,0-8.678,3.886-8.678,8.678s3.881,8.678,8.678,8.678c16.39,0,34.712,37.11,34.712,86.78    c0,4.792,3.881,8.678,8.678,8.678s8.678-3.886,8.678-8.678C173.559,196.631,151.178,151.864,121.492,151.864z"
         fill="#33aa77"
         id="path14"
         style="fill:#757575;fill-opacity:1;stroke:#757575;stroke-opacity:1;stroke-width:4;stroke-miterlimit:4;stroke-dasharray:none" /></g></g><g
     id="g20"
     style="fill:#757575;fill-opacity:1;stroke:#757575;stroke-opacity:1" /><g
     id="g22"
     style="fill:#757575;fill-opacity:1;stroke:#757575;stroke-opacity:1" /><g
     id="g24"
     style="fill:#757575;fill-opacity:1;stroke:#757575;stroke-opacity:1" /><g
     id="g26"
     style="fill:#757575;fill-opacity:1;stroke:#757575;stroke-opacity:1" /><g
     id="g28"
     style="fill:#757575;fill-opacity:1;stroke:#757575;stroke-opacity:1" /><g
     id="g30"
     style="fill:#757575;fill-opacity:1;stroke:#757575;stroke-opacity:1" /><g
     id="g32"
     style="fill:#757575;fill-opacity:1;stroke:#757575;stroke-opacity:1" /><g
     id="g34"
     style="fill:#757575;fill-opacity:1;stroke:#757575;stroke-opacity:1" /><g
     id="g36"
     style="fill:#757575;fill-opacity:1;stroke:#757575;stroke-opacity:1" /><g
     id="g38"
     style="fill:#757575;fill-opacity:1;stroke:#757575;stroke-opacity:1" /><g
     id="g40"
     style="fill:#757575;fill-opacity:1;stroke:#757575;stroke-opacity:1" /><g
     id="g42"
     style="fill:#757575;fill-opacity:1;stroke:#757575;stroke-opacity:1" /><g
     id="g44"
     style="fill:#757575;fill-opacity:1;stroke:#757575;stroke-opacity:1" /><g
     id="g46"
     style="fill:#757575;fill-opacity:1;stroke:#757575;stroke-opacity:1" /><g
     id="g48"
     style="fill:#757575;fill-opacity:1;stroke:#757575;stroke-opacity:1" /></svg>