<?xml version="1.0" encoding="UTF-8" standalone="no"?>
<!-- Generator: Adobe Illustrator 19.0.0, SVG Export Plug-In . SVG Version: 6.00 Build 0)  -->

<svg
   xmlns:dc="http://purl.org/dc/elements/1.1/"
   xmlns:cc="http://creativecommons.org/ns#"
   xmlns:rdf="http://www.w3.org/1999/02/22-rdf-syntax-ns#"
   xmlns:svg="http://www.w3.org/2000/svg"
   xmlns="http://www.w3.org/2000/svg"
   xmlns:sodipodi="http://sodipodi.sourceforge.net/DTD/sodipodi-0.dtd"
   xmlns:inkscape="http://www.inkscape.org/namespaces/inkscape"
   version="1.1"
   id="Capa_1"
   x="0px"
   y="0px"
   viewBox="0 0 512 512"
   style="enable-background:new 0 0 512 512;"
   xml:space="preserve"
   width="512px"
   height="512px"
   sodipodi:docname="CameraLens3.svg"
   inkscape:version="0.92.2 (5c3e80d, 2017-08-06)"><metadata
     id="metadata67"><rdf:RDF><cc:Work
         rdf:about=""><dc:format>image/svg+xml</dc:format><dc:type
           rdf:resource="http://purl.org/dc/dcmitype/StillImage" /></cc:Work></rdf:RDF></metadata><defs
     id="defs65" /><sodipodi:namedview
     pagecolor="#ffffff"
     bordercolor="#666666"
     borderopacity="1"
     objecttolerance="10"
     gridtolerance="10"
     guidetolerance="10"
     inkscape:pageopacity="0"
     inkscape:pageshadow="2"
     inkscape:window-width="2560"
     inkscape:window-height="1388"
     id="namedview63"
     showgrid="false"
     inkscape:zoom="0.921875"
     inkscape:cx="-107.60331"
     inkscape:cy="180.21456"
     inkscape:window-x="-8"
     inkscape:window-y="-8"
     inkscape:window-maximized="1"
     inkscape:current-layer="Capa_1" /><g
     id="g859"
     transform="matrix(0.8137088,0,0,0.81370056,47.690547,47.692657)"
     style="stroke-width:1.22894704"><g
       transform="matrix(0.89842772,0,0,0.89784423,26.002504,26.151877)"
       id="g6"
       style="stroke:#ffffff;stroke-width:27.3666172;stroke-miterlimit:4;stroke-dasharray:none;stroke-opacity:1"><g
         id="g4"
         style="stroke:#ffffff;stroke-width:27.3666172;stroke-miterlimit:4;stroke-dasharray:none;stroke-opacity:1"><path
           id="path2"
           d="M 256,0 C 114.615,0 0,114.615 0,256 0,397.385 114.615,512 256,512 397.385,512 512,397.385 512,256 511.841,114.681 397.319,0.159 256,0 Z m 0,496 C 123.452,496 16,388.548 16,256 16,123.452 123.452,16 256,16 388.548,16 496,123.452 496,256 495.85,388.486 388.486,495.85 256,496 Z"
           style="fill:#ffffff;fill-opacity:1;stroke:#ffffff;stroke-width:42.82875824;stroke-miterlimit:4;stroke-dasharray:none;stroke-opacity:1"
           inkscape:connector-curvature="0" /></g></g><g
       transform="matrix(0.9168501,0,0,0.87625828,31.18247,31.677886)"
       id="g18"
       style="fill:#ffffff;fill-opacity:1;stroke:#ffffff;stroke-width:42.91531372;stroke-miterlimit:4;stroke-dasharray:none;stroke-opacity:1"><g
         id="g16"
         style="fill:#ffffff;fill-opacity:1;stroke:#ffffff;stroke-width:42.91531372;stroke-miterlimit:4;stroke-dasharray:none;stroke-opacity:1"><path
           id="path14"
           d="m 256,104 c -83.947,0 -152,68.053 -152,152 0,83.947 68.053,152 152,152 83.947,0 152,-68.053 152,-152 -0.093,-83.909 -68.091,-151.907 -152,-152 z m 0,288 c -75.111,0 -136,-60.889 -136,-136 0,-75.111 60.889,-136 136,-136 75.111,0 136,60.889 136,136 -0.084,75.076 -60.924,135.916 -136,136 z"
           style="fill:#ffffff;fill-opacity:1;stroke:#ffffff;stroke-width:42.91531372;stroke-miterlimit:4;stroke-dasharray:none;stroke-opacity:1"
           inkscape:connector-curvature="0" /></g></g><g
       transform="matrix(0.9650455,0,0,0.92592528,45.970157,-18.937018)"
       id="g30"
       style="stroke:#ffffff;stroke-width:26.00167465;stroke-linecap:round;stroke-miterlimit:4;stroke-dasharray:none;stroke-opacity:1"><g
         id="g28"
         style="stroke:#ffffff;stroke-width:26.00167465;stroke-linecap:round;stroke-miterlimit:4;stroke-dasharray:none;stroke-opacity:1"><path
           id="path26"
           d="m 256,352 c -33.012,0.081 -63.73,-16.873 -81.256,-44.848 -2.303,-3.771 -7.226,-4.961 -10.997,-2.659 -3.771,2.302 -4.961,7.226 -2.659,10.997 0.039,0.064 0.079,0.127 0.12,0.19 20.444,32.638 56.28,52.417 94.792,52.32 4.418,0 8,-3.582 8,-8 0,-4.418 -3.582,-8 -8,-8 z"
           style="fill:#ffffff;stroke:#ffffff;stroke-width:26.00167465;stroke-linecap:round;stroke-miterlimit:4;stroke-dasharray:none;stroke-opacity:1"
           inkscape:connector-curvature="0" /></g></g><g
       id="g32"
       style="stroke-width:1.22894704" /><g
       id="g34"
       style="stroke-width:1.22894704" /><g
       id="g36"
       style="stroke-width:1.22894704" /><g
       id="g38"
       style="stroke-width:1.22894704" /><g
       id="g40"
       style="stroke-width:1.22894704" /><g
       id="g42"
       style="stroke-width:1.22894704" /><g
       id="g44"
       style="stroke-width:1.22894704" /><g
       id="g46"
       style="stroke-width:1.22894704" /><g
       id="g48"
       style="stroke-width:1.22894704" /><g
       id="g50"
       style="stroke-width:1.22894704" /><g
       id="g52"
       style="stroke-width:1.22894704" /><g
       id="g54"
       style="stroke-width:1.22894704" /><g
       id="g56"
       style="stroke-width:1.22894704" /><g
       id="g58"
       style="stroke-width:1.22894704" /><g
       id="g60"
       style="stroke-width:1.22894704" /></g></svg>