<?xml version="1.0" encoding="UTF-8" standalone="no"?>
<!-- Generator: Adobe Illustrator 19.0.0, SVG Export Plug-In . SVG Version: 6.00 Build 0)  -->

<svg
   xmlns:dc="http://purl.org/dc/elements/1.1/"
   xmlns:cc="http://creativecommons.org/ns#"
   xmlns:rdf="http://www.w3.org/1999/02/22-rdf-syntax-ns#"
   xmlns:svg="http://www.w3.org/2000/svg"
   xmlns="http://www.w3.org/2000/svg"
   xmlns:sodipodi="http://sodipodi.sourceforge.net/DTD/sodipodi-0.dtd"
   xmlns:inkscape="http://www.inkscape.org/namespaces/inkscape"
   version="1.1"
   id="Layer_1"
   x="0px"
   y="0px"
   viewBox="0 0 512 512"
   style="enable-background:new 0 0 512 512;"
   xml:space="preserve"
   width="512px"
   height="512px"
   sodipodi:docname="Camera.svg"
   inkscape:version="0.92.2 (5c3e80d, 2017-08-06)"><metadata
     id="metadata49"><rdf:RDF><cc:Work
         rdf:about=""><dc:format>image/svg+xml</dc:format><dc:type
           rdf:resource="http://purl.org/dc/dcmitype/StillImage" /></cc:Work></rdf:RDF></metadata><defs
     id="defs47" /><sodipodi:namedview
     pagecolor="#ffffff"
     bordercolor="#666666"
     borderopacity="1"
     objecttolerance="10"
     gridtolerance="10"
     guidetolerance="10"
     inkscape:pageopacity="0"
     inkscape:pageshadow="2"
     inkscape:window-width="2560"
     inkscape:window-height="1388"
     id="namedview45"
     showgrid="false"
     inkscape:zoom="1.2362496"
     inkscape:cx="23.028166"
     inkscape:cy="289.37482"
     inkscape:window-x="-8"
     inkscape:window-y="-8"
     inkscape:window-maximized="1"
     inkscape:current-layer="Layer_1" /><g
     transform="matrix(0.73169045,0,0,0.72455281,69.418935,71.239033)"
     id="g12"
     style="fill:#FFFFFF;fill-opacity:1;stroke:#FFFFFF;stroke-width:35.98342896;stroke-miterlimit:4;stroke-dasharray:none;stroke-opacity:1"><g
       id="g10"
       style="fill:#FFFFFF;fill-opacity:1;stroke:#FFFFFF;stroke-width:35.98342896;stroke-miterlimit:4;stroke-dasharray:none;stroke-opacity:1"><g
         id="g8"
         style="fill:#FFFFFF;fill-opacity:1;stroke:#FFFFFF;stroke-width:35.98342896;stroke-miterlimit:4;stroke-dasharray:none;stroke-opacity:1"><path
           d="m 385.458,475.004 c 1.208,-0.721 2.41,-1.45 3.605,-2.19 0.559,-0.346 1.115,-0.696 1.671,-1.046 0.979,-0.616 1.956,-1.234 2.926,-1.863 0.813,-0.526 1.617,-1.063 2.423,-1.599 0.75,-0.499 1.504,-0.993 2.249,-1.5 1.265,-0.86 2.519,-1.735 3.767,-2.617 0.306,-0.216 0.617,-0.426 0.922,-0.643 1.587,-1.131 3.158,-2.281 4.717,-3.446 0.394,-0.295 0.781,-0.598 1.174,-0.895 1.143,-0.865 2.283,-1.735 3.411,-2.619 0.588,-0.46 1.169,-0.929 1.752,-1.395 0.902,-0.719 1.801,-1.44 2.693,-2.171 0.699,-0.572 1.392,-1.151 2.084,-1.731 0.735,-0.616 1.468,-1.235 2.196,-1.859 0.803,-0.687 1.602,-1.379 2.396,-2.076 0.548,-0.482 1.093,-0.967 1.637,-1.453 0.945,-0.843 1.886,-1.689 2.818,-2.546 0.249,-0.229 0.495,-0.462 0.743,-0.692 45.215,-41.884 75.397,-99.782 81.284,-164.43 0.049,-0.531 0.097,-1.062 0.143,-1.594 0.108,-1.272 0.207,-2.546 0.296,-3.823 0.061,-0.863 0.114,-1.727 0.166,-2.592 0.063,-1.055 0.125,-2.11 0.175,-3.169 0.056,-1.182 0.096,-2.367 0.136,-3.552 0.027,-0.803 0.061,-1.604 0.08,-2.409 0.049,-2.028 0.078,-4.06 0.078,-6.097 0,-2.037 -0.029,-4.069 -0.078,-6.097 -0.019,-0.805 -0.053,-1.606 -0.08,-2.409 -0.04,-1.185 -0.08,-2.37 -0.136,-3.552 -0.05,-1.058 -0.113,-2.113 -0.175,-3.169 -0.052,-0.865 -0.105,-1.729 -0.166,-2.592 -0.089,-1.277 -0.188,-2.551 -0.296,-3.823 -0.046,-0.532 -0.094,-1.063 -0.143,-1.594 -5.887,-64.648 -36.069,-122.546 -81.284,-164.43 -0.248,-0.23 -0.494,-0.463 -0.743,-0.692 -0.932,-0.857 -1.874,-1.703 -2.818,-2.546 -0.544,-0.486 -1.088,-0.972 -1.637,-1.453 -0.794,-0.697 -1.593,-1.389 -2.396,-2.076 -0.728,-0.624 -1.461,-1.243 -2.196,-1.859 -0.693,-0.58 -1.386,-1.159 -2.084,-1.731 -0.891,-0.731 -1.791,-1.452 -2.693,-2.171 -0.584,-0.465 -1.165,-0.934 -1.752,-1.395 -1.128,-0.884 -2.267,-1.754 -3.411,-2.619 -0.392,-0.297 -0.78,-0.6 -1.174,-0.895 -1.559,-1.166 -3.13,-2.316 -4.717,-3.446 -0.305,-0.217 -0.616,-0.427 -0.922,-0.643 -1.249,-0.882 -2.502,-1.757 -3.767,-2.617 -0.745,-0.507 -1.498,-1.001 -2.249,-1.5 -0.806,-0.535 -1.611,-1.072 -2.423,-1.599 -0.97,-0.629 -1.947,-1.247 -2.926,-1.863 -0.556,-0.35 -1.112,-0.7 -1.671,-1.046 -1.195,-0.74 -2.397,-1.469 -3.605,-2.19 -0.262,-0.156 -0.525,-0.312 -0.788,-0.467 C 346.58,11.981 302.236,-1 255,-1 114.2,-1 -1,114.2 -1,255 c 0,140.8 115.2,256 256,256 17.436,0 34.478,-1.772 50.959,-5.135 0.082,0.002 0.158,0.015 0.241,0.015 0.728,0 1.456,-0.005 2.183,-0.534 27.263,-5.842 52.949,-16.059 76.287,-29.875 0.263,-0.155 0.525,-0.311 0.788,-0.467 z m -5.193,-16.798 c -1.249,0.776 -2.508,1.537 -3.773,2.29 -0.265,0.158 -0.531,0.316 -0.797,0.472 -1.181,0.697 -2.369,1.385 -3.564,2.063 -0.313,0.178 -0.628,0.352 -0.943,0.529 -1.207,0.677 -2.418,1.349 -3.638,2.006 -0.152,0.082 -0.306,0.161 -0.459,0.243 -17.38,9.307 -36.073,16.532 -55.773,21.298 -28.709,-58.216 -45.49,-134.321 -47.564,-215.077 -0.026,-1.047 -0.046,-2.097 -0.067,-3.146 -0.035,-1.681 -0.07,-3.362 -0.093,-5.046 -0.037,-2.939 -0.063,-5.883 -0.063,-8.837 0,-2.955 0.025,-5.898 0.063,-8.837 0.022,-1.687 0.058,-3.37 0.093,-5.052 0.021,-1.046 0.041,-2.093 0.067,-3.137 2.074,-80.757 18.854,-156.863 47.564,-215.08 19.704,4.767 38.4,11.994 55.784,21.304 0.148,0.079 0.297,0.156 0.445,0.235 1.223,0.658 2.437,1.332 3.647,2.011 0.311,0.174 0.623,0.347 0.933,0.523 1.197,0.679 2.386,1.368 3.57,2.066 0.265,0.156 0.529,0.313 0.793,0.47 1.264,0.753 2.523,1.514 3.772,2.289 0.059,0.037 0.118,0.074 0.177,0.111 62.78,39.054 105.783,106.319 112.553,182.096 0.026,0.29 0.053,0.58 0.078,0.871 0.108,1.265 0.201,2.533 0.289,3.802 0.049,0.719 0.095,1.439 0.138,2.16 0.061,1.018 0.118,2.037 0.166,3.057 0.049,1.063 0.087,2.128 0.122,3.194 0.026,0.76 0.056,1.52 0.075,2.281 0.044,1.874 0.072,3.752 0.072,5.636 0,1.884 -0.028,3.762 -0.072,5.636 -0.018,0.762 -0.049,1.521 -0.075,2.282 -0.035,1.066 -0.073,2.131 -0.122,3.194 -0.048,1.021 -0.105,2.039 -0.166,3.057 -0.043,0.721 -0.089,1.441 -0.138,2.16 -0.088,1.269 -0.181,2.537 -0.289,3.802 -0.025,0.291 -0.052,0.58 -0.078,0.871 -6.77,75.779 -49.775,143.045 -112.557,182.099 -0.056,0.033 -0.113,0.069 -0.17,0.104 z M 246.467,255 c 0,49.669 4.836,96.92 15.252,140.992 0.31,1.365 0.636,2.717 0.955,4.075 -2.558,0 -5.116,0 -7.674,0 -80.213,0 -145.067,-64.853 -145.067,-145.067 0,-80.214 64.854,-145.067 145.067,-145.067 2.56,0 5.12,0 7.68,0 C 251.587,156.013 246.467,203.8 246.467,255 Z m -230.4,0 C 16.067,123.587 123.587,16.067 255,16.067 c 13.394,0 26.533,1.135 39.342,3.28 -10.813,22.511 -19.917,47.281 -27.183,73.76 C 262.794,92.871 258.893,92.866 255,92.866 165.4,92.867 92.867,165.4 92.867,255 c 0,89.6 72.533,162.133 162.133,162.133 3.802,0 7.608,-0.005 11.85,-0.445 7.117,26.518 16,51.402 26.497,74.13 -12.494,2.038 -25.3,3.114 -38.347,3.114 C 123.587,493.933 16.067,386.413 16.067,255 Z"
           id="path4"
           style="fill:#FFFFFF;fill-opacity:1;stroke:#FFFFFF;stroke-width:35.98342896;stroke-miterlimit:4;stroke-dasharray:none;stroke-opacity:1"
           inkscape:connector-curvature="0" /></g></g></g><g
     id="g14" /><g
     id="g16" /><g
     id="g18" /><g
     id="g20" /><g
     id="g22" /><g
     id="g24" /><g
     id="g26" /><g
     id="g28" /><g
     id="g30" /><g
     id="g32" /><g
     id="g34" /><g
     id="g36" /><g
     id="g38" /><g
     id="g40" /><g
     id="g42" /></svg>