<?xml version="1.0" encoding="UTF-8" standalone="no"?>
<!-- Generator: Adobe Illustrator 18.0.0, SVG Export Plug-In . SVG Version: 6.00 Build 0)  -->

<svg
   xmlns:dc="http://purl.org/dc/elements/1.1/"
   xmlns:cc="http://creativecommons.org/ns#"
   xmlns:rdf="http://www.w3.org/1999/02/22-rdf-syntax-ns#"
   xmlns:svg="http://www.w3.org/2000/svg"
   xmlns="http://www.w3.org/2000/svg"
   xmlns:sodipodi="http://sodipodi.sourceforge.net/DTD/sodipodi-0.dtd"
   xmlns:inkscape="http://www.inkscape.org/namespaces/inkscape"
   version="1.1"
   id="Capa_1"
   x="0px"
   y="0px"
   viewBox="0 0 489.676 489.676"
   style="enable-background:new 0 0 489.676 489.676;"
   xml:space="preserve"
   width="512px"
   height="512px"
   sodipodi:docname="Checkerboard.svg"
   inkscape:version="0.92.2 (5c3e80d, 2017-08-06)"><metadata
     id="metadata55"><rdf:RDF><cc:Work
         rdf:about=""><dc:format>image/svg+xml</dc:format><dc:type
           rdf:resource="http://purl.org/dc/dcmitype/StillImage" /></cc:Work></rdf:RDF></metadata><defs
     id="defs53" /><sodipodi:namedview
     pagecolor="#ffffff"
     bordercolor="#666666"
     borderopacity="1"
     objecttolerance="10"
     gridtolerance="10"
     guidetolerance="10"
     inkscape:pageopacity="0"
     inkscape:pageshadow="2"
     inkscape:window-width="2560"
     inkscape:window-height="1388"
     id="namedview51"
     showgrid="false"
     inkscape:zoom="0.4609375"
     inkscape:cx="-520.67797"
     inkscape:cy="256"
     inkscape:window-x="-8"
     inkscape:window-y="-8"
     inkscape:window-maximized="1"
     inkscape:current-layer="Capa_1" /><g
     id="g18"
     transform="matrix(0.78125,0,0,0.78125638,53.558313,53.55675)"
     style="stroke-width:1.27999473"><path
       d="m 17.346,125.063 h 90.378 c 9.579,0 17.342,-7.759 17.342,-17.34 V 17.344 c 0,-9.578 -7.763,-17.342 -17.342,-17.342 H 17.346 C 7.762,0.002 0,7.766 0,17.344 v 90.379 c 0,9.581 7.762,17.34 17.346,17.34 z"
       id="path2"
       inkscape:connector-curvature="0"
       style="fill:#D9D9D9;stroke-width:1.32197285" /><path
       d="m 260.427,125.063 h 90.378 c 9.566,0 17.341,-7.759 17.341,-17.34 V 17.344 c 0,-9.578 -7.775,-17.342 -17.341,-17.342 h -90.378 c -9.597,0 -17.341,7.764 -17.341,17.342 v 90.379 c -0.001,9.581 7.744,17.34 17.341,17.34 z"
       id="path4"
       inkscape:connector-curvature="0"
       style="fill:#D9D9D9;stroke-width:1.32197285" /><path
       d="m 121.525,229.263 c 0,9.583 7.78,17.345 17.346,17.345 h 90.379 c 9.597,0 17.341,-7.762 17.341,-17.345 v -90.378 c 0,-9.58 -7.744,-17.344 -17.341,-17.344 h -90.379 c -9.565,0 -17.346,7.764 -17.346,17.344 z"
       id="path6"
       inkscape:connector-curvature="0"
       style="fill:#D9D9D9;stroke-width:1.32197285" /><path
       d="m 472.33,121.542 h -90.378 c -9.579,0 -17.342,7.764 -17.342,17.344 v 90.378 c 0,9.583 7.763,17.345 17.342,17.345 h 90.378 c 9.584,0 17.346,-7.762 17.346,-17.345 v -90.378 c 0,-9.581 -7.762,-17.344 -17.346,-17.344 z"
       id="path8"
       inkscape:connector-curvature="0"
       style="fill:#D9D9D9;stroke-width:1.32197285" /><path
       d="m 125.066,260.413 c 0,-9.582 -7.763,-17.344 -17.342,-17.344 H 17.346 C 7.762,243.069 0,250.831 0,260.413 v 90.378 c 0,9.58 7.762,17.343 17.346,17.343 h 90.378 c 9.579,0 17.342,-7.763 17.342,-17.343 z"
       id="path10"
       inkscape:connector-curvature="0"
       style="fill:#D9D9D9;stroke-width:1.32197285" /><path
       d="m 368.146,260.413 c 0,-9.582 -7.775,-17.344 -17.341,-17.344 h -90.378 c -9.597,0 -17.341,7.762 -17.341,17.344 v 90.378 c 0,9.58 7.745,17.343 17.341,17.343 h 90.378 c 9.566,0 17.341,-7.763 17.341,-17.343 z"
       id="path12"
       inkscape:connector-curvature="0"
       style="fill:#D9D9D9;stroke-width:1.32197285" /><path
       d="M 229.249,364.609 H 138.87 c -9.565,0 -17.346,7.763 -17.346,17.348 v 90.378 c 0,9.576 7.78,17.339 17.346,17.339 h 90.379 c 9.597,0 17.341,-7.763 17.341,-17.339 v -90.378 c 0,-9.585 -7.743,-17.348 -17.341,-17.348 z"
       id="path14"
       inkscape:connector-curvature="0"
       style="fill:#D9D9D9;stroke-width:1.32197285" /><path
       d="m 472.33,364.609 h -90.378 c -9.579,0 -17.342,7.763 -17.342,17.348 v 90.378 c 0,9.576 7.763,17.339 17.342,17.339 h 90.378 c 9.584,0 17.346,-7.763 17.346,-17.339 v -90.378 c 0,-9.585 -7.762,-17.348 -17.346,-17.348 z"
       id="path16"
       inkscape:connector-curvature="0"
       style="fill:#D9D9D9;stroke-width:1.32197285" /></g><g
     id="g20" /><g
     id="g22" /><g
     id="g24" /><g
     id="g26" /><g
     id="g28" /><g
     id="g30" /><g
     id="g32" /><g
     id="g34" /><g
     id="g36" /><g
     id="g38" /><g
     id="g40" /><g
     id="g42" /><g
     id="g44" /><g
     id="g46" /><g
     id="g48" /></svg>