<?xml version="1.0" encoding="UTF-8" standalone="no"?>
<!-- Generator: Adobe Illustrator 18.0.0, SVG Export Plug-In . SVG Version: 6.00 Build 0)  -->

<svg
   xmlns:dc="http://purl.org/dc/elements/1.1/"
   xmlns:cc="http://creativecommons.org/ns#"
   xmlns:rdf="http://www.w3.org/1999/02/22-rdf-syntax-ns#"
   xmlns:svg="http://www.w3.org/2000/svg"
   xmlns="http://www.w3.org/2000/svg"
   xmlns:sodipodi="http://sodipodi.sourceforge.net/DTD/sodipodi-0.dtd"
   xmlns:inkscape="http://www.inkscape.org/namespaces/inkscape"
   version="1.1"
   id="Capa_1"
   x="0px"
   y="0px"
   viewBox="0 0 380.267 380.267"
   style="enable-background:new 0 0 380.267 380.267;"
   xml:space="preserve"
   width="512px"
   height="512px"
   sodipodi:docname="Clear.svg"
   inkscape:version="0.92.2 (5c3e80d, 2017-08-06)"><metadata
     id="metadata39"><rdf:RDF><cc:Work
         rdf:about=""><dc:format>image/svg+xml</dc:format><dc:type
           rdf:resource="http://purl.org/dc/dcmitype/StillImage" /></cc:Work></rdf:RDF></metadata><defs
     id="defs37" /><sodipodi:namedview
     pagecolor="#ffffff"
     bordercolor="#666666"
     borderopacity="1"
     objecttolerance="10"
     gridtolerance="10"
     guidetolerance="10"
     inkscape:pageopacity="0"
     inkscape:pageshadow="2"
     inkscape:window-width="2560"
     inkscape:window-height="1388"
     id="namedview35"
     showgrid="false"
     inkscape:zoom="0.4609375"
     inkscape:cx="-520.67797"
     inkscape:cy="256"
     inkscape:window-x="-8"
     inkscape:window-y="-8"
     inkscape:window-maximized="1"
     inkscape:current-layer="Capa_1" /><path
     d="m 285.10083,56.920649 h -45.7595 C 232.2967,47.422187 220.67522,41.591703 207.93355,41.591703 h -35.60178 c -12.74083,0 -24.36232,5.829703 -31.40777,15.328946 H 95.164497 c -20.939916,0 -37.975904,15.921918 -37.975904,35.493058 v 14.516453 c 0,7.9969 6.961858,14.50317 15.518724,14.50317 h 11.04133 l 10.00057,189.00205 c 1.00817,15.83599 15.112453,28.23992 32.108303,28.23992 h 128.55195 c 16.99669,0 31.10098,-12.42112 32.11332,-28.3157 l 9.99639,-188.92706 h 11.0405 c 8.55687,0 15.51873,-6.50627 15.51873,-14.50317 V 92.413707 C 323.07757,72.842567 306.04158,56.920649 285.10083,56.920649 Z M 170.32296,270.91809 c 0,7.41565 -6.45526,13.44769 -14.39018,13.44769 -7.93492,0 -14.38934,-6.03282 -14.38934,-13.44769 V 150.68575 c 0,-7.41487 6.45526,-13.4477 14.38934,-13.4477 7.93492,0 14.39018,6.03361 14.39018,13.4477 z m 68.39976,0 c 0,7.41565 -6.45527,13.44769 -14.39018,13.44769 -7.93408,0 -14.38935,-6.03282 -14.38935,-13.44769 V 150.68575 c 0,-7.41487 6.4561,-13.4477 14.38935,-13.4477 7.93575,0 14.39018,6.03361 14.39018,13.4477 z M 299.6164,99.508257 H 80.649757 v -7.09455 c 0,-7.48126 6.51127,-13.568 14.51474,-13.568 h 52.653643 c 4.74907,0 9.02919,-2.67579 10.84237,-6.77736 2.29555,-5.194547 7.6624,-8.551586 13.67209,-8.551586 h 35.60178 c 6.00971,0 11.37572,3.356259 13.67126,8.550016 1.81236,4.10236 6.0933,6.77893 10.84237,6.77893 h 52.65366 c 8.00345,0 14.51557,6.08674 14.51557,13.568 v 7.09455 z"
     id="path2"
     inkscape:connector-curvature="0"
     style="fill:#88b8e3;stroke-width:0.99999994" /><g
     id="g4" /><g
     id="g6" /><g
     id="g8" /><g
     id="g10" /><g
     id="g12" /><g
     id="g14" /><g
     id="g16" /><g
     id="g18" /><g
     id="g20" /><g
     id="g22" /><g
     id="g24" /><g
     id="g26" /><g
     id="g28" /><g
     id="g30" /><g
     id="g32" /></svg>