<?xml version="1.0" encoding="UTF-8" standalone="no"?>
<!-- Generator: Adobe Illustrator 18.1.1, SVG Export Plug-In . SVG Version: 6.00 Build 0)  -->

<svg
   xmlns:dc="http://purl.org/dc/elements/1.1/"
   xmlns:cc="http://creativecommons.org/ns#"
   xmlns:rdf="http://www.w3.org/1999/02/22-rdf-syntax-ns#"
   xmlns:svg="http://www.w3.org/2000/svg"
   xmlns="http://www.w3.org/2000/svg"
   xmlns:sodipodi="http://sodipodi.sourceforge.net/DTD/sodipodi-0.dtd"
   xmlns:inkscape="http://www.inkscape.org/namespaces/inkscape"
   version="1.1"
   id="Capa_1"
   x="0px"
   y="0px"
   viewBox="0 0 212.982 212.982"
   style="enable-background:new 0 0 212.982 212.982;"
   xml:space="preserve"
   width="512px"
   height="512px"
   sodipodi:docname="Close.svg"
   inkscape:version="0.92.2 (5c3e80d, 2017-08-06)"><metadata
     id="metadata40"><rdf:RDF><cc:Work
         rdf:about=""><dc:format>image/svg+xml</dc:format><dc:type
           rdf:resource="http://purl.org/dc/dcmitype/StillImage" /></cc:Work></rdf:RDF></metadata><defs
     id="defs38" /><sodipodi:namedview
     pagecolor="#ffffff"
     bordercolor="#666666"
     borderopacity="1"
     objecttolerance="10"
     gridtolerance="10"
     guidetolerance="10"
     inkscape:pageopacity="0"
     inkscape:pageshadow="2"
     inkscape:window-width="2560"
     inkscape:window-height="1388"
     id="namedview36"
     showgrid="false"
     inkscape:zoom="0.4609375"
     inkscape:cx="-520.67797"
     inkscape:cy="256"
     inkscape:window-x="-8"
     inkscape:window-y="-8"
     inkscape:window-maximized="1"
     inkscape:current-layer="Capa_1" /><g
     id="Close"
     transform="matrix(0.78124908,0,0,0.78125,23.294711,23.295297)"
     style="stroke-width:1.28000081"><path
       style="clip-rule:evenodd;fill:#8E8E8E;fill-rule:evenodd;stroke-width:1.32197988"
       d="M 131.804,106.491 207.74,30.555 c 6.99,-6.99 6.99,-18.323 0,-25.312 -6.99,-6.99 -18.322,-6.99 -25.312,0 L 106.491,81.18 30.554,5.242 c -6.99,-6.99 -18.322,-6.99 -25.312,0 -6.989,6.99 -6.989,18.323 0,25.312 L 81.179,106.49 5.242,182.427 c -6.989,6.99 -6.989,18.323 0,25.312 6.99,6.99 18.322,6.99 25.312,0 l 75.937,-75.937 75.937,75.937 c 6.989,6.99 18.322,6.99 25.312,0 6.99,-6.99 6.99,-18.322 0,-25.312 z"
       id="path2"
       inkscape:connector-curvature="0" /></g><g
     id="g5" /><g
     id="g7" /><g
     id="g9" /><g
     id="g11" /><g
     id="g13" /><g
     id="g15" /><g
     id="g17" /><g
     id="g19" /><g
     id="g21" /><g
     id="g23" /><g
     id="g25" /><g
     id="g27" /><g
     id="g29" /><g
     id="g31" /><g
     id="g33" /></svg>