<?xml version="1.0" encoding="UTF-8" standalone="no"?>
<!-- Generator: Adobe Illustrator 19.1.0, SVG Export Plug-In . SVG Version: 6.00 Build 0)  -->

<svg
   xmlns:dc="http://purl.org/dc/elements/1.1/"
   xmlns:cc="http://creativecommons.org/ns#"
   xmlns:rdf="http://www.w3.org/1999/02/22-rdf-syntax-ns#"
   xmlns:svg="http://www.w3.org/2000/svg"
   xmlns="http://www.w3.org/2000/svg"
   xmlns:sodipodi="http://sodipodi.sourceforge.net/DTD/sodipodi-0.dtd"
   xmlns:inkscape="http://www.inkscape.org/namespaces/inkscape"
   version="1.1"
   id="Capa_1"
   x="0px"
   y="0px"
   viewBox="0 0 440.125 440.125"
   style="enable-background:new 0 0 440.125 440.125;"
   xml:space="preserve"
   width="512px"
   height="512px"
   sodipodi:docname="Copy.svg"
   inkscape:version="0.92.2 (5c3e80d, 2017-08-06)"><metadata
     id="metadata75"><rdf:RDF><cc:Work
         rdf:about=""><dc:format>image/svg+xml</dc:format><dc:type
           rdf:resource="http://purl.org/dc/dcmitype/StillImage" /></cc:Work></rdf:RDF></metadata><defs
     id="defs73" /><sodipodi:namedview
     pagecolor="#ffffff"
     bordercolor="#666666"
     borderopacity="1"
     objecttolerance="10"
     gridtolerance="10"
     guidetolerance="10"
     inkscape:pageopacity="0"
     inkscape:pageshadow="2"
     inkscape:window-width="2560"
     inkscape:window-height="1388"
     id="namedview71"
     showgrid="false"
     inkscape:zoom="0.4609375"
     inkscape:cx="-520.67797"
     inkscape:cy="256"
     inkscape:window-x="-8"
     inkscape:window-y="-8"
     inkscape:window-maximized="1"
     inkscape:current-layer="Capa_1" /><g
     id="g38"
     transform="matrix(0.83431955,0,0,0.78217428,36.459968,47.935339)"
     style="stroke-width:1.23789001"><g
       id="g6"
       style="stroke-width:1.23789001"><path
         d="M 313.938,187.702 212.563,86.327 c -3.079,-3.958 -7.836,-6.37 -12.85,-6.301 -0.746,0.023 -1.49,0.099 -2.225,0.099 H 55.963 c -8.836,0 -15.999,7.415 -16,16.251 v 328 c 10e-4,8.836 7.164,15.749 16,15.749 h 248 c 8.836,0 15.999,-6.913 16,-15.749 v -221.4 c 0.957,-5.812 -1.358,-11.68 -6.025,-15.274 z m -97.975,-52.7 49.375,49.124 h -49.375 z m 72,273.124 h -216 v -296 h 112 v 85.676 c -0.843,5.145 0.873,10.379 4.6,14.025 0.041,0.042 0.083,0.084 0.125,0.125 0.074,0.067 0.149,0.008 0.225,0.074 3.639,3.482 8.706,5.099 13.675,4.099 h 85.375 z"
         id="path2"
         inkscape:connector-curvature="0"
         style="fill:#33aa77;stroke-width:1.23789001" /><path
         d="M 393.932,107.689 292.557,6.314 c -3.02,-3.891 -7.919,-6.376 -12.844,-6.313 -0.744,0.032 -1.486,0.124 -2.219,0.124 H 135.963 c -4.189,0 -8.351,1.851 -11.313,4.812 -2.962,2.962 -4.686,7.25 -4.687,11.439 v 43.749 h 32 v -28 h 112 V 97.72 l 38.656,38.405 h 65.344 v 192 h -28 v 32 h 44 c 4.189,0 8.351,-1.599 11.313,-4.561 2.962,-2.962 4.686,-6.999 4.687,-11.188 V 122.971 c 0.934,-5.675 -1.473,-11.775 -6.031,-15.282 z m -97.969,-3.563 V 55.002 l 49.375,49.124 z"
         id="path4"
         inkscape:connector-curvature="0"
         style="fill:#33aa77;stroke-width:1.23789001" /></g><g
       id="g8"
       style="stroke-width:1.23789001" /><g
       id="g10"
       style="stroke-width:1.23789001" /><g
       id="g12"
       style="stroke-width:1.23789001" /><g
       id="g14"
       style="stroke-width:1.23789001" /><g
       id="g16"
       style="stroke-width:1.23789001" /><g
       id="g18"
       style="stroke-width:1.23789001" /><g
       id="g20"
       style="stroke-width:1.23789001" /><g
       id="g22"
       style="stroke-width:1.23789001" /><g
       id="g24"
       style="stroke-width:1.23789001" /><g
       id="g26"
       style="stroke-width:1.23789001" /><g
       id="g28"
       style="stroke-width:1.23789001" /><g
       id="g30"
       style="stroke-width:1.23789001" /><g
       id="g32"
       style="stroke-width:1.23789001" /><g
       id="g34"
       style="stroke-width:1.23789001" /><g
       id="g36"
       style="stroke-width:1.23789001" /></g><g
     id="g40" /><g
     id="g42" /><g
     id="g44" /><g
     id="g46" /><g
     id="g48" /><g
     id="g50" /><g
     id="g52" /><g
     id="g54" /><g
     id="g56" /><g
     id="g58" /><g
     id="g60" /><g
     id="g62" /><g
     id="g64" /><g
     id="g66" /><g
     id="g68" /></svg>