<?xml version="1.0" encoding="UTF-8" standalone="no"?>
<!-- Generator: Adobe Illustrator 19.0.0, SVG Export Plug-In . SVG Version: 6.00 Build 0)  -->

<svg
   xmlns:dc="http://purl.org/dc/elements/1.1/"
   xmlns:cc="http://creativecommons.org/ns#"
   xmlns:rdf="http://www.w3.org/1999/02/22-rdf-syntax-ns#"
   xmlns:svg="http://www.w3.org/2000/svg"
   xmlns="http://www.w3.org/2000/svg"
   xmlns:sodipodi="http://sodipodi.sourceforge.net/DTD/sodipodi-0.dtd"
   xmlns:inkscape="http://www.inkscape.org/namespaces/inkscape"
   version="1.1"
   id="Capa_1"
   x="0px"
   y="0px"
   viewBox="0 0 512 511"
   xml:space="preserve"
   sodipodi:docname="Detailed.svg"
   width="512"
   height="511"
   inkscape:version="0.92.2 (5c3e80d, 2017-08-06)"><metadata
     id="metadata997"><rdf:RDF><cc:Work
         rdf:about=""><dc:format>image/svg+xml</dc:format><dc:type
           rdf:resource="http://purl.org/dc/dcmitype/StillImage" /><dc:title /></cc:Work></rdf:RDF></metadata><defs
     id="defs995" /><sodipodi:namedview
     pagecolor="#ffffff"
     bordercolor="#666666"
     borderopacity="1"
     objecttolerance="10"
     gridtolerance="10"
     guidetolerance="10"
     inkscape:pageopacity="0"
     inkscape:pageshadow="2"
     inkscape:window-width="1680"
     inkscape:window-height="998"
     id="namedview993"
     showgrid="false"
     inkscape:zoom="1.2098155"
     inkscape:cx="201.85063"
     inkscape:cy="190.63226"
     inkscape:window-x="-8"
     inkscape:window-y="-8"
     inkscape:window-maximized="1"
     inkscape:current-layer="Capa_1" /><g
     id="g948"
     transform="matrix(0.79873825,0,0,0.79873825,102.64226,51.023008)"
     style="fill:#33aa77;fill-opacity:1;stroke-width:1.10240686"><g
       id="g946"
       style="fill:#33aa77;fill-opacity:1;stroke-width:1.10240686"><path
         d="M 281.6,0 H 25.6 C 10.24,0 0,10.24 0,25.6 V 486.4 C 0,501.76 10.24,512 25.6,512 h 332.8 c 15.36,0 25.6,-10.24 25.6,-25.6 v -384 z M 76.8,76.8 H 256 c 15.36,0 25.6,10.24 25.6,25.6 0,15.36 -10.24,25.6 -25.6,25.6 H 76.8 C 61.44,128 51.2,117.76 51.2,102.4 51.2,87.04 61.44,76.8 76.8,76.8 Z M 307.2,435.2 H 76.8 c -15.36,0 -25.6,-10.24 -25.6,-25.6 0,-15.36 10.24,-25.6 25.6,-25.6 h 230.4 c 15.36,0 25.6,10.24 25.6,25.6 0,15.36 -12.8,25.6 -25.6,25.6 z m 0,-102.4 H 76.8 c -15.36,0 -25.6,-10.24 -25.6,-25.6 0,-15.36 10.24,-25.6 25.6,-25.6 h 230.4 c 15.36,0 25.6,10.24 25.6,25.6 0,15.36 -12.8,25.6 -25.6,25.6 z m 0,-102.4 H 76.8 c -15.36,0 -25.6,-10.24 -25.6,-25.6 0,-15.36 10.24,-25.6 25.6,-25.6 h 230.4 c 15.36,0 25.6,10.24 25.6,25.6 0,15.36 -12.8,25.6 -25.6,25.6 z"
         id="path944"
         inkscape:connector-curvature="0"
         style="fill:#33aa77;fill-opacity:1;stroke-width:1.10240686" /></g></g><g
     id="g962"
     transform="translate(0,-1)" /><g
     id="g964"
     transform="translate(0,-1)" /><g
     id="g966"
     transform="translate(0,-1)" /><g
     id="g968"
     transform="translate(0,-1)" /><g
     id="g970"
     transform="translate(0,-1)" /><g
     id="g972"
     transform="translate(0,-1)" /><g
     id="g974"
     transform="translate(0,-1)" /><g
     id="g976"
     transform="translate(0,-1)" /><g
     id="g978"
     transform="translate(0,-1)" /><g
     id="g980"
     transform="translate(0,-1)" /><g
     id="g982"
     transform="translate(0,-1)" /><g
     id="g984"
     transform="translate(0,-1)" /><g
     id="g986"
     transform="translate(0,-1)" /><g
     id="g988"
     transform="translate(0,-1)" /><g
     id="g990"
     transform="translate(0,-1)" /></svg>