<?xml version="1.0" encoding="UTF-8" standalone="no"?>
<!-- Generator: Adobe Illustrator 21.0.0, SVG Export Plug-In . SVG Version: 6.00 Build 0)  -->

<svg
   xmlns:dc="http://purl.org/dc/elements/1.1/"
   xmlns:cc="http://creativecommons.org/ns#"
   xmlns:rdf="http://www.w3.org/1999/02/22-rdf-syntax-ns#"
   xmlns:svg="http://www.w3.org/2000/svg"
   xmlns="http://www.w3.org/2000/svg"
   xmlns:sodipodi="http://sodipodi.sourceforge.net/DTD/sodipodi-0.dtd"
   xmlns:inkscape="http://www.inkscape.org/namespaces/inkscape"
   version="1.1"
   id="Capa_1"
   x="0px"
   y="0px"
   viewBox="0 0 512.001 512.001"
   style="enable-background:new 0 0 512.001 512.001;"
   xml:space="preserve"
   width="512px"
   height="512px"
   sodipodi:docname="Diagnostics.svg"
   inkscape:version="0.92.2 (5c3e80d, 2017-08-06)"><metadata
     id="metadata43"><rdf:RDF><cc:Work
         rdf:about=""><dc:format>image/svg+xml</dc:format><dc:type
           rdf:resource="http://purl.org/dc/dcmitype/StillImage" /></cc:Work></rdf:RDF></metadata><defs
     id="defs41" /><sodipodi:namedview
     pagecolor="#ffffff"
     bordercolor="#666666"
     borderopacity="1"
     objecttolerance="10"
     gridtolerance="10"
     guidetolerance="10"
     inkscape:pageopacity="0"
     inkscape:pageshadow="2"
     inkscape:window-width="2560"
     inkscape:window-height="1388"
     id="namedview39"
     showgrid="false"
     inkscape:zoom="0.65186406"
     inkscape:cx="-709.20192"
     inkscape:cy="274.9746"
     inkscape:window-x="-8"
     inkscape:window-y="-8"
     inkscape:window-maximized="1"
     inkscape:current-layer="Capa_1" /><g
     id="g6"
     transform="matrix(0.78284072,0,0,0.78288792,55.588574,55.580801)"
     style="fill:#FFFFFF;fill-opacity:1;stroke:#FFFFFF;stroke-width:7.66417837;stroke-miterlimit:4;stroke-dasharray:none;stroke-opacity:1"><g
       id="g4"
       style="fill:#FFFFFF;fill-opacity:1;stroke:#FFFFFF;stroke-width:7.66417837;stroke-miterlimit:4;stroke-dasharray:none;stroke-opacity:1"><path
         d="m 461.337,231.335 c -27.936,0 -50.663,22.728 -50.663,50.664 0,22.716 15.028,41.987 35.664,48.396 v 118.499 c 0,18.248 -14.846,33.093 -33.093,33.093 -18.247,0 -33.093,-14.845 -33.093,-33.093 v -49.831 c 0,-34.789 -28.303,-63.091 -63.092,-63.091 -34.789,0 -63.091,28.302 -63.091,63.091 v 49.831 c 0,18.248 -14.845,33.093 -33.093,33.093 -18.248,0 -33.093,-14.845 -33.093,-33.093 v -105.47 c 48.78,-5.721 90.424,-39.033 106.258,-86.494 L 342.29,112.299 C 348.723,93.015 345.596,72.495 333.712,56.002 321.827,39.509 303.353,30.051 283.024,30.051 H 247.05 V 0.016 H 217.052 V 90.083 H 247.05 V 60.049 h 35.973 c 10.567,0 20.173,4.917 26.35,13.491 6.179,8.573 7.805,19.241 4.46,29.265 l -48.249,144.631 c -13.342,39.998 -50.636,66.87 -92.799,66.87 -42.163,0 -79.457,-26.873 -92.8,-66.87 L 31.735,102.806 C 28.391,92.781 30.016,82.114 36.194,73.54 42.373,64.966 51.977,60.049 62.545,60.049 h 35.976 v 30.034 h 29.998 V 0.016 H 98.521 V 30.05 H 62.545 C 42.216,30.05 23.74,39.509 11.856,56.002 -0.028,72.495 -3.155,93.014 3.278,112.299 L 51.527,256.93 c 15.833,47.461 57.478,80.774 106.258,86.494 v 105.47 c 0,34.789 28.302,63.091 63.091,63.091 34.789,0 63.091,-28.302 63.091,-63.091 v -49.831 c 0,-18.248 14.846,-33.093 33.093,-33.093 18.248,0 33.094,14.845 33.094,33.093 v 49.831 c 0,34.789 28.302,63.091 63.091,63.091 34.789,0 63.091,-28.302 63.091,-63.091 V 330.395 C 496.971,323.986 512,304.716 512,281.999 c 10e-4,-27.937 -22.727,-50.664 -50.663,-50.664 z"
         id="path2"
         inkscape:connector-curvature="0"
         style="fill:#FFFFFF;fill-opacity:1;stroke:#FFFFFF;stroke-width:7.66417837;stroke-miterlimit:4;stroke-dasharray:none;stroke-opacity:1" /></g></g><g
     id="g8" /><g
     id="g10" /><g
     id="g12" /><g
     id="g14" /><g
     id="g16" /><g
     id="g18" /><g
     id="g20" /><g
     id="g22" /><g
     id="g24" /><g
     id="g26" /><g
     id="g28" /><g
     id="g30" /><g
     id="g32" /><g
     id="g34" /><g
     id="g36" /></svg>