<?xml version="1.0" encoding="UTF-8" standalone="no"?>
<!-- Generator: Adobe Illustrator 19.0.0, SVG Export Plug-In . SVG Version: 6.00 Build 0)  -->

<svg
   xmlns:dc="http://purl.org/dc/elements/1.1/"
   xmlns:cc="http://creativecommons.org/ns#"
   xmlns:rdf="http://www.w3.org/1999/02/22-rdf-syntax-ns#"
   xmlns:svg="http://www.w3.org/2000/svg"
   xmlns="http://www.w3.org/2000/svg"
   xmlns:sodipodi="http://sodipodi.sourceforge.net/DTD/sodipodi-0.dtd"
   xmlns:inkscape="http://www.inkscape.org/namespaces/inkscape"
   version="1.1"
   id="Capa_1"
   x="0px"
   y="0px"
   viewBox="0 0 486.463 486.463"
   style="enable-background:new 0 0 486.463 486.463;"
   xml:space="preserve"
   width="512px"
   height="512px"
   sodipodi:docname="Error.svg"
   inkscape:version="0.92.2 (5c3e80d, 2017-08-06)"><metadata
     id="metadata47"><rdf:RDF><cc:Work
         rdf:about=""><dc:format>image/svg+xml</dc:format><dc:type
           rdf:resource="http://purl.org/dc/dcmitype/StillImage" /><dc:title></dc:title></cc:Work></rdf:RDF></metadata><defs
     id="defs45" /><sodipodi:namedview
     pagecolor="#ffffff"
     bordercolor="#666666"
     borderopacity="1"
     objecttolerance="10"
     gridtolerance="10"
     guidetolerance="10"
     inkscape:pageopacity="0"
     inkscape:pageshadow="2"
     inkscape:window-width="1920"
     inkscape:window-height="1028"
     id="namedview43"
     showgrid="false"
     inkscape:zoom="0.4609375"
     inkscape:cx="-398.18829"
     inkscape:cy="82.440678"
     inkscape:window-x="-8"
     inkscape:window-y="-8"
     inkscape:window-maximized="1"
     inkscape:current-layer="Capa_1" /><path
     d="m 244.04576,204.50772 c -38.37437,0 -70.54111,31.52225 -70.54111,69.12775 0,37.60556 32.16674,69.12781 70.54111,69.12781 36.96354,0 70.54115,-31.52225 68.84813,-67.46875 1.69302,-39.54108 -30.19157,-70.78681 -68.84813,-70.78681 z"
     id="path2"
     inkscape:connector-curvature="0"
     style="fill:#fc2626;fill-opacity:1;stroke-width:0.99999988" /><path
     d="m 424.13669,379.96646 c 12.26561,-20.74766 12.34374,-45.47643 0.15625,-66.14754 L 301.94925,106.18916 c -12.10937,-20.900788 -33.98436,-33.303451 -58.5156,-33.303451 -24.53123,0 -46.40622,12.479223 -58.51559,33.226891 L 62.418121,313.97204 c -12.187494,20.90079 -12.109369,45.78267 0.234374,66.53034 12.187494,20.51798 33.984358,32.84409 58.359345,32.84409 h 244.37488 c 24.45311,0 46.40622,-12.47922 58.74997,-33.38001 z M 397.5742,364.96077 c -6.79687,11.48395 -18.82812,18.29776 -32.26561,18.29776 H 120.93372 c -13.28125,0 -25.234366,-6.66069 -31.874988,-17.91496 -6.718747,-11.40739 -6.796872,-25.03501 -0.07813,-36.51895 L 211.48054,121.04173 c 6.64063,-11.40739 18.51562,-18.14464 31.95311,-18.14464 13.35937,0 25.31249,6.81381 31.95311,18.2212 l 122.42181,207.78289 c 6.5625,11.1777 6.48438,24.6522 -0.23437,36.05959 z"
     id="path4"
     inkscape:connector-curvature="0"
     style="fill:#ffffff;fill-opacity:1;stroke-width:0.99999988" /><g
     id="g12" /><g
     id="g14" /><g
     id="g16" /><g
     id="g18" /><g
     id="g20" /><g
     id="g22" /><g
     id="g24" /><g
     id="g26" /><g
     id="g28" /><g
     id="g30" /><g
     id="g32" /><g
     id="g34" /><g
     id="g36" /><g
     id="g38" /><g
     id="g40" /></svg>