<?xml version="1.0" encoding="UTF-8" standalone="no"?>
<!-- Generator: Adobe Illustrator 25.2.3, SVG Export Plug-In . SVG Version: 6.00 Build 0)  -->

<svg
   xmlns:dc="http://purl.org/dc/elements/1.1/"
   xmlns:cc="http://creativecommons.org/ns#"
   xmlns:rdf="http://www.w3.org/1999/02/22-rdf-syntax-ns#"
   xmlns:svg="http://www.w3.org/2000/svg"
   xmlns="http://www.w3.org/2000/svg"
   xmlns:sodipodi="http://sodipodi.sourceforge.net/DTD/sodipodi-0.dtd"
   xmlns:inkscape="http://www.inkscape.org/namespaces/inkscape"
   version="1.1"
   id="Ebene_1"
   x="0px"
   y="0px"
   viewBox="0 0 512 512"
   xml:space="preserve"
   sodipodi:docname="Expand.svg"
   width="512"
   height="512"
   inkscape:version="0.92.2 (5c3e80d, 2017-08-06)"><metadata
     id="metadata13"><rdf:RDF><cc:Work
         rdf:about=""><dc:format>image/svg+xml</dc:format><dc:type
           rdf:resource="http://purl.org/dc/dcmitype/StillImage" /><dc:title /></cc:Work></rdf:RDF></metadata><defs
     id="defs11" /><sodipodi:namedview
     pagecolor="#ffffff"
     bordercolor="#666666"
     borderopacity="1"
     objecttolerance="10"
     gridtolerance="10"
     guidetolerance="10"
     inkscape:pageopacity="0"
     inkscape:pageshadow="2"
     inkscape:window-width="1920"
     inkscape:window-height="1028"
     id="namedview9"
     showgrid="false"
     inkscape:zoom="0.4609375"
     inkscape:cx="-1163.3"
     inkscape:cy="137.46539"
     inkscape:window-x="-8"
     inkscape:window-y="-8"
     inkscape:window-maximized="1"
     inkscape:current-layer="Ebene_1" /><style
     type="text/css"
     id="style2">
	.st0{fill:#FF00FF;}
</style><g
     id="g819"
     style="fill:#d9d9d9;fill-opacity:1;stroke-width:1.09107137"
     transform="matrix(0.91653028,0,0,0.91653028,4.6743046,38.280881)"><path
       id="path4"
       d="M 467.97442,19.094199 H 328.23644 c -17.46726,0 -27.94761,10.480349 -27.94761,27.947598 0,17.467249 10.48035,27.947594 27.94761,27.947594 h 76.85589 L 300.28883,179.79289 c -10.48035,10.48035 -10.48035,27.94759 0,38.42794 3.49346,0 10.48035,3.49346 17.46726,3.49346 6.98689,0 13.9738,-3.49346 17.46724,-6.9869 l 104.8035,-104.8035 v 76.8559 c 0,13.9738 10.48035,27.9476 27.94759,27.9476 17.46726,0 24.45415,-13.9738 24.45415,-27.9476 V 47.041797 c 0,-17.467249 -10.48035,-27.947598 -24.45415,-27.947598 z"
       class="st0"
       inkscape:connector-curvature="0"
       style="fill:#d9d9d9;fill-opacity:1;stroke-width:0.20412077" /><path
       id="path6"
       d="m 247.65808,264.34194 c -10.45408,-10.45408 -27.87754,-10.45408 -38.33162,0 L 104.78569,368.88271 v -76.66322 c 0,-13.93877 -10.454074,-27.87755 -27.877536,-27.87755 C 59.484693,264.34194 56,274.79602 56,292.21949 v 139.38768 c 0,13.93877 10.454078,24.39285 27.877539,24.39285 H 223.26524 c 13.93876,0 27.87753,-10.45408 27.87753,-27.87754 0,-17.42345 -10.45408,-27.87753 -27.87753,-27.87753 H 146.602 L 251.14277,295.70418 c 6.96939,-6.96939 6.96939,-20.90816 -3.48469,-31.36224 z"
       class="st0"
       inkscape:connector-curvature="0"
       style="fill:#d9d9d9;fill-opacity:1;stroke-width:0.20412077" /></g></svg>