<?xml version="1.0" encoding="UTF-8" standalone="no"?>
<svg
   xmlns:dc="http://purl.org/dc/elements/1.1/"
   xmlns:cc="http://creativecommons.org/ns#"
   xmlns:rdf="http://www.w3.org/1999/02/22-rdf-syntax-ns#"
   xmlns:svg="http://www.w3.org/2000/svg"
   xmlns="http://www.w3.org/2000/svg"
   xmlns:sodipodi="http://sodipodi.sourceforge.net/DTD/sodipodi-0.dtd"
   xmlns:inkscape="http://www.inkscape.org/namespaces/inkscape"
   height="512"
   viewBox="0 -131 512 512"
   width="512"
   version="1.1"
   id="svg6"
   sodipodi:docname="Eye.svg"
   inkscape:version="0.92.2 (5c3e80d, 2017-08-06)">
  <metadata
     id="metadata12">
    <rdf:RDF>
      <cc:Work
         rdf:about="">
        <dc:format>image/svg+xml</dc:format>
        <dc:type
           rdf:resource="http://purl.org/dc/dcmitype/StillImage" />
        <dc:title />
      </cc:Work>
    </rdf:RDF>
  </metadata>
  <defs
     id="defs10" />
  <sodipodi:namedview
     pagecolor="#ffffff"
     bordercolor="#666666"
     borderopacity="1"
     objecttolerance="10"
     gridtolerance="10"
     guidetolerance="10"
     inkscape:pageopacity="0"
     inkscape:pageshadow="2"
     inkscape:window-width="2560"
     inkscape:window-height="1388"
     id="namedview8"
     showgrid="false"
     inkscape:zoom="1.3828125"
     inkscape:cx="-27.551264"
     inkscape:cy="308.84778"
     inkscape:window-x="-8"
     inkscape:window-y="-8"
     inkscape:window-maximized="1"
     inkscape:current-layer="svg6"
     units="px" />
  <g
     id="g818"
     transform="matrix(0.78213239,0,0,0.79857155,55.773856,24.886774)"
     style="stroke-width:1.26532733">
    <path
       style="fill:#FFFFFF;fill-opacity:1;stroke-width:1.26532733"
       id="path2"
       d="M 509.76953,115.89063 C 417.53516,17.5 313.69531,-18.5 201.14453,8.882812 112.80078,30.378906 43.71875,85.445312 10.402344,116.35547 c -12.476563,11.57812 -13.90625,30.23828 -3.332032,43.41015 9.992188,12.4375 27.992188,16.44922 42.753907,9.54688 l 10.78125,-5.03516 c 65.500001,57.42188 133.546871,86.45313 202.558591,86.45313 4.56641,0 9.15235,-0.125 13.72656,-0.38281 112.5625,-6.26954 185.78125,-86.90625 188.84375,-90.33594 3.03516,-3.39844 2.73438,-8.60938 -0.66015,-11.64453 -3.38281,-3.01953 -8.61719,-2.74219 -11.64453,0.66015 -0.70313,0.78907 -71.66016,78.95703 -177.45313,84.85157 -70.54687,3.91406 -140.75,-24.83594 -208.449216,-85.5 -2.449219,-2.21094 -6.007813,-2.72657 -8.988282,-1.33204 l -15.6875,7.32032 c -7.980468,3.71093 -17.628906,1.66015 -22.925781,-4.92578 -5.171875,-6.44922 -4.460937,-15.27735 1.707031,-20.9961 59.882813,-55.566404 271.203128,-219.859372 476.109378,-1.27343 3.10937,3.32812 8.33984,3.49609 11.65234,0.375 3.32031,-3.11329 3.49219,-8.33204 0.375,-11.65625 z m 0,0"
       inkscape:connector-curvature="0" />
    <path
       style="fill:#FFFFFF;fill-opacity:1;stroke-width:1.26532733"
       id="path4"
       d="m 446.32422,133.89844 c 2.07812,0 4.16406,-0.78125 5.76562,-2.35157 3.25391,-3.18359 3.3125,-8.40234 0.12891,-11.66015 C 407.17578,73.835938 361.49219,49.640625 317.99609,39.472656 277.26172,28.234375 234.82031,30.113281 191.26172,45.046875 114.57031,68.324219 61.695312,118.75 60.679688,119.74609 c -3.265626,3.1836 -3.328126,8.39453 -0.144532,11.65625 3.195313,3.27735 8.414063,3.32032 11.660156,0.15625 0.398438,-0.39453 34.328128,-32.953121 86.160158,-56.855465 -3.73828,11.082031 -5.8711,22.699219 -5.8711,34.457035 0,59.54296 48.44922,107.98828 107.9961,107.98828 59.54687,0 107.99219,-48.44532 107.99219,-107.98828 0,-12.433598 -2.21875,-24.75391 -6.42969,-36.425785 27.17969,13.621094 53.35547,33.093755 78.38672,58.683595 1.61718,1.65234 3.7539,2.48047 5.89453,2.48047 z m -185.84375,65.1875 c -49.58203,0 -89.92188,-40.34375 -89.92188,-89.92578 0,-14.101566 3.34375,-28.074222 9.69532,-40.609379 18.73047,-7.914062 37.22265,-13.183593 55.44531,-15.9375 -9.77734,4.316407 -18.26563,11 -24.61719,19.441407 11.34766,0.04687 20.53516,9.25 20.53516,20.609374 0,11.386718 -9.23047,20.617188 -20.61719,20.617188 -4.66016,0 -8.91016,-1.60547 -12.36328,-4.21094 0,0.0273 -0.004,0.0586 -0.004,0.0859 0,34.16016 27.6875,61.84766 61.84766,61.84766 34.15625,0 61.84765,-27.6875 61.84765,-61.84766 0,-26.667969 -16.91015,-49.324219 -40.5664,-58.007812 19.63281,1.835937 38.85547,6.839843 57.60937,15.023437 7.22266,13.21875 11.03125,28.019531 11.03125,42.984375 0,49.58594 -40.33593,89.92969 -89.92187,89.92969 z m 0,0"
       inkscape:connector-curvature="0" />
  </g>
</svg>
