<?xml version="1.0" encoding="UTF-8" standalone="no"?>
<!-- Generator: Adobe Illustrator 19.0.0, SVG Export Plug-In . SVG Version: 6.00 Build 0)  -->

<svg
   xmlns:dc="http://purl.org/dc/elements/1.1/"
   xmlns:cc="http://creativecommons.org/ns#"
   xmlns:rdf="http://www.w3.org/1999/02/22-rdf-syntax-ns#"
   xmlns:svg="http://www.w3.org/2000/svg"
   xmlns="http://www.w3.org/2000/svg"
   xmlns:sodipodi="http://sodipodi.sourceforge.net/DTD/sodipodi-0.dtd"
   xmlns:inkscape="http://www.inkscape.org/namespaces/inkscape"
   version="1.1"
   id="Capa_1"
   x="0px"
   y="0px"
   viewBox="0 0 512.001 512.001"
   style="enable-background:new 0 0 512.001 512.001;"
   xml:space="preserve"
   width="512px"
   height="512px"
   sodipodi:docname="LightSettings.svg"
   inkscape:version="0.92.2 (5c3e80d, 2017-08-06)"><metadata
     id="metadata103"><rdf:RDF><cc:Work
         rdf:about=""><dc:format>image/svg+xml</dc:format><dc:type
           rdf:resource="http://purl.org/dc/dcmitype/StillImage" /></cc:Work></rdf:RDF></metadata><defs
     id="defs101" /><sodipodi:namedview
     pagecolor="#ffffff"
     bordercolor="#666666"
     borderopacity="1"
     objecttolerance="10"
     gridtolerance="10"
     guidetolerance="10"
     inkscape:pageopacity="0"
     inkscape:pageshadow="2"
     inkscape:window-width="2560"
     inkscape:window-height="1388"
     id="namedview99"
     showgrid="false"
     showguides="false"
     inkscape:zoom="1.3037281"
     inkscape:cx="-216.09043"
     inkscape:cy="267.12852"
     inkscape:window-x="-8"
     inkscape:window-y="-8"
     inkscape:window-maximized="1"
     inkscape:current-layer="Capa_1" /><g
     id="g943"
     transform="matrix(0.78158436,0,0,0.76827585,55.914513,59.321498)"
     style="fill:#ff5777;fill-opacity:1;stroke:#ff5777;stroke-width:8.64627647;stroke-miterlimit:4;stroke-dasharray:none;stroke-opacity:1"><g
       id="g6"
       style="fill:#ff5777;fill-opacity:1;stroke:#ff5777;stroke-width:8.64627647;stroke-miterlimit:4;stroke-dasharray:none;stroke-opacity:1"><g
         id="g4"
         style="fill:#ff5777;fill-opacity:1;stroke:#ff5777;stroke-width:8.64627647;stroke-miterlimit:4;stroke-dasharray:none;stroke-opacity:1"><path
           id="path2"
           d="m 354.675,180.814 h -22.714 c -1.387,-4.402 -3.151,-8.664 -5.28,-12.753 L 342.741,152 c 2.007,-2.007 3.112,-4.676 3.112,-7.515 0,-2.84 -1.105,-5.509 -3.112,-7.516 L 323.84,118.067 c -4.144,-4.141 -10.886,-4.143 -15.031,0.001 l -16.061,16.061 c -4.089,-2.129 -8.352,-3.894 -12.753,-5.28 v -22.715 c -10e-4,-5.86 -4.769,-10.629 -10.63,-10.629 h -26.731 c -5.86,0 -10.628,4.768 -10.628,10.629 v 22.715 c -4.402,1.387 -8.664,3.151 -12.754,5.28 L 203.19,118.067 c -4.144,-4.142 -10.886,-4.141 -15.03,0.001 l -18.9,18.9 c -2.008,2.007 -3.114,4.676 -3.114,7.516 0,2.839 1.106,5.508 3.113,7.515 l 16.061,16.061 c -2.129,4.089 -3.894,8.352 -5.28,12.753 h -22.715 c -5.86,0 -10.628,4.768 -10.628,10.629 v 26.731 c 0,5.86 4.768,10.628 10.628,10.628 h 22.715 c 1.387,4.401 3.151,8.665 5.28,12.753 l -16.061,16.061 c -4.144,4.144 -4.144,10.887 0,15.031 l 18.901,18.901 c 4.144,4.145 10.888,4.144 15.031,0 l 16.061,-16.061 c 4.089,2.129 8.353,3.894 12.754,5.28 v 22.715 c 0,5.86 4.768,10.628 10.628,10.628 h 26.731 c 5.86,0 10.629,-4.768 10.629,-10.628 v -22.715 c 4.4,-1.386 8.664,-3.151 12.753,-5.28 l 16.061,16.061 c 4.145,4.145 10.888,4.144 15.032,0 l 18.9,-18.901 c 2.007,-2.007 3.112,-4.676 3.112,-7.515 0,-2.839 -1.105,-5.508 -3.112,-7.516 l -16.061,-16.061 c 2.129,-4.089 3.894,-8.352 5.28,-12.753 h 22.715 c 5.86,0 10.629,-4.768 10.629,-10.628 v -26.731 c 10e-4,-5.86 -4.768,-10.628 -10.628,-10.628 z m -4.37,32.987 h -24.059 c -3.484,0 -6.509,2.399 -7.303,5.792 -1.599,6.835 -4.283,13.318 -7.978,19.267 -1.839,2.96 -1.396,6.796 1.067,9.261 l 17.011,17.011 -12.718,12.718 -17.011,-17.011 c -2.464,-2.464 -6.3,-2.908 -9.262,-1.068 -5.95,3.695 -12.433,6.379 -19.266,7.979 -3.393,0.793 -5.792,3.818 -5.792,7.303 v 24.06 h -17.985 v -24.06 c 0,-3.484 -2.399,-6.509 -5.792,-7.303 -6.833,-1.598 -13.316,-4.282 -19.267,-7.979 -2.959,-1.836 -6.796,-1.396 -9.261,1.068 l -17.011,17.011 -12.718,-12.718 17.011,-17.011 c 2.464,-2.464 2.906,-6.3 1.068,-9.261 -3.695,-5.95 -6.379,-12.433 -7.978,-19.267 -0.793,-3.393 -3.819,-5.792 -7.303,-5.792 h -24.059 v -17.985 h 24.059 c 3.484,0 6.509,-2.399 7.303,-5.792 1.599,-6.834 4.283,-13.317 7.978,-19.267 1.838,-2.96 1.396,-6.796 -1.068,-9.261 l -17.011,-17.011 12.718,-12.718 17.011,17.011 c 2.462,2.464 6.3,2.907 9.261,1.068 5.949,-3.695 12.432,-6.379 19.267,-7.978 3.393,-0.793 5.792,-3.818 5.792,-7.303 v -24.06 h 17.985 v 24.06 c 0,3.484 2.399,6.509 5.792,7.303 6.834,1.599 13.316,4.283 19.267,7.978 2.958,1.837 6.796,1.394 9.261,-1.068 l 17.011,-17.011 12.718,12.718 -17.011,17.011 c -2.464,2.464 -2.906,6.3 -1.067,9.261 3.694,5.948 6.378,12.431 7.978,19.267 0.794,3.393 3.818,5.792 7.303,5.792 h 24.059 z"
           inkscape:connector-curvature="0"
           style="fill:#ff5777;fill-opacity:1;stroke:#ff5777;stroke-width:8.64627647;stroke-miterlimit:4;stroke-dasharray:none;stroke-opacity:1" /></g></g><g
       id="g12"
       style="fill:#ff5777;fill-opacity:1;stroke:#ff5777;stroke-width:8.64627647;stroke-miterlimit:4;stroke-dasharray:none;stroke-opacity:1"><g
         id="g10"
         style="fill:#ff5777;fill-opacity:1;stroke:#ff5777;stroke-width:8.64627647;stroke-miterlimit:4;stroke-dasharray:none;stroke-opacity:1"><path
           id="path8"
           d="m 256,164.628 c -22.156,0 -40.18,18.025 -40.18,40.18 0,22.155 18.025,40.18 40.18,40.18 22.155,0 40.18,-18.025 40.18,-40.18 0,-22.155 -18.024,-40.18 -40.18,-40.18 z m 0,65.36 c -13.884,0 -25.18,-11.296 -25.18,-25.18 0,-13.884 11.296,-25.18 25.18,-25.18 13.884,0 25.18,11.296 25.18,25.18 0,13.884 -11.296,25.18 -25.18,25.18 z"
           inkscape:connector-curvature="0"
           style="fill:#ff5777;fill-opacity:1;stroke:#ff5777;stroke-width:8.64627647;stroke-miterlimit:4;stroke-dasharray:none;stroke-opacity:1" /></g></g><g
       id="g18"
       style="fill:#ff5777;fill-opacity:1;stroke:#ff5777;stroke-width:8.64627647;stroke-miterlimit:4;stroke-dasharray:none;stroke-opacity:1"><g
         id="g16"
         style="fill:#ff5777;fill-opacity:1;stroke:#ff5777;stroke-width:8.64627647;stroke-miterlimit:4;stroke-dasharray:none;stroke-opacity:1"><path
           id="path14"
           d="M 83.574,197.308 H 58.692 c -4.142,0 -7.5,3.358 -7.5,7.5 0,4.142 3.358,7.5 7.5,7.5 h 24.882 c 4.142,0 7.5,-3.358 7.5,-7.5 0,-4.142 -3.358,-7.5 -7.5,-7.5 z"
           inkscape:connector-curvature="0"
           style="fill:#ff5777;fill-opacity:1;stroke:#ff5777;stroke-width:8.64627647;stroke-miterlimit:4;stroke-dasharray:none;stroke-opacity:1" /></g></g><g
       id="g24"
       style="fill:#ff5777;fill-opacity:1;stroke:#ff5777;stroke-width:8.64627647;stroke-miterlimit:4;stroke-dasharray:none;stroke-opacity:1"><g
         id="g22"
         style="fill:#ff5777;fill-opacity:1;stroke:#ff5777;stroke-width:8.64627647;stroke-miterlimit:4;stroke-dasharray:none;stroke-opacity:1"><path
           id="path20"
           d="m 453.309,197.308 h -24.882 c -4.143,0 -7.5,3.358 -7.5,7.5 0,4.142 3.357,7.5 7.5,7.5 h 24.882 c 4.143,0 7.5,-3.358 7.5,-7.5 0,-4.142 -3.358,-7.5 -7.5,-7.5 z"
           inkscape:connector-curvature="0"
           style="fill:#ff5777;fill-opacity:1;stroke:#ff5777;stroke-width:8.64627647;stroke-miterlimit:4;stroke-dasharray:none;stroke-opacity:1" /></g></g><g
       id="g30"
       style="fill:#ff5777;fill-opacity:1;stroke:#ff5777;stroke-width:8.64627647;stroke-miterlimit:4;stroke-dasharray:none;stroke-opacity:1"><g
         id="g28"
         style="fill:#ff5777;fill-opacity:1;stroke:#ff5777;stroke-width:8.64627647;stroke-miterlimit:4;stroke-dasharray:none;stroke-opacity:1"><path
           id="path26"
           d="m 139.379,321.429 c -2.928,-2.929 -7.677,-2.929 -10.607,0 l -17.594,17.594 c -2.929,2.929 -2.929,7.678 0,10.607 2.929,2.929 7.678,2.929 10.607,0 l 17.594,-17.594 c 2.929,-2.929 2.929,-7.678 0,-10.607 z"
           inkscape:connector-curvature="0"
           style="fill:#ff5777;fill-opacity:1;stroke:#ff5777;stroke-width:8.64627647;stroke-miterlimit:4;stroke-dasharray:none;stroke-opacity:1" /></g></g><g
       id="g36"
       style="fill:#ff5777;fill-opacity:1;stroke:#ff5777;stroke-width:8.64627647;stroke-miterlimit:4;stroke-dasharray:none;stroke-opacity:1"><g
         id="g34"
         style="fill:#ff5777;fill-opacity:1;stroke:#ff5777;stroke-width:8.64627647;stroke-miterlimit:4;stroke-dasharray:none;stroke-opacity:1"><path
           id="path32"
           d="m 400.822,59.988 c -2.93,-2.929 -7.678,-2.929 -10.608,0 L 372.62,77.582 c -2.929,2.929 -2.929,7.678 0,10.607 2.93,2.929 7.678,2.928 10.608,0 l 17.594,-17.594 c 2.929,-2.93 2.929,-7.679 0,-10.607 z"
           inkscape:connector-curvature="0"
           style="fill:#ff5777;fill-opacity:1;stroke:#ff5777;stroke-width:8.64627647;stroke-miterlimit:4;stroke-dasharray:none;stroke-opacity:1" /></g></g><g
       id="g42"
       style="fill:#ff5777;fill-opacity:1;stroke:#ff5777;stroke-width:8.64627647;stroke-miterlimit:4;stroke-dasharray:none;stroke-opacity:1"><g
         id="g40"
         style="fill:#ff5777;fill-opacity:1;stroke:#ff5777;stroke-width:8.64627647;stroke-miterlimit:4;stroke-dasharray:none;stroke-opacity:1"><path
           id="path38"
           d="m 256.001,0 c -4.143,0 -7.5,3.358 -7.5,7.5 v 24.882 c 0,4.142 3.357,7.5 7.5,7.5 4.143,0 7.5,-3.358 7.5,-7.5 V 7.5 c 0,-4.142 -3.357,-7.5 -7.5,-7.5 z"
           inkscape:connector-curvature="0"
           style="fill:#ff5777;fill-opacity:1;stroke:#ff5777;stroke-width:8.64627647;stroke-miterlimit:4;stroke-dasharray:none;stroke-opacity:1" /></g></g><g
       id="g48"
       style="fill:#ff5777;fill-opacity:1;stroke:#ff5777;stroke-width:8.64627647;stroke-miterlimit:4;stroke-dasharray:none;stroke-opacity:1"><g
         id="g46"
         style="fill:#ff5777;fill-opacity:1;stroke:#ff5777;stroke-width:8.64627647;stroke-miterlimit:4;stroke-dasharray:none;stroke-opacity:1"><path
           id="path44"
           d="m 400.822,339.023 -17.594,-17.594 c -2.93,-2.929 -7.678,-2.929 -10.608,0 -2.929,2.929 -2.929,7.679 0,10.607 l 17.594,17.594 c 2.93,2.929 7.678,2.929 10.608,0 2.929,-2.929 2.929,-7.678 0,-10.607 z"
           inkscape:connector-curvature="0"
           style="fill:#ff5777;fill-opacity:1;stroke:#ff5777;stroke-width:8.64627647;stroke-miterlimit:4;stroke-dasharray:none;stroke-opacity:1" /></g></g><g
       id="g54"
       style="fill:#ff5777;fill-opacity:1;stroke:#ff5777;stroke-width:8.64627647;stroke-miterlimit:4;stroke-dasharray:none;stroke-opacity:1"><g
         id="g52"
         style="fill:#ff5777;fill-opacity:1;stroke:#ff5777;stroke-width:8.64627647;stroke-miterlimit:4;stroke-dasharray:none;stroke-opacity:1"><path
           id="path50"
           d="M 139.379,77.582 121.785,59.988 c -2.929,-2.929 -7.678,-2.929 -10.607,0 -2.929,2.929 -2.929,7.678 0,10.607 l 17.594,17.594 c 2.929,2.929 7.678,2.929 10.607,0 2.929,-2.93 2.929,-7.679 0,-10.607 z"
           inkscape:connector-curvature="0"
           style="fill:#ff5777;fill-opacity:1;stroke:#ff5777;stroke-width:8.64627647;stroke-miterlimit:4;stroke-dasharray:none;stroke-opacity:1" /></g></g><g
       id="g60"
       style="fill:#ff5777;fill-opacity:1;stroke:#ff5777;stroke-width:8.64627647;stroke-miterlimit:4;stroke-dasharray:none;stroke-opacity:1"><g
         id="g58"
         style="fill:#ff5777;fill-opacity:1;stroke:#ff5777;stroke-width:8.64627647;stroke-miterlimit:4;stroke-dasharray:none;stroke-opacity:1"><path
           id="path56"
           d="M 405.629,186.435 C 397.558,117.56 342.961,62.958 274.409,54.602 c -4.105,-0.505 -7.852,2.426 -8.354,6.537 -0.501,4.112 2.426,7.852 6.538,8.354 62.257,7.588 110.837,56.395 118.136,118.688 0.447,3.817 3.688,6.627 7.439,6.627 0.292,0 0.586,-0.017 0.883,-0.051 4.116,-0.481 7.06,-4.207 6.578,-8.322 z"
           inkscape:connector-curvature="0"
           style="fill:#ff5777;fill-opacity:1;stroke:#ff5777;stroke-width:8.64627647;stroke-miterlimit:4;stroke-dasharray:none;stroke-opacity:1" /></g></g><g
       id="g66"
       style="fill:#ff5777;fill-opacity:1;stroke:#ff5777;stroke-width:8.64627647;stroke-miterlimit:4;stroke-dasharray:none;stroke-opacity:1"><g
         id="g64"
         style="fill:#ff5777;fill-opacity:1;stroke:#ff5777;stroke-width:8.64627647;stroke-miterlimit:4;stroke-dasharray:none;stroke-opacity:1"><path
           id="path62"
           d="m 398.963,214.868 c -4.116,-0.524 -7.863,2.389 -8.383,6.499 -5.113,40.388 -27.909,76.025 -62.543,97.77 -14.931,9.375 -23.844,25.419 -23.844,42.917 v 30.867 H 207.81 v -31.55 c 0,-16.944 -8.855,-32.952 -23.108,-41.775 -40.306,-24.95 -64.37,-68.107 -64.371,-115.446 0,-68.352 51.198,-126.238 119.091,-134.648 4.111,-0.509 7.03,-4.255 6.521,-8.366 -0.509,-4.11 -4.253,-7.037 -8.366,-6.521 -75.015,9.293 -132.25,73.803 -132.249,149.535 0,26.133 6.797,51.881 19.658,74.461 12.467,21.89 30.386,40.472 51.818,53.739 9.871,6.11 16.002,17.23 16.002,29.02 v 32.643 c -7.626,2.65 -13.125,9.892 -13.125,18.409 v 10.692 c 0,4.527 1.564,8.688 4.161,12.001 -2.598,3.313 -4.161,7.473 -4.161,12.001 v 10.691 c 0,10.753 8.749,19.501 19.501,19.501 h 23.58 v 16.955 c 0,9.781 7.957,17.738 17.737,17.738 h 30.997 c 9.781,0 17.737,-7.957 17.737,-17.738 v -16.955 h 23.58 c 10.753,0 19.501,-8.749 19.501,-19.501 v -10.691 c 0,-4.527 -1.564,-8.688 -4.162,-12.001 2.598,-3.313 4.162,-7.473 4.162,-12.001 v -10.692 c 0,-8.518 -5.498,-15.759 -13.125,-18.409 v -31.96 c 0,-12.305 6.287,-23.599 16.82,-30.212 38.454,-24.144 63.768,-63.724 69.447,-108.59 0.525,-4.11 -2.384,-7.863 -6.493,-8.383 z M 274.235,494.262 c 0,1.483 -1.253,2.737 -2.736,2.737 h -30.997 c -1.483,0 -2.736,-1.253 -2.736,-2.737 v -16.955 h 36.469 z m 43.082,-36.456 c 0,2.439 -2.061,4.5 -4.5,4.5 -13.24,0 -101.138,0 -113.632,0 -2.439,0 -4.5,-2.061 -4.5,-4.5 v -10.691 c 0,-2.439 2.061,-4.5 4.5,-4.5 h 113.632 c 2.439,0 4.5,2.061 4.5,4.5 z m 0,-34.693 c 0,2.439 -2.061,4.5 -4.5,4.5 H 199.185 c -2.439,0 -4.5,-2.061 -4.5,-4.5 v -10.692 c 0,-2.439 2.061,-4.5 4.5,-4.5 h 113.632 c 2.439,0 4.5,2.061 4.5,4.5 z"
           inkscape:connector-curvature="0"
           style="fill:#ff5777;fill-opacity:1;stroke:#ff5777;stroke-width:8.64627647;stroke-miterlimit:4;stroke-dasharray:none;stroke-opacity:1" /></g></g></g><g
     id="g68" /><g
     id="g70" /><g
     id="g72" /><g
     id="g74" /><g
     id="g76" /><g
     id="g78" /><g
     id="g80" /><g
     id="g82" /><g
     id="g84" /><g
     id="g86" /><g
     id="g88" /><g
     id="g90" /><g
     id="g92" /><g
     id="g94" /><g
     id="g96" /></svg>