<?xml version="1.0" encoding="UTF-8" standalone="no"?>
<!-- Generator: Adobe Illustrator 19.0.0, SVG Export Plug-In . SVG Version: 6.00 Build 0)  -->

<svg
   xmlns:dc="http://purl.org/dc/elements/1.1/"
   xmlns:cc="http://creativecommons.org/ns#"
   xmlns:rdf="http://www.w3.org/1999/02/22-rdf-syntax-ns#"
   xmlns:svg="http://www.w3.org/2000/svg"
   xmlns="http://www.w3.org/2000/svg"
   xmlns:sodipodi="http://sodipodi.sourceforge.net/DTD/sodipodi-0.dtd"
   xmlns:inkscape="http://www.inkscape.org/namespaces/inkscape"
   version="1.1"
   id="Capa_1"
   x="0px"
   y="0px"
   viewBox="0 0 33 33"
   style="enable-background:new 0 0 33 33;"
   xml:space="preserve"
   width="512px"
   height="512px"
   sodipodi:docname="LogicalUnit.svg"
   inkscape:version="0.92.2 (5c3e80d, 2017-08-06)"><metadata
     id="metadata53"><rdf:RDF><cc:Work
         rdf:about=""><dc:format>image/svg+xml</dc:format><dc:type
           rdf:resource="http://purl.org/dc/dcmitype/StillImage" /></cc:Work></rdf:RDF></metadata><defs
     id="defs51" /><sodipodi:namedview
     pagecolor="#ffffff"
     bordercolor="#666666"
     borderopacity="1"
     objecttolerance="10"
     gridtolerance="10"
     guidetolerance="10"
     inkscape:pageopacity="0"
     inkscape:pageshadow="2"
     inkscape:window-width="2560"
     inkscape:window-height="1388"
     id="namedview49"
     showgrid="false"
     inkscape:zoom="1.84375"
     inkscape:cx="152.45053"
     inkscape:cy="254.51016"
     inkscape:window-x="-8"
     inkscape:window-y="-8"
     inkscape:window-maximized="1"
     inkscape:current-layer="Capa_1" /><g
     id="g16"
     transform="matrix(0.75111575,0,0,0.74976673,4.1069657,4.1339032)"
     style="stroke:#88b8e3;stroke-width:1.33254993;stroke-opacity:1"><path
       d="m 10.577,32.998 c -0.133,0 -0.26,-0.053 -0.354,-0.146 L 0.146,22.773 c -0.195,-0.195 -0.195,-0.512 0,-0.707 L 22.07,0.143 c 0.188,-0.188 0.52,-0.188 0.707,0 l 10.076,10.078 c 0.195,0.195 0.195,0.512 0,0.707 L 10.93,32.852 c -0.094,0.093 -0.221,0.146 -0.353,0.146 z M 1.207,22.42 10.577,31.791 31.793,10.574 22.424,1.203 Z"
       id="path2"
       inkscape:connector-curvature="0"
       style="fill:#88b8e3;stroke:#88b8e3;stroke-width:1.37624109;stroke-opacity:1" /><g
       id="g14"
       style="stroke:#88b8e3;stroke-width:1.33254993;stroke-opacity:1"><path
         d="m 21.144,7.207 c -0.128,0 -0.256,-0.049 -0.354,-0.146 L 18.323,4.594 c -0.195,-0.195 -0.195,-0.512 0,-0.707 0.195,-0.195 0.512,-0.195 0.707,0 l 2.467,2.467 c 0.195,0.195 0.195,0.512 0,0.707 -0.097,0.097 -0.225,0.146 -0.353,0.146 z"
         id="path4"
         inkscape:connector-curvature="0"
         style="fill:#88b8e3;stroke:#88b8e3;stroke-width:1.33254993;stroke-opacity:1" /><path
         d="m 19.119,12.396 c -0.128,0 -0.256,-0.049 -0.354,-0.146 L 14.716,8.201 c -0.195,-0.195 -0.195,-0.512 0,-0.707 0.195,-0.195 0.512,-0.195 0.707,0 l 4.049,4.049 c 0.195,0.195 0.195,0.512 0,0.707 -0.097,0.098 -0.225,0.146 -0.353,0.146 z"
         id="path6"
         inkscape:connector-curvature="0"
         style="fill:#88b8e3;stroke:#88b8e3;stroke-width:1.33254993;stroke-opacity:1" /><path
         d="m 13.928,14.424 c -0.128,0 -0.256,-0.049 -0.354,-0.146 l -2.467,-2.467 c -0.195,-0.195 -0.195,-0.512 0,-0.707 0.195,-0.195 0.512,-0.195 0.707,0 l 2.467,2.467 c 0.195,0.195 0.195,0.512 0,0.707 -0.097,0.097 -0.225,0.146 -0.353,0.146 z"
         id="path8"
         inkscape:connector-curvature="0"
         style="fill:#88b8e3;stroke:#88b8e3;stroke-width:1.33254993;stroke-opacity:1" /><path
         d="m 11.901,19.615 c -0.128,0 -0.256,-0.049 -0.354,-0.146 L 7.498,15.42 c -0.195,-0.195 -0.195,-0.512 0,-0.707 0.195,-0.195 0.512,-0.195 0.707,0 l 4.049,4.049 c 0.195,0.195 0.195,0.512 0,0.707 -0.097,0.097 -0.225,0.146 -0.353,0.146 z"
         id="path10"
         inkscape:connector-curvature="0"
         style="fill:#88b8e3;stroke:#88b8e3;stroke-width:1.33254993;stroke-opacity:1" /><path
         d="m 6.711,21.64 c -0.128,0 -0.256,-0.049 -0.354,-0.146 L 3.89,19.027 c -0.195,-0.195 -0.195,-0.512 0,-0.707 0.195,-0.195 0.512,-0.195 0.707,0 l 2.467,2.467 c 0.195,0.195 0.195,0.512 0,0.707 -0.097,0.097 -0.225,0.146 -0.353,0.146 z"
         id="path12"
         inkscape:connector-curvature="0"
         style="fill:#88b8e3;stroke:#88b8e3;stroke-width:1.33254993;stroke-opacity:1" /></g></g><g
     id="g18" /><g
     id="g20" /><g
     id="g22" /><g
     id="g24" /><g
     id="g26" /><g
     id="g28" /><g
     id="g30" /><g
     id="g32" /><g
     id="g34" /><g
     id="g36" /><g
     id="g38" /><g
     id="g40" /><g
     id="g42" /><g
     id="g44" /><g
     id="g46" /></svg>