<?xml version="1.0" encoding="UTF-8" standalone="no"?>
<!-- Generator: Adobe Illustrator 16.0.0, SVG Export Plug-In . SVG Version: 6.00 Build 0)  -->

<svg
   xmlns:dc="http://purl.org/dc/elements/1.1/"
   xmlns:cc="http://creativecommons.org/ns#"
   xmlns:rdf="http://www.w3.org/1999/02/22-rdf-syntax-ns#"
   xmlns:svg="http://www.w3.org/2000/svg"
   xmlns="http://www.w3.org/2000/svg"
   xmlns:sodipodi="http://sodipodi.sourceforge.net/DTD/sodipodi-0.dtd"
   xmlns:inkscape="http://www.inkscape.org/namespaces/inkscape"
   version="1.1"
   id="Capa_1"
   x="0px"
   y="0px"
   width="512px"
   height="512px"
   viewBox="0 0 535.5 535.5"
   style="enable-background:new 0 0 535.5 535.5;"
   xml:space="preserve"
   sodipodi:docname="Magic.svg"
   inkscape:version="0.92.2 (5c3e80d, 2017-08-06)"><metadata
     id="metadata48"><rdf:RDF><cc:Work
         rdf:about=""><dc:format>image/svg+xml</dc:format><dc:type
           rdf:resource="http://purl.org/dc/dcmitype/StillImage" /></cc:Work></rdf:RDF></metadata><defs
     id="defs46" /><sodipodi:namedview
     pagecolor="#ffffff"
     bordercolor="#666666"
     borderopacity="1"
     objecttolerance="10"
     gridtolerance="10"
     guidetolerance="10"
     inkscape:pageopacity="0"
     inkscape:pageshadow="2"
     inkscape:window-width="2560"
     inkscape:window-height="1388"
     id="namedview44"
     showgrid="false"
     inkscape:zoom="0.4609375"
     inkscape:cx="-520.67797"
     inkscape:cy="256"
     inkscape:window-x="-8"
     inkscape:window-y="-8"
     inkscape:window-maximized="1"
     inkscape:current-layer="Capa_1" /><g
     id="g11"
     transform="matrix(0.78124854,0,0,0.78125146,58.571094,58.570312)"
     style="stroke-width:1.27999985"><g
       id="auto-fix"
       style="stroke-width:1.27999985"><polygon
         points="165.75,35.7 102,0 137.7,63.75 102,127.5 165.75,91.8 229.5,127.5 193.799,63.75 229.5,0 "
         id="polygon2"
         style="fill:#ff5777;stroke-width:1.27999985" /><polygon
         points="471.75,397.8 535.5,433.5 499.8,369.75 535.5,306 471.75,341.7 408,306 443.7,369.75 408,433.5 "
         id="polygon4"
         style="fill:#ff5777;stroke-width:1.27999985" /><polygon
         points="408,127.5 471.75,91.8 535.5,127.5 499.8,63.75 535.5,0 471.75,35.7 408,0 443.7,63.75 "
         id="polygon6"
         style="fill:#ff5777;stroke-width:1.27999985" /><path
         d="m 341.7,135.15 c -10.2,-10.2 -25.5,-10.2 -35.7,0 L 7.649,433.5 c -10.2,10.2 -10.2,25.5 0,35.7 l 58.65,58.649 c 10.2,10.2 25.5,10.2 35.7,0 L 400.35,229.5 c 10.2,-10.2 10.2,-25.5 0,-35.7 z m -28.05,140.25 -53.55,-53.55 61.2,-61.2 53.55,53.55 z"
         id="path8"
         inkscape:connector-curvature="0"
         style="fill:#ff5777;stroke-width:1.27999985" /></g></g><g
     id="g13" /><g
     id="g15" /><g
     id="g17" /><g
     id="g19" /><g
     id="g21" /><g
     id="g23" /><g
     id="g25" /><g
     id="g27" /><g
     id="g29" /><g
     id="g31" /><g
     id="g33" /><g
     id="g35" /><g
     id="g37" /><g
     id="g39" /><g
     id="g41" /></svg>