<?xml version="1.0" encoding="UTF-8" standalone="no"?>
<svg
   xmlns:dc="http://purl.org/dc/elements/1.1/"
   xmlns:cc="http://creativecommons.org/ns#"
   xmlns:rdf="http://www.w3.org/1999/02/22-rdf-syntax-ns#"
   xmlns:svg="http://www.w3.org/2000/svg"
   xmlns="http://www.w3.org/2000/svg"
   xmlns:sodipodi="http://sodipodi.sourceforge.net/DTD/sodipodi-0.dtd"
   xmlns:inkscape="http://www.inkscape.org/namespaces/inkscape"
   height="512px"
   viewBox="-19 0 512 512"
   width="512px"
   version="1.1"
   id="svg8"
   sodipodi:docname="ManualProcessing.svg"
   inkscape:version="0.92.2 (5c3e80d, 2017-08-06)">
  <metadata
     id="metadata14">
    <rdf:RDF>
      <cc:Work
         rdf:about="">
        <dc:format>image/svg+xml</dc:format>
        <dc:type
           rdf:resource="http://purl.org/dc/dcmitype/StillImage" />
      </cc:Work>
    </rdf:RDF>
  </metadata>
  <defs
     id="defs12" />
  <sodipodi:namedview
     pagecolor="#ffffff"
     bordercolor="#666666"
     borderopacity="1"
     objecttolerance="10"
     gridtolerance="10"
     guidetolerance="10"
     inkscape:pageopacity="0"
     inkscape:pageshadow="2"
     inkscape:window-width="1680"
     inkscape:window-height="998"
     id="namedview10"
     showgrid="false"
     inkscape:zoom="0.4609375"
     inkscape:cx="-520.67797"
     inkscape:cy="256"
     inkscape:window-x="-8"
     inkscape:window-y="-8"
     inkscape:window-maximized="1"
     inkscape:current-layer="svg8" />
  <g
     id="g824"
     transform="matrix(0.81781334,0,0,0.78125,43.00028,56)"
     style="stroke-width:1.25105917">
    <path
       id="path2"
       d="m 352.85937,121.28906 c -13.52343,-14.67187 -34.29687,-16.54297 -50.5625,-4.5625 L 160.39062,219.65234 c -4.97656,2.89063 -8.85937,5 -12.75,5.86328 -0.45312,0.0937 -0.88671,0.17969 -1.29687,0.25782 1.41406,-4.72266 3.1875,-10.25782 4.92969,-15.67188 6.44531,-20.08984 9.21093,-29.30859 9.30078,-35.52734 0.67969,-12.63672 0.14844,-28.97266 -9.53125,-44.05078 l -0.0781,-0.1211 c -5.26172,-8.02734 -15.64453,-15.51953 -24.69531,-17.8125 -9.80078,-2.48437 -18.1875,-1.58593 -24.92578,2.67188 -6.554688,4.14453 -10.824219,10.94531 -12.683594,20.21484 -4.511718,21.0586 -12.546875,42.76563 -24.566406,66.35938 -2.058594,3.96093 -4.082031,8.52734 -6.042969,12.94922 -2.484375,5.60937 -5.054687,11.41406 -7.511719,15.5625 l -0.132812,0.23046 c -9.464844,16.66797 -11.871094,32.40625 -12.902344,44.19532 -0.04687,0.49609 -4.882812,49.93359 -30.070312,91.51953 -12.320313,20.48047 -9.085938,46.74219 7.914062,63.91406 l 72.527344,72.52734 0.675781,0.63672 C 95.035156,509.09766 103.23438,512 111.41797,512 c 7,0 13.98437,-2.125 19.85547,-6.43359 L 139.3125,499.75 c 4.10547,-2.97266 8.42578,-5.73828 12.91797,-8.26953 8.53125,-4.80469 17.25,-8.57813 25.92187,-11.22656 38.5586,-11.76954 75.73828,-34.16797 100.3125,-51.03125 7.48828,-4.40235 12.5,-11.99219 14.15625,-21.48438 L 292.73047,407 c 8.65625,-70.01563 -12.61719,-130.1875 -22.46875,-153.41016 l 80.30469,-80.28125 c 14.23828,-14.25 15.42187,-36.38672 2.7539,-51.49218 z m 0,0"
       inkscape:connector-curvature="0"
       style="fill:#33aa77;stroke-width:1.29208851" />
    <path
       id="path4"
       d="m 395.22656,76.078125 c -33.49609,-33.496094 -88.0039,-33.496094 -121.5,0 -5.86328,5.863281 -5.86328,15.367187 0,21.226563 5.85938,5.859372 15.36328,5.859372 21.22266,0 21.79687,-21.792969 57.25781,-21.792969 79.05469,0 21.79296,21.796872 21.79296,57.257812 0,79.054682 -5.86328,5.85938 -5.86328,15.36329 0,21.22266 2.92968,2.92969 6.76953,4.39844 10.61328,4.39844 3.83984,0 7.67969,-1.46875 10.60937,-4.39844 33.5,-33.5 33.5,-88.0039 0,-121.503905 z m 0,0"
       inkscape:connector-curvature="0"
       style="fill:#33aa77;stroke-width:1.29208851" />
    <path
       id="path6"
       d="M 433.76562,40.734375 C 407.5,14.464844 372.57422,0 335.42187,0 c -37.14843,0 -72.07421,14.464844 -98.34375,40.734375 -5.85937,5.863281 -5.85937,15.363281 0,21.226563 5.86329,5.859374 15.36329,5.859374 21.22657,0 20.60156,-20.597657 47.98828,-31.945313 77.11718,-31.945313 29.13282,0 56.51954,11.347656 77.1211,31.945313 42.52344,42.523442 42.52344,111.710932 0,154.234372 -5.86328,5.86328 -5.86328,15.36328 0,21.22656 2.92969,2.92969 6.76953,4.39454 10.60937,4.39454 3.83985,0 7.6836,-1.46485 10.61328,-4.39454 54.22657,-54.22656 54.22657,-142.460932 0,-196.687495 z m 0,0"
       inkscape:connector-curvature="0"
       style="fill:#33aa77;stroke-width:1.29208851" />
  </g>
</svg>
