<?xml version="1.0" encoding="UTF-8" standalone="no"?>
<!-- Generator: Adobe Illustrator 19.0.0, SVG Export Plug-In . SVG Version: 6.00 Build 0)  -->

<svg
   xmlns:dc="http://purl.org/dc/elements/1.1/"
   xmlns:cc="http://creativecommons.org/ns#"
   xmlns:rdf="http://www.w3.org/1999/02/22-rdf-syntax-ns#"
   xmlns:svg="http://www.w3.org/2000/svg"
   xmlns="http://www.w3.org/2000/svg"
   xmlns:xlink="http://www.w3.org/1999/xlink"
   xmlns:sodipodi="http://sodipodi.sourceforge.net/DTD/sodipodi-0.dtd"
   xmlns:inkscape="http://www.inkscape.org/namespaces/inkscape"
   version="1.1"
   id="Layer_1"
   x="0px"
   y="0px"
   viewBox="0 0 512.00001 512.00001"
   xml:space="preserve"
   sodipodi:docname="NonWorking.svg"
   inkscape:version="0.92.2 (5c3e80d, 2017-08-06)"
   width="512"
   height="512"><metadata
     id="metadata51"><rdf:RDF><cc:Work
         rdf:about=""><dc:format>image/svg+xml</dc:format><dc:type
           rdf:resource="http://purl.org/dc/dcmitype/StillImage" /><dc:title /></cc:Work></rdf:RDF></metadata><defs
     id="defs49"><linearGradient
       inkscape:collect="always"
       id="linearGradient910"><stop
         style="stop-color:#fc0000;stop-opacity:1;"
         offset="0"
         id="stop906" /><stop
         style="stop-color:#fc0000;stop-opacity:0;"
         offset="1"
         id="stop908" /></linearGradient><linearGradient
       inkscape:collect="always"
       id="linearGradient900"><stop
         style="stop-color:#ff5777;stop-opacity:1;"
         offset="0"
         id="stop896" /><stop
         style="stop-color:#ff5777;stop-opacity:0;"
         offset="1"
         id="stop898" /></linearGradient><linearGradient
       inkscape:collect="always"
       xlink:href="#linearGradient910"
       id="linearGradient894"
       x1="1760.3387"
       y1="615.8241"
       x2="1738.8584"
       y2="2137.4641"
       gradientUnits="userSpaceOnUse" /><linearGradient
       inkscape:collect="always"
       xlink:href="#linearGradient900"
       id="linearGradient904"
       gradientUnits="userSpaceOnUse"
       x1="11.315732"
       y1="177.43474"
       x2="366.02057"
       y2="324.60654" /><linearGradient
       inkscape:collect="always"
       xlink:href="#linearGradient910"
       id="linearGradient912"
       x1="383.31876"
       y1="333.11053"
       x2="417.47577"
       y2="1151.116"
       gradientUnits="userSpaceOnUse" /></defs><sodipodi:namedview
     pagecolor="#ffffff"
     bordercolor="#666666"
     borderopacity="1"
     objecttolerance="10"
     gridtolerance="10"
     guidetolerance="10"
     inkscape:pageopacity="0"
     inkscape:pageshadow="2"
     inkscape:window-width="1680"
     inkscape:window-height="998"
     id="namedview47"
     showgrid="false"
     inkscape:zoom="0.93627763"
     inkscape:cx="-92.81466"
     inkscape:cy="112.39586"
     inkscape:window-x="-8"
     inkscape:window-y="-8"
     inkscape:window-maximized="1"
     inkscape:current-layer="Layer_1" /><g
     style="stroke-width:1.18970871"
     id="g16"
     transform="matrix(0.84149926,0,0,0.83958549,40.576187,47.678692)" /><g
     style="stroke-width:1.18970871"
     id="g18"
     transform="matrix(0.84149926,0,0,0.83958549,40.576187,47.678692)" /><g
     style="stroke-width:1.18970871"
     id="g20"
     transform="matrix(0.84149926,0,0,0.83958549,40.576187,47.678692)" /><g
     style="stroke-width:1.18970871"
     id="g22"
     transform="matrix(0.84149926,0,0,0.83958549,40.576187,47.678692)" /><g
     style="stroke-width:1.18970871"
     id="g24"
     transform="matrix(0.84149926,0,0,0.83958549,40.576187,47.678692)" /><g
     style="stroke-width:1.18970871"
     id="g26"
     transform="matrix(0.84149926,0,0,0.83958549,40.576187,47.678692)" /><g
     style="stroke-width:1.18970871"
     id="g28"
     transform="matrix(0.84149926,0,0,0.83958549,40.576187,47.678692)" /><g
     style="stroke-width:1.18970871"
     id="g30"
     transform="matrix(0.84149926,0,0,0.83958549,40.576187,47.678692)" /><g
     style="stroke-width:1.18970871"
     id="g32"
     transform="matrix(0.84149926,0,0,0.83958549,40.576187,47.678692)" /><g
     style="stroke-width:1.18970871"
     id="g34"
     transform="matrix(0.84149926,0,0,0.83958549,40.576187,47.678692)" /><g
     style="stroke-width:1.18970871"
     id="g36"
     transform="matrix(0.84149926,0,0,0.83958549,40.576187,47.678692)" /><g
     style="stroke-width:1.18970871"
     id="g38"
     transform="matrix(0.84149926,0,0,0.83958549,40.576187,47.678692)" /><g
     style="stroke-width:1.18970871"
     id="g40"
     transform="matrix(0.84149926,0,0,0.83958549,40.576187,47.678692)" /><g
     style="stroke-width:1.18970871"
     id="g42"
     transform="matrix(0.84149926,0,0,0.83958549,40.576187,47.678692)" /><g
     style="stroke-width:1.18970871"
     id="g44"
     transform="matrix(0.84149926,0,0,0.83958549,40.576187,47.678692)" /><g
     id="g853"
     transform="matrix(0.61642191,0,0,0.61644845,288.58791,-53.835332)"
     style="fill:#037d00;fill-opacity:1;stroke-width:1.62223065"><path
       id="path2-5"
       d="m -326.53812,228.94164 h 139.26727 v -36.32812 h -175.5954 v 175.5954 h 36.32813 z m 0,0"
       inkscape:connector-curvature="0"
       style="fill:#037d00;fill-opacity:1;stroke:#ff5777;stroke-width:40.77152252;stroke-miterlimit:4;stroke-dasharray:none;stroke-opacity:1" /><path
       id="path4-1"
       d="m 81.538362,192.61352 v 36.32812 H 220.80563 v 139.26728 h 36.32814 v -175.5954 z m 0,0"
       inkscape:connector-curvature="0"
       style="fill:#037d00;fill-opacity:1;stroke:#ff5777;stroke-width:40.77152252;stroke-miterlimit:4;stroke-dasharray:none;stroke-opacity:1" /><path
       id="path6-1"
       d="m -326.53812,637.01813 h -36.32813 v 175.59541 h 175.5954 V 776.2854 h -139.26727 z m 0,0"
       inkscape:connector-curvature="0"
       style="fill:#037d00;fill-opacity:1;stroke:#ff5777;stroke-width:40.77152252;stroke-miterlimit:4;stroke-dasharray:none;stroke-opacity:1" /><path
       id="path8-0"
       d="M 220.80563,776.2854 H 81.538362 v 36.32814 H 257.13377 V 637.01813 h -36.32814 z m 0,0"
       inkscape:connector-curvature="0"
       style="fill:#037d00;fill-opacity:1;stroke:#ff5777;stroke-width:40.77152252;stroke-miterlimit:4;stroke-dasharray:none;stroke-opacity:1" /></g><g
     transform="matrix(0.28944211,0,0,0.31681222,133.36819,121.76529)"
     id="g4"
     style="fill:url(#linearGradient894);fill-opacity:1;stroke-width:3.30231285"><path
       inkscape:connector-curvature="0"
       d="m 406.269,10.052 -232.65,405.741 c -48.889,85.779 -52.665,194.85 0,286.697 79.169,138.07 255.277,185.82 393.348,106.65 C 705.038,729.971 752.788,553.864 673.618,415.792 L 440.968,10.052 c -7.685,-13.403 -27.015,-13.403 -34.699,0 z"
       id="path2"
       style="fill:url(#linearGradient912);fill-opacity:1;stroke:url(#linearGradient904);stroke-width:3.30231285" /></g></svg>