<?xml version="1.0" encoding="UTF-8" standalone="no"?>
<!-- Generator: Adobe Illustrator 17.1.0, SVG Export Plug-In . SVG Version: 6.00 Build 0)  -->

<svg
   xmlns:dc="http://purl.org/dc/elements/1.1/"
   xmlns:cc="http://creativecommons.org/ns#"
   xmlns:rdf="http://www.w3.org/1999/02/22-rdf-syntax-ns#"
   xmlns:svg="http://www.w3.org/2000/svg"
   xmlns="http://www.w3.org/2000/svg"
   xmlns:sodipodi="http://sodipodi.sourceforge.net/DTD/sodipodi-0.dtd"
   xmlns:inkscape="http://www.inkscape.org/namespaces/inkscape"
   version="1.1"
   id="Capa_1"
   x="0px"
   y="0px"
   viewBox="0 0 511.99998 511.99998"
   xml:space="preserve"
   sodipodi:docname="Open.svg"
   inkscape:version="0.92.2 (5c3e80d, 2017-08-06)"
   width="512"
   height="512"><metadata
     id="metadata39"><rdf:RDF><cc:Work
         rdf:about=""><dc:format>image/svg+xml</dc:format><dc:type
           rdf:resource="http://purl.org/dc/dcmitype/StillImage" /><dc:title /></cc:Work></rdf:RDF></metadata><defs
     id="defs37" /><sodipodi:namedview
     pagecolor="#ffffff"
     bordercolor="#666666"
     borderopacity="1"
     objecttolerance="10"
     gridtolerance="10"
     guidetolerance="10"
     inkscape:pageopacity="0"
     inkscape:pageshadow="2"
     inkscape:window-width="2560"
     inkscape:window-height="1388"
     id="namedview35"
     showgrid="false"
     inkscape:zoom="0.8545863"
     inkscape:cx="-373.28003"
     inkscape:cy="138.07851"
     inkscape:window-x="-8"
     inkscape:window-y="-8"
     inkscape:window-maximized="1"
     inkscape:current-layer="Capa_1" /><path
     style="fill:#ff5777;fill-opacity:1;stroke-width:1.79792666"
     d="m 451.545,199.186 c -4.77989,-7.20015 -12.83329,-11.33043 -22.09615,-11.33043 h -35.25534 v -40.97786 c 0,-15.79203 -12.02072,-28.6396 -26.79639,-28.6396 H 243.8122 c -5.25788,0 -13.46336,-4.45229 -16.5645,-8.98818 L 217.99788,95.72739 C 210.78169,85.17873 196.12044,77.22156 183.89261,77.22156 h -42.82353 c -13.46047,0 -26.99771,10.22976 -31.48646,23.79719 l -2.9447,8.9046 c -1.38763,4.19531 -6.838147,8.31476 -11.002447,8.31476 h -12.8391 c -14.77567,0 -26.796375,12.84757 -26.796375,28.6396 v 258.6388 c 0,1.37006 0.233196,2.67819 0.64166,3.89963 0.220167,5.11797 1.709173,9.94491 4.422135,14.03185 4.77989,7.2017 12.83329,11.33045 22.09615,11.33045 H 356.17306 c 16.50512,0 33.7055,-13.04108 39.15893,-29.69075 l 58.91873,-179.86906 c 3.05914,-9.34271 2.07419,-18.83093 -2.70572,-26.03263 z M 82.796373,141.45941 h 12.8391 c 13.463357,0 26.999147,-10.22975 31.486457,-23.79719 l 2.94325,-8.9015 c 1.38908,-4.19686 6.8396,-8.31631 11.0039,-8.31631 h 42.82208 c 5.25788,0 13.46338,4.4523 16.56595,8.98819 l 9.24983,13.52098 c 7.21619,10.55022 21.87743,18.50583 34.10526,18.50583 h 123.58492 c 2.74917,0 5.0696,2.48158 5.0696,5.4183 v 40.97786 H 156.43573 c -16.50513,0 -33.70551,13.04107 -39.15894,29.69075 L 77.726793,338.28621 v -191.4085 c 0,-2.93672 2.32186,-5.4183 5.06958,-5.4183 z m 350.947147,76.08691 -58.91873,179.86907 c -2.42471,7.40138 -11.31531,14.14176 -18.65173,14.14176 H 83.159943 c -2.09736,0 -3.73267,-0.57744 -4.37434,-1.545 -0.64166,-0.96756 -0.61269,-2.80822 0.0812,-4.92446 L 137.78553,225.21863 c 2.42471,-7.40142 11.31531,-14.14177 18.65173,-14.14177 h 273.01313 c 2.09735,0 3.73266,0.57744 4.37577,1.54499 0.64021,0.96756 0.61124,2.80822 -0.0826,4.92447 z"
     id="path2"
     inkscape:connector-curvature="0" /><g
     id="g4"
     transform="translate(0,235.84299)" /><g
     id="g6"
     transform="translate(0,235.84299)" /><g
     id="g8"
     transform="translate(0,235.84299)" /><g
     id="g10"
     transform="translate(0,235.84299)" /><g
     id="g12"
     transform="translate(0,235.84299)" /><g
     id="g14"
     transform="translate(0,235.84299)" /><g
     id="g16"
     transform="translate(0,235.84299)" /><g
     id="g18"
     transform="translate(0,235.84299)" /><g
     id="g20"
     transform="translate(0,235.84299)" /><g
     id="g22"
     transform="translate(0,235.84299)" /><g
     id="g24"
     transform="translate(0,235.84299)" /><g
     id="g26"
     transform="translate(0,235.84299)" /><g
     id="g28"
     transform="translate(0,235.84299)" /><g
     id="g30"
     transform="translate(0,235.84299)" /><g
     id="g32"
     transform="translate(0,235.84299)" /></svg>