<?xml version="1.0" encoding="UTF-8" standalone="no"?>
<!-- Generator: Adobe Illustrator 19.0.0, SVG Export Plug-In . SVG Version: 6.00 Build 0)  -->

<svg
   xmlns:dc="http://purl.org/dc/elements/1.1/"
   xmlns:cc="http://creativecommons.org/ns#"
   xmlns:rdf="http://www.w3.org/1999/02/22-rdf-syntax-ns#"
   xmlns:svg="http://www.w3.org/2000/svg"
   xmlns="http://www.w3.org/2000/svg"
   xmlns:sodipodi="http://sodipodi.sourceforge.net/DTD/sodipodi-0.dtd"
   xmlns:inkscape="http://www.inkscape.org/namespaces/inkscape"
   version="1.1"
   id="Capa_1"
   x="0px"
   y="0px"
   viewBox="0 0 470.472 470.472"
   style="enable-background:new 0 0 470.472 470.472;"
   xml:space="preserve"
   width="512px"
   height="512px"
   sodipodi:docname="Overview.svg"
   inkscape:version="0.92.2 (5c3e80d, 2017-08-06)"><metadata
     id="metadata49"><rdf:RDF><cc:Work
         rdf:about=""><dc:format>image/svg+xml</dc:format><dc:type
           rdf:resource="http://purl.org/dc/dcmitype/StillImage" /></cc:Work></rdf:RDF></metadata><defs
     id="defs47" /><sodipodi:namedview
     pagecolor="#ffffff"
     bordercolor="#666666"
     borderopacity="1"
     objecttolerance="10"
     gridtolerance="10"
     guidetolerance="10"
     inkscape:pageopacity="0"
     inkscape:pageshadow="2"
     inkscape:window-width="2560"
     inkscape:window-height="1388"
     id="namedview45"
     showgrid="false"
     inkscape:zoom="1.3037281"
     inkscape:cx="-88.773057"
     inkscape:cy="329.74882"
     inkscape:window-x="-8"
     inkscape:window-y="-8"
     inkscape:window-maximized="1"
     inkscape:current-layer="Capa_1" /><g
     id="g838"
     style="fill:#ff5777;fill-opacity:1;stroke:#ff5777;stroke-width:6.46945;stroke-miterlimit:4;stroke-dasharray:none;stroke-opacity:1"
     transform="matrix(0.89499443,0,0,0.89465108,24.697674,24.781954)"><g
       style="fill:#ff5777;fill-opacity:1;stroke:#ff5777;stroke-width:6.84236813;stroke-miterlimit:4;stroke-dasharray:none;stroke-opacity:1"
       transform="matrix(0.93749973,0,0,0.95356574,14.702377,10.92301)"
       id="g6"><g
         style="fill:#ff5777;fill-opacity:1;stroke:#ff5777;stroke-width:6.84236813;stroke-miterlimit:4;stroke-dasharray:none;stroke-opacity:1"
         id="g4"><path
           style="fill:#ff5777;fill-opacity:1;stroke:#ff5777;stroke-width:6.84236813;stroke-miterlimit:4;stroke-dasharray:none;stroke-opacity:1"
           inkscape:connector-curvature="0"
           id="path2"
           d="m 260.872,23.236 c -1.6,0 -2.4,0 -4,0 -0.8,0 -2.4,0 -3.2,0 -2.4,0 -4.8,0 -7.2,0.8 -41.6,2.4 -80.8,16.8 -113.6,43.2 -29.6,7.2 -55.2,27.2 -70.4,55.2 -13.6,24.8 -16.8,53.6 -8.8,80.8 -1.6,8.8 -2.4,19.2 -2.4,29.6 0,22.4 4,44.8 11.2,66.4 l -60.8,112.8 c -1.6,3.2 -2.4,7.2 -0.8,11.2 1.6,4 4,8 8,9.6 l 22.4,12 c 2.4,1.6 5.6,2.4 8,2.4 5.6,0 11.2,-3.2 13.6,-8 l 42.4,-78.4 c 37.6,48 93.6,77.6 154.4,80.8 1.6,0 3.2,0 4,0 0.8,0 1.6,0 3.2,0 1.6,0 3.2,0 4,0 116,0 209.6,-94.4 209.6,-209.6 0,-115.2 -94.4,-208.8 -209.6,-208.8 z m -13.6,14.4 v 68.8 c -9.6,-12 -21.6,-22.4 -35.2,-29.6 -4,-1.6 -7.2,-4 -11.2,-5.6 13.6,-19.2 29.6,-31.2 46.4,-33.6 z m -42.4,8 c -6.4,5.6 -12,12.8 -18.4,21.6 -8,-2.4 -16.8,-3.2 -24.8,-3.2 13.6,-8 28,-14.4 43.2,-18.4 z m -164,387.2 c 0,0.8 -1.6,0.8 -3.2,0 l -22.4,-12 c -0.8,-0.8 -1.6,-0.8 -1.6,-1.6 v -0.8 l 81.6,-152.8 c 0,-0.8 0.8,-0.8 1.6,-0.8 0.8,0 0.8,0 1.6,0.8 l 9.6,4.8 12.8,7.2 c 1.6,0.8 1.6,2.4 1.6,2.4 z m 24.8,-193.6 h 6.4 c 4.8,5.6 9.6,11.2 15.2,16 -2.4,1.6 -3.2,3.2 -4,4 l -4,8 c -7.2,-8.8 -12,-18.4 -13.6,-28 z m 6.4,40.8 -0.8,1.6 c -0.8,-0.8 -0.8,-1.6 -0.8,-3.2 0.8,0.8 0.8,1.6 1.6,1.6 z m 30.4,68 18.4,-33.6 c 11.2,5.6 23.2,9.6 36,13.6 10.4,40.8 28,73.6 48.8,93.6 -41.6,-13.6 -77.6,-38.4 -103.2,-73.6 z m 24.8,-47.2 8,-14.4 c 0,-1.6 0.8,-3.2 0.8,-5.6 4,0.8 8,1.6 12,1.6 1.6,9.6 2.4,20 4.8,28.8 -8.8,-3.2 -17.6,-6.4 -25.6,-10.4 z m 120,128 c -32,-5.6 -60,-42.4 -76,-97.6 24,5.6 48.8,9.6 76,10.4 z m 0,-101.6 c -28,-0.8 -55.2,-4.8 -79.2,-11.2 -2.4,-9.6 -4.8,-20.8 -6.4,-32 33.6,-0.8 64.8,-16.8 85.6,-43.2 z m -1.6,-108.8 c -16.8,31.2 -49.6,51.2 -85.6,51.2 -16,0 -31.2,-4 -45.6,-11.2 -22.4,-12 -39.2,-32.8 -47.2,-56.8 -7.2,-24.8 -4.8,-50.4 7.2,-73.6 16.8,-31.2 49.6,-51.2 85.6,-51.2 16,0 31.2,4 45.6,11.2 17.6,9.6 32,24 40.8,41.6 14.4,28 13.6,61.6 -0.8,88.8 z m 205.6,-32 c -20.8,-23.2 -56,-41.6 -100.8,-52.8 -11.2,-41.6 -29.6,-75.2 -52.8,-93.6 75.2,14.4 136,72 153.6,146.4 z m 4.8,39.2 h -93.6 c -0.8,-27.2 -3.2,-53.6 -8.8,-76.8 57.6,15.2 97.6,44 102.4,76.8 z m -195.2,-188 c 31.2,4.8 59.2,40.8 74.4,93.6 -23.2,-4.8 -48,-7.2 -74.4,-7.2 z m 0,180 c 11.2,-25.6 12,-54.4 3.2,-80.8 26.4,0 52,3.2 75.2,8 5.6,24.8 9.6,52 9.6,80.8 h -88 z m 0,21.6 h 88.8 c -0.8,28.8 -4,56 -9.6,80.8 -24.8,5.6 -51.2,8 -79.2,8 z m 0,188.8 v -86.4 c 26.4,0 51.2,-2.4 74.4,-6.4 -16,52 -43.2,88.8 -74.4,92.8 z m 36.8,-2.4 c 22.4,-18.4 41.6,-52 52.8,-93.6 44.8,-10.4 80.8,-29.6 101.6,-52.8 -18.4,73.6 -79.2,132 -154.4,146.4 z m 56,-109.6 c 5.6,-23.2 8.8,-48.8 8.8,-76.8 h 93.6 c -4.8,33.6 -44.8,62.4 -102.4,76.8 z" /></g></g><g
       id="g12"
       style="fill:#ff5777;fill-opacity:1;stroke:#ff5777;stroke-width:6.46945;stroke-miterlimit:4;stroke-dasharray:none;stroke-opacity:1"><g
         id="g10"
         style="fill:#ff5777;fill-opacity:1;stroke:#ff5777;stroke-width:6.46945;stroke-miterlimit:4;stroke-dasharray:none;stroke-opacity:1"><path
           id="path8"
           d="m 200.872,111.236 c -20,-10.4 -42.4,-12.8 -64,-6.4 -21.6,6.4 -39.2,20.8 -49.6,40.8 -3.2,3.2 -1.6,8 1.6,9.6 0.8,0.8 2.4,0.8 3.2,0.8 2.4,0 4.8,-1.6 6.4,-4 8.8,-16.8 24,-28.8 41.6,-34.4 18.4,-5.6 36.8,-3.2 53.6,5.6 3.2,1.6 7.2,0.8 9.6,-2.4 1.6,-3.2 0.8,-7.2 -2.4,-9.6 z"
           style="fill:#ff5777;fill-opacity:1;stroke:#ff5777;stroke-width:6.46945;stroke-miterlimit:4;stroke-dasharray:none;stroke-opacity:1"
           inkscape:connector-curvature="0" /></g></g></g><g
     id="g14" /><g
     id="g16" /><g
     id="g18" /><g
     id="g20" /><g
     id="g22" /><g
     id="g24" /><g
     id="g26" /><g
     id="g28" /><g
     id="g30" /><g
     id="g32" /><g
     id="g34" /><g
     id="g36" /><g
     id="g38" /><g
     id="g40" /><g
     id="g42" /></svg>