<?xml version="1.0" encoding="UTF-8" standalone="no"?>
<!-- Generator: Adobe Illustrator 19.0.0, SVG Export Plug-In . SVG Version: 6.00 Build 0)  -->

<svg
   xmlns:dc="http://purl.org/dc/elements/1.1/"
   xmlns:cc="http://creativecommons.org/ns#"
   xmlns:rdf="http://www.w3.org/1999/02/22-rdf-syntax-ns#"
   xmlns:svg="http://www.w3.org/2000/svg"
   xmlns="http://www.w3.org/2000/svg"
   xmlns:sodipodi="http://sodipodi.sourceforge.net/DTD/sodipodi-0.dtd"
   xmlns:inkscape="http://www.inkscape.org/namespaces/inkscape"
   version="1.1"
   id="Capa_1"
   x="0px"
   y="0px"
   viewBox="0 0 512 512"
   xml:space="preserve"
   sodipodi:docname="Parameters2.svg"
   inkscape:version="0.92.2 (5c3e80d, 2017-08-06)"
   width="512"
   height="512"><metadata
     id="metadata45"><rdf:RDF><cc:Work
         rdf:about=""><dc:format>image/svg+xml</dc:format><dc:type
           rdf:resource="http://purl.org/dc/dcmitype/StillImage" /><dc:title></dc:title></cc:Work></rdf:RDF></metadata><defs
     id="defs43" /><sodipodi:namedview
     pagecolor="#ffffff"
     bordercolor="#666666"
     borderopacity="1"
     objecttolerance="10"
     gridtolerance="10"
     guidetolerance="10"
     inkscape:pageopacity="0"
     inkscape:pageshadow="2"
     inkscape:window-width="2560"
     inkscape:window-height="1388"
     id="namedview41"
     showgrid="false"
     inkscape:zoom="0.52678572"
     inkscape:cx="-198.90608"
     inkscape:cy="-271.52193"
     inkscape:window-x="-8"
     inkscape:window-y="-8"
     inkscape:window-maximized="1"
     inkscape:current-layer="Capa_1" /><g
     id="g8"
     style="fill:#ffffff;fill-opacity:1;stroke-width:0.13747728"
     transform="matrix(7.1428571,0,0,7.4074074,56.000001,48.592593)"><path
       d="M 8,41.08 V 2 C 8,1.447 7.552,1 7,1 6.448,1 6,1.447 6,2 V 41.08 C 2.613,41.568 0,44.481 0,48 c 0,3.859 3.14,7 7,7 3.86,0 7,-3.141 7,-7 0,-3.519 -2.613,-6.432 -6,-6.92 z"
       id="path2"
       style="fill:#ffffff;fill-opacity:1;stroke-width:0.13747728"
       inkscape:connector-curvature="0" /><path
       d="M 29,20.695 V 2 C 29,1.447 28.552,1 28,1 27.448,1 27,1.447 27,2 v 18.632 c -3.602,0.396 -6.414,3.456 -6.414,7.161 0,3.705 2.812,6.765 6.414,7.161 V 54 c 0,0.553 0.448,1 1,1 0.552,0 1,-0.447 1,-1 V 34.891 c 3.4,-0.577 6,-3.536 6,-7.098 0,-3.562 -2.6,-6.521 -6,-7.098 z"
       id="path4"
       style="fill:#ffffff;fill-opacity:1;stroke-width:0.13747728"
       inkscape:connector-curvature="0" /><path
       d="m 56,8 c 0,-3.859 -3.14,-7 -7,-7 -3.86,0 -7,3.141 -7,7 0,3.519 2.613,6.432 6,6.92 V 54 c 0,0.553 0.448,1 1,1 0.552,0 1,-0.447 1,-1 V 14.92 C 53.387,14.432 56,11.519 56,8 Z"
       id="path6"
       style="fill:#ffffff;fill-opacity:1;stroke-width:0.13747728"
       inkscape:connector-curvature="0" /></g><g
     id="g10"
     transform="translate(0,456)" /><g
     id="g12"
     transform="translate(0,456)" /><g
     id="g14"
     transform="translate(0,456)" /><g
     id="g16"
     transform="translate(0,456)" /><g
     id="g18"
     transform="translate(0,456)" /><g
     id="g20"
     transform="translate(0,456)" /><g
     id="g22"
     transform="translate(0,456)" /><g
     id="g24"
     transform="translate(0,456)" /><g
     id="g26"
     transform="translate(0,456)" /><g
     id="g28"
     transform="translate(0,456)" /><g
     id="g30"
     transform="translate(0,456)" /><g
     id="g32"
     transform="translate(0,456)" /><g
     id="g34"
     transform="translate(0,456)" /><g
     id="g36"
     transform="translate(0,456)" /><g
     id="g38"
     transform="translate(0,456)" /></svg>