<?xml version="1.0" encoding="UTF-8" standalone="no"?>
<!-- Generator: Adobe Illustrator 18.1.1, SVG Export Plug-In . SVG Version: 6.00 Build 0)  -->

<svg
   xmlns:dc="http://purl.org/dc/elements/1.1/"
   xmlns:cc="http://creativecommons.org/ns#"
   xmlns:rdf="http://www.w3.org/1999/02/22-rdf-syntax-ns#"
   xmlns:svg="http://www.w3.org/2000/svg"
   xmlns="http://www.w3.org/2000/svg"
   xmlns:sodipodi="http://sodipodi.sourceforge.net/DTD/sodipodi-0.dtd"
   xmlns:inkscape="http://www.inkscape.org/namespaces/inkscape"
   version="1.1"
   id="Capa_1"
   x="0px"
   y="0px"
   viewBox="0 0 512 512"
   xml:space="preserve"
   sodipodi:docname="Parameters.svg"
   width="512"
   height="512"
   inkscape:version="0.92.2 (5c3e80d, 2017-08-06)"><metadata
     id="metadata46"><rdf:RDF><cc:Work
         rdf:about=""><dc:format>image/svg+xml</dc:format><dc:type
           rdf:resource="http://purl.org/dc/dcmitype/StillImage" /><dc:title /></cc:Work></rdf:RDF></metadata><defs
     id="defs44" /><sodipodi:namedview
     pagecolor="#ffffff"
     bordercolor="#666666"
     borderopacity="1"
     objecttolerance="10"
     gridtolerance="10"
     guidetolerance="10"
     inkscape:pageopacity="0"
     inkscape:pageshadow="2"
     inkscape:window-width="2560"
     inkscape:window-height="1388"
     id="namedview42"
     showgrid="false"
     inkscape:zoom="0.4609375"
     inkscape:cx="-1069.5092"
     inkscape:cy="-151.75859"
     inkscape:window-x="-8"
     inkscape:window-y="-8"
     inkscape:window-maximized="1"
     inkscape:current-layer="Capa_1" /><g
     id="g9"
     transform="matrix(12.5,0,0,12.5,56,56)"
     style="fill:#FFFFFF;fill-opacity:1;stroke-width:1.20000005"><g
       id="settings_2_"
       style="fill:#FFFFFF;fill-opacity:1;stroke-width:1.20000005"><path
         style="fill:#FFFFFF;fill-opacity:1;stroke-width:1.20000005"
         d="M 8,6.021 V 3 C 8,1.346 6.654,0 5,0 3.346,0 2,1.346 2,3 V 6.021 C 0.792,6.936 0,8.369 0,10 c 0,1.631 0.792,3.064 2,3.977 V 29 c 0,1.654 1.346,3 3,3 1.654,0 3,-1.346 3,-3 V 13.977 C 9.208,13.065 10,11.631 10,10 10,8.369 9.208,6.936 8,6.021 Z M 4,3 C 4,2.447 4.447,2 5,2 5.553,2 6,2.447 6,3 V 5.1 C 5.677,5.035 5.343,5 5,5 4.657,5 4.323,5.035 4,5.1 Z M 6,29 C 6,29.553 5.553,30 5,30 4.447,30 4,29.553 4,29 V 14.898 C 4.323,14.965 4.657,15 5,15 5.343,15 5.677,14.965 6,14.898 Z M 7.865,10.84 c -0.016,0.053 -0.03,0.105 -0.049,0.158 -0.095,0.264 -0.217,0.514 -0.378,0.736 -0.004,0.006 -0.01,0.01 -0.014,0.016 -0.174,0.238 -0.381,0.449 -0.616,0.627 -0.004,0.004 -0.007,0.006 -0.01,0.008 -0.241,0.182 -0.51,0.328 -0.799,0.43 C 5.686,12.928 5.353,13 5,13 4.647,13 4.314,12.928 4,12.814 3.711,12.712 3.442,12.566 3.201,12.384 3.198,12.382 3.195,12.38 3.191,12.376 2.956,12.198 2.749,11.987 2.575,11.749 2.571,11.743 2.565,11.739 2.561,11.733 2.4,11.51 2.278,11.26 2.183,10.997 2.164,10.944 2.15,10.892 2.134,10.839 2.055,10.572 2,10.293 2,10 2,9.705 2.055,9.426 2.135,9.158 2.151,9.105 2.165,9.053 2.184,9.002 2.278,8.738 2.4,8.488 2.562,8.264 2.566,8.258 2.572,8.254 2.576,8.248 2.75,8.012 2.957,7.799 3.192,7.621 3.196,7.619 3.199,7.615 3.202,7.613 3.442,7.434 3.711,7.287 4,7.184 4.314,7.072 4.647,7 5,7 5.353,7 5.686,7.072 6,7.184 6.289,7.288 6.558,7.434 6.799,7.614 6.802,7.616 6.805,7.62 6.809,7.622 7.044,7.8 7.251,8.013 7.425,8.249 7.429,8.255 7.435,8.259 7.439,8.265 7.6,8.488 7.722,8.738 7.816,9.002 7.835,9.053 7.85,9.105 7.865,9.158 7.945,9.426 8,9.705 8,10 8,10.293 7.945,10.572 7.865,10.84 Z"
         id="path2"
         inkscape:connector-curvature="0" /><path
         style="fill:#FFFFFF;fill-opacity:1;stroke-width:1.20000005"
         d="M 30,6.021 V 3 C 30,1.346 28.654,0 27,0 25.346,0 24,1.346 24,3 V 6.021 C 22.791,6.936 22,8.369 22,10 c 0,1.631 0.791,3.064 2,3.977 V 29 c 0,1.654 1.346,3 3,3 1.654,0 3,-1.346 3,-3 V 13.977 C 31.207,13.065 32,11.631 32,10 32,8.369 31.207,6.936 30,6.021 Z M 26,3 c 0,-0.553 0.447,-1 1,-1 0.553,0 1,0.447 1,1 V 5.1 C 27.676,5.035 27.342,5 27,5 26.656,5 26.322,5.035 26,5.1 Z m 2,26 c 0,0.553 -0.447,1 -1,1 -0.553,0 -1,-0.447 -1,-1 V 14.898 c 0.322,0.067 0.656,0.102 1,0.102 0.342,0 0.676,-0.035 1,-0.102 z m 1.865,-18.16 c -0.016,0.053 -0.031,0.105 -0.049,0.158 -0.096,0.264 -0.217,0.514 -0.379,0.736 -0.004,0.006 -0.01,0.01 -0.014,0.016 -0.174,0.238 -0.381,0.449 -0.615,0.627 -0.004,0.004 -0.008,0.006 -0.01,0.008 -0.242,0.182 -0.51,0.328 -0.799,0.43 C 27.686,12.928 27.352,13 27,13 26.646,13 26.314,12.928 26,12.814 25.711,12.712 25.441,12.566 25.201,12.384 25.197,12.382 25.195,12.38 25.191,12.376 24.955,12.198 24.748,11.987 24.574,11.749 24.57,11.743 24.564,11.739 24.56,11.733 24.4,11.51 24.277,11.26 24.183,10.997 24.163,10.944 24.15,10.892 24.134,10.839 24.055,10.572 24,10.293 24,10 c 0,-0.295 0.055,-0.574 0.135,-0.842 0.016,-0.053 0.029,-0.105 0.049,-0.156 0.094,-0.264 0.217,-0.514 0.377,-0.738 0.004,-0.006 0.01,-0.01 0.014,-0.016 0.174,-0.236 0.381,-0.449 0.617,-0.627 0.004,-0.002 0.006,-0.006 0.01,-0.008 0.24,-0.18 0.51,-0.326 0.799,-0.43 C 26.314,7.072 26.646,7 27,7 c 0.352,0 0.686,0.072 1,0.184 0.289,0.104 0.557,0.25 0.799,0.43 0.002,0.002 0.006,0.006 0.01,0.008 0.234,0.178 0.441,0.391 0.615,0.627 0.004,0.006 0.01,0.01 0.014,0.016 0.162,0.225 0.283,0.475 0.379,0.738 0.018,0.051 0.033,0.104 0.049,0.156 C 29.945,9.426 30,9.705 30,10 c 0,0.293 -0.055,0.572 -0.135,0.84 z"
         id="path4"
         inkscape:connector-curvature="0" /><path
         style="fill:#FFFFFF;fill-opacity:1;stroke-width:1.20000005"
         d="M 19,18.021 V 3 C 19,1.346 17.654,0 16,0 14.346,0 13,1.346 13,3 v 15.021 c -1.208,0.914 -2,2.348 -2,3.979 0,1.631 0.792,3.064 2,3.977 V 29 c 0,1.654 1.346,3 3,3 1.654,0 3,-1.346 3,-3 V 25.977 C 20.207,25.065 21,23.631 21,22 21,20.369 20.207,18.936 19,18.021 Z M 15,3 c 0,-0.553 0.447,-1 1,-1 0.553,0 1,0.447 1,1 V 17.1 C 16.676,17.036 16.342,17 16,17 c -0.343,0 -0.677,0.035 -1,0.1 z m 2,26 c 0,0.553 -0.447,1 -1,1 -0.553,0 -1,-0.447 -1,-1 v -2.102 c 0.323,0.067 0.657,0.102 1,0.102 0.342,0 0.676,-0.035 1,-0.102 z m 1.865,-6.16 c -0.016,0.053 -0.031,0.105 -0.049,0.158 -0.096,0.264 -0.217,0.514 -0.379,0.736 -0.004,0.006 -0.01,0.01 -0.014,0.016 -0.174,0.238 -0.381,0.449 -0.615,0.627 -0.004,0.004 -0.008,0.006 -0.01,0.008 -0.242,0.182 -0.51,0.328 -0.799,0.43 C 16.686,24.928 16.352,25 16,25 15.647,25 15.314,24.928 15,24.814 14.711,24.712 14.442,24.566 14.201,24.384 14.198,24.382 14.195,24.38 14.191,24.376 13.956,24.198 13.749,23.987 13.575,23.749 13.571,23.743 13.565,23.739 13.561,23.733 13.4,23.51 13.278,23.26 13.183,22.997 13.164,22.944 13.15,22.892 13.134,22.839 13.055,22.572 13,22.293 13,22 c 0,-0.295 0.055,-0.574 0.135,-0.842 0.016,-0.053 0.03,-0.105 0.049,-0.156 0.095,-0.264 0.217,-0.514 0.378,-0.738 0.004,-0.006 0.01,-0.01 0.014,-0.016 0.174,-0.236 0.381,-0.449 0.616,-0.627 0.004,-0.002 0.007,-0.006 0.01,-0.008 0.241,-0.18 0.51,-0.326 0.799,-0.43 C 15.314,19.072 15.647,19 16,19 c 0.352,0 0.686,0.072 1,0.184 0.289,0.104 0.557,0.25 0.799,0.43 0.002,0.002 0.006,0.006 0.01,0.008 0.234,0.178 0.441,0.391 0.615,0.627 0.004,0.006 0.01,0.01 0.014,0.016 0.162,0.225 0.283,0.475 0.379,0.738 0.018,0.051 0.033,0.104 0.049,0.156 C 18.945,21.426 19,21.705 19,22 c 0,0.293 -0.055,0.572 -0.135,0.84 z"
         id="path6"
         inkscape:connector-curvature="0" /></g></g><g
     id="g11"
     transform="translate(0,480)" /><g
     id="g13"
     transform="translate(0,480)" /><g
     id="g15"
     transform="translate(0,480)" /><g
     id="g17"
     transform="translate(0,480)" /><g
     id="g19"
     transform="translate(0,480)" /><g
     id="g21"
     transform="translate(0,480)" /><g
     id="g23"
     transform="translate(0,480)" /><g
     id="g25"
     transform="translate(0,480)" /><g
     id="g27"
     transform="translate(0,480)" /><g
     id="g29"
     transform="translate(0,480)" /><g
     id="g31"
     transform="translate(0,480)" /><g
     id="g33"
     transform="translate(0,480)" /><g
     id="g35"
     transform="translate(0,480)" /><g
     id="g37"
     transform="translate(0,480)" /><g
     id="g39"
     transform="translate(0,480)" /></svg>