<?xml version="1.0" encoding="UTF-8" standalone="no"?>
<!-- Generator: Adobe Illustrator 19.0.0, SVG Export Plug-In . SVG Version: 6.00 Build 0)  -->

<svg
   xmlns:dc="http://purl.org/dc/elements/1.1/"
   xmlns:cc="http://creativecommons.org/ns#"
   xmlns:rdf="http://www.w3.org/1999/02/22-rdf-syntax-ns#"
   xmlns:svg="http://www.w3.org/2000/svg"
   xmlns="http://www.w3.org/2000/svg"
   xmlns:sodipodi="http://sodipodi.sourceforge.net/DTD/sodipodi-0.dtd"
   xmlns:inkscape="http://www.inkscape.org/namespaces/inkscape"
   version="1.1"
   id="Capa_1"
   x="0px"
   y="0px"
   viewBox="0 0 512 512"
   style="enable-background:new 0 0 512 512;"
   xml:space="preserve"
   width="512px"
   height="512px"
   sodipodi:docname="Product.svg"
   inkscape:version="0.92.2 (5c3e80d, 2017-08-06)"><metadata
     id="metadata67"><rdf:RDF><cc:Work
         rdf:about=""><dc:format>image/svg+xml</dc:format><dc:type
           rdf:resource="http://purl.org/dc/dcmitype/StillImage" /></cc:Work></rdf:RDF></metadata><defs
     id="defs65" /><sodipodi:namedview
     pagecolor="#ffffff"
     bordercolor="#666666"
     borderopacity="1"
     objecttolerance="10"
     gridtolerance="10"
     guidetolerance="10"
     inkscape:pageopacity="0"
     inkscape:pageshadow="2"
     inkscape:window-width="2560"
     inkscape:window-height="1388"
     id="namedview63"
     showgrid="false"
     inkscape:zoom="0.4609375"
     inkscape:cx="-520.67797"
     inkscape:cy="256"
     inkscape:window-x="-8"
     inkscape:window-y="-8"
     inkscape:window-maximized="1"
     inkscape:current-layer="Capa_1" /><g
     id="g892"
     transform="matrix(0.78125,0,0,0.78125,56,56)"
     style="stroke-width:1.27999985"><g
       id="g6"
       style="stroke-width:1.27999985"><g
         id="g4"
         style="stroke-width:1.27999985"><path
           id="path2"
           d="m 497,392 h -45 v 45 c 0,8.291 -6.709,15 -15,15 -8.291,0 -15,-6.709 -15,-15 v -45 h -30 v 15 30 c 0,8.291 -6.709,15 -15,15 -8.291,0 -15,-6.709 -15,-15 v -30 -15 h -30 v 45 c 0,8.291 -6.709,15 -15,15 -8.291,0 -15,-6.709 -15,-15 v -45 h -30 v 45 c 0,8.291 -6.709,15 -15,15 -8.291,0 -15,-6.709 -15,-15 v -45 h -30 v 45 c 0,8.291 -6.709,15 -15,15 -8.291,0 -15,-6.709 -15,-15 v -45 h -30 v 45 c 0,8.291 -6.709,15 -15,15 -8.291,0 -15,-6.709 -15,-15 V 413.211 L 23.211,512 H 497 c 8.291,0 15,-6.709 15,-15 v -90 c 0,-8.291 -6.709,-15 -15,-15 z"
           inkscape:connector-curvature="0"
           style="fill:#ffffff;stroke-width:1.27999985" /></g></g><g
       id="g12"
       style="stroke-width:1.27999985"><g
         id="g10"
         style="stroke-width:1.27999985"><path
           id="path8"
           d="m 75,60 h 45 V 15 C 120,6.709 113.291,0 105,0 H 15 C 6.709,0 0,6.709 0,15 V 488.789 L 98.789,390 H 75 c -8.291,0 -15,-6.709 -15,-15 0,-8.291 6.709,-15 15,-15 h 45 V 330 H 75 c -8.291,0 -15,-6.709 -15,-15 0,-8.291 6.709,-15 15,-15 h 45 V 270 H 75 c -8.291,0 -15,-6.709 -15,-15 0,-8.291 6.709,-15 15,-15 h 45 V 210 H 75 c -8.291,0 -15,-6.709 -15,-15 0,-8.291 6.709,-15 15,-15 h 45 V 150 H 75 c -8.291,0 -15,-6.709 -15,-15 0,-8.291 6.709,-15 15,-15 h 45 V 90 H 75 C 66.709,90 60,83.291 60,75 60,66.709 66.709,60 75,60 Z"
           inkscape:connector-curvature="0"
           style="fill:#ffffff;stroke-width:1.27999985" /></g></g><g
       id="g18"
       style="stroke-width:1.27999985"><g
         id="g16"
         style="stroke-width:1.27999985"><path
           id="path14"
           d="m 321.815,1.172 c -3.721,-1.553 -7.91,-1.553 -11.631,0 l -143.768,60.386 147.737,70.913 c 0.633,-0.08 1.191,-0.371 1.847,-0.371 0.656,0 1.216,0.291 1.849,0.372 L 465.593,61.563 Z"
           inkscape:connector-curvature="0"
           style="fill:#ffffff;stroke-width:1.27999985" /></g></g><g
       id="g24"
       style="stroke-width:1.27999985"><g
         id="g22"
         style="stroke-width:1.27999985"><path
           id="path20"
           d="M 151,87.431 V 270 c 0,5.684 3.208,10.869 8.291,13.418 L 301,354.272 V 159.435 Z"
           inkscape:connector-curvature="0"
           style="fill:#ffffff;stroke-width:1.27999985" /></g></g><g
       id="g30"
       style="stroke-width:1.27999985"><g
         id="g28"
         style="stroke-width:1.27999985"><path
           id="path26"
           d="M 331,159.435 V 354.272 L 472.709,283.418 C 477.792,280.869 481,275.684 481,270 V 87.44 Z"
           inkscape:connector-curvature="0"
           style="fill:#ffffff;stroke-width:1.27999985" /></g></g></g><g
     id="g32" /><g
     id="g34" /><g
     id="g36" /><g
     id="g38" /><g
     id="g40" /><g
     id="g42" /><g
     id="g44" /><g
     id="g46" /><g
     id="g48" /><g
     id="g50" /><g
     id="g52" /><g
     id="g54" /><g
     id="g56" /><g
     id="g58" /><g
     id="g60" /></svg>