<?xml version="1.0" encoding="UTF-8" standalone="no"?>
<!-- Generator: Adobe Illustrator 19.0.0, SVG Export Plug-In . SVG Version: 6.00 Build 0)  -->

<svg
   xmlns:dc="http://purl.org/dc/elements/1.1/"
   xmlns:cc="http://creativecommons.org/ns#"
   xmlns:rdf="http://www.w3.org/1999/02/22-rdf-syntax-ns#"
   xmlns:svg="http://www.w3.org/2000/svg"
   xmlns="http://www.w3.org/2000/svg"
   xmlns:sodipodi="http://sodipodi.sourceforge.net/DTD/sodipodi-0.dtd"
   xmlns:inkscape="http://www.inkscape.org/namespaces/inkscape"
   version="1.1"
   id="Layer_1"
   x="0px"
   y="0px"
   viewBox="0 0 512.00001 512.00001"
   xml:space="preserve"
   sodipodi:docname="Record.svg"
   inkscape:version="0.92.2 (5c3e80d, 2017-08-06)"
   width="512"
   height="512"><metadata
     id="metadata55"><rdf:RDF><cc:Work
         rdf:about=""><dc:format>image/svg+xml</dc:format><dc:type
           rdf:resource="http://purl.org/dc/dcmitype/StillImage" /><dc:title></dc:title></cc:Work></rdf:RDF></metadata><defs
     id="defs53" /><sodipodi:namedview
     pagecolor="#ffffff"
     bordercolor="#666666"
     borderopacity="1"
     objecttolerance="10"
     gridtolerance="10"
     guidetolerance="10"
     inkscape:pageopacity="0"
     inkscape:pageshadow="2"
     inkscape:window-width="2560"
     inkscape:window-height="1388"
     id="namedview51"
     showgrid="false"
     inkscape:zoom="0.55312458"
     inkscape:cx="-181.69505"
     inkscape:cy="213.3335"
     inkscape:window-x="-8"
     inkscape:window-y="-8"
     inkscape:window-maximized="1"
     inkscape:current-layer="Layer_1" /><g
     id="g859"
     transform="matrix(0.94067783,0,0,0.94067783,55.322376,-24.948492)"
     style="stroke-width:1.06306326"><g
       transform="translate(0,85.333008)"
       style="fill:#ff0000;stroke-width:1.06306326"
       id="g6"><g
         style="fill:#ff0000;stroke-width:1.06306326"
         id="g4"><path
           inkscape:connector-curvature="0"
           style="fill:#ff0000;stroke-width:1.06306326"
           id="path2"
           d="M 213.333,0 C 95.513,0 0,95.513 0,213.333 c 0,117.82 95.513,213.333 213.333,213.333 117.82,0 213.333,-95.513 213.333,-213.333 C 426.666,95.513 331.154,0 213.333,0 Z m 0,387.413 c -96.142,0 -174.08,-77.938 -174.08,-174.08 0,-96.142 77.938,-174.08 174.08,-174.08 96.093,0.118 173.962,77.987 174.08,174.08 0,96.142 -77.938,174.08 -174.08,174.08 z" /></g></g><g
       transform="translate(0,85.333008)"
       style="fill:#ff0000;stroke-width:1.06306326"
       id="g12"><g
         style="fill:#ff0000;stroke-width:1.06306326"
         id="g10"><circle
           style="fill:#ff0000;stroke-width:1.06306326"
           id="circle8"
           r="64"
           cy="213.33299"
           cx="213.33299" /></g></g><g
       transform="translate(0,85.333008)"
       style="fill:#ff5555;stroke-width:1.06306326"
       id="g18"><g
         style="fill:#ff5555;stroke-width:1.06306326"
         id="g16"><path
           inkscape:connector-curvature="0"
           style="fill:#ff5555;stroke-width:1.06306326"
           id="path14"
           d="M 213.333,128 C 166.205,128 128,166.205 128,213.333 c 0,47.128 38.205,85.333 85.333,85.333 47.128,0 85.333,-38.205 85.333,-85.333 0,-47.128 -38.204,-85.333 -85.333,-85.333 z m 0,128 c -23.564,0 -42.667,-19.103 -42.667,-42.667 0,-23.564 19.103,-42.667 42.667,-42.667 23.564,0 42.667,19.103 42.667,42.667 C 256,236.897 236.897,256 213.333,256 Z" /></g></g><g
       transform="translate(0,85.333008)"
       id="g20"
       style="stroke-width:1.06306326" /><g
       transform="translate(0,85.333008)"
       id="g22"
       style="stroke-width:1.06306326" /><g
       transform="translate(0,85.333008)"
       id="g24"
       style="stroke-width:1.06306326" /><g
       transform="translate(0,85.333008)"
       id="g26"
       style="stroke-width:1.06306326" /><g
       transform="translate(0,85.333008)"
       id="g28"
       style="stroke-width:1.06306326" /><g
       transform="translate(0,85.333008)"
       id="g30"
       style="stroke-width:1.06306326" /><g
       transform="translate(0,85.333008)"
       id="g32"
       style="stroke-width:1.06306326" /><g
       transform="translate(0,85.333008)"
       id="g34"
       style="stroke-width:1.06306326" /><g
       transform="translate(0,85.333008)"
       id="g36"
       style="stroke-width:1.06306326" /><g
       transform="translate(0,85.333008)"
       id="g38"
       style="stroke-width:1.06306326" /><g
       transform="translate(0,85.333008)"
       id="g40"
       style="stroke-width:1.06306326" /><g
       transform="translate(0,85.333008)"
       id="g42"
       style="stroke-width:1.06306326" /><g
       transform="translate(0,85.333008)"
       id="g44"
       style="stroke-width:1.06306326" /><g
       transform="translate(0,85.333008)"
       id="g46"
       style="stroke-width:1.06306326" /><g
       transform="translate(0,85.333008)"
       id="g48"
       style="stroke-width:1.06306326" /></g></svg>