<?xml version="1.0" encoding="UTF-8" standalone="no"?>
<!-- Generator: Adobe Illustrator 19.0.0, SVG Export Plug-In . SVG Version: 6.00 Build 0)  -->

<svg
   xmlns:dc="http://purl.org/dc/elements/1.1/"
   xmlns:cc="http://creativecommons.org/ns#"
   xmlns:rdf="http://www.w3.org/1999/02/22-rdf-syntax-ns#"
   xmlns:svg="http://www.w3.org/2000/svg"
   xmlns="http://www.w3.org/2000/svg"
   xmlns:sodipodi="http://sodipodi.sourceforge.net/DTD/sodipodi-0.dtd"
   xmlns:inkscape="http://www.inkscape.org/namespaces/inkscape"
   version="1.1"
   id="Capa_1"
   x="0px"
   y="0px"
   viewBox="0 0 448 448"
   style="enable-background:new 0 0 448 448;"
   xml:space="preserve"
   width="512px"
   height="512px"
   sodipodi:docname="Restore.svg"
   inkscape:version="0.92.2 (5c3e80d, 2017-08-06)"><metadata
     id="metadata47"><rdf:RDF><cc:Work
         rdf:about=""><dc:format>image/svg+xml</dc:format><dc:type
           rdf:resource="http://purl.org/dc/dcmitype/StillImage" /></cc:Work></rdf:RDF></metadata><defs
     id="defs45" /><sodipodi:namedview
     pagecolor="#ffffff"
     bordercolor="#666666"
     borderopacity="1"
     objecttolerance="10"
     gridtolerance="10"
     guidetolerance="10"
     inkscape:pageopacity="0"
     inkscape:pageshadow="2"
     inkscape:window-width="2560"
     inkscape:window-height="1388"
     id="namedview43"
     showgrid="false"
     inkscape:zoom="0.4609375"
     inkscape:cx="-520.67797"
     inkscape:cy="256"
     inkscape:window-x="-8"
     inkscape:window-y="-8"
     inkscape:window-maximized="1"
     inkscape:current-layer="Capa_1" /><g
     id="g10"
     transform="matrix(0.78072034,0,0,0.77990709,49.118644,49.300812)"
     style="stroke-width:1.28153598"><g
       id="g8"
       style="stroke-width:1.28153598"><g
         id="g6"
         style="stroke-width:1.28153598"><path
           d="M 256,32 C 149.973,32 64,117.973 64,224 H 0 L 85.333,309.333 170.667,224 h -64 c 0,-82.453 66.88,-149.333 149.333,-149.333 82.453,0 149.333,66.88 149.333,149.333 0,82.453 -66.88,149.333 -149.333,149.333 -32.32,0 -62.08,-10.347 -86.613,-27.84 L 139.2,376.107 C 171.627,401.067 212.053,416 256,416 362.027,416 448,330.027 448,224 448,117.973 362.027,32 256,32 Z"
           id="path2"
           inkscape:connector-curvature="0"
           style="fill:#ff5777;stroke-width:1.28153598" /><path
           d="m 298.667,224 c 0,-23.573 -19.093,-42.667 -42.667,-42.667 -23.574,0 -42.667,19.094 -42.667,42.667 0,23.573 19.093,42.667 42.667,42.667 23.574,0 42.667,-19.094 42.667,-42.667 z"
           id="path4"
           inkscape:connector-curvature="0"
           style="fill:#ff5777;stroke-width:1.28153598" /></g></g></g><g
     id="g12" /><g
     id="g14" /><g
     id="g16" /><g
     id="g18" /><g
     id="g20" /><g
     id="g22" /><g
     id="g24" /><g
     id="g26" /><g
     id="g28" /><g
     id="g30" /><g
     id="g32" /><g
     id="g34" /><g
     id="g36" /><g
     id="g38" /><g
     id="g40" /></svg>