<?xml version="1.0" encoding="UTF-8" standalone="no"?>
<!-- Generator: Adobe Illustrator 16.0.0, SVG Export Plug-In . SVG Version: 6.00 Build 0)  -->

<svg
   xmlns:dc="http://purl.org/dc/elements/1.1/"
   xmlns:cc="http://creativecommons.org/ns#"
   xmlns:rdf="http://www.w3.org/1999/02/22-rdf-syntax-ns#"
   xmlns:svg="http://www.w3.org/2000/svg"
   xmlns="http://www.w3.org/2000/svg"
   xmlns:sodipodi="http://sodipodi.sourceforge.net/DTD/sodipodi-0.dtd"
   xmlns:inkscape="http://www.inkscape.org/namespaces/inkscape"
   version="1.1"
   id="Capa_1"
   x="0px"
   y="0px"
   width="512"
   height="512"
   viewBox="0 0 512.00001 512.00001"
   xml:space="preserve"
   sodipodi:docname="Save.svg"
   inkscape:version="0.92.2 (5c3e80d, 2017-08-06)"><metadata
     id="metadata41"><rdf:RDF><cc:Work
         rdf:about=""><dc:format>image/svg+xml</dc:format><dc:type
           rdf:resource="http://purl.org/dc/dcmitype/StillImage" /><dc:title /></cc:Work></rdf:RDF></metadata><defs
     id="defs39" /><sodipodi:namedview
     pagecolor="#ffffff"
     bordercolor="#666666"
     borderopacity="1"
     objecttolerance="10"
     gridtolerance="10"
     guidetolerance="10"
     inkscape:pageopacity="0"
     inkscape:pageshadow="2"
     inkscape:window-width="2560"
     inkscape:window-height="1388"
     id="namedview37"
     showgrid="false"
     inkscape:zoom="0.53815792"
     inkscape:cx="-186.74816"
     inkscape:cy="219.26649"
     inkscape:window-x="-8"
     inkscape:window-y="-8"
     inkscape:window-maximized="1"
     inkscape:current-layer="Capa_1" /><g
     id="g4"
     transform="matrix(0.91214244,0,0,0.91212996,55.997264,56)"
     style="fill:#ff5777;fill-opacity:1;stroke-width:1.20000005"><path
       d="m 432.823,121.049 c -3.806,-9.132 -8.377,-16.367 -13.709,-21.695 L 339.173,19.412 C 333.848,14.087 326.613,9.517 317.477,5.708 308.346,1.903 299.969,0 292.357,0 H 27.409 C 19.798,0 13.325,2.663 7.995,7.993 2.665,13.32 0.003,19.792 0.003,27.407 v 383.719 c 0,7.617 2.662,14.089 7.992,19.417 5.33,5.325 11.803,7.991 19.414,7.991 h 383.718 c 7.618,0 14.089,-2.666 19.417,-7.991 5.325,-5.328 7.987,-11.8 7.987,-19.417 V 146.178 c 0,-7.616 -1.902,-15.99 -5.708,-25.129 z M 182.725,45.677 c 0,-2.474 0.905,-4.611 2.714,-6.423 1.807,-1.804 3.949,-2.708 6.423,-2.708 h 54.819 c 2.468,0 4.609,0.902 6.417,2.708 1.813,1.812 2.717,3.949 2.717,6.423 v 91.362 c 0,2.478 -0.91,4.618 -2.717,6.427 -1.808,1.803 -3.949,2.708 -6.417,2.708 h -54.819 c -2.474,0 -4.617,-0.902 -6.423,-2.708 -1.809,-1.812 -2.714,-3.949 -2.714,-6.427 V 45.677 Z M 328.906,401.991 H 109.633 V 292.355 h 219.273 z m 73.094,0 h -36.552 -0.007 V 283.218 c 0,-7.617 -2.663,-14.085 -7.991,-19.417 -5.328,-5.328 -11.8,-7.994 -19.41,-7.994 H 100.498 c -7.614,0 -14.087,2.666 -19.417,7.994 -5.327,5.328 -7.992,11.8 -7.992,19.417 V 401.991 H 36.544 V 36.542 h 36.544 v 118.771 c 0,7.615 2.662,14.084 7.992,19.414 5.33,5.327 11.803,7.993 19.417,7.993 h 164.456 c 7.61,0 14.089,-2.666 19.41,-7.993 5.325,-5.327 7.994,-11.799 7.994,-19.414 V 36.542 c 2.854,0 6.563,0.95 11.136,2.853 4.572,1.902 7.806,3.805 9.709,5.708 l 80.232,80.23 c 1.902,1.903 3.806,5.19 5.708,9.851 1.909,4.665 2.857,8.33 2.857,10.994 v 255.813 z"
       id="path2"
       inkscape:connector-curvature="0"
       style="fill:#ff5777;fill-opacity:1;stroke-width:1.20000005" /></g><g
     id="g6"
     transform="translate(0,73.46701)" /><g
     id="g8"
     transform="translate(0,73.46701)" /><g
     id="g10"
     transform="translate(0,73.46701)" /><g
     id="g12"
     transform="translate(0,73.46701)" /><g
     id="g14"
     transform="translate(0,73.46701)" /><g
     id="g16"
     transform="translate(0,73.46701)" /><g
     id="g18"
     transform="translate(0,73.46701)" /><g
     id="g20"
     transform="translate(0,73.46701)" /><g
     id="g22"
     transform="translate(0,73.46701)" /><g
     id="g24"
     transform="translate(0,73.46701)" /><g
     id="g26"
     transform="translate(0,73.46701)" /><g
     id="g28"
     transform="translate(0,73.46701)" /><g
     id="g30"
     transform="translate(0,73.46701)" /><g
     id="g32"
     transform="translate(0,73.46701)" /><g
     id="g34"
     transform="translate(0,73.46701)" /></svg>