<?xml version="1.0" encoding="UTF-8" standalone="no"?>
<!-- Generator: Adobe Illustrator 19.0.0, SVG Export Plug-In . SVG Version: 6.00 Build 0)  -->

<svg
   xmlns:dc="http://purl.org/dc/elements/1.1/"
   xmlns:cc="http://creativecommons.org/ns#"
   xmlns:rdf="http://www.w3.org/1999/02/22-rdf-syntax-ns#"
   xmlns:svg="http://www.w3.org/2000/svg"
   xmlns="http://www.w3.org/2000/svg"
   xmlns:sodipodi="http://sodipodi.sourceforge.net/DTD/sodipodi-0.dtd"
   xmlns:inkscape="http://www.inkscape.org/namespaces/inkscape"
   version="1.1"
   id="Layer_1"
   x="0px"
   y="0px"
   viewBox="0 0 512 512"
   style="enable-background:new 0 0 512 512;"
   xml:space="preserve"
   width="512px"
   height="512px"
   sodipodi:docname="Sensor.svg"
   inkscape:version="0.92.2 (5c3e80d, 2017-08-06)"><metadata
     id="metadata85"><rdf:RDF><cc:Work
         rdf:about=""><dc:format>image/svg+xml</dc:format><dc:type
           rdf:resource="http://purl.org/dc/dcmitype/StillImage" /></cc:Work></rdf:RDF></metadata><defs
     id="defs83" /><sodipodi:namedview
     pagecolor="#ffffff"
     bordercolor="#666666"
     borderopacity="1"
     objecttolerance="10"
     gridtolerance="10"
     guidetolerance="10"
     inkscape:pageopacity="0"
     inkscape:pageshadow="2"
     inkscape:window-width="2560"
     inkscape:window-height="1388"
     id="namedview81"
     showgrid="false"
     inkscape:zoom="1.84375"
     inkscape:cx="87.524307"
     inkscape:cy="322.13228"
     inkscape:window-x="-8"
     inkscape:window-y="-8"
     inkscape:window-maximized="1"
     inkscape:current-layer="Layer_1" /><g
     id="g919"
     transform="matrix(0.78072034,0,0,0.74227616,56.135593,65.977303)"
     style="stroke-width:7.88171537;fill:#ff5777;fill-opacity:1;stroke:#ff5777;stroke-opacity:1;stroke-miterlimit:4;stroke-dasharray:none"><g
       id="g6"
       style="stroke-width:7.88171537;fill:#ff5777;fill-opacity:1;stroke:#ff5777;stroke-opacity:1;stroke-miterlimit:4;stroke-dasharray:none"><g
         id="g4"
         style="stroke-width:7.88171537;fill:#ff5777;fill-opacity:1;stroke:#ff5777;stroke-opacity:1;stroke-miterlimit:4;stroke-dasharray:none"><path
           id="path2"
           d="m 171.667,268.635 c -5.633,0 -10.199,4.567 -10.199,10.199 v 24.868 H 20.398 v -24.868 c 0,-5.632 -4.566,-10.199 -10.199,-10.199 C 4.566,268.635 0,273.202 0,278.834 v 35.067 c 0,5.632 4.566,10.199 10.199,10.199 h 161.468 c 5.633,0 10.199,-4.567 10.199,-10.199 v -35.067 c 0,-5.632 -4.566,-10.199 -10.199,-10.199 z"
           inkscape:connector-curvature="0"
           style="fill:#ff5777;stroke-width:7.88171537;fill-opacity:1;stroke:#ff5777;stroke-opacity:1;stroke-miterlimit:4;stroke-dasharray:none" /></g></g><g
       id="g12"
       style="stroke-width:7.88171537;fill:#ff5777;fill-opacity:1;stroke:#ff5777;stroke-opacity:1;stroke-miterlimit:4;stroke-dasharray:none"><g
         id="g10"
         style="stroke-width:7.88171537;fill:#ff5777;fill-opacity:1;stroke:#ff5777;stroke-opacity:1;stroke-miterlimit:4;stroke-dasharray:none"><path
           id="path8"
           d="M 171.667,187.9 H 10.199 C 4.566,187.9 0,192.467 0,198.099 v 35.067 c 0,5.633 4.566,10.199 10.199,10.199 5.633,0 10.199,-4.567 10.199,-10.199 v -24.868 h 141.069 v 24.868 c 0,5.632 4.566,10.199 10.199,10.199 5.633,0 10.199,-4.567 10.199,-10.199 V 198.099 C 181.866,192.467 177.3,187.9 171.667,187.9 Z"
           inkscape:connector-curvature="0"
           style="fill:#ff5777;stroke-width:7.88171537;fill-opacity:1;stroke:#ff5777;stroke-opacity:1;stroke-miterlimit:4;stroke-dasharray:none" /></g></g><g
       id="g18"
       style="stroke-width:7.88171537;fill:#ff5777;fill-opacity:1;stroke:#ff5777;stroke-opacity:1;stroke-miterlimit:4;stroke-dasharray:none"><g
         id="g16"
         style="stroke-width:7.88171537;fill:#ff5777;fill-opacity:1;stroke:#ff5777;stroke-opacity:1;stroke-miterlimit:4;stroke-dasharray:none"><path
           id="path14"
           d="m 501.801,268.635 c -5.633,0 -10.199,4.567 -10.199,10.199 v 24.868 h -141.07 v -24.868 c 0,-5.632 -4.566,-10.199 -10.199,-10.199 -5.633,0 -10.199,4.567 -10.199,10.199 v 35.067 c 0,5.632 4.566,10.199 10.199,10.199 h 161.468 c 5.633,0 10.199,-4.567 10.199,-10.199 v -35.067 c 0,-5.633 -4.566,-10.199 -10.199,-10.199 z"
           inkscape:connector-curvature="0"
           style="fill:#ff5777;stroke-width:7.88171537;fill-opacity:1;stroke:#ff5777;stroke-opacity:1;stroke-miterlimit:4;stroke-dasharray:none" /></g></g><g
       id="g24"
       style="stroke-width:7.88171537;fill:#ff5777;fill-opacity:1;stroke:#ff5777;stroke-opacity:1;stroke-miterlimit:4;stroke-dasharray:none"><g
         id="g22"
         style="stroke-width:7.88171537;fill:#ff5777;fill-opacity:1;stroke:#ff5777;stroke-opacity:1;stroke-miterlimit:4;stroke-dasharray:none"><path
           id="path20"
           d="M 501.801,187.9 H 340.333 c -5.633,0 -10.199,4.567 -10.199,10.199 v 35.067 c 0,5.632 4.566,10.199 10.199,10.199 5.633,0 10.199,-4.567 10.199,-10.199 v -24.868 h 141.069 v 24.868 c 0,5.632 4.566,10.199 10.199,10.199 5.633,0 10.199,-4.567 10.199,-10.199 V 198.099 C 512,192.467 507.434,187.9 501.801,187.9 Z"
           inkscape:connector-curvature="0"
           style="fill:#ff5777;stroke-width:7.88171537;fill-opacity:1;stroke:#ff5777;stroke-opacity:1;stroke-miterlimit:4;stroke-dasharray:none" /></g></g><g
       id="g30"
       style="stroke-width:7.88171537;fill:#ff5777;fill-opacity:1;stroke:#ff5777;stroke-opacity:1;stroke-miterlimit:4;stroke-dasharray:none"><g
         id="g28"
         style="stroke-width:7.88171537;fill:#ff5777;fill-opacity:1;stroke:#ff5777;stroke-opacity:1;stroke-miterlimit:4;stroke-dasharray:none"><path
           id="path26"
           d="m 419.069,340.025 c -4.854,-2.858 -11.106,-1.242 -13.964,3.612 -30.044,51.005 -87.177,82.69 -149.105,82.69 -61.928,0 -119.061,-31.685 -149.104,-82.69 -2.859,-4.854 -9.111,-6.47 -13.964,-3.612 -4.854,2.859 -6.47,9.111 -3.612,13.964 33.692,57.201 97.56,92.736 166.68,92.736 69.12,0 132.988,-35.535 166.68,-92.736 2.859,-4.854 1.243,-11.105 -3.611,-13.964 z"
           inkscape:connector-curvature="0"
           style="fill:#ff5777;stroke-width:7.88171537;fill-opacity:1;stroke:#ff5777;stroke-opacity:1;stroke-miterlimit:4;stroke-dasharray:none" /></g></g><g
       id="g36"
       style="stroke-width:7.88171537;fill:#ff5777;fill-opacity:1;stroke:#ff5777;stroke-opacity:1;stroke-miterlimit:4;stroke-dasharray:none"><g
         id="g34"
         style="stroke-width:7.88171537;fill:#ff5777;fill-opacity:1;stroke:#ff5777;stroke-opacity:1;stroke-miterlimit:4;stroke-dasharray:none"><path
           id="path32"
           d="m 108.165,147.528 c -4.704,-3.096 -11.029,-1.795 -14.128,2.911 -1.629,2.474 -3.216,5.022 -4.718,7.572 -2.858,4.854 -1.241,11.105 3.613,13.964 1.626,0.957 3.408,1.414 5.167,1.414 3.493,0 6.896,-1.797 8.797,-5.025 1.331,-2.258 2.737,-4.515 4.181,-6.707 3.096,-4.706 1.793,-11.03 -2.912,-14.129 z"
           inkscape:connector-curvature="0"
           style="fill:#ff5777;stroke-width:7.88171537;fill-opacity:1;stroke:#ff5777;stroke-opacity:1;stroke-miterlimit:4;stroke-dasharray:none" /></g></g><g
       id="g42"
       style="stroke-width:7.88171537;fill:#ff5777;fill-opacity:1;stroke:#ff5777;stroke-opacity:1;stroke-miterlimit:4;stroke-dasharray:none"><g
         id="g40"
         style="stroke-width:7.88171537;fill:#ff5777;fill-opacity:1;stroke:#ff5777;stroke-opacity:1;stroke-miterlimit:4;stroke-dasharray:none"><path
           id="path38"
           d="M 422.68,158.011 C 388.988,100.81 325.12,65.275 256,65.275 c -51.484,0 -99.735,19.12 -135.867,53.84 -4.061,3.903 -4.19,10.359 -0.288,14.422 3.902,4.06 10.359,4.191 14.421,0.288 32.314,-31.05 75.547,-48.15 121.734,-48.15 61.929,0 119.061,31.685 149.104,82.69 1.901,3.228 5.304,5.025 8.797,5.025 1.759,0 3.542,-0.456 5.167,-1.414 4.854,-2.86 6.47,-9.112 3.612,-13.965 z"
           inkscape:connector-curvature="0"
           style="fill:#ff5777;stroke-width:7.88171537;fill-opacity:1;stroke:#ff5777;stroke-opacity:1;stroke-miterlimit:4;stroke-dasharray:none" /></g></g><g
       id="g48"
       style="stroke-width:7.88171537;fill:#ff5777;fill-opacity:1;stroke:#ff5777;stroke-opacity:1;stroke-miterlimit:4;stroke-dasharray:none"><g
         id="g46"
         style="stroke-width:7.88171537;fill:#ff5777;fill-opacity:1;stroke:#ff5777;stroke-opacity:1;stroke-miterlimit:4;stroke-dasharray:none"><path
           id="path44"
           d="m 291.187,245.801 h -24.988 v -24.988 c 0,-5.632 -4.566,-10.199 -10.199,-10.199 -5.633,0 -10.199,4.567 -10.199,10.199 v 24.988 h -24.988 c -5.633,0 -10.199,4.567 -10.199,10.199 0,5.632 4.566,10.199 10.199,10.199 h 24.988 v 24.988 c 0,5.632 4.566,10.199 10.199,10.199 5.633,0 10.199,-4.567 10.199,-10.199 v -24.988 h 24.988 c 5.633,0 10.199,-4.567 10.199,-10.199 0,-5.632 -4.566,-10.199 -10.199,-10.199 z"
           inkscape:connector-curvature="0"
           style="fill:#ff5777;stroke-width:7.88171537;fill-opacity:1;stroke:#ff5777;stroke-opacity:1;stroke-miterlimit:4;stroke-dasharray:none" /></g></g></g><g
     id="g50" /><g
     id="g52" /><g
     id="g54" /><g
     id="g56" /><g
     id="g58" /><g
     id="g60" /><g
     id="g62" /><g
     id="g64" /><g
     id="g66" /><g
     id="g68" /><g
     id="g70" /><g
     id="g72" /><g
     id="g74" /><g
     id="g76" /><g
     id="g78" /></svg>