<?xml version="1.0" encoding="UTF-8" standalone="no"?>
<svg
   xmlns:dc="http://purl.org/dc/elements/1.1/"
   xmlns:cc="http://creativecommons.org/ns#"
   xmlns:rdf="http://www.w3.org/1999/02/22-rdf-syntax-ns#"
   xmlns:svg="http://www.w3.org/2000/svg"
   xmlns="http://www.w3.org/2000/svg"
   xmlns:sodipodi="http://sodipodi.sourceforge.net/DTD/sodipodi-0.dtd"
   xmlns:inkscape="http://www.inkscape.org/namespaces/inkscape"
   id="Layer_1"
   enable-background="new 0 0 124 124"
   height="512"
   viewBox="0 0 124 124"
   width="512"
   version="1.1"
   sodipodi:docname="3d-modeling.svg"
   inkscape:version="0.92.2 (5c3e80d, 2017-08-06)">
  <metadata
     id="metadata9">
    <rdf:RDF>
      <cc:Work
         rdf:about="">
        <dc:format>image/svg+xml</dc:format>
        <dc:type
           rdf:resource="http://purl.org/dc/dcmitype/StillImage" />
      </cc:Work>
    </rdf:RDF>
  </metadata>
  <defs
     id="defs7" />
  <sodipodi:namedview
     pagecolor="#ffffff"
     bordercolor="#666666"
     borderopacity="1"
     objecttolerance="10"
     gridtolerance="10"
     guidetolerance="10"
     inkscape:pageopacity="0"
     inkscape:pageshadow="2"
     inkscape:window-width="1920"
     inkscape:window-height="1028"
     id="namedview5"
     showgrid="false"
     inkscape:zoom="0.4609375"
     inkscape:cx="-46.644068"
     inkscape:cy="256"
     inkscape:window-x="-8"
     inkscape:window-y="-8"
     inkscape:window-maximized="1"
     inkscape:current-layer="Layer_1" />
  <path
     d="m112.249 85.237v-46.534c2.161-.649 3.751-2.644 3.751-5.028 0-2.906-2.349-5.27-5.238-5.27-1.342 0-2.554.525-3.482 1.363l.025-.041-40.22-23.214-.022.039c.103-.413.175-.837.175-1.282 0-2.906-2.35-5.27-5.238-5.27s-5.238 2.364-5.238 5.27c0 .438.069.857.169 1.264l-.016-.02-39.89 23.306s.006.012.012.024c-.956-1.02-2.3-1.665-3.8-1.665-2.888 0-5.238 2.364-5.238 5.27 0 2.383 1.59 4.378 3.751 5.028v46.761c-2.16.648-3.75 2.643-3.75 5.026 0 2.906 2.349 5.27 5.238 5.27 1.495 0 2.837-.642 3.792-1.657l-.004.015 39.899 23.595c-.786 3.249 1.706 6.513 5.075 6.513 3.32 0 5.818-3.19 5.106-6.412l40.152-23.435c.93.85 2.152 1.382 3.504 1.382 2.888 0 5.238-2.364 5.238-5.27 0-2.384-1.59-4.379-3.751-5.028zm-6.563-52.832c-.039.904-.108 1.631.001 2.543l-20.152 11.651-22.049-12.826v-23.475c.823-.247 1.567-.674 2.167-1.262l-.009.016zm-47.099-23.171c.555.484 1.206.846 1.927 1.063v23.475l-21.872 12.724-20.286-11.948c.152-.715.156-1.458.008-2.174zm7.036 105.706c-.594-.575-1.327-.994-2.137-1.237v-23.476l23.513-13.677v-27.35l-23.513 13.657v26.979h-2.973v-26.985l-23.512-13.858v27.557l23.513 13.677v23.475c-.762.229-1.451.618-2.024 1.144l-40.195-23.286c.106-.417.179-.846.179-1.296 0-2.383-1.59-4.378-3.75-5.027v-46.762c.834-.251 1.59-.684 2.193-1.284v.003l20.963 12.306 1.503-2.557 22.623 13.334 22.798-13.242 1.486 2.565 21.016-11.976-.026-.043c.568.514 1.246.896 1.997 1.121v46.534c-2.845.855-4.026 3.624-3.595 6.285z"
     id="path2"
     style="fill:#ffffff;fill-opacity:1" />
</svg>
