<?xml version="1.0" encoding="UTF-8" standalone="no"?>
<svg
   xmlns:dc="http://purl.org/dc/elements/1.1/"
   xmlns:cc="http://creativecommons.org/ns#"
   xmlns:rdf="http://www.w3.org/1999/02/22-rdf-syntax-ns#"
   xmlns:svg="http://www.w3.org/2000/svg"
   xmlns="http://www.w3.org/2000/svg"
   xmlns:sodipodi="http://sodipodi.sourceforge.net/DTD/sodipodi-0.dtd"
   xmlns:inkscape="http://www.inkscape.org/namespaces/inkscape"
   id="Capa_1"
   enable-background="new 0 0 536.275 536.275"
   height="512"
   viewBox="0 0 536.275 536.275"
   width="512"
   version="1.1"
   sodipodi:docname="distance.svg"
   inkscape:version="0.92.2 (5c3e80d, 2017-08-06)">
  <metadata
     id="metadata47">
    <rdf:RDF>
      <cc:Work
         rdf:about="">
        <dc:format>image/svg+xml</dc:format>
        <dc:type
           rdf:resource="http://purl.org/dc/dcmitype/StillImage" />
      </cc:Work>
    </rdf:RDF>
  </metadata>
  <defs
     id="defs45" />
  <sodipodi:namedview
     pagecolor="#ffffff"
     bordercolor="#666666"
     borderopacity="1"
     objecttolerance="10"
     gridtolerance="10"
     guidetolerance="10"
     inkscape:pageopacity="0"
     inkscape:pageshadow="2"
     inkscape:window-width="1920"
     inkscape:window-height="1028"
     id="namedview43"
     showgrid="false"
     inkscape:zoom="0.4609375"
     inkscape:cx="-46.644068"
     inkscape:cy="256"
     inkscape:window-x="-8"
     inkscape:window-y="-8"
     inkscape:window-maximized="1"
     inkscape:current-layer="Capa_1" />
  <g
     id="g40"
     style="fill:#1a76e7;fill-opacity:1">
    <path
       d="m75.408 385.452c-4.628-.019-8.364-3.787-8.344-8.415.009-2.202.885-4.311 2.437-5.872 3.327-3.144 8.53-3.144 11.857 0 3.263 3.282 3.247 8.588-.035 11.85-1.573 1.562-3.699 2.438-5.915 2.437z"
       id="path2"
       style="fill:#1a76e7;fill-opacity:1" />
    <path
       d="m498.576 131.006-226.249-129.883c-2.593-1.497-5.787-1.497-8.38 0l-226.248 129.883c-2.59 1.495-4.187 4.258-4.19 7.248v259.767c.003 2.991 1.6 5.753 4.19 7.248l226.248 129.883c2.593 1.497 5.787 1.497 8.38 0l226.248-129.883c2.59-1.495 4.187-4.258 4.19-7.248v-259.767c-.003-2.99-1.599-5.753-4.189-7.248zm-230.438-113.124 209.489 120.372-209.489 120.205-209.49-120.205zm-217.869 134.827 209.489 120.289v240.452l-209.489-120.289zm226.248 360.74v-240.451l209.489-120.289v240.452z"
       id="path4"
       style="fill:#1a76e7;fill-opacity:1" />
    <path
       d="m240.569 283.179c-.393-.396-.828-.748-1.299-1.047-.451-.306-.928-.572-1.425-.796-.512-.211-1.046-.366-1.592-.461-2.741-.537-5.569.327-7.542 2.304-3.263 3.282-3.247 8.588.035 11.85 1.561 1.552 3.671 2.427 5.873 2.437.543.062 1.091.062 1.634 0 .546-.095 1.08-.25 1.592-.461.497-.224.973-.49 1.425-.796.471-.3.906-.651 1.299-1.047 3.249-3.268 3.249-8.547 0-11.815z"
       id="path6"
       style="fill:#1a76e7;fill-opacity:1" />
    <path
       d="m198.713 299.351c-4.047 2.245-5.507 7.346-3.262 11.393s7.346 5.507 11.393 3.262c4.044-2.244 5.506-7.34 3.265-11.387-2.242-4.049-7.341-5.513-11.39-3.271-.002.001-.004.002-.006.003z"
       id="path8"
       style="fill:#1a76e7;fill-opacity:1" />
    <path
       d="m166.87 316.949c-4.047 2.245-5.507 7.346-3.262 11.393s7.346 5.507 11.393 3.262c4.044-2.244 5.506-7.34 3.265-11.387-2.242-4.049-7.341-5.513-11.39-3.271-.001 0-.003.001-.006.003z"
       id="path10"
       style="fill:#1a76e7;fill-opacity:1" />
    <path
       d="m103.186 352.143c-4.047 2.245-5.507 7.346-3.262 11.393s7.346 5.507 11.393 3.262c4.044-2.244 5.506-7.34 3.265-11.387-2.242-4.049-7.341-5.513-11.39-3.271-.002 0-.004.002-.006.003z"
       id="path12"
       style="fill:#1a76e7;fill-opacity:1" />
    <path
       d="m135.028 334.546c-4.047 2.245-5.507 7.346-3.262 11.393s7.346 5.507 11.393 3.262c4.044-2.244 5.506-7.34 3.265-11.387-2.242-4.049-7.341-5.513-11.39-3.271-.002 0-.004.001-.006.003z"
       id="path14"
       style="fill:#1a76e7;fill-opacity:1" />
    <path
       d="m454.96 371.164c-1.574 1.564-2.463 3.689-2.472 5.908 0 4.628 3.752 8.38 8.38 8.38s8.38-3.752 8.38-8.38c.002-2.213-.872-4.336-2.43-5.908-3.328-3.144-8.531-3.144-11.858 0z"
       id="path16"
       style="fill:#1a76e7;fill-opacity:1" />
    <path
       d="m433.089 352.143c-4.049-2.242-9.148-.777-11.39 3.271s-.777 9.148 3.271 11.39c4.046 2.241 9.143.779 11.387-3.265 2.245-4.047.785-9.147-3.262-11.393-.001-.001-.004-.002-.006-.003z"
       id="path18"
       style="fill:#1a76e7;fill-opacity:1" />
    <path
       d="m369.405 316.949c-4.097-2.153-9.163-.576-11.316 3.521s-.576 9.163 3.521 11.315c4.065 2.136 9.092.602 11.272-3.44 2.197-4.073.676-9.156-3.397-11.353-.026-.015-.053-.029-.08-.043z"
       id="path20"
       style="fill:#1a76e7;fill-opacity:1" />
    <path
       d="m401.247 334.546c-4.049-2.242-9.148-.777-11.39 3.271-2.242 4.049-.777 9.148 3.271 11.39 4.046 2.241 9.143.779 11.387-3.265 2.245-4.047.785-9.147-3.262-11.393-.002-.001-.004-.002-.006-.003z"
       id="path22"
       style="fill:#1a76e7;fill-opacity:1" />
    <path
       d="m337.562 299.351c-4.049-2.242-9.148-.777-11.39 3.271-2.242 4.049-.777 9.148 3.271 11.39 4.046 2.241 9.143.779 11.387-3.265 2.245-4.047.785-9.147-3.262-11.393-.002 0-.004-.001-.006-.003z"
       id="path24"
       style="fill:#1a76e7;fill-opacity:1" />
    <path
       d="m309.407 285.86c-.207-.505-.475-.983-.796-1.424-.56-.952-1.353-1.745-2.304-2.304-.441-.321-.92-.589-1.424-.796-.512-.211-1.046-.366-1.592-.461-2.747-.562-5.593.287-7.583 2.262-.371.404-.707.839-1.006 1.299-.321.441-.589.92-.796 1.424-.217.51-.371 1.045-.461 1.592-.224 1.078-.224 2.19 0 3.268.095.546.25 1.08.461 1.592.207.505.475.983.796 1.425.298.46.635.895 1.006 1.299 1.581 1.569 3.722 2.443 5.949 2.43.543.062 1.091.062 1.634 0 .546-.095 1.08-.25 1.592-.461.505-.207.983-.475 1.424-.796.952-.56 1.745-1.353 2.304-2.304.321-.441.589-.92.796-1.424.211-.512.366-1.046.461-1.592.224-1.078.224-2.19 0-3.268-.076-.605-.231-1.197-.461-1.761z"
       id="path26"
       style="fill:#1a76e7;fill-opacity:1" />
    <path
       d="m263.487 53.034c.451.306.928.572 1.425.796.512.211 1.046.366 1.592.461 1.078.224 2.19.224 3.268 0 .534-.09 1.054-.244 1.55-.461.514-.216 1.005-.483 1.466-.796.901-.622 1.682-1.403 2.304-2.304.313-.461.58-.952.796-1.466.216-.496.371-1.017.461-1.55.224-1.078.224-2.19 0-3.268-.095-.546-.25-1.08-.461-1.592-.224-.497-.49-.973-.796-1.425-.29-.465-.642-.888-1.047-1.257-1.94-2.038-4.772-2.966-7.542-2.472-.546.095-1.08.25-1.592.461-.497.224-.973.49-1.425.796-.901.622-1.682 1.403-2.304 2.304-.306.451-.572.928-.796 1.425-.211.512-.366 1.046-.461 1.592-.131.591-.188 1.196-.168 1.802.009 2.219.898 4.343 2.472 5.908.37.404.793.756 1.258 1.046z"
       id="path28"
       style="fill:#1a76e7;fill-opacity:1" />
    <circle
       cx="268.138"
       cy="118.143"
       r="8.38"
       id="circle30"
       style="fill:#1a76e7;fill-opacity:1" />
    <circle
       cx="268.138"
       cy="82.111"
       r="8.38"
       id="circle32"
       style="fill:#1a76e7;fill-opacity:1" />
    <circle
       cx="268.138"
       cy="154.175"
       r="8.38"
       id="circle34"
       style="fill:#1a76e7;fill-opacity:1" />
    <circle
       cx="268.138"
       cy="190.208"
       r="8.38"
       id="circle36"
       style="fill:#1a76e7;fill-opacity:1" />
    <path
       d="m275.889 223.014c-.224-.497-.49-.973-.796-1.425-.29-.465-.642-.888-1.047-1.257-1.973-1.977-4.801-2.841-7.542-2.304-.546.095-1.08.25-1.592.461-.497.224-.973.49-1.425.796-.901.622-1.682 1.403-2.304 2.304-.306.451-.572.928-.796 1.425-.211.512-.366 1.046-.461 1.592-.118.537-.174 1.085-.168 1.634.009 2.219.898 4.343 2.472 5.908.369.405.792.758 1.257 1.047.451.306.928.572 1.425.796.512.211 1.046.366 1.592.461 1.078.224 2.19.224 3.268 0 .534-.09 1.054-.244 1.55-.461.514-.216 1.005-.483 1.466-.796.901-.622 1.682-1.403 2.304-2.304.313-.461.58-.952.796-1.466.216-.496.371-1.017.461-1.55.224-1.078.224-2.19 0-3.268-.089-.548-.244-1.083-.46-1.593z"
       id="path38"
       style="fill:#1a76e7;fill-opacity:1" />
  </g>
</svg>
