<?xml version="1.0" encoding="UTF-8" standalone="no"?>
<!-- Generator: Adobe Illustrator 16.0.0, SVG Export Plug-In . SVG Version: 6.00 Build 0)  -->

<svg
   xmlns:dc="http://purl.org/dc/elements/1.1/"
   xmlns:cc="http://creativecommons.org/ns#"
   xmlns:rdf="http://www.w3.org/1999/02/22-rdf-syntax-ns#"
   xmlns:svg="http://www.w3.org/2000/svg"
   xmlns="http://www.w3.org/2000/svg"
   xmlns:sodipodi="http://sodipodi.sourceforge.net/DTD/sodipodi-0.dtd"
   xmlns:inkscape="http://www.inkscape.org/namespaces/inkscape"
   version="1.1"
   id="Capa_1"
   x="0px"
   y="0px"
   width="512"
   height="512"
   viewBox="0 0 511.99999 511.99999"
   xml:space="preserve"
   sodipodi:docname="SplitHoryzontal.svg"
   inkscape:version="0.92.2 (5c3e80d, 2017-08-06)"><metadata
     id="metadata41"><rdf:RDF><cc:Work
         rdf:about=""><dc:format>image/svg+xml</dc:format><dc:type
           rdf:resource="http://purl.org/dc/dcmitype/StillImage" /><dc:title></dc:title></cc:Work></rdf:RDF></metadata><defs
     id="defs39" /><sodipodi:namedview
     pagecolor="#ffffff"
     bordercolor="#666666"
     borderopacity="1"
     objecttolerance="10"
     gridtolerance="10"
     guidetolerance="10"
     inkscape:pageopacity="0"
     inkscape:pageshadow="2"
     inkscape:window-width="1920"
     inkscape:window-height="1028"
     id="namedview37"
     showgrid="false"
     inkscape:zoom="0.5042067"
     inkscape:cx="-42.641243"
     inkscape:cy="234.03101"
     inkscape:window-x="-8"
     inkscape:window-y="-8"
     inkscape:window-maximized="1"
     inkscape:current-layer="Capa_1" /><g
     id="g4"
     transform="matrix(0.86003672,0,0,0.86003672,87.480493,87.449421)"
     style="stroke-width:1.16274107"><path
       d="M 393.29255,-37.828323 H -1.4074513 c -20.2229997,0 -36.6789997,16.449 -36.6789997,36.6730004 V 393.11268 c 0,20.221 16.456,36.677 36.6789997,36.677 H 393.29255 c 20.228,0 36.683,-16.456 36.683,-36.677 V -1.1553226 c 0,-20.2300004 -16.456,-36.6730004 -36.683,-36.6730004 z m -24.86,41.7440004 c 8.689,0 15.723,7.0399996 15.723,15.7199996 0,8.683 -7.033,15.717 -15.723,15.717 -8.688,0 -15.723,-7.04 -15.723,-15.717 0,-8.68 7.034,-15.7199996 15.723,-15.7199996 z m -56.33,0 c 8.688,0 15.723,7.0399996 15.723,15.7199996 0,8.683 -7.034,15.717 -15.723,15.717 -8.684,0 -15.711,-7.04 -15.711,-15.717 0.001,-8.68 7.028,-15.7199996 15.711,-15.7199996 z M 3.8265487,74.375677 H 187.88155 V 387.87068 H 3.8265487 Z M 388.06155,387.87068 h -184.044 V 74.375677 h 184.044 z"
       id="path2"
       inkscape:connector-curvature="0"
       style="stroke-width:1.16274107;fill:#ff5777;fill-opacity:1" /></g><g
     id="g6"
     transform="translate(0,43.937988)" /><g
     id="g8"
     transform="translate(0,43.937988)" /><g
     id="g10"
     transform="translate(0,43.937988)" /><g
     id="g12"
     transform="translate(0,43.937988)" /><g
     id="g14"
     transform="translate(0,43.937988)" /><g
     id="g16"
     transform="translate(0,43.937988)" /><g
     id="g18"
     transform="translate(0,43.937988)" /><g
     id="g20"
     transform="translate(0,43.937988)" /><g
     id="g22"
     transform="translate(0,43.937988)" /><g
     id="g24"
     transform="translate(0,43.937988)" /><g
     id="g26"
     transform="translate(0,43.937988)" /><g
     id="g28"
     transform="translate(0,43.937988)" /><g
     id="g30"
     transform="translate(0,43.937988)" /><g
     id="g32"
     transform="translate(0,43.937988)" /><g
     id="g34"
     transform="translate(0,43.937988)" /></svg>