<?xml version="1.0" encoding="UTF-8" standalone="no"?>
<!-- Generator: Adobe Illustrator 19.0.0, SVG Export Plug-In . SVG Version: 6.00 Build 0)  -->

<svg
   xmlns:dc="http://purl.org/dc/elements/1.1/"
   xmlns:cc="http://creativecommons.org/ns#"
   xmlns:rdf="http://www.w3.org/1999/02/22-rdf-syntax-ns#"
   xmlns:svg="http://www.w3.org/2000/svg"
   xmlns="http://www.w3.org/2000/svg"
   xmlns:sodipodi="http://sodipodi.sourceforge.net/DTD/sodipodi-0.dtd"
   xmlns:inkscape="http://www.inkscape.org/namespaces/inkscape"
   version="1.1"
   id="Layer_1"
   x="0px"
   y="0px"
   viewBox="0 0 512.00001 512.00001"
   xml:space="preserve"
   sodipodi:docname="StatusActive.svg"
   inkscape:version="0.92.2 (5c3e80d, 2017-08-06)"
   width="512"
   height="512"><metadata
     id="metadata47"><rdf:RDF><cc:Work
         rdf:about=""><dc:format>image/svg+xml</dc:format><dc:type
           rdf:resource="http://purl.org/dc/dcmitype/StillImage" /><dc:title></dc:title></cc:Work></rdf:RDF></metadata><defs
     id="defs45" /><sodipodi:namedview
     pagecolor="#ffffff"
     bordercolor="#666666"
     borderopacity="1"
     objecttolerance="10"
     gridtolerance="10"
     guidetolerance="10"
     inkscape:pageopacity="0"
     inkscape:pageshadow="2"
     inkscape:window-width="2560"
     inkscape:window-height="1388"
     id="namedview43"
     showgrid="false"
     inkscape:zoom="0.48097794"
     inkscape:cx="-498.98338"
     inkscape:cy="245.3335"
     inkscape:window-x="-8"
     inkscape:window-y="-8"
     inkscape:window-maximized="1"
     inkscape:current-layer="Layer_1" /><g
     id="g10"
     transform="matrix(0.81779662,0,0,0.81779662,55.367093,55.367093)"
     style="fill:#8E8E8E;fill-opacity:1;stroke-width:1.22279787"><g
       id="g8"
       style="fill:#8E8E8E;fill-opacity:1;stroke-width:1.22279787"><g
         id="g6"
         style="fill:#8E8E8E;fill-opacity:1;stroke-width:1.22279787"><path
           d="m 447.701,109.355 -192,-106.667 c -6.464,-3.584 -14.272,-3.584 -20.736,0 l -192,106.667 C 36.203,113.131 32,120.256 32,128 c 0,14.805 2.432,362.667 213.333,362.667 210.901,0 213.334,-347.862 213.334,-362.667 0,-7.744 -4.203,-14.869 -10.966,-18.645 z M 245.333,448 C 96.064,448 77.333,199.275 74.986,140.373 L 245.333,45.717 415.658,140.373 C 413.333,199.275 394.603,448 245.333,448 Z"
           id="path2"
           inkscape:connector-curvature="0"
           style="fill:#8E8E8E;fill-opacity:1;stroke-width:1.22279787" /><polygon
           points="176,234.667 144,277.333 252.544,358.741 374.613,163.477 329.365,135.211 238.101,281.259 "
           id="polygon4"
           style="fill:#8E8E8E;fill-opacity:1;stroke-width:1.22279787" /></g></g></g><g
     id="g12"
     transform="translate(0,21.333008)" /><g
     id="g14"
     transform="translate(0,21.333008)" /><g
     id="g16"
     transform="translate(0,21.333008)" /><g
     id="g18"
     transform="translate(0,21.333008)" /><g
     id="g20"
     transform="translate(0,21.333008)" /><g
     id="g22"
     transform="translate(0,21.333008)" /><g
     id="g24"
     transform="translate(0,21.333008)" /><g
     id="g26"
     transform="translate(0,21.333008)" /><g
     id="g28"
     transform="translate(0,21.333008)" /><g
     id="g30"
     transform="translate(0,21.333008)" /><g
     id="g32"
     transform="translate(0,21.333008)" /><g
     id="g34"
     transform="translate(0,21.333008)" /><g
     id="g36"
     transform="translate(0,21.333008)" /><g
     id="g38"
     transform="translate(0,21.333008)" /><g
     id="g40"
     transform="translate(0,21.333008)" /></svg>