<?xml version="1.0" encoding="UTF-8" standalone="no"?>
<!-- Generator: Adobe Illustrator 19.0.0, SVG Export Plug-In . SVG Version: 6.00 Build 0)  -->

<svg
   xmlns:dc="http://purl.org/dc/elements/1.1/"
   xmlns:cc="http://creativecommons.org/ns#"
   xmlns:rdf="http://www.w3.org/1999/02/22-rdf-syntax-ns#"
   xmlns:svg="http://www.w3.org/2000/svg"
   xmlns="http://www.w3.org/2000/svg"
   xmlns:sodipodi="http://sodipodi.sourceforge.net/DTD/sodipodi-0.dtd"
   xmlns:inkscape="http://www.inkscape.org/namespaces/inkscape"
   version="1.1"
   id="Capa_1"
   x="0px"
   y="0px"
   viewBox="0 0 512 512"
   style="enable-background:new 0 0 512 512;"
   xml:space="preserve"
   width="512px"
   height="512px"
   sodipodi:docname="StateUnknown.svg"
   inkscape:version="0.92.2 (5c3e80d, 2017-08-06)"><metadata
     id="metadata49"><rdf:RDF><cc:Work
         rdf:about=""><dc:format>image/svg+xml</dc:format><dc:type
           rdf:resource="http://purl.org/dc/dcmitype/StillImage" /></cc:Work></rdf:RDF></metadata><defs
     id="defs47" /><sodipodi:namedview
     pagecolor="#ffffff"
     bordercolor="#666666"
     borderopacity="1"
     objecttolerance="10"
     gridtolerance="10"
     guidetolerance="10"
     inkscape:pageopacity="0"
     inkscape:pageshadow="2"
     inkscape:window-width="2560"
     inkscape:window-height="1388"
     id="namedview45"
     showgrid="false"
     inkscape:zoom="0.4609375"
     inkscape:cx="-520.67797"
     inkscape:cy="256"
     inkscape:window-x="-8"
     inkscape:window-y="-8"
     inkscape:window-maximized="1"
     inkscape:current-layer="Capa_1" /><g
     id="g12"
     transform="matrix(0.78125,0,0,0.78125,56,56)"
     style="stroke-width:1.27999985"><g
       id="g10"
       style="stroke-width:1.27999985"><g
         id="g8"
         style="stroke-width:1.27999985"><circle
           cx="256"
           cy="378.5"
           r="25"
           id="circle2"
           style="fill:#ffffff;stroke-width:1.27999985" /><path
           d="M 256,0 C 114.516,0 0,114.497 0,256 0,397.484 114.497,512 256,512 397.484,512 512,397.503 512,256 512,114.516 397.503,0 256,0 Z m 0,472 C 136.623,472 40,375.393 40,256 40,136.623 136.607,40 256,40 c 119.377,0 216,96.607 216,216 0,119.377 -96.607,216 -216,216 z"
           id="path4"
           inkscape:connector-curvature="0"
           style="fill:#ffffff;stroke-width:1.27999985" /><path
           d="m 256,128.5 c -44.112,0 -80,35.888 -80,80 0,11.046 8.954,20 20,20 11.046,0 20,-8.954 20,-20 0,-22.056 17.944,-40 40,-40 22.056,0 40,17.944 40,40 0,22.056 -17.944,40 -40,40 -11.046,0 -20,8.954 -20,20 v 50 c 0,11.046 8.954,20 20,20 11.046,0 20,-8.954 20,-20 v -32.531 c 34.466,-8.903 60,-40.26 60,-77.469 0,-44.112 -35.888,-80 -80,-80 z"
           id="path6"
           inkscape:connector-curvature="0"
           style="fill:#ffffff;stroke-width:1.27999985" /></g></g></g><g
     id="g14" /><g
     id="g16" /><g
     id="g18" /><g
     id="g20" /><g
     id="g22" /><g
     id="g24" /><g
     id="g26" /><g
     id="g28" /><g
     id="g30" /><g
     id="g32" /><g
     id="g34" /><g
     id="g36" /><g
     id="g38" /><g
     id="g40" /><g
     id="g42" /></svg>