<?xml version="1.0" encoding="UTF-8" standalone="no"?>
<!-- Generator: Adobe Illustrator 18.0.0, SVG Export Plug-In . SVG Version: 6.00 Build 0)  -->

<svg
   xmlns:dc="http://purl.org/dc/elements/1.1/"
   xmlns:cc="http://creativecommons.org/ns#"
   xmlns:rdf="http://www.w3.org/1999/02/22-rdf-syntax-ns#"
   xmlns:svg="http://www.w3.org/2000/svg"
   xmlns="http://www.w3.org/2000/svg"
   xmlns:sodipodi="http://sodipodi.sourceforge.net/DTD/sodipodi-0.dtd"
   xmlns:inkscape="http://www.inkscape.org/namespaces/inkscape"
   version="1.1"
   id="Capa_1"
   x="0px"
   y="0px"
   viewBox="0 0 329.992 329.992"
   style="enable-background:new 0 0 329.992 329.992;"
   xml:space="preserve"
   width="512px"
   height="512px"
   sodipodi:docname="Workflow.svg"
   inkscape:version="0.92.2 (5c3e80d, 2017-08-06)"><metadata
     id="metadata53"><rdf:RDF><cc:Work
         rdf:about=""><dc:format>image/svg+xml</dc:format><dc:type
           rdf:resource="http://purl.org/dc/dcmitype/StillImage" /></cc:Work></rdf:RDF></metadata><defs
     id="defs51" /><sodipodi:namedview
     pagecolor="#ffffff"
     bordercolor="#666666"
     borderopacity="1"
     objecttolerance="10"
     gridtolerance="10"
     guidetolerance="10"
     inkscape:pageopacity="0"
     inkscape:pageshadow="2"
     inkscape:window-width="2560"
     inkscape:window-height="1388"
     id="namedview49"
     showgrid="false"
     inkscape:zoom="0.4609375"
     inkscape:cx="-520.67797"
     inkscape:cy="256"
     inkscape:window-x="-8"
     inkscape:window-y="-8"
     inkscape:window-maximized="1"
     inkscape:current-layer="Capa_1" /><g
     id="g16"
     transform="matrix(0.78299933,0,0,0.78125237,35.803753,36.092875)"
     style="stroke-width:1.27856743"><path
       d="m 15.71,119.318 h 109.317 c 2.762,0 5,-2.239 5,-5 V 5 c 0,-2.761 -2.238,-5 -5,-5 H 15.71 c -2.763,0 -5,2.239 -5,5 v 109.318 c 0,2.762 2.237,5 5,5 z"
       id="path2"
       inkscape:connector-curvature="0"
       style="fill:#8E8E8E;stroke-width:1.31902289" /><path
       d="m 73.904,191.456 c -1.951,-1.952 -5.119,-1.952 -7.07,0 l -65,65 c -1.953,1.953 -1.953,5.119 0,7.071 l 65,65 c 0.976,0.976 2.256,1.464 3.535,1.464 1.279,0 2.56,-0.488 3.535,-1.464 l 65,-65 c 1.953,-1.953 1.953,-5.119 0,-7.071 z"
       id="path4"
       inkscape:connector-curvature="0"
       style="fill:#8E8E8E;stroke-width:1.31902289" /><path
       d="m 230.201,119.174 h 62.949 c 1.786,0 3.436,-0.953 4.33,-2.5 L 328.953,62.16 c 0.893,-1.547 0.893,-3.453 0,-5 L 297.48,2.645 c -0.893,-1.547 -2.544,-2.5 -4.33,-2.5 h -62.949 c -1.787,0 -3.438,0.953 -4.33,2.5 L 194.398,57.16 c -0.893,1.547 -0.893,3.453 0,5 l 31.473,54.514 c 0.894,1.547 2.543,2.5 4.33,2.5 z"
       id="path6"
       inkscape:connector-curvature="0"
       style="fill:#8E8E8E;stroke-width:1.31902289" /><path
       d="m 266.061,196.432 c -35.049,0 -63.563,28.513 -63.563,63.561 0,35.048 28.514,63.563 63.563,63.563 35.049,0 63.563,-28.514 63.563,-63.563 -0.001,-35.048 -28.515,-63.561 -63.563,-63.561 z"
       id="path8"
       inkscape:connector-curvature="0"
       style="fill:#8E8E8E;stroke-width:1.31902289" /><path
       d="m 65.369,126.496 c -1.933,0 -3.5,1.567 -3.5,3.5 v 46 c 0,1.933 1.567,3.5 3.5,3.5 h 8 c 1.933,0 3.5,-1.567 3.5,-3.5 v -46 c 0,-1.933 -1.567,-3.5 -3.5,-3.5 z"
       id="path10"
       inkscape:connector-curvature="0"
       style="fill:#8E8E8E;stroke-width:1.31902289" /><path
       d="m 261.061,128.164 c -1.933,0 -3.5,1.567 -3.5,3.5 v 46 c 0,1.933 1.567,3.5 3.5,3.5 h 8 c 1.933,0 3.5,-1.567 3.5,-3.5 v -46 c 0,-1.933 -1.567,-3.5 -3.5,-3.5 z"
       id="path12"
       inkscape:connector-curvature="0"
       style="fill:#8E8E8E;stroke-width:1.31902289" /><path
       d="m 181.246,53.336 h -34.918 c -1.934,0 -3.5,1.567 -3.5,3.5 v 8 c 0,1.933 1.566,3.5 3.5,3.5 h 34.918 c 1.932,0 3.5,-1.567 3.5,-3.5 v -8 c 0,-1.933 -1.568,-3.5 -3.5,-3.5 z"
       id="path14"
       inkscape:connector-curvature="0"
       style="fill:#8E8E8E;stroke-width:1.31902289" /></g><g
     id="g18" /><g
     id="g20" /><g
     id="g22" /><g
     id="g24" /><g
     id="g26" /><g
     id="g28" /><g
     id="g30" /><g
     id="g32" /><g
     id="g34" /><g
     id="g36" /><g
     id="g38" /><g
     id="g40" /><g
     id="g42" /><g
     id="g44" /><g
     id="g46" /></svg>