<?xml version="1.0" encoding="UTF-8" standalone="no"?>
<!-- Generator: Adobe Illustrator 17.1.0, SVG Export Plug-In . SVG Version: 6.00 Build 0)  -->

<svg
   xmlns:dc="http://purl.org/dc/elements/1.1/"
   xmlns:cc="http://creativecommons.org/ns#"
   xmlns:rdf="http://www.w3.org/1999/02/22-rdf-syntax-ns#"
   xmlns:svg="http://www.w3.org/2000/svg"
   xmlns="http://www.w3.org/2000/svg"
   xmlns:sodipodi="http://sodipodi.sourceforge.net/DTD/sodipodi-0.dtd"
   xmlns:inkscape="http://www.inkscape.org/namespaces/inkscape"
   version="1.1"
   id="Capa_1"
   x="0px"
   y="0px"
   viewBox="0 0 340.935 340.935"
   style="enable-background:new 0 0 340.935 340.935;"
   xml:space="preserve"
   width="512px"
   height="512px"
   sodipodi:docname="ZoomIn.svg"
   inkscape:version="0.92.2 (5c3e80d, 2017-08-06)"><metadata
     id="metadata43"><rdf:RDF><cc:Work
         rdf:about=""><dc:format>image/svg+xml</dc:format><dc:type
           rdf:resource="http://purl.org/dc/dcmitype/StillImage" /></cc:Work></rdf:RDF></metadata><defs
     id="defs41" /><sodipodi:namedview
     pagecolor="#ffffff"
     bordercolor="#666666"
     borderopacity="1"
     objecttolerance="10"
     gridtolerance="10"
     guidetolerance="10"
     inkscape:pageopacity="0"
     inkscape:pageshadow="2"
     inkscape:window-width="2560"
     inkscape:window-height="1388"
     id="namedview39"
     showgrid="false"
     inkscape:zoom="0.4609375"
     inkscape:cx="-520.67797"
     inkscape:cy="256"
     inkscape:window-x="-8"
     inkscape:window-y="-8"
     inkscape:window-maximized="1"
     inkscape:current-layer="Capa_1" /><g
     id="g6"
     transform="matrix(0.78124943,0,0,0.78126375,37.289765,37.288203)"
     style="stroke-width:1.27998912"><path
       d="m 153.452,107.378 h -18 v -19 c 0,-5.514 -4.486,-10 -10,-10 h -8 c -5.514,0 -10,4.486 -10,10 v 19 h -19 c -5.514,0 -10,4.486 -10,10 v 8 c 0,5.514 4.486,10 10,10 h 19 v 18 c 0,5.514 4.486,10 10,10 h 8 c 5.514,0 10,-4.486 10,-10 v -18 h 18 c 5.514,0 10,-4.486 10,-10 v -8 c 0,-5.514 -4.486,-10 -10,-10 z"
       id="path2"
       inkscape:connector-curvature="0"
       style="fill:#D9D9D9;stroke-width:1.32196772" /><path
       d="m 336.55,275.491 -70.045,-70.044 c -2.825,-2.826 -6.592,-4.382 -10.606,-4.382 -4.015,0 -7.781,1.556 -10.607,4.381 l -9.587,9.588 -20.118,-20.117 C 252.635,147.634 249.403,78.849 205.879,35.326 183.1,12.547 152.814,0.002 120.601,0.002 88.387,0.002 58.102,12.546 35.323,35.325 12.544,58.104 0,88.39 0,120.603 c 0,32.213 12.544,62.499 35.323,85.277 22.778,22.779 53.064,35.323 85.278,35.323 27.028,0 52.696,-8.835 73.715,-25.132 l 20.176,20.175 -9.047,9.047 c -5.848,5.848 -5.848,15.364 0,21.213 l 70.044,70.044 c 2.826,2.825 6.592,4.381 10.607,4.381 4.015,0 7.781,-1.556 10.607,-4.381 l 39.847,-39.848 c 5.847,-5.846 5.847,-15.362 0,-21.211 z M 56.536,184.668 C 39.424,167.556 30,144.804 30,120.603 30,96.402 39.424,73.65 56.536,56.538 73.648,39.426 96.4,30.002 120.601,30.002 c 24.2,0 46.952,9.424 64.064,26.536 35.325,35.326 35.325,92.804 0,128.129 -17.112,17.112 -39.864,26.536 -64.064,26.536 C 96.4,211.204 73.648,201.78 56.536,184.668 Z"
       id="path4"
       inkscape:connector-curvature="0"
       style="fill:#D9D9D9;stroke-width:1.32196772" /></g><g
     id="g8" /><g
     id="g10" /><g
     id="g12" /><g
     id="g14" /><g
     id="g16" /><g
     id="g18" /><g
     id="g20" /><g
     id="g22" /><g
     id="g24" /><g
     id="g26" /><g
     id="g28" /><g
     id="g30" /><g
     id="g32" /><g
     id="g34" /><g
     id="g36" /></svg>