<?xml version="1.0" encoding="UTF-8" standalone="no"?>
<svg
   xmlns:dc="http://purl.org/dc/elements/1.1/"
   xmlns:cc="http://creativecommons.org/ns#"
   xmlns:rdf="http://www.w3.org/1999/02/22-rdf-syntax-ns#"
   xmlns:svg="http://www.w3.org/2000/svg"
   xmlns="http://www.w3.org/2000/svg"
   xmlns:sodipodi="http://sodipodi.sourceforge.net/DTD/sodipodi-0.dtd"
   xmlns:inkscape="http://www.inkscape.org/namespaces/inkscape"
   height="512pt"
   viewBox="0 -5 682.66669 682.66669"
   width="512pt"
   version="1.1"
   id="svg12"
   sodipodi:docname="AlignCenter.svg"
   inkscape:version="0.92.2 (5c3e80d, 2017-08-06)">
  <metadata
     id="metadata18">
    <rdf:RDF>
      <cc:Work
         rdf:about="">
        <dc:format>image/svg+xml</dc:format>
        <dc:type
           rdf:resource="http://purl.org/dc/dcmitype/StillImage" />
        <dc:title></dc:title>
      </cc:Work>
    </rdf:RDF>
  </metadata>
  <defs
     id="defs16" />
  <sodipodi:namedview
     pagecolor="#ffffff"
     bordercolor="#666666"
     borderopacity="1"
     objecttolerance="10"
     gridtolerance="10"
     guidetolerance="10"
     inkscape:pageopacity="0"
     inkscape:pageshadow="2"
     inkscape:window-width="1920"
     inkscape:window-height="1028"
     id="namedview14"
     showgrid="false"
     inkscape:zoom="0.37739872"
     inkscape:cx="-56.968927"
     inkscape:cy="312.66667"
     inkscape:window-x="-8"
     inkscape:window-y="-8"
     inkscape:window-maximized="1"
     inkscape:current-layer="svg12" />
  <g
     id="g833"
     transform="translate(106.66732,106.83333)"
     style="fill:#3357FF;fill-opacity:1">
    <path
       id="path2"
       d="M 389.33203,32.167969 H 80 c -8.832031,0 -16,-7.167969 -16,-16 0,-8.832031 7.167969,-16 16,-16 h 309.33203 c 8.83203,0 16,7.167969 16,16 0,8.832031 -7.16797,16 -16,16 z m 0,0"
       inkscape:connector-curvature="0"
       style="fill:#3357FF;fill-opacity:1" />
    <path
       id="path4"
       d="M 453.33203,138.83203 H 16 c -8.832031,0 -16,-7.16797 -16,-16 0,-8.83203 7.167969,-16 16,-16 h 437.33203 c 8.83203,0 16,7.16797 16,16 0,8.83203 -7.16797,16 -16,16 z m 0,0"
       inkscape:connector-curvature="0"
       style="fill:#3357FF;fill-opacity:1" />
    <path
       id="path6"
       d="M 389.33203,245.5 H 80 c -8.832031,0 -16,-7.16797 -16,-16 0,-8.83203 7.167969,-16 16,-16 h 309.33203 c 8.83203,0 16,7.16797 16,16 0,8.83203 -7.16797,16 -16,16 z m 0,0"
       inkscape:connector-curvature="0"
       style="fill:#3357FF;fill-opacity:1" />
    <path
       id="path8"
       d="M 453.33203,352.16797 H 16 c -8.832031,0 -16,-7.16797 -16,-16 0,-8.83203 7.167969,-16 16,-16 h 437.33203 c 8.83203,0 16,7.16797 16,16 0,8.83203 -7.16797,16 -16,16 z m 0,0"
       inkscape:connector-curvature="0"
       style="fill:#3357FF;fill-opacity:1" />
    <path
       id="path10"
       d="M 389.33203,458.83203 H 80 c -8.832031,0 -16,-7.16797 -16,-16 0,-8.83203 7.167969,-16 16,-16 h 309.33203 c 8.83203,0 16,7.16797 16,16 0,8.83203 -7.16797,16 -16,16 z m 0,0"
       inkscape:connector-curvature="0"
       style="fill:#3357FF;fill-opacity:1" />
  </g>
</svg>
