<?xml version="1.0" encoding="UTF-8" standalone="no"?>
<!-- Generator: Adobe Illustrator 19.0.0, SVG Export Plug-In . SVG Version: 6.00 Build 0)  -->

<svg
   xmlns:dc="http://purl.org/dc/elements/1.1/"
   xmlns:cc="http://creativecommons.org/ns#"
   xmlns:rdf="http://www.w3.org/1999/02/22-rdf-syntax-ns#"
   xmlns:svg="http://www.w3.org/2000/svg"
   xmlns="http://www.w3.org/2000/svg"
   xmlns:sodipodi="http://sodipodi.sourceforge.net/DTD/sodipodi-0.dtd"
   xmlns:inkscape="http://www.inkscape.org/namespaces/inkscape"
   version="1.1"
   id="Capa_1"
   x="0px"
   y="0px"
   viewBox="0 0 54.908 54.908"
   style="enable-background:new 0 0 54.908 54.908;"
   xml:space="preserve"
   width="512px"
   height="512px"
   sodipodi:docname="Communication.svg"
   inkscape:version="0.92.2 (5c3e80d, 2017-08-06)"><metadata
     id="metadata47"><rdf:RDF><cc:Work
         rdf:about=""><dc:format>image/svg+xml</dc:format><dc:type
           rdf:resource="http://purl.org/dc/dcmitype/StillImage" /></cc:Work></rdf:RDF></metadata><defs
     id="defs45" /><sodipodi:namedview
     pagecolor="#ffffff"
     bordercolor="#666666"
     borderopacity="1"
     objecttolerance="10"
     gridtolerance="10"
     guidetolerance="10"
     inkscape:pageopacity="0"
     inkscape:pageshadow="2"
     inkscape:window-width="2560"
     inkscape:window-height="1388"
     id="namedview43"
     showgrid="false"
     inkscape:zoom="0.4609375"
     inkscape:cx="-520.67797"
     inkscape:cy="256"
     inkscape:window-x="-8"
     inkscape:window-y="-8"
     inkscape:window-maximized="1"
     inkscape:current-layer="Capa_1" /><g
     id="g10"
     transform="matrix(0.78495048,0,0,0.83728814,5.9039695,4.4662541)"
     style="stroke-width:1.23350644"><path
       d="M 54.615,19.123 C 47.372,11.879 37.725,7.89 27.454,7.89 17.183,7.89 7.537,11.878 0.293,19.123 c -0.391,0.391 -0.391,1.023 0,1.414 0.391,0.391 1.023,0.391 1.414,0 6.866,-6.867 16.01,-10.648 25.747,-10.648 9.737,0 18.881,3.781 25.747,10.647 0.195,0.195 0.451,0.293 0.707,0.293 0.256,0 0.512,-0.098 0.707,-0.293 0.391,-0.39 0.391,-1.023 0,-1.413 z"
       id="path2"
       inkscape:connector-curvature="0"
       style="fill:#1a76e7;stroke-width:1.27396572" /><path
       d="m 6.171,25 c -0.391,0.391 -0.391,1.023 0,1.414 0.195,0.195 0.451,0.293 0.707,0.293 0.256,0 0.512,-0.098 0.707,-0.293 10.955,-10.956 28.781,-10.956 39.737,0 0.391,0.391 1.023,0.391 1.414,0 0.391,-0.391 0.391,-1.023 0,-1.414 C 37.002,13.266 17.907,13.264 6.171,25 Z"
       id="path4"
       inkscape:connector-curvature="0"
       style="fill:#1a76e7;stroke-width:1.27396572" /><path
       d="m 27.454,24.508 c -5.825,0 -11.295,2.263 -15.404,6.371 -0.391,0.391 -0.391,1.023 0,1.414 0.391,0.391 1.023,0.391 1.414,0 3.731,-3.73 8.699,-5.785 13.99,-5.785 5.291,0 10.259,2.055 13.99,5.785 0.195,0.195 0.451,0.293 0.707,0.293 0.256,0 0.512,-0.098 0.707,-0.293 0.391,-0.391 0.391,-1.023 0,-1.414 -4.108,-4.108 -9.579,-6.371 -15.404,-6.371 z"
       id="path6"
       inkscape:connector-curvature="0"
       style="fill:#1a76e7;stroke-width:1.27396572" /><path
       d="m 27.454,33.916 c -3.612,0 -6.551,2.939 -6.551,6.552 0,3.613 2.939,6.552 6.551,6.552 3.613,0 6.552,-2.939 6.552,-6.552 0,-3.613 -2.939,-6.552 -6.552,-6.552 z"
       id="path8"
       inkscape:connector-curvature="0"
       style="fill:#1a76e7;stroke-width:1.27396572" /></g><g
     id="g12" /><g
     id="g14" /><g
     id="g16" /><g
     id="g18" /><g
     id="g20" /><g
     id="g22" /><g
     id="g24" /><g
     id="g26" /><g
     id="g28" /><g
     id="g30" /><g
     id="g32" /><g
     id="g34" /><g
     id="g36" /><g
     id="g38" /><g
     id="g40" /></svg>