<?xml version="1.0" encoding="UTF-8" standalone="no"?>
<!-- Generator: Adobe Illustrator 16.0.0, SVG Export Plug-In . SVG Version: 6.00 Build 0)  -->

<svg
   xmlns:dc="http://purl.org/dc/elements/1.1/"
   xmlns:cc="http://creativecommons.org/ns#"
   xmlns:rdf="http://www.w3.org/1999/02/22-rdf-syntax-ns#"
   xmlns:svg="http://www.w3.org/2000/svg"
   xmlns="http://www.w3.org/2000/svg"
   xmlns:sodipodi="http://sodipodi.sourceforge.net/DTD/sodipodi-0.dtd"
   xmlns:inkscape="http://www.inkscape.org/namespaces/inkscape"
   version="1.1"
   id="Capa_1"
   x="0px"
   y="0px"
   width="512px"
   height="512px"
   viewBox="0 0 59.167 59.167"
   style="enable-background:new 0 0 59.167 59.167;"
   xml:space="preserve"
   sodipodi:docname="Duplicate.svg"
   inkscape:version="0.92.2 (5c3e80d, 2017-08-06)"><metadata
     id="metadata49"><rdf:RDF><cc:Work
         rdf:about=""><dc:format>image/svg+xml</dc:format><dc:type
           rdf:resource="http://purl.org/dc/dcmitype/StillImage" /></cc:Work></rdf:RDF></metadata><defs
     id="defs47" /><sodipodi:namedview
     pagecolor="#ffffff"
     bordercolor="#666666"
     borderopacity="1"
     objecttolerance="10"
     gridtolerance="10"
     guidetolerance="10"
     inkscape:pageopacity="0"
     inkscape:pageshadow="2"
     inkscape:window-width="1680"
     inkscape:window-height="998"
     id="namedview45"
     showgrid="false"
     inkscape:zoom="0.4609375"
     inkscape:cx="-520.67797"
     inkscape:cy="256"
     inkscape:window-x="-8"
     inkscape:window-y="-8"
     inkscape:window-maximized="1"
     inkscape:current-layer="Capa_1" /><g
     id="g12"
     transform="matrix(0.76366342,0,0,0.7595332,6.9916632,7.1138496)"
     style="stroke-width:1.31303298"><g
       id="g10"
       style="stroke-width:1.31303298"><g
         id="g4"
         style="stroke-width:1.31303298"><path
           d="M 46.663,59.167 H 2.497 C 1.206,59.167 0.16,58.121 0.16,56.83 V 12.665 c 0,-1.291 1.046,-2.337 2.337,-2.337 h 44.166 c 1.291,0 2.337,1.047 2.337,2.337 V 56.83 c 0,1.29 -1.046,2.337 -2.337,2.337 z M 4.834,54.492 H 44.325 V 15.002 H 4.834 Z"
           id="path2"
           inkscape:connector-curvature="0"
           style="fill:#27B3FF;stroke-width:1.31303298" /></g><g
         id="g8"
         style="stroke-width:1.31303298"><path
           d="m 56.67,48.84 h -4.745 c -1.291,0 -2.337,-1.047 -2.337,-2.337 0,-1.291 1.046,-2.337 2.337,-2.337 h 2.408 V 4.675 H 14.841 v 2.6 c 0,1.291 -1.046,2.337 -2.337,2.337 -1.291,0 -2.337,-1.047 -2.337,-2.337 V 2.337 C 10.167,1.047 11.213,0 12.504,0 H 56.67 c 1.291,0 2.337,1.047 2.337,2.337 v 44.166 c 0,1.29 -1.046,2.337 -2.337,2.337 z"
           id="path6"
           inkscape:connector-curvature="0"
           style="fill:#27B3FF;stroke-width:1.31303298" /></g></g></g><g
     id="g14" /><g
     id="g16" /><g
     id="g18" /><g
     id="g20" /><g
     id="g22" /><g
     id="g24" /><g
     id="g26" /><g
     id="g28" /><g
     id="g30" /><g
     id="g32" /><g
     id="g34" /><g
     id="g36" /><g
     id="g38" /><g
     id="g40" /><g
     id="g42" /></svg>