<?xml version="1.0" encoding="UTF-8" standalone="no"?>
<!-- Generator: Adobe Illustrator 25.2.3, SVG Export Plug-In . SVG Version: 6.00 Build 0)  -->

<svg
   xmlns:dc="http://purl.org/dc/elements/1.1/"
   xmlns:cc="http://creativecommons.org/ns#"
   xmlns:rdf="http://www.w3.org/1999/02/22-rdf-syntax-ns#"
   xmlns:svg="http://www.w3.org/2000/svg"
   xmlns="http://www.w3.org/2000/svg"
   xmlns:sodipodi="http://sodipodi.sourceforge.net/DTD/sodipodi-0.dtd"
   xmlns:inkscape="http://www.inkscape.org/namespaces/inkscape"
   version="1.1"
   id="Ebene_1"
   x="0px"
   y="0px"
   viewBox="0 0 512 512"
   xml:space="preserve"
   sodipodi:docname="icon_arrow-expand.svg"
   width="512"
   height="512"
   inkscape:version="0.92.2 (5c3e80d, 2017-08-06)"><metadata
     id="metadata13"><rdf:RDF><cc:Work
         rdf:about=""><dc:format>image/svg+xml</dc:format><dc:type
           rdf:resource="http://purl.org/dc/dcmitype/StillImage" /><dc:title></dc:title></cc:Work></rdf:RDF></metadata><defs
     id="defs11" /><sodipodi:namedview
     pagecolor="#ffffff"
     bordercolor="#666666"
     borderopacity="1"
     objecttolerance="10"
     gridtolerance="10"
     guidetolerance="10"
     inkscape:pageopacity="0"
     inkscape:pageshadow="2"
     inkscape:window-width="1920"
     inkscape:window-height="1028"
     id="namedview9"
     showgrid="false"
     inkscape:zoom="0.4609375"
     inkscape:cx="-215.23219"
     inkscape:cy="137.46539"
     inkscape:window-x="-8"
     inkscape:window-y="-8"
     inkscape:window-maximized="1"
     inkscape:current-layer="Ebene_1" /><style
     type="text/css"
     id="style2">
	.st0{fill:#FF00FF;}
</style><g
     id="g822"
     transform="matrix(28.571429,0,0,28.571429,27.428568,27.428568)"
     style="stroke-width:0.035;fill:#335777;fill-opacity:1"><path
       id="path4"
       d="m 14.3,1 h -4 C 9.8,1 9.5,1.3 9.5,1.8 c 0,0.5 0.3,0.8 0.8,0.8 h 2.2 l -3,3 c -0.3,0.3 -0.3,0.8 0,1.1 0.1,0 0.3,0.1 0.5,0.1 0.2,0 0.4,-0.1 0.5,-0.2 l 3,-3 v 2.2 c 0,0.4 0.3,0.8 0.8,0.8 0.5,0 0.7,-0.4 0.7,-0.8 v -4 C 15,1.3 14.7,1 14.3,1 Z"
       class="st0"
       inkscape:connector-curvature="0"
       style="fill:#335777;stroke-width:0.0065479;fill-opacity:1" /><path
       id="path6"
       d="M 6.5,9.5 C 6.2,9.2 5.7,9.2 5.4,9.5 l -3,3 V 10.3 C 2.4,9.9 2.1,9.5 1.6,9.5 1.1,9.5 1,9.8 1,10.3 v 4 C 1,14.7 1.3,15 1.8,15 h 4 c 0.4,0 0.8,-0.3 0.8,-0.8 0,-0.5 -0.3,-0.8 -0.8,-0.8 H 3.6 l 3,-3 C 6.8,10.2 6.8,9.8 6.5,9.5 Z"
       class="st0"
       inkscape:connector-curvature="0"
       style="fill:#335777;stroke-width:0.0065479;fill-opacity:1" /></g></svg>