<?xml version="1.0" encoding="UTF-8" standalone="no"?>
<!-- Generator: Adobe Illustrator 21.0.0, SVG Export Plug-In . SVG Version: 6.00 Build 0)  -->

<svg
   xmlns:dc="http://purl.org/dc/elements/1.1/"
   xmlns:cc="http://creativecommons.org/ns#"
   xmlns:rdf="http://www.w3.org/1999/02/22-rdf-syntax-ns#"
   xmlns:svg="http://www.w3.org/2000/svg"
   xmlns="http://www.w3.org/2000/svg"
   xmlns:sodipodi="http://sodipodi.sourceforge.net/DTD/sodipodi-0.dtd"
   xmlns:inkscape="http://www.inkscape.org/namespaces/inkscape"
   version="1.1"
   id="Capa_1"
   x="0px"
   y="0px"
   viewBox="0 0 512 512"
   style="enable-background:new 0 0 512 512;"
   xml:space="preserve"
   width="512"
   height="512"
   sodipodi:docname="GeneralSettings.svg"
   inkscape:version="0.92.2 (5c3e80d, 2017-08-06)"><metadata
     id="metadata13"><rdf:RDF><cc:Work
         rdf:about=""><dc:format>image/svg+xml</dc:format><dc:type
           rdf:resource="http://purl.org/dc/dcmitype/StillImage" /></cc:Work></rdf:RDF></metadata><defs
     id="defs11" /><sodipodi:namedview
     pagecolor="#ffffff"
     bordercolor="#666666"
     borderopacity="1"
     objecttolerance="10"
     gridtolerance="10"
     guidetolerance="10"
     inkscape:pageopacity="0"
     inkscape:pageshadow="2"
     inkscape:window-width="2560"
     inkscape:window-height="1388"
     id="namedview9"
     showgrid="false"
     inkscape:zoom="0.4609375"
     inkscape:cx="-994.71187"
     inkscape:cy="256"
     inkscape:window-x="-8"
     inkscape:window-y="-8"
     inkscape:window-maximized="1"
     inkscape:current-layer="Capa_1" /><g
     id="g817"
     transform="matrix(0.83333333,0,0,0.83333333,42.666668,42.666668)"
     style="stroke-width:1.20000005"><g
       transform="matrix(0.9375,0,0,0.9375,16,16)"
       style="fill:#3357FF;fill-opacity:1;stroke-width:1.27999985"
       id="g6"><path
         inkscape:connector-curvature="0"
         style="fill:#3357FF;fill-opacity:1;stroke-width:1.27999985"
         id="path2"
         d="m 354.643,290.995 c 13.462,-37.866 4.248,-80.596 -24.404,-109.233 -31.172,-31.201 -79.087,-39.346 -119.209,-20.273 -4.395,2.095 -7.515,6.196 -8.335,11.001 -0.835,4.805 0.732,9.712 4.175,13.154 L 241,219.789 V 241 h -21.211 l -34.146,-34.131 c -3.472,-3.457 -8.379,-5.01 -13.154,-4.175 -4.805,0.82 -8.906,3.94 -11.001,8.335 -19.072,40.122 -10.928,88.022 20.273,119.209 28.623,28.608 71.323,37.852 109.233,24.404 l 152.919,152.904 c 2.93,2.93 6.768,4.395 10.605,4.395 3.837,0 7.676,-1.465 10.605,-4.395 l 42.422,-42.422 c 5.859,-5.859 5.859,-15.352 0,-21.211 z" /><path
         inkscape:connector-curvature="0"
         style="fill:#3357FF;fill-opacity:1;stroke-width:1.27999985"
         id="path4"
         d="m 503.709,212.582 -30.517,-14.751 c -5.068,-18.94 -12.612,-37.119 -22.5,-54.214 l 10.459,-31.362 c 1.787,-5.391 0.381,-11.338 -3.633,-15.352 L 415.096,54.481 C 411.082,50.467 405.12,49.09 399.744,50.848 L 368.382,61.307 C 351.287,51.419 333.109,43.875 314.168,38.807 L 299.418,8.291 C 296.869,3.208 291.684,0 286,0 h -60 c -5.684,0 -10.869,3.208 -13.418,8.291 l -14.751,30.517 c -18.94,5.068 -37.119,12.612 -54.214,22.5 L 112.255,50.849 c -5.391,-1.758 -11.338,-0.381 -15.352,3.633 L 54.481,96.903 c -4.014,4.014 -5.42,9.961 -3.633,15.352 l 10.459,31.362 c -9.888,17.095 -17.432,35.273 -22.5,54.214 L 8.291,212.582 C 3.208,215.131 0,220.316 0,226 v 60 c 0,5.684 3.208,10.869 8.291,13.418 l 30.517,14.751 c 5.068,18.94 12.612,37.119 22.5,54.214 l -10.459,31.362 c -1.787,5.391 -0.381,11.338 3.633,15.352 l 42.422,42.422 c 4.014,4.014 9.961,5.435 15.352,3.633 l 31.362,-10.459 c 17.095,9.888 35.273,17.432 54.214,22.5 l 14.751,30.517 c 2.548,5.082 7.733,8.29 13.417,8.29 h 60 c 5.684,0 10.869,-3.208 13.418,-8.291 l 14.751,-30.517 c 13.35,-3.563 26.239,-8.383 38.639,-14.321 l -46.097,-46.093 c -16.448,5.288 -33.446,8.134 -50.462,8.134 -42.7,0 -85.122,-16.436 -116.924,-48.237 -64.336,-64.336 -64.336,-169.014 0,-233.35 64.336,-64.336 169.014,-64.336 233.35,0 44.423,44.423 58.262,109.433 39.827,167.086 l 46.373,46.386 c 5.934,-12.396 10.756,-25.281 14.317,-38.628 l 30.517,-14.751 C 508.792,296.869 512,291.684 512,286 v -60 c 0,-5.684 -3.208,-10.869 -8.291,-13.418 z" /></g></g></svg>