<?xml version="1.0" encoding="UTF-8" standalone="no"?>
<svg
   xmlns:dc="http://purl.org/dc/elements/1.1/"
   xmlns:cc="http://creativecommons.org/ns#"
   xmlns:rdf="http://www.w3.org/1999/02/22-rdf-syntax-ns#"
   xmlns:svg="http://www.w3.org/2000/svg"
   xmlns="http://www.w3.org/2000/svg"
   xmlns:sodipodi="http://sodipodi.sourceforge.net/DTD/sodipodi-0.dtd"
   xmlns:inkscape="http://www.inkscape.org/namespaces/inkscape"
   height="512"
   viewBox="0 -3 384.55737 383.99999"
   width="512"
   version="1.1"
   id="svg32"
   sodipodi:docname="History.svg"
   inkscape:version="0.92.2 (5c3e80d, 2017-08-06)">
  <metadata
     id="metadata38">
    <rdf:RDF>
      <cc:Work
         rdf:about="">
        <dc:format>image/svg+xml</dc:format>
        <dc:type
           rdf:resource="http://purl.org/dc/dcmitype/StillImage" />
        <dc:title />
      </cc:Work>
    </rdf:RDF>
  </metadata>
  <defs
     id="defs36" />
  <sodipodi:namedview
     pagecolor="#ffffff"
     bordercolor="#666666"
     borderopacity="1"
     objecttolerance="10"
     gridtolerance="10"
     guidetolerance="10"
     inkscape:pageopacity="0"
     inkscape:pageshadow="2"
     inkscape:window-width="2560"
     inkscape:window-height="1388"
     id="namedview34"
     showgrid="false"
     inkscape:zoom="0.37579618"
     inkscape:cx="-1220.0763"
     inkscape:cy="314"
     inkscape:window-x="-8"
     inkscape:window-y="-8"
     inkscape:window-maximized="1"
     inkscape:current-layer="svg32"
     units="px" />
  <g
     id="g841"
     transform="matrix(0.63008205,0,0,0.63247434,43.678952,43.647564)"
     style="stroke-width:1.58409047">
    <path
       style="fill:#3357FF;fill-opacity:1;stroke:#3357FF;stroke-width:8.12747002;stroke-miterlimit:4;stroke-dasharray:none;stroke-opacity:1"
       id="path2"
       d="m 19.761719,275.10937 c -1.949219,-10.11328 -3.199219,-20.34765 -3.75,-30.63281 -0.238281,-4.41797 -4.015625,-7.80469 -8.433594,-7.5664 -4.417969,0.23828 -7.804687,4.01562 -7.5664062,8.43359 0.5820312,11.01172 1.9179692,21.96875 4.0000002,32.79687 0.726562,3.75782 4.011719,6.47657 7.839843,6.48047 0.511719,0 1.023438,-0.0469 1.527344,-0.14453 2.089844,-0.39062 3.941406,-1.59765 5.136719,-3.35547 1.199219,-1.75781 1.648437,-3.92187 1.246094,-6.01172 z m 0,0"
       inkscape:connector-curvature="0" />
    <path
       style="fill:#3357FF;fill-opacity:1;stroke:#3357FF;stroke-width:8.12747002;stroke-miterlimit:4;stroke-dasharray:none;stroke-opacity:1"
       id="path4"
       d="m 55.492188,359.86328 c -2.515626,-3.63672 -7.503907,-4.54297 -11.136719,-2.02344 -3.632813,2.51563 -4.539063,7.5 -2.023438,11.13282 6.285157,9.07031 13.183594,17.6914 20.65625,25.80859 2.988281,3.25391 8.050781,3.46875 11.304688,0.48047 3.253906,-2.98828 3.46875,-8.05078 0.480469,-11.30469 -6.972657,-7.57812 -13.414063,-15.62891 -19.28125,-24.09375 z m 0,0"
       inkscape:connector-curvature="0" />
    <path
       style="fill:#3357FF;fill-opacity:1;stroke:#3357FF;stroke-width:8.12747002;stroke-miterlimit:4;stroke-dasharray:none;stroke-opacity:1"
       id="path6"
       d="m 7.835938,220.90234 c 0.222656,0.0117 0.441406,0.0117 0.664062,0 4.175781,0.0156 7.65625,-3.18359 8,-7.34375 0.839844,-10.26562 2.398438,-20.46093 4.65625,-30.51172 0.96875,-4.32031 -1.75,-8.60546 -6.070312,-9.57421 -4.316407,-0.96485 -8.601563,1.75 -9.570313,6.07031 -2.429687,10.78125 -4.109375,21.71484 -5.03125,32.72656 -0.175781,2.12109 0.503906,4.22266 1.882813,5.84375 1.378906,1.62109 3.347656,2.625 5.46875,2.78906 z m 0,0"
       inkscape:connector-curvature="0" />
    <path
       style="fill:#3357FF;fill-opacity:1;stroke:#3357FF;stroke-width:8.12747002;stroke-miterlimit:4;stroke-dasharray:none;stroke-opacity:1"
       id="path8"
       d="m 122.28516,423.16797 c -8.77344,-5.41016 -17.16016,-11.41406 -25.105472,-17.97656 -3.40625,-2.81641 -8.449219,-2.33594 -11.265626,1.07031 -2.8125,3.40625 -2.332031,8.44922 1.074219,11.26562 8.515625,7.01953 17.496099,13.45313 26.886719,19.25391 2.43359,1.63281 5.5625,1.80078 8.15625,0.44531 2.59766,-1.35547 4.24609,-4.01953 4.29688,-6.94531 0.0508,-2.92969 -1.5,-5.65234 -4.04297,-7.09766 z m 0,0"
       inkscape:connector-curvature="0" />
    <path
       style="fill:#3357FF;fill-opacity:1;stroke:#3357FF;stroke-width:8.12747002;stroke-miterlimit:4;stroke-dasharray:none;stroke-opacity:1"
       id="path10"
       d="m 19.636719,158.16797 c 0.898437,0.33594 1.851562,0.50781 2.816406,0.51172 3.332031,0 6.3125,-2.06641 7.488281,-5.1875 2.699219,-7.20703 5.777344,-14.26563 9.222656,-21.14844 1.933594,-3.94922 0.324219,-8.71484 -3.609374,-10.67969 -3.929688,-1.96093 -8.707032,-0.39062 -10.703126,3.52735 -3.683593,7.38281 -6.988281,14.94921 -9.894531,22.67187 -1.554687,4.13672 0.539063,8.75 4.679688,10.30469 z m 0,0"
       inkscape:connector-curvature="0" />
    <path
       style="fill:#3357FF;fill-opacity:1;stroke:#3357FF;stroke-width:8.12747002;stroke-miterlimit:4;stroke-dasharray:none;stroke-opacity:1"
       id="path12"
       d="m 27.683594,304.92578 c -1.429688,-4.17969 -5.980469,-6.41016 -10.164063,-4.98047 -4.183593,1.4336 -6.410156,5.98438 -4.980469,10.16406 3.589844,10.44141 7.890626,20.6211 12.871094,30.47266 2.050782,3.83594 6.789063,5.33203 10.671875,3.36719 3.878907,-1.96094 5.480469,-6.66797 3.601563,-10.58985 -4.652344,-9.1914 -8.660156,-18.6914 -12,-28.43359 z m 0,0"
       inkscape:connector-curvature="0" />
    <path
       style="fill:#3357FF;fill-opacity:1;stroke:#3357FF;stroke-width:8.12747002;stroke-miterlimit:4;stroke-dasharray:none;stroke-opacity:1"
       id="path14"
       d="m 178.68359,447.94141 c -9.91406,-2.78907 -19.62109,-6.26563 -29.05468,-10.39844 -4.01563,-1.60938 -8.57813,0.26172 -10.3086,4.22265 -1.73047,3.96094 0,8.58204 3.90625,10.4336 10.11719,4.4414 20.52344,8.18359 31.15235,11.19922 0.71093,0.19922 1.4414,0.30078 2.17578,0.30468 4,0.004 7.39062,-2.94531 7.9375,-6.90625 0.54687,-3.96484 -1.91797,-7.72265 -5.76953,-8.79687 z m 0,0"
       inkscape:connector-curvature="0" />
    <path
       style="fill:#3357FF;fill-opacity:1;stroke:#3357FF;stroke-width:8.12747002;stroke-miterlimit:4;stroke-dasharray:none;stroke-opacity:1"
       id="path16"
       d="m 45.585938,299.60547 c 1.683593,4.08594 6.359374,6.03906 10.445312,4.35547 4.085938,-1.67969 6.039062,-6.35547 4.355469,-10.44141 -3.90625,-9.44531 -7,-19.20703 -9.238281,-29.17578 -0.957032,-4.31641 -5.230469,-7.04297 -9.546876,-6.08594 -4.320312,0.95703 -7.042968,5.23047 -6.085937,9.54688 2.445313,10.86718 5.816406,21.50781 10.070313,31.80078 z m 0,0"
       inkscape:connector-curvature="0" />
    <path
       style="fill:#3357FF;fill-opacity:1;stroke:#3357FF;stroke-width:8.12747002;stroke-miterlimit:4;stroke-dasharray:none;stroke-opacity:1"
       id="path18"
       d="m 47.035156,179 c 0.777344,0.24219 1.585938,0.36328 2.402344,0.36719 3.492188,0 6.582031,-2.26953 7.628906,-5.60157 3.058594,-9.77343 6.890625,-19.28906 11.464844,-28.45703 1.988281,-3.94531 0.398438,-8.75781 -3.546875,-10.74609 -3.949219,-1.98828 -8.761719,-0.39844 -10.75,3.54687 -4.957031,9.92969 -9.113281,20.24219 -12.429687,30.83204 -0.644532,2.02734 -0.457032,4.22656 0.527343,6.11718 0.980469,1.88672 2.675781,3.30469 4.703125,3.94141 z m 0,0"
       inkscape:connector-curvature="0" />
    <path
       style="fill:#3357FF;fill-opacity:1;stroke:#3357FF;stroke-width:8.12747002;stroke-miterlimit:4;stroke-dasharray:none;stroke-opacity:1"
       id="path20"
       d="m 47.683594,233.98047 v -1.53516 c 0.128906,-9.62109 0.929687,-19.22265 2.398437,-28.73437 0.492188,-2.85547 -0.597656,-5.75 -2.847656,-7.57032 -2.25,-1.82031 -5.308594,-2.28515 -8,-1.21484 -2.6875,1.07422 -4.585937,3.51563 -4.964844,6.38281 -1.582031,10.23438 -2.445312,20.56641 -2.585937,30.92188 v 2.1289 c 0.0078,2.10157 0.855468,4.11329 2.359375,5.58594 1.507812,1.46875 3.539062,2.27344 5.640625,2.23047 4.457031,-0.0898 8.019531,-3.73437 8,-8.19531 z m 0,0"
       inkscape:connector-curvature="0" />
    <path
       style="fill:#3357FF;fill-opacity:1;stroke:#3357FF;stroke-width:8.12747002;stroke-miterlimit:4;stroke-dasharray:none;stroke-opacity:1"
       id="path22"
       d="m 136.35547,389.02344 c -8.35156,-6.02344 -16.27734,-12.6211 -23.71094,-19.7461 -3.20703,-2.92968 -8.17187,-2.76562 -11.17578,0.3711 -3.003906,3.14062 -2.957031,8.10547 0.10938,11.18359 7.97265,7.64453 16.47265,14.72266 25.43359,21.18359 3.58594,2.57813 8.58594,1.76172 11.16797,-1.82421 2.58203,-3.58985 1.76172,-8.58985 -1.82422,-11.16797 z m 0,0"
       inkscape:connector-curvature="0" />
    <path
       style="fill:#3357FF;fill-opacity:1;stroke:#3357FF;stroke-width:8.12747002;stroke-miterlimit:4;stroke-dasharray:none;stroke-opacity:1"
       id="path24"
       d="m 190.88281,416.72656 c -9.74609,-3.07812 -19.21484,-6.96875 -28.3125,-11.63281 -3.93359,-2.01172 -8.7539,-0.44922 -10.76172,3.48437 -2.01172,3.9336 -0.45312,8.75391 3.48438,10.76563 9.89453,5.06641 20.19922,9.29687 30.79687,12.64453 4.21875,1.32813 8.70703,-1.01562 10.03516,-5.23047 1.32422,-4.21484 -1.01953,-8.70703 -5.23438,-10.03125 z m 0,0"
       inkscape:connector-curvature="0" />
    <path
       style="fill:#3357FF;fill-opacity:1;stroke:#3357FF;stroke-width:8.12747002;stroke-miterlimit:4;stroke-dasharray:none;stroke-opacity:1"
       id="path26"
       d="m 90.539062,357.6875 c 3.453126,-2.75391 4.023438,-7.78516 1.273438,-11.24219 -6.4375,-8.05859 -12.316406,-16.54297 -17.601562,-25.39844 -1.386719,-2.60156 -4.09375,-4.22656 -7.042969,-4.23046 -2.945313,-0.004 -5.660157,1.60937 -7.054688,4.20703 -1.398437,2.59375 -1.257812,5.75 0.371094,8.20703 5.652344,9.48047 11.941406,18.5664 18.824219,27.19922 2.753906,3.45703 7.792968,4.02343 11.246094,1.26562 z m 0,0"
       inkscape:connector-curvature="0" />
    <path
       style="fill:#3357FF;fill-opacity:1;stroke:#3357FF;stroke-width:8.12747002;stroke-miterlimit:4;stroke-dasharray:none;stroke-opacity:1"
       id="path28"
       d="m 239.68359,80.34375 c -4.41797,0 -8,3.582031 -8,8 v 144 c 0,2.12109 0.84375,4.15625 2.34375,5.65625 l 80,80 c 3.14063,3.03125 8.12891,2.98828 11.21485,-0.0977 3.08593,-3.08593 3.1289,-8.07812 0.0976,-11.21484 l -77.6562,-77.65621 V 88.34375 c 0,-4.417969 -3.58203,-8 -8,-8 z m 0,0"
       inkscape:connector-curvature="0" />
    <path
       style="fill:#3357FF;fill-opacity:1;stroke:#3357FF;stroke-width:8.12747002;stroke-miterlimit:4;stroke-dasharray:none;stroke-opacity:1"
       id="path30"
       d="M 239.68359,0.34375 C 193.01172,0.265625 147.41016,14.324219 108.88281,40.664062 L 71.683594,0.34375 60.402344,85.0625 l -4.71875,35.28125 20.398437,-2.88281 91.601559,-13.11719 -36.71875,-39.761719 c 71.61328,-46.480469 164.83594,-42.378906 232.08985,10.210938 67.25,52.593751 93.70703,142.078121 65.85937,222.785151 -27.84765,80.70313 -103.85547,134.83594 -189.23047,134.76563 h -16 l -16,32 h 32 c 128.12891,0 232,-103.87109 232,-232 0,-128.13281 -103.87109,-232 -232,-232 z m 0,0"
       inkscape:connector-curvature="0" />
  </g>
</svg>
