<?xml version="1.0" encoding="UTF-8" standalone="no"?>
<!-- Generator: Adobe Illustrator 18.1.1, SVG Export Plug-In . SVG Version: 6.00 Build 0)  -->

<svg
   xmlns:dc="http://purl.org/dc/elements/1.1/"
   xmlns:cc="http://creativecommons.org/ns#"
   xmlns:rdf="http://www.w3.org/1999/02/22-rdf-syntax-ns#"
   xmlns:svg="http://www.w3.org/2000/svg"
   xmlns="http://www.w3.org/2000/svg"
   xmlns:sodipodi="http://sodipodi.sourceforge.net/DTD/sodipodi-0.dtd"
   xmlns:inkscape="http://www.inkscape.org/namespaces/inkscape"
   version="1.1"
   id="Capa_1"
   x="0px"
   y="0px"
   viewBox="0 0 29.978 29.978"
   style="enable-background:new 0 0 29.978 29.978;"
   xml:space="preserve"
   width="512px"
   height="512px"
   sodipodi:docname="Export.svg"
   inkscape:version="0.92.2 (5c3e80d, 2017-08-06)"><metadata
     id="metadata73"><rdf:RDF><cc:Work
         rdf:about=""><dc:format>image/svg+xml</dc:format><dc:type
           rdf:resource="http://purl.org/dc/dcmitype/StillImage" /><dc:title /></cc:Work></rdf:RDF></metadata><defs
     id="defs71" /><sodipodi:namedview
     pagecolor="#ffffff"
     bordercolor="#666666"
     borderopacity="1"
     objecttolerance="10"
     gridtolerance="10"
     guidetolerance="10"
     inkscape:pageopacity="0"
     inkscape:pageshadow="2"
     inkscape:window-width="1920"
     inkscape:window-height="1028"
     id="namedview69"
     showgrid="false"
     inkscape:zoom="0.65186406"
     inkscape:cx="-456.89582"
     inkscape:cy="347.07443"
     inkscape:window-x="-8"
     inkscape:window-y="-8"
     inkscape:window-maximized="1"
     inkscape:current-layer="g36" /><g
     id="g36"><path
       d="m 23.212529,18.115239 v 5.201283 H 6.7654709 V 18.115239 H 3.6043568 v 6.730223 c 0,0.843842 0.7066574,1.528181 1.5829126,1.528181 H 24.790731 c 0.87547,0 1.582912,-0.68358 1.582912,-1.528181 v -6.730223 z"
       id="path2"
       inkscape:connector-curvature="0"
       style="fill:#335777;stroke-width:0.99999994" /><path
       d="m 15.276805,17.599516 4.525748,-5.290149 c 0,0 0.688598,-0.628893 -0.0581,-0.628893 -0.746702,0 -2.550248,0 -2.550248,0 0,0 0,-0.42306 0,-1.075499 0,-1.8600973 0,-5.2453365 0,-6.6254085 0,0 0.101288,-0.37521 -0.482882,-0.37521 -0.588882,0 -3.168181,0 -3.58982,0 -0.420854,0 -0.411432,0.315966 -0.411432,0.315966 0,1.338298 0,4.8405052 0,6.6398395 0,0.583322 0,0.961569 0,0.961569 0,0 -1.446292,0 -2.353954,0 -0.9060918,0 -0.223775,0.658516 -0.223775,0.658516 0,0 3.850498,4.944561 4.387557,5.463322 0.386306,0.375969 0.756909,-0.04405 0.756909,-0.04405 z"
       id="path4"
       inkscape:connector-curvature="0"
       style="fill:#335777;stroke-width:0.99999994" /><g
       id="g6" /><g
       id="g8" /><g
       id="g10" /><g
       id="g12" /><g
       id="g14" /><g
       id="g16" /><g
       id="g18" /><g
       id="g20" /><g
       id="g22" /><g
       id="g24" /><g
       id="g26" /><g
       id="g28" /><g
       id="g30" /><g
       id="g32" /><g
       id="g34" /></g><g
     id="g38" /><g
     id="g40" /><g
     id="g42" /><g
     id="g44" /><g
     id="g46" /><g
     id="g48" /><g
     id="g50" /><g
     id="g52" /><g
     id="g54" /><g
     id="g56" /><g
     id="g58" /><g
     id="g60" /><g
     id="g62" /><g
     id="g64" /><g
     id="g66" /></svg>