<?xml version="1.0" encoding="UTF-8" standalone="no"?>
<svg
   xmlns:dc="http://purl.org/dc/elements/1.1/"
   xmlns:cc="http://creativecommons.org/ns#"
   xmlns:rdf="http://www.w3.org/1999/02/22-rdf-syntax-ns#"
   xmlns:svg="http://www.w3.org/2000/svg"
   xmlns="http://www.w3.org/2000/svg"
   xmlns:sodipodi="http://sodipodi.sourceforge.net/DTD/sodipodi-0.dtd"
   xmlns:inkscape="http://www.inkscape.org/namespaces/inkscape"
   version="1.1"
   viewBox="1px 1px 511.999px 511.999px"
   xml:space="preserve"
   width="512px"
   height="512px"
   id="svg36"
   sodipodi:docname="Log.svg"
   inkscape:version="0.92.2 (5c3e80d, 2017-08-06)"><metadata
     id="metadata42"><rdf:RDF><cc:Work
         rdf:about=""><dc:format>image/svg+xml</dc:format><dc:type
           rdf:resource="http://purl.org/dc/dcmitype/StillImage" /></cc:Work></rdf:RDF></metadata><defs
     id="defs40" /><sodipodi:namedview
     pagecolor="#ffffff"
     bordercolor="#666666"
     borderopacity="1"
     objecttolerance="10"
     gridtolerance="10"
     guidetolerance="10"
     inkscape:pageopacity="0"
     inkscape:pageshadow="2"
     inkscape:window-width="2560"
     inkscape:window-height="1388"
     id="namedview38"
     showgrid="false"
     inkscape:zoom="1.3037281"
     inkscape:cx="-191.26081"
     inkscape:cy="253.30438"
     inkscape:window-x="-8"
     inkscape:window-y="-8"
     inkscape:window-maximized="1"
     inkscape:current-layer="g4" /><g
     id="g4"
     transform="matrix(15.859675,0,0,14.995782,15.184421,15.999994)"
     style="stroke-width:0.97482431"><path
       d="M 19.618722,10.384085 H 7.725957 V 8.946584 h 11.892765 z m -7.422465,1.316666 h -4.4703 v 1.436666 h 4.4703 z M 16.265996,6.1940837 H 7.725957 V 7.631584 h 8.540039 z m -4.069739,8.2591683 h -4.4703 v 1.437499 h 4.4703 z m 7.588186,9.119167 0.93853,1.375833 h 0.02498 c 0.192369,0 0.377244,-0.035 0.556289,-0.08583 l -0.879401,-1.290003 z m -3.816578,-5.597501 3.816578,5.597501 h -1.201685 l -3.205326,-4.700835 -0.739498,-1.084166 c -0.05829,-0.07 -0.113256,-0.1425 -0.157393,-0.230833 l -0.04247,-0.06166 0.01499,-0.01001 c -0.03664,-0.08334 -0.07745,-0.164166 -0.100765,-0.263332 l -1.008483,-4.2725 c -0.140738,-0.595834 0.01083,-0.929167 0.351428,-0.929167 0.169052,0 0.385572,0.08166 0.635403,0.255 l 3.608385,2.498334 c 0.08244,0.05833 0.152397,0.119999 0.21652,0.184999 l 0.01,-0.0067 0.03581,0.05166 c 0.07995,0.08583 0.139905,0.179167 0.187373,0.273334 l 0.715348,1.05 2.577418,3.78 v 2.2025 c 0,0.685 -0.42721,1.263334 -0.933533,1.263334 h -0.323124 l -4.008114,-5.877459 -0.305626,0.208334 c -0.04747,0.0325 -0.09493,0.0475 -0.143236,0.07167 z m 1.476499,-2.5325 -3.174513,-2.198333 0.887731,3.759167 z M 6.6250372,23.572419 c -0.5063231,0 -0.9335333,-0.579167 -0.9335333,-1.263334 V 5.3057504 c 0,-0.6841667 0.4272102,-1.2625001 0.9335333,-1.2625001 H 20.747956 c 0.506323,0 0.933533,0.5791667 0.933533,1.2625001 V 20.106585 l 1.375733,2.0175 V 5.3057504 c 0,-1.4550001 -1.035964,-2.6383336 -2.309266,-2.6383336 H 6.6250372 c -1.2733028,0 -2.3092666,1.1833335 -2.3092666,2.6383336 V 22.309085 c 0,1.455 1.0359638,2.639167 2.3092666,2.639167 H 19.520455 l -0.93853,-1.375833 z M 7.725957,21.395752 h 6.734598 V 19.959085 H 7.725957 Z m 18.309245,5.6325 c -0.0075,0.525833 -0.258158,1.041667 -0.722843,1.359166 l -0.976005,0.665834 c -0.284806,0.195834 -0.611251,0.288333 -0.934366,0.288333 -0.189038,0 -0.37308,-0.0425 -0.551292,-0.104166 -0.28564,-0.05 -0.531306,-0.185001 -0.684536,-0.41 -0.02415,-0.03416 -0.03664,-0.07333 -0.05496,-0.110833 -0.02831,-0.03416 -0.06329,-0.06166 -0.08911,-0.1 l -2.501636,-3.668334 h 1.201685 l 0.303127,0.445 0.437204,-0.2975 -0.159059,-0.233334 c 1.004319,-0.286666 1.752978,-1.318332 1.752978,-2.553333 v -0.185833 l 2.691507,3.9475 c 0.02831,0.0425 0.04663,0.08667 0.07078,0.13 0.02415,0.02833 0.05247,0.05083 0.07328,0.08167 0.1474,0.214167 0.188205,0.476667 0.143236,0.745834 z m -1.421536,-1.145 -0.897724,-1.315 -2.351738,1.606666 0.897724,1.315001 c 0.144069,-0.225833 0.340603,-0.439167 0.592099,-0.610001 l 0.976004,-0.667499 c 0.250664,-0.171667 0.520481,-0.2775 0.783635,-0.329167 z M 12.960739,17.204918 H 7.725957 v 1.4375 h 5.234782 z"
       id="path2"
       inkscape:connector-curvature="0"
       style="fill:#335777;stroke-width:0.97482437"
       sodipodi:nodetypes="ccccccccccccccccccccccscccccccccccccsccccccccssccccccccssssssccssssssccsccccccccscccccccccsccccccccccccccccc" /></g><g
     id="g6" /><g
     id="g8" /><g
     id="g10" /><g
     id="g12" /><g
     id="g14" /><g
     id="g16" /><g
     id="g18" /><g
     id="g20" /><g
     id="g22" /><g
     id="g24" /><g
     id="g26" /><g
     id="g28" /><g
     id="g30" /><g
     id="g32" /><g
     id="g34" /></svg>