<?xml version="1.0" encoding="UTF-8" standalone="no"?>
<svg
   xmlns:dc="http://purl.org/dc/elements/1.1/"
   xmlns:cc="http://creativecommons.org/ns#"
   xmlns:rdf="http://www.w3.org/1999/02/22-rdf-syntax-ns#"
   xmlns:svg="http://www.w3.org/2000/svg"
   xmlns="http://www.w3.org/2000/svg"
   xmlns:sodipodi="http://sodipodi.sourceforge.net/DTD/sodipodi-0.dtd"
   xmlns:inkscape="http://www.inkscape.org/namespaces/inkscape"
   height="512px"
   viewBox="1 1 511.999 511.999"
   width="512px"
   version="1.1"
   id="svg8"
   sodipodi:docname="LogSearch.svg"
   inkscape:version="0.92.2 (5c3e80d, 2017-08-06)">
  <metadata
     id="metadata14">
    <rdf:RDF>
      <cc:Work
         rdf:about="">
        <dc:format>image/svg+xml</dc:format>
        <dc:type
           rdf:resource="http://purl.org/dc/dcmitype/StillImage" />
      </cc:Work>
    </rdf:RDF>
  </metadata>
  <defs
     id="defs12" />
  <sodipodi:namedview
     pagecolor="#ffffff"
     bordercolor="#666666"
     borderopacity="1"
     objecttolerance="10"
     gridtolerance="10"
     guidetolerance="10"
     inkscape:pageopacity="0"
     inkscape:pageshadow="2"
     inkscape:window-width="2560"
     inkscape:window-height="1388"
     id="namedview10"
     showgrid="false"
     inkscape:zoom="0.4609375"
     inkscape:cx="-547.79661"
     inkscape:cy="256"
     inkscape:window-x="-8"
     inkscape:window-y="-8"
     inkscape:window-maximized="1"
     inkscape:current-layer="svg8" />
  <g
     id="g824"
     transform="matrix(0.7849561,0,0,0.7849561,56.050738,56.050738)"
     style="stroke-width:1.194332">
    <path
       id="path2"
       d="m 45,392.01562 c 0,0 240.35547,-0.0469 242.01172,-0.0469 22.16015,0 44.3164,-6.96094 62.88281,-20.86328 l 20.90625,20.91015 -10.60547,10.60938 c -5.85937,5.85547 -5.85937,15.35547 0,21.21094 l 75.00391,75.0039 C 443.97266,507.61328 455.49609,512 467.01953,512 c 11.52344,0 23.04688,-4.38672 31.82031,-13.16016 17.54688,-17.54687 17.54688,-46.09765 0,-63.64453 l -75.0039,-75 c -5.85547,-5.85937 -15.35547,-5.85937 -21.21094,0 l -10.60938,10.60547 -20.91015,-20.90625 c 30.5625,-40.81641 27.53125,-98.98437 -9.08985,-136.35937 v -77.53125 c 0,-8.28125 -6.71875,-15 -15,-15 h -45.0039 V 15 c 0,-8.285156 -6.71485,-15 -15,-15 H 15 C 6.714844,0 0,6.714844 0,15 v 332.01562 c 0,24.8125 20.1875,45 45,45 z m 432.625,64.39454 c 5.85156,5.85156 5.85156,15.36718 0,21.21484 -5.84766,5.85156 -15.36328,5.85156 -21.21484,0 l -64.39454,-64.39453 21.21485,-21.21485 z M 340.04687,233.97656 c 29.24219,29.2461 29.24219,76.82813 0,106.07031 -29.24218,29.24219 -76.82812,29.24219 -106.07031,0 -29.24219,-29.24218 -29.24219,-76.82812 0,-106.07031 29.24219,-29.24219 76.82422,-29.24609 106.07031,0 z m -8.03515,-82.96875 v 41.13282 c -9.57422,-4.53125 -19.69531,-7.53907 -30,-9.01563 V 151.00781 Z M 30,30 h 242.01172 v 153.125 c -21.69531,3.10547 -42.59375,12.98438 -59.25,29.63672 -8.74219,8.74609 -15.61328,18.66406 -20.6211,29.25 H 75.003906 c -8.285156,0 -15,6.71484 -15,15 0,8.28125 6.714844,14.98828 15,14.98828 H 183.125 c -1.42188,9.94531 -1.42188,20.06641 0,30.01172 H 75.003906 c -8.285156,0 -15,6.71875 -15,15 0,8.28515 6.714844,15 15,15 H 192.14062 c 5.00782,10.58594 11.87891,20.5039 20.6211,29.25 0.25781,0.2539 0.51562,0.5 0.77344,0.7539 H 45 c -8.269531,0 -15,-6.73046 -15,-15 z m 0,0"
       inkscape:connector-curvature="0"
       style="fill:#27B3FF;stroke-width:1.194332" />
    <path
       id="path4"
       d="M 75.003906,151.00781 H 227.00781 c 8.28516,0 15.00391,-6.71875 15.00391,-15.0039 V 76.003906 c 0,-8.285156 -6.71875,-15 -15.00391,-15 H 75.003906 c -8.285156,0 -15,6.714844 -15,15 v 60.000004 c 0,8.28515 6.714844,15.0039 15,15.0039 z m 15,-60.003904 H 212.00781 V 121.00391 H 90.003906 Z m 0,0"
       inkscape:connector-curvature="0"
       style="fill:#27B3FF;stroke-width:1.194332" />
    <path
       id="path6"
       d="m 75.003906,212.00781 h 92.003904 c 8.28516,0 15,-6.71484 15,-15 0,-8.28515 -6.71484,-15 -15,-15 H 75.003906 c -8.285156,0 -15,6.71485 -15,15 0,8.28516 6.714844,15 15,15 z m 0,0"
       inkscape:connector-curvature="0"
       style="fill:#27B3FF;stroke-width:1.194332" />
  </g>
</svg>
