<?xml version="1.0" encoding="UTF-8" standalone="no"?>
<svg
   xmlns:dc="http://purl.org/dc/elements/1.1/"
   xmlns:cc="http://creativecommons.org/ns#"
   xmlns:rdf="http://www.w3.org/1999/02/22-rdf-syntax-ns#"
   xmlns:svg="http://www.w3.org/2000/svg"
   xmlns="http://www.w3.org/2000/svg"
   xmlns:sodipodi="http://sodipodi.sourceforge.net/DTD/sodipodi-0.dtd"
   xmlns:inkscape="http://www.inkscape.org/namespaces/inkscape"
   height="512pt"
   viewBox="0 0 512 512.99971"
   width="512pt"
   version="1.1"
   id="svg6"
   sodipodi:docname="Manual.svg"
   inkscape:version="0.92.2 (5c3e80d, 2017-08-06)">
  <metadata
     id="metadata12">
    <rdf:RDF>
      <cc:Work
         rdf:about="">
        <dc:format>image/svg+xml</dc:format>
        <dc:type
           rdf:resource="http://purl.org/dc/dcmitype/StillImage" />
        <dc:title />
      </cc:Work>
    </rdf:RDF>
  </metadata>
  <defs
     id="defs10" />
  <sodipodi:namedview
     pagecolor="#ffffff"
     bordercolor="#666666"
     borderopacity="1"
     objecttolerance="10"
     gridtolerance="10"
     guidetolerance="10"
     inkscape:pageopacity="0"
     inkscape:pageshadow="2"
     inkscape:window-width="2560"
     inkscape:window-height="1388"
     id="namedview8"
     showgrid="false"
     fit-margin-top="0"
     fit-margin-left="0"
     fit-margin-right="0"
     fit-margin-bottom="0"
     inkscape:zoom="0.34637965"
     inkscape:cx="-793.54932"
     inkscape:cy="240.00004"
     inkscape:window-x="-8"
     inkscape:window-y="-8"
     inkscape:window-maximized="1"
     inkscape:current-layer="svg6" />
  <g
     id="g824"
     transform="matrix(0.82638961,0,0,0.81502735,44.087953,47.853846)"
     style="stroke-width:1.21848845">
    <path
       style="fill:#27B3FF;fill-opacity:1;stroke-width:1.21848845"
       id="path2"
       d="m 317.36719,0 c -107.51953,0 -194.9961,87.476562 -194.9961,194.99609 0,37.4961 10.64844,72.54688 29.06641,102.30469 L 129.75,319 c -2.13281,-3.21094 -4.20312,-6.46484 -6.17187,-9.78906 -4.21875,-7.12891 -13.41407,-9.48828 -20.54688,-5.26953 -7.128906,4.21875 -9.488281,13.41796 -5.269531,20.54687 3.261721,5.50781 6.750001,10.87109 10.406251,16.10547 l -94.51172,94.58203 c -17.542969,17.54297 -17.542969,46.08984 0,63.63281 17.582031,17.58203 46.042969,17.58985 63.636719,-0.004 l 94.515621,-94.58203 c 5.22266,3.64843 10.57032,7.125 16.06641,10.3789 2.39453,1.41797 5.02734,2.09375 7.625,2.09375 5.125,0 10.12109,-2.63281 12.92187,-7.36328 4.21875,-7.1289 1.85938,-16.32812 -5.26953,-20.54687 -3.3125,-1.96094 -6.55859,-4.03125 -9.76562,-6.15625 l 21.68359,-21.69532 c 29.75781,18.41407 64.80469,29.0586 102.29688,29.0586 107.52343,0 194.99609,-87.47656 194.99609,-194.9961 C 512.36328,87.476562 424.89062,0 317.36719,0 Z M 56.078125,477.59766 c -5.863281,5.85937 -15.347656,5.85937 -21.210937,0 -5.847657,-5.84766 -5.847657,-15.35938 0.0039,-21.21094 L 126.88281,364.3125 c 6.64844,7.47266 13.73438,14.55469 21.20703,21.20703 z M 169.33203,364.26172 c -7.52734,-6.59375 -14.61328,-13.67969 -21.21094,-21.20703 l 21.23828,-21.25 c 6.51954,7.59765 13.60938,14.6875 21.20704,21.20703 z m 148.03516,-4.26953 c -90.97657,0 -164.9961,-74.01563 -164.9961,-164.9961 C 152.37109,104.01563 226.39062,30 317.36719,30 c 90.98047,0 164.99609,74.01563 164.99609,164.99609 0,90.98047 -74.01562,164.9961 -164.99609,164.9961 z m 0,0"
       inkscape:connector-curvature="0" />
    <path
       style="fill:#27B3FF;fill-opacity:1;stroke-width:1.21848845"
       id="path4"
       d="m 407.36719,90 h -17.57422 c -26.59766,0 -51.83985,8.785156 -72.42578,24.97656 C 296.78516,98.785156 271.53906,90 244.94141,90 h -17.57422 c -8.28125,0 -14.9961,6.714844 -14.9961,14.99609 v 150 c 0,8.28125 6.71485,15 14.9961,15 h 17.57422 c 23.35156,0 45.30468,9.08985 61.8164,25.60157 0.004,0 0.004,0.004 0.004,0.004 5.8164,5.81641 15.2539,5.85938 21.125,0.0781 0.0273,-0.0274 0.0586,-0.0508 0.0859,-0.0781 16.51562,-16.51172 38.46875,-25.60547 61.82031,-25.60547 h 17.57422 c 8.28125,0 15,-6.71875 15,-15 v -150 c 0,-8.281246 -6.71875,-14.99609 -15,-14.99609 z m -105,164.93359 c -19.75,-11.10937 -39.10547,-14.9375 -59.9961,-14.9375 v -120 c 22.60938,0 42.53125,6.23829 59.9961,21.5 z m 90,-14.9375 c -21.04297,0 -40.35547,3.89844 -60,14.94532 V 141.52734 c 17.47265,-15.26953 37.3789,-21.53125 60,-21.53125 z m 0,0"
       inkscape:connector-curvature="0" />
  </g>
</svg>
