<?xml version="1.0" encoding="UTF-8" standalone="no"?>
<svg
   xmlns:dc="http://purl.org/dc/elements/1.1/"
   xmlns:cc="http://creativecommons.org/ns#"
   xmlns:rdf="http://www.w3.org/1999/02/22-rdf-syntax-ns#"
   xmlns:svg="http://www.w3.org/2000/svg"
   xmlns="http://www.w3.org/2000/svg"
   xmlns:sodipodi="http://sodipodi.sourceforge.net/DTD/sodipodi-0.dtd"
   xmlns:inkscape="http://www.inkscape.org/namespaces/inkscape"
   version="1.1"
   viewBox="0 0 26 26"
   enable-background="new 0 0 26 26"
   width="512px"
   height="512px"
   id="svg4"
   sodipodi:docname="Ok.svg"
   inkscape:version="0.92.2 (5c3e80d, 2017-08-06)">
  <metadata
     id="metadata10">
    <rdf:RDF>
      <cc:Work
         rdf:about="">
        <dc:format>image/svg+xml</dc:format>
        <dc:type
           rdf:resource="http://purl.org/dc/dcmitype/StillImage" />
      </cc:Work>
    </rdf:RDF>
  </metadata>
  <defs
     id="defs8" />
  <sodipodi:namedview
     pagecolor="#ffffff"
     bordercolor="#666666"
     borderopacity="1"
     objecttolerance="10"
     gridtolerance="10"
     guidetolerance="10"
     inkscape:pageopacity="0"
     inkscape:pageshadow="2"
     inkscape:window-width="2560"
     inkscape:window-height="1388"
     id="namedview6"
     showgrid="false"
     inkscape:zoom="0.4609375"
     inkscape:cx="-520.67797"
     inkscape:cy="256"
     inkscape:window-x="-8"
     inkscape:window-y="-8"
     inkscape:window-maximized="1"
     inkscape:current-layer="svg4" />
  <path
     d="m 3.0781225,13.863281 c -0.15625,-0.172656 -0.234375,-0.431641 -0.234375,-0.604297 0,-0.172656 0.078125,-0.431641 0.234375,-0.604297 l 1.09375,-1.208594 c 0.3125,-0.345312 0.78125,-0.345312 1.09375,0 l 0.078125,0.08633 4.296875,5.09336 c 0.15625,0.172656 0.3906245,0.172656 0.5468745,0 L 20.656247,4.6261719 h 0.07813 v 0 c 0.3125,-0.3453125 0.78125,-0.3453125 1.09375,0 l 1.09375,1.2085937 c 0.3125,0.3453125 0.3125,0.8632813 0,1.2085938 v 0 l -12.5,14.3304686 c -0.156255,0.172656 -0.312505,0.258984 -0.5468795,0.258984 -0.234375,0 -0.390625,-0.08633 -0.546875,-0.258984 l -6.09375,-7.251563 z"
     id="path2"
     inkscape:connector-curvature="0"
     style="fill:#27B3FF;stroke-width:1" />
</svg>
