<?xml version="1.0" encoding="UTF-8" standalone="no"?>
<svg
   xmlns:dc="http://purl.org/dc/elements/1.1/"
   xmlns:cc="http://creativecommons.org/ns#"
   xmlns:rdf="http://www.w3.org/1999/02/22-rdf-syntax-ns#"
   xmlns:svg="http://www.w3.org/2000/svg"
   xmlns="http://www.w3.org/2000/svg"
   xmlns:sodipodi="http://sodipodi.sourceforge.net/DTD/sodipodi-0.dtd"
   xmlns:inkscape="http://www.inkscape.org/namespaces/inkscape"
   id="Capa_1"
   enable-background="new 0 0 511.781 511.781"
   height="512"
   viewBox="0 0 511.781 511.781"
   width="512"
   version="1.1"
   sodipodi:docname="Online.svg"
   inkscape:version="0.92.2 (5c3e80d, 2017-08-06)">
  <metadata
     id="metadata27">
    <rdf:RDF>
      <cc:Work
         rdf:about="">
        <dc:format>image/svg+xml</dc:format>
        <dc:type
           rdf:resource="http://purl.org/dc/dcmitype/StillImage" />
      </cc:Work>
    </rdf:RDF>
  </metadata>
  <defs
     id="defs25" />
  <sodipodi:namedview
     pagecolor="#ffffff"
     bordercolor="#666666"
     borderopacity="1"
     objecttolerance="10"
     gridtolerance="10"
     guidetolerance="10"
     inkscape:pageopacity="0"
     inkscape:pageshadow="2"
     inkscape:window-width="1920"
     inkscape:window-height="1028"
     id="namedview23"
     showgrid="false"
     inkscape:zoom="0.4609375"
     inkscape:cx="-64"
     inkscape:cy="256"
     inkscape:window-x="-8"
     inkscape:window-y="-8"
     inkscape:window-maximized="1"
     inkscape:current-layer="Capa_1" />
  <g
     id="g20"
     transform="matrix(0.78124717,0,0,0.78124717,55.976047,55.977051)"
     style="stroke-width:1.28000462;fill:#335777;fill-opacity:1">
    <g
       id="Page-1_37_"
       style="stroke-width:1.28000462;fill:#335777;fill-opacity:1">
      <g
         id="_x30_38---Internet-Cursor"
         style="clip-rule:evenodd;fill-rule:evenodd;stroke-width:1.28000462;fill:#335777;fill-opacity:1">
        <path
           id="Path_205_"
           d="m 290.834,408.161 c -0.046,-0.128 -0.073,-0.256 -0.119,-0.384 l -21.147,-66.423 c -13.673,-1.815 -27.436,-2.871 -41.225,-3.163 v 100.023 c 23.153,-0.947 46.007,-5.576 67.703,-13.714 z"
           inkscape:connector-curvature="0"
           style="stroke-width:1.28000462;fill:#335777;fill-opacity:1" />
        <path
           id="Path_204_"
           d="m 327.826,103.137 c -32.335,9.468 -65.795,14.554 -99.483,15.122 v 91.602 h 118.72 c -0.625,-36.378 -7.121,-72.417 -19.237,-106.724 z"
           inkscape:connector-curvature="0"
           style="stroke-width:1.28000462;fill:#335777;fill-opacity:1" />
        <path
           id="Path_203_"
           d="m 210.057,437.765 v -99.739 c -31.291,0.56 -62.374,5.205 -92.462,13.815 22.355,50.02 56.229,81.472 92.462,85.924 z"
           inkscape:connector-curvature="0"
           style="stroke-width:1.28000462;fill:#335777;fill-opacity:1" />
        <path
           id="Path_202_"
           d="M 228.343,0.197 V 99.982 C 259.691,99.421 290.83,94.761 320.969,86.121 299.301,37.464 266.057,4.787 228.343,0.197 Z"
           inkscape:connector-curvature="0"
           style="stroke-width:1.28000462;fill:#335777;fill-opacity:1" />
        <path
           id="Path_201_"
           d="m 272.649,247.448 70.949,22.574 c 1.949,-13.88 3.087,-27.862 3.41,-41.874 H 228.343 v 91.593 c 11.822,0.265 23.561,0.978 35.072,2.267 l -15.808,-49.646 c -2.286,-7.095 -0.398,-14.873 4.886,-20.131 5.285,-5.258 13.073,-7.106 20.156,-4.783 z"
           inkscape:connector-curvature="0"
           style="stroke-width:1.28000462;fill:#335777;fill-opacity:1" />
        <path
           id="Path_200_"
           d="M 510.336,342.277 267.008,264.846 c -0.188,-0.08 -0.39,-0.123 -0.594,-0.128 -0.391,0.009 -0.761,0.177 -1.024,0.466 -0.436,0.377 -0.59,0.988 -0.384,1.527 l 77.495,243.447 c 0.203,0.897 1.041,1.504 1.957,1.417 0.874,0.066 1.672,-0.498 1.902,-1.344 l 40.677,-111.186 c 2.06,-5.618 6.487,-10.045 12.105,-12.105 L 510.42,346.154 c 0.872,-0.23 1.446,-1.06 1.353,-1.957 0.045,-0.902 -0.558,-1.709 -1.437,-1.92 z"
           inkscape:connector-curvature="0"
           style="stroke-width:1.28000462;fill:#335777;fill-opacity:1" />
        <path
           id="Path_199_"
           d="m 210.057,118.259 c -33.688,-0.57 -67.148,-5.656 -99.483,-15.122 -12.116,34.307 -18.611,70.346 -19.237,106.725 h 118.72 z"
           inkscape:connector-curvature="0"
           style="stroke-width:1.28000462;fill:#335777;fill-opacity:1" />
        <path
           id="Path_198_"
           d="M 93.55,97.404 C 78.93,92.182 64.846,85.566 51.493,77.646 20.096,114.761 1.975,161.288 0,209.861 h 73.061 c 0.648,-38.352 7.57,-76.34 20.489,-112.457 z"
           inkscape:connector-curvature="0"
           style="stroke-width:1.28000462;fill:#335777;fill-opacity:1" />
        <path
           id="Path_197_"
           d="m 100.187,357.601 c -12.531,4.451 -24.648,9.988 -36.215,16.549 23.464,23.385 51.904,41.171 83.2,52.032 -20.234,-19.367 -36.232,-42.719 -46.985,-68.581 z"
           inkscape:connector-curvature="0"
           style="stroke-width:1.28000462;fill:#335777;fill-opacity:1" />
        <path
           id="Path_196_"
           d="m 210.057,0.197 c -37.714,4.571 -70.949,37.266 -92.626,85.943 30.138,8.64 61.279,13.294 92.626,13.842 z"
           inkscape:connector-curvature="0"
           style="stroke-width:1.28000462;fill:#335777;fill-opacity:1" />
        <path
           id="Path_195_"
           d="M 210.057,228.147 H 91.401 c 0.611,36.372 7.148,72.402 19.355,106.67 32.28,-9.431 65.676,-14.498 99.301,-15.067 z"
           inkscape:connector-curvature="0"
           style="stroke-width:1.28000462;fill:#335777;fill-opacity:1" />
        <path
           id="Path_194_"
           d="m 438.4,209.861 c -1.991,-48.564 -20.121,-95.077 -51.52,-132.178 -13.352,7.921 -27.436,14.538 -42.057,19.758 12.924,36.104 19.855,74.079 20.517,112.421 h 73.06 z"
           inkscape:connector-curvature="0"
           style="stroke-width:1.28000462;fill:#335777;fill-opacity:1" />
        <path
           id="Path_193_"
           d="m 374.299,63.932 c -23.59,-23.6 -52.242,-41.522 -83.785,-52.407 20.417,19.478 36.601,42.955 47.543,68.965 12.542,-4.449 24.669,-9.99 36.242,-16.558 z"
           inkscape:connector-curvature="0"
           style="stroke-width:1.28000462;fill:#335777;fill-opacity:1" />
        <path
           id="Path_192_"
           d="M 147.886,11.525 C 116.343,22.41 87.691,40.332 64.101,63.932 c 11.602,6.569 23.756,12.11 36.325,16.558 10.917,-26.003 27.072,-49.479 47.46,-68.965 z"
           inkscape:connector-curvature="0"
           style="stroke-width:1.28000462;fill:#335777;fill-opacity:1" />
        <path
           id="Path_191_"
           d="m 438.409,228.147 h -73.143 c -0.353,15.899 -1.706,31.759 -4.05,47.488 l 63.479,20.206 c 8.148,-21.69 12.778,-44.543 13.714,-67.694 z"
           inkscape:connector-curvature="0"
           style="stroke-width:1.28000462;fill:#335777;fill-opacity:1" />
        <path
           id="Path_190_"
           d="M 93.413,340.604 C 80.597,304.466 73.742,266.485 73.116,228.147 H 0.192 c 1.959,48.537 20.025,95.039 51.346,132.169 13.294,-7.899 27.316,-14.5 41.875,-19.712 z"
           inkscape:connector-curvature="0"
           style="stroke-width:1.28000462;fill:#335777;fill-opacity:1" />
      </g>
    </g>
  </g>
</svg>
