<?xml version="1.0" encoding="UTF-8" standalone="no"?>
<svg
   xmlns:dc="http://purl.org/dc/elements/1.1/"
   xmlns:cc="http://creativecommons.org/ns#"
   xmlns:rdf="http://www.w3.org/1999/02/22-rdf-syntax-ns#"
   xmlns:svg="http://www.w3.org/2000/svg"
   xmlns="http://www.w3.org/2000/svg"
   xmlns:sodipodi="http://sodipodi.sourceforge.net/DTD/sodipodi-0.dtd"
   xmlns:inkscape="http://www.inkscape.org/namespaces/inkscape"
   height="512pt"
   viewBox="0 0 512 512"
   width="512pt"
   version="1.1"
   id="svg18"
   sodipodi:docname="Robot.svg"
   inkscape:version="0.92.2 (5c3e80d, 2017-08-06)">
  <metadata
     id="metadata24">
    <rdf:RDF>
      <cc:Work
         rdf:about="">
        <dc:format>image/svg+xml</dc:format>
        <dc:type
           rdf:resource="http://purl.org/dc/dcmitype/StillImage" />
        <dc:title></dc:title>
      </cc:Work>
    </rdf:RDF>
  </metadata>
  <defs
     id="defs22" />
  <sodipodi:namedview
     pagecolor="#ffffff"
     bordercolor="#666666"
     borderopacity="1"
     objecttolerance="10"
     gridtolerance="10"
     guidetolerance="10"
     inkscape:pageopacity="0"
     inkscape:pageshadow="2"
     inkscape:window-width="2560"
     inkscape:window-height="1388"
     id="namedview20"
     showgrid="false"
     inkscape:zoom="0.34570313"
     inkscape:cx="-694.23729"
     inkscape:cy="341.33333"
     inkscape:window-x="-8"
     inkscape:window-y="-8"
     inkscape:window-maximized="1"
     inkscape:current-layer="svg18" />
  <g
     id="g842"
     transform="matrix(0.76873673,0,0,0.76873673,59.203389,59.203389)"
     style="fill:#335777;fill-opacity:1;stroke-width:1.30083549">
    <path
       id="path2"
       d="m 121.36719,195.02734 c -13.25781,0 -26.17969,5.89063 -34.601565,15.77735 C 79.824219,218.9375 76,229.30859 76,240 c 0,24.8125 20.1875,45 45,45 10.69141,0 21.07812,-3.82422 29.21094,-10.76563 C 160.24219,265.67969 166,253.19922 166,240 c 0,-23.08594 -17.3125,-42.33594 -40.19531,-44.75 -1.48047,-0.14844 -2.95703,-0.22266 -4.4375,-0.22266 z m 0,0"
       inkscape:connector-curvature="0"
       style="fill:#335777;fill-opacity:1;stroke-width:1.30083549" />
    <path
       id="path4"
       d="m 436,255 c 0,-15.32031 -11.42578,-28.10938 -26.61719,-29.80859 l -2.92969,-0.16407 c -7.77734,0 -15.55468,3.23828 -21.34375,8.87891 C 379.22266,239.61719 376,247.11719 376,255 c 0,16.53906 13.46094,30 30,30 16.53906,0 30,-13.46094 30,-30 z m 0,0"
       inkscape:connector-curvature="0"
       style="fill:#335777;fill-opacity:1;stroke-width:1.30083549" />
    <path
       id="path6"
       d="m 15,30 h 15 c 0,16.566406 14.429688,30 31,30 H 166 C 166,36.867188 175.01562,15.960938 189.40625,0 184.53906,0 7.996094,0 15,0 6.710938,0 0,6.710938 0,15 0,23.289062 6.710938,30 15,30 Z m 0,0"
       inkscape:connector-curvature="0"
       style="fill:#335777;fill-opacity:1;stroke-width:1.30083549" />
    <path
       id="path8"
       d="M 497,0 C 492.52734,0 317.04687,0 322.59375,0 336.98437,15.960938 346,36.867188 346,60 h 105 c 16.57031,0 31,-13.433594 31,-30 h 15 c 8.28906,0 15,-6.710938 15,-15 0,-8.289062 -6.71094,-15 -15,-15 z m 0,0"
       inkscape:connector-curvature="0"
       style="fill:#335777;fill-opacity:1;stroke-width:1.30083549" />
    <path
       id="path10"
       d="M 259.47656,149.64844 C 258.29687,149.69531 257.19141,150 256,150 216.41406,150 183.10156,124.14844 171.08203,88.566406 l -50.55078,75.960934 115.04687,12.14453 z m 0,0"
       inkscape:connector-curvature="0"
       style="fill:#335777;fill-opacity:1;stroke-width:1.30083549" />
    <path
       id="path12"
       d="m 256,0 c -33.13672,0 -60,26.863281 -60,60 0,33.136719 26.86328,60 60,60 33.13672,0 60,-26.863281 60,-60 C 316,26.863281 289.13672,0 256,0 Z m 0,75 c -8.28516,0 -15,-6.714844 -15,-15 0,-8.285156 6.71484,-15 15,-15 8.28516,0 15,6.714844 15,15 0,8.285156 -6.71484,15 -15,15 z m 0,0"
       inkscape:connector-curvature="0"
       style="fill:#335777;fill-opacity:1;stroke-width:1.30083549" />
    <path
       id="path14"
       d="m 482,452 h -31 v -46 c 0,-8.28906 -6.71094,-15 -15,-15 H 421 V 355.40234 C 429.80469,350.17578 436,340.98047 436,330 V 306.65625 C 427.14062,311.82422 416.97656,315 406,315 c -10.97656,0 -21.14063,-3.17578 -30,-8.34375 V 330 c 0,10.98437 6.19531,20.17578 15,25.40234 V 391 h -15 c -8.28906,0 -15,6.71094 -15,15 v 46 h -60 v -46 c 0,-8.28906 -6.71094,-15 -15,-15 h -60 c -8.28906,0 -15,6.71094 -15,15 v 46 h -60 v -46 c 0,-8.28906 -6.71094,-15 -15,-15 H 76 c -8.289062,0 -15,6.71094 -15,15 v 46 H 30 c -16.570312,0 -30,13.42969 -30,30 0,16.56641 13.429688,30 30,30 h 452 c 16.57031,0 30,-13.43359 30,-30 0,-16.57031 -13.42969,-30 -30,-30 z m 0,0"
       inkscape:connector-curvature="0"
       style="fill:#335777;fill-opacity:1;stroke-width:1.30083549" />
    <path
       id="path16"
       d="M 185.34375,201.54297 C 192.08594,212.82422 196,225.96094 196,240 c 0,16.41406 -5.35938,32.14062 -15.01953,45 H 354.34375 C 349.17578,276.14062 346,265.97656 346,255 c 0,-12.85938 4.29687,-25.01563 11.96094,-35.23828 z m 0,0"
       inkscape:connector-curvature="0"
       style="fill:#335777;fill-opacity:1;stroke-width:1.30083549" />
  </g>
</svg>
