<?xml version="1.0" encoding="UTF-8" standalone="no"?>
<!-- Generator: Adobe Illustrator 16.0.0, SVG Export Plug-In . SVG Version: 6.00 Build 0)  -->

<svg
   xmlns:dc="http://purl.org/dc/elements/1.1/"
   xmlns:cc="http://creativecommons.org/ns#"
   xmlns:rdf="http://www.w3.org/1999/02/22-rdf-syntax-ns#"
   xmlns:svg="http://www.w3.org/2000/svg"
   xmlns="http://www.w3.org/2000/svg"
   xmlns:sodipodi="http://sodipodi.sourceforge.net/DTD/sodipodi-0.dtd"
   xmlns:inkscape="http://www.inkscape.org/namespaces/inkscape"
   version="1.1"
   id="Capa_1"
   x="0px"
   y="0px"
   width="512"
   height="512"
   viewBox="0 0 511.99999 511.99999"
   xml:space="preserve"
   sodipodi:docname="Speed.svg"
   inkscape:version="0.92.2 (5c3e80d, 2017-08-06)"><metadata
     id="metadata44"><rdf:RDF><cc:Work
         rdf:about=""><dc:format>image/svg+xml</dc:format><dc:type
           rdf:resource="http://purl.org/dc/dcmitype/StillImage" /><dc:title /></cc:Work></rdf:RDF></metadata><defs
     id="defs42" /><sodipodi:namedview
     pagecolor="#ffffff"
     bordercolor="#666666"
     borderopacity="1"
     objecttolerance="10"
     gridtolerance="10"
     guidetolerance="10"
     inkscape:pageopacity="0"
     inkscape:pageshadow="2"
     inkscape:window-width="2560"
     inkscape:window-height="1388"
     id="namedview40"
     showgrid="false"
     inkscape:zoom="0.67346215"
     inkscape:cx="-579.92507"
     inkscape:cy="99.540234"
     inkscape:window-x="-8"
     inkscape:window-y="-8"
     inkscape:window-maximized="1"
     inkscape:current-layer="Capa_1" /><g
     id="g7"
     style="fill:#1a76e7;fill-opacity:1;stroke:#1a76e7;stroke-width:1.42550194;stroke-miterlimit:4;stroke-dasharray:none;stroke-opacity:1"
     transform="matrix(4.5517451,0,0,4.8532881,56.617634,43.40404)"><g
       id="Gauge"
       style="fill:#1a76e7;fill-opacity:1;stroke:#1a76e7;stroke-width:1.42550194;stroke-miterlimit:4;stroke-dasharray:none;stroke-opacity:1"><g
         id="g4"
         style="fill:#1a76e7;fill-opacity:1;stroke:#1a76e7;stroke-width:1.42550194;stroke-miterlimit:4;stroke-dasharray:none;stroke-opacity:1"><path
           d="M 52.173,57.876 C 52.145,57.547 52.051,57.218 51.887,56.905 L 31.254,17.971 c -0.609,-1.144 -1.983,-1.684 -3.229,-1.267 -1.248,0.423 -1.993,1.674 -1.756,2.95 l 8.041,43.173 c 0.063,0.343 0.196,0.65 0.377,0.93 0.078,0.369 0.173,0.736 0.3,1.104 1.295,3.694 4.838,6.184 8.813,6.184 1.027,0 2.048,-0.166 3.024,-0.497 2.354,-0.792 4.253,-2.438 5.347,-4.636 1.095,-2.198 1.251,-4.68 0.444,-6.994 -0.123,-0.363 -0.275,-0.708 -0.442,-1.042 z m -8.37,-38.343 c -1.471,0 -2.662,1.17 -2.662,2.613 0,1.443 1.191,2.614 2.662,2.614 21.218,0 38.476,16.961 38.476,37.806 0,1.442 1.195,2.613 2.664,2.613 1.473,0 2.664,-1.171 2.664,-2.613 C 87.605,38.834 67.956,19.533 43.803,19.533 Z M 16.276,29.087 C 5.933,37.306 0,49.507 0,62.565 c 0,1.443 1.191,2.615 2.663,2.615 1.474,0 2.665,-1.172 2.665,-2.615 0,-11.47 5.211,-22.189 14.298,-29.409 1.146,-0.908 1.32,-2.556 0.397,-3.679 -0.923,-1.122 -2.6,-1.298 -3.747,-0.39 z"
           id="path2"
           style="fill:#1a76e7;fill-opacity:1;stroke:#1a76e7;stroke-width:1.42550194;stroke-miterlimit:4;stroke-dasharray:none;stroke-opacity:1"
           inkscape:connector-curvature="0" /></g></g></g><g
     id="g9"
     transform="translate(0,424.393)" /><g
     id="g11"
     transform="translate(0,424.393)" /><g
     id="g13"
     transform="translate(0,424.393)" /><g
     id="g15"
     transform="translate(0,424.393)" /><g
     id="g17"
     transform="translate(0,424.393)" /><g
     id="g19"
     transform="translate(0,424.393)" /><g
     id="g21"
     transform="translate(0,424.393)" /><g
     id="g23"
     transform="translate(0,424.393)" /><g
     id="g25"
     transform="translate(0,424.393)" /><g
     id="g27"
     transform="translate(0,424.393)" /><g
     id="g29"
     transform="translate(0,424.393)" /><g
     id="g31"
     transform="translate(0,424.393)" /><g
     id="g33"
     transform="translate(0,424.393)" /><g
     id="g35"
     transform="translate(0,424.393)" /><g
     id="g37"
     transform="translate(0,424.393)" /></svg>