<?xml version="1.0" encoding="UTF-8" standalone="no"?>
<svg
   xmlns:dc="http://purl.org/dc/elements/1.1/"
   xmlns:cc="http://creativecommons.org/ns#"
   xmlns:rdf="http://www.w3.org/1999/02/22-rdf-syntax-ns#"
   xmlns:svg="http://www.w3.org/2000/svg"
   xmlns="http://www.w3.org/2000/svg"
   xmlns:sodipodi="http://sodipodi.sourceforge.net/DTD/sodipodi-0.dtd"
   xmlns:inkscape="http://www.inkscape.org/namespaces/inkscape"
   height="512px"
   viewBox="-19 -51 617.33452 617"
   width="512px"
   version="1.1"
   id="svg12"
   sodipodi:docname="Statistics.svg"
   inkscape:version="0.92.2 (5c3e80d, 2017-08-06)">
  <metadata
     id="metadata18">
    <rdf:RDF>
      <cc:Work
         rdf:about="">
        <dc:format>image/svg+xml</dc:format>
        <dc:type
           rdf:resource="http://purl.org/dc/dcmitype/StillImage" />
      </cc:Work>
    </rdf:RDF>
  </metadata>
  <defs
     id="defs16" />
  <sodipodi:namedview
     pagecolor="#ffffff"
     bordercolor="#666666"
     borderopacity="1"
     objecttolerance="10"
     gridtolerance="10"
     guidetolerance="10"
     inkscape:pageopacity="0"
     inkscape:pageshadow="2"
     inkscape:window-width="2560"
     inkscape:window-height="1388"
     id="namedview14"
     showgrid="false"
     inkscape:zoom="0.4609375"
     inkscape:cx="-520.67797"
     inkscape:cy="256"
     inkscape:window-x="-8"
     inkscape:window-y="-8"
     inkscape:window-maximized="1"
     inkscape:current-layer="svg12" />
  <g
     id="g833"
     transform="matrix(0.83728782,0,0,0.83728782,47.377097,43.836868)"
     style="stroke-width:1.19433248">
    <path
       id="path2"
       d="m 231.61328,192.83984 c 0.46094,4.44922 4.21094,7.83594 8.6875,7.83985 0.30469,0 0.60547,-0.0156 0.91406,-0.0469 1.89844,-0.19531 47.11328,-5.11328 102.97266,-30.91406 47.58203,-21.98438 111.26953,-63.64844 154.67578,-139.230469 l 12.84766,64.238281 c 0.96093,4.722657 5.55859,7.781248 10.28515,6.835938 4.72266,-0.94531 7.79688,-5.539062 6.86329,-10.265625 L 511.59375,4.972656 c -0.90234,-2.730468 -2.91797,-4.9531248 -5.54297,-6.121094 -2.6289,-1.167968 -5.625,-1.175781 -8.25781,-0.011718 l -82.85938,17.015625 c -4.6875,1.011719 -7.6875,5.605469 -6.72265,10.304687 0.96484,4.699219 5.53515,7.742188 10.24219,6.820313 l 66.67968,-13.695313 c -16.79297,29.980469 -38.46093,56.960938 -64.11328,79.828125 -25.04297,22.152349 -53.21094,40.507809 -83.60156,54.460939 -53.30859,24.73828 -97.57422,29.61719 -98.01563,29.66015 -4.80468,0.5 -8.28906,4.80079 -7.78906,9.60547 z m 0,0"
       inkscape:connector-curvature="0"
       style="fill:#27B3FF;stroke-width:1.42642999" />
    <path
       id="path4"
       d="m 198.13281,274.24219 -75.40234,-24.31641 -75.402345,24.31641 75.402345,24.32031 z m 0,0"
       inkscape:connector-curvature="0"
       style="fill:#27B3FF;stroke-width:1.42642999" />
    <path
       id="path6"
       d="m 218.17969,286.25 -88.67578,28.50391 v 123.42187 l 88.67578,-28.49609 z m 0,0"
       inkscape:connector-curvature="0"
       style="fill:#27B3FF;stroke-width:1.42642999" />
    <path
       id="path8"
       d="m 27.085938,409.67969 84.933592,27.23047 V 313.48047 L 27.085938,286.25 Z m 0,0"
       inkscape:connector-curvature="0"
       style="fill:#27B3FF;stroke-width:1.42642999" />
    <path
       id="path10"
       d="M 570.00781,494.91406 H 546.66406 V 147.69531 H 504.19922 V 494.91406 H 435.50391 V 230.12891 H 393.03906 V 494.91406 H 325.59375 V 285.08203 H 283.12891 V 494.91406 H 8.742188 C 3.914062,494.91406 0,498.82422 0,503.65625 c 0,4.82813 3.914062,8.74219 8.742188,8.74219 H 570.00781 c 4.82422,0 8.74219,-3.91406 8.74219,-8.74219 0,-4.83203 -3.91797,-8.74219 -8.74219,-8.74219 z m 0,0"
       inkscape:connector-curvature="0"
       style="fill:#27B3FF;stroke-width:1.42642999" />
  </g>
</svg>
