<?xml version="1.0" encoding="UTF-8" standalone="no"?>
<svg
   xmlns:dc="http://purl.org/dc/elements/1.1/"
   xmlns:cc="http://creativecommons.org/ns#"
   xmlns:rdf="http://www.w3.org/1999/02/22-rdf-syntax-ns#"
   xmlns:svg="http://www.w3.org/2000/svg"
   xmlns="http://www.w3.org/2000/svg"
   xmlns:sodipodi="http://sodipodi.sourceforge.net/DTD/sodipodi-0.dtd"
   xmlns:inkscape="http://www.inkscape.org/namespaces/inkscape"
   id="Layer_1"
   height="512"
   viewBox="0 0 512 512"
   width="512"
   data-name="Layer 1"
   version="1.1"
   sodipodi:docname="Switch.svg"
   inkscape:version="0.92.2 (5c3e80d, 2017-08-06)">
  <metadata
     id="metadata9">
    <rdf:RDF>
      <cc:Work
         rdf:about="">
        <dc:format>image/svg+xml</dc:format>
        <dc:type
           rdf:resource="http://purl.org/dc/dcmitype/StillImage" />
      </cc:Work>
    </rdf:RDF>
  </metadata>
  <defs
     id="defs7" />
  <sodipodi:namedview
     pagecolor="#ffffff"
     bordercolor="#666666"
     borderopacity="1"
     objecttolerance="10"
     gridtolerance="10"
     guidetolerance="10"
     inkscape:pageopacity="0"
     inkscape:pageshadow="2"
     inkscape:window-width="1920"
     inkscape:window-height="1028"
     id="namedview5"
     showgrid="false"
     inkscape:zoom="0.4609375"
     inkscape:cx="-64"
     inkscape:cy="256"
     inkscape:window-x="-8"
     inkscape:window-y="-8"
     inkscape:window-maximized="1"
     inkscape:current-layer="Layer_1" />
  <path
     d="m 448.678,151.21335 a 24.999984,24.999984 0 0 1 0,35.35466 l -87.89057,87.89057 a 24.999984,24.999984 0 0 1 -35.35544,-35.35466 l 45.21324,-45.21326 H 81.000115 a 24.999984,24.999984 0 0 1 0,-49.99996 H 370.64523 L 325.43199,98.677442 a 24.999984,24.999984 0 1 1 35.35544,-35.35467 z M 430.99989,318.10933 H 141.35476 l 45.21325,-45.21325 a 24.999984,24.999984 0 0 0 -35.35545,-35.35466 l -87.890565,87.89057 a 24.999984,24.999984 0 0 0 0,35.35466 l 87.890565,87.89057 a 24.999984,24.999984 0 1 0 35.35545,-35.35466 L 141.35476,368.1093 h 289.64513 a 24.999985,24.999985 0 0 0 0,-49.99997 z"
     id="path2"
     inkscape:connector-curvature="0"
     style="stroke-width:1;fill:#3357FF;fill-opacity:1" />
</svg>
