<?xml version="1.0" encoding="UTF-8" standalone="no"?>
<!-- Generator: Adobe Illustrator 19.0.0, SVG Export Plug-In . SVG Version: 6.00 Build 0)  -->

<svg
   xmlns:dc="http://purl.org/dc/elements/1.1/"
   xmlns:cc="http://creativecommons.org/ns#"
   xmlns:rdf="http://www.w3.org/1999/02/22-rdf-syntax-ns#"
   xmlns:svg="http://www.w3.org/2000/svg"
   xmlns="http://www.w3.org/2000/svg"
   xmlns:sodipodi="http://sodipodi.sourceforge.net/DTD/sodipodi-0.dtd"
   xmlns:inkscape="http://www.inkscape.org/namespaces/inkscape"
   version="1.1"
   id="Capa_1"
   x="0px"
   y="0px"
   viewBox="0 0 512 512"
   xml:space="preserve"
   sodipodi:docname="Timeline.svg"
   inkscape:version="0.92.2 (5c3e80d, 2017-08-06)"
   width="512"
   height="512"><metadata
     id="metadata47"><rdf:RDF><cc:Work
         rdf:about=""><dc:format>image/svg+xml</dc:format><dc:type
           rdf:resource="http://purl.org/dc/dcmitype/StillImage" /><dc:title /></cc:Work></rdf:RDF></metadata><defs
     id="defs45" /><sodipodi:namedview
     pagecolor="#ffffff"
     bordercolor="#666666"
     borderopacity="1"
     objecttolerance="10"
     gridtolerance="10"
     guidetolerance="10"
     inkscape:pageopacity="0"
     inkscape:pageshadow="2"
     inkscape:window-width="2560"
     inkscape:window-height="1388"
     id="namedview43"
     showgrid="false"
     inkscape:zoom="0.52678571"
     inkscape:cx="-1285.1525"
     inkscape:cy="224"
     inkscape:window-x="-8"
     inkscape:window-y="-8"
     inkscape:window-maximized="1"
     inkscape:current-layer="Capa_1" /><g
     id="g10"
     style="fill:#27B3FF;fill-opacity:1;stroke:#27B3FF;stroke-width:5.68645144;stroke-miterlimit:4;stroke-dasharray:none;stroke-opacity:1"
     transform="matrix(0.87514693,0,0,0.88343861,61.726539,58.109751)"><g
       id="g8"
       style="fill:#27B3FF;fill-opacity:1;stroke:#27B3FF;stroke-width:5.68645144;stroke-miterlimit:4;stroke-dasharray:none;stroke-opacity:1"><g
         id="g6"
         style="fill:#27B3FF;fill-opacity:1;stroke:#27B3FF;stroke-width:5.68645144;stroke-miterlimit:4;stroke-dasharray:none;stroke-opacity:1"><path
           d="M 255.893,32 C 149.76,32 64,117.973 64,224 H 0 l 83.093,83.093 1.493,3.093 L 170.667,224 h -64 c 0,-82.453 66.88,-149.333 149.333,-149.333 82.453,0 149.333,66.88 149.333,149.333 0,82.453 -66.88,149.333 -149.333,149.333 -41.28,0 -78.507,-16.853 -105.493,-43.84 L 120.32,359.68 C 154.987,394.453 202.88,416 255.893,416 362.027,416 448,330.027 448,224 448,117.973 362.027,32 255.893,32 Z"
           id="path2"
           style="fill:#27B3FF;fill-opacity:1;stroke:#27B3FF;stroke-width:5.68645144;stroke-miterlimit:4;stroke-dasharray:none;stroke-opacity:1"
           inkscape:connector-curvature="0" /><polygon
           points="341.333,273.6 266.667,229.333 266.667,138.667 234.667,138.667 234.667,245.333 325.973,299.52 "
           id="polygon4"
           style="fill:#27B3FF;fill-opacity:1;stroke:#27B3FF;stroke-width:5.68645144;stroke-miterlimit:4;stroke-dasharray:none;stroke-opacity:1" /></g></g></g><g
     id="g12"
     transform="translate(0,64)" /><g
     id="g14"
     transform="translate(0,64)" /><g
     id="g16"
     transform="translate(0,64)" /><g
     id="g18"
     transform="translate(0,64)" /><g
     id="g20"
     transform="translate(0,64)" /><g
     id="g22"
     transform="translate(0,64)" /><g
     id="g24"
     transform="translate(0,64)" /><g
     id="g26"
     transform="translate(0,64)" /><g
     id="g28"
     transform="translate(0,64)" /><g
     id="g30"
     transform="translate(0,64)" /><g
     id="g32"
     transform="translate(0,64)" /><g
     id="g34"
     transform="translate(0,64)" /><g
     id="g36"
     transform="translate(0,64)" /><g
     id="g38"
     transform="translate(0,64)" /><g
     id="g40"
     transform="translate(0,64)" /></svg>