<?xml version="1.0" encoding="UTF-8" standalone="no"?>
<svg
   xmlns:dc="http://purl.org/dc/elements/1.1/"
   xmlns:cc="http://creativecommons.org/ns#"
   xmlns:rdf="http://www.w3.org/1999/02/22-rdf-syntax-ns#"
   xmlns:svg="http://www.w3.org/2000/svg"
   xmlns="http://www.w3.org/2000/svg"
   xmlns:sodipodi="http://sodipodi.sourceforge.net/DTD/sodipodi-0.dtd"
   xmlns:inkscape="http://www.inkscape.org/namespaces/inkscape"
   id="Layer_1"
   enable-background="new 0 0 512 512"
   height="512"
   viewBox="0 0 512 512"
   width="512"
   version="1.1"
   sodipodi:docname="FeaturePackage.svg"
   inkscape:version="0.92.2 (5c3e80d, 2017-08-06)">
  <metadata
     id="metadata47">
    <rdf:RDF>
      <cc:Work
         rdf:about="">
        <dc:format>image/svg+xml</dc:format>
        <dc:type
           rdf:resource="http://purl.org/dc/dcmitype/StillImage" />
      </cc:Work>
    </rdf:RDF>
  </metadata>
  <defs
     id="defs45" />
  <sodipodi:namedview
     pagecolor="#ffffff"
     bordercolor="#666666"
     borderopacity="1"
     objecttolerance="10"
     gridtolerance="10"
     guidetolerance="10"
     inkscape:pageopacity="0"
     inkscape:pageshadow="2"
     inkscape:window-width="1920"
     inkscape:window-height="1028"
     id="namedview43"
     showgrid="false"
     inkscape:zoom="0.4609375"
     inkscape:cx="-64"
     inkscape:cy="256"
     inkscape:window-x="-8"
     inkscape:window-y="-8"
     inkscape:window-maximized="1"
     inkscape:current-layer="Layer_1" />
  <g
     id="g40"
     transform="matrix(0.87444024,0,0,0.87444024,32.17537,32.143203)"
     style="clip-rule:evenodd;fill-rule:evenodd;stroke-width:1.14358878">
    <path
       d="m 247.742,270.397 -119.236,68.706 c -3.937,2.262 -8.963,0.905 -11.226,-3.032 -2.263,-3.937 -0.905,-8.963 3.032,-11.226 L 239.539,256.144 120.28,187.155 c -3.937,-2.28 -5.28,-7.321 -3,-11.258 2.28,-3.937 7.321,-5.28 11.258,-3 l 119.204,68.957 V 104.052 c 0,-4.56 3.697,-8.258 8.258,-8.258 4.561,0 8.258,3.698 8.258,8.258 v 137.802 l 119.204,-68.957 c 3.937,-2.28 8.978,-0.937 11.258,3 2.28,3.937 0.937,8.978 -3,11.258 l -119.259,68.989 119.227,68.701 c 3.937,2.263 5.295,7.289 3.032,11.226 -2.262,3.937 -7.289,5.295 -11.226,3.032 L 264.258,270.397 v 137.551 c 0,4.56 -3.698,8.258 -8.258,8.258 -4.56,0 -8.258,-3.698 -8.258,-8.258 z"
       id="path2"
       inkscape:connector-curvature="0"
       style="fill:#697c86;stroke-width:1.30779529" />
    <g
       id="g12"
       style="stroke-width:1.14358878">
      <path
         d="m 256,162.581 81.032,46.784 v 93.567 L 256,349.716 174.968,302.932 v -93.567 z"
         id="path4"
         inkscape:connector-curvature="0"
         style="fill:#e3a76f;stroke-width:1.14358878" />
      <path
         d="m 256,256.148 v -93.567 l 81.032,46.784 z"
         id="path6"
         inkscape:connector-curvature="0"
         style="fill:#c48958;stroke-width:1.14358878" />
      <path
         d="m 256,349.716 v -93.568 l -81.032,-46.783 v 93.567 z"
         id="path8"
         inkscape:connector-curvature="0"
         style="fill:#f2d1a5;stroke-width:1.14358878" />
      <path
         d="m 256,256.148 v 93.568 l 81.032,-46.784 v -93.567 z"
         id="path10"
         inkscape:connector-curvature="0"
         style="fill:#e3a76f;stroke-width:1.14358878" />
    </g>
    <g
       id="g38"
       style="stroke-width:1.14358878">
      <circle
         cx="432.647"
         cy="357.987"
         transform="matrix(0.618,-0.786,0.786,0.618,-116.223,476.648)"
         id="ellipse14"
         r="52.026001"
         style="fill:#f2d1a5;stroke-width:1.14358878" />
      <path
         d="m 477.702,331.974 c 14.367,24.883 5.841,56.702 -19.043,71.069 -8.208,4.739 -17.171,6.986 -26.013,6.977 V 305.954 c 17.964,0.017 35.429,9.345 45.056,26.02 z"
         id="path16"
         inkscape:connector-curvature="0"
         style="fill:#e3a76f;stroke-width:1.14358878" />
      <path
         d="m 301.056,433.961 c 14.366,24.884 5.84,56.702 -19.043,71.069 -24.883,14.366 -56.702,5.841 -71.069,-19.043 -14.367,-24.884 -5.841,-56.702 19.043,-71.069 24.884,-14.366 56.702,-5.84 71.069,19.043 z"
         id="path18"
         inkscape:connector-curvature="0"
         style="fill:#f2d1a5;stroke-width:1.14358878" />
      <path
         d="m 301.056,433.961 c 14.367,24.884 5.841,56.702 -19.043,71.069 -8.208,4.739 -17.171,6.986 -26.013,6.977 V 407.941 c 17.963,0.017 35.428,9.345 45.056,26.02 z"
         id="path20"
         inkscape:connector-curvature="0"
         style="fill:#e3a76f;stroke-width:1.14358878" />
      <circle
         cx="79.352997"
         cy="357.987"
         transform="matrix(0.61,-0.792,0.792,0.61,-252.676,202.398)"
         id="ellipse22"
         r="52.026001"
         style="fill:#f2d1a5;stroke-width:1.14358878" />
      <path
         d="m 124.409,331.974 c 14.367,24.883 5.841,56.702 -19.043,71.069 -8.208,4.739 -17.171,6.986 -26.013,6.977 V 305.954 c 17.963,0.017 35.429,9.345 45.056,26.02 z"
         id="path24"
         inkscape:connector-curvature="0"
         style="fill:#e3a76f;stroke-width:1.14358878" />
      <path
         d="m 124.409,128 c 14.366,24.883 5.84,56.702 -19.043,71.069 -24.883,14.366 -56.702,5.84 -71.069,-19.043 -14.366,-24.883 -5.841,-56.702 19.043,-71.069 24.884,-14.366 56.703,-5.84 71.069,19.043 z"
         id="path26"
         inkscape:connector-curvature="0"
         style="fill:#f2d1a5;stroke-width:1.14358878" />
      <path
         d="m 124.409,128 c 14.367,24.883 5.841,56.702 -19.043,71.068 -8.208,4.739 -17.171,6.986 -26.013,6.977 V 101.98 c 17.963,0.017 35.429,9.345 45.056,26.02 z"
         id="path28"
         inkscape:connector-curvature="0"
         style="fill:#e3a76f;stroke-width:1.14358878" />
      <path
         d="m 301.056,26.013 c 14.366,24.884 5.84,56.702 -19.043,71.068 -24.883,14.367 -56.702,5.841 -71.069,-19.043 -14.367,-24.884 -5.841,-56.702 19.043,-71.068 24.884,-14.366 56.702,-5.84 71.069,19.043 z"
         id="path30"
         inkscape:connector-curvature="0"
         style="fill:#f2d1a5;stroke-width:1.14358878" />
      <path
         d="m 301.056,26.013 c 14.367,24.883 5.841,56.702 -19.043,71.068 -8.208,4.739 -17.171,6.986 -26.013,6.977 V -0.007 c 17.963,0.017 35.428,9.345 45.056,26.02 z"
         id="path32"
         inkscape:connector-curvature="0"
         style="fill:#e3a76f;stroke-width:1.14358878" />
      <circle
         cx="432.647"
         cy="154.013"
         transform="matrix(0.053,-0.999,0.999,0.053,255.837,577.855)"
         id="ellipse34"
         r="52.026001"
         style="fill:#f2d1a5;stroke-width:1.14358878" />
      <path
         d="m 477.702,128 c 14.367,24.883 5.841,56.702 -19.043,71.068 -8.208,4.739 -17.171,6.986 -26.013,6.977 V 101.98 c 17.964,0.017 35.429,9.345 45.056,26.02 z"
         id="path36"
         inkscape:connector-curvature="0"
         style="fill:#e3a76f;stroke-width:1.14358878" />
    </g>
  </g>
</svg>
