<?xml version="1.0" encoding="UTF-8" standalone="no"?>
<svg
   xmlns:dc="http://purl.org/dc/elements/1.1/"
   xmlns:cc="http://creativecommons.org/ns#"
   xmlns:rdf="http://www.w3.org/1999/02/22-rdf-syntax-ns#"
   xmlns:svg="http://www.w3.org/2000/svg"
   xmlns="http://www.w3.org/2000/svg"
   xmlns:sodipodi="http://sodipodi.sourceforge.net/DTD/sodipodi-0.dtd"
   xmlns:inkscape="http://www.inkscape.org/namespaces/inkscape"
   id="Icons"
   height="512"
   viewBox="0 0 60 60"
   width="512"
   version="1.1"
   sodipodi:docname="Application2.svg"
   inkscape:version="0.92.2 (5c3e80d, 2017-08-06)">
  <metadata
     id="metadata23">
    <rdf:RDF>
      <cc:Work
         rdf:about="">
        <dc:format>image/svg+xml</dc:format>
        <dc:type
           rdf:resource="http://purl.org/dc/dcmitype/StillImage" />
      </cc:Work>
    </rdf:RDF>
  </metadata>
  <defs
     id="defs21" />
  <sodipodi:namedview
     pagecolor="#ffffff"
     bordercolor="#666666"
     borderopacity="1"
     objecttolerance="10"
     gridtolerance="10"
     guidetolerance="10"
     inkscape:pageopacity="0"
     inkscape:pageshadow="2"
     inkscape:window-width="2560"
     inkscape:window-height="1388"
     id="namedview19"
     showgrid="false"
     inkscape:zoom="0.4609375"
     inkscape:cx="-520.67797"
     inkscape:cy="256"
     inkscape:window-x="-8"
     inkscape:window-y="-8"
     inkscape:window-maximized="1"
     inkscape:current-layer="Icons" />
  <path
     inkscape:connector-curvature="0"
     d="m 39.749411,45.1511 a 2.4436761,2.4436761 0 0 1 -4.037981,1.357689 v 5.523768 a 1.6318372,1.6318372 0 0 0 1.631837,1.631838 h 14.686535 a 1.6318372,1.6318372 0 0 0 1.631837,-1.631838 V 37.346023 a 1.6318372,1.6318372 0 0 0 -1.631837,-1.631837 h -5.523769 a 2.4477557,2.4477557 0 1 0 -3.638997,0 h -5.523769 a 1.6318372,1.6318372 0 0 0 -1.631837,1.631837 v 5.523769 a 2.4191986,2.4191986 0 0 1 1.631837,-0.628258 2.4477557,2.4477557 0 0 1 2.406144,2.909566 z"
     id="path2"
     style="fill:#44874c;fill-opacity:1;stroke-width:1" />
  <path
     inkscape:connector-curvature="0"
     d="m 20.250589,45.1511 a 2.4436761,2.4436761 0 0 0 4.037981,1.357689 v 5.523768 a 1.6318372,1.6318372 0 0 1 -1.631837,1.631838 H 7.9701983 A 1.6318372,1.6318372 0 0 1 6.3383612,52.032557 V 37.346023 a 1.6318372,1.6318372 0 0 1 1.6318371,-1.631837 h 5.5237687 a 2.4477557,2.4477557 0 1 1 3.638997,0 h 5.523769 a 1.6318372,1.6318372 0 0 1 1.631837,1.631837 v 5.523769 A 2.4191986,2.4191986 0 0 0 22.656733,42.241534 2.4477557,2.4477557 0 0 0 20.250589,45.1511 Z"
     id="path4"
     style="fill:#cfa522;fill-opacity:1;stroke-width:1" />
  <path
     inkscape:connector-curvature="0"
     d="m 43.01227,19.861704 a 2.4477557,2.4477557 0 0 1 -4.037166,1.354425 v 5.522952 a 1.6367327,1.6367327 0 0 1 -1.631837,1.631838 H 22.656733 a 1.6367327,1.6367327 0 0 1 -1.631837,-1.631838 v -5.522952 a 2.4477557,2.4477557 0 1 1 -1.631838,-4.26807 2.4191986,2.4191986 0 0 1 1.631838,0.628257 v -5.523769 a 1.6367327,1.6367327 0 0 1 1.631837,-1.631837 h 5.523769 A 2.4477557,2.4477557 0 1 1 32.447756,8.7888727 2.4191986,2.4191986 0 0 1 31.819498,10.42071 h 5.523769 a 1.6367327,1.6367327 0 0 1 1.631837,1.631837 V 17.5755 a 2.4191986,2.4191986 0 0 1 1.631838,-0.627441 2.4477557,2.4477557 0 0 1 2.405328,2.913645 z"
     id="path6"
     style="fill:#408cb5;fill-opacity:1;stroke-width:1" />
  <path
     style="fill:#4d88a9;stroke-width:1.22561252"
     inkscape:connector-curvature="0"
     d="m 33.02461,36.769169 a 0.81591858,0.81591858 0 0 0 -1.153709,0 l -1.054982,1.054982 v -6.189558 a 0.815919,0.815919 0 0 0 -1.631838,0 v 6.189558 l -1.054982,-1.054982 a 0.81591858,0.81591858 0 0 0 -1.153709,1.153708 l 2.447756,2.447756 a 0.81591858,0.81591858 0 0 0 1.153708,0 l 2.447756,-2.447756 a 0.81591858,0.81591858 0 0 0 0,-1.153708 z"
     id="path16" />
</svg>
