<svg id="Capa_1" enable-background="new 0 0 512 512" height="512" viewBox="0 0 512 512" width="512" xmlns="http://www.w3.org/2000/svg"><g><g><path d="m427.804 260.55v-129.1l-111.804-64.55-111.804 64.55v129.1l111.804 64.55z" fill="#ffe477"/><g><path d="m204.196 131.45v129.1l111.804 64.55v-129.1z" fill="#ffb655"/><path d="m316 196v129.1l111.804-64.55v-129.1z" fill="#ff7c48"/></g></g><g><path d="m0 0h128v384h-128z" fill="#dce6eb"/><path d="m64 0h64v384h-64z" fill="#c8d2dc"/><path d="m64 0h64v64h-64z" fill="#03232e"/><path d="m0 64h64v64h-64z" fill="#07485e"/><path d="m64 128h64v64h-64z" fill="#03232e"/><path d="m0 192h64v64h-64z" fill="#07485e"/><path d="m64 256h64v64h-64z" fill="#03232e"/><path d="m0 320h64v64h-64z" fill="#07485e"/><path d="m256 256h128v384h-128z" fill="#dce6eb" transform="matrix(0 1 -1 0 768 128)"/><path d="m288 288h64v384h-64z" fill="#c8d2dc" transform="matrix(0 1 -1 0 800 160)"/><path d="m448 448h64v64h-64z" fill="#03232e" transform="matrix(0 1 -1 0 960 0)"/><path d="m384 384h64v64h-64z" fill="#07485e" transform="matrix(0 1 -1 0 832 0)"/><path d="m320 448h64v64h-64z" fill="#03232e" transform="matrix(0 1 -1 0 832 128)"/><path d="m256 384h64v64h-64z" fill="#07485e" transform="matrix(0 1 -1 0 704 128)"/><path d="m192 448h64v64h-64z" fill="#03232e" transform="matrix(0 1 -1 0 704 256)"/><path d="m128 384h64v64h-64z" fill="#07485e" transform="matrix(0 1 -1 0 576 256)"/></g></g></svg>