<?xml version="1.0" encoding="UTF-8" standalone="no"?>
<svg
   xmlns:dc="http://purl.org/dc/elements/1.1/"
   xmlns:cc="http://creativecommons.org/ns#"
   xmlns:rdf="http://www.w3.org/1999/02/22-rdf-syntax-ns#"
   xmlns:svg="http://www.w3.org/2000/svg"
   xmlns="http://www.w3.org/2000/svg"
   xmlns:sodipodi="http://sodipodi.sourceforge.net/DTD/sodipodi-0.dtd"
   xmlns:inkscape="http://www.inkscape.org/namespaces/inkscape"
   id="Capa_1"
   enable-background="new 0 0 512 512"
   height="512"
   viewBox="0 0 512 512"
   width="512"
   version="1.1"
   sodipodi:docname="Camera.svg"
   inkscape:version="0.92.2 (5c3e80d, 2017-08-06)">
  <metadata
     id="metadata33">
    <rdf:RDF>
      <cc:Work
         rdf:about="">
        <dc:format>image/svg+xml</dc:format>
        <dc:type
           rdf:resource="http://purl.org/dc/dcmitype/StillImage" />
      </cc:Work>
    </rdf:RDF>
  </metadata>
  <defs
     id="defs31" />
  <sodipodi:namedview
     pagecolor="#ffffff"
     bordercolor="#666666"
     borderopacity="1"
     objecttolerance="10"
     gridtolerance="10"
     guidetolerance="10"
     inkscape:pageopacity="0"
     inkscape:pageshadow="2"
     inkscape:window-width="2560"
     inkscape:window-height="1388"
     id="namedview29"
     showgrid="false"
     inkscape:zoom="0.4609375"
     inkscape:cx="-520.67797"
     inkscape:cy="256"
     inkscape:window-x="-8"
     inkscape:window-y="-8"
     inkscape:window-maximized="1"
     inkscape:current-layer="Capa_1" />
  <g
     id="g837"
     transform="matrix(0.79660957,0,0,0.79660957,52.069045,52.068747)"
     style="stroke-width:1.25532007">
    <path
       style="fill:#45b8fb;fill-opacity:1;stroke-width:1.25532007"
       id="path2"
       d="M 440.092,175.413 V 82.384 c 0,-5.786 -4.69,-10.476 -10.476,-10.476 h -93.028 c -2.779,0 -5.443,-1.104 -7.408,-3.068 L 263.408,3.068 c -4.091,-4.091 -10.725,-4.091 -14.816,0 L 182.821,68.84 c -1.965,1.965 -4.629,3.068 -7.408,3.068 H 82.384 c -5.786,0 -10.476,4.69 -10.476,10.476 v 93.028 c 0,2.779 -1.104,5.443 -3.068,7.408 L 3.068,248.592 c -4.091,4.091 -4.091,10.725 0,14.816 l 65.771,65.771 c 1.965,1.965 3.068,4.629 3.068,7.408 v 93.028 c 0,5.786 4.69,10.476 10.476,10.476 h 93.028 c 2.779,0 5.443,1.104 7.408,3.068 l 65.771,65.771 c 4.091,4.091 10.725,4.091 14.816,0 l 65.771,-65.771 c 1.965,-1.965 4.629,-3.068 7.408,-3.068 h 93.028 c 5.786,0 10.476,-4.69 10.476,-10.476 v -93.028 c 0,-2.779 1.104,-5.443 3.068,-7.408 l 65.771,-65.771 c 4.091,-4.091 4.091,-10.725 0,-14.816 l -65.771,-65.771 c -1.961,-1.965 -3.065,-4.63 -3.065,-7.408 z M 256,396.384 c -77.536,0 -140.384,-62.848 -140.384,-140.384 0,-77.536 62.848,-140.384 140.384,-140.384 77.536,0 140.384,62.848 140.384,140.384 0,77.536 -62.848,140.384 -140.384,140.384 z"
       inkscape:connector-curvature="0" />
    <path
       style="fill:#25adfb;fill-opacity:1;stroke-width:1.25532007"
       id="path4"
       d="m 336.591,440.093 c -2.781,0 -5.45,1.102 -7.407,3.07 l -65.777,65.767 c -4.09,4.09 -10.724,4.09 -14.814,0 l -6.758,-6.758 59.019,-59.009 c 1.957,-1.968 4.625,-3.07 7.407,-3.07 z"
       inkscape:connector-curvature="0" />
    <path
       style="fill:#25adfb;fill-opacity:1;stroke-width:1.25532007"
       id="path6"
       d="m 336.591,71.907 h -28.33 c -2.781,0 -5.45,-1.102 -7.407,-3.07 L 241.835,9.828 248.593,3.07 c 4.09,-4.09 10.724,-4.09 14.814,0 l 65.777,65.767 c 1.957,1.967 4.626,3.07 7.407,3.07 z"
       inkscape:connector-curvature="0" />
    <path
       style="fill:#25adfb;fill-opacity:1;stroke-width:1.25532007"
       id="path8"
       d="m 508.93,263.407 -65.767,65.777 c -1.968,1.957 -3.07,4.625 -3.07,7.407 v 93.025 c 0,5.789 -4.687,10.477 -10.477,10.477 h -28.33 c 5.79,0 10.477,-4.687 10.477,-10.477 v -93.025 c 0,-2.781 1.102,-5.45 3.07,-7.407 L 480.6,263.407 c 4.09,-4.09 4.09,-10.724 0,-14.814 l -65.767,-65.777 c -1.968,-1.957 -3.07,-4.626 -3.07,-7.407 V 82.384 c 0,-5.79 -4.687,-10.477 -10.477,-10.477 h 28.33 c 5.79,0 10.477,4.687 10.477,10.477 v 93.025 c 0,2.781 1.102,5.45 3.07,7.407 l 65.767,65.777 c 4.09,4.09 4.09,10.724 0,14.814 z"
       inkscape:connector-curvature="0" />
    <g
       style="fill:#03e887;fill-opacity:1;stroke-width:1.25532007"
       id="g26">
      <path
         style="fill:#03e887;fill-opacity:1;stroke-width:1.25532007"
         id="path10"
         d="m 165.034,44.11 c -3.032,0 -5.909,-1.796 -7.141,-4.772 L 146.267,11.269 c -1.633,-3.943 0.239,-8.462 4.182,-10.095 3.942,-1.631 8.463,0.238 10.095,4.181 l 11.626,28.069 c 1.633,3.943 -0.239,8.462 -4.182,10.095 -0.967,0.401 -1.969,0.591 -2.954,0.591 z"
         inkscape:connector-curvature="0" />
      <path
         style="fill:#03e887;fill-opacity:1;stroke-width:1.25532007"
         id="path12"
         d="m 358.599,511.417 c -3.032,0 -5.909,-1.796 -7.141,-4.772 l -11.626,-28.069 c -1.633,-3.943 0.239,-8.462 4.182,-10.095 3.942,-1.632 8.463,0.238 10.095,4.181 l 11.626,28.069 c 1.633,3.943 -0.239,8.462 -4.182,10.095 -0.967,0.4 -1.969,0.591 -2.954,0.591 z"
         inkscape:connector-curvature="0" />
      <path
         style="fill:#03e887;fill-opacity:1;stroke-width:1.25532007"
         id="path14"
         d="m 153.401,511.417 c -0.985,0 -1.986,-0.189 -2.954,-0.591 -3.942,-1.633 -5.814,-6.152 -4.182,-10.095 l 11.626,-28.069 c 1.632,-3.942 6.151,-5.818 10.095,-4.181 3.942,1.633 5.814,6.152 4.182,10.095 l -11.626,28.069 c -1.232,2.975 -4.109,4.772 -7.141,4.772 z"
         inkscape:connector-curvature="0" />
      <path
         style="fill:#03e887;fill-opacity:1;stroke-width:1.25532007"
         id="path16"
         d="m 346.966,44.11 c -0.985,0 -1.986,-0.189 -2.954,-0.591 -3.942,-1.633 -5.814,-6.152 -4.182,-10.095 L 351.456,5.355 c 1.633,-3.942 6.151,-5.817 10.095,-4.181 3.942,1.633 5.814,6.152 4.182,10.095 l -11.626,28.069 c -1.232,2.975 -4.109,4.772 -7.141,4.772 z"
         inkscape:connector-curvature="0" />
      <path
         style="fill:#03e887;fill-opacity:1;stroke-width:1.25532007"
         id="path18"
         d="m 475.622,172.76 c -3.032,0 -5.908,-1.796 -7.141,-4.772 -1.633,-3.943 0.239,-8.462 4.182,-10.095 l 28.069,-11.627 c 3.943,-1.633 8.462,0.238 10.095,4.181 1.633,3.943 -0.239,8.462 -4.182,10.095 l -28.069,11.627 c -0.967,0.4 -1.968,0.591 -2.954,0.591 z"
         inkscape:connector-curvature="0" />
      <path
         style="fill:#03e887;fill-opacity:1;stroke-width:1.25532007"
         id="path20"
         d="m 8.315,366.324 c -3.032,0 -5.909,-1.796 -7.141,-4.772 -1.633,-3.943 0.239,-8.462 4.182,-10.095 L 33.425,339.83 c 3.942,-1.632 8.462,0.238 10.095,4.181 1.633,3.943 -0.239,8.462 -4.182,10.095 l -28.069,11.627 c -0.967,0.401 -1.969,0.591 -2.954,0.591 z"
         inkscape:connector-curvature="0" />
      <path
         style="fill:#03e887;fill-opacity:1;stroke-width:1.25532007"
         id="path22"
         d="m 36.378,172.76 c -0.985,0 -1.987,-0.189 -2.954,-0.591 L 5.355,160.542 c -3.942,-1.633 -5.814,-6.152 -4.182,-10.095 1.633,-3.942 6.153,-5.818 10.095,-4.181 l 28.069,11.627 c 3.942,1.633 5.814,6.152 4.182,10.095 -1.232,2.975 -4.11,4.772 -7.141,4.772 z"
         inkscape:connector-curvature="0" />
      <path
         style="fill:#03e887;fill-opacity:1;stroke-width:1.25532007"
         id="path24"
         d="m 503.685,366.324 c -0.985,0 -1.987,-0.189 -2.954,-0.591 l -28.069,-11.627 c -3.942,-1.633 -5.814,-6.152 -4.182,-10.095 1.633,-3.942 6.152,-5.817 10.095,-4.181 l 28.069,11.627 c 3.942,1.633 5.814,6.152 4.182,10.095 -1.232,2.975 -4.109,4.772 -7.141,4.772 z"
         inkscape:connector-curvature="0" />
    </g>
  </g>
</svg>
