<?xml version="1.0" encoding="UTF-8" standalone="no"?>
<!-- Generator: Adobe Illustrator 19.0.0, SVG Export Plug-In . SVG Version: 6.00 Build 0)  -->

<svg
   xmlns:dc="http://purl.org/dc/elements/1.1/"
   xmlns:cc="http://creativecommons.org/ns#"
   xmlns:rdf="http://www.w3.org/1999/02/22-rdf-syntax-ns#"
   xmlns:svg="http://www.w3.org/2000/svg"
   xmlns="http://www.w3.org/2000/svg"
   xmlns:sodipodi="http://sodipodi.sourceforge.net/DTD/sodipodi-0.dtd"
   xmlns:inkscape="http://www.inkscape.org/namespaces/inkscape"
   version="1.1"
   id="Capa_1"
   x="0px"
   y="0px"
   viewBox="0 0 512.00001 512.00001"
   xml:space="preserve"
   sodipodi:docname="Detailed.svg"
   width="512"
   height="512"
   inkscape:version="0.92.2 (5c3e80d, 2017-08-06)"><metadata
     id="metadata101"><rdf:RDF><cc:Work
         rdf:about=""><dc:format>image/svg+xml</dc:format><dc:type
           rdf:resource="http://purl.org/dc/dcmitype/StillImage" /><dc:title /></cc:Work></rdf:RDF></metadata><defs
     id="defs99" /><sodipodi:namedview
     pagecolor="#ffffff"
     bordercolor="#666666"
     borderopacity="1"
     objecttolerance="10"
     gridtolerance="10"
     guidetolerance="10"
     inkscape:pageopacity="0"
     inkscape:pageshadow="2"
     inkscape:window-width="2560"
     inkscape:window-height="1388"
     id="namedview97"
     showgrid="false"
     inkscape:zoom="0.6179774"
     inkscape:cx="-1095.5093"
     inkscape:cy="190.9455"
     inkscape:window-x="-8"
     inkscape:window-y="-8"
     inkscape:window-maximized="1"
     inkscape:current-layer="Capa_1" /><path
     inkscape:connector-curvature="0"
     style="fill:#9dabb7;fill-opacity:1;stroke-width:1"
     d="m 147.64977,454.66723 294.5809,1.98715 c 6.77166,0.0452 12.29912,-5.40766 12.34536,-12.18142 l 1.98715,-294.57985 c 0.0473,-6.95135 -8.33427,-10.48956 -13.28271,-5.60732 L 142.2232,441.30991 c -4.94844,4.88224 -1.52478,13.31003 5.42657,13.35732 z M 266.29465,390.15466 390.71393,267.40202 c 3.45834,-3.4121 9.31576,-0.93946 9.28318,3.91861 l -0.78708,116.77647 c -0.0462,6.77271 -5.5737,12.22661 -12.34641,12.18037 l -116.77646,-0.78708 c -4.85807,-0.0326 -7.25085,-5.92363 -3.79251,-9.33573 z"
     id="path2" /><path
     inkscape:connector-curvature="0"
     style="fill:#9db7a9;fill-opacity:1;stroke-width:1"
     d="M 124.1854,400.62215 401.54186,124.92288 c 4.66576,-4.63844 4.5859,-12.30017 -0.3121,-16.69271 -81.23471,-72.864712 -206.2225,-70.478237 -284.5989,7.42949 -78.377455,77.90877 -81.512133,202.87975 -9.13607,284.55056 4.36417,4.92427 12.02485,5.05037 16.69061,0.41193 z m 27.71295,-134.94352 c -22.85173,-32.04244 -19.82214,-76.82955 9.00261,-105.48196 28.82579,-28.65345 73.62867,-31.41403 105.5345,-8.37105 5.75864,4.15926 6.35763,12.53556 1.31881,17.5439 l -98.32043,97.73301 c -5.03881,5.00834 -13.41092,4.35997 -17.53549,-1.4239 z"
     id="path4" /><g
     style="fill:#657e8b;fill-opacity:1;stroke:none;stroke-width:0.95161295;stroke-opacity:1"
     id="g34"
     transform="matrix(1.0508474,0,0,1.0508474,55.345438,55.34522)"><path
       inkscape:connector-curvature="0"
       style="fill:#657e8b;fill-opacity:1;stroke:none;stroke-width:0.95161295;stroke-opacity:1"
       d="m 295.836,162.24 -5.641,5.564 5.417,5.449 c 1.542,1.551 4.051,1.559 5.603,0.017 v 0 c 1.551,-1.542 1.559,-4.05 0.017,-5.602 z"
       id="path6" /><path
       inkscape:connector-curvature="0"
       style="fill:#657e8b;fill-opacity:1;stroke:none;stroke-width:0.95161295;stroke-opacity:1"
       d="m 112.052,343.561 -5.64,5.564 6.099,6.135 c 1.542,1.552 4.051,1.56 5.602,0.017 v 0 c 1.552,-1.542 1.56,-4.051 0.018,-5.602 z"
       id="path8" /><path
       inkscape:connector-curvature="0"
       style="fill:#657e8b;fill-opacity:1;stroke:none;stroke-width:0.95161295;stroke-opacity:1"
       d="m 314.214,144.109 -5.64,5.564 5.348,5.38 c 1.543,1.552 4.051,1.559 5.603,0.017 v 0 c 1.552,-1.542 1.56,-4.05 0.017,-5.602 z"
       id="path10" /><path
       inkscape:connector-curvature="0"
       style="fill:#657e8b;fill-opacity:1;stroke:none;stroke-width:0.95161295;stroke-opacity:1"
       d="m 167.187,289.165 -5.64,5.564 5.894,5.929 c 1.543,1.553 4.051,1.56 5.603,0.018 v 0 c 1.552,-1.543 1.56,-4.051 0.017,-5.602 z"
       id="path12" /><path
       inkscape:connector-curvature="0"
       style="fill:#657e8b;fill-opacity:1;stroke:none;stroke-width:0.95161295;stroke-opacity:1"
       d="m 130.43,325.429 -5.64,5.563 11.986,12.058 c 1.542,1.552 4.05,1.559 5.602,0.017 1.552,-1.542 1.559,-4.05 0.017,-5.602 z"
       id="path14" /><path
       inkscape:connector-curvature="0"
       style="fill:#657e8b;fill-opacity:1;stroke:none;stroke-width:0.95161295;stroke-opacity:1"
       d="m 148.809,307.297 -5.64,5.564 5.962,5.998 c 1.542,1.552 4.051,1.559 5.602,0.017 1.552,-1.542 1.56,-4.05 0.018,-5.602 z"
       id="path16" /><path
       inkscape:connector-curvature="0"
       style="fill:#657e8b;fill-opacity:1;stroke:none;stroke-width:0.95161295;stroke-opacity:1"
       d="m 332.591,125.977 -5.64,5.564 5.28,5.312 c 1.542,1.552 4.051,1.559 5.602,0.017 1.552,-1.542 1.56,-4.05 0.018,-5.602 z"
       id="path18" /><path
       inkscape:connector-curvature="0"
       style="fill:#657e8b;fill-opacity:1;stroke:none;stroke-width:0.95161295;stroke-opacity:1"
       d="m 185.566,271.033 -5.641,5.564 5.826,5.86 c 1.542,1.552 4.051,1.56 5.602,0.017 v 0 c 1.552,-1.542 1.56,-4.05 0.018,-5.602 z"
       id="path20" /><path
       inkscape:connector-curvature="0"
       style="fill:#657e8b;fill-opacity:1;stroke:none;stroke-width:0.95161295;stroke-opacity:1"
       d="m 277.457,180.373 -5.64,5.564 11.44,11.508 c 1.542,1.553 4.05,1.56 5.602,0.018 v 0 c 1.552,-1.543 1.559,-4.051 0.017,-5.602 z"
       id="path22" /><path
       inkscape:connector-curvature="0"
       style="fill:#657e8b;fill-opacity:1;stroke:none;stroke-width:0.95161295;stroke-opacity:1"
       d="m 362.116,119.058 -11.146,-11.213 -5.64,5.564 11.167,11.234 c 1.542,1.552 4.05,1.559 5.602,0.017 1.552,-1.543 1.559,-4.051 0.017,-5.602 z"
       id="path24" /><path
       inkscape:connector-curvature="0"
       style="fill:#657e8b;fill-opacity:1;stroke:none;stroke-width:0.95161295;stroke-opacity:1"
       d="m 203.944,252.9 -5.64,5.564 11.712,11.783 c 1.543,1.552 4.051,1.56 5.603,0.018 v 0 c 1.552,-1.543 1.56,-4.051 0.017,-5.603 z"
       id="path26" /><path
       inkscape:connector-curvature="0"
       style="fill:#657e8b;fill-opacity:1;stroke:none;stroke-width:0.95161295;stroke-opacity:1"
       d="m 222.322,234.769 -5.64,5.563 5.689,5.724 c 1.542,1.552 4.051,1.56 5.603,0.018 1.551,-1.543 1.559,-4.051 0.016,-5.603 z"
       id="path28" /><path
       inkscape:connector-curvature="0"
       style="fill:#657e8b;fill-opacity:1;stroke:none;stroke-width:0.95161295;stroke-opacity:1"
       d="m 259.079,198.505 -5.64,5.564 5.553,5.587 c 1.542,1.551 4.051,1.559 5.602,0.017 l 0.001,-0.001 c 1.551,-1.541 1.559,-4.05 0.017,-5.602 z"
       id="path30" /><path
       inkscape:connector-curvature="0"
       style="fill:#657e8b;fill-opacity:1;stroke:none;stroke-width:0.95161295;stroke-opacity:1"
       d="m 240.701,216.637 -5.641,5.563 5.621,5.655 c 1.543,1.552 4.051,1.559 5.603,0.017 1.552,-1.542 1.559,-4.051 0.017,-5.602 z"
       id="path32" /></g><g
     style="stroke-width:0.95161295;fill:#658b77;fill-opacity:1"
     id="g64"
     transform="matrix(1.0508474,0,0,1.0508474,55.345438,55.34522)"><path
       inkscape:connector-curvature="0"
       style="fill:#658b77;stroke-width:0.95161295;fill-opacity:1"
       d="m 133.6,224.718 v 0 c -1.551,1.542 -1.559,4.05 -0.017,5.602 l 12.807,12.883 5.618,-5.586 -12.806,-12.883 c -1.542,-1.551 -4.05,-1.559 -5.602,-0.016 z"
       id="path36" /><path
       inkscape:connector-curvature="0"
       style="fill:#658b77;stroke-width:0.95161295;fill-opacity:1"
       d="m 121.246,248.91 v 0 c -1.552,1.542 -1.56,4.05 -0.018,5.602 l 6.852,6.893 5.619,-5.586 -6.852,-6.893 c -1.542,-1.551 -4.049,-1.559 -5.601,-0.016 z"
       id="path38" /><path
       inkscape:connector-curvature="0"
       style="fill:#658b77;stroke-width:0.95161295;fill-opacity:1"
       d="m 157.866,212.508 v 0 c -1.552,1.543 -1.56,4.051 -0.017,5.603 l 6.851,6.893 5.619,-5.585 -6.852,-6.893 c -1.542,-1.553 -4.049,-1.56 -5.601,-0.018 z"
       id="path40" /><path
       inkscape:connector-curvature="0"
       style="fill:#658b77;stroke-width:0.95161295;fill-opacity:1"
       d="m 309.948,66.92 c -1.542,-1.552 -4.05,-1.559 -5.602,-0.017 -1.552,1.542 -1.56,4.05 -0.017,5.602 l 6.851,6.893 5.619,-5.585 z"
       id="path42" /><path
       inkscape:connector-curvature="0"
       style="fill:#658b77;stroke-width:0.95161295;fill-opacity:1"
       d="m 176.175,194.307 c -1.551,1.542 -1.559,4.05 -0.017,5.603 l 6.852,6.892 5.618,-5.585 -6.851,-6.893 c -1.542,-1.551 -4.05,-1.559 -5.602,-0.017 z"
       id="path44" /><path
       inkscape:connector-curvature="0"
       style="fill:#658b77;stroke-width:0.95161295;fill-opacity:1"
       d="m 280.081,79.112 c -1.551,1.542 -1.559,4.05 -0.017,5.602 l 12.807,12.883 5.618,-5.585 -12.806,-12.883 c -1.543,-1.551 -4.05,-1.559 -5.602,-0.017 z"
       id="path46" /><path
       inkscape:connector-curvature="0"
       style="fill:#658b77;stroke-width:0.95161295;fill-opacity:1"
       d="m 102.935,267.11 c -1.552,1.542 -1.559,4.05 -0.017,5.603 l 6.852,6.892 5.618,-5.585 -6.851,-6.893 c -1.542,-1.552 -4.05,-1.559 -5.602,-0.017 z"
       id="path48" /><path
       inkscape:connector-curvature="0"
       style="fill:#658b77;stroke-width:0.95161295;fill-opacity:1"
       d="m 267.726,103.304 v 0 c -1.552,1.542 -1.56,4.05 -0.017,5.602 l 6.851,6.893 5.619,-5.585 -6.852,-6.892 c -1.541,-1.553 -4.049,-1.561 -5.601,-0.018 z"
       id="path50" /><path
       inkscape:connector-curvature="0"
       style="fill:#658b77;stroke-width:0.95161295;fill-opacity:1"
       d="m 84.626,285.31 c -1.552,1.543 -1.56,4.051 -0.017,5.603 l 6.851,6.892 5.619,-5.584 -6.852,-6.893 c -1.542,-1.552 -4.05,-1.559 -5.601,-0.018 z"
       id="path52" /><path
       inkscape:connector-curvature="0"
       style="fill:#658b77;stroke-width:0.95161295;fill-opacity:1"
       d="m 60.36,297.52 c -1.552,1.542 -1.559,4.051 -0.017,5.603 l 12.807,12.883 5.618,-5.585 -12.806,-12.884 c -1.541,-1.551 -4.05,-1.559 -5.602,-0.017 z"
       id="path54" /><path
       inkscape:connector-curvature="0"
       style="fill:#658b77;stroke-width:0.95161295;fill-opacity:1"
       d="m 249.416,121.505 v 0 c -1.552,1.542 -1.559,4.051 -0.017,5.602 l 6.852,6.893 5.618,-5.585 -6.851,-6.893 c -1.542,-1.552 -4.051,-1.56 -5.602,-0.017 z"
       id="path56" /><path
       inkscape:connector-curvature="0"
       style="fill:#658b77;stroke-width:0.95161295;fill-opacity:1"
       d="m 194.486,176.107 c -1.552,1.542 -1.56,4.05 -0.017,5.602 l 6.851,6.893 5.619,-5.586 -6.852,-6.892 c -1.541,-1.552 -4.049,-1.559 -5.601,-0.017 z"
       id="path58" /><path
       inkscape:connector-curvature="0"
       style="fill:#658b77;stroke-width:0.95161295;fill-opacity:1"
       d="m 206.841,151.915 v 0 c -1.553,1.542 -1.56,4.05 -0.018,5.602 l 12.807,12.883 5.618,-5.585 -12.806,-12.883 c -1.542,-1.551 -4.05,-1.559 -5.601,-0.017 z"
       id="path60" /><path
       inkscape:connector-curvature="0"
       style="fill:#658b77;stroke-width:0.95161295;fill-opacity:1"
       d="m 231.106,139.705 v 0 c -1.552,1.542 -1.56,4.051 -0.017,5.603 l 6.851,6.892 5.619,-5.585 -6.852,-6.893 c -1.541,-1.551 -4.049,-1.559 -5.601,-0.017 z"
       id="path62" /></g><g
     id="g66"
     transform="translate(0,130.10901)" /><g
     id="g68"
     transform="translate(0,130.10901)" /><g
     id="g70"
     transform="translate(0,130.10901)" /><g
     id="g72"
     transform="translate(0,130.10901)" /><g
     id="g74"
     transform="translate(0,130.10901)" /><g
     id="g76"
     transform="translate(0,130.10901)" /><g
     id="g78"
     transform="translate(0,130.10901)" /><g
     id="g80"
     transform="translate(0,130.10901)" /><g
     id="g82"
     transform="translate(0,130.10901)" /><g
     id="g84"
     transform="translate(0,130.10901)" /><g
     id="g86"
     transform="translate(0,130.10901)" /><g
     id="g88"
     transform="translate(0,130.10901)" /><g
     id="g90"
     transform="translate(0,130.10901)" /><g
     id="g92"
     transform="translate(0,130.10901)" /><g
     id="g94"
     transform="translate(0,130.10901)" /></svg>