<?xml version="1.0" encoding="UTF-8" standalone="no"?>
<!-- Generator: Adobe Illustrator 19.0.0, SVG Export Plug-In . SVG Version: 6.00 Build 0)  -->

<svg
   xmlns:dc="http://purl.org/dc/elements/1.1/"
   xmlns:cc="http://creativecommons.org/ns#"
   xmlns:rdf="http://www.w3.org/1999/02/22-rdf-syntax-ns#"
   xmlns:svg="http://www.w3.org/2000/svg"
   xmlns="http://www.w3.org/2000/svg"
   xmlns:sodipodi="http://sodipodi.sourceforge.net/DTD/sodipodi-0.dtd"
   xmlns:inkscape="http://www.inkscape.org/namespaces/inkscape"
   version="1.1"
   id="Capa_1"
   x="0px"
   y="0px"
   viewBox="0 0 512.00001 512.00001"
   xml:space="preserve"
   sodipodi:docname="Detailed.svg"
   width="512"
   height="512"
   inkscape:version="0.92.2 (5c3e80d, 2017-08-06)"><metadata
     id="metadata101"><rdf:RDF><cc:Work
         rdf:about=""><dc:format>image/svg+xml</dc:format><dc:type
           rdf:resource="http://purl.org/dc/dcmitype/StillImage" /><dc:title></dc:title></cc:Work></rdf:RDF></metadata><defs
     id="defs99" /><sodipodi:namedview
     pagecolor="#ffffff"
     bordercolor="#666666"
     borderopacity="1"
     objecttolerance="10"
     gridtolerance="10"
     guidetolerance="10"
     inkscape:pageopacity="0"
     inkscape:pageshadow="2"
     inkscape:window-width="2560"
     inkscape:window-height="1388"
     id="namedview97"
     showgrid="false"
     inkscape:zoom="0.6179774"
     inkscape:cx="-34.790917"
     inkscape:cy="190.9455"
     inkscape:window-x="-8"
     inkscape:window-y="-8"
     inkscape:window-maximized="1"
     inkscape:current-layer="Capa_1" /><g
     id="g940"
     transform="matrix(1.0508474,0,0,1.0508474,55.345438,55.34522)"
     style="stroke-width:0.95161295"><path
       id="path2"
       d="m 87.838,380 280.327,1.891 c 6.444,0.043 11.704,-5.146 11.748,-11.592 l 1.891,-280.326 c 0.045,-6.615 -7.931,-9.982 -12.64,-5.336 L 82.674,367.289 c -4.709,4.646 -1.451,12.666 5.164,12.711 z M 200.742,318.609 319.141,201.796 c 3.291,-3.247 8.865,-0.894 8.834,3.729 l -0.749,111.126 c -0.044,6.445 -5.304,11.635 -11.749,11.591 l -111.126,-0.749 c -4.623,-0.031 -6.9,-5.637 -3.609,-8.884 z"
       style="fill:#ff5b61;stroke-width:0.95161295"
       inkscape:connector-curvature="0" /><path
       id="path4"
       d="M 65.509,328.57 329.445,66.211 c 4.44,-4.414 4.364,-11.705 -0.297,-15.885 -77.304,-69.339 -196.244,-67.068 -270.828,7.07 -74.585,74.139 -77.568,193.063 -8.694,270.782 4.153,4.686 11.443,4.806 15.883,0.392 z M 91.881,200.156 c -21.746,-30.492 -18.863,-73.112 8.567,-100.378 27.431,-27.267 70.066,-29.894 100.428,-7.966 5.48,3.958 6.05,11.929 1.255,16.695 l -93.563,93.004 c -4.795,4.766 -12.762,4.149 -16.687,-1.355 z"
       style="fill:#20d0c3;stroke-width:0.95161295"
       inkscape:connector-curvature="0" /><g
       id="g34"
       style="stroke-width:0.95161295"><path
         id="path6"
         d="m 295.836,162.24 -5.641,5.564 5.417,5.449 c 1.542,1.551 4.051,1.559 5.603,0.017 v 0 c 1.551,-1.542 1.559,-4.05 0.017,-5.602 z"
         style="fill:#c43143;stroke-width:0.95161295"
         inkscape:connector-curvature="0" /><path
         id="path8"
         d="m 112.052,343.561 -5.64,5.564 6.099,6.135 c 1.542,1.552 4.051,1.56 5.602,0.017 v 0 c 1.552,-1.542 1.56,-4.051 0.018,-5.602 z"
         style="fill:#c43143;stroke-width:0.95161295"
         inkscape:connector-curvature="0" /><path
         id="path10"
         d="m 314.214,144.109 -5.64,5.564 5.348,5.38 c 1.543,1.552 4.051,1.559 5.603,0.017 v 0 c 1.552,-1.542 1.56,-4.05 0.017,-5.602 z"
         style="fill:#c43143;stroke-width:0.95161295"
         inkscape:connector-curvature="0" /><path
         id="path12"
         d="m 167.187,289.165 -5.64,5.564 5.894,5.929 c 1.543,1.553 4.051,1.56 5.603,0.018 v 0 c 1.552,-1.543 1.56,-4.051 0.017,-5.602 z"
         style="fill:#c43143;stroke-width:0.95161295"
         inkscape:connector-curvature="0" /><path
         id="path14"
         d="m 130.43,325.429 -5.64,5.563 11.986,12.058 c 1.542,1.552 4.05,1.559 5.602,0.017 1.552,-1.542 1.559,-4.05 0.017,-5.602 z"
         style="fill:#c43143;stroke-width:0.95161295"
         inkscape:connector-curvature="0" /><path
         id="path16"
         d="m 148.809,307.297 -5.64,5.564 5.962,5.998 c 1.542,1.552 4.051,1.559 5.602,0.017 1.552,-1.542 1.56,-4.05 0.018,-5.602 z"
         style="fill:#c43143;stroke-width:0.95161295"
         inkscape:connector-curvature="0" /><path
         id="path18"
         d="m 332.591,125.977 -5.64,5.564 5.28,5.312 c 1.542,1.552 4.051,1.559 5.602,0.017 1.552,-1.542 1.56,-4.05 0.018,-5.602 z"
         style="fill:#c43143;stroke-width:0.95161295"
         inkscape:connector-curvature="0" /><path
         id="path20"
         d="m 185.566,271.033 -5.641,5.564 5.826,5.86 c 1.542,1.552 4.051,1.56 5.602,0.017 v 0 c 1.552,-1.542 1.56,-4.05 0.018,-5.602 z"
         style="fill:#c43143;stroke-width:0.95161295"
         inkscape:connector-curvature="0" /><path
         id="path22"
         d="m 277.457,180.373 -5.64,5.564 11.44,11.508 c 1.542,1.553 4.05,1.56 5.602,0.018 v 0 c 1.552,-1.543 1.559,-4.051 0.017,-5.602 z"
         style="fill:#c43143;stroke-width:0.95161295"
         inkscape:connector-curvature="0" /><path
         id="path24"
         d="m 362.116,119.058 -11.146,-11.213 -5.64,5.564 11.167,11.234 c 1.542,1.552 4.05,1.559 5.602,0.017 1.552,-1.543 1.559,-4.051 0.017,-5.602 z"
         style="fill:#c43143;stroke-width:0.95161295"
         inkscape:connector-curvature="0" /><path
         id="path26"
         d="m 203.944,252.9 -5.64,5.564 11.712,11.783 c 1.543,1.552 4.051,1.56 5.603,0.018 v 0 c 1.552,-1.543 1.56,-4.051 0.017,-5.603 z"
         style="fill:#c43143;stroke-width:0.95161295"
         inkscape:connector-curvature="0" /><path
         id="path28"
         d="m 222.322,234.769 -5.64,5.563 5.689,5.724 c 1.542,1.552 4.051,1.56 5.603,0.018 1.551,-1.543 1.559,-4.051 0.016,-5.603 z"
         style="fill:#c43143;stroke-width:0.95161295"
         inkscape:connector-curvature="0" /><path
         id="path30"
         d="m 259.079,198.505 -5.64,5.564 5.553,5.587 c 1.542,1.551 4.051,1.559 5.602,0.017 l 0.001,-0.001 c 1.551,-1.541 1.559,-4.05 0.017,-5.602 z"
         style="fill:#c43143;stroke-width:0.95161295"
         inkscape:connector-curvature="0" /><path
         id="path32"
         d="m 240.701,216.637 -5.641,5.563 5.621,5.655 c 1.543,1.552 4.051,1.559 5.603,0.017 1.552,-1.542 1.559,-4.051 0.017,-5.602 z"
         style="fill:#c43143;stroke-width:0.95161295"
         inkscape:connector-curvature="0" /></g><g
       id="g64"
       style="stroke-width:0.95161295"><path
         id="path36"
         d="m 133.6,224.718 v 0 c -1.551,1.542 -1.559,4.05 -0.017,5.602 l 12.807,12.883 5.618,-5.586 -12.806,-12.883 c -1.542,-1.551 -4.05,-1.559 -5.602,-0.016 z"
         style="fill:#187f70;stroke-width:0.95161295"
         inkscape:connector-curvature="0" /><path
         id="path38"
         d="m 121.246,248.91 v 0 c -1.552,1.542 -1.56,4.05 -0.018,5.602 l 6.852,6.893 5.619,-5.586 -6.852,-6.893 c -1.542,-1.551 -4.049,-1.559 -5.601,-0.016 z"
         style="fill:#187f70;stroke-width:0.95161295"
         inkscape:connector-curvature="0" /><path
         id="path40"
         d="m 157.866,212.508 v 0 c -1.552,1.543 -1.56,4.051 -0.017,5.603 l 6.851,6.893 5.619,-5.585 -6.852,-6.893 c -1.542,-1.553 -4.049,-1.56 -5.601,-0.018 z"
         style="fill:#187f70;stroke-width:0.95161295"
         inkscape:connector-curvature="0" /><path
         id="path42"
         d="m 309.948,66.92 c -1.542,-1.552 -4.05,-1.559 -5.602,-0.017 -1.552,1.542 -1.56,4.05 -0.017,5.602 l 6.851,6.893 5.619,-5.585 z"
         style="fill:#187f70;stroke-width:0.95161295"
         inkscape:connector-curvature="0" /><path
         id="path44"
         d="m 176.175,194.307 c -1.551,1.542 -1.559,4.05 -0.017,5.603 l 6.852,6.892 5.618,-5.585 -6.851,-6.893 c -1.542,-1.551 -4.05,-1.559 -5.602,-0.017 z"
         style="fill:#187f70;stroke-width:0.95161295"
         inkscape:connector-curvature="0" /><path
         id="path46"
         d="m 280.081,79.112 c -1.551,1.542 -1.559,4.05 -0.017,5.602 l 12.807,12.883 5.618,-5.585 -12.806,-12.883 c -1.543,-1.551 -4.05,-1.559 -5.602,-0.017 z"
         style="fill:#187f70;stroke-width:0.95161295"
         inkscape:connector-curvature="0" /><path
         id="path48"
         d="m 102.935,267.11 c -1.552,1.542 -1.559,4.05 -0.017,5.603 l 6.852,6.892 5.618,-5.585 -6.851,-6.893 c -1.542,-1.552 -4.05,-1.559 -5.602,-0.017 z"
         style="fill:#187f70;stroke-width:0.95161295"
         inkscape:connector-curvature="0" /><path
         id="path50"
         d="m 267.726,103.304 v 0 c -1.552,1.542 -1.56,4.05 -0.017,5.602 l 6.851,6.893 5.619,-5.585 -6.852,-6.892 c -1.541,-1.553 -4.049,-1.561 -5.601,-0.018 z"
         style="fill:#187f70;stroke-width:0.95161295"
         inkscape:connector-curvature="0" /><path
         id="path52"
         d="m 84.626,285.31 c -1.552,1.543 -1.56,4.051 -0.017,5.603 l 6.851,6.892 5.619,-5.584 -6.852,-6.893 c -1.542,-1.552 -4.05,-1.559 -5.601,-0.018 z"
         style="fill:#187f70;stroke-width:0.95161295"
         inkscape:connector-curvature="0" /><path
         id="path54"
         d="m 60.36,297.52 c -1.552,1.542 -1.559,4.051 -0.017,5.603 l 12.807,12.883 5.618,-5.585 -12.806,-12.884 c -1.541,-1.551 -4.05,-1.559 -5.602,-0.017 z"
         style="fill:#187f70;stroke-width:0.95161295"
         inkscape:connector-curvature="0" /><path
         id="path56"
         d="m 249.416,121.505 v 0 c -1.552,1.542 -1.559,4.051 -0.017,5.602 l 6.852,6.893 5.618,-5.585 -6.851,-6.893 c -1.542,-1.552 -4.051,-1.56 -5.602,-0.017 z"
         style="fill:#187f70;stroke-width:0.95161295"
         inkscape:connector-curvature="0" /><path
         id="path58"
         d="m 194.486,176.107 c -1.552,1.542 -1.56,4.05 -0.017,5.602 l 6.851,6.893 5.619,-5.586 -6.852,-6.892 c -1.541,-1.552 -4.049,-1.559 -5.601,-0.017 z"
         style="fill:#187f70;stroke-width:0.95161295"
         inkscape:connector-curvature="0" /><path
         id="path60"
         d="m 206.841,151.915 v 0 c -1.553,1.542 -1.56,4.05 -0.018,5.602 l 12.807,12.883 5.618,-5.585 -12.806,-12.883 c -1.542,-1.551 -4.05,-1.559 -5.601,-0.017 z"
         style="fill:#187f70;stroke-width:0.95161295"
         inkscape:connector-curvature="0" /><path
         id="path62"
         d="m 231.106,139.705 v 0 c -1.552,1.542 -1.56,4.051 -0.017,5.603 l 6.851,6.892 5.619,-5.585 -6.852,-6.893 c -1.541,-1.551 -4.049,-1.559 -5.601,-0.017 z"
         style="fill:#187f70;stroke-width:0.95161295"
         inkscape:connector-curvature="0" /></g></g><g
     id="g66"
     transform="translate(0,130.10901)" /><g
     id="g68"
     transform="translate(0,130.10901)" /><g
     id="g70"
     transform="translate(0,130.10901)" /><g
     id="g72"
     transform="translate(0,130.10901)" /><g
     id="g74"
     transform="translate(0,130.10901)" /><g
     id="g76"
     transform="translate(0,130.10901)" /><g
     id="g78"
     transform="translate(0,130.10901)" /><g
     id="g80"
     transform="translate(0,130.10901)" /><g
     id="g82"
     transform="translate(0,130.10901)" /><g
     id="g84"
     transform="translate(0,130.10901)" /><g
     id="g86"
     transform="translate(0,130.10901)" /><g
     id="g88"
     transform="translate(0,130.10901)" /><g
     id="g90"
     transform="translate(0,130.10901)" /><g
     id="g92"
     transform="translate(0,130.10901)" /><g
     id="g94"
     transform="translate(0,130.10901)" /></svg>