<svg id="Layer_1" enable-background="new 0 0 404.644 404.644" height="512" viewBox="0 0 404.644 404.644" width="512" xmlns="http://www.w3.org/2000/svg"><g><path d="m287.511 244.908c-22.716 0-42.271 16.162-46.499 38.43l-10.799 56.89c-8.952 47.164-80.874 40.617-80.874-7.536v-82.295c14.032-4.273 25.856-14.1 32.628-27.702l78.745-137.257c17.742-30.833-6.355-70.156-41.362-70.156h-32.09v32h32.091c11.26 0 18.949 12.316 13.518 22.385l-78.912 137.548c-10.045 17.519-31.247 17.385-41.234 0l-78.912-137.547c-5.389-9.991 2.171-22.385 13.518-22.385h32.091v-32h-32.091c-34.974 0-59.084 39.358-41.362 70.156l78.782 137.321.07.138c6.807 13.52 18.589 23.255 32.521 27.5v82.294c0 85.463 128.388 97.393 144.312 13.503l10.799-56.89c1.364-7.184 7.697-12.398 15.06-12.398h84.554v-32h-84.554z" fill="#3e4d6c"/><g><ellipse cx="77.402" cy="31.583" fill="#0795fe" rx="30.301" ry="30.247"/></g><g><ellipse cx="187.279" cy="31.583" fill="#0795fe" rx="30.301" ry="30.247"/></g><g><ellipse cx="374.363" cy="260.479" fill="#0795fe" rx="30.281" ry="30.176"/></g></g></svg>