<?xml version="1.0" encoding="UTF-8" standalone="no"?>
<!-- Generator: Adobe Illustrator 19.0.0, SVG Export Plug-In . SVG Version: 6.00 Build 0)  -->

<svg
   xmlns:dc="http://purl.org/dc/elements/1.1/"
   xmlns:cc="http://creativecommons.org/ns#"
   xmlns:rdf="http://www.w3.org/1999/02/22-rdf-syntax-ns#"
   xmlns:svg="http://www.w3.org/2000/svg"
   xmlns="http://www.w3.org/2000/svg"
   xmlns:sodipodi="http://sodipodi.sourceforge.net/DTD/sodipodi-0.dtd"
   xmlns:inkscape="http://www.inkscape.org/namespaces/inkscape"
   version="1.1"
   id="Layer_1"
   x="0px"
   y="0px"
   viewBox="0 0 512.009 512.009"
   style="enable-background:new 0 0 512.009 512.009;"
   xml:space="preserve"
   sodipodi:docname="Environment.svg"
   inkscape:version="0.92.2 (5c3e80d, 2017-08-06)"><metadata
     id="metadata71"><rdf:RDF><cc:Work
         rdf:about=""><dc:format>image/svg+xml</dc:format><dc:type
           rdf:resource="http://purl.org/dc/dcmitype/StillImage" /></cc:Work></rdf:RDF></metadata><defs
     id="defs69" /><sodipodi:namedview
     pagecolor="#ffffff"
     bordercolor="#666666"
     borderopacity="1"
     objecttolerance="10"
     gridtolerance="10"
     guidetolerance="10"
     inkscape:pageopacity="0"
     inkscape:pageshadow="2"
     inkscape:window-width="2560"
     inkscape:window-height="1388"
     id="namedview67"
     showgrid="false"
     inkscape:zoom="0.46092942"
     inkscape:cx="-46.644885"
     inkscape:cy="256.00449"
     inkscape:window-x="-8"
     inkscape:window-y="-8"
     inkscape:window-maximized="1"
     inkscape:current-layer="Layer_1" /><g
     id="g895"
     transform="matrix(0.78724471,0,0,0.78724471,54.464911,54.466298)"
     style="stroke-width:1.27025306"><polygon
       id="polygon2"
       points="58.789,158.558 110.192,107.151 0.032,48.394 "
       style="fill:#e6eaee;stroke-width:1.6135428" /><polygon
       id="polygon4"
       points="94.023,123.312 0.032,48.394 110.192,107.151 "
       style="fill:#aab5bd;stroke-width:1.6135428" /><polygon
       id="polygon6"
       points="110.192,107.151 405.907,402.859 354.497,454.246 58.789,158.558 "
       style="fill:#ff7059;stroke-width:1.6135428" /><rect
       id="rect8"
       height="418.198"
       width="22.861"
       style="fill:#e64732;stroke-width:1.6135428"
       transform="matrix(0.7073,-0.7069,0.7069,0.7073,-112.8233,253.6979)"
       y="53.993999"
       x="238.521" /><polygon
       id="polygon10"
       points="22.983,91.558 43.148,71.393 0.032,48.394 "
       style="fill:#34495e;stroke-width:1.6135428" /><polygon
       id="polygon12"
       points="36.837,77.693 43.148,71.393 0.032,48.394 "
       style="fill:#283a4d;stroke-width:1.6135428" /><polygon
       id="polygon14"
       points="435.726,432.665 405.907,402.859 354.497,454.246 384.319,484.083 "
       style="fill:#e6eaee;stroke-width:1.6135428" /><rect
       id="rect16"
       height="42.16"
       width="22.871"
       style="fill:#aab5bd;stroke-width:1.6135428"
       transform="matrix(0.707,-0.7072,0.7072,0.707,-180.2206,416.6662)"
       y="404.755"
       x="401.314" /><path
       id="path18"
       d="m 451.888,448.849 c 6.587,6.582 10.655,15.69 10.703,25.718 -0.054,9.989 -4.114,19.087 -10.703,25.659 v 0 c -6.577,6.602 -15.66,10.652 -25.651,10.711 -10.04,-0.041 -19.164,-4.106 -25.746,-10.701 l -16.172,-16.156 51.407,-51.418 z"
       style="fill:#34495e;stroke-width:1.6135428"
       inkscape:connector-curvature="0" /><path
       id="path20"
       d="m 419.557,448.839 c 6.577,6.592 10.66,15.708 10.67,25.738 0.018,9.989 -4.07,19.067 -10.652,25.659 -2.775,2.767 -6.008,4.972 -9.533,6.7 4.892,2.506 10.314,3.971 16.195,4.001 9.989,-0.056 19.072,-4.106 25.651,-10.711 6.587,-6.572 10.65,-15.67 10.703,-25.659 -0.049,-10.028 -4.114,-19.136 -10.703,-25.718 l -16.161,-16.184 z"
       style="fill:#283a4d;stroke-width:1.6135428"
       inkscape:connector-curvature="0" /><rect
       id="rect22"
       height="581.60101"
       width="72.703003"
       style="fill:#ffd160;stroke-width:1.6135428"
       transform="matrix(-0.7071,-0.7071,0.7071,-0.7071,197.1987,640.8871)"
       y="-11.198"
       x="194.98" /><polygon
       id="polygon24"
       points="462.693,99.686 51.445,510.937 35.276,494.773 446.512,83.527 "
       style="fill:#f7b64d;stroke-width:1.6135428" /><g
       id="g30"
       style="stroke-width:1.27025306"><rect
         id="rect26"
         height="101.774"
         width="116.325"
         style="fill:#283a4d;stroke-width:1.27025306"
         transform="matrix(-0.707,-0.7072,0.7072,-0.707,579.3818,482.612)"
         y="70.401001"
         x="331.5" /><rect
         id="rect28"
         height="101.782"
         width="31.976999"
         style="fill:#283a4d;stroke-width:1.27025306"
         transform="matrix(-0.7071,-0.7071,0.7071,-0.7071,654.4877,663.7866)"
         y="145.453"
         x="448.73001" /></g><path
       id="path32"
       d="m 466.789,149.053 c -6.241,-6.272 -6.239,-16.379 0,-22.62 l -71.969,71.962 c 6.252,-6.252 16.387,-6.252 22.63,0 6.246,6.241 6.246,16.358 0,22.62 l 71.969,-71.972 c -6.241,6.244 -16.376,6.244 -22.63,0.01 z"
       style="fill:#34495e;stroke-width:1.6135428"
       inkscape:connector-curvature="0" /><path
       id="path34"
       d="M 369.125,28.743 C 352.022,11.647 328.393,1.072 302.296,1.072 c -26.081,0 -49.718,10.573 -66.826,27.671 l -5.151,5.156 22.625,22.62 c 16.476,-16.476 43.164,-16.476 59.63,-0.01 16.469,16.466 16.469,43.164 0,59.622 l 71.972,-71.962 z"
       style="fill:#283a4d;stroke-width:1.6135428"
       inkscape:connector-curvature="0" /></g><g
     id="g36" /><g
     id="g38" /><g
     id="g40" /><g
     id="g42" /><g
     id="g44" /><g
     id="g46" /><g
     id="g48" /><g
     id="g50" /><g
     id="g52" /><g
     id="g54" /><g
     id="g56" /><g
     id="g58" /><g
     id="g60" /><g
     id="g62" /><g
     id="g64" /></svg>