<?xml version="1.0" encoding="UTF-8" standalone="no"?>
<svg
   xmlns:dc="http://purl.org/dc/elements/1.1/"
   xmlns:cc="http://creativecommons.org/ns#"
   xmlns:rdf="http://www.w3.org/1999/02/22-rdf-syntax-ns#"
   xmlns:svg="http://www.w3.org/2000/svg"
   xmlns="http://www.w3.org/2000/svg"
   xmlns:xlink="http://www.w3.org/1999/xlink"
   xmlns:sodipodi="http://sodipodi.sourceforge.net/DTD/sodipodi-0.dtd"
   xmlns:inkscape="http://www.inkscape.org/namespaces/inkscape"
   height="512pt"
   viewBox="0 0 512 512"
   width="512pt"
   version="1.1"
   id="svg180"
   sodipodi:docname="Eye.svg"
   inkscape:version="0.92.2 (5c3e80d, 2017-08-06)">
  <metadata
     id="metadata186">
    <rdf:RDF>
      <cc:Work
         rdf:about="">
        <dc:format>image/svg+xml</dc:format>
        <dc:type
           rdf:resource="http://purl.org/dc/dcmitype/StillImage" />
      </cc:Work>
    </rdf:RDF>
  </metadata>
  <defs
     id="defs184">
    <linearGradient
       id="linearGradient999">
      <stop
         id="stop993"
         stop-opacity="0"
         stop-color="#e7eeed"
         offset=".0013"
         style="stop-color:#d0dedc;stop-opacity:0" />
      <stop
         id="stop995"
         stop-opacity=".772549"
         stop-color="#f9fbfa"
         offset=".7731"
         style="stop-color:#e1ebe6;stop-opacity:0.77254903" />
      <stop
         id="stop997"
         stop-color="#fff"
         offset="1"
         style="stop-color:#ebebeb;stop-opacity:1" />
    </linearGradient>
  </defs>
  <sodipodi:namedview
     pagecolor="#ffffff"
     bordercolor="#666666"
     borderopacity="1"
     objecttolerance="10"
     gridtolerance="10"
     guidetolerance="10"
     inkscape:pageopacity="0"
     inkscape:pageshadow="2"
     inkscape:window-width="2560"
     inkscape:window-height="1388"
     id="namedview182"
     showgrid="false"
     inkscape:zoom="0.48889805"
     inkscape:cx="664.74856"
     inkscape:cy="-102.11352"
     inkscape:window-x="-8"
     inkscape:window-y="-8"
     inkscape:window-maximized="1"
     inkscape:current-layer="svg180" />
  <radialGradient
     id="a"
     cx="55.6903907406"
     cy="-57.8174278186"
     gradientUnits="userSpaceOnUse"
     r="598.4460224754">
    <stop
       offset="0"
       stop-color="#f2f2f2"
       id="stop2" />
    <stop
       offset=".5234"
       stop-color="#f0f0f0"
       id="stop4" />
    <stop
       offset=".7119"
       stop-color="#e9e9e9"
       id="stop6" />
    <stop
       offset=".8463"
       stop-color="#dedede"
       id="stop8" />
    <stop
       offset=".9541"
       stop-color="#cdcdcd"
       id="stop10" />
    <stop
       offset="1"
       stop-color="#c3c3c3"
       id="stop12" />
  </radialGradient>
  <radialGradient
     id="b"
     cx="156.058347489"
     cy="125.5474289906"
     gradientUnits="userSpaceOnUse"
     r="408.7538505666">
    <stop
       offset="0"
       stop-color="#feffb3"
       stop-opacity="0"
       id="stop15" />
    <stop
       offset=".3038"
       stop-color="#fefcb0"
       stop-opacity=".301961"
       id="stop17" />
    <stop
       offset=".5384"
       stop-color="#fef4a6"
       stop-opacity=".537255"
       id="stop19" />
    <stop
       offset=".7498"
       stop-color="#fee696"
       stop-opacity=".74902"
       id="stop21" />
    <stop
       offset=".9465"
       stop-color="#ffd37f"
       stop-opacity=".945098"
       id="stop23" />
    <stop
       offset="1"
       stop-color="#fc7"
       id="stop25" />
  </radialGradient>
  <radialGradient
     id="c"
     cx="255.9675703794"
     cy="255.967974305"
     gradientUnits="userSpaceOnUse"
     r="150.5656871004">
    <stop
       offset="0"
       stop-color="#feffb3"
       id="stop28" />
    <stop
       offset=".3038"
       stop-color="#fefcb0"
       id="stop30" />
    <stop
       offset=".5384"
       stop-color="#fef4a6"
       id="stop32" />
    <stop
       offset=".7498"
       stop-color="#fee696"
       id="stop34" />
    <stop
       offset=".9465"
       stop-color="#ffd37f"
       id="stop36" />
    <stop
       offset="1"
       stop-color="#fc7"
       id="stop38" />
  </radialGradient>
  <radialGradient
     id="d"
     cx="281.7849513006"
     cy="118.48583858"
     gradientUnits="userSpaceOnUse"
     r="488.7977894382">
    <stop
       offset="0"
       stop-color="#fff"
       stop-opacity="0"
       id="stop41"
       style="stop-color:#ebebeb;stop-opacity:0" />
    <stop
       offset=".3945"
       stop-color="#fefdfd"
       stop-opacity=".396078"
       id="stop43"
       style="stop-color:#f1e3e3;stop-opacity:0.39607844" />
    <stop
       offset=".5366"
       stop-color="#fcf6f7"
       stop-opacity=".537255"
       id="stop45"
       style="stop-color:#f2d8dc;stop-opacity:0.53725493" />
    <stop
       offset=".6379"
       stop-color="#f8ebeb"
       stop-opacity=".639216"
       id="stop47"
       style="stop-color:#eecece;stop-opacity:0.63921571" />
    <stop
       offset=".7199"
       stop-color="#f2dadb"
       stop-opacity=".721569"
       id="stop49"
       style="stop-color:#e8bcbe;stop-opacity:0.72156864" />
    <stop
       offset=".7901"
       stop-color="#ebc4c5"
       stop-opacity=".788235"
       id="stop51"
       style="stop-color:#e1a7a8;stop-opacity:0.78823531" />
    <stop
       offset=".8522"
       stop-color="#e2a8ab"
       stop-opacity=".85098"
       id="stop53"
       style="stop-color:#d88a8e;stop-opacity:0.8509804" />
    <stop
       offset=".9083"
       stop-color="#d7888c"
       stop-opacity=".909804"
       id="stop55"
       style="stop-color:#cd6b70;stop-opacity:0.90980393" />
    <stop
       offset=".9583"
       stop-color="#ca6469"
       stop-opacity=".956863"
       id="stop57"
       style="stop-color:#c0464c;stop-opacity:0.95686275" />
    <stop
       offset="1"
       stop-color="#be3f45"
       id="stop59"
       style="stop-color:#9f353a;stop-opacity:1" />
  </radialGradient>
  <linearGradient
     id="e"
     gradientUnits="userSpaceOnUse"
     x1="170.3931280854"
     x2="298.7224693596"
     y1="170.393532011"
     y2="298.7228732852">
    <stop
       offset="0"
       stop-color="#7f7979"
       id="stop62" />
    <stop
       offset=".2304"
       stop-color="#767071"
       id="stop64" />
    <stop
       offset=".6083"
       stop-color="#5d595a"
       id="stop66" />
    <stop
       offset="1"
       stop-color="#3d3b3c"
       id="stop68" />
  </linearGradient>
  <linearGradient
     id="f">
    <stop
       offset=".0013"
       stop-color="#e7eeed"
       stop-opacity="0"
       id="stop71" />
    <stop
       offset=".7731"
       stop-color="#f9fbfa"
       stop-opacity=".772549"
       id="stop73" />
    <stop
       offset="1"
       stop-color="#fff"
       id="stop75" />
  </linearGradient>
  <linearGradient
     id="g"
     gradientUnits="userSpaceOnUse"
     x1="285.5647376076"
     x2="201.2600947236"
     xlink:href="#f"
     y1="270.1231761548"
     y2="185.8185332708" />
  <linearGradient
     id="h"
     gradientUnits="userSpaceOnUse"
     x1="330.174949038"
     x2="253.7795002182"
     xlink:href="#f"
     y1="314.7333875852"
     y2="238.3379387654" />
  <linearGradient
     id="i"
     gradientUnits="userSpaceOnUse"
     x1="402.9443927916"
     x2="291.3432785274"
     xlink:href="#f"
     y1="387.5028313388"
     y2="275.9016166952" />
  <linearGradient
     id="j">
    <stop
       offset="0"
       stop-color="#be3f45"
       stop-opacity="0"
       id="stop81" />
    <stop
       offset="1"
       stop-color="#be3f45"
       id="stop83" />
  </linearGradient>
  <radialGradient
     id="k"
     cx="140.4922"
     cy="65.9715"
     gradientTransform="matrix(.968159 .265102 -.265102 .968159 76.752571 -58.340785)"
     gradientUnits="userSpaceOnUse"
     r="797.8217"
     xlink:href="#j" />
  <radialGradient
     id="l"
     cx="140.488"
     cy="65.9831"
     gradientTransform="matrix(.968159 .265102 -.265102 .968159 76.752571 -58.340785)"
     gradientUnits="userSpaceOnUse"
     r="797.7986"
     xlink:href="#j" />
  <radialGradient
     id="m"
     cx="140.4835"
     cy="65.9786"
     gradientTransform="matrix(.968159 .265102 -.265102 .968159 76.752571 -58.340785)"
     gradientUnits="userSpaceOnUse"
     r="797.808"
     xlink:href="#j" />
  <radialGradient
     id="n"
     cx="140.4887"
     cy="65.9732"
     gradientTransform="matrix(.968159 .265102 -.265102 .968159 76.752571 -58.340785)"
     gradientUnits="userSpaceOnUse"
     r="797.8092"
     xlink:href="#j" />
  <radialGradient
     id="o"
     cx="140.4865"
     cy="65.978"
     gradientTransform="matrix(.968159 .265102 -.265102 .968159 76.752571 -58.340785)"
     gradientUnits="userSpaceOnUse"
     r="797.8036"
     xlink:href="#j" />
  <radialGradient
     id="p"
     cx="140.4895"
     cy="65.982"
     gradientTransform="matrix(.968159 .265102 -.265102 .968159 76.752571 -58.340785)"
     gradientUnits="userSpaceOnUse"
     r="797.7975"
     xlink:href="#j" />
  <radialGradient
     id="q"
     cx="140.4901"
     cy="65.9795"
     gradientTransform="matrix(.968159 .265102 -.265102 .968159 76.752571 -58.340785)"
     gradientUnits="userSpaceOnUse"
     r="797.8019"
     xlink:href="#j" />
  <radialGradient
     id="r"
     cx="140.5005"
     cy="65.9743"
     gradientTransform="matrix(.968159 .265102 -.265102 .968159 76.752571 -58.340785)"
     gradientUnits="userSpaceOnUse"
     r="797.8013"
     xlink:href="#j" />
  <radialGradient
     id="s"
     cx="140.4839"
     cy="65.9745"
     gradientTransform="matrix(.968159 .265102 -.265102 .968159 76.752571 -58.340785)"
     gradientUnits="userSpaceOnUse"
     r="797.8118"
     xlink:href="#j" />
  <radialGradient
     id="t"
     cx="140.4873"
     cy="65.9715"
     gradientTransform="matrix(.968159 .265102 -.265102 .968159 76.752571 -58.340785)"
     gradientUnits="userSpaceOnUse"
     r="797.8043"
     xlink:href="#j" />
  <radialGradient
     id="u"
     cx="140.4916"
     cy="65.9706"
     gradientTransform="matrix(.968159 .265102 -.265102 .968159 76.752571 -58.340785)"
     gradientUnits="userSpaceOnUse"
     r="797.799"
     xlink:href="#j" />
  <radialGradient
     id="v"
     cx="140.4908"
     cy="65.9694"
     gradientTransform="matrix(.968159 .265102 -.265102 .968159 76.752571 -58.340785)"
     gradientUnits="userSpaceOnUse"
     r="797.8051"
     xlink:href="#j" />
  <radialGradient
     id="w"
     cx="140.4824"
     cy="65.9801"
     gradientTransform="matrix(.968159 .265102 -.265102 .968159 76.752571 -58.340785)"
     gradientUnits="userSpaceOnUse"
     r="797.778"
     xlink:href="#j" />
  <radialGradient
     id="x"
     cx="140.4869"
     cy="65.9798"
     gradientTransform="matrix(.968159 .265102 -.265102 .968159 76.752571 -58.340785)"
     gradientUnits="userSpaceOnUse"
     r="797.8097"
     xlink:href="#j" />
  <radialGradient
     id="y"
     cx="140.4843"
     cy="65.9783"
     gradientTransform="matrix(.968159 .265102 -.265102 .968159 76.752571 -58.340785)"
     gradientUnits="userSpaceOnUse"
     r="797.8212"
     xlink:href="#j" />
  <radialGradient
     id="z"
     cx="140.484"
     cy="65.9775"
     gradientTransform="matrix(.968159 .265102 -.265102 .968159 76.752571 -58.340785)"
     gradientUnits="userSpaceOnUse"
     r="797.8252"
     xlink:href="#j" />
  <radialGradient
     id="A"
     cx="140.4833"
     cy="65.9766"
     gradientTransform="matrix(.968159 .265102 -.265102 .968159 76.752571 -58.340785)"
     gradientUnits="userSpaceOnUse"
     r="797.8173"
     xlink:href="#j" />
  <radialGradient
     id="B"
     cx="140.4926"
     cy="65.9819"
     gradientTransform="matrix(.968159 .265102 -.265102 .968159 76.752571 -58.340785)"
     gradientUnits="userSpaceOnUse"
     r="797.7994"
     xlink:href="#j" />
  <radialGradient
     id="C"
     cx="140.49"
     cy="65.9703"
     gradientTransform="matrix(.968159 .265102 -.265102 .968159 76.752571 -58.340785)"
     gradientUnits="userSpaceOnUse"
     r="797.8328"
     xlink:href="#j" />
  <radialGradient
     id="D"
     cx="140.4902"
     cy="65.9825"
     gradientTransform="matrix(.968159 .265102 -.265102 .968159 76.752571 -58.340785)"
     gradientUnits="userSpaceOnUse"
     r="797.7977"
     xlink:href="#j" />
  <radialGradient
     id="E"
     cx="140.4882"
     cy="65.9821"
     gradientTransform="matrix(.968159 .265102 -.265102 .968159 76.752571 -58.340785)"
     gradientUnits="userSpaceOnUse"
     r="797.798"
     xlink:href="#j" />
  <radialGradient
     id="F"
     cx="140.4888"
     cy="65.9759"
     gradientTransform="matrix(.968159 .265102 -.265102 .968159 76.752571 -58.340785)"
     gradientUnits="userSpaceOnUse"
     r="797.7899"
     xlink:href="#j" />
  <radialGradient
     id="G"
     cx="140.4912"
     cy="65.9749"
     gradientTransform="matrix(.968159 .265102 -.265102 .968159 76.752571 -58.340785)"
     gradientUnits="userSpaceOnUse"
     r="797.7855"
     xlink:href="#j" />
  <radialGradient
     id="H"
     cx="140.494"
     cy="65.9798"
     gradientTransform="matrix(.968159 .265102 -.265102 .968159 76.752571 -58.340785)"
     gradientUnits="userSpaceOnUse"
     r="797.8011"
     xlink:href="#j" />
  <radialGradient
     id="I"
     cx="140.495"
     cy="65.9739"
     gradientTransform="matrix(.968159 .265102 -.265102 .968159 76.752571 -58.340785)"
     gradientUnits="userSpaceOnUse"
     r="797.8083"
     xlink:href="#j" />
  <linearGradient
     id="J"
     gradientUnits="userSpaceOnUse"
     x1="255.9675703794"
     x2="255.9675703794"
     xlink:href="#linearGradient999"
     y1="282.5487405632"
     y2="6.0249747548" />
  <g
     id="g955">
    <path
       id="path112"
       fill="url(#a)"
       d="m511.933594 255.96875c0 141.367188-114.597656 255.964844-255.964844 255.964844s-255.96875-114.597656-255.96875-255.964844 114.601562-255.96875 255.96875-255.96875 255.964844 114.601562 255.964844 255.96875zm0 0" />
    <path
       id="path114"
       fill="url(#b)"
       d="m511.933594 255.96875c0 141.367188-114.597656 255.964844-255.964844 255.964844s-255.96875-114.597656-255.96875-255.964844 114.601562-255.96875 255.96875-255.96875 255.964844 114.601562 255.964844 255.96875zm0 0" />
    <path
       id="path116"
       fill="url(#c)"
       d="m391.507812 255.96875c0 74.855469-60.683593 135.539062-135.539062 135.539062-74.859375 0-135.539062-60.683593-135.539062-135.539062 0-74.859375 60.679687-135.539062 135.539062-135.539062 74.855469 0 135.539062 60.679687 135.539062 135.539062zm0 0" />
    <path
       id="path118"
       fill="url(#d)"
       d="m511.933594 255.96875c0 141.367188-114.597656 255.964844-255.964844 255.964844s-255.96875-114.597656-255.96875-255.964844 114.601562-255.96875 255.96875-255.96875 255.964844 114.601562 255.964844 255.96875zm0 0" />
    <path
       id="path120"
       fill="url(#e)"
       d="m332.769531 255.96875c0 42.414062-34.386719 76.800781-76.800781 76.800781-42.417969 0-76.804688-34.386719-76.804688-76.800781 0-42.417969 34.386719-76.804688 76.804688-76.804688 42.414062 0 76.800781 34.386719 76.800781 76.804688zm0 0" />
    <path
       id="path122"
       fill="url(#g)"
       d="m258.542969 202.566406c0 22.386719-18.148438 40.535156-40.535157 40.535156-22.390624 0-40.535156-18.148437-40.535156-40.535156 0-22.390625 18.144532-40.535156 40.535156-40.535156 22.386719 0 40.535157 18.144531 40.535157 40.535156zm0 0" />
    <path
       id="path124"
       fill="url(#h)"
       d="m322.082031 283.859375c0 12.582031-10.199219 22.78125-22.78125 22.78125-12.585937 0-22.785156-10.199219-22.785156-22.78125 0-12.585937 10.199219-22.785156 22.785156-22.785156 12.582031 0 22.78125 10.199219 22.78125 22.785156zm0 0" />
    <path
       id="path126"
       fill="url(#i)"
       d="m391.121094 342.398438c0 18.378906-14.898438 33.28125-33.28125 33.28125-18.378906 0-33.28125-14.902344-33.28125-33.28125 0-18.382813 14.902344-33.28125 33.28125-33.28125 18.382812 0 33.28125 14.898437 33.28125 33.28125zm0 0" />
    <path
       id="path128"
       fill="url(#k)"
       d="m93.222656 394.464844-.046875.121094c-1.882812-.488282-3.785156-.996094-5.605469-.921876-.90625.046876-1.789062.246094-2.515624.699219-.738282.414063-1.425782 1.117188-2.410157 1.648438-.5.265625-1.15625.472656-1.847656.320312-.699219-.121093-1.207031-.609375-1.53125-.898437-.359375-.339844-.574219-.476563-.921875-.53125-.351562-.070313-.765625-.023438-1.207031.082031-1.816407.4375-3.660157 1.082031-5.546875 1.589844-1.882813.539062-3.785156 1.019531-5.75 1.175781-1.949219.1875-4.046875.050781-5.890625-.90625-.890625-.457031-1.679688-.980469-2.496094-1.3125-.824219-.304688-1.714844-.457031-2.632813-.425781-1.496093.015625-2.996093.421875-4.507812.832031-1.96875 1.289062-3.925781 2.582031-5.84375 3.9375-.085938-.117188-.160156-.242188-.234375-.355469l8.917969-6.257812c3.519531-2.480469 7.128906-4.839844 10.933594-6.894531 3.792968-2.058594 7.746093-3.882813 11.910156-5.144532 4.140625-1.332031 8.386718-2.027344 12.476562-3.1875 4.074219-1.140625 8.121094-2.753906 11.203125-5.777344l.09375.089844c-2.816406 3.324219-6.921875 5.3125-11 6.648438-4.117187 1.355468-8.34375 2.210937-12.375 3.496094-2.03125.632812-4.003906 1.414062-5.964843 2.238281-1.96875.804687-3.878907 1.738281-5.773438 2.714843-3.789062 1.949219-7.472656 4.144532-11.117188 6.398438-.464843.289062-.925781.601562-1.394531.902344.832031-.308594 1.695313-.539063 2.617188-.632813 1.019531-.121093 2.09375 0 3.089843.355469 1.007813.367188 1.820313.949219 2.621094 1.4375 1.527344 1.003906 3.417969 1.507812 5.335938 1.417969 1.914062-.074219 3.777344-.683594 5.550781-1.414063 1.792969-.75 3.546875-1.550781 5.484375-2.101562.507812-.140625 1.054688-.242188 1.679688-.179688.625.050782 1.257812.464844 1.613281.777344.773437.691406 1.105469.742188 1.882812.382812.761719-.339843 1.464844-1.054687 2.460938-1.527343.976562-.496094 2.066406-.625 3.085937-.597657 2.070313.125 3.921875.914063 5.65625 1.800782zm0 0" />
    <path
       id="path130"
       fill="url(#l)"
       d="m471.335938 383.878906c1.605468 1.054688 3.234374 2.074219 4.898437 3.0625-.175781.300782-.355469.609375-.542969.90625-1.691406-.929687-3.371094-1.910156-5.003906-2.960937-3.652344-2.304688-7.179688-4.871094-10.300781-7.890625-3.179688-2.960938-5.855469-6.351563-8.863281-9.347656-2.980469-2.992188-6.363282-5.746094-10.5-6.972657l.035156-.125c4.265625.835938 8.003906 3.460938 11.15625 6.378907 3.183594 2.9375 6 6.203124 9.085937 9.105468 1.535157 1.460938 3.179688 2.804688 4.851563 4.117188 1.667968 1.308594 3.414062 2.535156 5.183594 3.726562zm0 0" />
    <path
       id="path132"
       fill="url(#m)"
       d="m480.636719 379.246094c-.125.207031-.234375.417968-.347657.628906-.226562-.636719-.511718-1.25-.875-1.828125-1.003906-1.636719-2.441406-2.964844-3.945312-4.148437-1.523438-1.207032-3.089844-2.355469-4.515625-3.773438-.351563-.375-.71875-.796875-.960937-1.371094-.265626-.578125-.222657-1.328125-.105469-1.804687.222656-1.003907.109375-1.316407-.59375-1.828125-.664063-.488282-1.621094-.75-2.523438-1.398438-.902343-.605468-1.554687-1.492187-2.035156-2.410156-.890625-1.871094-1.105469-3.867188-1.171875-5.804688l.125-.019531c.484375 1.878907.964844 3.785157 1.925781 5.34375.484375.757813 1.085938 1.441407 1.835938 1.863281.722656.4375 1.664062.695313 2.625 1.292969.464843.300781.957031.78125 1.171875 1.453125.230468.679688.058594 1.351563-.042969 1.777344-.117187.476562-.136719.738281-.027344 1.074219.125.324219.375.675781.667969 1.007812 1.265625 1.375 2.726562 2.667969 4.089844 4.070313 1.382812 1.378906 2.738281 2.816406 3.828125 4.449218.316406.449219.609375.929688.875 1.425782zm0 0" />
    <path
       id="path134"
       fill="url(#n)"
       d="m404.320312 464.808594c-.246093.171875-.507812.351562-.761718.539062-.234375-.265625-.464844-.542968-.691406-.832031-1.125-1.398437-2.148438-2.882813-3.121094-4.390625-.453125-.777344-.941406-1.535156-1.3125-2.371094l-.585938-1.214844-.507812-1.273437c-.875-2.253906-1.300782-4.695313-1.226563-7.113281l-6.089843-3.148438c-1.101563-.609375-2.203126-1.257812-3.398438-1.71875-.589844-.230468-1.203125-.421875-1.820312-.566406-.621094-.167969-1.261719-.210938-1.925782-.460938-.675781-.222656-1.308594-.835937-1.609375-1.480468-.332031-.640625-.484375-1.265625-.714843-1.824219-.433594-1.148437-1.046876-2.222656-1.699219-3.253906-1.316407-2.066407-3.03125-3.886719-5.085938-5.449219l.054688-.101562c2.476562.847656 4.652343 2.59375 6.171875 4.796874.753906 1.101563 1.320312 2.335938 1.707031 3.613282.417969 1.289062.464844 2.492187 1.480469 3.0625.496094.285156 1.125.480468 1.738281.675781l1.839844.585937c1.230469.375 2.496093.683594 3.714843 1.148438 2.085938.863281 4.011719 2.113281 5.65625 3.65625.0625-1.050781.199219-2.089844.464844-3.113281.96875-3.539063 3.5625-6.324219 6.300782-8.574219 2.710937-2.3125 5.660156-4.359375 7.71875-7.105469 1.078124-1.347656 1.699218-2.9375 2.117187-4.558593.339844-1.640626.351563-3.371094.3125-5.144532-.023437-1.765625-.035156-3.625.300781-5.425781.308594-1.8125.867188-3.566406 1.613282-5.214844 1.5-3.328125 3.875-6.210937 6.789062-8.28125l.082031.101563c-2.640625 2.371094-4.691406 5.332031-5.9375 8.566406-.640625 1.613281-1.101562 3.300781-1.320312 5.015625-.238281 1.707031-.226563 3.421875-.15625 5.214844.035156 1.769531.058593 3.628906-.363281 5.460937-.511719 1.8125-1.285157 3.574219-2.476563 4.996094-2.296875 2.933594-5.421875 4.839844-8.246094 6.933594-2.828125 2.039062-5.496093 4.671875-6.296875 8.136718-.253906 1.15625-.277344 4.710938-.183594 5.191407.070313.871093.375 1.703125.558594 2.542969.308594.816406.535156 1.652343.917969 2.4375 1.351563 3.210937 3.222656 6.21875 5.328125 9.050781.214844.300781.4375.601562.664062.890625zm0 0" />
    <path
       id="path136"
       fill="url(#o)"
       d="m372.855469 483.878906c-.339844.171875-.679688.347656-1.019531.519532-.378907-.664063-.726563-1.347657-1.03125-2.042969-.554688-1.378907-.980469-2.804688-1.558594-4.148438-.578125-1.347656-1.308594-2.628906-2.175782-3.800781-.882812-1.160156-1.824218-2.207031-2.867187-3.214844-1.042969-1.015625-2.183594-2.023437-3.027344-3.375-1.777343-2.714844-1.441406-6.519531.617188-8.730468l.109375.082031c-1.304688 2.632812-1.117188 5.699219.425781 7.910156.753906 1.140625 1.75 2.183594 2.746094 3.273437 1.011719 1.078126 1.917969 2.351563 2.59375 3.683594.703125 1.328125 1.28125 2.671875 1.960937 3.992188.671875 1.304687 1.429688 2.578125 2.144532 3.859375.363281.671875.714843 1.34375 1.082031 1.992187zm0 0" />
    <path
       id="path138"
       fill="url(#p)"
       d="m332.320312 500.449219c-.335937.109375-.671874.21875-1.003906.3125-1.375-1.5625-2.707031-3.171875-4.117187-4.703125-.878907-.972656-1.789063-1.890625-2.714844-2.851563-.453125-.484375-.863281-1.128906-.949219-1.847656-.050781-.386719-.039062-.769531.019532-1.140625-1.59375-1.824219-3.242188-3.558594-4.988282-5.167969-.867187-.828125-1.789062-1.597656-2.710937-2.371093-.925781-.773438-1.832031-1.554688-2.808594-2.265626l-.765625-.570312.882812-.105469c1.144532-.140625 1.96875-1.59375 1.738282-2.84375-.21875-1.300781-.996094-2.449219-1.824219-3.515625-1.648437-2.121094-3.554687-4.136718-4.898437-6.625-1.386719-2.445312-2.238282-5.082031-3.113282-7.628906-.902344-2.554688-1.875-5.050781-3.433594-7.304688l.101563-.078124c2.03125 1.886718 3.347656 4.4375 4.433594 6.949218 1.101562 2.515625 1.972656 5.078125 3.136719 7.460938 1.179687 2.367187 2.855468 4.519531 4.277343 6.882812.691407 1.175782 1.503907 2.359375 1.710938 3.789063.113281.710937.011719 1.472656-.300781 2.132812-.207032.453125-.546876.867188-.988282 1.171875.886719.507813 1.75 1.054688 2.554688 1.675782.984375.746093 1.902344 1.585937 2.769531 2.464843 1.664063 1.710938 3.125 3.628907 4.265625 5.714844.046875-.226563.097656-.464844.148438-.691406.785156-2.53125 1.34375-5.007813 1.527343-7.585938.195313-2.5625.003907-5.121093-.457031-7.636719-.4375-2.535156-1.277344-4.925781-2.277344-7.375-.933594-2.429687-1.855468-5.097656-1.460937-7.765624l.128906.011718c.039063 2.636719 1.152344 5.007813 2.253906 7.367188 1.132813 2.335937 2.207031 4.859375 2.695313 7.5 1.042968 5.261718.371094 10.871094-1.730469 15.683594-.207031.609374-.371094 1.207031-.335937 1.804687.011718.601563.316406 1.140625.734374 1.613281.871094.960938 1.765626 1.925782 2.683594 2.859375 1.566406 1.601563 3.203125 3.117188 4.816406 4.679688zm0 0" />
    <path
       id="path140"
       fill="url(#q)"
       d="m272.261719 492.679688c.496093 4.429687.195312 9.085937-1.363281 13.273437-.675782 1.976563-1.472657 3.867187-2.152344 5.816406-.148438 0-.296875.011719-.449219.023438.757813-1.980469 1.4375-3.984375 1.933594-6.035157.402343-1.609374.660156-3.234374.800781-4.875-.378906-1.242187-1.070312-2.324218-1.960938-3.21875-1.121093-1.164062-2.53125-2.054687-3.941406-2.949218-2.824218-1.8125-5.792968-3.640625-8.347656-5.953125-1.328125-1.207031-2.09375-2.9375-2.5625-4.585938-.453125-1.65625-.929688-3.28125-1.316406-4.9375-.402344-1.65625-.71875-3.316406-1.035156-4.992187-.292969-1.667969-.644532-3.390625-.503907-5.125l.132813-.003906c.304687 1.671874.898437 3.246093 1.382812 4.886718.488282 1.628906.960938 3.265625 1.367188 4.910156.414062 1.648438.726562 3.335938 1.09375 4.96875.351562 1.632813.757812 3.226563 1.835937 4.496094 1.097657 1.257813 2.460938 2.328125 3.945313 3.09375 1.503906.785156 3.078125 1.417969 4.59375 2.269532 1.484375.859374 2.929687 1.910156 4.078125 3.277343.59375.710938 1.050781 1.53125 1.328125 2.40625.105468-2.1875.019531-4.398437-.234375-6.589843-.414063-4.339844-1.316407-8.644532-2.011719-13.023438l.128906-.03125c1.472656 4.175781 2.6875 8.457031 3.257813 12.898438zm0 0" />
    <path
       id="path142"
       fill="url(#r)"
       d="m278.90625 503.011719c-.628906.691406-1.328125 1.25-1.898438 1.828125-.585937.570312-1.027343 1.117187-1.25 1.871094-.207031.757812-.300781 1.636718-.503906 2.53125-.152344.746093-.390625 1.480468-.703125 2.167968-.148437.011719-.3125.03125-.472656.03125.40625-.664062.507813-1.464844.472656-2.261718-.042969-.863282-.160156-1.765626.03125-2.75.152344-.988282.765625-1.96875 1.480469-2.585938 1.410156-1.292969 3.09375-1.792969 3.8125-3.4375l.128906.019531c.082032.960938-.480468 1.898438-1.097656 2.585938zm0 0" />
    <path
       id="path144"
       fill="url(#s)"
       d="m487.796875 147.015625-.179687.019531c-2.949219.207032-5.960938-.191406-8.765626-1.160156l-5.878906 5.96875c-1.117187 1.066406-2.277344 2.125-3.238281 3.355469-.476563.617187-.929687 1.253906-1.328125 1.917969-.417969.660156-.6875 1.398437-1.234375 2.078124-.503906.714844-1.445313 1.230469-2.304687 1.34375-.871094.160157-1.667969.101563-2.394532.183594-1.503906.082032-2.984375.410156-4.425781.804688-2.894531.78125-5.636719 2.125-8.195313 3.960937l-.113281-.113281c1.890625-2.578125 4.722657-4.484375 7.84375-5.457031 1.570313-.476563 3.207031-.695313 4.839844-.675781 1.660156-.023438 3.089844.367187 4.105469-.621094.523437-.488282.984375-1.148438 1.4375-1.785156l1.355468-1.933594c.878907-1.308594 1.695313-2.683594 2.679688-3.9375 1.78125-2.113282 3.925781-3.914063 6.328125-5.269532-1.199219-.449218-2.371094-.996093-3.460937-1.683593-3.796876-2.414063-6.09375-6.445313-7.734376-10.457031-1.726562-4.019532-3.046874-8.210938-5.507812-11.605469-1.175781-1.738281-2.816406-3.066407-4.550781-4.128907-1.796875-1-3.828125-1.621093-5.902344-2.230468s-4.253906-1.273438-6.234375-2.320313c-2.003906-1.015625-3.839844-2.304687-5.503906-3.777343-3.339844-2.953126-5.851563-6.792969-7.210938-10.9375l.136719-.058594c1.828125 3.945312 4.535156 7.40625 7.867187 10.054687 1.648438 1.332031 3.457032 2.480469 5.378907 3.351563 1.914062.898437 3.921875 1.515625 6.035156 2.082031 2.074219.605469 4.265625 1.234375 6.25 2.40625 1.929687 1.246094 3.707031 2.789063 4.949219 4.6875 2.570312 3.761719 3.664062 8.101563 5.089844 12.160156 1.371093 4.046875 3.472656 8.117188 7.222656 10.316407 1.257812.707031 5.40625 2.027343 6.003906 2.097656 1.042969.230468 2.125.179687 3.179688.269531.949218-.058594 1.90625-.039063 2.871093-.160156.195313.414062.386719.828125.589844 1.253906zm0 0" />
    <path
       id="path146"
       fill="url(#t)"
       d="m503.457031 189.621094-.003906.011718c-1.582031.570313-3.039063 1.261719-4.53125 2.082032-1.5625.839844-3.164063 1.804687-5.035156 2.304687-3.804688 1.09375-8.140625-.667969-9.980469-3.894531l.132812-.097656c2.605469 2.476562 6.265626 3.382812 9.398438 2.375 1.605469-.453125 3.183594-1.25 4.820312-2.015625 1.539063-.753907 3.253907-1.308594 4.960938-1.644531.074219.300781.160156.578124.238281.878906zm0 0" />
    <path
       id="path148"
       fill="url(#u)"
       d="m512 245.15625c-1.074219.519531-2.132812 1.070312-3.21875 1.613281-.734375.347657-1.644531.605469-2.519531.433594-.472657-.078125-.90625-.238281-1.320313-.429687-2.703125 1.195312-5.328125 2.492187-7.847656 3.949218-1.277344.714844-2.507812 1.511719-3.753906 2.304688-1.230469.800781-2.472656 1.578125-3.664063 2.46875l-.933593.675781.1875-1.070313c.261718-1.394531-1.148438-2.875-2.699219-3.058593-1.59375-.222657-3.210938.28125-4.757813.859375-3.078125 1.15625-6.125 2.644531-9.527344 3.3125-3.347656.738281-6.734374.773437-10.03125.882812-3.3125.105469-6.582031.347656-9.773437 1.339844l-.070313-.136719c2.957032-1.6875 6.410157-2.304687 9.734376-2.660156 3.34375-.363281 6.652343-.460937 9.867187-.953125 3.1875-.527344 6.3125-1.703125 9.589844-2.511719 1.609375-.375 3.296875-.898437 5.046875-.605469.863281.117188 1.714844.511719 2.375 1.117188.449218.402344.824218.945312 1.011718 1.570312.925782-.839843 1.855469-1.652343 2.878907-2.371093 1.226562-.878907 2.542969-1.640625 3.882812-2.339844 2.617188-1.324219 5.386719-2.328125 8.242188-2.90625-.269531-.140625-.527344-.277344-.765625-.4375-2.671875-1.839844-5.367188-3.390625-8.3125-4.519531-2.914063-1.15625-5.984375-1.875-9.085938-2.246094-3.117187-.398438-6.230468-.292969-9.441406-.011719-3.164062.203125-6.625.308594-9.597656-1.105469l.050781-.144531c3.105469.890625 6.277344.464844 9.425781.03125 3.144532-.472656 6.480469-.8125 9.75-.4375 6.523438.691407 12.835938 3.511719 17.699219 7.726563.621094.464844 1.269531.867187 1.980469 1.046875.707031.195312 1.441406.050781 2.144531-.277344 1.160156-.535156 2.296875-1.078125 3.4375-1.648437.007813.175781.011719.351562.015625.539062zm0 0" />
    <path
       id="path150"
       fill="url(#v)"
       d="m506.066406 311.601562c-.90625-.433593-1.792968-.902343-2.648437-1.429687-2.332031-1.480469-4.390625-3.269531-6.492188-4.941406-2.128906-1.675781-4.308593-3.273438-6.617187-4.640625-1.734375-1.0625-3.53125-1.953125-5.390625-2.714844-1.589844.003906-3.113281.402344-4.484375 1.121094-1.765625.890625-3.3125 2.214844-4.867188 3.550781-3.148437 2.632813-6.359375 5.433594-10 7.574219-1.878906 1.113281-4.183594 1.390625-6.277344 1.335937-2.097656-.082031-4.15625-.109375-6.242187-.253906-2.070313-.140625-4.140625-.359375-6.210937-.605469-2.050782-.253906-4.203126-.484375-6.171876-1.277344l.039063-.148437c2.0625.257813 4.113281.125 6.214844.152344 2.078125.023437 4.160156.058593 6.230469.199219 2.078124.101562 4.160156.351562 6.210937.511718 2.03125.183594 4.046875.28125 5.917969-.515625 1.867187-.820312 3.609375-2.027343 5.050781-3.484375 1.457031-1.472656 2.765625-3.085937 4.308594-4.53125 1.539062-1.433594 3.300781-2.738281 5.316406-3.574218 1.03125-.453126 2.175781-.6875 3.300781-.699219-2.539062-.921875-5.140625-1.605469-7.800781-2.121094-5.214844-1.082031-10.574219-1.574219-15.933594-2.363281l.003907-.160156c5.40625-.210938 10.855468-.082032 16.25.875 5.363281 1.027343 10.6875 3.0625 15.015624 6.40625 2.199219 1.617187 4.269532 3.359374 6.4375 4.953124 1.070313.773438 2.152344 1.496094 3.261719 2.171876-.15625-2.058594-.34375-3.964844-.796875-5.808594-.199218-.988282-.503906-2.019532-1.160156-2.839844-.652344-.832031-1.628906-1.3125-2.652344-1.566406-1.019531-.265625-2.128906-.460938-3.195312-1.046875-1.097656-.527344-2.015625-1.605469-2.488282-2.65625-1.007812-2.117188-.964843-4.269531-2.625-5.710938l.066407-.140625c1.140625.261719 2.042969 1.253906 2.605469 2.222656.597656.976563.984374 2.003907 1.464843 2.882813.464844.886719.917969 1.609375 1.738281 2.128906.804688.527344 1.792969.957031 2.773438 1.519531.988281.535157 1.90625 1.230469 2.691406 2.019532.796875.789062 1.558594 1.707031 2.023438 2.78125.792968 2.082031.652344 4.394531-.160156 6.386718 1.089843.65625 2.183593 1.289063 3.304687 1.863282.757813.410156 1.515625.804687 2.292969 1.175781-.101563.46875-.203125.933594-.304688 1.398437zm0 0" />
    <path
       id="path152"
       fill="url(#w)"
       d="m114.019531 43.96875c-.84375 1.863281-1.292969 3.941406-1.726562 6.0625-.4375 2.125-.921875 4.339844-1.808594 6.40625-.847656 2.074219-1.980469 4.019531-3.308594 5.804688-2.671875 3.5625-6.273437 6.382812-10.300781 8.078124l-.066406-.136718c3.773437-2.140625 7.007812-5.125 9.363281-8.671875 1.1875-1.753907 2.1875-3.644531 2.902344-5.621094.730469-1.988281 1.183593-4.039063 1.574219-6.1875.34375-1.691406.703124-3.449219 1.339843-5.140625.902344-.609375 1.800781-1.214844 2.699219-1.8125-.230469.402344-.460938.808594-.667969 1.21875zm0 0" />
    <path
       id="path154"
       fill="url(#x)"
       d="m162.128906 47.242188-.101562.117187c-2.730469-1.667969-4.867188-4.347656-6.09375-7.363281-.597656-1.527344-.953125-3.144532-1.066406-4.777344-.164063-1.644531.101562-3.105469-.960938-4.050781-.527344-.464844-1.214844-.867188-1.894531-1.265625l-2.050781-1.1875c-1.375-.777344-2.792969-1.484375-4.128907-2.359375-.347656-.242188-.6875-.507813-1.027343-.773438.441406-.214843.890624-.4375 1.351562-.65625l.46875.394531c1.160156 1.023438 2.304688 2.097657 3.605469 2.949219.65625.429688 1.335937.816407 2.03125 1.15625.6875.371094 1.441406.578125 2.175781 1.074219.746094.445312 1.339844 1.339844 1.523438 2.175781.234374.851563.242187 1.65625.375 2.386719.207031 1.484375.652343 2.925781 1.164062 4.320312 1.027344 2.828126 2.59375 5.445313 4.628906 7.859376zm0 0" />
    <path
       id="path156"
       fill="url(#y)"
       d="m233.566406 13.992188c.472656 3.144531.867188 6.574218-.3125 9.65625l-.148437-.042969c.640625-3.160157-.050781-6.285157-.75-9.382813-.726563-3.109375-1.332031-6.394531-1.234375-9.675781.027344-1.117187.117187-2.226563.257812-3.332031.5625-.058594 1.140625-.117188 1.710938-.160156-.144532 1.171874-.246094 2.359374-.285156 3.535156-.140626 3.140625.230468 6.230468.761718 9.402344zm0 0" />
    <path
       id="path158"
       fill="url(#z)"
       d="m254.574219 37.304688-.136719.066406c-1.914062-2.804688-2.816406-6.199219-3.4375-9.480469-.65625-3.300781-1.011719-6.585937-1.773438-9.742187-.78125-3.136719-2.210937-6.15625-3.285156-9.347657-.511718-1.59375-1.171875-3.230469-1.023437-4.988281.050781-.867188.363281-1.757812.914062-2.460938.363281-.488281.886719-.890624 1.488281-1.140624-.023437-.015626-.042968-.035157-.066406-.054688.417969-.007812.847656-.023438 1.28125-.039062-.003906.011718.007813.015624.007813.015624l.761719.878907-1.078126-.109375c-1.417968-.136719-2.78125 1.386718-2.835937 2.945312-.09375 1.601563.542969 3.179688 1.246094 4.664063 1.410156 2.988281 3.148437 5.890625 4.09375 9.21875 1.003906 3.289062 1.324219 6.660156 1.707031 9.941406.378906 3.28125.878906 6.523437 2.136719 9.632813zm0 0" />
    <path
       id="path160"
       fill="url(#A)"
       d="m306.226562 44.535156-.152343-.027344c.085937-2.070312-.210938-4.101562-.355469-6.195312-.152344-2.082031-.277344-4.160156-.320312-6.238281-.0625-2.070313.019531-4.171875.011718-6.230469.007813-2.035156-.066406-4.046875-1.015625-5.851562-.964843-1.785157-2.316406-3.421876-3.878906-4.734376-1.582031-1.339843-3.3125-2.519531-4.878906-3.921874-1.554688-1.425782-3-3.0625-4.003907-5.007813-.527343-.996094-.851562-2.113281-.960937-3.222656-.710937 2.59375-1.179687 5.238281-1.464844 7.9375-.65625 5.277343-.707031 10.667969-1.054687 16.082031l-.160156-.003906c-.648438-5.367188-.964844-10.804688-.453126-16.269532.304688-2.917968.917969-5.84375 1.859376-8.640624.644531.082031 1.289062.164062 1.929687.257812.238281 1.175781.695313 2.285156 1.339844 3.292969 1.035156 1.679687 2.46875 3.117187 3.929687 4.554687 2.882813 2.925782 5.941406 5.882813 8.382813 9.34375 1.257812 1.785156 1.71875 4.042969 1.839843 6.144532.09375 2.09375.234376 4.160156.265626 6.238281.03125 2.074219-.019532 4.167969-.09375 6.242187-.097657 2.058594-.140626 4.21875-.765626 6.25zm0 0" />
    <path
       id="path162"
       fill="url(#B)"
       d="m55.40625 347.3125-.125.019531c-.875-3.441406-2.535156-6.628906-4.820312-9.257812-1.121094-1.304688-2.390626-2.507813-3.816407-3.5-1.40625-.996094-2.921875-1.800781-4.539062-2.574219-1.582031-.796875-3.234375-1.632812-4.65625-2.878906-1.371094-1.28125-2.558594-2.78125-3.273438-4.511719-1.511719-3.402344-1.738281-7.050781-2.269531-10.519531-.496094-3.457032-1.570312-7.035156-4.253906-9.371094-.910156-.769531-4.050782-2.453125-4.503906-2.59375-.800782-.339844-1.6875-.460938-2.519532-.6875-.867187-.105469-1.707031-.296875-2.59375-.324219-3.46875-.296875-6.988281-.058593-10.472656.480469-1.066406.148438-2.144531.335938-3.214844.535156-.035156-.261718-.082031-.527344-.128906-.796875 1.050781-.273437 2.113281-.503906 3.183594-.703125 1.75-.347656 3.539062-.550781 5.332031-.714844.902344-.03125 1.804687-.117187 2.710937-.058593l1.359376.054687 1.347656.140625c2.40625.273438 4.773437 1.039063 6.871094 2.242188l5.621093-3.917969c1.054688-.6875 2.148438-1.359375 3.113281-2.203125.476563-.429687.917969-.871094 1.34375-1.355469.433594-.464844.773438-1.015625 1.3125-1.480468.511719-.5 1.34375-.765626 2.042969-.734376.730469.011719 1.355469.171876 1.957031.214844 1.222657.160156 2.449219.109375 3.675782.019532 2.441406-.199219 4.839844-.863282 7.179687-1.957032l.074219.113282c-1.902344 1.789062-4.476562 2.898437-7.121094 3.214843-1.335937.140625-2.675781.066407-3.992187-.1875-1.339844-.230469-2.421875-.753906-3.398438-.113281-.484375.304688-.945312.765625-1.414062 1.214844l-1.382813 1.351562c-.894531.917969-1.761718 1.894532-2.746094 2.757813-1.738281 1.433593-3.738281 2.554687-5.875 3.289062.90625.539063 1.761719 1.164063 2.53125 1.867188 2.6875 2.511719 3.933594 6.09375 4.648438 9.570312.78125 3.484375 1.222656 7.046875 2.679688 10.152344.691406 1.566406 1.816406 2.875 3.042968 3.996094 1.292969 1.074219 2.832032 1.882812 4.417969 2.675781 1.566406.804688 3.214844 1.65625 4.648437 2.796875 1.457032 1.117187 2.75 2.433594 3.863282 3.871094 2.234375 2.867187 3.675781 6.316406 4.160156 9.863281zm0 0" />
    <path
       id="path164"
       fill="url(#C)"
       d="m26.363281 253.253906-.105469.050782c-1.726562-2.378907-4.527343-3.640626-7.207031-3.308594-1.355469.125-2.730469.519531-4.167969.886718-1.429687.398438-2.976562.601563-4.46875.589844-1.492187-.007812-2.96875-.117187-4.445312-.136718-1.476562-.015626-2.953125.0625-4.417969.101562-.453125-.003906-.894531.007812-1.335937.007812.007812-.371093.015625-.742187.027344-1.128906.457031-.007812.902343.023438 1.347656.050782 1.484375.140624 2.933594.441406 4.398437.550781 1.460938.121093 2.929688.070312 4.363281-.152344 1.453126-.230469 2.800782-.582031 4.195313-1.039063 1.378906-.449218 2.804687-.980468 4.394531-1.09375 3.222656-.304687 6.433594 1.746094 7.421875 4.621094zm0 0" />
    <path
       id="path166"
       fill="url(#D)"
       d="m78.328125 219.488281-.035156.136719c-3.148438-.488281-6.054688-2.058594-8.703125-3.742188-2.671875-1.691406-5.164063-3.550781-7.804688-5.070312-2.648437-1.488281-5.636718-2.453125-8.519531-3.773438-1.402344-.667968-2.945313-1.277343-4.058594-2.515624-.558593-.59375-.960937-1.371094-1.089843-2.207032-.101563-.558594-.054688-1.175781.179687-1.738281-1.164063.070313-2.339844.121094-3.507813.054687-1.417968-.082031-2.828124-.292968-4.226562-.554687-2.6875-.5625-5.3125-1.445313-7.746094-2.695313.117188.257813.21875.511719.296875.773438.898438 2.902344 1.96875 5.621094 3.457031 8.179688 1.472657 2.5625 3.304688 4.878906 5.375 6.980468 2.050782 2.109375 4.402344 3.847656 6.917969 5.523438 2.453125 1.710937 5.058594 3.652344 6.402344 6.4375l-.125.070312c-1.753906-2.464844-4.332031-4.011718-6.90625-5.53125-2.578125-1.496094-5.234375-3.195312-7.40625-5.390625-4.394531-4.328125-7.378906-10.09375-8.484375-16.039062-.183594-.703125-.421875-1.382813-.835938-1.925781-.40625-.5625-1.039062-.882813-1.753906-1.050782-1.4375-.355468-2.917968-.695312-4.398437-.992187-2.945313-.59375-5.933594-1.023438-8.898438-1.554688-2.632812-.523437-5.238281-1.089843-7.839843-1.722656.089843-.386719.199218-.785156.304687-1.167969 2.613281.5 5.207031 1.0625 7.800781 1.679688 2.917969.746094 5.804688 1.605468 8.734375 2.300781 1.480469.351563 2.9375.628906 4.4375.945313.738281.175781 1.554688.519531 2.101563 1.148437.292968.335937.523437.71875.710937 1.101563 2.691407.699218 5.371094 1.285156 8.074219 1.691406 1.371094.214844 2.730469.363281 4.109375.5 1.375.136718 2.75.285156 4.132813.34375l1.097656.035156-.773438.679688c-1 .875-.839844 2.785156.195313 3.832031 1.03125 1.09375 2.515625 1.675781 3.988281 2.144531 2.953125.957031 6.058594 1.644531 8.945312 3.144531 2.890626 1.429688 5.398438 3.382813 7.890626 5.242188 2.496093 1.84375 5.03125 3.59375 7.960937 4.726562zm0 0" />
    <path
       id="path168"
       fill="url(#E)"
       d="m109.679688 126.566406-.085938.125c-1.722656-.820312-3.550781-1.304687-5.375-1.953125-1.808594-.613281-3.621094-1.257812-5.382812-1.980469-1.78125-.703124-3.53125-1.527343-5.277344-2.257812-1.714844-.75-3.441406-1.425781-5.308594-1.269531-1.863281.171875-3.75.722656-5.421875 1.570312-1.703125.855469-3.320313 1.894531-5.089844 2.703125-1.765625.796875-3.675781 1.4375-5.6875 1.578125-1.027343.09375-2.085937-.035156-3.082031-.347656 1.945312 1.53125 4.027344 2.890625 6.199219 4.113281 4.234375 2.464844 8.769531 4.46875 13.226562 6.714844l-.050781.132812c-4.785156-1.390624-9.507812-3.097656-13.945312-5.5-4.367188-2.460937-8.4375-5.777343-11.242188-9.960937-1.453125-2.050781-2.738281-4.179687-4.183594-6.203125-.695312-.976562-1.433594-1.925781-2.210937-2.847656-.464844 1.847656-.859375 3.570312-.988281 5.320312-.117188.914063-.164063 1.90625.175781 2.8125.335937.917969 1.039062 1.617188 1.855469 2.132813.828124.535156 1.722656 1.019531 2.5 1.847656.800781.777344 1.292968 1.996094 1.390624 3.046875.269532 2.144531-.402343 4 .632813 5.738281l-.097656.109375c-.929688-.550781-1.421875-1.683594-1.636719-2.691406-.222656-1.035156-.269531-2.046875-.421875-2.945312-.148437-.921876-.355469-1.683594-.902344-2.367188-.554687-.699219-1.292969-1.367188-1.976562-2.128906-.710938-.769532-1.316407-1.628906-1.769531-2.554688-.46875-.925781-.867188-1.945312-.964844-3.011718-.074219-2.0625.71875-4.03125 2.011718-5.53125-.757812-.890626-1.542968-1.769532-2.347656-2.589844-1.34375-1.4375-2.761718-2.785156-4.25-4.0625.234375-.332032.484375-.652344.730469-.972656 1.609375 1.242187 3.101563 2.664062 4.421875 4.226562 1.597656 1.957031 2.875 4.121094 4.238281 6.203125s2.792969 4.113281 4.40625 5.984375c1.222657 1.429688 2.53125 2.734375 3.9375 3.933594 1.382813.457031 2.824219.558594 4.234375.316406 1.804688-.25 3.542969-.949219 5.285156-1.660156 3.515626-1.386719 7.132813-2.902344 10.933594-3.71875 1.96875-.421875 4.054688.003906 5.875.664062 1.800782.679688 3.605469 1.304688 5.378906 2.042969 1.765626.710937 3.503907 1.523437 5.246094 2.332031 1.707032.828125 3.527344 1.644532 5.019532 2.90625zm0 0" />
    <path
       id="path170"
       fill="url(#F)"
       d="m376.945312 65.324219-.683593-.574219c-.886719-.75-2.5-.363281-3.273438.652344-.816406 1.03125-1.121093 2.390625-1.335937 3.71875-.449219 2.652344-.644532 5.414062-1.566406 8.097656-.863282 2.671875-2.214844 5.074219-3.496094 7.460938-1.28125 2.382812-2.457032 4.78125-3.058594 7.460937l-.125-.019531c.023438-2.769532 1.003906-5.476563 2.109375-7.960938 1.105469-2.527344 2.394531-4.894531 3.367187-7.363281.941407-2.476563 1.386719-5.171875 2.164063-7.8125.398437-1.304687.714844-2.714844 1.632813-3.824219.449218-.558594 1.0625-1.003906 1.765624-1.222656.46875-.152344 1.011719-.191406 1.523438-.066406-.207031-1.003906-.398438-2.003906-.496094-3.015625-.113281-1.234375-.109375-2.472657-.054687-3.699219.136719-2.390625.558593-4.769531 1.320312-7.015625-.203125.117187-.414062.246094-.613281.351563-2.390625 1.132812-4.597656 2.410156-6.613281 4.019531-2.011719 1.597656-3.78125 3.476562-5.308594 5.511719-1.5625 2.042968-2.761719 4.285156-3.882813 6.675781-1.15625 2.324219-2.492187 4.8125-4.722656 6.324219l-.078125-.101563c1.910157-1.8125 2.90625-4.234375 3.886719-6.644531.957031-2.421875 2.082031-4.917969 3.683594-7.066406 3.175781-4.332032 7.75-7.644532 12.726562-9.347657.578125-.257812 1.136719-.542969 1.546875-.980469.433594-.414062.636719-1 .691407-1.636718.125-1.289063.214843-2.597656.292968-3.910156.117188-2.609376.113282-5.238282.191406-7.859376.0625-1.394531.152344-2.796874.257813-4.199218.371094.195312.742187.40625 1.101563.597656-.078126 1.21875-.175782 2.445312-.285157 3.671875-.273437 2.605469-.640625 5.214844-.859375 7.820313-.117187 1.300781-.167968 2.609374-.25 3.933593-.046875.65625-.25 1.398438-.722656 1.953125-.253906.300782-.546875.542969-.847656.765625-.269532 2.394531-.429688 4.78125-.425782 7.15625-.011718 1.210938.035157 2.410157.09375 3.601563.058594 1.203125.101563 2.402344.238282 3.613281zm0 0" />
    <path
       id="path172"
       fill="url(#G)"
       d="m432.339844 70.246094c-.59375.410156-1.230469.796875-1.871094 1.140625-1.996094 1.042969-4.117188 1.769531-6.164062 2.570312-2.050782.8125-4.078126 1.699219-5.988282 2.777344-1.457031.789063-2.828125 1.707031-4.128906 2.699219-.65625 1.128906-.996094 2.367187-1.042969 3.621094-.097656 1.628906.199219 3.257812.5 4.902343.574219 3.304688 1.238281 6.730469 1.265625 10.179688.019532 1.789062-.738281 3.53125-1.628906 4.984375-.917969 1.457031-1.78125 2.898437-2.742188 4.316406-.945312 1.410156-1.949218 2.777344-2.976562 4.136719-1.019531 1.347656-2.0625 2.769531-3.425781 3.851562l-.097657-.09375c1.027344-1.359375 1.785157-2.859375 2.667969-4.328125.871094-1.46875 1.746094-2.921875 2.695313-4.332031.921875-1.425781 1.953125-2.800781 2.90625-4.179687.960937-1.363282 1.859375-2.746094 2.058594-4.398438.179687-1.644531.042968-3.378906-.394532-4.992188-.4375-1.625-1.050781-3.234374-1.429687-4.914062-.382813-1.679688-.59375-3.445312-.359375-5.222656.117187-.914063.414062-1.808594.863281-2.617188-1.683594 1.417969-3.242187 2.980469-4.6875 4.652344-2.914063 3.230469-5.457031 6.816406-8.210937 10.292969l-.113282-.070313c2.074219-3.914062 4.394532-7.710937 7.292969-11.132812 2.921875-3.363282 6.539063-6.292969 10.6875-7.988282 2.03125-.894531 4.113281-1.632812 6.132813-2.523437.972656-.441406 1.941406-.910156 2.867187-1.414063-1.503906-.734374-2.941406-1.378906-4.4375-1.816406-.769531-.265625-1.628906-.484375-2.480469-.34375-.847656.125-1.59375.601563-2.191406 1.226563-.609375.621093-1.1875 1.316406-2.046875 1.828125-.820313.5625-1.960937.785156-2.90625.671875-1.90625-.148438-3.402344-1.066407-5.113281-.480469l-.066406-.097656c.652343-.714844 1.726562-.941406 2.636718-.945313.933594-.011719 1.828125.140625 2.636719.160157.816406.039062 1.519531.003906 2.222656-.363282.695313-.359375 1.414063-.882812 2.21875-1.328125.785157-.480469 1.648438-.855469 2.523438-1.082031.890625-.238281 1.84375-.402344 2.800781-.289062 1.800781.292968 3.382812 1.339843 4.441406 2.722656.925782-.492188 1.8125-1.011719 2.683594-1.558594.527344-.324219 1.046875-.660156 1.570312-1.011719.28125.265625.558594.527344.832032.789063zm0 0" />
    <path
       id="path174"
       fill="url(#H)"
       d="m122.730469 468.546875-.847657-.710937c-1.101562-.945313-3.128906-.457032-4.089843.8125-.488281.613281-.828125 1.320312-1.078125 2.082031-.160156-.097657-.320313-.195313-.476563-.304688.28125-.738281.648438-1.449219 1.167969-2.082031.554688-.703125 1.332031-1.25 2.207031-1.53125.585938-.1875 1.269531-.238281 1.90625-.078125-.261719-1.246094-.503906-2.5-.613281-3.757813-.148438-1.546874-.140625-3.09375-.078125-4.636718.164063-2.984375.695313-5.949219 1.652344-8.765625-.257813.167969-.511719.3125-.777344.453125-2.992187 1.421875-5.746094 3.003906-8.246094 5.027344-2.515625 1.980468-4.71875 4.324218-6.644531 6.878906-.335938.441406-.65625.875-.957031 1.339844-.457031-.324219-.914063-.652344-1.355469-1 .289062-.464844.601562-.914063.933594-1.359376 3.964844-5.410156 9.683594-9.542968 15.890625-11.683593.722656-.308594 1.425781-.679688 1.941406-1.203125.546875-.53125.78125-1.253906.855469-2.050782.148437-1.613281.277344-3.257812.363281-4.886718.160156-3.265625.140625-6.554688.246094-9.820313.3125-6.546875.933593-13.058593 1.914062-19.554687l.160157.003906c.097656 6.5625-.160157 13.109375-.734376 19.636719-.332031 3.257812-.792968 6.507812-1.074218 9.765625-.140625 1.644531-.210938 3.265625-.320313 4.917968-.050781.824219-.304687 1.742188-.894531 2.4375-.316406.378907-.679688.679688-1.058594.949219-.332031 3.003907-.53125 5.976563-.53125 8.953125-.023437 1.5.046875 3 .117188 4.488282.070312 1.5.125 3.011718.289062 4.507812zm0 0" />
    <path
       id="path176"
       fill="url(#I)"
       d="m209.222656 463.691406c-2.921875 4.722656-7.148437 8.703125-12.066406 11.371094-2.492188 1.304688-5.125 2.199219-7.695312 3.203125-2.5625 1.019531-5.09375 2.128906-7.484376 3.460937-1.820312.996094-3.535156 2.140626-5.160156 3.390626-.808594 1.394531-1.246094 2.941406-1.304687 4.523437-.113281 2.027344.25 4.058594.636719 6.113281.207031 1.191406.421874 2.398438.625 3.613282-.394532-.121094-.785157-.253907-1.1875-.390626-.308594-.964843-.605469-1.941406-.824219-2.933593-.46875-2.089844-.742188-4.3125-.441407-6.527344.136719-1.136719.511719-2.261719 1.078126-3.265625-2.109376 1.769531-4.058594 3.71875-5.867188 5.796875-1.078125 1.203125-2.109375 2.441406-3.121094 3.695313-.484375-.171876-.96875-.355469-1.453125-.542969 1.027344-1.464844 2.117188-2.902344 3.28125-4.277344 3.65625-4.203125 8.167969-7.863281 13.351563-9.980469 2.542968-1.105468 5.148437-2.046875 7.664062-3.144531 1.230469-.542969 2.421875-1.136719 3.59375-1.765625-1.898437-.917969-3.691406-1.730469-5.542968-2.265625-.972657-.34375-2.035157-.609375-3.09375-.445313-1.070313.160157-1.996094.761719-2.746094 1.542969-.757813.78125-1.492188 1.648438-2.558594 2.289063-1.035156.703125-2.453125.96875-3.632812.832031-2.378907-.183594-4.253907-1.324219-6.375-.597656l-.09375-.132813c.8125-.871094 2.144531-1.160156 3.292968-1.164062 1.179688-.023438 2.273438.167968 3.296875.195312 1.027344.039063 1.894531-.003906 2.777344-.453125.871094-.445312 1.769531-1.09375 2.75-1.664062.980469-.597657 2.066406-1.0625 3.175781-1.359375 1.09375-.289063 2.300782-.503906 3.484375-.351563 2.246094.371094 4.226563 1.675781 5.5625 3.417969 1.132813-.625 2.257813-1.277344 3.339844-1.96875 4.632813-2.828125 8.839844-6.265625 12.601563-10.304688zm0 0" />
  </g>
</svg>
