<svg height="512pt" viewBox="0 -37 512 512" width="512pt" xmlns="http://www.w3.org/2000/svg"><path d="m470.941406 359.5625h-460.941406c-5.523438 0-10-4.476562-10-10v-289.617188c0-5.523437 4.476562-10 10-10h460.941406c5.523438 0 10 4.476563 10 10v289.617188c0 5.523438-4.476562 10-10 10zm0 0" fill="#ffe046"/><path d="m470.574219 49.945312h-41.992188v261.871094c0 5.726563-4.640625 10.367188-10.367187 10.367188h-418.214844v27.011718c0 5.726563 4.640625 10.367188 10.367188 10.367188h460.207031c5.726562 0 10.367187-4.640625 10.367187-10.367188v-288.882812c0-5.726562-4.640625-10.367188-10.367187-10.367188zm0 0" fill="#eec707"/><path d="m470.574219 49.945312h-268.542969v-23.871093c0-14.398438-11.675781-26.074219-26.074219-26.074219h-149.882812c-14.398438 0-26.074219 11.675781-26.074219 26.074219v98.21875h480.941406v-63.980469c0-5.726562-4.640625-10.367188-10.367187-10.367188zm0 0" fill="#eec707"/><path d="m470.574219 49.945312h-70.546875l.3125 39.488282c0 5.886718-4.777344 10.664062-10.667969 10.664062h-389.671875v24.191406h480.941406v-63.976562c0-5.726562-4.640625-10.367188-10.367187-10.367188zm0 0" fill="#fba72d"/><path d="m508.277344 199.550781h-10.390625c-1.15625-4.613281-2.980469-8.964843-5.367188-12.941406l7.351563-7.347656c1.453125-1.453125 1.453125-3.8125 0-5.265625l-11.25-11.253906c-1.457032-1.453126-3.8125-1.453126-5.265625 0l-7.351563 7.351562c-3.976562-2.382812-8.324218-4.207031-12.941406-5.363281v-10.390625c0-2.058594-1.667969-3.726563-3.722656-3.726563h-15.914063c-2.054687 0-3.722656 1.667969-3.722656 3.726563v10.390625c-4.617187 1.15625-8.964844 2.980469-12.941406 5.363281l-7.351563-7.351562c-1.453125-1.453126-3.808594-1.453126-5.265625 0l-11.25 11.253906c-1.453125 1.453125-1.453125 3.8125 0 5.265625l7.351563 7.347656c-2.386719 3.976563-4.210938 8.328125-5.363282 12.941406h-10.394531c-2.054687 0-3.722656 1.667969-3.722656 3.726563v15.910156c0 2.058594 1.667969 3.722656 3.722656 3.722656h10.394531c1.152344 4.617188 2.976563 8.96875 5.363282 12.941406l-7.351563 7.351563c-1.453125 1.453125-1.453125 3.8125 0 5.265625l11.25 11.25c1.457031 1.457031 3.8125 1.457031 5.265625 0l7.351563-7.347656c3.976562 2.382812 8.328125 4.207031 12.941406 5.363281v10.390625c0 2.054688 1.667969 3.722656 3.722656 3.722656h15.914063c2.054687 0 3.722656-1.664062 3.722656-3.722656v-10.390625c4.617188-1.15625 8.964844-2.980469 12.941406-5.363281l7.351563 7.347656c1.453125 1.457031 3.808593 1.457031 5.265625 0l11.25-11.25c1.453125-1.453125 1.453125-3.8125 0-5.265625l-7.351563-7.351563c2.386719-3.972656 4.210938-8.324218 5.367188-12.941406h10.390625c2.054687 0 3.722656-1.664062 3.722656-3.722656v-15.910156c0-2.058594-1.667969-3.726563-3.722656-3.726563zm-56.894532 30.859375c-10.589843 0-19.175781-8.585937-19.175781-19.179687 0-10.589844 8.585938-19.175781 19.175781-19.175781 10.589844 0 19.175782 8.585937 19.175782 19.175781 0 10.59375-8.585938 19.179687-19.175782 19.179687zm0 0" fill="#8f8f99"/><path d="m508.277344 199.550781h-10.394532c-1.15625-4.613281-2.980468-8.960937-5.363281-12.9375l7.351563-7.351562c1.453125-1.453125 1.453125-3.8125 0-5.265625l-11.253906-11.253906c-1.453126-1.453126-3.808594-1.453126-5.265626 0l-7.355468 7.359374c-4.023438-2.414062-8.433594-4.257812-13.113282-5.414062 12.160157 8.699219 20.09375 22.921875 20.09375 39.011719 0 26.480469-21.464843 47.941406-47.941406 47.941406-3.96875 0-7.816406-.488281-11.503906-1.398437 4.808594 3.4375 10.273438 6.007812 16.171875 7.488281v10.394531c0 2.058594 1.667969 3.726562 3.722656 3.726562h15.914063c2.054687 0 3.722656-1.667968 3.722656-3.726562v-10.390625c4.617188-1.15625 8.964844-2.976563 12.941406-5.363281l7.351563 7.351562c1.453125 1.453125 3.808593 1.453125 5.265625 0l11.25-11.253906c1.453125-1.453125 1.453125-3.8125 0-5.265625l-7.351563-7.347656c2.386719-3.976563 4.210938-8.328125 5.367188-12.941407h10.390625c2.054687 0 3.722656-1.667968 3.722656-3.726562v-15.910156c0-2.058594-1.667969-3.726563-3.722656-3.726563zm0 0" fill="#777784"/><path d="m443.238281 294.285156h-20.78125c-2.308593-9.230468-5.957031-17.929687-10.726562-25.878906l14.699219-14.703125c2.910156-2.90625 2.910156-7.621094 0-10.53125l-22.5-22.5c-2.910157-2.910156-7.625-2.910156-10.535157 0l-14.699219 14.699219c-7.953124-4.769532-16.648437-8.417969-25.882812-10.726563v-20.785156c0-4.113281-3.332031-7.445313-7.445312-7.445313h-31.824219c-4.113281 0-7.445313 3.335938-7.445313 7.445313v20.785156c-9.230468 2.308594-17.929687 5.957031-25.882812 10.726563l-14.699219-14.699219c-2.910156-2.910156-7.625-2.910156-10.53125 0l-22.503906 22.5c-2.910157 2.910156-2.910157 7.625 0 10.53125l14.699219 14.703125c-4.769532 7.949219-8.414063 16.648438-10.726563 25.878906h-20.78125c-4.113281 0-7.449219 3.335938-7.449219 7.449219v31.824219c0 4.113281 3.335938 7.445312 7.449219 7.445312h20.78125c2.3125 9.230469 5.957031 17.929688 10.726563 25.882813l-14.699219 14.699219c-2.910157 2.910156-2.910157 7.625 0 10.53125l22.503906 22.503906c2.90625 2.910156 7.621094 2.910156 10.53125 0l14.699219-14.699219c7.953125 4.769531 16.652344 8.417969 25.882812 10.726563v20.78125c0 4.113281 3.332032 7.449218 7.445313 7.449218h31.824219c4.113281 0 7.445312-3.335937 7.445312-7.449218v-20.78125c9.234375-2.308594 17.929688-5.957032 25.882812-10.726563l14.699219 14.699219c2.910157 2.910156 7.625 2.910156 10.535157 0l22.5-22.503906c2.910156-2.90625 2.910156-7.621094 0-10.53125l-14.699219-14.699219c4.769531-7.953125 8.417969-16.652344 10.726562-25.882813h20.78125c4.113281 0 7.449219-3.332031 7.449219-7.445312v-31.824219c0-4.113281-3.335938-7.449219-7.449219-7.449219zm-113.785156 61.714844c-21.179687 0-38.351563-17.171875-38.351563-38.351562 0-21.183594 17.171876-38.355469 38.351563-38.355469 21.183594 0 38.355469 17.171875 38.355469 38.355469 0 21.179687-17.171875 38.351562-38.355469 38.351562zm0 0" fill="#8f8f99"/><path d="m443.238281 294.285156h-20.785156c-2.3125-9.226562-5.957031-17.925781-10.726563-25.875l14.703126-14.707031c2.910156-2.90625 2.910156-7.621094 0-10.53125l-22.5-22.5c-2.910157-2.910156-7.625-2.910156-10.535157 0l-14.710937 14.710937c-8.050782-4.828124-16.863282-8.515624-26.222656-10.820312 24.316406 17.390625 40.179687 45.84375 40.179687 78.019531 0 52.953125-42.925781 95.882813-95.882813 95.882813-7.933593 0-15.632812-.980469-23.003906-2.796875 9.609375 6.875 20.542969 12.011719 32.339844 14.976562v20.789063c0 4.113281 3.335938 7.445312 7.445312 7.445312h31.824219c4.113281 0 7.449219-3.335937 7.449219-7.445312v-20.785156c9.230469-2.308594 17.929688-5.957032 25.878906-10.726563l14.703125 14.699219c2.90625 2.910156 7.621094 2.910156 10.53125 0l22.503907-22.5c2.90625-2.910156 2.90625-7.625 0-10.53125l-14.703126-14.703125c4.769532-7.949219 8.417969-16.648438 10.726563-25.878907h20.785156c4.113281 0 7.445313-3.335937 7.445313-7.449218v-31.824219c.003906-4.113281-3.332032-7.449219-7.445313-7.449219zm0 0" fill="#777784"/></svg>