<?xml version="1.0" encoding="UTF-8" standalone="no"?>
<svg
   xmlns:dc="http://purl.org/dc/elements/1.1/"
   xmlns:cc="http://creativecommons.org/ns#"
   xmlns:rdf="http://www.w3.org/1999/02/22-rdf-syntax-ns#"
   xmlns:svg="http://www.w3.org/2000/svg"
   xmlns="http://www.w3.org/2000/svg"
   xmlns:sodipodi="http://sodipodi.sourceforge.net/DTD/sodipodi-0.dtd"
   xmlns:inkscape="http://www.inkscape.org/namespaces/inkscape"
   viewBox="0 -1 512 512"
   version="1.1"
   id="svg30"
   sodipodi:docname="LampHighlight.svg"
   width="512"
   height="512"
   inkscape:version="0.92.2 (5c3e80d, 2017-08-06)">
  <metadata
     id="metadata36">
    <rdf:RDF>
      <cc:Work
         rdf:about="">
        <dc:format>image/svg+xml</dc:format>
        <dc:type
           rdf:resource="http://purl.org/dc/dcmitype/StillImage" />
        <dc:title />
      </cc:Work>
    </rdf:RDF>
  </metadata>
  <defs
     id="defs34" />
  <sodipodi:namedview
     pagecolor="#ffffff"
     bordercolor="#666666"
     borderopacity="1"
     objecttolerance="10"
     gridtolerance="10"
     guidetolerance="10"
     inkscape:pageopacity="0"
     inkscape:pageshadow="2"
     inkscape:window-width="2560"
     inkscape:window-height="1388"
     id="namedview32"
     showgrid="false"
     inkscape:zoom="2.0257511"
     inkscape:cx="-57.989701"
     inkscape:cy="227.96348"
     inkscape:window-x="-8"
     inkscape:window-y="-8"
     inkscape:window-maximized="1"
     inkscape:current-layer="svg30" />
  <path
     style="fill:#9c8ca1;fill-opacity:1;stroke-width:1"
     inkscape:connector-curvature="0"
     d="m 195.51263,433.74432 c 0,11.79862 9.56269,21.36479 21.36479,21.36479 h 28.48638 c 11.79861,0 21.36479,-9.56617 21.36479,-21.36479 v -42.72957 h -71.21596 z m 0,0"
     id="path2" />
  <path
     style="fill:#dcda00;fill-opacity:1;stroke-width:1"
     inkscape:connector-curvature="0"
     d="M 359.30933,205.85325 C 359.30238,144.39124 315.67217,91.580854 255.31595,79.980442 194.95973,68.38003 134.86084,101.24786 112.07034,158.32842 c -22.790499,57.08056 -1.86386,122.30507 49.88246,155.465 11.85774,7.3511 19.14277,20.24856 19.31664,34.19965 v 28.77848 c 0,11.79863 9.56269,21.36479 21.36478,21.36479 h 56.97277 c 11.79862,0 21.36479,-9.56616 21.36479,-21.36479 v -28.18733 c 0.18082,-14.28144 7.6119,-27.48838 19.72695,-35.05508 36.56078,-23.60419 58.63494,-64.15695 58.6106,-107.67589 z m 0,0"
     id="path6" />
  <path
     d="M 374.84874,136.22591 397.23935,119.43383 371.60091,85.248084 349.2103,102.04017 c -4.60747,3.453 -10.84235,3.7903 -15.79756,0.85542 -4.95521,-2.934873 -7.65363,-8.564688 -6.8434,-14.264052 l 3.95373,-27.697027 -42.30186,-6.04362 -3.95373,27.69355 c -0.81023,5.706317 -4.97956,10.359001 -10.56069,11.788188 -5.58114,1.432666 -11.47523,-0.639831 -14.93171,-5.250786 l -16.78861,-22.390603 -34.18226,25.63844 16.78512,22.3906 c 3.453,4.61096 3.79031,10.84235 0.85543,15.79757 -2.93487,4.95521 -8.56469,7.65362 -14.26406,6.8434 l -27.69703,-3.95373 -6.04709,42.30186 27.70398,3.95373 c 5.70284,0.81371 10.35552,4.98303 11.78471,10.56417 1.42919,5.58113 -0.64331,11.47523 -5.25426,14.9317 l -22.38365,16.79209 25.63845,34.18227 22.38364,-16.78513 c 4.60748,-3.45648 10.84583,-3.79726 15.80452,-0.86238 4.95521,2.93487 7.65711,8.56817 6.8434,14.27101 l -3.98851,27.69007 42.30187,6.0471 3.9885,-27.70399 c 0.81371,-5.70284 4.98304,-10.35204 10.56417,-11.78123 5.58113,-1.43267 11.47523,0.64331 14.92823,5.25078 l 16.79556,22.38366 34.18227,-25.63845 -16.79904,-22.38365 c -3.45648,-4.60747 -3.79725,-10.84582 -0.86238,-15.80451 2.93488,-4.95521 8.56817,-7.65711 14.27101,-6.83994 l 27.69703,3.95723 6.04709,-42.30187 -27.69702,-3.95722 c -5.69936,-0.81717 -10.34857,-4.98302 -11.78123,-10.56416 -1.42919,-5.57766 0.63983,-11.46827 5.24382,-14.92475 z m -81.58538,84.33249 c -27.53359,0 -49.85117,-22.31758 -49.85117,-49.85117 0,-27.53012 22.31758,-49.85117 49.85117,-49.85117 27.53358,0 49.85117,22.32105 49.85117,49.85117 0,27.53359 -22.31759,49.85117 -49.85117,49.85117 z m 0,0"
     id="path8"
     inkscape:connector-curvature="0"
     style="fill:#10ca3d;fill-opacity:1;stroke-width:1" />
  <path
     style="fill:#545454;stroke-width:1;fill-opacity:1"
     inkscape:connector-curvature="0"
     d="m 195.51263,412.37953 h 71.21596 v 14.2432 h -71.21596 z m 0,0"
     id="path10" />
</svg>
