<?xml version="1.0" encoding="UTF-8" standalone="no"?>
<svg
   xmlns:dc="http://purl.org/dc/elements/1.1/"
   xmlns:cc="http://creativecommons.org/ns#"
   xmlns:rdf="http://www.w3.org/1999/02/22-rdf-syntax-ns#"
   xmlns:svg="http://www.w3.org/2000/svg"
   xmlns="http://www.w3.org/2000/svg"
   xmlns:sodipodi="http://sodipodi.sourceforge.net/DTD/sodipodi-0.dtd"
   xmlns:inkscape="http://www.inkscape.org/namespaces/inkscape"
   viewBox="0 -1 512 512"
   version="1.1"
   id="svg30"
   sodipodi:docname="Lamp.svg"
   width="512"
   height="512"
   inkscape:version="0.92.2 (5c3e80d, 2017-08-06)">
  <metadata
     id="metadata36">
    <rdf:RDF>
      <cc:Work
         rdf:about="">
        <dc:format>image/svg+xml</dc:format>
        <dc:type
           rdf:resource="http://purl.org/dc/dcmitype/StillImage" />
        <dc:title />
      </cc:Work>
    </rdf:RDF>
  </metadata>
  <defs
     id="defs34" />
  <sodipodi:namedview
     pagecolor="#ffffff"
     bordercolor="#666666"
     borderopacity="1"
     objecttolerance="10"
     gridtolerance="10"
     guidetolerance="10"
     inkscape:pageopacity="0"
     inkscape:pageshadow="2"
     inkscape:window-width="2560"
     inkscape:window-height="1388"
     id="namedview32"
     showgrid="false"
     inkscape:zoom="2.0257511"
     inkscape:cx="11.174983"
     inkscape:cy="227.96348"
     inkscape:window-x="-8"
     inkscape:window-y="-8"
     inkscape:window-maximized="1"
     inkscape:current-layer="svg30" />
  <path
     style="fill:#d4cdd6;fill-opacity:1"
     inkscape:connector-curvature="0"
     d="m 188.05189,455.79131 c 0,13.25391 10.74219,24 24,24 h 32 c 13.2539,0 24,-10.74609 24,-24 v -48 h -80 z m 0,0"
     id="path2" />
  <path
     style="fill:#f2ce00;fill-opacity:1"
     inkscape:connector-curvature="0"
     d="M 372.05189,199.79131 C 372.04408,130.74834 323.03236,71.424126 255.23158,58.392876 187.4308,45.361626 119.91908,82.283502 94.317513,146.40459 c -25.601559,64.12109 -2.093746,137.39063 56.035157,174.64063 13.32031,8.25781 21.50391,22.74609 21.69922,38.41796 v 32.32813 c 0,13.25391 10.74219,24 24,24 h 64 c 13.2539,0 24,-10.74609 24,-24 v -31.66406 c 0.20312,-16.04297 8.55078,-30.87891 22.16015,-39.37891 41.07032,-26.51562 65.86719,-72.07031 65.83985,-120.95703 z m 0,0"
     id="path6" />
  <path
     d="m 389.50799,121.57587 25.15235,-18.86328 -28.80078,-38.402341 -25.15235,18.863282 c -5.17578,3.878906 -12.17969,4.257812 -17.74609,0.960937 -5.56641,-3.296875 -8.59766,-9.621093 -7.6875,-16.023437 l 4.4414,-31.113282 -47.51953,-6.789062 -4.4414,31.109375 c -0.91016,6.410156 -5.59375,11.636719 -11.86328,13.242187 -6.26954,1.609376 -12.89063,-0.71875 -16.77344,-5.898437 l -18.85938,-25.152344 -38.39843,28.800781 18.85546,25.152344 c 3.87891,5.179687 4.25782,12.179687 0.96094,17.746097 -3.29687,5.5664 -9.62109,8.59765 -16.02344,7.68749 l -31.11328,-4.4414 -6.79297,47.51953 31.1211,4.4414 c 6.40625,0.91407 11.63281,5.59766 13.23828,11.86719 1.60547,6.26953 -0.72266,12.89063 -5.90234,16.77344 l -25.14454,18.86328 28.80079,38.39844 25.14453,-18.85547 c 5.17578,-3.88281 12.18359,-4.26563 17.7539,-0.96875 5.56641,3.29687 8.60157,9.625 7.6875,16.03125 l -4.48047,31.10547 47.51954,6.79297 4.48046,-31.1211 c 0.91407,-6.40625 5.59766,-11.6289 11.86719,-13.23437 6.26953,-1.60938 12.89063,0.72265 16.76953,5.89843 l 18.86719,25.14454 38.39844,-28.80079 -18.8711,-25.14453 c -3.88281,-5.17578 -4.26562,-12.18359 -0.96875,-17.7539 3.29688,-5.56641 9.625,-8.60157 16.03125,-7.6836 l 31.11329,4.44532 6.79296,-47.51954 -31.11328,-4.44531 c -6.40234,-0.91797 -11.625,-5.59765 -13.23437,-11.86719 -1.60547,-6.26562 0.71875,-12.88281 5.89062,-16.76562 z m -91.64843,94.73437 c -30.92969,0 -56,-25.07031 -56,-56 0,-30.92578 25.07031,-55.99999 56,-55.99999 30.92968,0 56,25.07421 56,55.99999 0,30.92969 -25.07032,56 -56,56 z m 0,0"
     id="path8"
     inkscape:connector-curvature="0"
     style="fill:#72adf3;fill-opacity:1" />
  <path
     style="fill:#9e9e9e"
     inkscape:connector-curvature="0"
     d="m 188.05189,431.79131 h 80 v 16 h -80 z m 0,0"
     id="path10" />
</svg>
