<?xml version="1.0" encoding="iso-8859-1"?>
<!-- Generator: Adobe Illustrator 19.0.0, SVG Export Plug-In . SVG Version: 6.00 Build 0)  -->
<svg version="1.1" id="Capa_1" xmlns="http://www.w3.org/2000/svg" xmlns:xlink="http://www.w3.org/1999/xlink" x="0px" y="0px"
	 viewBox="0 0 512 512" style="enable-background:new 0 0 512 512;" xml:space="preserve">
<circle style="fill:#8C98A8;" cx="256" cy="256" r="249.872"/>
<path style="fill:#808993;" d="M505.868,256.001c0,137.996-111.872,249.868-249.868,249.868c-5.641,0-11.231-0.182-16.772-0.556
	C369.41,496.689,472.325,388.355,472.325,256S369.41,15.311,239.228,6.688c5.54-0.374,11.131-0.556,16.772-0.556
	C393.996,6.132,505.868,118.004,505.868,256.001z"/>
<circle style="fill:#55D1E7;" cx="256" cy="256" r="198.401"/>
<g>
	<path style="fill:#5C6777;" d="M256.503,36.913c-4.162,0-7.534-3.372-7.534-7.534V7.534c0-4.162,3.372-7.534,7.534-7.534
		c4.162,0,7.534,3.372,7.534,7.534v21.845C264.037,33.541,260.663,36.913,256.503,36.913z"/>
	<path style="fill:#5C6777;" d="M255.498,512c-4.162,0-7.534-3.372-7.534-7.534v-21.845c0-4.162,3.372-7.534,7.534-7.534
		c4.162,0,7.534,3.372,7.534,7.534v21.845C263.032,508.628,259.659,512,255.498,512z"/>
	<path style="fill:#5C6777;" d="M143.132,67.025c-2.604,0-5.135-1.351-6.531-3.768l-10.923-18.919
		c-2.08-3.603-0.846-8.211,2.757-10.291c3.601-2.079,8.211-0.846,10.291,2.757l10.923,18.919c2.08,3.603,0.846,8.211-2.757,10.291
		C145.706,66.698,144.41,67.025,143.132,67.025z"/>
	<path style="fill:#5C6777;" d="M379.805,478.964c-2.604,0-5.135-1.351-6.531-3.768l-10.923-18.919
		c-2.08-3.603-0.846-8.211,2.757-10.291c3.601-2.079,8.21-0.847,10.291,2.757l10.923,18.919c2.08,3.603,0.846,8.211-2.757,10.291
		C382.379,478.638,381.083,478.964,379.805,478.964z"/>
	<path style="fill:#5C6777;" d="M59.985,149.79c-1.278,0-2.575-0.325-3.76-1.011l-18.919-10.923
		c-3.603-2.08-4.838-6.688-2.757-10.291c2.079-3.604,6.689-4.838,10.291-2.757l18.919,10.923c3.603,2.08,4.838,6.688,2.757,10.291
		C65.121,148.439,62.589,149.79,59.985,149.79z"/>
	<path style="fill:#5C6777;" d="M470.921,388.203c-1.278,0-2.575-0.325-3.76-1.011l-18.919-10.923
		c-3.603-2.08-4.838-6.688-2.757-10.291c2.078-3.604,6.688-4.837,10.291-2.757l18.919,10.923c3.603,2.08,4.838,6.688,2.757,10.291
		C476.057,386.852,473.523,388.203,470.921,388.203z"/>
	<path style="fill:#5C6777;" d="M29.379,263.032H7.534c-4.162,0-7.534-3.372-7.534-7.534s3.372-7.534,7.534-7.534h21.845
		c4.162,0,7.534,3.372,7.534,7.534S33.541,263.032,29.379,263.032z"/>
	<path style="fill:#5C6777;" d="M504.466,264.037h-21.845c-4.162,0-7.534-3.372-7.534-7.534c0-4.162,3.372-7.534,7.534-7.534h21.845
		c4.162,0,7.534,3.372,7.534,7.534C512,260.664,508.628,264.037,504.466,264.037z"/>
	<path style="fill:#5C6777;" d="M40.578,387.333c-2.604,0-5.135-1.351-6.531-3.768c-2.08-3.603-0.846-8.211,2.757-10.291
		l18.919-10.923c3.601-2.078,8.21-0.847,10.291,2.757c2.08,3.603,0.846,8.211-2.757,10.291l-18.919,10.923
		C43.152,387.008,41.856,387.333,40.578,387.333z"/>
	<path style="fill:#5C6777;" d="M452.517,150.66c-2.604,0-5.135-1.351-6.531-3.768c-2.08-3.603-0.846-8.211,2.757-10.291
		l18.919-10.923c3.602-2.078,8.21-0.847,10.291,2.757c2.08,3.603,0.846,8.211-2.757,10.291l-18.919,10.923
		C455.091,150.334,453.796,150.66,452.517,150.66z"/>
	<path style="fill:#5C6777;" d="M131.325,478.461c-1.278,0-2.575-0.325-3.76-1.011c-3.603-2.08-4.838-6.688-2.757-10.291
		l10.923-18.919c2.079-3.604,6.689-4.837,10.291-2.757c3.603,2.08,4.838,6.688,2.757,10.291l-10.923,18.919
		C136.462,477.111,133.928,478.461,131.325,478.461z"/>
	<path style="fill:#5C6777;" d="M369.738,67.527c-1.278,0-2.575-0.325-3.76-1.011c-3.603-2.08-4.838-6.688-2.757-10.291
		l10.923-18.919c2.079-3.604,6.689-4.838,10.291-2.757c3.603,2.08,4.838,6.688,2.757,10.291L376.27,63.759
		C374.874,66.176,372.342,67.527,369.738,67.527z"/>
	<circle style="fill:#5C6777;" cx="256" cy="256" r="89.904"/>
</g>
<path style="fill:#525760;" d="M345.91,256.001c0,49.66-40.255,89.914-89.914,89.914c-7.868,0-15.498-1.007-22.762-2.909
	c38.645-10.082,67.152-45.213,67.152-87.005s-28.508-76.923-67.152-87.005c7.265-1.903,14.894-2.909,22.762-2.909
	C305.655,166.086,345.91,206.341,345.91,256.001z"/>
<circle style="fill:#E1E6E9;" cx="318.942" cy="190.124" r="41.853"/>
<path style="fill:#D2D6D8;" d="M360.803,190.123c0,23.118-18.739,41.857-41.857,41.857c-3.662,0-7.214-0.468-10.597-1.354
	c17.99-4.693,31.261-21.048,31.261-40.503s-13.271-35.81-31.261-40.503c3.381-0.886,6.933-1.354,10.597-1.354
	C342.063,148.266,360.803,167.005,360.803,190.123z"/>
<g>
</g>
<g>
</g>
<g>
</g>
<g>
</g>
<g>
</g>
<g>
</g>
<g>
</g>
<g>
</g>
<g>
</g>
<g>
</g>
<g>
</g>
<g>
</g>
<g>
</g>
<g>
</g>
<g>
</g>
</svg>
