<svg height="511pt" viewBox="-60 0 511 511.99987" width="511pt" xmlns="http://www.w3.org/2000/svg"><path d="m371.089844 19.945312h-349.671875c-11.550781 0-20.917969 9.363282-20.917969 20.917969v416.648438c0 11.085937 8.988281 20.074219 20.074219 20.074219h352.363281c10.53125 0 19.070312-8.539063 19.070312-19.070313v-417.652344c0-11.554687-9.367187-20.917969-20.917968-20.917969zm0 0" fill="#baced8"/><path d="m20.570312 435.574219h322.546876c7.269531 0 13.160156-5.890625 13.160156-13.160157v-401.496093c0-11.550781-9.367188-20.917969-20.917969-20.917969h-313.941406c-11.554688 0-20.917969 9.367188-20.917969 20.917969v434.730469c0-11.085938 8.988281-20.074219 20.070312-20.074219zm0 0" fill="#395f80"/><path d="m335.359375 0h-51.835937c11.550781 0 20.917968 9.367188 20.917968 20.917969v401.496093c0 7.269532-5.890625 13.160157-13.160156 13.160157h51.835938c7.269531 0 13.160156-5.890625 13.160156-13.160157v-401.496093c0-11.550781-9.367188-20.917969-20.917969-20.917969zm0 0" fill="#1d4859"/><path d="m98.699219 511.253906-21.730469-15.355468c-1.394531-.988282-3.261719-.988282-4.65625 0l-21.734375 15.355468c-2.671875 1.886719-6.363281-.023437-6.363281-3.296875v-72.382812h60.851562v72.382812c0 3.273438-3.691406 5.183594-6.367187 3.296875zm0 0" fill="#f9644b"/><path d="m279.542969 167.109375c0 55.9375-45.34375 101.285156-101.28125 101.285156s-101.285157-45.347656-101.285157-101.285156 45.347657-101.28125 101.285157-101.28125 101.28125 45.34375 101.28125 101.28125zm0 0" fill="#ffb123"/><path d="m178.261719 65.828125c-8.960938 0-17.648438 1.167969-25.917969 3.351563 43.378906 11.453124 75.363281 50.953124 75.363281 97.929687 0 46.980469-31.984375 86.484375-75.363281 97.933594 8.269531 2.183593 16.957031 3.351562 25.917969 3.351562 55.933593 0 101.28125-45.34375 101.28125-101.285156 0-55.9375-45.347657-101.28125-101.28125-101.28125zm0 0" fill="#ff901d"/><g fill="#e1effb"><path d="m228.472656 147.222656c-1.734375-1.734375-4.542968-1.734375-6.277344 0l-26.476562 26.472656c-6.652344 6.65625-17.441406 6.65625-24.09375 0h-.003906c-6.652344-6.652343-6.652344-17.4375 0-24.089843 9.097656-9.097657 20.929687-20.929688 26.480468-26.480469 1.734376-1.734375 1.730469-4.542969 0-6.273438l-2.8125-2.8125c-1.019531-1.019531-2.472656-1.480468-3.890624-1.234374l-45.714844 7.890624c-5.085938.878907-9.132813 4.742188-10.253906 9.777344l-5.320313 41.121094c-1.371094 10.597656-6.210937 20.441406-13.765625 28l-22.894531 22.890625c7.660156 11.707031 17.675781 21.730469 29.375 29.398437l22.902343-22.902343c7.558594-7.554688 17.402344-12.398438 28-13.769531l41.121094-5.320313c5.039063-1.117187 8.898438-5.167969 9.777344-10.25l7.890625-45.714844c.246094-1.421875-.214844-2.875-1.234375-3.894531zm0 0"/><path d="m306.476562 317.445312h-256.433593c-4.269531 0-7.726563 3.460938-7.726563 7.726563 0 4.269531 3.457032 7.726563 7.726563 7.726563h256.433593c4.265626 0 7.726563-3.460938 7.726563-7.726563 0-4.269531-3.460937-7.726563-7.726563-7.726563zm0 0"/><path d="m306.476562 365.847656h-26.933593c-.214844 0-.429688.007813-.640625.027344-.210938-.019531-.421875-.027344-.636719-.027344h-228.222656c-4.269531 0-7.726563 3.460938-7.726563 7.726563 0 4.269531 3.460938 7.726562 7.726563 7.726562h228.222656c.214844 0 .425781-.007812.636719-.023437.210937.015625.425781.023437.640625.023437h26.933593c4.265626 0 7.726563-3.457031 7.726563-7.726562 0-4.265625-3.460937-7.726563-7.726563-7.726563zm0 0"/></g></svg>