<?xml version="1.0" encoding="UTF-8" standalone="no"?>
<svg
   xmlns:dc="http://purl.org/dc/elements/1.1/"
   xmlns:cc="http://creativecommons.org/ns#"
   xmlns:rdf="http://www.w3.org/1999/02/22-rdf-syntax-ns#"
   xmlns:svg="http://www.w3.org/2000/svg"
   xmlns="http://www.w3.org/2000/svg"
   xmlns:sodipodi="http://sodipodi.sourceforge.net/DTD/sodipodi-0.dtd"
   xmlns:inkscape="http://www.inkscape.org/namespaces/inkscape"
   height="512pt"
   viewBox="0 -17 512 511"
   width="512pt"
   version="1.1"
   id="svg50"
   sodipodi:docname="Manual.svg"
   inkscape:version="0.92.2 (5c3e80d, 2017-08-06)">
  <metadata
     id="metadata56">
    <rdf:RDF>
      <cc:Work
         rdf:about="">
        <dc:format>image/svg+xml</dc:format>
        <dc:type
           rdf:resource="http://purl.org/dc/dcmitype/StillImage" />
      </cc:Work>
    </rdf:RDF>
  </metadata>
  <defs
     id="defs54" />
  <sodipodi:namedview
     pagecolor="#ffffff"
     bordercolor="#666666"
     borderopacity="1"
     objecttolerance="10"
     gridtolerance="10"
     guidetolerance="10"
     inkscape:pageopacity="0"
     inkscape:pageshadow="2"
     inkscape:window-width="2560"
     inkscape:window-height="1388"
     id="namedview52"
     showgrid="false"
     inkscape:zoom="1.3828125"
     inkscape:cx="134.52366"
     inkscape:cy="244.99043"
     inkscape:window-x="-8"
     inkscape:window-y="-8"
     inkscape:window-maximized="1"
     inkscape:current-layer="svg50" />
  <path
     d="m34.132812 119.96875h-17.066406c-9.425781 0-17.066406 7.640625-17.066406 17.066406v324.261719c0 9.425781 7.640625 17.070313 17.066406 17.070313h477.867188c9.425781 0 17.066406-7.644532 17.066406-17.070313v-324.261719c0-9.425781-7.640625-17.066406-17.066406-17.066406zm0 0"
     fill="#32df85"
     id="path2" />
  <path
     d="m34.132812 119.96875h-17.066406c-9.425781 0-17.066406 7.640625-17.066406 17.066406v324.261719c0 9.425781 7.640625 17.070313 17.066406 17.070313h477.867188c9.425781 0 17.066406-7.644532 17.066406-17.070313v-324.261719c0-9.425781-7.640625-17.066406-17.066406-17.066406zm0 0"
     fill="#32df85"
     id="path4" />
  <path
     d="m494.933594 119.96875h-23.695313c9.425781 0 17.066407 7.640625 17.066407 17.066406v324.261719c0 9.425781-7.640626 17.070313-17.066407 17.070313h23.695313c9.425781 0 17.066406-7.644532 17.066406-17.070313v-324.261719c0-9.425781-7.640625-17.066406-17.066406-17.066406zm0 0"
     fill="#28c774"
     id="path6" />
  <path
     d="m221.867188 429.089844h68.265624v49.277344h-68.265624zm0 0"
     fill="#28c774"
     id="path8" />
  <path
     d="m34.132812 391.558594v-305.722656c0-9.429688 7.640626-17.070313 17.070313-17.070313h409.597656c9.425781 0 17.066407 7.644531 17.066407 17.070313v305.722656zm0 0"
     fill="#bab5c2"
     id="path10"
     style="fill:#bab5c2;fill-opacity:1" />
  <path
     d="m460.800781 68.765625h-23.695312c9.425781 0 17.066406 7.644531 17.066406 17.070313v305.722656h23.695313v-305.722656c0-9.429688-7.640626-17.070313-17.066407-17.070313zm0 0"
     fill="#7c8897"
     id="path12"
     style="fill:#7c8897;fill-opacity:1" />
  <path
     d="m256 441.339844c-4.265625 0-7.726562-3.460938-7.726562-7.726563v-238.933593c0-4.265626 3.460937-7.726563 7.726562-7.726563 4.269531 0 7.726562 3.460937 7.726562 7.726563v238.933593c0 4.265625-3.457031 7.726563-7.726562 7.726563zm0 0"
     fill="#c9ced4"
     id="path14" />
  <path
     d="m256 410.097656c0-18.851562 15.28125-34.128906 34.132812-34.128906h170.667969c9.425781 0 17.066407-7.644531 17.066407-17.070312v68.265624c0 9.425782-7.640626 17.066407-17.066407 17.066407h-204.800781zm0 0"
     fill="#8492ab"
     id="path16"
     style="fill:#8492ab;fill-opacity:1" />
  <path
     d="m137.601562 444.230469h118.398438v-34.132813c0-18.851562-15.28125-34.128906-34.132812-34.128906h-170.667969c-9.425781 0-17.066407-7.644531-17.066407-17.070312v68.265624c0 9.425782 7.640626 17.066407 17.066407 17.066407h16"
     fill="#8492ab"
     id="path18"
     style="fill:#8492ab;fill-opacity:1" />
  <path
     d="m256 410.097656c0-18.851562-15.28125-34.128906-34.132812-34.128906h-23.691407c18.847657 0 34.128907 15.28125 34.128907 34.128906l.003906 34.132813h23.691406zm0 0"
     fill="#49596d"
     id="path20"
     style="fill:#49596d;fill-opacity:1" />
  <path
     d="m341.332031.5h-170.664062c-9.425781 0-17.066407 7.640625-17.066407 17.066406v136.53125c0 9.425782 7.640626 17.070313 17.066407 17.070313h48.640625c1.636718 0 3.210937.648437 4.371094 1.808593l27.949218 27.953126c2.414063 2.414062 6.328125 2.414062 8.742188 0l27.953125-27.953126c1.15625-1.160156 2.730469-1.808593 4.371093-1.808593h48.636719c9.425781 0 17.070313-7.640625 17.070313-17.070313v-136.53125c0-9.425781-7.640625-17.066406-17.070313-17.066406zm0 0"
     fill="#49aaef"
     id="path22" />
  <path
     d="m256 26.90625c-20.726562 0-37.59375 16.863281-37.59375 37.59375 0 4.265625 3.460938 7.726562 7.726562 7.726562 4.269532 0 7.726563-3.460937 7.726563-7.726562 0-12.207031 9.933594-22.140625 22.140625-22.140625 12.210938 0 22.140625 9.933594 22.140625 22.140625s-9.929687 22.140625-22.140625 22.140625c-4.265625 0-7.726562 3.460937-7.726562 7.726563v17.066406c0 4.265625 3.460937 7.726562 7.726562 7.726562 4.269531 0 7.726562-3.460937 7.726562-7.726562v-10.136719c17.035157-3.574219 29.867188-18.714844 29.867188-36.796875 0-20.726562-16.863281-37.59375-37.59375-37.59375zm0 0"
     fill="#f5f4fa"
     id="path24" />
  <path
     d="m256 125.039062c-4.265625 0-7.726562 3.460938-7.726562 7.726563v4.269531c0 4.265625 3.460937 7.726563 7.726562 7.726563 4.269531 0 7.726562-3.460938 7.726562-7.726563v-4.269531c0-4.265625-3.457031-7.726563-7.726562-7.726563zm0 0"
     fill="#f5f4fa"
     id="path26" />
  <path
     d="m341.332031.5h-23.691406c9.425781 0 17.066406 7.640625 17.066406 17.066406v136.53125c0 9.425782-7.640625 17.070313-17.066406 17.070313h23.691406c9.425781 0 17.070313-7.644531 17.070313-17.070313v-136.53125c0-9.425781-7.640625-17.066406-17.070313-17.066406zm0 0"
     fill="#4088e6"
     id="path28" />
  <path
     d="m264.628906 172.976562-20.476562 20.476563 7.476562 7.476563c2.414063 2.414062 6.328125 2.414062 8.742188 0l27.953125-27.953126c1.15625-1.160156 2.730469-1.808593 4.371093-1.808593h-23.695312c-1.640625 0-3.210938.648437-4.371094 1.808593zm0 0"
     fill="#4088e6"
     id="path30" />
  <path
     d="m460.800781 375.964844h-6.628906v51.199218c0 9.425782-7.640625 17.066407-17.066406 17.066407h23.695312c9.425781 0 17.066407-7.640625 17.066407-17.066407v-68.265624c0 9.425781-7.640626 17.066406-17.066407 17.066406zm0 0"
     fill="#8f9bb3"
     id="path32"
     style="fill:#49596d;fill-opacity:1" />
  <path
     d="m477.867188 417.824219h-153.601563c-4.265625 0-7.726563-3.457031-7.726563-7.726563 0-4.265625 3.460938-7.726562 7.726563-7.726562h153.601563zm0 0"
     fill="#49596d"
     id="path34"
     style="fill:#49596d;fill-opacity:1" />
  <path
     d="m125.980469 467.8125-19.210938-19.210938c-2.414062-2.414062-6.324219-2.414062-8.738281 0l-19.210938 19.210938c-3.894531 3.894531-10.554687 1.136719-10.554687-4.371094v-53.34375h68.269531v53.34375c0 5.507813-6.660156 8.265625-10.554687 4.371094zm0 0"
     fill="#f95e66"
     id="path36" />
  <path
     d="m112.839844 410.097656v44.574219l13.140625 13.140625c3.894531 3.894531 10.554687 1.136719 10.554687-4.371094v-53.34375zm0 0"
     fill="#e64959"
     id="path38" />
  <path
     d="m34.132812 402.371094h153.601563c4.269531 0 7.726563 3.460937 7.726563 7.726562 0 4.269532-3.457032 7.726563-7.726563 7.726563h-153.601563zm0 0"
     fill="#49596d"
     id="path40"
     style="fill:#49596d;fill-opacity:1" />
  <path
     d="m222.269531 281.292969h-151.617187c-4.269532 0-7.726563-3.457031-7.726563-7.726563 0-4.265625 3.457031-7.726562 7.726563-7.726562h151.617187c4.269531 0 7.726563 3.460937 7.726563 7.726562 0 4.269532-3.457032 7.726563-7.726563 7.726563zm0 0"
     fill="#49596a"
     id="path42"
     style="fill:#49596a;fill-opacity:1" />
  <path
     d="m222.269531 315.425781h-151.617187c-4.269532 0-7.726563-3.457031-7.726563-7.726562 0-4.265625 3.457031-7.726563 7.726563-7.726563h151.617187c4.269531 0 7.726563 3.460938 7.726563 7.726563 0 4.269531-3.457032 7.726562-7.726563 7.726562zm0 0"
     fill="#49596a"
     id="path44"
     style="fill:#49596a;fill-opacity:1" />
  <path
     d="m156.570312 239.433594h-69.433593c-9.105469 0-16.484375-7.378906-16.484375-16.484375v-1.167969c0-9.101562 7.378906-16.480469 16.484375-16.480469h69.433593c9.101563 0 16.480469 7.378907 16.480469 16.480469v1.167969c0 9.105469-7.378906 16.484375-16.480469 16.484375zm0 0"
     fill="#32df85"
     id="path46" />
  <path
     d="m156.570312 205.300781h-23.695312c9.105469 0 16.484375 7.378907 16.484375 16.480469v1.167969c0 9.105469-7.378906 16.484375-16.484375 16.484375h23.695312c9.101563 0 16.480469-7.378906 16.480469-16.484375v-1.167969c0-9.101562-7.378906-16.480469-16.480469-16.480469zm0 0"
     fill="#28c774"
     id="path48" />
</svg>
