<svg id="Layer_1" enable-background="new 0 0 512 512" height="512" viewBox="0 0 512 512" width="512" xmlns="http://www.w3.org/2000/svg"><path d="m256 0 10 61.667-10 66.333c-70.692 0-128 57.308-128 128l-61.667 10-66.333-10c0-141.384 114.616-256 256-256z" fill="#fff200"/><path d="m256 384 10 63-10 65c-141.384 0-256-114.616-256-256h128c0 70.692 57.308 128 128 128z" fill="#ffbc36"/><path d="m512 256c0 141.384-114.616 256-256 256v-128c70.692 0 128-57.308 128-128l65-10z" fill="#fe6a16"/><path d="m512 256h-128c0-70.692-57.308-128-128-128v-128c141.384 0 256 114.616 256 256z" fill="#40e35b"/><path d="m255 103c-84.5 0-153 68.5-153 153s68.5 153 153 153 153-68.5 153-153-68.5-153-153-153zm0 276c-67.931 0-123-55.069-123-123s55.069-123 123-123 123 55.069 123 123-55.069 123-123 123z" fill="#1b3b6b"/><path d="m256 103.013v30c67.47.538 122 55.391 122 122.987s-54.53 122.449-122 122.987v30c84.038-.539 152-68.822 152-152.987s-67.962-152.448-152-152.987z" fill="#12254c"/><path d="m256 301.104c-11.556 0-23.111-4.398-31.908-13.195-17.594-17.595-17.594-46.223 0-63.817 12.117-12.116 128.078-92.298 151.201-108.249 5.959-4.111 14.005-3.378 19.124 1.741 5.12 5.119 5.852 13.165 1.741 19.124-15.951 23.123-96.132 139.084-108.248 151.201-8.799 8.796-20.354 13.195-31.91 13.195z" fill="#1b3b6b"/></svg>