<svg id="Layer_1_1_" enable-background="new 0 0 64 64" height="512" viewBox="0 0 64 64" width="512" xmlns="http://www.w3.org/2000/svg"><g><path d="m62 36-8-6v3h-5.848c-1.36 0-2.648-.678-3.36-1.837-2.638-4.297-7.38-7.163-12.792-7.163s-10.154 2.866-12.792 7.163c-.712 1.159-2 1.837-3.36 1.837h-13.848v6h14.894c2.942 0 5.757-1.526 7.111-4.137 1.498-2.889 4.516-4.863 7.995-4.863s6.497 1.974 7.995 4.863c1.354 2.611 4.169 4.137 7.111 4.137h6.894v3z" fill="#f94660"/></g><g><path d="m20.521 14.706c.148-.413.516-.706.955-.706h1.524v-4h-1.524c-.439 0-.807-.293-.955-.706-.086-.239-.182-.472-.289-.699-.187-.397-.134-.864.177-1.175l1.077-1.077-2.828-2.828-1.078 1.077c-.31.31-.778.364-1.175.177-.227-.107-.461-.204-.699-.289-.413-.149-.706-.517-.706-.956v-1.524h-4v1.524c0 .439-.293.807-.706.955-.239.086-.472.182-.699.289-.397.188-.864.134-1.175-.176l-1.077-1.077-2.828 2.828 1.077 1.077c.31.31.364.778.177 1.175-.108.228-.204.461-.29.699-.148.413-.516.706-.955.706h-1.524v4h1.524c.439 0 .807.293.955.706.086.239.182.472.289.699.187.397.134.864-.177 1.175l-1.077 1.077 2.828 2.828 1.077-1.077c.31-.31.778-.364 1.175-.177.227.107.461.204.699.289.414.149.707.517.707.956v1.524h4v-1.524c0-.439.293-.807.706-.955.239-.086.472-.182.699-.289.397-.187.864-.134 1.175.177l1.077 1.077 2.828-2.828-1.077-1.077c-.31-.31-.364-.778-.177-1.175.108-.229.204-.462.29-.7zm-7.521 1.294c-2.209 0-4-1.791-4-4s1.791-4 4-4 4 1.791 4 4-1.791 4-4 4z" fill="#777"/></g><g><path d="m58.521 14.706c.148-.413.516-.706.955-.706h1.524v-4h-1.524c-.439 0-.807-.293-.955-.706-.086-.239-.182-.472-.289-.699-.187-.397-.134-.864.177-1.175l1.077-1.077-2.828-2.828-1.078 1.077c-.31.31-.778.364-1.175.177-.227-.107-.461-.204-.699-.289-.413-.149-.706-.517-.706-.956v-1.524h-4v1.524c0 .439-.293.807-.706.955-.239.086-.472.182-.699.289-.397.187-.864.134-1.175-.177l-1.077-1.077-2.828 2.828 1.077 1.077c.31.31.364.778.177 1.175-.107.227-.204.461-.289.699-.149.414-.517.707-.956.707h-1.524v4h1.524c.439 0 .807.293.955.706.086.239.182.472.289.699.187.397.134.864-.177 1.175l-1.077 1.077 2.828 2.828 1.077-1.077c.31-.31.778-.364 1.175-.177.227.107.461.204.699.289.414.149.707.517.707.956v1.524h4v-1.524c0-.439.293-.807.706-.955.239-.086.472-.182.699-.289.397-.187.864-.134 1.175.177l1.077 1.077 2.828-2.828-1.077-1.077c-.31-.31-.364-.778-.177-1.175.108-.229.204-.462.29-.7zm-7.521 1.294c-2.209 0-4-1.791-4-4s1.791-4 4-4 4 1.791 4 4-1.791 4-4 4z" fill="#777"/></g><g><path d="m39.521 54.706c.148-.413.516-.706.955-.706h1.524v-4h-1.524c-.439 0-.807-.293-.955-.706-.086-.239-.182-.472-.289-.699-.187-.397-.134-.864.177-1.175l1.077-1.077-2.828-2.828-1.077 1.077c-.31.31-.778.364-1.175.177-.227-.107-.461-.204-.699-.289-.414-.149-.707-.517-.707-.956v-1.524h-4v1.524c0 .439-.293.807-.706.955-.239.086-.472.182-.699.289-.397.187-.864.134-1.175-.177l-1.077-1.077-2.828 2.828 1.077 1.077c.31.31.364.778.177 1.175-.107.227-.204.461-.289.699-.149.414-.517.707-.956.707h-1.524v4h1.524c.439 0 .807.293.955.706.086.239.182.472.289.699.187.397.134.864-.177 1.175l-1.077 1.077 2.828 2.828 1.077-1.077c.31-.31.778-.364 1.175-.177.227.107.461.204.699.289.414.149.707.517.707.956v1.524h4v-1.524c0-.439.293-.807.706-.955.239-.086.472-.182.699-.289.397-.187.864-.134 1.175.177l1.077 1.077 2.828-2.828-1.077-1.077c-.31-.31-.364-.778-.177-1.175.108-.229.204-.462.29-.7zm-7.521 1.294c-2.209 0-4-1.791-4-4s1.791-4 4-4 4 1.791 4 4-1.791 4-4 4z" fill="#777"/></g><g><path d="m27 11h2v2h-2z" fill="#545454"/></g><g><path d="m31 11h2v2h-2z" fill="#545454"/></g><g><path d="m35 11h2v2h-2z" fill="#545454"/></g><g><path d="m9 51h2v2h-2z" fill="#545454"/></g><g><path d="m13 51h2v2h-2z" fill="#545454"/></g><g><path d="m17 51h2v2h-2z" fill="#545454"/></g><g><path d="m5 51h2v2h-2z" fill="#545454"/></g><g><path d="m45 51h2v2h-2z" fill="#545454"/></g><g><path d="m49 51h2v2h-2z" fill="#545454"/></g><g><path d="m53 51h2v2h-2z" fill="#545454"/></g><g><path d="m57 51h2v2h-2z" fill="#545454"/></g></svg>