<?xml version="1.0" encoding="iso-8859-1"?>
<!-- Generator: Adobe Illustrator 19.0.0, SVG Export Plug-In . SVG Version: 6.00 Build 0)  -->
<svg version="1.1" id="Capa_1" xmlns="http://www.w3.org/2000/svg" xmlns:xlink="http://www.w3.org/1999/xlink" x="0px" y="0px"
	 viewBox="0 0 512.001 512.001" style="enable-background:new 0 0 512.001 512.001;" xml:space="preserve">
<path style="fill:#FF444A;" d="M390.044,127.227H260c-2.209,0-4-1.791-4-4V30.27c0-2.209,1.791-4,4-4h130.044c2.209,0,4,1.791,4,4
	v92.958C394.044,125.437,392.253,127.227,390.044,127.227z"/>
<path style="fill:#BD6953;" d="M270.423,291.026h-28.845V14.208C241.577,6.361,247.938,0,255.785,0h0.43
	c7.847,0,14.208,6.361,14.208,14.208V291.026z"/>
<path style="fill:#FBD560;" d="M292.056,325.5h-72.113v-56.743c0-2.209,1.791-4,4-4h64.113c2.209,0,4,1.791,4,4V325.5z"/>
<path style="fill:#FFBD00;" d="M292.056,325.5h-30.905v-60.743h26.905c2.209,0,4,1.791,4,4V325.5z"/>
<path style="fill:#FBD560;" d="M183.887,496.547H39.662V340.869c0-2.209,1.791-4,4-4h136.225c2.209,0,4,1.791,4,4L183.887,496.547
	L183.887,496.547z"/>
<path style="fill:#FFBD00;" d="M183.887,496.547h-30.905V336.869h26.905c2.209,0,4,1.791,4,4V496.547z"/>
<path style="fill:#FF444A;" d="M472.338,496.547H328.113V371.775c0-2.209,1.791-4,4-4h136.225c2.209,0,4,1.791,4,4V496.547z"/>
<path style="fill:#EA3D4A;" d="M472.338,496.547h-30.905V367.775h26.905c2.209,0,4,1.791,4,4V496.547z"/>
<path style="fill:#51E3F0;" d="M328.113,496.547H183.887V299.662c0-2.209,1.791-4,4-4h136.225c2.209,0,4,1.791,4,4v196.885H328.113z
	"/>
<path style="fill:#49B9DB;" d="M328.113,496.547h-30.905V295.662h26.905c2.209,0,4,1.791,4,4V496.547z"/>
<g>
	<path style="fill:#FBD560;" d="M452.741,263.42l7.792,15.432c0.331,0.656,0.971,1.111,1.711,1.216l17.416,2.474
		c1.865,0.265,2.61,2.511,1.259,3.798l-12.597,12.001c-0.537,0.512-0.782,1.249-0.655,1.972l2.974,16.951
		c0.319,1.818-1.628,3.205-3.296,2.348l-15.586-8.009c-0.661-0.34-1.451-0.34-2.112,0l-15.586,8.009
		c-1.668,0.857-3.615-0.53-3.296-2.348l2.974-16.951c0.127-0.723-0.118-1.461-0.655-1.972l-12.597-12.001
		c-1.351-1.287-0.607-3.533,1.259-3.798l17.416-2.474c0.74-0.105,1.38-0.56,1.711-1.216l7.792-15.432
		C449.501,261.768,451.907,261.768,452.741,263.42z"/>
	<path style="fill:#FBD560;" d="M65.393,109.923l7.792,15.432c0.331,0.656,0.971,1.111,1.711,1.216l17.416,2.474
		c1.865,0.265,2.61,2.511,1.259,3.798l-12.597,12.001c-0.537,0.512-0.782,1.249-0.655,1.972l2.974,16.951
		c0.319,1.818-1.628,3.205-3.296,2.348l-15.586-8.009c-0.661-0.34-1.451-0.34-2.112,0l-15.586,8.009
		c-1.668,0.857-3.615-0.53-3.296-2.348l2.974-16.951c0.127-0.723-0.118-1.461-0.655-1.972l-12.597-12.001
		c-1.351-1.287-0.607-3.533,1.259-3.798l17.416-2.474c0.74-0.105,1.38-0.56,1.711-1.216l7.792-15.432
		C62.153,108.271,64.559,108.271,65.393,109.923z"/>
</g>
<g>
	<path style="fill:#FFF6CF;" d="M127.228,370.577H96.322c-4.143,0-7.5,3.358-7.5,7.5s3.357,7.5,7.5,7.5h23.405v15.905H96.322
		c-4.143,0-7.5,3.358-7.5,7.5v30.905c0,4.142,3.357,7.5,7.5,7.5h30.905c4.143,0,7.5-3.358,7.5-7.5s-3.357-7.5-7.5-7.5h-23.405
		v-15.905h23.405c4.143,0,7.5-3.358,7.5-7.5v-30.905C134.728,373.935,131.37,370.577,127.228,370.577z"/>
	<path style="fill:#FFF6CF;" d="M415.678,386.029h-30.905c-4.143,0-7.5,3.358-7.5,7.5s3.357,7.5,7.5,7.5h23.405v15.905h-23.405
		c-4.143,0-7.5,3.358-7.5,7.5s3.357,7.5,7.5,7.5h23.405v15.905h-23.405c-4.143,0-7.5,3.358-7.5,7.5s3.357,7.5,7.5,7.5h30.905
		c4.143,0,7.5-3.358,7.5-7.5v-30.905v-30.905C423.178,389.387,419.82,386.029,415.678,386.029z"/>
	<path style="fill:#FFF6CF;" d="M271.453,416.935H263.5v-54.311c0-4.142-3.357-7.5-7.5-7.5h-15.453c-4.143,0-7.5,3.358-7.5,7.5
		s3.357,7.5,7.5,7.5h7.953v46.811h-7.953c-4.143,0-7.5,3.358-7.5,7.5s3.357,7.5,7.5,7.5h30.906c4.143,0,7.5-3.358,7.5-7.5
		S275.596,416.935,271.453,416.935z"/>
</g>
<g>
	<path style="fill:#FF444A;" d="M183.988,72.876h-11.043V61.833c0-4.142-3.357-7.5-7.5-7.5s-7.5,3.358-7.5,7.5v11.043h-11.043
		c-4.143,0-7.5,3.358-7.5,7.5s3.357,7.5,7.5,7.5h11.043v11.043c0,4.142,3.357,7.5,7.5,7.5s7.5-3.358,7.5-7.5V87.876h11.043
		c4.143,0,7.5-3.358,7.5-7.5S188.131,72.876,183.988,72.876z"/>
	<path style="fill:#FF444A;" d="M400.803,184.93h-8.983v-8.983c0-4.142-3.357-7.5-7.5-7.5s-7.5,3.358-7.5,7.5v8.983h-8.982
		c-4.143,0-7.5,3.358-7.5,7.5s3.357,7.5,7.5,7.5h8.982v8.983c0,4.142,3.357,7.5,7.5,7.5s7.5-3.358,7.5-7.5v-8.983h8.983
		c4.143,0,7.5-3.358,7.5-7.5S404.945,184.93,400.803,184.93z"/>
	<path style="fill:#FF444A;" d="M131.931,236.653h-5.893v-5.892c0-4.142-3.357-7.5-7.5-7.5s-7.5,3.358-7.5,7.5v5.892h-5.893
		c-4.143,0-7.5,3.358-7.5,7.5s3.357,7.5,7.5,7.5h5.893v5.893c0,4.142,3.357,7.5,7.5,7.5s7.5-3.358,7.5-7.5v-5.893h5.893
		c4.143,0,7.5-3.358,7.5-7.5S136.073,236.653,131.931,236.653z"/>
</g>
<path style="fill:#BD6953;" d="M496.547,512H15.453C6.918,512,0,505.082,0,496.547l0,0c0-8.534,6.918-15.453,15.453-15.453h481.095
	c8.534,0,15.453,6.918,15.453,15.453l0,0C512,505.082,505.082,512,496.547,512z"/>
<path style="fill:#AD5F4E;" d="M496.547,481.095h-30.905c8.534,0,15.453,6.918,15.453,15.453c0,8.534-6.918,15.453-15.453,15.453
	h30.905c8.534,0,15.453-6.918,15.453-15.453C512,488.013,505.082,481.095,496.547,481.095z"/>
<g>
</g>
<g>
</g>
<g>
</g>
<g>
</g>
<g>
</g>
<g>
</g>
<g>
</g>
<g>
</g>
<g>
</g>
<g>
</g>
<g>
</g>
<g>
</g>
<g>
</g>
<g>
</g>
<g>
</g>
</svg>
