<svg id="Icons" height="512" viewBox="0 0 60 60" width="512" xmlns="http://www.w3.org/2000/svg"><path d="m9 28h2v17h-2z" fill="#ccd0da"/><path d="m29 28h2v17h-2z" fill="#ccd0da"/><path d="m49 28h2v17h-2z" fill="#ccd0da"/><path d="m59 46h-58a1 1 0 0 1 0-2h58a1 1 0 0 1 0 2z" fill="#ccd0da"/><path d="m35.657 14.305a8.1 8.1 0 0 0 -11.314 0 7.78 7.78 0 0 0 0 11.13l5.657 5.565 5.657-5.565a7.78 7.78 0 0 0 0-11.13z" fill="#f84861"/><path d="m15.657 14.305a8.1 8.1 0 0 0 -11.314 0 7.78 7.78 0 0 0 0 11.13l5.657 5.565 5.657-5.565a7.78 7.78 0 0 0 0-11.13z" fill="#186fee"/><path d="m55.657 14.305a8.1 8.1 0 0 0 -11.314 0 7.78 7.78 0 0 0 0 11.13l5.657 5.565 5.657-5.565a7.78 7.78 0 0 0 0-11.13z" fill="#38d6d2"/><circle cx="10" cy="45" fill="#1169d3" r="3"/><circle cx="30" cy="45" fill="#d83a59" r="3"/><circle cx="50" cy="45" fill="#2dbab3" r="3"/><g fill="#fff"><path d="m13 19h-6a1 1 0 0 1 0-2h6a1 1 0 0 1 0 2z"/><path d="m11 23h-4a1 1 0 0 1 0-2h4a1 1 0 0 1 0 2z"/><path d="m33 19h-6a1 1 0 0 1 0-2h6a1 1 0 0 1 0 2z"/><path d="m31 23h-4a1 1 0 0 1 0-2h4a1 1 0 0 1 0 2z"/><path d="m53 19h-6a1 1 0 0 1 0-2h6a1 1 0 0 1 0 2z"/><path d="m51 23h-4a1 1 0 0 1 0-2h4a1 1 0 0 1 0 2z"/></g></svg>