<?xml version="1.0" encoding="UTF-8" standalone="no"?>
<!-- Generator: Adobe Illustrator 19.0.0, SVG Export Plug-In . SVG Version: 6.00 Build 0)  -->

<svg
   xmlns:dc="http://purl.org/dc/elements/1.1/"
   xmlns:cc="http://creativecommons.org/ns#"
   xmlns:rdf="http://www.w3.org/1999/02/22-rdf-syntax-ns#"
   xmlns:svg="http://www.w3.org/2000/svg"
   xmlns="http://www.w3.org/2000/svg"
   xmlns:sodipodi="http://sodipodi.sourceforge.net/DTD/sodipodi-0.dtd"
   xmlns:inkscape="http://www.inkscape.org/namespaces/inkscape"
   version="1.1"
   id="Capa_1"
   x="0px"
   y="0px"
   viewBox="0 0 512 512"
   style="enable-background:new 0 0 512 512;"
   xml:space="preserve"
   sodipodi:docname="WorkflowHighlight.svg"
   inkscape:version="0.92.2 (5c3e80d, 2017-08-06)"><metadata
     id="metadata51"><rdf:RDF><cc:Work
         rdf:about=""><dc:format>image/svg+xml</dc:format><dc:type
           rdf:resource="http://purl.org/dc/dcmitype/StillImage" /></cc:Work></rdf:RDF></metadata><defs
     id="defs49" /><sodipodi:namedview
     pagecolor="#ffffff"
     bordercolor="#666666"
     borderopacity="1"
     objecttolerance="10"
     gridtolerance="10"
     guidetolerance="10"
     inkscape:pageopacity="0"
     inkscape:pageshadow="2"
     inkscape:window-width="2560"
     inkscape:window-height="1388"
     id="namedview47"
     showgrid="false"
     inkscape:zoom="1.3037281"
     inkscape:cx="42.68716"
     inkscape:cy="250.05962"
     inkscape:window-x="-8"
     inkscape:window-y="-8"
     inkscape:window-maximized="1"
     inkscape:current-layer="Capa_1" /><path
     inkscape:connector-curvature="0"
     style="fill:#505050;stroke-width:1.28260875;fill-opacity:0.87781352"
     d="m 378.32959,378.13342 c -6.66766,0 -12.07305,-5.40539 -12.07305,-12.07305 V 158.00392 H 145.74268 v 208.05723 c 0,6.66766 -5.40539,12.07305 -12.07305,12.07305 -6.66766,0 -12.07305,-5.40539 -12.07305,-12.07305 V 145.93087 c 0,-6.66766 5.40539,-12.07305 12.07305,-12.07305 h 244.65918 c 6.66767,0 12.07306,5.40539 12.07306,12.07305 v 220.13028 c 0,6.66766 -5.40539,12.07227 -12.07228,12.07227 z"
     id="path2" /><circle
     style="fill:#1ec57d;stroke-width:1.28260875;fill-opacity:1"
     cx="133.67352"
     cy="145.93477"
     r="77.266747"
     id="circle4" /><path
     inkscape:connector-curvature="0"
     style="fill:#00a25f;stroke-width:1.28260875;fill-opacity:1"
     d="m 149.73454,207.13114 c -42.67163,0 -77.263625,-34.592 -77.263625,-77.26362 0,-17.23831 5.647084,-33.156647 15.190135,-46.009359 -18.963695,14.079119 -31.254271,36.639389 -31.254271,62.072709 0,42.67085 34.592,77.26363 77.263631,77.26363 25.43332,0 47.99359,-12.29058 62.07271,-31.25349 -12.85193,9.54305 -28.77027,15.19013 -46.00858,15.19013 z"
     id="path6" /><path
     inkscape:connector-curvature="0"
     style="fill:#f87665;stroke-width:1.28260875;fill-opacity:1"
     d="m 367.458,73.170568 -61.88949,61.889492 c -6.00495,6.00495 -6.00495,15.73902 0,21.74319 l 61.88871,61.88871 c 6.00495,6.00495 15.73902,6.00495 21.74319,0 l 61.88871,-61.88871 c 6.00495,-6.00495 6.00495,-15.73902 0,-21.74319 L 389.20119,73.170568 c -6.00417,-6.00417 -15.73902,-6.00417 -21.74319,0 z"
     id="path8" /><path
     inkscape:connector-curvature="0"
     style="fill:#ffc938;stroke-width:1.28260875;fill-opacity:1"
     d="M 190.84685,288.7983 H 76.494745 c -11.094576,0 -20.087966,8.99261 -20.087966,20.08718 v 114.35133 c 0,11.09457 8.99339,20.08796 20.087966,20.08796 H 190.84685 c 11.09457,0 20.08796,-8.99339 20.08796,-20.08796 V 308.88548 c 0,-11.09457 -8.99417,-20.08718 -20.08796,-20.08718 z"
     id="path10" /><circle
     style="fill:#6bb0dd;stroke-width:1.28260875;fill-opacity:1"
     cx="378.32648"
     cy="366.06583"
     r="77.266747"
     id="circle12" /><path
     inkscape:connector-curvature="0"
     style="fill:#3f97eb;stroke-width:1.28260875;fill-opacity:1"
     d="m 394.39295,427.26064 c -42.67085,0 -77.26363,-34.592 -77.26363,-77.26363 0,-17.23831 5.64709,-33.15664 15.19014,-46.00936 -18.9637,14.07912 -31.25349,36.64017 -31.25349,62.07272 0,42.67084 34.592,77.26362 77.26362,77.26362 25.43333,0 47.9936,-12.29057 62.07272,-31.25349 -12.85272,9.54305 -28.77106,15.19014 -46.00936,15.19014 z"
     id="path14" /><g
     id="g16" /><g
     id="g18" /><g
     id="g20" /><g
     id="g22" /><g
     id="g24" /><g
     id="g26" /><g
     id="g28" /><g
     id="g30" /><g
     id="g32" /><g
     id="g34" /><g
     id="g36" /><g
     id="g38" /><g
     id="g40" /><g
     id="g42" /><g
     id="g44" /></svg>