<?xml version="1.0" encoding="UTF-8" standalone="no"?>
<svg
   xmlns:dc="http://purl.org/dc/elements/1.1/"
   xmlns:cc="http://creativecommons.org/ns#"
   xmlns:rdf="http://www.w3.org/1999/02/22-rdf-syntax-ns#"
   xmlns:svg="http://www.w3.org/2000/svg"
   xmlns="http://www.w3.org/2000/svg"
   xmlns:sodipodi="http://sodipodi.sourceforge.net/DTD/sodipodi-0.dtd"
   xmlns:inkscape="http://www.inkscape.org/namespaces/inkscape"
   height="512"
   viewBox="0 0 58 58"
   width="512"
   version="1.1"
   id="svg39"
   sodipodi:docname="Dependencies.svg"
   inkscape:version="0.92.2 (5c3e80d, 2017-08-06)">
  <metadata
     id="metadata45">
    <rdf:RDF>
      <cc:Work
         rdf:about="">
        <dc:format>image/svg+xml</dc:format>
        <dc:type
           rdf:resource="http://purl.org/dc/dcmitype/StillImage" />
      </cc:Work>
    </rdf:RDF>
  </metadata>
  <defs
     id="defs43" />
  <sodipodi:namedview
     pagecolor="#ffffff"
     bordercolor="#666666"
     borderopacity="1"
     objecttolerance="10"
     gridtolerance="10"
     guidetolerance="10"
     inkscape:pageopacity="0"
     inkscape:pageshadow="2"
     inkscape:window-width="1920"
     inkscape:window-height="1028"
     id="namedview41"
     showgrid="false"
     inkscape:zoom="0.4609375"
     inkscape:cx="-64"
     inkscape:cy="256"
     inkscape:window-x="-8"
     inkscape:window-y="-8"
     inkscape:window-maximized="1"
     inkscape:current-layer="svg39" />
  <g
     id="008---Road-Map"
     transform="matrix(0.80078125,0,0,0.80078125,5.7773437,5.7773437)"
     style="fill:none;stroke-width:1.24878049">
    <rect
       id="Rectangle"
       height="14"
       rx="3"
       width="34"
       x="12"
       y="0"
       style="fill:#f33a4d;stroke-width:1.56761801" />
    <rect
       id="rect3"
       height="14"
       rx="3"
       width="26"
       y="44"
       x="0"
       style="fill:#8ad256;stroke-width:1.56761801" />
    <rect
       id="rect5"
       height="14"
       rx="3"
       width="26"
       y="26"
       x="0"
       style="fill:#ffa334;stroke-width:1.56761801" />
    <rect
       id="rect7"
       height="14"
       rx="3"
       width="26"
       x="32"
       y="44"
       style="fill:#8ad256;stroke-width:1.56761801" />
    <rect
       id="rect9"
       height="14"
       rx="3"
       width="26"
       x="32"
       y="26"
       style="fill:#ffa334;stroke-width:1.56761801" />
    <path
       id="Path"
       d="M 17,5 H 16 C 15.447715,5 15,4.5522847 15,4 15,3.4477153 15.447715,3 16,3 h 1 c 0.552285,0 1,0.4477153 1,1 0,0.5522847 -0.447715,1 -1,1 z"
       inkscape:connector-curvature="0"
       style="fill:#ff526f;stroke-width:1.56761801" />
    <path
       id="path12"
       d="M 30,5 H 21 C 20.447715,5 20,4.5522847 20,4 20,3.4477153 20.447715,3 21,3 h 9 c 0.552285,0 1,0.4477153 1,1 0,0.5522847 -0.447715,1 -1,1 z"
       inkscape:connector-curvature="0"
       style="fill:#ff526f;stroke-width:1.56761801" />
    <path
       id="path14"
       d="M 5,49 H 4 C 3.4477153,49 3,48.552285 3,48 3,47.447715 3.4477153,47 4,47 h 1 c 0.5522847,0 1,0.447715 1,1 0,0.552285 -0.4477153,1 -1,1 z"
       inkscape:connector-curvature="0"
       style="fill:#a5df6c;stroke-width:1.56761801" />
    <path
       id="path16"
       d="M 18,49 H 9 C 8.4477153,49 8,48.552285 8,48 8,47.447715 8.4477153,47 9,47 h 9 c 0.552285,0 1,0.447715 1,1 0,0.552285 -0.447715,1 -1,1 z"
       inkscape:connector-curvature="0"
       style="fill:#a5df6c;stroke-width:1.56761801" />
    <path
       id="path18"
       d="M 5,31 H 4 C 3.4477153,31 3,30.552285 3,30 3,29.447715 3.4477153,29 4,29 h 1 c 0.5522847,0 1,0.447715 1,1 0,0.552285 -0.4477153,1 -1,1 z"
       inkscape:connector-curvature="0"
       style="fill:#ffcd62;stroke-width:1.56761801" />
    <path
       id="path20"
       d="M 18,31 H 9 C 8.4477153,31 8,30.552285 8,30 8,29.447715 8.4477153,29 9,29 h 9 c 0.552285,0 1,0.447715 1,1 0,0.552285 -0.447715,1 -1,1 z"
       inkscape:connector-curvature="0"
       style="fill:#ffcd62;stroke-width:1.56761801" />
    <path
       id="path22"
       d="m 37,49 h -1 c -0.552285,0 -1,-0.447715 -1,-1 0,-0.552285 0.447715,-1 1,-1 h 1 c 0.552285,0 1,0.447715 1,1 0,0.552285 -0.447715,1 -1,1 z"
       inkscape:connector-curvature="0"
       style="fill:#a5df6c;stroke-width:1.56761801" />
    <path
       id="path24"
       d="m 50,49 h -9 c -0.552285,0 -1,-0.447715 -1,-1 0,-0.552285 0.447715,-1 1,-1 h 9 c 0.552285,0 1,0.447715 1,1 0,0.552285 -0.447715,1 -1,1 z"
       inkscape:connector-curvature="0"
       style="fill:#a5df6c;stroke-width:1.56761801" />
    <path
       id="path26"
       d="m 37,31 h -1 c -0.552285,0 -1,-0.447715 -1,-1 0,-0.552285 0.447715,-1 1,-1 h 1 c 0.552285,0 1,0.447715 1,1 0,0.552285 -0.447715,1 -1,1 z"
       inkscape:connector-curvature="0"
       style="fill:#ffcd62;stroke-width:1.56761801" />
    <path
       id="path28"
       d="m 50,31 h -9 c -0.552285,0 -1,-0.447715 -1,-1 0,-0.552285 0.447715,-1 1,-1 h 9 c 0.552285,0 1,0.447715 1,1 0,0.552285 -0.447715,1 -1,1 z"
       inkscape:connector-curvature="0"
       style="fill:#ffcd62;stroke-width:1.56761801" />
    <g
       id="g36"
       style="fill:#79818f;stroke-width:1.56761801">
      <path
         id="path30"
         d="m 46,23 v 3 h -2 v -3 c 0,-0.552285 -0.447715,-1 -1,-1 H 15 c -0.552285,0 -1,0.447715 -1,1 v 3 h -2 v -3 c 0.0049,-1.654803 1.345197,-2.995058 3,-3 h 13 v -6 h 2 v 6 h 13 c 1.654803,0.0049 2.995058,1.345197 3,3 z"
         inkscape:connector-curvature="0"
         style="stroke-width:1.24878049" />
      <path
         id="path32"
         d="m 12,40 h 2 v 4 h -2 z"
         inkscape:connector-curvature="0"
         style="stroke-width:1.24878049" />
      <path
         id="path34"
         d="m 44,40 h 2 v 4 h -2 z"
         inkscape:connector-curvature="0"
         style="stroke-width:1.24878049" />
    </g>
  </g>
</svg>
