<svg height="512" viewBox="0 0 58 58" width="512" xmlns="http://www.w3.org/2000/svg"><g id="008---Road-Map" fill="none"><rect id="Rectangle" fill="#f33a4d" height="14" rx="3" width="34" x="12"/><rect id="Rectangle" fill="#8ad256" height="14" rx="3" width="26" y="44"/><rect id="Rectangle" fill="#ffa334" height="14" rx="3" width="26" y="26"/><rect id="Rectangle" fill="#8ad256" height="14" rx="3" width="26" x="32" y="44"/><rect id="Rectangle" fill="#ffa334" height="14" rx="3" width="26" x="32" y="26"/><path id="Path" d="m17 5h-1c-.5522847 0-1-.44771525-1-1s.4477153-1 1-1h1c.5522847 0 1 .44771525 1 1s-.4477153 1-1 1z" fill="#ff526f"/><path id="Path" d="m30 5h-9c-.5522847 0-1-.44771525-1-1s.4477153-1 1-1h9c.5522847 0 1 .44771525 1 1s-.4477153 1-1 1z" fill="#ff526f"/><path id="Path" d="m5 49h-1c-.55228475 0-1-.4477153-1-1s.44771525-1 1-1h1c.55228475 0 1 .4477153 1 1s-.44771525 1-1 1z" fill="#a5df6c"/><path id="Path" d="m18 49h-9c-.55228475 0-1-.4477153-1-1s.44771525-1 1-1h9c.5522847 0 1 .4477153 1 1s-.4477153 1-1 1z" fill="#a5df6c"/><path id="Path" d="m5 31h-1c-.55228475 0-1-.4477153-1-1s.44771525-1 1-1h1c.55228475 0 1 .4477153 1 1s-.44771525 1-1 1z" fill="#ffcd62"/><path id="Path" d="m18 31h-9c-.55228475 0-1-.4477153-1-1s.44771525-1 1-1h9c.5522847 0 1 .4477153 1 1s-.4477153 1-1 1z" fill="#ffcd62"/><path id="Path" d="m37 49h-1c-.5522847 0-1-.4477153-1-1s.4477153-1 1-1h1c.5522847 0 1 .4477153 1 1s-.4477153 1-1 1z" fill="#a5df6c"/><path id="Path" d="m50 49h-9c-.5522847 0-1-.4477153-1-1s.4477153-1 1-1h9c.5522847 0 1 .4477153 1 1s-.4477153 1-1 1z" fill="#a5df6c"/><path id="Path" d="m37 31h-1c-.5522847 0-1-.4477153-1-1s.4477153-1 1-1h1c.5522847 0 1 .4477153 1 1s-.4477153 1-1 1z" fill="#ffcd62"/><path id="Path" d="m50 31h-9c-.5522847 0-1-.4477153-1-1s.4477153-1 1-1h9c.5522847 0 1 .4477153 1 1s-.4477153 1-1 1z" fill="#ffcd62"/><g fill="#79818f"><path id="Path" d="m46 23v3h-2v-3c0-.5522847-.4477153-1-1-1h-28c-.5522847 0-1 .4477153-1 1v3h-2v-3c.0049422-1.6548028 1.3451972-2.9950578 3-3h13v-6h2v6h13c1.6548028.0049422 2.9950578 1.3451972 3 3z"/><path id="Rectangle" d="m12 40h2v4h-2z"/><path id="Rectangle" d="m44 40h2v4h-2z"/></g></g></svg>