<svg id="icons" height="512" viewBox="0 0 60 60" width="512" xmlns="http://www.w3.org/2000/svg"><path d="m55 17v20.642a2 2 0 0 1 -1.46 1.921l-22.46 6.29a3.982 3.982 0 0 1 -2.16 0l-22.46-6.29a2 2 0 0 1 -1.46-1.921v-20.642l25-5z" fill="#ba8a5a"/><path d="m55 8 3.466 5.8a3.737 3.737 0 0 1 -2.2 5.52l-17.526 4.914a3.733 3.733 0 0 1 -4.209-1.676l-4.531-7.558-4.531 7.556a3.733 3.733 0 0 1 -4.209 1.676l-17.53-4.909a3.737 3.737 0 0 1 -2.2-5.52l3.47-5.803z" fill="#d39f71"/><path d="m5 8 25 7 25-7-24.19-6.887a2.972 2.972 0 0 0 -1.62 0z" fill="#a5754a"/><rect fill="#e1efff" height="31" rx="3" width="28" x="16" y="28"/><path d="m31 16.67v11.33h-2v-11.33l1-1.67z" fill="#a5754a"/><path d="m22 37a1 1 0 0 1 -.707-.293l-1-1a1 1 0 0 1 1.414-1.414l.293.293 2.293-2.293a1 1 0 0 1 1.414 1.414l-3 3a1 1 0 0 1 -.707.293z" fill="#4ab591"/><path d="m39 36h-10a1 1 0 0 1 0-2h10a1 1 0 0 1 0 2z" fill="#9ebbce"/><path d="m22 43a1 1 0 0 1 -.707-.293l-1-1a1 1 0 0 1 1.414-1.414l.293.293 2.293-2.293a1 1 0 0 1 1.414 1.414l-3 3a1 1 0 0 1 -.707.293z" fill="#4ab591"/><path d="m39 42h-10a1 1 0 0 1 0-2h10a1 1 0 0 1 0 2z" fill="#9ebbce"/><path d="m22 49a1 1 0 0 1 -.707-.293l-1-1a1 1 0 0 1 1.414-1.414l.293.293 2.293-2.293a1 1 0 0 1 1.414 1.414l-3 3a1 1 0 0 1 -.707.293z" fill="#4ab591"/><path d="m39 48h-10a1 1 0 0 1 0-2h10a1 1 0 0 1 0 2z" fill="#9ebbce"/><path d="m22 55a1 1 0 0 1 -.707-.293l-1-1a1 1 0 0 1 1.414-1.414l.293.293 2.293-2.293a1 1 0 0 1 1.414 1.414l-3 3a1 1 0 0 1 -.707.293z" fill="#4ab591"/><path d="m39 54h-10a1 1 0 0 1 0-2h10a1 1 0 0 1 0 2z" fill="#9ebbce"/></svg>