<?xml version="1.0" encoding="UTF-8" standalone="no"?>
<!-- Generator: Adobe Illustrator 19.0.0, SVG Export Plug-In . SVG Version: 6.00 Build 0)  -->

<svg
   xmlns:dc="http://purl.org/dc/elements/1.1/"
   xmlns:cc="http://creativecommons.org/ns#"
   xmlns:rdf="http://www.w3.org/1999/02/22-rdf-syntax-ns#"
   xmlns:svg="http://www.w3.org/2000/svg"
   xmlns="http://www.w3.org/2000/svg"
   xmlns:sodipodi="http://sodipodi.sourceforge.net/DTD/sodipodi-0.dtd"
   xmlns:inkscape="http://www.inkscape.org/namespaces/inkscape"
   version="1.1"
   id="Capa_1"
   x="0px"
   y="0px"
   viewBox="0 0 512 512"
   style="enable-background:new 0 0 512 512;"
   xml:space="preserve"
   sodipodi:docname="FeaturePackage.svg"
   inkscape:version="0.92.2 (5c3e80d, 2017-08-06)"><metadata
     id="metadata59"><rdf:RDF><cc:Work
         rdf:about=""><dc:format>image/svg+xml</dc:format><dc:type
           rdf:resource="http://purl.org/dc/dcmitype/StillImage" /></cc:Work></rdf:RDF></metadata><defs
     id="defs57" /><sodipodi:namedview
     pagecolor="#ffffff"
     bordercolor="#666666"
     borderopacity="1"
     objecttolerance="10"
     gridtolerance="10"
     guidetolerance="10"
     inkscape:pageopacity="0"
     inkscape:pageshadow="2"
     inkscape:window-width="1920"
     inkscape:window-height="1028"
     id="namedview55"
     showgrid="false"
     inkscape:zoom="0.4609375"
     inkscape:cx="-64"
     inkscape:cy="256"
     inkscape:window-x="-8"
     inkscape:window-y="-8"
     inkscape:window-maximized="1"
     inkscape:current-layer="Capa_1" /><g
     id="g892"
     transform="matrix(0.79310426,0,0,0.79310426,52.965309,52.965309)"
     style="stroke-width:1.26086831"><path
       id="path2"
       d="M 507.661,503.322 V 399.907 c 0,-11.325 -5.528,-21.938 -14.805,-28.438 l -65.25,-45.681 c -4.374,-3.063 -9.589,-4.703 -14.935,-4.703 h -52.536 l 0.868,148.48 c 0.321,15.473 10.431,29.028 25.166,33.757 z"
       style="fill:#fec9a3;stroke-width:1.58978891"
       inkscape:connector-curvature="0" /><path
       id="path4"
       d="m 455.593,503.322 h -60.746 c -19.17,0 -34.712,-15.542 -34.712,-34.712 v -34.712 h 60.746 z"
       style="fill:#fabd91;stroke-width:1.58978891"
       inkscape:connector-curvature="0" /><path
       id="path6"
       d="m 229.966,60.746 c -5.979,0.009 -11.889,1.258 -17.356,3.662 V 0 H 56.407 C 27.648,0 4.339,23.309 4.339,52.068 v 156.203 h 64.408 c -9.633,-21.938 0.338,-47.538 22.285,-57.17 21.938,-9.633 47.538,0.338 57.17,22.285 4.886,11.116 4.886,23.778 0,34.894 h 64.408 v -64.408 c 21.938,9.633 47.538,-0.338 57.17,-22.285 9.632,-21.947 -0.338,-47.538 -22.285,-57.17 -5.519,-2.439 -11.489,-3.68 -17.529,-3.671 z"
       style="fill:#88b337;stroke-width:1.58978891"
       inkscape:connector-curvature="0" /><path
       id="path8"
       d="M 420.881,52.068 C 420.881,23.309 397.572,0 368.814,0 H 212.61 v 64.408 c 21.938,-9.633 47.538,0.338 57.17,22.285 9.633,21.938 -0.338,47.538 -22.285,57.17 -11.116,4.886 -23.778,4.886 -34.894,0 v 64.408 h 64.408 c -9.633,21.938 0.338,47.538 22.285,57.17 21.938,9.633 47.538,-0.338 57.17,-22.285 4.886,-11.116 4.886,-23.778 0,-34.894 h 64.417 V 52.068 Z"
       style="fill:#e8594a;stroke-width:1.58978891"
       inkscape:connector-curvature="0" /><path
       id="path10"
       d="M 420.881,57.023 C 371.278,126.03 281.73,165.228 212.61,186.325 v 21.947 h 64.408 c -9.633,21.938 0.338,47.538 22.285,57.17 21.938,9.633 47.538,-0.338 57.17,-22.285 4.886,-11.116 4.886,-23.778 0,-34.894 h 64.408 V 57.023 Z"
       style="fill:#d65245;stroke-width:1.58978891"
       inkscape:connector-curvature="0" /><path
       id="path12"
       d="m 195.254,277.695 c 5.979,0.009 11.889,1.258 17.356,3.662 v -73.086 h -64.408 c 9.633,-21.938 -0.338,-47.538 -22.285,-57.17 -21.947,-9.633 -47.538,0.338 -57.17,22.285 -4.886,11.116 -4.886,23.778 0,34.894 H 4.339 v 156.203 c 0,28.759 23.309,52.068 52.068,52.068 H 212.61 v -55.73 c -21.938,9.633 -47.538,-0.338 -57.17,-22.285 -9.633,-21.938 0.338,-47.538 22.285,-57.17 5.519,-2.439 11.489,-3.68 17.529,-3.671 z"
       style="fill:#fdb62f;stroke-width:1.58978891"
       inkscape:connector-curvature="0" /><path
       id="path14"
       d="m 4.339,364.475 c 0,28.759 23.309,52.068 52.068,52.068 H 212.61 v -55.73 c -21.834,9.615 -47.33,-0.286 -56.945,-22.12 -2.23,-5.068 -3.471,-10.526 -3.645,-16.063 -46.523,20.749 -96.751,31.918 -147.682,32.846 v 8.999 z"
       style="fill:#ffa719;stroke-width:1.58978891"
       inkscape:connector-curvature="0" /><path
       id="path16"
       d="m 443.574,389.641 -54.906,-146.658 -60.303,22.71 c 16.809,17.122 16.549,44.631 -0.573,61.431 -17.122,16.801 -44.631,16.549 -61.431,-0.573 -8.556,-8.721 -13.052,-20.636 -12.375,-32.837 l -60.295,22.71 25.687,68.634 c -5.962,-0.338 -11.932,0.573 -17.529,2.673 -22.407,8.695 -33.514,33.905 -24.819,56.311 8.548,22.016 33.098,33.202 55.322,25.183 5.597,-2.109 10.7,-5.372 14.969,-9.563 L 266.9,512 413.141,456.921 c 26.953,-10.205 40.569,-40.301 30.433,-67.28 z"
       style="fill:#4398d1;stroke-width:1.58978891"
       inkscape:connector-curvature="0" /><path
       id="path18"
       d="m 415.258,314.012 c -59.878,89.557 -172.127,120.832 -237.872,131.601 9.225,21.947 34.495,32.256 56.441,23.031 5.025,-2.109 9.607,-5.163 13.494,-8.982 L 266.9,512 413.141,456.921 c 26.945,-10.205 40.552,-40.283 30.434,-67.254 z"
       style="fill:#3e8fc9;stroke-width:1.58978891"
       inkscape:connector-curvature="0" /><path
       id="path20"
       d="m 229.966,60.746 c -5.979,0.009 -11.889,1.258 -17.356,3.662 V 51.816 C 147.63,111.633 59.592,144.67 4.339,160.768 v 47.503 h 64.408 c -9.633,-21.938 0.338,-47.538 22.285,-57.17 21.938,-9.633 47.538,0.338 57.17,22.285 4.886,11.116 4.886,23.778 0,34.894 h 64.408 v -64.408 c 21.938,9.633 47.538,-0.338 57.17,-22.285 9.632,-21.947 -0.338,-47.538 -22.285,-57.17 -5.519,-2.439 -11.489,-3.68 -17.529,-3.671 z"
       style="fill:#80a834;stroke-width:1.58978891"
       inkscape:connector-curvature="0" /><path
       id="path22"
       d="m 403.682,390.665 c -8.305,-8.47 -21.903,-8.609 -30.373,-0.304 -8.47,8.305 -8.609,21.903 -0.304,30.373 0.104,0.104 0.2,0.208 0.304,0.304 l 30.217,30.217 c 0,28.759 23.309,52.068 52.068,52.068 v 0 h 52.068 v -8.678 z"
       style="fill:#fec9a3;stroke-width:1.58978891"
       inkscape:connector-curvature="0" /><g
       id="g24"
       style="stroke-width:1.26086831" /><g
       id="g26"
       style="stroke-width:1.26086831" /><g
       id="g28"
       style="stroke-width:1.26086831" /><g
       id="g30"
       style="stroke-width:1.26086831" /><g
       id="g32"
       style="stroke-width:1.26086831" /><g
       id="g34"
       style="stroke-width:1.26086831" /><g
       id="g36"
       style="stroke-width:1.26086831" /><g
       id="g38"
       style="stroke-width:1.26086831" /><g
       id="g40"
       style="stroke-width:1.26086831" /><g
       id="g42"
       style="stroke-width:1.26086831" /><g
       id="g44"
       style="stroke-width:1.26086831" /><g
       id="g46"
       style="stroke-width:1.26086831" /><g
       id="g48"
       style="stroke-width:1.26086831" /><g
       id="g50"
       style="stroke-width:1.26086831" /><g
       id="g52"
       style="stroke-width:1.26086831" /></g></svg>