<?xml version="1.0" encoding="UTF-8" standalone="no"?>
<svg
   xmlns:dc="http://purl.org/dc/elements/1.1/"
   xmlns:cc="http://creativecommons.org/ns#"
   xmlns:rdf="http://www.w3.org/1999/02/22-rdf-syntax-ns#"
   xmlns:svg="http://www.w3.org/2000/svg"
   xmlns="http://www.w3.org/2000/svg"
   xmlns:sodipodi="http://sodipodi.sourceforge.net/DTD/sodipodi-0.dtd"
   xmlns:inkscape="http://www.inkscape.org/namespaces/inkscape"
   id="icons"
   height="512"
   viewBox="0 0 60 60"
   width="512"
   version="1.1"
   sodipodi:docname="FeatureList.svg"
   inkscape:version="0.92.2 (5c3e80d, 2017-08-06)">
  <metadata
     id="metadata33">
    <rdf:RDF>
      <cc:Work
         rdf:about="">
        <dc:format>image/svg+xml</dc:format>
        <dc:type
           rdf:resource="http://purl.org/dc/dcmitype/StillImage" />
      </cc:Work>
    </rdf:RDF>
  </metadata>
  <defs
     id="defs31" />
  <sodipodi:namedview
     pagecolor="#ffffff"
     bordercolor="#666666"
     borderopacity="1"
     objecttolerance="10"
     gridtolerance="10"
     guidetolerance="10"
     inkscape:pageopacity="0"
     inkscape:pageshadow="2"
     inkscape:window-width="1920"
     inkscape:window-height="1028"
     id="namedview29"
     showgrid="false"
     inkscape:zoom="0.4609375"
     inkscape:cx="-64"
     inkscape:cy="256"
     inkscape:window-x="-8"
     inkscape:window-y="-8"
     inkscape:window-maximized="1"
     inkscape:current-layer="icons" />
  <g
     id="g856"
     transform="matrix(0.82841025,0,0,0.82841025,5.1493493,5.1474895)"
     style="stroke-width:1.20713139">
    <path
       id="path2"
       d="m 55,17 v 20.642 a 2,2 0 0 1 -1.46,1.921 l -22.46,6.29 a 3.982,3.982 0 0 1 -2.16,0 L 6.46,39.563 A 2,2 0 0 1 5,37.642 V 17 l 25,-5 z"
       inkscape:connector-curvature="0"
       style="fill:#ba8a5a;stroke-width:1.45716619" />
    <path
       id="path4"
       d="m 55,8 3.466,5.8 a 3.737,3.737 0 0 1 -2.2,5.52 L 38.74,24.234 A 3.733,3.733 0 0 1 34.531,22.558 L 30,15 25.469,22.556 A 3.733,3.733 0 0 1 21.26,24.232 L 3.73,19.323 a 3.737,3.737 0 0 1 -2.2,-5.52 L 5,8 Z"
       inkscape:connector-curvature="0"
       style="fill:#d39f71;stroke-width:1.45716619" />
    <path
       id="path6"
       d="M 5,8 30,15 55,8 30.81,1.113 a 2.972,2.972 0 0 0 -1.62,0 z"
       inkscape:connector-curvature="0"
       style="fill:#a5754a;stroke-width:1.45716619" />
    <rect
       id="rect8"
       y="28"
       x="16"
       width="28"
       rx="3"
       height="31"
       style="fill:#e1efff;stroke-width:1.45716619" />
    <path
       id="path10"
       d="M 31,16.67 V 28 H 29 V 16.67 L 30,15 Z"
       inkscape:connector-curvature="0"
       style="fill:#a5754a;stroke-width:1.45716619" />
    <path
       id="path12"
       d="m 22,37 a 1,1 0 0 1 -0.707,-0.293 l -1,-1 a 1,1 0 0 1 1.414,-1.414 L 22,34.586 24.293,32.293 a 1,1 0 0 1 1.414,1.414 l -3,3 A 1,1 0 0 1 22,37 Z"
       inkscape:connector-curvature="0"
       style="fill:#4ab591;stroke-width:1.45716619" />
    <path
       id="path14"
       d="M 39,36 H 29 a 1,1 0 0 1 0,-2 h 10 a 1,1 0 0 1 0,2 z"
       inkscape:connector-curvature="0"
       style="fill:#9ebbce;stroke-width:1.45716619" />
    <path
       id="path16"
       d="m 22,43 a 1,1 0 0 1 -0.707,-0.293 l -1,-1 a 1,1 0 0 1 1.414,-1.414 L 22,40.586 24.293,38.293 a 1,1 0 0 1 1.414,1.414 l -3,3 A 1,1 0 0 1 22,43 Z"
       inkscape:connector-curvature="0"
       style="fill:#4ab591;stroke-width:1.45716619" />
    <path
       id="path18"
       d="M 39,42 H 29 a 1,1 0 0 1 0,-2 h 10 a 1,1 0 0 1 0,2 z"
       inkscape:connector-curvature="0"
       style="fill:#9ebbce;stroke-width:1.45716619" />
    <path
       id="path20"
       d="m 22,49 a 1,1 0 0 1 -0.707,-0.293 l -1,-1 a 1,1 0 0 1 1.414,-1.414 L 22,46.586 24.293,44.293 a 1,1 0 0 1 1.414,1.414 l -3,3 A 1,1 0 0 1 22,49 Z"
       inkscape:connector-curvature="0"
       style="fill:#4ab591;stroke-width:1.45716619" />
    <path
       id="path22"
       d="M 39,48 H 29 a 1,1 0 0 1 0,-2 h 10 a 1,1 0 0 1 0,2 z"
       inkscape:connector-curvature="0"
       style="fill:#9ebbce;stroke-width:1.45716619" />
    <path
       id="path24"
       d="m 22,55 a 1,1 0 0 1 -0.707,-0.293 l -1,-1 a 1,1 0 0 1 1.414,-1.414 L 22,52.586 24.293,50.293 a 1,1 0 0 1 1.414,1.414 l -3,3 A 1,1 0 0 1 22,55 Z"
       inkscape:connector-curvature="0"
       style="fill:#4ab591;stroke-width:1.45716619" />
    <path
       id="path26"
       d="M 39,54 H 29 a 1,1 0 0 1 0,-2 h 10 a 1,1 0 0 1 0,2 z"
       inkscape:connector-curvature="0"
       style="fill:#9ebbce;stroke-width:1.45716619" />
  </g>
</svg>
