<?xml version="1.0" encoding="UTF-8" standalone="no"?>
<svg
   xmlns:dc="http://purl.org/dc/elements/1.1/"
   xmlns:cc="http://creativecommons.org/ns#"
   xmlns:rdf="http://www.w3.org/1999/02/22-rdf-syntax-ns#"
   xmlns:svg="http://www.w3.org/2000/svg"
   xmlns="http://www.w3.org/2000/svg"
   xmlns:xlink="http://www.w3.org/1999/xlink"
   xmlns:sodipodi="http://sodipodi.sourceforge.net/DTD/sodipodi-0.dtd"
   xmlns:inkscape="http://www.inkscape.org/namespaces/inkscape"
   height="511pt"
   viewBox="0 -18 511.99908 511"
   width="511pt"
   version="1.1"
   id="svg53"
   sodipodi:docname="License.svg"
   inkscape:version="0.92.2 (5c3e80d, 2017-08-06)">
  <metadata
     id="metadata59">
    <rdf:RDF>
      <cc:Work
         rdf:about="">
        <dc:format>image/svg+xml</dc:format>
        <dc:type
           rdf:resource="http://purl.org/dc/dcmitype/StillImage" />
      </cc:Work>
    </rdf:RDF>
  </metadata>
  <defs
     id="defs57" />
  <sodipodi:namedview
     pagecolor="#ffffff"
     bordercolor="#666666"
     borderopacity="1"
     objecttolerance="10"
     gridtolerance="10"
     guidetolerance="10"
     inkscape:pageopacity="0"
     inkscape:pageshadow="2"
     inkscape:window-width="1920"
     inkscape:window-height="1028"
     id="namedview55"
     showgrid="false"
     inkscape:zoom="0.34637965"
     inkscape:cx="-85.166667"
     inkscape:cy="340.66667"
     inkscape:window-x="-8"
     inkscape:window-y="-8"
     inkscape:window-maximized="1"
     inkscape:current-layer="svg53" />
  <linearGradient
     id="lg1">
    <stop
       offset="0"
       stop-color="#ffc738"
       id="stop2" />
    <stop
       offset="1"
       stop-color="#e97264"
       id="stop4" />
  </linearGradient>
  <linearGradient
     id="linear0"
     gradientTransform="matrix(0.709873,0.709873,-0.709873,0.709873,1171.6465,-64.254706)"
     gradientUnits="userSpaceOnUse"
     x1="-509.2914"
     x2="-303.8274"
     xlink:href="#lg1"
     y1="1025.782"
     y2="1057.3326" />
  <linearGradient
     id="linear1"
     gradientTransform="matrix(0.709873,0.709873,-0.709873,0.709873,1171.6465,-64.254706)"
     gradientUnits="userSpaceOnUse"
     x1="-452.8415"
     x2="-436.695"
     xlink:href="#lg1"
     y1="1030.3037"
     y2="1030.3037" />
  <linearGradient
     id="linear2"
     gradientTransform="matrix(-0.709873,-0.709873,-0.709873,0.709873,2264.1008,1028.1995)"
     gradientUnits="userSpaceOnUse"
     x1="2006.2177"
     x2="2022.3643"
     xlink:href="#lg1"
     y1="970.4716"
     y2="970.4716" />
  <linearGradient
     id="lg2">
    <stop
       offset="0"
       stop-color="#e97264"
       stop-opacity="0"
       id="stop10" />
    <stop
       offset="1"
       stop-color="#b53759"
       id="stop12" />
  </linearGradient>
  <linearGradient
     id="linear3"
     gradientTransform="matrix(0.709873,0.709873,-0.709873,0.709873,1171.6465,-64.254706)"
     gradientUnits="userSpaceOnUse"
     x1="-359.0802"
     x2="-493.7622"
     xlink:href="#lg2"
     y1="978.6835"
     y2="844.0013" />
  <linearGradient
     id="linear4"
     gradientTransform="matrix(0.709873,0.709873,-0.709873,0.709873,1171.6465,-64.254706)"
     gradientUnits="userSpaceOnUse"
     x1="-506.8509"
     x2="-227.5925"
     xlink:href="#lg1"
     y1="713.1804"
     y2="992.4387" />
  <linearGradient
     id="linear5"
     gradientTransform="matrix(0.709873,0.709873,-0.709873,0.709873,1171.6465,-64.254706)"
     gradientUnits="userSpaceOnUse"
     x1="-390.0153"
     x2="-654.2774"
     xlink:href="#lg1"
     y1="830.016"
     y2="565.7538" />
  <radialGradient
     id="radial0"
     cx="-444.7682"
     cy="722.8245"
     gradientTransform="matrix(0.709873,0.709873,-0.709873,0.709873,1171.6465,-64.254706)"
     gradientUnits="userSpaceOnUse"
     r="60.0196">
    <stop
       offset="0"
       stop-color="#b53759"
       id="stop18" />
    <stop
       offset="1"
       stop-color="#e97264"
       stop-opacity="0"
       id="stop20" />
  </radialGradient>
  <linearGradient
     id="linear6"
     gradientUnits="userSpaceOnUse"
     x1="425.947627809"
     x2="374.5875806422"
     xlink:href="#lg2"
     y1="130.998867127"
     y2="79.6388199602" />
  <linearGradient
     id="lg3">
    <stop
       offset="0"
       stop-color="#00e7b2"
       id="stop24" />
    <stop
       offset=".4139"
       stop-color="#1fa999"
       id="stop26" />
    <stop
       offset="1"
       stop-color="#4f4a72"
       id="stop28" />
  </linearGradient>
  <linearGradient
     id="linear7"
     gradientUnits="userSpaceOnUse"
     x1="260.510819468"
     x2="260.510819468"
     xlink:href="#lg3"
     y1="81.5056129192"
     y2="282.1936364072" />
  <linearGradient
     id="linear8"
     gradientUnits="userSpaceOnUse"
     x1="448.3597848902"
     x2="254.762362096"
     xlink:href="#lg3"
     y1="344.9740994616"
     y2="151.3766766674" />
  <g
     id="g876"
     transform="matrix(0.82191918,0,0,0.82191918,45.587516,41.707387)"
     style="stroke-width:1.21666467">
    <path
       id="path33"
       d="m 85.992188,433.83984 9.488281,-9.48828 c 2.609375,-2.60547 6.273441,-3.86328 9.929691,-3.39844 7.73047,0.97657 14.30468,-5.60156 13.33203,-13.33203 -0.46485,-3.65625 0.79297,-7.32422 3.39844,-9.92968 l 9.48828,-9.48829 c 3.3164,-3.3164 8.69531,-3.3164 12.01171,0 3.32032,3.32032 8.69922,3.32032 12.01563,0 l 19.70312,-19.69921 c 3.31641,-3.32032 3.31641,-8.69922 0,-12.01563 -3.3164,-3.3164 -3.3164,-8.69531 0,-12.01562 l 18.125,-18.125 c 3.31641,-3.31641 8.69532,-3.31641 12.01563,0 3.31641,3.3164 8.69531,3.3164 12.01172,0 L 264.98437,278.875 197.05078,210.94531 12.648438,395.34766 c -6.128907,6.1289 -9.800782,14.29296 -10.316407,22.94531 L 0.0351562,456.68359 C -0.617188,467.55078 8.375,476.54687 19.242188,475.89453 l 38.394531,-2.29687 c 8.652343,-0.51953 16.8125,-4.1875 22.941406,-10.31641 l 5.414063,-5.41406 c 3.320312,-3.31641 3.320312,-8.69532 0,-12.01563 -3.316407,-3.3164 -3.316407,-8.69531 0,-12.01172 z m 0,0"
       inkscape:connector-curvature="0"
       style="fill:url(#linear0);stroke-width:1.48027289" />
    <path
       id="path35"
       d="m 16.207031,459.72266 c -3.164062,-3.16797 -3.164062,-8.29688 0,-11.46485 L 221.37891,243.08984 c 3.16406,-3.16797 8.29687,-3.16797 11.46093,0 3.16407,3.16407 3.16407,8.29297 0,11.46094 L 27.667969,459.72266 c -3.164063,3.16406 -8.296875,3.16406 -11.460938,0 z m 0,0"
       inkscape:connector-curvature="0"
       style="fill:url(#linear1);stroke-width:1.48027289" />
    <path
       id="path37"
       d="m 40.25,398.81641 c 3.164062,3.16406 8.296875,3.16406 11.460938,0 L 256.88281,193.64453 c 3.16406,-3.16406 3.16406,-8.29687 0,-11.46094 -3.16797,-3.16406 -8.29687,-3.16406 -11.46484,0 L 40.25,387.35547 c -3.167969,3.16406 -3.167969,8.29687 0,11.46094 z m 0,0"
       inkscape:connector-curvature="0"
       style="fill:url(#linear2);stroke-width:1.48027289" />
    <path
       id="path39"
       d="m 179.00781,340.82422 14.47656,-14.47656 c 3.31641,-3.31641 8.69532,-3.31641 12.01563,0 3.31641,3.32031 8.69531,3.32031 12.01172,0 l 47.47265,-47.46875 -67.93359,-67.9336 -18.04297,18.04297 z m 0,0"
       inkscape:connector-curvature="0"
       style="fill:url(#linear3);stroke-width:1.48027289" />
    <path
       id="path41"
       d="m 403.58594,72.339844 c -54.12891,-54.132813 -141.89844,-54.132813 -196.03125,0 -54.12891,54.132816 -54.13282,141.902346 0,196.031246 54.13281,54.13282 141.90234,54.13282 196.03125,0 54.13281,-54.1289 54.13281,-141.89843 0,-196.031246 z m -88.57813,88.578126 c -15.34375,-15.34766 -15.35547,-40.22656 0,-55.58203 15.34766,-15.347659 40.22656,-15.33594 55.57422,0.008 15.34375,15.34766 15.35547,40.22656 0.008,55.57422 -15.35547,15.35547 -40.23437,15.34765 -55.58203,0 z m 0,0"
       inkscape:connector-curvature="0"
       style="fill:url(#linear4);stroke-width:1.48027289" />
    <path
       id="path43"
       d="m 386.45312,89.472656 c -44.67187,-44.671875 -117.09375,-44.671875 -161.76562,0 -44.67188,44.675784 -44.67188,117.093754 0,161.765624 44.67187,44.67578 117.09375,44.67578 161.76562,0 44.67188,-44.67187 44.67188,-117.08984 0,-161.765624 z m -71.44531,71.445314 c -15.34375,-15.34766 -15.35547,-40.22656 0,-55.58203 15.34766,-15.347659 40.22656,-15.33594 55.57422,0.008 15.34375,15.34766 15.35547,40.22656 0.008,55.57422 -15.35547,15.35547 -40.23437,15.34765 -55.58203,0 z m 0,0"
       inkscape:connector-curvature="0"
       style="fill:url(#linear5);stroke-width:1.48027289" />
    <path
       id="path45"
       d="M 385.39844,90.527344 C 361.87109,67 323.72266,66.984375 300.19531,90.511719 c -23.54687,23.546871 -23.53125,61.695311 0,85.222651 23.52735,23.53125 61.67578,23.54688 85.21875,0 23.53125,-23.52734 23.51563,-61.67578 -0.0156,-85.207026 z m -70.39063,70.390626 c -15.34375,-15.34766 -15.35547,-40.22656 0,-55.58203 15.34766,-15.347659 40.22656,-15.33594 55.57422,0.008 15.34375,15.34766 15.35547,40.22656 0.008,55.57422 -15.35547,15.35547 -40.23437,15.34765 -55.58203,0 z m 0,0"
       inkscape:connector-curvature="0"
       style="fill:url(#radial0);stroke-width:1.48027289" />
    <path
       id="path47"
       d="m 371.72266,106.54688 c 4.125,4.47656 7.01953,9.67968 8.67968,15.17578 l 63.02735,63.03125 c 4.11328,-39.59766 -8.78516,-80.61719 -38.6875,-111.226566 z m 0,0"
       inkscape:connector-curvature="0"
       style="fill:url(#linear6);stroke-width:1.48027289" />
    <path
       id="path49"
       d="m 154.60547,242.92187 5.23437,5.23829 -19.8164,19.8164 -5.23438,-5.23828 C 105.94531,233.90625 89.984375,195.63281 89.792969,154.87891 89.378906,69.972656 160.12109,0.5 245.03906,0.5 h 136.51172 c 20.42188,0 37.96094,11.71875 45.77734,30.59375 7.81641,18.875 3.70313,39.5625 -10.74218,54.007812 l -40.3711,40.371098 c -5.47265,5.47265 -14.34375,5.47265 -19.8164,0 -2.73828,-2.73438 -4.11719,-6.32422 -4.11719,-9.91407 0,-3.58593 1.37891,-7.17578 4.11719,-9.91406 l 6.35937,-6.367186 h 0.008 l 33.6211,-33.632813 0.0469,-0.04687 c 6.3125,-6.300781 8.39844,-15.855468 4.87891,-24.054687 -3.5,-8.152344 -10.85547,-13.007813 -19.76172,-13.007813 H 244.82422 c -69.20313,0 -126.46485,55.398438 -126.99219,124.593749 -0.25781,33.91407 12.82813,65.83984 36.77344,89.79296 z m 0,0"
       inkscape:connector-curvature="0"
       style="fill:url(#linear7);stroke-width:1.48027289" />
    <path
       id="path51"
       d="m 512,225.67578 c 0,33.95703 -13.23438,65.88672 -37.24609,89.90625 l -74.6875,74.69141 c -18.98438,18.98437 -43.9375,28.48437 -68.87891,28.48437 -24.94141,0 -49.89453,-9.5 -68.87891,-28.48437 l -65.83984,-65.83985 c 3.02734,-1.16796 6.58203,-0.52734 9.02734,1.91407 1.65625,1.66015 3.83203,2.49218 6.00782,2.49218 2.17578,0 4.35156,-0.83203 6,-2.49218 l 10.26171,-10.25782 54.36719,54.35547 c 27.05078,27.05078 71.0586,27.05078 98.10547,0 l 74.6875,-74.6875 c 18.71875,-18.71875 29.03516,-43.60547 29.03516,-70.08203 0,-27.45312 -18.59375,-57.28515 -41.64063,-78.00781 -2.53515,-15.375 -7.66797,-30.40234 -15.41797,-44.38672 C 469.02344,124.01563 512,174.94141 512,225.67578 Z m 0,0"
       inkscape:connector-curvature="0"
       style="fill:url(#linear8);stroke-width:1.48027289" />
  </g>
</svg>
