<?xml version="1.0" encoding="UTF-8" standalone="no"?>
<svg
   xmlns:dc="http://purl.org/dc/elements/1.1/"
   xmlns:cc="http://creativecommons.org/ns#"
   xmlns:rdf="http://www.w3.org/1999/02/22-rdf-syntax-ns#"
   xmlns:svg="http://www.w3.org/2000/svg"
   xmlns="http://www.w3.org/2000/svg"
   xmlns:xlink="http://www.w3.org/1999/xlink"
   xmlns:sodipodi="http://sodipodi.sourceforge.net/DTD/sodipodi-0.dtd"
   xmlns:inkscape="http://www.inkscape.org/namespaces/inkscape"
   height="511pt"
   viewBox="0 -18 511.99908 511"
   width="511pt"
   version="1.1"
   id="svg53"
   sodipodi:docname="License.svg"
   inkscape:version="0.92.2 (5c3e80d, 2017-08-06)">
  <metadata
     id="metadata59">
    <rdf:RDF>
      <cc:Work
         rdf:about="">
        <dc:format>image/svg+xml</dc:format>
        <dc:type
           rdf:resource="http://purl.org/dc/dcmitype/StillImage" />
      </cc:Work>
    </rdf:RDF>
  </metadata>
  <defs
     id="defs57" />
  <sodipodi:namedview
     pagecolor="#ffffff"
     bordercolor="#666666"
     borderopacity="1"
     objecttolerance="10"
     gridtolerance="10"
     guidetolerance="10"
     inkscape:pageopacity="0"
     inkscape:pageshadow="2"
     inkscape:window-width="1920"
     inkscape:window-height="1028"
     id="namedview55"
     showgrid="false"
     inkscape:zoom="0.34637965"
     inkscape:cx="-715.9774"
     inkscape:cy="340.66667"
     inkscape:window-x="-8"
     inkscape:window-y="-8"
     inkscape:window-maximized="1"
     inkscape:current-layer="svg53" />
  <linearGradient
     id="lg1">
    <stop
       offset="0"
       stop-color="#ffc738"
       id="stop2" />
    <stop
       offset="1"
       stop-color="#e97264"
       id="stop4" />
  </linearGradient>
  <linearGradient
     id="linear0"
     gradientTransform="matrix(0.58345823,0.58345823,-0.58345823,0.58345823,1008.5862,-11.104788)"
     gradientUnits="userSpaceOnUse"
     x1="-509.2914"
     x2="-303.8274"
     xlink:href="#lg1"
     y1="1025.782"
     y2="1057.3326" />
  <linearGradient
     id="linear1"
     gradientTransform="matrix(0.58345823,0.58345823,-0.58345823,0.58345823,1008.5862,-11.104788)"
     gradientUnits="userSpaceOnUse"
     x1="-452.8415"
     x2="-436.695"
     xlink:href="#lg1"
     y1="1030.3037"
     y2="1030.3037" />
  <linearGradient
     id="linear2"
     gradientTransform="matrix(-0.58345823,-0.58345823,-0.58345823,0.58345823,1906.4954,886.80428)"
     gradientUnits="userSpaceOnUse"
     x1="2006.2177"
     x2="2022.3643"
     xlink:href="#lg1"
     y1="970.4716"
     y2="970.4716" />
  <linearGradient
     id="lg2">
    <stop
       offset="0"
       stop-color="#e97264"
       stop-opacity="0"
       id="stop10" />
    <stop
       offset="1"
       stop-color="#b53759"
       id="stop12" />
  </linearGradient>
  <linearGradient
     id="linear3"
     gradientTransform="matrix(0.58345823,0.58345823,-0.58345823,0.58345823,1008.5862,-11.104788)"
     gradientUnits="userSpaceOnUse"
     x1="-359.0802"
     x2="-493.7622"
     xlink:href="#lg2"
     y1="978.6835"
     y2="844.0013" />
  <linearGradient
     id="linear4"
     gradientTransform="matrix(0.58345823,0.58345823,-0.58345823,0.58345823,1008.5862,-11.104788)"
     gradientUnits="userSpaceOnUse"
     x1="-506.8509"
     x2="-227.5925"
     xlink:href="#lg1"
     y1="713.1804"
     y2="992.4387" />
  <linearGradient
     id="linear5"
     gradientTransform="matrix(0.58345823,0.58345823,-0.58345823,0.58345823,1008.5862,-11.104788)"
     gradientUnits="userSpaceOnUse"
     x1="-390.0153"
     x2="-654.2774"
     xlink:href="#lg1"
     y1="830.016"
     y2="565.7538" />
  <radialGradient
     id="radial0"
     cx="-444.7682"
     cy="722.8245"
     gradientTransform="matrix(0.58345823,0.58345823,-0.58345823,0.58345823,1008.5862,-11.104788)"
     gradientUnits="userSpaceOnUse"
     r="60.0196">
    <stop
       offset="0"
       stop-color="#b53759"
       id="stop18" />
    <stop
       offset="1"
       stop-color="#e97264"
       stop-opacity="0"
       id="stop20" />
  </radialGradient>
  <linearGradient
     id="linear6"
     gradientUnits="userSpaceOnUse"
     x1="425.947627809"
     x2="374.5875806422"
     xlink:href="#lg2"
     y1="130.998867127"
     y2="79.6388199602"
     gradientTransform="matrix(0.82191918,0,0,0.82191918,45.587516,41.707387)" />
  <linearGradient
     id="lg3">
    <stop
       offset="0"
       stop-color="#00e7b2"
       id="stop24" />
    <stop
       offset=".4139"
       stop-color="#1fa999"
       id="stop26" />
    <stop
       offset="1"
       stop-color="#4f4a72"
       id="stop28" />
  </linearGradient>
  <linearGradient
     id="linear7"
     gradientUnits="userSpaceOnUse"
     x1="260.510819468"
     x2="260.510819468"
     xlink:href="#lg3"
     y1="81.5056129192"
     y2="282.1936364072"
     gradientTransform="matrix(0.82191918,0,0,0.82191918,45.587516,41.707387)" />
  <linearGradient
     id="linear8"
     gradientUnits="userSpaceOnUse"
     x1="448.3597848902"
     x2="254.762362096"
     xlink:href="#lg3"
     y1="344.9740994616"
     y2="151.3766766674"
     gradientTransform="matrix(0.82191918,0,0,0.82191918,45.587516,41.707387)" />
  <path
     style="fill:url(#linear0);stroke-width:1.21666467"
     inkscape:connector-curvature="0"
     d="m 116.26614,398.28867 7.7986,-7.7986 c 2.1447,-2.14148 5.15627,-3.1753 8.16141,-2.79324 6.35382,0.80266 11.75729,-4.60403 10.95785,-10.95785 -0.38207,-3.00514 0.65176,-6.01992 2.79324,-8.1614 l 7.7986,-7.7986 c 2.72581,-2.72582 7.14684,-2.72582 9.87266,0 2.72903,2.72903 7.15005,2.72903 9.87587,0 l 16.19438,-16.19116 c 2.72582,-2.72904 2.72582,-7.15006 0,-9.87588 -2.72582,-2.72581 -2.72582,-7.14684 0,-9.87587 l 14.89728,-14.89728 c 2.72582,-2.72582 7.14685,-2.72582 9.87588,0 2.72582,2.72581 7.14684,2.72581 9.87266,0 L 263.38325,270.9201 207.54733,215.08738 55.98351,366.65121 c -5.037466,5.03746 -8.055451,11.74766 -8.479253,18.85919 l -1.887845,31.55399 c -0.536175,8.93195 6.854677,16.32601 15.786627,15.78984 l 31.557202,-1.88784 c 7.111529,-0.42701 13.818519,-3.44179 18.855979,-8.47926 l 4.44992,-4.44992 c 2.72903,-2.72582 2.72903,-7.14685 0,-9.87587 -2.72581,-2.72582 -2.72581,-7.14685 0,-9.87267 z m 0,0"
     id="path33" />
  <path
     style="fill:url(#linear1);stroke-width:1.21666467"
     inkscape:connector-curvature="0"
     d="m 58.908386,419.56226 c -2.600604,-2.60382 -2.600604,-6.81937 0,-9.42318 L 227.54309,241.50759 c 2.6006,-2.60382 6.81935,-2.60382 9.41996,0 2.60061,2.60061 2.60061,6.81615 0,9.41997 l -168.6347,168.6347 c -2.600604,2.6006 -6.81936,2.6006 -9.419964,0 z m 0,0"
     id="path35" />
  <path
     style="fill:url(#linear2);stroke-width:1.21666467"
     inkscape:connector-curvature="0"
     d="m 78.669763,369.50224 c 2.600603,2.60061 6.819361,2.60061 9.419965,0 L 256.72442,200.86754 c 2.60061,-2.6006 2.60061,-6.81936 0,-9.41997 -2.60381,-2.6006 -6.81935,-2.6006 -9.42317,0 L 78.669763,360.08228 c -2.603814,2.6006 -2.603814,6.81935 0,9.41996 z m 0,0"
     id="path37" />
  <path
     style="fill:url(#linear3);stroke-width:1.21666467"
     inkscape:connector-curvature="0"
     d="m 192.71747,321.83735 11.89856,-11.89856 c 2.72582,-2.72582 7.14685,-2.72582 9.87588,0 2.72582,2.72902 7.14684,2.72902 9.87266,0 l 39.01868,-39.01548 -55.83592,-55.83593 -14.82986,14.82987 z m 0,0"
     id="path39" />
  <path
     style="fill:url(#linear4);stroke-width:1.21666467"
     inkscape:connector-curvature="0"
     d="m 377.30254,101.16489 c -44.48959,-44.492795 -116.62905,-44.492795 -161.12184,0 -44.48959,44.4928 -44.49281,116.63226 0,161.12184 44.49279,44.49281 116.63225,44.49281 161.12184,0 44.4928,-44.48958 44.4928,-116.62904 0,-161.12184 z m -72.80406,72.80406 c -12.61133,-12.61453 -12.62096,-33.06298 0,-45.68393 12.61453,-12.61454 33.06298,-12.60491 45.67751,0.007 12.61133,12.61454 12.62096,33.06298 0.007,45.67752 -12.62096,12.62095 -33.0694,12.61453 -45.68394,0 z m 0,0"
     id="path41" />
  <path
     style="fill:url(#linear5);stroke-width:1.21666467"
     inkscape:connector-curvature="0"
     d="m 363.22075,115.24668 c -36.71667,-36.716672 -96.2416,-36.716672 -132.95827,0 -36.71667,36.71988 -36.71667,96.2416 0,132.95827 36.71667,36.71988 96.2416,36.71988 132.95827,0 36.71667,-36.71667 36.71667,-96.23839 0,-132.95827 z m -58.72227,58.72227 c -12.61133,-12.61453 -12.62096,-33.06298 0,-45.68393 12.61453,-12.61454 33.06298,-12.60491 45.67751,0.007 12.61133,12.61454 12.62096,33.06298 0.007,45.67752 -12.62096,12.62095 -33.0694,12.61453 -45.68394,0 z m 0,0"
     id="path43" />
  <path
     style="fill:url(#radial0);stroke-width:1.21666467"
     inkscape:connector-curvature="0"
     d="m 362.35389,116.11355 c -19.33758,-19.337578 -50.69251,-19.35042 -70.03009,-0.0129 -19.35363,19.35363 -19.34079,50.70856 0,70.04614 19.33758,19.34078 50.69251,19.35363 70.04292,0 19.34079,-19.33758 19.32795,-50.69251 -0.0128,-70.03329 z m -57.85541,57.8554 c -12.61133,-12.61453 -12.62096,-33.06298 0,-45.68393 12.61453,-12.61454 33.06298,-12.60491 45.67751,0.007 12.61133,12.61454 12.62096,33.06298 0.007,45.67752 -12.62096,12.62095 -33.0694,12.61453 -45.68394,0 z m 0,0"
     id="path45" />
  <path
     style="fill:url(#linear6);stroke-width:1.21666467"
     inkscape:connector-curvature="0"
     d="m 351.1135,129.28031 c 3.39042,3.67937 5.76949,7.95592 7.134,12.47327 l 51.80338,51.80659 c 3.38079,-32.54608 -7.22069,-66.26082 -31.798,-91.41925 z m 0,0"
     id="path47" />
</svg>
