<?xml version="1.0" encoding="UTF-8" standalone="no"?>
<svg
   xmlns:dc="http://purl.org/dc/elements/1.1/"
   xmlns:cc="http://creativecommons.org/ns#"
   xmlns:rdf="http://www.w3.org/1999/02/22-rdf-syntax-ns#"
   xmlns:svg="http://www.w3.org/2000/svg"
   xmlns="http://www.w3.org/2000/svg"
   xmlns:sodipodi="http://sodipodi.sourceforge.net/DTD/sodipodi-0.dtd"
   xmlns:inkscape="http://www.inkscape.org/namespaces/inkscape"
   version="1.1"
   viewBox="0 0 24 24"
   enable-background="new 0 0 24 24"
   width="512px"
   height="512px"
   id="svg4"
   sodipodi:docname="Add.svg"
   inkscape:version="0.92.2 (5c3e80d, 2017-08-06)">
  <metadata
     id="metadata10">
    <rdf:RDF>
      <cc:Work
         rdf:about="">
        <dc:format>image/svg+xml</dc:format>
        <dc:type
           rdf:resource="http://purl.org/dc/dcmitype/StillImage" />
      </cc:Work>
    </rdf:RDF>
  </metadata>
  <defs
     id="defs8" />
  <sodipodi:namedview
     pagecolor="#ffffff"
     bordercolor="#666666"
     borderopacity="1"
     objecttolerance="10"
     gridtolerance="10"
     guidetolerance="10"
     inkscape:pageopacity="0"
     inkscape:pageshadow="2"
     inkscape:window-width="1680"
     inkscape:window-height="998"
     id="namedview6"
     showgrid="false"
     inkscape:zoom="0.4609375"
     inkscape:cx="-520.67797"
     inkscape:cy="256"
     inkscape:window-x="-8"
     inkscape:window-y="-8"
     inkscape:window-maximized="1"
     inkscape:current-layer="svg4" />
  <path
     d="m 20.354873,10.480932 h -6.456038 c -0.22786,0 -0.379767,-0.151906 -0.379767,-0.379767 V 3.6451273 c 0,-0.4557204 -0.303813,-0.7595339 -0.759534,-0.7595339 h -1.519068 c -0.45572,0 -0.759534,0.3038135 -0.759534,0.7595339 v 6.4560377 c 0,0.227861 -0.151906,0.379767 -0.379767,0.379767 H 3.6451273 c -0.4557204,0 -0.7595339,0.303814 -0.7595339,0.759534 v 1.519068 c 0,0.455721 0.3038135,0.759534 0.7595339,0.759534 h 6.4560377 c 0.227861,0 0.379767,0.151907 0.379767,0.379767 v 6.456038 c 0,0.45572 0.303814,0.759534 0.759534,0.759534 h 1.519068 c 0.455721,0 0.759534,-0.303814 0.759534,-0.759534 v -6.456038 c 0,-0.22786 0.151907,-0.379767 0.379767,-0.379767 h 6.456038 c 0.45572,0 0.759534,-0.303813 0.759534,-0.759534 v -1.519068 c 0,-0.45572 -0.303814,-0.759534 -0.759534,-0.759534 z"
     id="path2"
     inkscape:connector-curvature="0"
     style="fill:#335777;stroke-width:0.99999994" />
</svg>
