<?xml version="1.0" encoding="UTF-8" standalone="no"?>
<svg
   xmlns:dc="http://purl.org/dc/elements/1.1/"
   xmlns:cc="http://creativecommons.org/ns#"
   xmlns:rdf="http://www.w3.org/1999/02/22-rdf-syntax-ns#"
   xmlns:svg="http://www.w3.org/2000/svg"
   xmlns="http://www.w3.org/2000/svg"
   xmlns:sodipodi="http://sodipodi.sourceforge.net/DTD/sodipodi-0.dtd"
   xmlns:inkscape="http://www.inkscape.org/namespaces/inkscape"
   version="1.1"
   viewBox="0 0 24 24"
   enable-background="new 0 0 24 24"
   width="512px"
   height="512px"
   id="svg4"
   sodipodi:docname="Add.svg"
   inkscape:version="0.92.2 (5c3e80d, 2017-08-06)">
  <metadata
     id="metadata10">
    <rdf:RDF>
      <cc:Work
         rdf:about="">
        <dc:format>image/svg+xml</dc:format>
        <dc:type
           rdf:resource="http://purl.org/dc/dcmitype/StillImage" />
      </cc:Work>
    </rdf:RDF>
  </metadata>
  <defs
     id="defs8" />
  <sodipodi:namedview
     pagecolor="#ffffff"
     bordercolor="#666666"
     borderopacity="1"
     objecttolerance="10"
     gridtolerance="10"
     guidetolerance="10"
     inkscape:pageopacity="0"
     inkscape:pageshadow="2"
     inkscape:window-width="1920"
     inkscape:window-height="1148"
     id="namedview6"
     showgrid="false"
     inkscape:zoom="0.4609375"
     inkscape:cx="-46.644068"
     inkscape:cy="256"
     inkscape:window-x="-8"
     inkscape:window-y="-8"
     inkscape:window-maximized="1"
     inkscape:current-layer="svg4" />
  <path
     d="M 22.3125,10.125 H 14.34375 C 14.0625,10.125 13.875,9.9375 13.875,9.65625 V 1.6875 C 13.875,1.125 13.5,0.75 12.9375,0.75 h -1.875 C 10.5,0.75 10.125,1.125 10.125,1.6875 V 9.65625 C 10.125,9.9375 9.9375,10.125 9.65625,10.125 H 1.6875 C 1.125,10.125 0.75,10.5 0.75,11.0625 v 1.875 c 0,0.5625 0.375,0.9375 0.9375,0.9375 h 7.96875 c 0.28125,0 0.46875,0.1875 0.46875,0.46875 v 7.96875 c 0,0.5625 0.375,0.9375 0.9375,0.9375 h 1.875 c 0.5625,0 0.9375,-0.375 0.9375,-0.9375 v -7.96875 c 0,-0.28125 0.1875,-0.46875 0.46875,-0.46875 h 7.96875 c 0.5625,0 0.9375,-0.375 0.9375,-0.9375 v -1.875 C 23.25,10.5 22.875,10.125 22.3125,10.125 Z"
     id="path2"
     inkscape:connector-curvature="0"
     style="fill:#335777;stroke-width:1" />
</svg>
