<?xml version="1.0" encoding="UTF-8" standalone="no"?>
<!-- Generator: Adobe Illustrator 18.0.0, SVG Export Plug-In . SVG Version: 6.00 Build 0)  -->

<svg
   xmlns:dc="http://purl.org/dc/elements/1.1/"
   xmlns:cc="http://creativecommons.org/ns#"
   xmlns:rdf="http://www.w3.org/1999/02/22-rdf-syntax-ns#"
   xmlns:svg="http://www.w3.org/2000/svg"
   xmlns="http://www.w3.org/2000/svg"
   xmlns:sodipodi="http://sodipodi.sourceforge.net/DTD/sodipodi-0.dtd"
   xmlns:inkscape="http://www.inkscape.org/namespaces/inkscape"
   version="1.1"
   id="Capa_1"
   x="0px"
   y="0px"
   viewBox="0 0 380.267 380.267"
   style="enable-background:new 0 0 380.267 380.267;"
   xml:space="preserve"
   width="512px"
   height="512px"
   sodipodi:docname="Clear.svg"
   inkscape:version="0.92.2 (5c3e80d, 2017-08-06)"><metadata
     id="metadata39"><rdf:RDF><cc:Work
         rdf:about=""><dc:format>image/svg+xml</dc:format><dc:type
           rdf:resource="http://purl.org/dc/dcmitype/StillImage" /></cc:Work></rdf:RDF></metadata><defs
     id="defs37" /><sodipodi:namedview
     pagecolor="#ffffff"
     bordercolor="#666666"
     borderopacity="1"
     objecttolerance="10"
     gridtolerance="10"
     guidetolerance="10"
     inkscape:pageopacity="0"
     inkscape:pageshadow="2"
     inkscape:window-width="1920"
     inkscape:window-height="1148"
     id="namedview35"
     showgrid="false"
     inkscape:zoom="0.4609375"
     inkscape:cx="-46.644068"
     inkscape:cy="256"
     inkscape:window-x="-8"
     inkscape:window-y="-8"
     inkscape:window-maximized="1"
     inkscape:current-layer="Capa_1" /><path
     d="M 303.73645,30.27808 H 248.99747 C 240.57047,18.879925 226.66848,11.883344 211.42648,11.883344 H 168.8385 c -15.24099,0 -29.14299,6.995643 -37.57098,18.394736 H 76.528546 c -25.048989,0 -45.427981,19.1063 -45.427981,42.591675 v 17.419731 c 0,9.59628 8.327997,17.403804 18.563992,17.403804 h 13.207995 l 11.962995,226.80247 c 1.205999,19.00318 18.077992,33.8879 38.408983,33.8879 h 153.77793 c 20.33199,0 37.20399,-14.90535 38.41498,-33.97884 l 11.958,-226.71247 h 13.207 c 10.23599,0 18.564,-7.807524 18.564,-17.403804 V 72.869755 C 349.16544,49.38438 328.78644,30.27808 303.73645,30.27808 Z M 166.4355,287.07501 c 0,8.89877 -7.72199,16.13723 -17.21399,16.13723 -9.492,0 -17.21299,-7.23939 -17.21299,-16.13723 V 142.79619 c 0,-8.89783 7.72199,-16.13723 17.21299,-16.13723 9.492,0 17.21399,7.24033 17.21399,16.13723 z m 81.82197,0 c 0,8.89877 -7.722,16.13723 -17.21399,16.13723 -9.491,0 -17.213,-7.23939 -17.213,-16.13723 V 142.79619 c 0,-8.89783 7.723,-16.13723 17.213,-16.13723 9.49299,0 17.21399,7.24033 17.21399,16.13723 z M 321.10044,81.383215 H 59.165553 v -8.51346 c 0,-8.977524 7.788997,-16.281606 17.362993,-16.281606 h 62.985964 c 5.681,0 10.801,-3.210946 12.97,-8.132834 2.746,-6.233454 9.166,-10.261902 16.35499,-10.261902 h 42.58798 c 7.189,0 13.608,4.027511 16.354,10.260027 2.168,4.922826 7.28899,8.134709 12.96999,8.134709 h 62.98598 c 9.57399,0 17.36399,7.304082 17.36399,16.281606 v 8.51346 z"
     id="path2"
     inkscape:connector-curvature="0"
     style="fill:#5A5A5A;stroke-width:1" /><g
     id="g4" /><g
     id="g6" /><g
     id="g8" /><g
     id="g10" /><g
     id="g12" /><g
     id="g14" /><g
     id="g16" /><g
     id="g18" /><g
     id="g20" /><g
     id="g22" /><g
     id="g24" /><g
     id="g26" /><g
     id="g28" /><g
     id="g30" /><g
     id="g32" /></svg>