<?xml version="1.0" encoding="UTF-8" standalone="no"?>
<!-- Generator: Adobe Illustrator 19.0.0, SVG Export Plug-In . SVG Version: 6.00 Build 0)  -->

<svg
   xmlns:dc="http://purl.org/dc/elements/1.1/"
   xmlns:cc="http://creativecommons.org/ns#"
   xmlns:rdf="http://www.w3.org/1999/02/22-rdf-syntax-ns#"
   xmlns:svg="http://www.w3.org/2000/svg"
   xmlns="http://www.w3.org/2000/svg"
   xmlns:sodipodi="http://sodipodi.sourceforge.net/DTD/sodipodi-0.dtd"
   xmlns:inkscape="http://www.inkscape.org/namespaces/inkscape"
   version="1.1"
   id="Capa_1"
   x="0px"
   y="0px"
   viewBox="0 0 512 512"
   style="enable-background:new 0 0 512 512;"
   xml:space="preserve"
   width="512px"
   height="512px"
   sodipodi:docname="Cube.svg"
   inkscape:version="0.92.2 (5c3e80d, 2017-08-06)"><metadata
     id="metadata67"><rdf:RDF><cc:Work
         rdf:about=""><dc:format>image/svg+xml</dc:format><dc:type
           rdf:resource="http://purl.org/dc/dcmitype/StillImage" /></cc:Work></rdf:RDF></metadata><defs
     id="defs65" /><sodipodi:namedview
     pagecolor="#ffffff"
     bordercolor="#666666"
     borderopacity="1"
     objecttolerance="10"
     gridtolerance="10"
     guidetolerance="10"
     inkscape:pageopacity="0"
     inkscape:pageshadow="2"
     inkscape:window-width="1920"
     inkscape:window-height="1148"
     id="namedview63"
     showgrid="false"
     inkscape:zoom="0.4609375"
     inkscape:cx="-46.644068"
     inkscape:cy="256"
     inkscape:window-x="-8"
     inkscape:window-y="-8"
     inkscape:window-maximized="1"
     inkscape:current-layer="Capa_1" /><g
     id="g6"
     transform="matrix(0.93776375,0,0,0.9375,213.7439,213.35547)"
     style="stroke-width:1.06651664"><g
       id="g4"
       style="stroke-width:1.06651664"><path
         d="M 75.051,0 H 15.068 C 6.787,0 0.073,6.714 0.073,14.996 v 60.983 c 0,8.282 6.713,14.996 14.996,14.996 8.282,0 14.996,-6.714 14.996,-14.996 V 29.992 h 44.987 c 8.282,0 14.996,-6.714 14.996,-14.996 C 90.047,6.714 83.333,0 75.051,0 Z"
         id="path2"
         inkscape:connector-curvature="0"
         style="fill:#335777;stroke-width:1.06651664" /></g></g><g
     id="g12"
     transform="matrix(0.93776375,0,0,0.9375,-181.87987,213.35547)"
     style="stroke-width:1.06651664"><g
       id="g10"
       style="stroke-width:1.06651664"><path
         d="m 496.932,0 h -59.983 c -8.282,0 -14.996,6.714 -14.996,14.996 0,8.282 6.713,14.996 14.996,14.996 h 44.987 v 45.987 c 0,8.282 6.714,14.996 14.996,14.996 8.282,0 14.996,-6.714 14.996,-14.996 V 14.996 C 511.928,6.714 505.214,0 496.932,0 Z"
         id="path8"
         inkscape:connector-curvature="0"
         style="fill:#335777;stroke-width:1.06651664" /></g></g><g
     id="g18"
     transform="matrix(0.93776375,0,0,0.9375,213.74483,-181.22047)"
     style="stroke-width:1.06651664"><g
       id="g16"
       style="stroke-width:1.06651664"><path
         d="M 75.051,481.864 H 30.064 v -45.987 c 0,-8.282 -6.714,-14.996 -14.996,-14.996 -8.282,0 -14.996,6.714 -14.996,14.996 v 60.983 c 0,8.282 6.713,14.996 14.996,14.996 h 59.983 c 8.282,0 14.996,-6.714 14.996,-14.996 0,-8.282 -6.714,-14.996 -14.996,-14.996 z"
         id="path14"
         inkscape:connector-curvature="0"
         style="fill:#335777;stroke-width:1.06651664" /></g></g><g
     id="g24"
     transform="matrix(0.93776375,0,0,0.9375,-181.87987,-181.22047)"
     style="stroke-width:1.06651664"><g
       id="g22"
       style="stroke-width:1.06651664"><path
         d="m 496.932,420.881 c -8.282,0 -14.996,6.714 -14.996,14.996 v 45.987 h -44.987 c -8.282,0 -14.996,6.714 -14.996,14.996 0,8.282 6.714,14.996 14.996,14.996 h 59.983 c 8.282,0 14.996,-6.714 14.996,-14.996 v -60.983 c 0,-8.282 -6.714,-14.996 -14.996,-14.996 z"
         id="path20"
         inkscape:connector-curvature="0"
         style="fill:#335777;stroke-width:1.06651664" /></g></g><g
     id="g30"
     transform="matrix(0.93776375,0,0,0.9375,15.972804,15.999766)"
     style="stroke-width:1.06651664"><g
       id="g28"
       style="stroke-width:1.06651664"><path
         d="M 472.37,123.023 263.517,2.021 c -4.649,-2.694 -10.386,-2.694 -15.035,0 L 39.544,123.022 c -4.606,2.669 -7.481,7.638 -7.481,12.966 0,0.03 0.003,0.06 0.003,0.089 v 239.924 c 0,5.379 2.923,10.413 7.63,13.063 L 248.483,509.98 c 2.249,1.303 4.925,2.02 7.518,2.02 2.707,0 5.352,-0.766 7.518,-2.02 L 472.221,389.063 c 0.035,-0.02 0.069,-0.04 0.104,-0.06 4.837,-3.49 7.444,-6.423 7.517,-12.821 0.001,-0.06 0.006,-0.119 0.006,-0.179 V 136.079 c 0,-0.03 0.003,-0.06 0.003,-0.089 0,-5.333 -2.877,-10.303 -7.481,-12.967 z M 241.004,470.986 77.178,376.069 203.477,303.64 c 7.185,-4.12 9.669,-13.284 5.548,-20.468 -4.119,-7.185 -13.283,-9.668 -20.468,-5.548 L 62.055,350.116 V 161.909 l 178.949,102.77 V 470.986 Z M 256,238.706 77.156,135.945 256,32.327 434.844,135.945 Z m 193.954,111.41 -126.511,-72.493 c -7.184,-4.119 -16.348,-1.637 -20.468,5.548 -4.121,7.185 -1.637,16.348 5.548,20.468 l 126.299,72.428 -163.827,94.917 V 264.679 l 178.958,-102.77 v 188.207 z"
         id="path26"
         inkscape:connector-curvature="0"
         style="fill:#335777;stroke-width:1.06651664" /></g></g><g
     id="g32" /><g
     id="g34" /><g
     id="g36" /><g
     id="g38" /><g
     id="g40" /><g
     id="g42" /><g
     id="g44" /><g
     id="g46" /><g
     id="g48" /><g
     id="g50" /><g
     id="g52" /><g
     id="g54" /><g
     id="g56" /><g
     id="g58" /><g
     id="g60" /></svg>