<?xml version="1.0" encoding="iso-8859-1"?>
<!-- Generator: Adobe Illustrator 18.1.1, SVG Export Plug-In . SVG Version: 6.00 Build 0)  -->
<svg version="1.1" id="Capa_1" xmlns="http://www.w3.org/2000/svg" xmlns:xlink="http://www.w3.org/1999/xlink" x="0px" y="0px"
	 viewBox="0 0 352.294 352.294" style="enable-background:new 0 0 352.294 352.294;" xml:space="preserve">
<g>
	<g>
		<g>
			<path style="fill:#335777;" d="M339.577,313.459H12.717C5.695,313.459,0,307.764,0,300.748V51.546
				c0-7.022,5.695-12.711,12.717-12.711h326.866c7.022,0,12.711,5.695,12.711,12.711v249.202
				C352.288,307.769,346.599,313.459,339.577,313.459z M25.428,288.036h301.438V64.257H25.428V288.036z"/>
		</g>
		<g>
			<g>
				<path style="fill:#335777;" d="M81.863,173.316c-22.197,0-40.255-18.058-40.255-40.255s18.058-40.255,40.255-40.255
					s40.255,18.058,40.255,40.255S104.066,173.316,81.863,173.316z M81.863,118.229c-8.175,0-14.832,6.652-14.832,14.832
					s6.657,14.832,14.832,14.832s14.832-6.652,14.832-14.832S90.038,118.229,81.863,118.229z"/>
			</g>
			<g>
				<path style="fill:#335777;" d="M109.407,259.476H54.325c-7.022,0-12.717-5.695-12.717-12.711v-55.087
					c0-7.016,5.695-12.711,12.717-12.711h55.081c7.022,0,12.717,5.695,12.717,12.711v55.081
					C122.123,253.781,116.429,259.476,109.407,259.476z M67.036,234.054h29.659v-29.665H67.036
					C67.036,204.389,67.036,234.054,67.036,234.054z"/>
			</g>
			<g>
				<path style="fill:#335777;" d="M297.968,124.587H176.906c-7.022,0-12.711-5.695-12.711-12.711
					c0-7.022,5.689-12.711,12.711-12.711h121.063c7.022,0,12.711,5.695,12.711,12.711
					C310.679,118.892,304.99,124.587,297.968,124.587z"/>
			</g>
			<g>
				<path style="fill:#335777;" d="M297.968,166.957H176.906c-7.022,0-12.711-5.695-12.711-12.711
					c0-7.022,5.689-12.711,12.711-12.711h121.063c7.022,0,12.711,5.695,12.711,12.711
					C310.679,161.268,304.99,166.957,297.968,166.957z"/>
			</g>
			<g>
				<path style="fill:#335777;" d="M297.968,209.333H176.906c-7.022,0-12.711-5.695-12.711-12.711s5.689-12.711,12.711-12.711
					h121.063c7.022,0,12.711,5.695,12.711,12.711C310.679,203.639,304.99,209.333,297.968,209.333z"/>
			</g>
			<g>
				<path style="fill:#335777;" d="M297.968,251.704H176.906c-7.022,0-12.711-5.695-12.711-12.711
					c0-7.016,5.689-12.711,12.711-12.711h121.063c7.022,0,12.711,5.695,12.711,12.711
					C310.679,246.014,304.99,251.704,297.968,251.704z"/>
			</g>
		</g>
	</g>
</g>
<g>
</g>
<g>
</g>
<g>
</g>
<g>
</g>
<g>
</g>
<g>
</g>
<g>
</g>
<g>
</g>
<g>
</g>
<g>
</g>
<g>
</g>
<g>
</g>
<g>
</g>
<g>
</g>
<g>
</g>
</svg>
