<?xml version="1.0" encoding="UTF-8" standalone="no"?>
<!-- Generator: Adobe Illustrator 18.1.1, SVG Export Plug-In . SVG Version: 6.00 Build 0)  -->

<svg
   xmlns:dc="http://purl.org/dc/elements/1.1/"
   xmlns:cc="http://creativecommons.org/ns#"
   xmlns:rdf="http://www.w3.org/1999/02/22-rdf-syntax-ns#"
   xmlns:svg="http://www.w3.org/2000/svg"
   xmlns="http://www.w3.org/2000/svg"
   xmlns:sodipodi="http://sodipodi.sourceforge.net/DTD/sodipodi-0.dtd"
   xmlns:inkscape="http://www.inkscape.org/namespaces/inkscape"
   version="1.1"
   id="Capa_1"
   x="0px"
   y="0px"
   viewBox="0 0 478.895 478.895"
   style="enable-background:new 0 0 478.895 478.895;"
   xml:space="preserve"
   width="512px"
   height="512px"
   sodipodi:docname="Environment.svg"
   inkscape:version="0.92.2 (5c3e80d, 2017-08-06)"><metadata
     id="metadata61"><rdf:RDF><cc:Work
         rdf:about=""><dc:format>image/svg+xml</dc:format><dc:type
           rdf:resource="http://purl.org/dc/dcmitype/StillImage" /></cc:Work></rdf:RDF></metadata><defs
     id="defs59" /><sodipodi:namedview
     pagecolor="#ffffff"
     bordercolor="#666666"
     borderopacity="1"
     objecttolerance="10"
     gridtolerance="10"
     guidetolerance="10"
     inkscape:pageopacity="0"
     inkscape:pageshadow="2"
     inkscape:window-width="1920"
     inkscape:window-height="1148"
     id="namedview57"
     showgrid="false"
     inkscape:zoom="0.4609375"
     inkscape:cx="-46.644068"
     inkscape:cy="256"
     inkscape:window-x="-8"
     inkscape:window-y="-8"
     inkscape:window-maximized="1"
     inkscape:current-layer="Capa_1" /><g
     id="g24"
     transform="matrix(0.93831312,0,0,0.9375,14.7703,14.965469)"
     style="stroke-width:1.06620431"><g
       id="g22"
       style="stroke-width:1.06620431"><path
         d="m 478.688,225.517 c -2.229,-38.86 -13.725,-75.232 -32.313,-106.95 l -86.771,150.292 z"
         id="path2"
         inkscape:connector-curvature="0"
         style="fill:#757575;stroke-width:1.06620431" /><path
         d="m 431.577,382.65 c 22.177,-29.674 37.619,-64.668 44.099,-102.715 l -163.152,59.383 z"
         id="path4"
         inkscape:connector-curvature="0"
         style="fill:#757575;stroke-width:1.06620431" /><path
         d="m 294.424,472.593 c 37.381,-8.748 71.382,-26.26 99.742,-50.24 L 231.165,363.029 Z"
         id="path6"
         inkscape:connector-curvature="0"
         style="fill:#757575;stroke-width:1.06620431" /><path
         d="M 413.678,74.991 C 388.043,47.874 356.139,26.752 320.285,13.931 l 30.098,170.692 z"
         id="path8"
         inkscape:connector-curvature="0"
         style="fill:#757575;stroke-width:1.06620431" /><path
         d="m 19.575,333.91 c 14.948,34.777 37.896,65.299 66.53,89.258 l 30.023,-170.277 z"
         id="path10"
         inkscape:connector-curvature="0"
         style="fill:#757575;stroke-width:1.06620431" /><circle
         cx="238.39999"
         cy="239.71899"
         r="86.287003"
         id="circle12"
         style="fill:#757575;stroke-width:1.06620431" /><path
         d="m 131.683,453.213 c 32.443,16.42 69.123,25.682 107.971,25.682 0.184,0 0.365,-0.008 0.549,-0.008 L 153.604,328.895 Z"
         id="path14"
         inkscape:connector-curvature="0"
         style="fill:#757575;stroke-width:1.06620431" /><path
         d="M 267.232,1.59 C 258.18,0.552 248.983,0 239.654,0 210.46,0 182.489,5.232 156.62,14.797 l 132.553,111.225 z"
         id="path16"
         inkscape:connector-curvature="0"
         style="fill:#757575;stroke-width:1.06620431" /><path
         d="m 10.277,170.581 c -6.539,21.812 -10.069,44.925 -10.069,68.866 0,14.399 1.272,28.499 3.708,42.198 L 136.273,170.582 Z"
         id="path18"
         inkscape:connector-curvature="0"
         style="fill:#757575;stroke-width:1.06620431" /><path
         d="M 108.015,39.421 C 76.708,60.067 50.525,87.852 31.81,120.476 h 172.805 z"
         id="path20"
         inkscape:connector-curvature="0"
         style="fill:#757575;stroke-width:1.06620431" /></g></g><g
     id="g26" /><g
     id="g28" /><g
     id="g30" /><g
     id="g32" /><g
     id="g34" /><g
     id="g36" /><g
     id="g38" /><g
     id="g40" /><g
     id="g42" /><g
     id="g44" /><g
     id="g46" /><g
     id="g48" /><g
     id="g50" /><g
     id="g52" /><g
     id="g54" /></svg>