<?xml version="1.0" encoding="UTF-8" standalone="no"?>
<!-- Generator: Adobe Illustrator 19.0.0, SVG Export Plug-In . SVG Version: 6.00 Build 0)  -->

<svg
   xmlns:dc="http://purl.org/dc/elements/1.1/"
   xmlns:cc="http://creativecommons.org/ns#"
   xmlns:rdf="http://www.w3.org/1999/02/22-rdf-syntax-ns#"
   xmlns:svg="http://www.w3.org/2000/svg"
   xmlns="http://www.w3.org/2000/svg"
   xmlns:sodipodi="http://sodipodi.sourceforge.net/DTD/sodipodi-0.dtd"
   xmlns:inkscape="http://www.inkscape.org/namespaces/inkscape"
   version="1.1"
   id="Capa_1"
   x="0px"
   y="0px"
   viewBox="0 0 485.811 485.811"
   style="enable-background:new 0 0 485.811 485.811;"
   xml:space="preserve"
   width="512px"
   height="512px"
   sodipodi:docname="Error.svg"
   inkscape:version="0.92.2 (5c3e80d, 2017-08-06)"><metadata
     id="metadata41"><rdf:RDF><cc:Work
         rdf:about=""><dc:format>image/svg+xml</dc:format><dc:type
           rdf:resource="http://purl.org/dc/dcmitype/StillImage" /></cc:Work></rdf:RDF></metadata><defs
     id="defs39" /><sodipodi:namedview
     pagecolor="#ffffff"
     bordercolor="#666666"
     borderopacity="1"
     objecttolerance="10"
     gridtolerance="10"
     guidetolerance="10"
     inkscape:pageopacity="0"
     inkscape:pageshadow="2"
     inkscape:window-width="1920"
     inkscape:window-height="1148"
     id="namedview37"
     showgrid="false"
     inkscape:zoom="0.4609375"
     inkscape:cx="-46.644068"
     inkscape:cy="256"
     inkscape:window-x="-8"
     inkscape:window-y="-8"
     inkscape:window-maximized="1"
     inkscape:current-layer="Capa_1" /><g
     id="g4"
     style="fill:#a20032;fill-opacity:1;stroke-width:1.06090021"
     transform="matrix(0.93750025,0,0,0.94771881,15.181852,12.699389)"><path
       d="m 476.099,353.968 -170.2,-294.8 c -27.8,-48.7 -98.1,-48.7 -125.8,0 l -170.3,294.8 c -27.8,48.7 6.8,109.2 62.9,109.2 h 339.9 c 56.1,0 91.3,-61.1 63.5,-109.2 z m -233.2,43.8 c -14.8,0 -27.1,-12.3 -27.1,-27.1 0,-14.8 12.3,-27.1 27.1,-27.1 14.8,0 27.1,12.3 26.5,27.8 0.7,14.1 -12.3,26.4 -26.5,26.4 z m 24.7,-175.2 c -1.2,21 -2.5,41.9 -3.7,62.9 -0.6,6.8 -0.6,13 -0.6,19.7 -0.6,11.1 -9.3,19.7 -20.4,19.7 -11.1,0 -19.7,-8 -20.4,-19.1 -1.8,-32.7 -3.7,-64.8 -5.5,-97.5 -0.6,-8.6 -1.2,-17.3 -1.9,-25.9 0,-14.2 8,-25.9 21,-29.6 13,-3.1 25.9,3.1 31.5,15.4 1.9,4.3 2.5,8.6 2.5,13.6 -0.6,13.7 -1.9,27.3 -2.5,40.8 z"
       id="path2"
       style="fill:#a20032;fill-opacity:1;stroke-width:1.06090021"
       inkscape:connector-curvature="0" /></g><g
     id="g6" /><g
     id="g8" /><g
     id="g10" /><g
     id="g12" /><g
     id="g14" /><g
     id="g16" /><g
     id="g18" /><g
     id="g20" /><g
     id="g22" /><g
     id="g24" /><g
     id="g26" /><g
     id="g28" /><g
     id="g30" /><g
     id="g32" /><g
     id="g34" /></svg>