<?xml version="1.0" encoding="UTF-8" standalone="no"?>
<!-- Generator: Adobe Illustrator 18.0.0, SVG Export Plug-In . SVG Version: 6.00 Build 0)  -->

<svg
   xmlns:dc="http://purl.org/dc/elements/1.1/"
   xmlns:cc="http://creativecommons.org/ns#"
   xmlns:rdf="http://www.w3.org/1999/02/22-rdf-syntax-ns#"
   xmlns:svg="http://www.w3.org/2000/svg"
   xmlns="http://www.w3.org/2000/svg"
   xmlns:sodipodi="http://sodipodi.sourceforge.net/DTD/sodipodi-0.dtd"
   xmlns:inkscape="http://www.inkscape.org/namespaces/inkscape"
   version="1.1"
   id="Capa_1"
   x="0px"
   y="0px"
   viewBox="0 0 330 330"
   style="enable-background:new 0 0 330 330;"
   xml:space="preserve"
   width="512px"
   height="512px"
   sodipodi:docname="Exit.svg"
   inkscape:version="0.92.2 (5c3e80d, 2017-08-06)"><metadata
     id="metadata43"><rdf:RDF><cc:Work
         rdf:about=""><dc:format>image/svg+xml</dc:format><dc:type
           rdf:resource="http://purl.org/dc/dcmitype/StillImage" /></cc:Work></rdf:RDF></metadata><defs
     id="defs41" /><sodipodi:namedview
     pagecolor="#ffffff"
     bordercolor="#666666"
     borderopacity="1"
     objecttolerance="10"
     gridtolerance="10"
     guidetolerance="10"
     inkscape:pageopacity="0"
     inkscape:pageshadow="2"
     inkscape:window-width="1920"
     inkscape:window-height="1148"
     id="namedview39"
     showgrid="false"
     inkscape:zoom="0.4609375"
     inkscape:cx="-46.644068"
     inkscape:cy="256"
     inkscape:window-x="-8"
     inkscape:window-y="-8"
     inkscape:window-maximized="1"
     inkscape:current-layer="Capa_1" /><g
     id="g6"
     transform="matrix(1,0,0,0.9375,2.5e-4,10.3125)"
     style="stroke-width:1.03279555"><path
       d="m 245.608,84.392 c -5.856,-5.857 -15.355,-5.858 -21.213,-10e-4 -5.857,5.858 -5.858,15.355 0,21.213 L 268.789,150 H 85.002 c -8.284,0 -15,6.716 -15,15 0,8.284 6.716,15 15,15 h 183.785 l -44.392,44.392 c -5.858,5.858 -5.858,15.355 0,21.213 2.929,2.929 6.768,4.393 10.607,4.393 3.839,0 7.678,-1.464 10.606,-4.393 l 69.998,-69.998 c 5.858,-5.857 5.858,-15.355 0,-21.213 z"
       id="path2"
       inkscape:connector-curvature="0"
       style="fill:#757575;stroke-width:1.0666666" /><path
       d="m 155,330 c 8.284,0 15,-6.716 15,-15 0,-8.284 -6.716,-15 -15,-15 H 40 V 30 h 115 c 8.284,0 15,-6.716 15,-15 C 170,6.716 163.284,0 155,0 H 25 C 16.716,0 10,6.716 10,15 v 300 c 0,8.284 6.716,15 15,15 z"
       id="path4"
       inkscape:connector-curvature="0"
       style="fill:#757575;stroke-width:1.0666666" /></g><g
     id="g8" /><g
     id="g10" /><g
     id="g12" /><g
     id="g14" /><g
     id="g16" /><g
     id="g18" /><g
     id="g20" /><g
     id="g22" /><g
     id="g24" /><g
     id="g26" /><g
     id="g28" /><g
     id="g30" /><g
     id="g32" /><g
     id="g34" /><g
     id="g36" /></svg>