<?xml version="1.0" encoding="UTF-8" standalone="no"?>
<!-- Generator: Adobe Illustrator 19.0.0, SVG Export Plug-In . SVG Version: 6.00 Build 0)  -->

<svg
   xmlns:dc="http://purl.org/dc/elements/1.1/"
   xmlns:cc="http://creativecommons.org/ns#"
   xmlns:rdf="http://www.w3.org/1999/02/22-rdf-syntax-ns#"
   xmlns:svg="http://www.w3.org/2000/svg"
   xmlns="http://www.w3.org/2000/svg"
   xmlns:sodipodi="http://sodipodi.sourceforge.net/DTD/sodipodi-0.dtd"
   xmlns:inkscape="http://www.inkscape.org/namespaces/inkscape"
   version="1.1"
   id="Layer_1"
   x="0px"
   y="0px"
   viewBox="0 0 512.00001 512.00001"
   xml:space="preserve"
   sodipodi:docname="Export.svg"
   inkscape:version="0.92.4 (5da689c313, 2019-01-14)"
   width="512"
   height="512"><metadata
   id="metadata38"><rdf:RDF><cc:Work
       rdf:about=""><dc:format>image/svg+xml</dc:format><dc:type
         rdf:resource="http://purl.org/dc/dcmitype/StillImage" /><dc:title></dc:title></cc:Work></rdf:RDF></metadata><defs
   id="defs36" /><sodipodi:namedview
   pagecolor="#ffffff"
   bordercolor="#666666"
   borderopacity="1"
   objecttolerance="10"
   gridtolerance="10"
   guidetolerance="10"
   inkscape:pageopacity="0"
   inkscape:pageshadow="2"
   inkscape:window-width="2560"
   inkscape:window-height="1377"
   id="namedview34"
   showgrid="false"
   inkscape:zoom="0.64305354"
   inkscape:cx="-156.28558"
   inkscape:cy="183.4995"
   inkscape:window-x="-8"
   inkscape:window-y="-8"
   inkscape:window-maximized="1"
   inkscape:current-layer="Layer_1" />
<path
   id="XMLID_223_"
   d="m 491.55196,336.83091 c 0.19096,-0.22527 0.35575,-0.46455 0.53494,-0.69618 0.20534,-0.266 0.41722,-0.52691 0.60686,-0.80437 0.18965,-0.27491 0.35314,-0.56127 0.52578,-0.84254 0.15434,-0.252 0.31782,-0.49891 0.46039,-0.75855 0.15825,-0.28636 0.29166,-0.58291 0.43422,-0.87563 0.1321,-0.27109 0.27074,-0.53837 0.38976,-0.81837 0.12032,-0.28382 0.21842,-0.574 0.32436,-0.86291 0.11117,-0.29909 0.22888,-0.59436 0.32435,-0.90109 0.0889,-0.28763 0.15433,-0.57782 0.23019,-0.86927 0.0811,-0.31309 0.17133,-0.62364 0.23673,-0.94309 0.068,-0.33218 0.10725,-0.66691 0.15695,-1.00291 0.0419,-0.28127 0.0968,-0.55873 0.12556,-0.84509 0.0628,-0.61727 0.0955,-1.23836 0.0968,-1.85818 0,-0.009 10e-4,-0.0165 10e-4,-0.0255 0,-0.0102 -10e-4,-0.0216 -10e-4,-0.0318 0,-0.61854 -0.0327,-1.23581 -0.0955,-1.85181 -0.0288,-0.28637 -0.0837,-0.56255 -0.12555,-0.84509 -0.0497,-0.33473 -0.0889,-0.66946 -0.15695,-1.00164 -0.0654,-0.322 -0.15695,-0.63509 -0.23804,-0.95073 -0.0745,-0.28763 -0.13995,-0.57654 -0.22758,-0.86163 -0.0955,-0.308 -0.21448,-0.60582 -0.32696,-0.90746 -0.10595,-0.28636 -0.20273,-0.57527 -0.32175,-0.85654 -0.12033,-0.28128 -0.26027,-0.54982 -0.39237,-0.82346 -0.14125,-0.29145 -0.27335,-0.58418 -0.4303,-0.86927 -0.14387,-0.26218 -0.30867,-0.51037 -0.46431,-0.76364 -0.17133,-0.28127 -0.33482,-0.56382 -0.52316,-0.83745 -0.19226,-0.27873 -0.40545,-0.53964 -0.61079,-0.80818 -0.17788,-0.23164 -0.34267,-0.46837 -0.53232,-0.69237 -0.39106,-0.46454 -0.80567,-0.90873 -1.23989,-1.33509 -0.0209,-0.0204 -0.0379,-0.0433 -0.0589,-0.0636 l -49.04515,-47.72854 c -7.6604,-7.45436 -20.08288,-7.45564 -27.74459,-10e-4 -7.66172,7.45563 -7.66172,19.54272 0,26.99836 l 15.55622,15.13909 -59.88637,0.003 V 205.59491 c 0.004,-0.16927 0.0262,-0.33473 0.0262,-0.504 0,-4.58946 -1.68328,-8.78564 -4.45604,-12.07818 -0.0275,-0.0331 -0.0549,-0.0675 -0.0837,-0.10055 -0.36099,-0.42254 -0.74159,-0.82727 -1.13919,-1.21927 -0.0562,-0.056 -0.11379,-0.11327 -0.17134,-0.16927 -0.17264,-0.16673 -0.33351,-0.34619 -0.514,-0.50655 L 219.52201,51.594908 c -0.007,-0.0051 -0.0131,-0.01146 -0.0196,-0.01782 -0.40152,-0.389454 -0.82005,-0.754727 -1.24905,-1.104727 -0.13602,-0.110727 -0.27727,-0.215091 -0.41591,-0.322 -0.3139,-0.241818 -0.63172,-0.476 -0.95869,-0.697455 -0.16349,-0.112 -0.32829,-0.221454 -0.4957,-0.328363 -0.34398,-0.218909 -0.69319,-0.423819 -1.04894,-0.619819 -0.14649,-0.08018 -0.28774,-0.168 -0.43684,-0.245636 -0.47477,-0.246909 -0.9587,-0.473454 -1.45047,-0.679636 -0.20142,-0.08527 -0.40676,-0.157818 -0.61079,-0.236728 -0.32698,-0.126 -0.65526,-0.244363 -0.98878,-0.352545 -0.22888,-0.07382 -0.45776,-0.145091 -0.68926,-0.211273 -0.37799,-0.106909 -0.7599,-0.201091 -1.14442,-0.286363 -0.17134,-0.03691 -0.33875,-0.084 -0.5127,-0.118364 -0.54932,-0.106909 -1.10387,-0.185818 -1.66104,-0.245636 -0.17003,-0.01909 -0.34267,-0.02927 -0.51401,-0.04454 -0.46169,-0.03946 -0.92338,-0.06109 -1.38638,-0.06873 -0.0994,-0.0025 -0.19359,-0.01527 -0.29299,-0.01527 H 35.618727 c -10.834689,0 -19.618582,8.547636 -19.618582,19.090909 V 446.90909 C 16.000145,457.45236 24.784038,466 35.618727,466 H 349.51605 c 10.83468,0 19.61858,-8.54764 19.61858,-19.09091 V 343.81945 l 59.88376,10e-4 -15.55492,15.13654 c -7.66171,7.45564 -7.66171,19.54273 0,26.99837 3.83085,3.72781 8.8519,5.59236 13.87164,5.59236 5.01974,0 10.0421,-1.86327 13.87165,-5.59236 l 49.04515,-47.726 c 0.0105,-0.0102 0.0183,-0.0204 0.0275,-0.0293 0.44861,-0.43781 0.87237,-0.89472 1.27259,-1.36945 z M 225.26503,111.18018 302.15286,186 h -76.88783 z m 104.63243,316.638 H 55.237305 V 84.181817 H 186.02786 V 205.09091 c 0,10.54327 8.78389,19.09091 19.61858,19.09091 h 124.25102 v 81.45582 l -85.01516,-10e-4 c -10.83469,0 -19.61858,8.54764 -19.61858,19.09091 0,10.54328 8.78389,19.09091 19.61858,19.09091 l 85.01516,10e-4 z"
   style="fill:#757575;fill-opacity:1;stroke-width:1.29019642"
   inkscape:connector-curvature="0" />
<g
   id="g3"
   transform="translate(0,145.00101)">
</g>
<g
   id="g5"
   transform="translate(0,145.00101)">
</g>
<g
   id="g7"
   transform="translate(0,145.00101)">
</g>
<g
   id="g9"
   transform="translate(0,145.00101)">
</g>
<g
   id="g11"
   transform="translate(0,145.00101)">
</g>
<g
   id="g13"
   transform="translate(0,145.00101)">
</g>
<g
   id="g15"
   transform="translate(0,145.00101)">
</g>
<g
   id="g17"
   transform="translate(0,145.00101)">
</g>
<g
   id="g19"
   transform="translate(0,145.00101)">
</g>
<g
   id="g21"
   transform="translate(0,145.00101)">
</g>
<g
   id="g23"
   transform="translate(0,145.00101)">
</g>
<g
   id="g25"
   transform="translate(0,145.00101)">
</g>
<g
   id="g27"
   transform="translate(0,145.00101)">
</g>
<g
   id="g29"
   transform="translate(0,145.00101)">
</g>
<g
   id="g31"
   transform="translate(0,145.00101)">
</g>
</svg>