<?xml version="1.0" encoding="UTF-8" standalone="no"?>
<!-- Generator: Adobe Illustrator 19.0.0, SVG Export Plug-In . SVG Version: 6.00 Build 0)  -->

<svg
   xmlns:dc="http://purl.org/dc/elements/1.1/"
   xmlns:cc="http://creativecommons.org/ns#"
   xmlns:rdf="http://www.w3.org/1999/02/22-rdf-syntax-ns#"
   xmlns:svg="http://www.w3.org/2000/svg"
   xmlns="http://www.w3.org/2000/svg"
   xmlns:sodipodi="http://sodipodi.sourceforge.net/DTD/sodipodi-0.dtd"
   xmlns:inkscape="http://www.inkscape.org/namespaces/inkscape"
   version="1.1"
   id="Layer_1"
   x="0px"
   y="0px"
   viewBox="0 0 512.00001 512.00001"
   xml:space="preserve"
   sodipodi:docname="Export.svg"
   inkscape:version="0.92.2 (5c3e80d, 2017-08-06)"
   width="512"
   height="512"><metadata
     id="metadata38"><rdf:RDF><cc:Work
         rdf:about=""><dc:format>image/svg+xml</dc:format><dc:type
           rdf:resource="http://purl.org/dc/dcmitype/StillImage" /><dc:title /></cc:Work></rdf:RDF></metadata><defs
     id="defs36" /><sodipodi:namedview
     pagecolor="#ffffff"
     bordercolor="#666666"
     borderopacity="1"
     objecttolerance="10"
     gridtolerance="10"
     guidetolerance="10"
     inkscape:pageopacity="0"
     inkscape:pageshadow="2"
     inkscape:window-width="1680"
     inkscape:window-height="998"
     id="namedview34"
     showgrid="false"
     inkscape:zoom="0.32152677"
     inkscape:cx="-973.77705"
     inkscape:cy="67.691113"
     inkscape:window-x="-8"
     inkscape:window-y="-8"
     inkscape:window-maximized="1"
     inkscape:current-layer="Layer_1" /><path
     id="XMLID_223_"
     d="m 446.20023,321.26826 c 0.15419,-0.18189 0.28726,-0.37511 0.43195,-0.56214 0.1658,-0.21478 0.33689,-0.42546 0.49002,-0.6495 0.15313,-0.22197 0.28514,-0.45321 0.42455,-0.68032 0.12462,-0.20348 0.25662,-0.40285 0.37174,-0.6125 0.12779,-0.23123 0.23551,-0.47069 0.35062,-0.70705 0.10667,-0.21888 0.21862,-0.4347 0.31472,-0.66079 0.0972,-0.22918 0.17637,-0.46349 0.26191,-0.69678 0.0898,-0.24151 0.18481,-0.47993 0.2619,-0.7276 0.0718,-0.23226 0.12462,-0.46656 0.18588,-0.70191 0.0655,-0.25281 0.13835,-0.50357 0.19114,-0.7615 0.0549,-0.26824 0.0866,-0.53851 0.12674,-0.80982 0.0338,-0.22713 0.0782,-0.45117 0.10138,-0.68239 0.0507,-0.49843 0.0771,-0.99993 0.0782,-1.50042 0,-0.007 8.1e-4,-0.0133 8.1e-4,-0.0206 0,-0.008 -8.1e-4,-0.0174 -8.1e-4,-0.0257 0,-0.49945 -0.0264,-0.99786 -0.0771,-1.49527 -0.0232,-0.23124 -0.0676,-0.45424 -0.10138,-0.68238 -0.0401,-0.27029 -0.0718,-0.54057 -0.12673,-0.80879 -0.0528,-0.26001 -0.12673,-0.51282 -0.19221,-0.76769 -0.0602,-0.23225 -0.113,-0.46553 -0.18376,-0.69573 -0.0771,-0.2487 -0.17318,-0.48918 -0.26401,-0.73275 -0.0855,-0.23122 -0.1637,-0.46451 -0.25979,-0.69162 -0.0972,-0.22713 -0.21016,-0.44396 -0.31683,-0.66492 -0.11405,-0.23534 -0.22072,-0.47171 -0.34745,-0.70191 -0.11617,-0.2117 -0.24924,-0.4121 -0.37491,-0.61661 -0.13835,-0.22712 -0.27036,-0.45526 -0.42244,-0.67621 -0.15524,-0.22507 -0.32739,-0.43574 -0.49319,-0.65258 -0.14363,-0.18704 -0.2767,-0.37819 -0.42983,-0.55907 -0.31577,-0.3751 -0.65055,-0.73376 -1.00117,-1.07804 -0.0169,-0.0165 -0.0306,-0.035 -0.0476,-0.0514 l -39.6023,-38.53918 c -6.18552,-6.01915 -16.21625,-6.02018 -22.40282,-8.1e-4 -6.18658,6.02017 -6.18658,15.78008 0,21.80026 l 12.56112,12.22431 -48.35622,0.002 v -80.78173 c 0.003,-0.13667 0.0211,-0.27028 0.0211,-0.40696 0,-3.70583 -1.35919,-7.09411 -3.5981,-9.75272 -0.0222,-0.0267 -0.0443,-0.0545 -0.0676,-0.0812 -0.2915,-0.34119 -0.59882,-0.66799 -0.91987,-0.98452 -0.0454,-0.0452 -0.0919,-0.0915 -0.13835,-0.13668 -0.1394,-0.13463 -0.2693,-0.27954 -0.41503,-0.40902 L 226.54523,90.949825 c -0.006,-0.004 -0.0106,-0.009 -0.0158,-0.0144 -0.32422,-0.31447 -0.66217,-0.60941 -1.00857,-0.89202 -0.10983,-0.0894 -0.22389,-0.17368 -0.33583,-0.26001 -0.25347,-0.19526 -0.5101,-0.38435 -0.77411,-0.56317 -0.13201,-0.0904 -0.26509,-0.17882 -0.40026,-0.26514 -0.27776,-0.17676 -0.55973,-0.34222 -0.84699,-0.50049 -0.11828,-0.0647 -0.23234,-0.13565 -0.35273,-0.19834 -0.38336,-0.19937 -0.77412,-0.3823 -1.17121,-0.54878 -0.16264,-0.0688 -0.32844,-0.12743 -0.49319,-0.19115 -0.26402,-0.10174 -0.5291,-0.19732 -0.7984,-0.28467 -0.18482,-0.0596 -0.36963,-0.11716 -0.55656,-0.1706 -0.30521,-0.0863 -0.61359,-0.16237 -0.92408,-0.23122 -0.13835,-0.0298 -0.27353,-0.0678 -0.41399,-0.0956 -0.44355,-0.0863 -0.89134,-0.15004 -1.34123,-0.19834 -0.13729,-0.0154 -0.2767,-0.0236 -0.41505,-0.036 -0.3728,-0.0319 -0.74559,-0.0493 -1.11945,-0.0555 -0.0803,-0.002 -0.15632,-0.0123 -0.23658,-0.0123 H 78.049545 c -8.74864,0 -15.84134,6.90192 -15.84134,15.415255 v 308.30529 c 0,8.51333 7.0927,15.41526 15.84134,15.41526 H 331.51103 c 8.74865,0 15.84134,-6.90193 15.84134,-15.41526 v -83.2414 l 48.35411,8.1e-4 -12.56007,12.22224 c -6.18657,6.02018 -6.18657,15.78009 0,21.80028 3.09328,3.01008 7.14761,4.51564 11.20088,4.51564 4.05327,0 8.10866,-1.50453 11.20089,-4.51564 l 39.6023,-38.53715 c 0.008,-0.008 0.0148,-0.0165 0.0222,-0.0236 0.36224,-0.35352 0.70441,-0.72246 1.02758,-1.10579 z m -215.0177,-182.20534 62.08432,60.41448 h -62.08432 z m 84.48715,255.67449 H 93.890885 V 117.26265 H 199.49984 v 97.63001 c 0,8.51334 7.09269,15.41527 15.84134,15.41527 h 100.32851 v 65.77282 l -68.64688,-8.1e-4 c -8.74865,0 -15.84134,6.90193 -15.84134,15.41527 0,8.51334 7.09269,15.41526 15.84134,15.41526 l 68.64688,8.1e-4 z"
     style="fill:#335777;fill-opacity:1;stroke-width:1.29019642"
     inkscape:connector-curvature="0" /><g
     id="g3"
     transform="translate(0,145.00101)" /><g
     id="g5"
     transform="translate(0,145.00101)" /><g
     id="g7"
     transform="translate(0,145.00101)" /><g
     id="g9"
     transform="translate(0,145.00101)" /><g
     id="g11"
     transform="translate(0,145.00101)" /><g
     id="g13"
     transform="translate(0,145.00101)" /><g
     id="g15"
     transform="translate(0,145.00101)" /><g
     id="g17"
     transform="translate(0,145.00101)" /><g
     id="g19"
     transform="translate(0,145.00101)" /><g
     id="g21"
     transform="translate(0,145.00101)" /><g
     id="g23"
     transform="translate(0,145.00101)" /><g
     id="g25"
     transform="translate(0,145.00101)" /><g
     id="g27"
     transform="translate(0,145.00101)" /><g
     id="g29"
     transform="translate(0,145.00101)" /><g
     id="g31"
     transform="translate(0,145.00101)" /></svg>