<?xml version="1.0" encoding="UTF-8" standalone="no"?>
<!-- Generator: Adobe Illustrator 21.0.0, SVG Export Plug-In . SVG Version: 6.00 Build 0)  -->

<svg
   xmlns:dc="http://purl.org/dc/elements/1.1/"
   xmlns:cc="http://creativecommons.org/ns#"
   xmlns:rdf="http://www.w3.org/1999/02/22-rdf-syntax-ns#"
   xmlns:svg="http://www.w3.org/2000/svg"
   xmlns="http://www.w3.org/2000/svg"
   xmlns:sodipodi="http://sodipodi.sourceforge.net/DTD/sodipodi-0.dtd"
   xmlns:inkscape="http://www.inkscape.org/namespaces/inkscape"
   version="1.1"
   id="Capa_1"
   x="0px"
   y="0px"
   viewBox="0 0 512 512"
   style="enable-background:new 0 0 512 512;"
   xml:space="preserve"
   width="512"
   height="512"
   sodipodi:docname="settings (2).svg"
   inkscape:version="0.92.2 (5c3e80d, 2017-08-06)"><metadata
     id="metadata13"><rdf:RDF><cc:Work
         rdf:about=""><dc:format>image/svg+xml</dc:format><dc:type
           rdf:resource="http://purl.org/dc/dcmitype/StillImage" /></cc:Work></rdf:RDF></metadata><defs
     id="defs11" /><sodipodi:namedview
     pagecolor="#ffffff"
     bordercolor="#666666"
     borderopacity="1"
     objecttolerance="10"
     gridtolerance="10"
     guidetolerance="10"
     inkscape:pageopacity="0"
     inkscape:pageshadow="2"
     inkscape:window-width="2560"
     inkscape:window-height="1388"
     id="namedview9"
     showgrid="false"
     inkscape:zoom="0.4609375"
     inkscape:cx="-46.644068"
     inkscape:cy="256"
     inkscape:window-x="-8"
     inkscape:window-y="-8"
     inkscape:window-maximized="1"
     inkscape:current-layer="Capa_1" /><g
     id="g6"
     style="fill:#335777;fill-opacity:1"><path
       d="M354.643,290.995c13.462-37.866,4.248-80.596-24.404-109.233c-31.172-31.201-79.087-39.346-119.209-20.273   c-4.395,2.095-7.515,6.196-8.335,11.001c-0.835,4.805,0.732,9.712,4.175,13.154L241,219.789V241h-21.211l-34.146-34.131   c-3.472-3.457-8.379-5.01-13.154-4.175c-4.805,0.82-8.906,3.94-11.001,8.335c-19.072,40.122-10.928,88.022,20.273,119.209   c28.623,28.608,71.323,37.852,109.233,24.404l152.919,152.904c2.93,2.93,6.768,4.395,10.605,4.395s7.676-1.465,10.605-4.395   l42.422-42.422c5.859-5.859,5.859-15.352,0-21.211L354.643,290.995z"
       id="path2"
       style="fill:#335777;fill-opacity:1" /><path
       d="M503.709,212.582l-30.517-14.751c-5.068-18.94-12.612-37.119-22.5-54.214l10.459-31.362   c1.787-5.391,0.381-11.338-3.633-15.352l-42.422-42.422c-4.014-4.014-9.976-5.391-15.352-3.633l-31.362,10.459   c-17.095-9.888-35.273-17.432-54.214-22.5L299.418,8.291C296.869,3.208,291.684,0,286,0h-60c-5.684,0-10.869,3.208-13.418,8.291   l-14.751,30.517c-18.94,5.068-37.119,12.612-54.214,22.5l-31.362-10.459c-5.391-1.758-11.338-0.381-15.352,3.633L54.481,96.903   c-4.014,4.014-5.42,9.961-3.633,15.352l10.459,31.362c-9.888,17.095-17.432,35.273-22.5,54.214L8.291,212.582   C3.208,215.131,0,220.316,0,226v60c0,5.684,3.208,10.869,8.291,13.418l30.517,14.751c5.068,18.94,12.612,37.119,22.5,54.214   l-10.459,31.362c-1.787,5.391-0.381,11.338,3.633,15.352l42.422,42.422c4.014,4.014,9.961,5.435,15.352,3.633l31.362-10.459   c17.095,9.888,35.273,17.432,54.214,22.5l14.751,30.517C215.131,508.792,220.316,512,226,512h60c5.684,0,10.869-3.208,13.418-8.291   l14.751-30.517c13.35-3.563,26.239-8.383,38.639-14.321l-46.097-46.093c-16.448,5.288-33.446,8.134-50.462,8.134   c-42.7,0-85.122-16.436-116.924-48.237c-64.336-64.336-64.336-169.014,0-233.35s169.014-64.336,233.35,0   c44.423,44.423,58.262,109.433,39.827,167.086l46.373,46.386c5.934-12.396,10.756-25.281,14.317-38.628l30.517-14.751   C508.792,296.869,512,291.684,512,286v-60C512,220.316,508.792,215.131,503.709,212.582z"
       id="path4"
       style="fill:#335777;fill-opacity:1" /></g></svg>