<?xml version="1.0" encoding="UTF-8" standalone="no"?>
<svg
   xmlns:dc="http://purl.org/dc/elements/1.1/"
   xmlns:cc="http://creativecommons.org/ns#"
   xmlns:rdf="http://www.w3.org/1999/02/22-rdf-syntax-ns#"
   xmlns:svg="http://www.w3.org/2000/svg"
   xmlns="http://www.w3.org/2000/svg"
   xmlns:sodipodi="http://sodipodi.sourceforge.net/DTD/sodipodi-0.dtd"
   xmlns:inkscape="http://www.inkscape.org/namespaces/inkscape"
   width="495.398"
   height="495.398"
   version="1.1"
   id="svg31"
   sodipodi:docname="Home.svg"
   inkscape:version="0.92.2 (5c3e80d, 2017-08-06)">
  <metadata
     id="metadata37">
    <rdf:RDF>
      <cc:Work
         rdf:about="">
        <dc:format>image/svg+xml</dc:format>
        <dc:type
           rdf:resource="http://purl.org/dc/dcmitype/StillImage" />
      </cc:Work>
    </rdf:RDF>
  </metadata>
  <defs
     id="defs35" />
  <sodipodi:namedview
     pagecolor="#ffffff"
     bordercolor="#666666"
     borderopacity="1"
     objecttolerance="10"
     gridtolerance="10"
     guidetolerance="10"
     inkscape:pageopacity="0"
     inkscape:pageshadow="2"
     inkscape:window-width="2560"
     inkscape:window-height="1388"
     id="namedview33"
     showgrid="false"
     inkscape:zoom="0.47638463"
     inkscape:cx="-45.131598"
     inkscape:cy="247.69901"
     inkscape:window-x="-8"
     inkscape:window-y="-8"
     inkscape:window-maximized="1"
     inkscape:current-layer="svg31" />
  <g
     id="g5">
    <title
       id="title2">background</title>
    <rect
       height="402"
       width="582"
       y="-1"
       x="-1"
       fill="none"
       id="canvas_background" />
  </g>
  <g
     id="g29"
     transform="matrix(0.80932199,0,0,0.80932199,47.230399,47.230912)"
     style="stroke-width:1.23560214">
    <title
       id="title7">Layer 1</title>
    <g
       id="svg_1"
       style="stroke-width:1.23560214">
      <g
         id="svg_2"
         style="stroke-width:1.23560214">
        <g
           id="svg_3"
           style="stroke-width:1.23560214">
          <path
             d="m 487.08301,225.51401 -75.07999,-75.08 V 63.703999 C 412.00302,48.022 399.29501,35.313 383.59,35.313 c -15.66898,0 -28.37699,12.709 -28.37699,28.390999 V 93.644997 L 299.31,37.740002 C 271.67099,10.116 223.616,10.165 196.03999,37.790001 L 8.312,225.51401 c -11.082,11.104 -11.082,29.071 0,40.15799 11.087,11.10101 29.089001,11.10101 40.172001,0 L 236.19401,77.943002 c 6.115,-6.083 16.89299,-6.083 22.976,-0.018 L 446.91202,265.672 c 5.56698,5.55099 12.82498,8.31201 20.08099,8.31201 7.271,0 14.54099,-2.76401 20.091,-8.31201 11.086,-11.086 11.086,-29.053 -10e-4,-40.15799 z"
             id="svg_4"
             inkscape:connector-curvature="0"
             style="fill:#757575;stroke-width:1.23560214" />
          <path
             d="m 257.56101,131.836 c -5.45402,-5.451 -14.28501,-5.451 -19.723,0 L 72.711998,296.913 c -2.606995,2.60598 -4.084999,6.164 -4.084999,9.87698 v 120.40103 c 0,28.25299 22.908005,51.16 51.160001,51.16 h 81.754 V 351.741 h 92.299 v 126.61001 h 81.755 c 28.25101,0 51.159,-22.90701 51.159,-51.15902 V 306.79001 c 0,-3.71301 -1.465,-7.271 -4.08499,-9.87699 z"
             id="svg_5"
             inkscape:connector-curvature="0"
             style="fill:#757575;stroke-width:1.23560214" />
        </g>
      </g>
    </g>
    <g
       id="svg_6"
       style="stroke-width:1.23560214" />
    <g
       id="svg_7"
       style="stroke-width:1.23560214" />
    <g
       id="svg_8"
       style="stroke-width:1.23560214" />
    <g
       id="svg_9"
       style="stroke-width:1.23560214" />
    <g
       id="svg_10"
       style="stroke-width:1.23560214" />
    <g
       id="svg_11"
       style="stroke-width:1.23560214" />
    <g
       id="svg_12"
       style="stroke-width:1.23560214" />
    <g
       id="svg_13"
       style="stroke-width:1.23560214" />
    <g
       id="svg_14"
       style="stroke-width:1.23560214" />
    <g
       id="svg_15"
       style="stroke-width:1.23560214" />
    <g
       id="svg_16"
       style="stroke-width:1.23560214" />
    <g
       id="svg_17"
       style="stroke-width:1.23560214" />
    <g
       id="svg_18"
       style="stroke-width:1.23560214" />
    <g
       id="svg_19"
       style="stroke-width:1.23560214" />
    <g
       id="svg_20"
       style="stroke-width:1.23560214" />
  </g>
</svg>
