<svg width="495.398" height="495.398" xmlns="http://www.w3.org/2000/svg">

 <g>
  <title>background</title>
  <rect height="402" width="582" y="-1" x="-1" fill="none" id="canvas_background"/>
 </g>
 <g>
  <title>Layer 1</title>
  <g id="svg_1">
   <g id="svg_2">
    <g id="svg_3">
     <path d="m487.083008,225.514008l-75.079987,-75.080002l0,-86.730007c0,-15.681999 -12.708008,-28.390999 -28.413025,-28.390999c-15.668976,0 -28.376984,12.709 -28.376984,28.390999l0,29.940998l-55.903015,-55.904995c-27.639008,-27.624002 -75.694,-27.575002 -103.270004,0.049999l-187.727993,187.724007c-11.082,11.104004 -11.082,29.070999 0,40.15799c11.087,11.101013 29.089001,11.101013 40.172001,0l187.710014,-187.728996c6.11499,-6.083 16.89299,-6.083 22.975998,-0.017998l187.742004,187.746994c5.566986,5.550995 12.824982,8.312012 20.080994,8.312012c7.270996,0 14.540985,-2.764008 20.091003,-8.312012c11.085999,-11.085999 11.085999,-29.052994 -0.001007,-40.15799z" fill="#5A5A5A" id="svg_4"/>
     <path d="m257.561005,131.835999c-5.45401,-5.450996 -14.285004,-5.450996 -19.722992,0l-165.126015,165.076996c-2.606995,2.605988 -4.084999,6.164001 -4.084999,9.876984l0,120.401031c0,28.252991 22.908005,51.160004 51.160004,51.160004l81.753998,0l0,-126.610016l92.298996,0l0,126.610016l81.755005,0c28.251007,0 51.158997,-22.907013 51.158997,-51.159027l0,-120.401978c0,-3.713013 -1.464996,-7.270996 -4.084991,-9.876984l-165.108002,-165.077026z" fill="#5A5A5A" id="svg_5"/>
    </g>
   </g>
  </g>
  <g id="svg_6"/>
  <g id="svg_7"/>
  <g id="svg_8"/>
  <g id="svg_9"/>
  <g id="svg_10"/>
  <g id="svg_11"/>
  <g id="svg_12"/>
  <g id="svg_13"/>
  <g id="svg_14"/>
  <g id="svg_15"/>
  <g id="svg_16"/>
  <g id="svg_17"/>
  <g id="svg_18"/>
  <g id="svg_19"/>
  <g id="svg_20"/>
 </g>
</svg>