<?xml version="1.0" encoding="UTF-8" standalone="no"?>
<!-- Generator: Adobe Illustrator 19.0.0, SVG Export Plug-In . SVG Version: 6.00 Build 0)  -->

<svg
   xmlns:dc="http://purl.org/dc/elements/1.1/"
   xmlns:cc="http://creativecommons.org/ns#"
   xmlns:rdf="http://www.w3.org/1999/02/22-rdf-syntax-ns#"
   xmlns:svg="http://www.w3.org/2000/svg"
   xmlns="http://www.w3.org/2000/svg"
   xmlns:sodipodi="http://sodipodi.sourceforge.net/DTD/sodipodi-0.dtd"
   xmlns:inkscape="http://www.inkscape.org/namespaces/inkscape"
   version="1.1"
   id="Layer_1"
   x="0px"
   y="0px"
   viewBox="0 0 512 512"
   xml:space="preserve"
   sodipodi:docname="Import.svg"
   inkscape:version="0.92.4 (5da689c313, 2019-01-14)"
   width="512"
   height="512"><metadata
   id="metadata38"><rdf:RDF><cc:Work
       rdf:about=""><dc:format>image/svg+xml</dc:format><dc:type
         rdf:resource="http://purl.org/dc/dcmitype/StillImage" /><dc:title></dc:title></cc:Work></rdf:RDF></metadata><defs
   id="defs36" /><sodipodi:namedview
   pagecolor="#ffffff"
   bordercolor="#666666"
   borderopacity="1"
   objecttolerance="10"
   gridtolerance="10"
   guidetolerance="10"
   inkscape:pageopacity="0"
   inkscape:pageshadow="2"
   inkscape:window-width="2560"
   inkscape:window-height="1377"
   id="namedview34"
   showgrid="false"
   inkscape:zoom="0.71515152"
   inkscape:cx="-140.52966"
   inkscape:cy="165"
   inkscape:window-x="-8"
   inkscape:window-y="-8"
   inkscape:window-maximized="1"
   inkscape:current-layer="Layer_1" />
<path
   id="XMLID_227_"
   d="M 474.18182,305.63636 H 408.72727 V 205.59491 c 0.004,-0.16927 0.0291,-0.33473 0.0291,-0.504 0,-4.58946 -1.872,-8.78564 -4.95563,-12.07818 -0.0306,-0.0331 -0.0611,-0.0675 -0.0931,-0.10055 -0.40146,-0.42254 -0.82473,-0.82727 -1.26691,-1.21927 -0.064,-0.056 -0.12655,-0.11327 -0.19055,-0.16927 -0.19345,-0.16673 -0.37091,-0.34619 -0.57163,-0.50655 L 242.34036,51.59491 c -0.006,-0.0051 -0.0145,-0.01146 -0.0218,-0.01782 -0.44655,-0.39073 -0.91346,-0.75473 -1.39055,-1.106 -0.15127,-0.11073 -0.30691,-0.21382 -0.45964,-0.322 -0.35054,-0.24309 -0.70545,-0.47727 -1.07054,-0.7 -0.18037,-0.11073 -0.36218,-0.22018 -0.54691,-0.32582 -0.384,-0.22018 -0.77673,-0.42636 -1.17382,-0.62363 -0.16,-0.08019 -0.31564,-0.16673 -0.48,-0.24309 -0.52945,-0.24691 -1.06764,-0.47346 -1.616,-0.68091 -0.22109,-0.084 -0.45091,-0.15782 -0.67636,-0.23546 -0.36364,-0.126 -0.73018,-0.24436 -1.10109,-0.35254 -0.25455,-0.07382 -0.50909,-0.14509 -0.76655,-0.21128 -0.42036,-0.10691 -0.84509,-0.20109 -1.27273,-0.28636 -0.19054,-0.03691 -0.37672,-0.084 -0.57018,-0.11836 -0.61091,-0.10691 -1.22763,-0.18582 -1.84727,-0.24564 -0.18909,-0.01909 -0.38109,-0.02927 -0.57309,-0.04455 -0.512,-0.03945 -1.02546,-0.06109 -1.54182,-0.06872 C 227.12437,46.01273 227.01965,46 226.9091,46 H 37.818182 C 25.768727,46 16,54.54764 16,65.09091 V 446.90909 C 16,457.45236 25.768727,466 37.818182,466 H 386.90909 c 12.04946,0 21.81818,-8.54764 21.81818,-19.09091 V 343.81818 h 65.45455 c 12.04945,0 21.81818,-8.54763 21.81818,-19.09091 0,-10.54327 -9.76873,-19.09091 -21.81818,-19.09091 z M 248.72727,111.18018 334.23564,186 h -85.50837 z m 116.36364,316.638 H 59.636364 V 84.18182 H 205.09091 v 120.90909 c 0,10.54327 9.76873,19.09091 21.81818,19.09091 h 138.18182 v 81.45327 l -85.50691,-10e-4 17.29891,-15.13527 c 8.52073,-7.45564 8.52073,-19.54273 0,-26.99837 -8.52073,-7.45436 -22.33455,-7.45563 -30.85527,-10e-4 l -54.54546,47.726 c -0.0814,0.0713 -0.15127,0.15018 -0.22982,0.22273 -0.41454,0.37418 -0.82036,0.75472 -1.19709,1.15691 -0.13818,0.14636 -0.256,0.30545 -0.38982,0.45436 -0.304,0.34364 -0.60945,0.686 -0.88581,1.04745 -0.0975,0.12728 -0.17746,0.26219 -0.272,0.39073 -0.28946,0.39836 -0.57455,0.798 -0.832,1.21546 -0.0567,0.0929 -0.10182,0.1909 -0.15709,0.28509 -0.27055,0.46072 -0.53091,0.92654 -0.75928,1.40636 -0.0291,0.0624 -0.0509,0.12855 -0.08,0.19091 -0.23563,0.51164 -0.45527,1.03091 -0.64,1.56418 -0.0247,0.07 -0.0393,0.14127 -0.0625,0.21127 -0.17455,0.52437 -0.33455,1.05382 -0.45818,1.59473 -0.0364,0.15782 -0.0524,0.31946 -0.0829,0.47855 -0.0902,0.45436 -0.18182,0.90872 -0.23419,1.37454 -0.0727,0.63127 -0.11054,1.26637 -0.11054,1.90527 0,0.64019 0.0378,1.27528 0.11054,1.90655 0.0524,0.46455 0.144,0.91891 0.23419,1.37455 0.0305,0.15781 0.0465,0.31945 0.0829,0.476 0.12509,0.54854 0.28654,1.08436 0.464,1.61381 0.0204,0.0624 0.0334,0.12855 0.0567,0.19091 0.18618,0.53582 0.40582,1.05891 0.64291,1.57437 0.0276,0.0598 0.048,0.12218 0.0771,0.182 0.23128,0.48618 0.49309,0.95709 0.768,1.42291 0.0524,0.0878 0.0946,0.18072 0.14837,0.26854 0.25891,0.42382 0.54836,0.82982 0.84363,1.23327 0.0887,0.12346 0.16582,0.252 0.25891,0.37291 0.28655,0.37546 0.60364,0.73182 0.91927,1.08818 0.12073,0.13619 0.22982,0.28128 0.35491,0.41491 0.41891,0.44546 0.864,0.87182 1.32655,1.28164 0.0349,0.0318 0.0669,0.0674 0.10327,0.0993 l 54.54546,47.72855 c 4.26181,3.72782 9.84436,5.59236 15.42836,5.59236 5.58255,0 11.168,-1.86454 15.42691,-5.59109 8.52073,-7.45563 8.52073,-19.54273 0,-26.99836 l -17.30036,-15.13909 85.50836,10e-4 z"
   style="fill:#335777;fill-opacity:1;stroke-width:1.36060274"
   inkscape:connector-curvature="0" />
<g
   id="g3"
   transform="translate(0,182)">
</g>
<g
   id="g5"
   transform="translate(0,182)">
</g>
<g
   id="g7"
   transform="translate(0,182)">
</g>
<g
   id="g9"
   transform="translate(0,182)">
</g>
<g
   id="g11"
   transform="translate(0,182)">
</g>
<g
   id="g13"
   transform="translate(0,182)">
</g>
<g
   id="g15"
   transform="translate(0,182)">
</g>
<g
   id="g17"
   transform="translate(0,182)">
</g>
<g
   id="g19"
   transform="translate(0,182)">
</g>
<g
   id="g21"
   transform="translate(0,182)">
</g>
<g
   id="g23"
   transform="translate(0,182)">
</g>
<g
   id="g25"
   transform="translate(0,182)">
</g>
<g
   id="g27"
   transform="translate(0,182)">
</g>
<g
   id="g29"
   transform="translate(0,182)">
</g>
<g
   id="g31"
   transform="translate(0,182)">
</g>
</svg>