<?xml version="1.0" encoding="UTF-8" standalone="no"?>
<!-- Generator: Adobe Illustrator 19.0.0, SVG Export Plug-In . SVG Version: 6.00 Build 0)  -->

<svg
   xmlns:dc="http://purl.org/dc/elements/1.1/"
   xmlns:cc="http://creativecommons.org/ns#"
   xmlns:rdf="http://www.w3.org/1999/02/22-rdf-syntax-ns#"
   xmlns:svg="http://www.w3.org/2000/svg"
   xmlns="http://www.w3.org/2000/svg"
   xmlns:sodipodi="http://sodipodi.sourceforge.net/DTD/sodipodi-0.dtd"
   xmlns:inkscape="http://www.inkscape.org/namespaces/inkscape"
   version="1.1"
   id="Layer_1"
   x="0px"
   y="0px"
   viewBox="0 0 512 512"
   xml:space="preserve"
   sodipodi:docname="Import.svg"
   inkscape:version="0.92.2 (5c3e80d, 2017-08-06)"
   width="512"
   height="512"><metadata
     id="metadata38"><rdf:RDF><cc:Work
         rdf:about=""><dc:format>image/svg+xml</dc:format><dc:type
           rdf:resource="http://purl.org/dc/dcmitype/StillImage" /><dc:title /></cc:Work></rdf:RDF></metadata><defs
     id="defs36" /><sodipodi:namedview
     pagecolor="#ffffff"
     bordercolor="#666666"
     borderopacity="1"
     objecttolerance="10"
     gridtolerance="10"
     guidetolerance="10"
     inkscape:pageopacity="0"
     inkscape:pageshadow="2"
     inkscape:window-width="2560"
     inkscape:window-height="1388"
     id="namedview34"
     showgrid="false"
     inkscape:zoom="0.71515152"
     inkscape:cx="-446.05932"
     inkscape:cy="165"
     inkscape:window-x="-8"
     inkscape:window-y="-8"
     inkscape:window-maximized="1"
     inkscape:current-layer="Layer_1" /><path
     id="XMLID_227_"
     d="m 438.5886,297.5389 h -54.77658 v -83.72113 c 0.003,-0.14166 0.0243,-0.28012 0.0243,-0.42178 0,-3.84076 -1.56661,-7.35239 -4.14719,-10.1078 -0.0256,-0.0277 -0.0511,-0.0565 -0.0779,-0.0841 -0.33597,-0.3536 -0.69019,-0.69231 -1.06023,-1.02036 -0.0536,-0.0469 -0.10591,-0.0948 -0.15947,-0.14166 -0.16189,-0.13953 -0.3104,-0.28971 -0.47837,-0.42391 L 244.56874,84.940655 c -0.005,-0.004 -0.0121,-0.01 -0.0182,-0.0149 -0.3737,-0.32699 -0.76444,-0.63161 -1.1637,-0.92558 -0.12659,-0.0927 -0.25684,-0.17893 -0.38466,-0.26947 -0.29335,-0.20343 -0.59036,-0.39941 -0.89589,-0.5858 -0.15095,-0.0927 -0.3031,-0.18426 -0.45769,-0.27267 -0.32136,-0.18426 -0.65002,-0.3568 -0.98233,-0.52189 -0.1339,-0.0671 -0.26415,-0.13953 -0.40169,-0.20343 -0.44308,-0.20663 -0.89347,-0.39623 -1.35238,-0.56983 -0.18502,-0.0703 -0.37735,-0.13208 -0.56602,-0.19705 -0.30432,-0.10545 -0.61106,-0.2045 -0.92146,-0.29503 -0.21303,-0.0618 -0.42604,-0.12142 -0.6415,-0.17681 -0.35179,-0.0895 -0.70723,-0.16829 -1.0651,-0.23965 -0.15946,-0.0309 -0.31527,-0.0703 -0.47717,-0.099 -0.51125,-0.0895 -1.02736,-0.1555 -1.54591,-0.20557 -0.15824,-0.016 -0.31892,-0.0245 -0.4796,-0.0373 -0.42847,-0.033 -0.85817,-0.0511 -1.29029,-0.0575 -0.0901,0 -0.17772,-0.0107 -0.27024,-0.0107 H 73.411398 c -10.08376,0 -18.258855,7.15321 -18.258855,15.9765 V 415.76503 c 0,8.82329 8.175095,15.9765 18.258855,15.9765 H 365.55316 c 10.08377,0 18.25886,-7.15321 18.25886,-15.9765 v -86.27312 h 54.77658 c 10.08376,0 18.25886,-7.15321 18.25886,-15.9765 0,-8.82329 -8.1751,-15.9765 -18.25886,-15.97651 z M 249.91371,134.80545 321.47263,197.41949 H 249.91371 Z M 347.2943,399.78852 H 91.670258 V 112.21149 H 213.396 V 213.396 c 0,8.82329 8.1751,15.9765 18.25886,15.9765 H 347.2943 v 68.16534 l -71.55769,-8.3e-4 14.47685,-12.66618 c 7.13069,-6.23935 7.13069,-16.35462 0,-22.59398 -7.1307,-6.23827 -18.69099,-6.23935 -25.82168,-8.3e-4 l -45.64716,39.9402 c -0.0681,0.0597 -0.12659,0.12568 -0.19232,0.18639 -0.34692,0.31314 -0.68653,0.6316 -1.00181,0.96818 -0.11563,0.12248 -0.21423,0.25562 -0.32622,0.38024 -0.25441,0.28758 -0.51003,0.57409 -0.74131,0.87657 -0.0816,0.10652 -0.14851,0.21942 -0.22762,0.32699 -0.24224,0.33337 -0.48082,0.66782 -0.69627,1.01717 -0.0474,0.0777 -0.0852,0.15976 -0.13147,0.23859 -0.22641,0.38556 -0.4443,0.77538 -0.63541,1.17693 -0.0243,0.0522 -0.0426,0.10758 -0.0669,0.15976 -0.19719,0.42818 -0.381,0.86274 -0.53559,1.30901 -0.0207,0.0586 -0.0329,0.11823 -0.0523,0.17681 -0.14607,0.43882 -0.27997,0.8819 -0.38343,1.33457 -0.0305,0.13207 -0.0439,0.26734 -0.0694,0.40048 -0.0755,0.38024 -0.15216,0.76048 -0.19598,1.1503 -0.0608,0.52829 -0.0925,1.05978 -0.0925,1.59446 0,0.53575 0.0316,1.06723 0.0925,1.59552 0.0439,0.38877 0.1205,0.769 0.19598,1.15031 0.0255,0.13207 0.0389,0.26734 0.0694,0.39835 0.10468,0.45905 0.23979,0.90746 0.3883,1.35054 0.0171,0.0522 0.028,0.10758 0.0474,0.15977 0.15581,0.4484 0.33962,0.88616 0.53803,1.31753 0.0231,0.05 0.0402,0.10225 0.0645,0.15231 0.19355,0.40687 0.41265,0.80095 0.64272,1.19078 0.0438,0.0735 0.0792,0.15124 0.12416,0.22473 0.21667,0.35468 0.4589,0.69445 0.706,1.03208 0.0742,0.10332 0.13877,0.21089 0.21668,0.31208 0.2398,0.31421 0.50516,0.61243 0.7693,0.91066 0.10104,0.11397 0.19233,0.23539 0.29701,0.34722 0.35057,0.37279 0.72305,0.7296 1.11015,1.07256 0.0292,0.0266 0.056,0.0564 0.0864,0.0831 l 45.64715,39.94233 c 3.56656,3.11968 8.2384,4.68004 12.91145,4.68004 4.67184,0 9.3461,-1.56036 12.91023,-4.67898 7.1307,-6.23935 7.1307,-16.35462 0,-22.59397 l -14.47806,-12.66936 71.55891,8.3e-4 z"
     style="fill:#757575;fill-opacity:1;stroke-width:1.36060274"
     inkscape:connector-curvature="0" /><g
     id="g3"
     transform="translate(0,182)" /><g
     id="g5"
     transform="translate(0,182)" /><g
     id="g7"
     transform="translate(0,182)" /><g
     id="g9"
     transform="translate(0,182)" /><g
     id="g11"
     transform="translate(0,182)" /><g
     id="g13"
     transform="translate(0,182)" /><g
     id="g15"
     transform="translate(0,182)" /><g
     id="g17"
     transform="translate(0,182)" /><g
     id="g19"
     transform="translate(0,182)" /><g
     id="g21"
     transform="translate(0,182)" /><g
     id="g23"
     transform="translate(0,182)" /><g
     id="g25"
     transform="translate(0,182)" /><g
     id="g27"
     transform="translate(0,182)" /><g
     id="g29"
     transform="translate(0,182)" /><g
     id="g31"
     transform="translate(0,182)" /></svg>