<?xml version="1.0" encoding="UTF-8" standalone="no"?>
<!-- Generator: Adobe Illustrator 19.0.0, SVG Export Plug-In . SVG Version: 6.00 Build 0)  -->

<svg
   xmlns:dc="http://purl.org/dc/elements/1.1/"
   xmlns:cc="http://creativecommons.org/ns#"
   xmlns:rdf="http://www.w3.org/1999/02/22-rdf-syntax-ns#"
   xmlns:svg="http://www.w3.org/2000/svg"
   xmlns="http://www.w3.org/2000/svg"
   xmlns:sodipodi="http://sodipodi.sourceforge.net/DTD/sodipodi-0.dtd"
   xmlns:inkscape="http://www.inkscape.org/namespaces/inkscape"
   version="1.1"
   id="Capa_1"
   x="0px"
   y="0px"
   viewBox="0 0 488.9 488.9"
   style="enable-background:new 0 0 488.9 488.9;"
   xml:space="preserve"
   width="512px"
   height="512px"
   sodipodi:docname="Information.svg"
   inkscape:version="0.92.2 (5c3e80d, 2017-08-06)"><metadata
     id="metadata43"><rdf:RDF><cc:Work
         rdf:about=""><dc:format>image/svg+xml</dc:format><dc:type
           rdf:resource="http://purl.org/dc/dcmitype/StillImage" /></cc:Work></rdf:RDF></metadata><defs
     id="defs41" /><sodipodi:namedview
     pagecolor="#ffffff"
     bordercolor="#666666"
     borderopacity="1"
     objecttolerance="10"
     gridtolerance="10"
     guidetolerance="10"
     inkscape:pageopacity="0"
     inkscape:pageshadow="2"
     inkscape:window-width="2560"
     inkscape:window-height="1369"
     id="namedview39"
     showgrid="false"
     inkscape:zoom="0.4609375"
     inkscape:cx="-414.37288"
     inkscape:cy="256"
     inkscape:window-x="-11"
     inkscape:window-y="-11"
     inkscape:window-maximized="1"
     inkscape:current-layer="Capa_1" /><g
     id="g6"
     transform="matrix(1,0,0,0.9375,0,15.278125)"><g
       id="g4"><path
         d="m 239.15,0 c 31.9,0 57.7,25.8 57.7,57.7 0,31.9 -25.8,57.7 -57.7,57.7 -31.9,0 -57.7,-25.8 -57.7,-57.7 0,-31.9 25.8,-57.7 57.7,-57.7 z m 52.5,151.6 h -1.5 -92.8 -3.4 c -19,0 -34.3,15.4 -34.3,34.3 v 0 c 0,19 15.4,34.3 34.3,34.3 h 3.4 v 200 h -37.7 v 68.7 h 169.6 v -68.7 h -37.5 V 151.6 Z"
         id="path2"
         inkscape:connector-curvature="0"
         style="fill:#757575" /></g></g><g
     id="g8" /><g
     id="g10" /><g
     id="g12" /><g
     id="g14" /><g
     id="g16" /><g
     id="g18" /><g
     id="g20" /><g
     id="g22" /><g
     id="g24" /><g
     id="g26" /><g
     id="g28" /><g
     id="g30" /><g
     id="g32" /><g
     id="g34" /><g
     id="g36" /></svg>