<?xml version="1.0" encoding="UTF-8" standalone="no"?>
<!-- Generator: Adobe Illustrator 19.0.0, SVG Export Plug-In . SVG Version: 6.00 Build 0)  -->

<svg
   xmlns:dc="http://purl.org/dc/elements/1.1/"
   xmlns:cc="http://creativecommons.org/ns#"
   xmlns:rdf="http://www.w3.org/1999/02/22-rdf-syntax-ns#"
   xmlns:svg="http://www.w3.org/2000/svg"
   xmlns="http://www.w3.org/2000/svg"
   xmlns:sodipodi="http://sodipodi.sourceforge.net/DTD/sodipodi-0.dtd"
   xmlns:inkscape="http://www.inkscape.org/namespaces/inkscape"
   version="1.1"
   id="Capa_1"
   x="0px"
   y="0px"
   viewBox="0 0 511.999 511.999"
   style="enable-background:new 0 0 511.999 511.999;"
   xml:space="preserve"
   width="512px"
   height="512px"
   sodipodi:docname="Info.svg"
   inkscape:version="0.92.2 (5c3e80d, 2017-08-06)"><metadata
     id="metadata49"><rdf:RDF><cc:Work
         rdf:about=""><dc:format>image/svg+xml</dc:format><dc:type
           rdf:resource="http://purl.org/dc/dcmitype/StillImage" /><dc:title /></cc:Work></rdf:RDF></metadata><defs
     id="defs47" /><sodipodi:namedview
     pagecolor="#ffffff"
     bordercolor="#666666"
     borderopacity="1"
     objecttolerance="10"
     gridtolerance="10"
     guidetolerance="10"
     inkscape:pageopacity="0"
     inkscape:pageshadow="2"
     inkscape:window-width="2560"
     inkscape:window-height="1388"
     id="namedview45"
     showgrid="false"
     inkscape:zoom="0.65186406"
     inkscape:cx="-276.3627"
     inkscape:cy="270.77907"
     inkscape:window-x="-8"
     inkscape:window-y="-8"
     inkscape:window-maximized="1"
     inkscape:current-layer="Capa_1" /><g
     style="stroke-width:1.04343295"
     id="g10"
     transform="matrix(0.93750108,0,0,0.97971342,15.999599,5.1933543)"><g
       style="stroke-width:1.04343295"
       id="g8"><path
         style="fill:#335777;stroke-width:1.04343295"
         inkscape:connector-curvature="0"
         id="path2"
         d="M 501.977,374.454 312.301,67.937 C 300.153,48.281 279.105,36.548 255.999,36.548 c -23.106,0 -44.153,11.734 -56.302,31.389 l 0.006,-0.009 -189.686,306.535 c -12.8,20.708 -13.364,45.766 -1.51,67.03 11.854,21.264 33.466,33.958 57.811,33.958 h 379.364 c 24.345,0 45.956,-12.694 57.81,-33.958 11.855,-21.264 11.291,-46.322 -1.515,-67.039 z m -33.414,47.565 c -4.693,8.416 -13.246,13.44 -22.882,13.44 H 66.318 c -9.636,0 -18.19,-5.024 -22.882,-13.44 -4.692,-8.416 -4.469,-18.335 0.592,-26.521 L 233.71,88.973 233.716,88.964 C 238.596,81.068 246.718,76.54 256,76.54 c 9.282,0 17.404,4.528 22.29,12.432 l 189.675,306.517 c 5.067,8.195 5.291,18.114 0.598,26.53 z" /></g></g><g
     id="g14" /><g
     id="g16" /><g
     id="g18" /><g
     id="g20" /><g
     id="g22" /><g
     id="g24" /><g
     id="g26" /><g
     id="g28" /><g
     id="g30" /><g
     id="g32" /><g
     id="g34" /><g
     id="g36" /><g
     id="g38" /><g
     id="g40" /><g
     id="g42" /><g
     id="g6"
     transform="matrix(0.52720051,0,0,0.49425049,127.12534,155.17997)"
     style="stroke-width:1.98643005"><g
       id="g4"
       style="stroke-width:1.98643005"><path
         d="m 239.15,0 c 31.9,0 57.7,25.8 57.7,57.7 0,31.9 -25.8,57.7 -57.7,57.7 -31.9,0 -57.7,-25.8 -57.7,-57.7 0,-31.9 25.8,-57.7 57.7,-57.7 z m 52.5,151.6 h -1.5 -92.8 -3.4 c -19,0 -34.3,15.4 -34.3,34.3 v 0 c 0,19 15.4,34.3 34.3,34.3 h 3.4 v 200 h -37.7 v 68.7 h 169.6 v -68.7 h -37.5 V 151.6 Z"
         id="path2-2"
         inkscape:connector-curvature="0"
         style="fill:#335777;stroke-width:1.98643005" /></g></g></svg>