<?xml version="1.0" encoding="UTF-8" standalone="no"?>
<!-- Generator: Adobe Illustrator 18.1.1, SVG Export Plug-In . SVG Version: 6.00 Build 0)  -->

<svg
   xmlns:dc="http://purl.org/dc/elements/1.1/"
   xmlns:cc="http://creativecommons.org/ns#"
   xmlns:rdf="http://www.w3.org/1999/02/22-rdf-syntax-ns#"
   xmlns:svg="http://www.w3.org/2000/svg"
   xmlns="http://www.w3.org/2000/svg"
   xmlns:sodipodi="http://sodipodi.sourceforge.net/DTD/sodipodi-0.dtd"
   xmlns:inkscape="http://www.inkscape.org/namespaces/inkscape"
   version="1.1"
   id="Capa_1"
   x="0px"
   y="0px"
   viewBox="0 0 511.99997 511.99997"
   xml:space="preserve"
   sodipodi:docname="Key.svg"
   width="512"
   height="512"
   inkscape:version="0.92.4 (5da689c313, 2019-01-14)"><metadata
   id="metadata44"><rdf:RDF><cc:Work
       rdf:about=""><dc:format>image/svg+xml</dc:format><dc:type
         rdf:resource="http://purl.org/dc/dcmitype/StillImage" /><dc:title></dc:title></cc:Work></rdf:RDF></metadata><defs
   id="defs42" /><sodipodi:namedview
   pagecolor="#ffffff"
   bordercolor="#666666"
   borderopacity="1"
   objecttolerance="10"
   gridtolerance="10"
   guidetolerance="10"
   inkscape:pageopacity="0"
   inkscape:pageshadow="2"
   inkscape:window-width="1920"
   inkscape:window-height="1017"
   id="namedview40"
   showgrid="false"
   inkscape:zoom="0.46087987"
   inkscape:cx="-359.3773"
   inkscape:cy="146.35676"
   inkscape:window-x="-8"
   inkscape:window-y="-8"
   inkscape:window-maximized="1"
   inkscape:current-layer="Capa_1" />
<g
   id="g7"
   style="fill:#0d8dd3;fill-opacity:1"
   transform="matrix(14.998125,0,0,15,16.000004,15.97)">
	<g
   id="key"
   style="fill:#0d8dd3;fill-opacity:1">
		<path
   style="fill:#0d8dd3;fill-opacity:1"
   d="m 22.004,0.002 c -5.523,0 -10,4.478 -10,10 0,1.285 0.269,2.501 0.713,3.629 L 0.568,25.779 C 0.217,26.131 0,26.465 0,27.002 v 3 c 0,1.07 0.929,2 2,2 h 3 c 0.536,0 0.875,-0.215 1.226,-0.564 l 1.435,-1.436 h 2.343 c 1.104,0 2,-0.896 2,-2 v -2 h 2 c 1.104,0 2,-0.896 2,-2 v -2.344 l 2.369,-2.371 c 1.129,0.445 2.344,0.715 3.631,0.715 5.521,0 10,-4.478 10,-10 0,-5.522 -4.479,-10 -10,-10 z m 0,18 c -1.48,0 -2.852,-0.43 -4.041,-1.132 l -0.344,0.343 -1.125,1.125 -1.905,1.906 c -0.375,0.375 -0.586,0.883 -0.586,1.414 v 2.344 h -2 c -1.104,0 -2,0.895 -2,2 v 2 H 7.661 c -0.53,0 -1.039,0.211 -1.414,0.586 L 4.829,30.006 2.003,30.002 2,27.152 13.665,15.507 c 0,0 0,10e-4 0.001,0.002 L 15.135,14.04 C 14.433,12.851 14.003,11.48 14.003,10 c 0,-4.418 3.583,-8 8,-8 4.417,0 8,3.582 8,8 0,4.418 -3.581,8.002 -7.999,8.002 z"
   id="path2"
   inkscape:connector-curvature="0" />
		<path
   style="fill:#0d8dd3;fill-opacity:1"
   d="M 27.82,8.241 C 26.699,6.679 25.334,5.316 23.765,4.187 23.51,4.002 23.18,3.956 22.883,4.06 21.494,4.549 20.543,5.499 20.057,6.888 20.02,6.992 20.002,7.1 20.002,7.207 c 0,0.199 0.062,0.396 0.182,0.563 1.125,1.564 2.488,2.928 4.053,4.053 0.257,0.184 0.584,0.231 0.882,0.128 1.391,-0.486 2.342,-1.438 2.83,-2.828 C 27.985,9.019 28.004,8.911 28.004,8.804 28.002,8.605 27.94,8.408 27.82,8.241 Z m -3,2.771 C 23.341,9.95 22.054,8.662 21,7.219 c 0.387,-1.103 1.111,-1.827 2.182,-2.221 1.479,1.065 2.764,2.349 3.816,3.811 -0.391,1.095 -1.113,1.815 -2.178,2.203 z"
   id="path4"
   inkscape:connector-curvature="0" />
	</g>
</g>
<g
   id="g9"
   transform="translate(0,479.996)">
</g>
<g
   id="g11"
   transform="translate(0,479.996)">
</g>
<g
   id="g13"
   transform="translate(0,479.996)">
</g>
<g
   id="g15"
   transform="translate(0,479.996)">
</g>
<g
   id="g17"
   transform="translate(0,479.996)">
</g>
<g
   id="g19"
   transform="translate(0,479.996)">
</g>
<g
   id="g21"
   transform="translate(0,479.996)">
</g>
<g
   id="g23"
   transform="translate(0,479.996)">
</g>
<g
   id="g25"
   transform="translate(0,479.996)">
</g>
<g
   id="g27"
   transform="translate(0,479.996)">
</g>
<g
   id="g29"
   transform="translate(0,479.996)">
</g>
<g
   id="g31"
   transform="translate(0,479.996)">
</g>
<g
   id="g33"
   transform="translate(0,479.996)">
</g>
<g
   id="g35"
   transform="translate(0,479.996)">
</g>
<g
   id="g37"
   transform="translate(0,479.996)">
</g>
</svg>