<?xml version="1.0" encoding="UTF-8" standalone="no"?>
<!-- Generator: Adobe Illustrator 19.0.0, SVG Export Plug-In . SVG Version: 6.00 Build 0)  -->

<svg
   xmlns:dc="http://purl.org/dc/elements/1.1/"
   xmlns:cc="http://creativecommons.org/ns#"
   xmlns:rdf="http://www.w3.org/1999/02/22-rdf-syntax-ns#"
   xmlns:svg="http://www.w3.org/2000/svg"
   xmlns="http://www.w3.org/2000/svg"
   xmlns:sodipodi="http://sodipodi.sourceforge.net/DTD/sodipodi-0.dtd"
   xmlns:inkscape="http://www.inkscape.org/namespaces/inkscape"
   version="1.1"
   id="Layer_1"
   x="0px"
   y="0px"
   viewBox="0 0 512 512"
   style="enable-background:new 0 0 512 512;"
   xml:space="preserve"
   width="512px"
   height="512px"
   sodipodi:docname="Lock.svg"
   inkscape:version="0.92.2 (5c3e80d, 2017-08-06)"><metadata
     id="metadata43"><rdf:RDF><cc:Work
         rdf:about=""><dc:format>image/svg+xml</dc:format><dc:type
           rdf:resource="http://purl.org/dc/dcmitype/StillImage" /></cc:Work></rdf:RDF></metadata><defs
     id="defs41" /><sodipodi:namedview
     pagecolor="#ffffff"
     bordercolor="#666666"
     borderopacity="1"
     objecttolerance="10"
     gridtolerance="10"
     guidetolerance="10"
     inkscape:pageopacity="0"
     inkscape:pageshadow="2"
     inkscape:window-width="2560"
     inkscape:window-height="1388"
     id="namedview39"
     showgrid="false"
     inkscape:zoom="1.84375"
     inkscape:cx="40.346085"
     inkscape:cy="339.88027"
     inkscape:window-x="-8"
     inkscape:window-y="-8"
     inkscape:window-maximized="1"
     inkscape:current-layer="Layer_1" /><g
     id="g6"
     transform="matrix(0.8328016,0,0,0.78125,42.803207,56)"
     style="stroke-width:1.23975015"><g
       id="g4"
       style="stroke-width:1.23975015"><path
         d="M 394.667,214.421 V 138.666 C 394.667,62.208 332.459,0 256,0 179.541,0 117.333,62.208 117.333,138.667 v 75.755 c -24.32,4.949 -42.667,26.496 -42.667,52.245 v 192 C 74.667,488.064 98.581,512 128,512 h 256 c 29.419,0 53.333,-23.936 53.333,-53.333 v -192 c 0,-25.75 -18.346,-47.296 -42.666,-52.246 z m -115.008,163.819 8.235,57.579 c 0.448,3.072 -0.469,6.165 -2.496,8.491 -2.027,2.325 -4.971,3.691 -8.064,3.691 h -42.667 c -3.093,0 -6.037,-1.344 -8.064,-3.669 -2.027,-2.325 -2.944,-5.44 -2.496,-8.491 l 8.235,-57.579 c -17.835,-8.917 -29.675,-27.328 -29.675,-47.595 0,-29.397 23.915,-53.333 53.333,-53.333 29.418,0 53.333,23.936 53.333,53.333 0,20.266 -11.84,38.677 -29.674,47.573 z M 330.667,213.333 H 181.333 V 138.666 C 181.333,97.493 214.827,64 256,64 c 41.173,0 74.667,33.493 74.667,74.667 z"
         id="path2"
         inkscape:connector-curvature="0"
         style="fill:#335777;stroke-width:1.23975015" /></g></g><g
     id="g8" /><g
     id="g10" /><g
     id="g12" /><g
     id="g14" /><g
     id="g16" /><g
     id="g18" /><g
     id="g20" /><g
     id="g22" /><g
     id="g24" /><g
     id="g26" /><g
     id="g28" /><g
     id="g30" /><g
     id="g32" /><g
     id="g34" /><g
     id="g36" /></svg>