<?xml version="1.0"?>
<svg xmlns="http://www.w3.org/2000/svg" height="512px" viewBox="1 1 511.999 511.999" width="512px"><path d="m45 392.015625s240.355469-.046875 242.011719-.046875c22.160156 0 44.316406-6.960938 62.882812-20.863281l20.90625 20.910156-10.605469 10.609375c-5.859374 5.855469-5.859374 15.355469 0 21.210938l75.003907 75.003906c8.773437 8.773437 20.296875 13.160156 31.820312 13.160156 11.523438 0 23.046875-4.386719 31.820313-13.160156 17.546875-17.546875 17.546875-46.097656 0-63.644532l-75.003906-75c-5.855469-5.859374-15.355469-5.859374-21.210938 0l-10.609375 10.605469-20.910156-20.90625c30.5625-40.816406 27.53125-98.984375-9.089844-136.359375v-77.53125c0-8.28125-6.71875-15-15-15h-45.003906v-106.003906c0-8.285156-6.714844-15-15-15h-272.011719c-8.285156 0-15 6.714844-15 15v332.015625c0 24.8125 20.1875 45 45 45zm432.625 64.394531c5.851562 5.851563 5.851562 15.367188 0 21.214844-5.847656 5.851562-15.363281 5.851562-21.214844 0l-64.394531-64.394531 21.214844-21.214844zm-137.578125-222.433594c29.242187 29.246094 29.242187 76.828126 0 106.070313s-76.828125 29.242187-106.070313 0c-29.242187-29.242187-29.242187-76.828125 0-106.070313 29.242188-29.242187 76.824219-29.246093 106.070313 0zm-8.035156-82.96875v41.132813c-9.574219-4.53125-19.695313-7.539063-30-9.015625v-32.117188zm-302.011719-121.007812h242.011719v153.125c-21.695313 3.105469-42.59375 12.984375-59.25 29.636719-8.742188 8.746093-15.613281 18.664062-20.621094 29.25h-117.136719c-8.285156 0-15 6.714843-15 15 0 8.28125 6.714844 14.988281 15 14.988281h108.121094c-1.421875 9.945312-1.421875 20.066406 0 30.011719h-108.121094c-8.285156 0-15 6.71875-15 15 0 8.285156 6.714844 15 15 15h117.136719c5.007813 10.585937 11.878906 20.503906 20.621094 29.25.257812.253906.515625.5.773437.753906h-168.535156c-8.269531 0-15-6.730469-15-15zm0 0" fill="#0d8dd3"/><path d="m75.003906 151.007812h152.003906c8.285157 0 15.003907-6.71875 15.003907-15.003906v-60c0-8.285156-6.71875-15-15.003907-15h-152.003906c-8.285156 0-15 6.714844-15 15v60c0 8.285156 6.714844 15.003906 15 15.003906zm15-60.003906h122.003906v30h-122.003906zm0 0" fill="#0d8dd3"/><path d="m75.003906 212.007812h92.003906c8.285157 0 15-6.714843 15-15 0-8.285156-6.714843-15-15-15h-92.003906c-8.285156 0-15 6.714844-15 15 0 8.285157 6.714844 15 15 15zm0 0" fill="#0d8dd3"/></svg>
