<?xml version="1.0" encoding="UTF-8" standalone="no"?>
<svg
   xmlns:dc="http://purl.org/dc/elements/1.1/"
   xmlns:cc="http://creativecommons.org/ns#"
   xmlns:rdf="http://www.w3.org/1999/02/22-rdf-syntax-ns#"
   xmlns:svg="http://www.w3.org/2000/svg"
   xmlns="http://www.w3.org/2000/svg"
   xmlns:sodipodi="http://sodipodi.sourceforge.net/DTD/sodipodi-0.dtd"
   xmlns:inkscape="http://www.inkscape.org/namespaces/inkscape"
   version="1.1"
   viewBox="1px 1px 511.999px 511.999px"
   xml:space="preserve"
   width="512px"
   height="512px"
   id="svg36"
   sodipodi:docname="Log.svg"
   inkscape:version="0.92.2 (5c3e80d, 2017-08-06)"><metadata
     id="metadata42"><rdf:RDF><cc:Work
         rdf:about=""><dc:format>image/svg+xml</dc:format><dc:type
           rdf:resource="http://purl.org/dc/dcmitype/StillImage" /></cc:Work></rdf:RDF></metadata><defs
     id="defs40" /><sodipodi:namedview
     pagecolor="#ffffff"
     bordercolor="#666666"
     borderopacity="1"
     objecttolerance="10"
     gridtolerance="10"
     guidetolerance="10"
     inkscape:pageopacity="0"
     inkscape:pageshadow="2"
     inkscape:window-width="1920"
     inkscape:window-height="1148"
     id="namedview38"
     showgrid="false"
     inkscape:zoom="0.4609375"
     inkscape:cx="-1021.8305"
     inkscape:cy="256"
     inkscape:window-x="-8"
     inkscape:window-y="-8"
     inkscape:window-maximized="1"
     inkscape:current-layer="g4" /><g
     id="g4"
     transform="matrix(15.859675,0,0,14.995782,15.184421,15.999994)"
     style="stroke-width:0.97482431"><path
       d="M 20.509242,9.2600009 H 6.2282419 v -1.725 H 20.509242 Z m -8.913,1.5800001 H 6.2282419 v 1.724 h 5.3680001 z m 4.887,-6.6080001 H 6.2282419 v 1.725 H 16.483242 Z m -4.887,9.9110001 H 6.2282419 v 1.725 h 5.3680001 z m 9.112,10.943 1.127,1.651 h 0.03 c 0.231,0 0.453,-0.042 0.668,-0.103 l -1.056,-1.548 z m -4.583,-6.717 4.583,6.717 h -1.443 l -3.849,-5.641 -0.888,-1.301 c -0.07,-0.084 -0.136,-0.171 -0.189,-0.277 l -0.051,-0.074 0.018,-0.012 c -0.044,-0.1 -0.093,-0.197 -0.121,-0.316 l -1.211,-5.127 c -0.169,-0.715 0.013,-1.115 0.422,-1.115 0.203,0 0.463,0.098 0.763,0.306 l 4.333,2.998 c 0.099,0.07 0.183,0.144 0.26,0.222 l 0.012,-0.008 0.043,0.062 c 0.096,0.103 0.168,0.215 0.225,0.328 l 0.859,1.26 3.095,4.536 v 2.643 c 0,0.822 -0.513,1.516 -1.121,1.516 h -0.388 l -4.813,-7.053 -0.367,0.25 c -0.057,0.039 -0.114,0.057 -0.172,0.086 z m 1.773,-3.039 -3.812,-2.638 1.066,4.511 z m -12.9920001,9.756 c -0.608,0 -1.121,-0.695 -1.121,-1.516 V 3.1660009 c 0,-0.821 0.513,-1.515 1.121,-1.515 H 21.865242 c 0.608,0 1.121,0.695 1.121,1.515 V 20.927001 l 1.652,2.421 V 3.1660009 c 0,-1.746 -1.244,-3.16600003435658 -2.773,-3.16600003435658 H 4.9062419 c -1.529,0 -2.773,1.42000003435658 -2.773,3.16600003435658 V 23.570001 c 0,1.746 1.244,3.167 2.773,3.167 H 20.391242 l -1.127,-1.651 z m 1.322,-2.612 h 8.0870001 v -1.724 H 6.2282419 Z m 21.9860001,6.759 c -0.009,0.631 -0.31,1.25 -0.868,1.631 l -1.172,0.799 c -0.342,0.235 -0.734,0.346 -1.122,0.346 -0.227,0 -0.448,-0.051 -0.662,-0.125 -0.343,-0.06 -0.638,-0.222 -0.822,-0.492 -0.029,-0.041 -0.044,-0.088 -0.066,-0.133 -0.034,-0.041 -0.076,-0.074 -0.107,-0.12 l -3.004,-4.402 h 1.443 l 0.364,0.534 0.525,-0.357 -0.191,-0.28 c 1.206,-0.344 2.105,-1.582 2.105,-3.064 v -0.223 l 3.232,4.737 c 0.034,0.051 0.056,0.104 0.085,0.156 0.029,0.034 0.063,0.061 0.088,0.098 0.177,0.257 0.226,0.572 0.172,0.895 z m -1.707,-1.374 -1.078,-1.578 -2.824,1.928 1.078,1.578 c 0.173,-0.271 0.409,-0.527 0.711,-0.732 l 1.172,-0.801 c 0.301,-0.206 0.625,-0.333 0.941,-0.395 z m -13.993,-10.414 H 6.2282419 v 1.725 h 6.2860001 z"
       id="path2"
       inkscape:connector-curvature="0"
       style="fill:#335777;stroke-width:0.97482431"
       sodipodi:nodetypes="ccccccccccccccccccccccscccccccccccccsccccccccssccccccccssssssccssssssccsccccccccscccccccccsccccccccccccccccc" /></g><g
     id="g6" /><g
     id="g8" /><g
     id="g10" /><g
     id="g12" /><g
     id="g14" /><g
     id="g16" /><g
     id="g18" /><g
     id="g20" /><g
     id="g22" /><g
     id="g24" /><g
     id="g26" /><g
     id="g28" /><g
     id="g30" /><g
     id="g32" /><g
     id="g34" /></svg>