<?xml version="1.0" encoding="UTF-8" standalone="no"?>
<svg
   xmlns:dc="http://purl.org/dc/elements/1.1/"
   xmlns:cc="http://creativecommons.org/ns#"
   xmlns:rdf="http://www.w3.org/1999/02/22-rdf-syntax-ns#"
   xmlns:svg="http://www.w3.org/2000/svg"
   xmlns="http://www.w3.org/2000/svg"
   xmlns:xlink="http://www.w3.org/1999/xlink"
   xmlns:sodipodi="http://sodipodi.sourceforge.net/DTD/sodipodi-0.dtd"
   xmlns:inkscape="http://www.inkscape.org/namespaces/inkscape"
   height="512px"
   viewBox="-19 0 512 512"
   width="512px"
   version="1.1"
   id="svg8"
   sodipodi:docname="ManualProcessingHighlight.svg"
   inkscape:version="0.92.4 (5da689c313, 2019-01-14)">
  <metadata
     id="metadata14">
    <rdf:RDF>
      <cc:Work
         rdf:about="">
        <dc:format>image/svg+xml</dc:format>
        <dc:type
           rdf:resource="http://purl.org/dc/dcmitype/StillImage" />
        <dc:title />
      </cc:Work>
    </rdf:RDF>
  </metadata>
  <defs
     id="defs12">
    <linearGradient
       inkscape:collect="always"
       id="linearGradient6977">
      <stop
         style="stop-color:#fff000;stop-opacity:1;"
         offset="0"
         id="stop6973" />
      <stop
         style="stop-color:#fff000;stop-opacity:0;"
         offset="1"
         id="stop6975" />
    </linearGradient>
    <linearGradient
       inkscape:collect="always"
       id="linearGradient6969">
      <stop
         style="stop-color:#ffa800;stop-opacity:1;"
         offset="0"
         id="stop6965" />
      <stop
         style="stop-color:#ffa800;stop-opacity:0;"
         offset="1"
         id="stop6967" />
    </linearGradient>
    <linearGradient
       id="linearGradient6955"
       inkscape:collect="always">
      <stop
         id="stop6951"
         offset="0"
         style="stop-color:#ffc100;stop-opacity:1;" />
      <stop
         id="stop6953"
         offset="1"
         style="stop-color:#fff500;stop-opacity:1" />
    </linearGradient>
    <linearGradient
       inkscape:collect="always"
       xlink:href="#linearGradient6955"
       id="linearGradient6901"
       x1="268.13443"
       y1="134.564"
       x2="257.81589"
       y2="221.34366"
       gradientUnits="userSpaceOnUse" />
    <linearGradient
       inkscape:collect="always"
       xlink:href="#linearGradient6955"
       id="linearGradient6963"
       x1="227.67244"
       y1="129.35144"
       x2="433.42841"
       y2="345.21585"
       gradientUnits="userSpaceOnUse" />
    <linearGradient
       inkscape:collect="always"
       xlink:href="#linearGradient6969"
       id="linearGradient6971"
       x1="322.56262"
       y1="698.67816"
       x2="-21.525427"
       y2="-31.898136"
       gradientUnits="userSpaceOnUse" />
    <linearGradient
       inkscape:collect="always"
       xlink:href="#linearGradient6977"
       id="linearGradient6979"
       x1="-333.57626"
       y1="190.91525"
       x2="651.37286"
       y2="495.72882"
       gradientUnits="userSpaceOnUse" />
  </defs>
  <sodipodi:namedview
     pagecolor="#ffffff"
     bordercolor="#666666"
     borderopacity="1"
     objecttolerance="10"
     gridtolerance="10"
     guidetolerance="10"
     inkscape:pageopacity="0"
     inkscape:pageshadow="2"
     inkscape:window-width="3000"
     inkscape:window-height="1875"
     id="namedview10"
     showgrid="false"
     inkscape:zoom="0.921875"
     inkscape:cx="742.33722"
     inkscape:cy="-4.5257048"
     inkscape:window-x="-13"
     inkscape:window-y="-13"
     inkscape:window-maximized="1"
     inkscape:current-layer="svg8"
     showguides="false" />
  <path
     style="fill:url(#linearGradient6979);fill-opacity:1;stroke-width:10;stroke:url(#linearGradient6971);stroke-opacity:1;stroke-miterlimit:4;stroke-dasharray:none"
     inkscape:connector-curvature="0"
     d="m 304.19629,170.71008 c -11.39012,-12.21519 -28.88656,-13.773 -42.58629,-3.79855 l -119.52062,85.69179 c -4.19152,2.40661 -7.46181,4.16279 -10.7387,4.88152 -0.38163,0.078 -0.74683,0.1496 -1.09229,0.21465 1.19099,-3.93189 2.68468,-8.54024 4.15204,-13.04776 5.42857,-16.72598 7.75791,-24.40113 7.83358,-29.57861 0.57247,-10.52081 0.12503,-24.12145 -8.0277,-36.67487 l -0.0658,-0.10083 c -4.43169,-6.68323 -13.17662,-12.92092 -20.79963,-14.82995 -8.25472,-2.06839 -15.318435,-1.32038 -20.993754,2.22449 -5.520694,3.45057 -9.116709,9.11262 -10.682768,16.83005 -3.799997,17.53253 -10.567612,35.60491 -20.691069,55.2481 -1.733852,3.29772 -3.438093,7.09951 -5.089694,10.781 -2.092467,4.67012 -4.257313,9.50287 -6.326749,12.95669 l -0.111861,0.19188 c -7.971771,13.87706 -9.998436,26.98011 -10.867007,36.79521 -0.03947,0.41302 -4.112551,41.57266 -25.326737,76.19541 -10.3767901,17.0512 -7.6526359,38.91563 6.665623,53.21222 l 61.086195,60.38329 0.569178,0.53012 C 87.043703,493.58363 93.949504,496 100.84213,496 c 5.89576,0 11.77835,-1.76919 16.72329,-5.35634 l 6.7709,-4.84251 c 3.45783,-2.47491 7.09662,-4.77745 10.88017,-6.88487 7.18545,-4.00019 14.52882,-7.1418 21.8327,-9.34677 32.47601,-9.79884 63.79061,-28.44685 84.48827,-42.48653 6.307,-3.66522 10.52812,-9.9842 11.9231,-17.88701 l 0.0921,-0.61467 c 7.29073,-58.29214 -10.62684,-108.38877 -18.92432,-127.72301 l 67.63667,-66.83888 c 11.9922,-11.86396 12.98908,-30.29409 2.31947,-42.87028 z m 0,0"
     id="path2" />
  <path
     style="fill:#fff500;fill-opacity:1;stroke-width:10;stroke:url(#linearGradient6901);stroke-miterlimit:4;stroke-dasharray:none"
     inkscape:connector-curvature="0"
     d="m 390.20114,87.323242 c -32.47689,-31.402588 -85.32616,-31.402588 -117.80306,0 -5.68487,5.496826 -5.68487,14.406738 0,19.899908 5.6811,5.49316 14.89582,5.49316 20.57691,0 21.13365,-20.430913 55.5156,-20.430913 76.64925,0 21.12986,20.43456 21.12986,53.67919 0,74.11376 -5.68487,5.49317 -5.68487,14.40308 0,19.89624 2.84054,2.74659 6.56355,4.12354 10.29035,4.12354 3.723,0 7.44602,-1.37695 10.28655,-4.12354 32.48068,-31.40625 32.48068,-82.50365 0,-113.909908 z m 0,0"
     id="path4" />
  <path
     style="fill:#fff500;fill-opacity:1;stroke-width:10;stroke:url(#linearGradient6963);stroke-miterlimit:4;stroke-dasharray:none;stroke-opacity:1"
     inkscape:connector-curvature="0"
     d="M 427.56756,54.188477 C 402.10113,29.560791 368.23806,16 332.21616,16 c -36.0181,0 -69.88117,13.560791 -95.3514,38.188477 -5.68108,5.496825 -5.68108,14.403076 0,19.899902 5.68489,5.493163 14.89582,5.493163 20.5807,0 19.97471,-19.310303 46.52812,-29.948731 74.7707,-29.948731 28.24638,0 54.79979,10.638428 74.7745,29.948731 41.22956,39.865731 41.22956,104.729001 0,144.594721 -5.68488,5.49683 -5.68488,14.40308 0,19.8999 2.84054,2.74659 6.56355,4.11988 10.28655,4.11988 3.72301,0 7.44981,-1.37329 10.29035,-4.11988 52.57659,-50.8374 52.57659,-133.55712 0,-184.394523 z m 0,0"
     id="path6" />
</svg>
