<svg height="512pt" viewBox="0 0 512 512" width="512pt" xmlns="http://www.w3.org/2000/svg"><path d="m301.023438 190.152344h-30.035157v-70.054688h-60.035156v30h30.035156v40.054688h-30.035156v30h90.070313zm0 0"/><path d="m240.976562 60.046875h30.023438v30h-30.023438zm0 0"/><path d="m401.898438 121.710938v-121.710938h-291.824219v121.710938h-110.074219v390.289062h511.976562v-390.289062zm80.078124 30v270.242187h-187.089843c-8.578125 0-16.691407 2.023437-23.898438 5.605469v-113.109375l31.246094-31.246094h99.664063v-131.492187zm-341.902343-121.710938h231.824219v223.203125h-82.089844l-33.820313 33.816406-33.820312-33.816406h-82.09375zm-30 121.710938v131.492187h99.667969l31.246093 31.246094v113.109375c-7.207031-3.582032-15.320312-5.605469-23.898437-5.605469h-187.089844v-270.238281h80.074219zm-80.074219 300.242187h187.089844c13.175781 0 23.898437 10.71875 23.898437 23.898437v6.148438h-210.988281zm240.988281 30.046875v-6.148438c0-13.179687 10.722657-23.898437 23.898438-23.898437h187.089843v30.046875zm0 0"/></svg>