<?xml version="1.0" encoding="UTF-8" standalone="no"?>
<!-- Generator: Adobe Illustrator 18.1.1, SVG Export Plug-In . SVG Version: 6.00 Build 0)  -->

<svg
   xmlns:dc="http://purl.org/dc/elements/1.1/"
   xmlns:cc="http://creativecommons.org/ns#"
   xmlns:rdf="http://www.w3.org/1999/02/22-rdf-syntax-ns#"
   xmlns:svg="http://www.w3.org/2000/svg"
   xmlns="http://www.w3.org/2000/svg"
   xmlns:sodipodi="http://sodipodi.sourceforge.net/DTD/sodipodi-0.dtd"
   xmlns:inkscape="http://www.inkscape.org/namespaces/inkscape"
   version="1.1"
   id="Capa_1"
   x="0px"
   y="0px"
   viewBox="0 0 55.625 55.625"
   style="enable-background:new 0 0 55.625 55.625;"
   xml:space="preserve"
   sodipodi:docname="New.svg"
   inkscape:version="0.92.4 (5da689c313, 2019-01-14)"><metadata
   id="metadata41"><rdf:RDF><cc:Work
       rdf:about=""><dc:format>image/svg+xml</dc:format><dc:type
         rdf:resource="http://purl.org/dc/dcmitype/StillImage" /><dc:title></dc:title></cc:Work></rdf:RDF></metadata><defs
   id="defs39" /><sodipodi:namedview
   pagecolor="#ffffff"
   bordercolor="#666666"
   borderopacity="1"
   objecttolerance="10"
   gridtolerance="10"
   guidetolerance="10"
   inkscape:pageopacity="0"
   inkscape:pageshadow="2"
   inkscape:window-width="2560"
   inkscape:window-height="1377"
   id="namedview37"
   showgrid="false"
   inkscape:zoom="4.2426966"
   inkscape:cx="27.8125"
   inkscape:cy="27.8125"
   inkscape:window-x="-8"
   inkscape:window-y="-8"
   inkscape:window-maximized="1"
   inkscape:current-layer="Capa_1" />
<g
   id="g4"
   style="fill:#335777;fill-opacity:1">
	<path
   style="fill:#335777;fill-opacity:1"
   d="M50.274,17.877c0-0.001,0-0.002,0-0.004c-0.034-0.17-0.097-0.33-0.173-0.484   c-0.019-0.04-0.04-0.077-0.061-0.115c-0.087-0.152-0.188-0.298-0.313-0.424L33.463,0.586c-0.126-0.126-0.271-0.227-0.424-0.313   c-0.038-0.021-0.074-0.042-0.113-0.061C32.654,0.079,32.357,0,32.049,0H7.312c-1.104,0-2,0.896-2,2v51.625c0,1.105,0.896,2,2,2h41   c1.104,0,2-0.895,2-2V18.264C50.312,18.133,50.299,18.004,50.274,17.877z M43.483,16.264h-9.435V6.828l4.718,4.718L43.483,16.264z    M9.312,51.625V4h20.736v14.264c0,1.104,0.896,2,2,2h14.264v31.361H9.312z"
   id="path2" />
</g>
<g
   id="g6">
</g>
<g
   id="g8">
</g>
<g
   id="g10">
</g>
<g
   id="g12">
</g>
<g
   id="g14">
</g>
<g
   id="g16">
</g>
<g
   id="g18">
</g>
<g
   id="g20">
</g>
<g
   id="g22">
</g>
<g
   id="g24">
</g>
<g
   id="g26">
</g>
<g
   id="g28">
</g>
<g
   id="g30">
</g>
<g
   id="g32">
</g>
<g
   id="g34">
</g>
</svg>