<?xml version="1.0" encoding="UTF-8" standalone="no"?>
<!-- Generator: Adobe Illustrator 17.1.0, SVG Export Plug-In . SVG Version: 6.00 Build 0)  -->

<svg
   xmlns:dc="http://purl.org/dc/elements/1.1/"
   xmlns:cc="http://creativecommons.org/ns#"
   xmlns:rdf="http://www.w3.org/1999/02/22-rdf-syntax-ns#"
   xmlns:svg="http://www.w3.org/2000/svg"
   xmlns="http://www.w3.org/2000/svg"
   xmlns:sodipodi="http://sodipodi.sourceforge.net/DTD/sodipodi-0.dtd"
   xmlns:inkscape="http://www.inkscape.org/namespaces/inkscape"
   version="1.1"
   id="Capa_1"
   x="0px"
   y="0px"
   viewBox="0 0 511.99998 511.99998"
   xml:space="preserve"
   sodipodi:docname="Open.svg"
   inkscape:version="0.92.4 (5da689c313, 2019-01-14)"
   width="512"
   height="512"><metadata
   id="metadata39"><rdf:RDF><cc:Work
       rdf:about=""><dc:format>image/svg+xml</dc:format><dc:type
         rdf:resource="http://purl.org/dc/dcmitype/StillImage" /><dc:title></dc:title></cc:Work></rdf:RDF></metadata><defs
   id="defs37" /><sodipodi:namedview
   pagecolor="#ffffff"
   bordercolor="#666666"
   borderopacity="1"
   objecttolerance="10"
   gridtolerance="10"
   guidetolerance="10"
   inkscape:pageopacity="0"
   inkscape:pageshadow="2"
   inkscape:window-width="2560"
   inkscape:window-height="1377"
   id="namedview35"
   showgrid="false"
   inkscape:zoom="0.8545863"
   inkscape:cx="-117.60076"
   inkscape:cy="138.07851"
   inkscape:window-x="-8"
   inkscape:window-y="-8"
   inkscape:window-maximized="1"
   inkscape:current-layer="Capa_1" />
<path
   style="fill:#235577;fill-opacity:1;stroke-width:1.79792655"
   d="m 490.98659,187.84414 c -5.744,-8.63753 -15.42178,-13.59234 -26.55296,-13.59234 h -42.36638 v -49.15832 c 0,-18.94462 -14.4453,-34.356964 -32.20123,-34.356964 h -148.5121 c -6.3184,0 -16.17894,-5.341109 -19.90558,-10.782507 L 210.33283,63.731942 c -8.6717,-12.6545 -26.29014,-22.200165 -40.98434,-22.200165 h -51.46106 c -16.17546,0 -32.443168,12.27194 -37.837312,28.547846 L 76.511466,80.76186 c -1.667504,5.032826 -8.217405,9.974656 -13.221654,9.974656 H 47.861068 c -17.755938,0 -32.201229,15.412344 -32.201229,34.356964 v 310.27121 c 0,1.64357 0.280231,3.21284 0.771083,4.67812 0.264574,6.13968 2.053914,11.93023 5.314073,16.83305 5.744004,8.63938 15.421784,13.59236 26.552963,13.59236 H 376.37806 c 19.83421,0 40.50392,-15.64449 47.05731,-35.61795 L 494.23806,219.0737 c 3.67616,-11.20781 2.49254,-22.59018 -3.25147,-31.22956 z M 47.861068,118.59351 h 15.428744 c 16.17894,0 32.444909,-12.27193 37.837318,-28.547853 l 3.53691,-10.678513 c 1.66924,-5.034687 8.21915,-9.976509 13.22339,-9.976509 h 51.45932 c 6.3184,0 16.17895,5.341113 19.90732,10.782514 l 11.11552,16.220194 c 8.67171,12.656367 26.29013,22.200167 40.98433,22.200167 h 148.5121 c 3.30367,0 6.09213,2.97698 6.09213,6.49997 V 174.2518 H 136.35354 c -19.83422,0 -40.503939,15.64448 -47.057321,35.61795 L 41.768944,354.71311 V 125.09348 c 0,-3.52299 2.790193,-6.49997 6.092124,-6.49997 z m 421.733462,91.27624 -70.80268,215.77658 c -2.91378,8.87893 -13.59762,16.9649 -22.41379,16.9649 H 48.297958 c -2.520396,0 -4.485543,-0.69271 -5.256635,-1.85343 -0.771083,-1.16071 -0.73627,-3.36883 0.09748,-5.90753 L 113.94148,219.0737 c 2.91378,-8.87897 13.59762,-16.96491 22.4138,-16.96491 h 328.0801 c 2.52039,0 4.48554,0.69271 5.25837,1.85342 0.76934,1.16071 0.73453,3.36883 -0.0992,5.90754 z"
   id="path2"
   inkscape:connector-curvature="0" />
<g
   id="g4"
   transform="translate(0,235.84299)">
</g>
<g
   id="g6"
   transform="translate(0,235.84299)">
</g>
<g
   id="g8"
   transform="translate(0,235.84299)">
</g>
<g
   id="g10"
   transform="translate(0,235.84299)">
</g>
<g
   id="g12"
   transform="translate(0,235.84299)">
</g>
<g
   id="g14"
   transform="translate(0,235.84299)">
</g>
<g
   id="g16"
   transform="translate(0,235.84299)">
</g>
<g
   id="g18"
   transform="translate(0,235.84299)">
</g>
<g
   id="g20"
   transform="translate(0,235.84299)">
</g>
<g
   id="g22"
   transform="translate(0,235.84299)">
</g>
<g
   id="g24"
   transform="translate(0,235.84299)">
</g>
<g
   id="g26"
   transform="translate(0,235.84299)">
</g>
<g
   id="g28"
   transform="translate(0,235.84299)">
</g>
<g
   id="g30"
   transform="translate(0,235.84299)">
</g>
<g
   id="g32"
   transform="translate(0,235.84299)">
</g>
</svg>