<?xml version="1.0" encoding="UTF-8" standalone="no"?>
<!-- Generator: Adobe Illustrator 19.0.0, SVG Export Plug-In . SVG Version: 6.00 Build 0)  -->

<svg
   xmlns:dc="http://purl.org/dc/elements/1.1/"
   xmlns:cc="http://creativecommons.org/ns#"
   xmlns:rdf="http://www.w3.org/1999/02/22-rdf-syntax-ns#"
   xmlns:svg="http://www.w3.org/2000/svg"
   xmlns="http://www.w3.org/2000/svg"
   xmlns:sodipodi="http://sodipodi.sourceforge.net/DTD/sodipodi-0.dtd"
   xmlns:inkscape="http://www.inkscape.org/namespaces/inkscape"
   version="1.1"
   id="Capa_1"
   x="0px"
   y="0px"
   viewBox="0 0 56 56"
   style="enable-background:new 0 0 56 56;"
   xml:space="preserve"
   sodipodi:docname="Parameters2.svg"
   inkscape:version="0.92.2 (5c3e80d, 2017-08-06)"><metadata
     id="metadata45"><rdf:RDF><cc:Work
         rdf:about=""><dc:format>image/svg+xml</dc:format><dc:type
           rdf:resource="http://purl.org/dc/dcmitype/StillImage" /></cc:Work></rdf:RDF></metadata><defs
     id="defs43" /><sodipodi:namedview
     pagecolor="#ffffff"
     bordercolor="#666666"
     borderopacity="1"
     objecttolerance="10"
     gridtolerance="10"
     guidetolerance="10"
     inkscape:pageopacity="0"
     inkscape:pageshadow="2"
     inkscape:window-width="2560"
     inkscape:window-height="1388"
     id="namedview41"
     showgrid="false"
     inkscape:zoom="4.2142857"
     inkscape:cx="-5.1016949"
     inkscape:cy="28"
     inkscape:window-x="-8"
     inkscape:window-y="-8"
     inkscape:window-maximized="1"
     inkscape:current-layer="Capa_1" /><g
     id="g8"
     style="fill:#757575;fill-opacity:1"><path
       d="M8,41.08V2c0-0.553-0.448-1-1-1S6,1.447,6,2v39.08C2.613,41.568,0,44.481,0,48c0,3.859,3.14,7,7,7s7-3.141,7-7   C14,44.481,11.387,41.568,8,41.08z"
       id="path2"
       style="fill:#757575;fill-opacity:1" /><path
       d="M29,20.695V2c0-0.553-0.448-1-1-1s-1,0.447-1,1v18.632c-3.602,0.396-6.414,3.456-6.414,7.161s2.812,6.765,6.414,7.161V54   c0,0.553,0.448,1,1,1s1-0.447,1-1V34.891c3.4-0.577,6-3.536,6-7.098S32.4,21.272,29,20.695z"
       id="path4"
       style="fill:#757575;fill-opacity:1" /><path
       d="M56,8c0-3.859-3.14-7-7-7s-7,3.141-7,7c0,3.519,2.613,6.432,6,6.92V54c0,0.553,0.448,1,1,1s1-0.447,1-1V14.92   C53.387,14.432,56,11.519,56,8z"
       id="path6"
       style="fill:#757575;fill-opacity:1" /></g><g
     id="g10" /><g
     id="g12" /><g
     id="g14" /><g
     id="g16" /><g
     id="g18" /><g
     id="g20" /><g
     id="g22" /><g
     id="g24" /><g
     id="g26" /><g
     id="g28" /><g
     id="g30" /><g
     id="g32" /><g
     id="g34" /><g
     id="g36" /><g
     id="g38" /></svg>