<?xml version="1.0" encoding="UTF-8" standalone="no"?>
<!-- Generator: Adobe Illustrator 19.1.0, SVG Export Plug-In . SVG Version: 6.00 Build 0)  -->

<svg
   xmlns:dc="http://purl.org/dc/elements/1.1/"
   xmlns:cc="http://creativecommons.org/ns#"
   xmlns:rdf="http://www.w3.org/1999/02/22-rdf-syntax-ns#"
   xmlns:svg="http://www.w3.org/2000/svg"
   xmlns="http://www.w3.org/2000/svg"
   xmlns:sodipodi="http://sodipodi.sourceforge.net/DTD/sodipodi-0.dtd"
   xmlns:inkscape="http://www.inkscape.org/namespaces/inkscape"
   version="1.1"
   id="Capa_1"
   x="0px"
   y="0px"
   viewBox="0 0 470 470"
   style="enable-background:new 0 0 470 470;"
   xml:space="preserve"
   width="512px"
   height="512px"
   sodipodi:docname="Paste.svg"
   inkscape:version="0.92.1 r15371"><metadata
     id="metadata75"><rdf:RDF><cc:Work
         rdf:about=""><dc:format>image/svg+xml</dc:format><dc:type
           rdf:resource="http://purl.org/dc/dcmitype/StillImage" /></cc:Work></rdf:RDF></metadata><defs
     id="defs73" /><sodipodi:namedview
     pagecolor="#ffffff"
     bordercolor="#666666"
     borderopacity="1"
     objecttolerance="10"
     gridtolerance="10"
     guidetolerance="10"
     inkscape:pageopacity="0"
     inkscape:pageshadow="2"
     inkscape:window-width="1920"
     inkscape:window-height="1018"
     id="namedview71"
     showgrid="false"
     inkscape:zoom="0.4609375"
     inkscape:cx="256"
     inkscape:cy="256"
     inkscape:window-x="-8"
     inkscape:window-y="-8"
     inkscape:window-maximized="1"
     inkscape:current-layer="g6" /><g
     id="g38"><g
       id="g6"><path
         d="M 418.861,217.325 317.486,115.95 c -3.079,-3.958 -7.836,-6.244 -12.85,-6.175 -0.746,0.023 -1.489,0.225 -2.225,0.225 H 160.887 c -8.836,0 -15.999,7.164 -16,16 v 328 c 0.001,8.836 7.164,15.999 16,16 h 248 c 8.836,-10e-4 16,-7.164 16,-16 V 232.6 c 1,-5.813 -1.359,-11.681 -6.026,-15.275 z m -97.974,-52.7 49.374,49.375 h -49.375 v -49.375 z"
         id="path2"
         style="fill:#0d8dd3;stroke:none;stroke-opacity:1"
         inkscape:connector-curvature="0"
         sodipodi:nodetypes="cccssccccsccccccc" /><path
         d="M84.887,50h10v10c0.001,5.236,2.156,10.439,5.858,14.142c3.702,3.702,8.906,5.858,14.142,5.858h180    c5.236-0.001,10.439-2.156,14.142-5.858c3.702-3.702,5.858-8.906,5.858-14.142V50h10v45.969c2.412,1.668,4.641,3.642,6.656,5.906    l0.094-0.094l33.25,33.25V30c0-5.236-2.156-10.439-5.858-14.142C355.326,12.156,350.122,10,344.887,10h-32.719    c-3.484-6.034-10.313-9.986-17.281-10h-180c-6.968,0.014-13.797,3.966-17.281,10H64.887c-5.236,0-10.439,2.156-14.142,5.858    C47.043,19.56,44.887,24.764,44.887,30v360c0.001,5.236,2.156,10.439,5.858,14.142c3.702,3.702,8.906,5.858,14.142,5.858h60v-40    h-40V50z"
         fill="#0d8dd3"
         id="path4" /></g><g
       id="g8" /><g
       id="g10" /><g
       id="g12" /><g
       id="g14" /><g
       id="g16" /><g
       id="g18" /><g
       id="g20" /><g
       id="g22" /><g
       id="g24" /><g
       id="g26" /><g
       id="g28" /><g
       id="g30" /><g
       id="g32" /><g
       id="g34" /><g
       id="g36" /></g><g
     id="g40" /><g
     id="g42" /><g
     id="g44" /><g
     id="g46" /><g
     id="g48" /><g
     id="g50" /><g
     id="g52" /><g
     id="g54" /><g
     id="g56" /><g
     id="g58" /><g
     id="g60" /><g
     id="g62" /><g
     id="g64" /><g
     id="g66" /><g
     id="g68" /></svg>