<?xml version="1.0" encoding="UTF-8" standalone="no"?>
<!-- Generator: Adobe Illustrator 19.1.0, SVG Export Plug-In . SVG Version: 6.00 Build 0)  -->

<svg
   xmlns:dc="http://purl.org/dc/elements/1.1/"
   xmlns:cc="http://creativecommons.org/ns#"
   xmlns:rdf="http://www.w3.org/1999/02/22-rdf-syntax-ns#"
   xmlns:svg="http://www.w3.org/2000/svg"
   xmlns="http://www.w3.org/2000/svg"
   xmlns:sodipodi="http://sodipodi.sourceforge.net/DTD/sodipodi-0.dtd"
   xmlns:inkscape="http://www.inkscape.org/namespaces/inkscape"
   version="1.1"
   id="Capa_1"
   x="0px"
   y="0px"
   viewBox="0 0 470 470"
   style="enable-background:new 0 0 470 470;"
   xml:space="preserve"
   width="512px"
   height="512px"
   sodipodi:docname="Paste.svg"
   inkscape:version="0.92.2 (5c3e80d, 2017-08-06)"><metadata
     id="metadata75"><rdf:RDF><cc:Work
         rdf:about=""><dc:format>image/svg+xml</dc:format><dc:type
           rdf:resource="http://purl.org/dc/dcmitype/StillImage" /></cc:Work></rdf:RDF></metadata><defs
     id="defs73" /><sodipodi:namedview
     pagecolor="#ffffff"
     bordercolor="#666666"
     borderopacity="1"
     objecttolerance="10"
     gridtolerance="10"
     guidetolerance="10"
     inkscape:pageopacity="0"
     inkscape:pageshadow="2"
     inkscape:window-width="1920"
     inkscape:window-height="1148"
     id="namedview71"
     showgrid="false"
     inkscape:zoom="0.4609375"
     inkscape:cx="-218.0339"
     inkscape:cy="256"
     inkscape:window-x="-8"
     inkscape:window-y="-8"
     inkscape:window-maximized="1"
     inkscape:current-layer="g6" /><g
     id="g38"><g
       id="g6"><g
         id="g847"
         transform="matrix(1.000001,0,0,0.9375,-6.7211194e-4,14.6875)"
         style="stroke-width:1.03279507"><path
           sodipodi:nodetypes="cccssccccsccccccc"
           inkscape:connector-curvature="0"
           style="fill:#335777;stroke:none;stroke-width:1.03279507;stroke-opacity:1"
           id="path2"
           d="M 418.861,217.325 317.486,115.95 c -3.079,-3.958 -7.836,-6.244 -12.85,-6.175 -0.746,0.023 -1.489,0.225 -2.225,0.225 H 160.887 c -8.836,0 -15.999,7.164 -16,16 v 328 c 0.001,8.836 7.164,15.999 16,16 h 248 c 8.836,-10e-4 16,-7.164 16,-16 V 232.6 c 1,-5.813 -1.359,-11.681 -6.026,-15.275 z m -97.974,-52.7 49.374,49.375 h -49.375 v -49.375 z" /><path
           id="path4"
           d="m 84.887,50 h 10 v 10 c 0.001,5.236 2.156,10.439 5.858,14.142 3.702,3.702 8.906,5.858 14.142,5.858 h 180 c 5.236,-0.001 10.439,-2.156 14.142,-5.858 3.702,-3.702 5.858,-8.906 5.858,-14.142 V 50 h 10 v 45.969 c 2.412,1.668 4.641,3.642 6.656,5.906 l 0.094,-0.094 33.25,33.25 V 30 c 0,-5.236 -2.156,-10.439 -5.858,-14.142 C 355.326,12.156 350.122,10 344.887,10 H 312.168 C 308.684,3.966 301.855,0.014 294.887,0 h -180 C 107.919,0.014 101.09,3.966 97.606,10 H 64.887 C 59.651,10 54.448,12.156 50.745,15.858 47.043,19.56 44.887,24.764 44.887,30 v 360 c 10e-4,5.236 2.156,10.439 5.858,14.142 3.702,3.702 8.906,5.858 14.142,5.858 h 60 v -40 h -40 z"
           inkscape:connector-curvature="0"
           style="fill:#335777;stroke-width:1.03269374" /></g></g><g
       id="g8" /><g
       id="g10" /><g
       id="g12" /><g
       id="g14" /><g
       id="g16" /><g
       id="g18" /><g
       id="g20" /><g
       id="g22" /><g
       id="g24" /><g
       id="g26" /><g
       id="g28" /><g
       id="g30" /><g
       id="g32" /><g
       id="g34" /><g
       id="g36" /></g><g
     id="g40" /><g
     id="g42" /><g
     id="g44" /><g
     id="g46" /><g
     id="g48" /><g
     id="g50" /><g
     id="g52" /><g
     id="g54" /><g
     id="g56" /><g
     id="g58" /><g
     id="g60" /><g
     id="g62" /><g
     id="g64" /><g
     id="g66" /><g
     id="g68" /></svg>