<?xml version="1.0"?>
<svg xmlns="http://www.w3.org/2000/svg" height="512px" viewBox="0 0 512 512" width="512px"><path d="m406.667969 0c-58.082031 0-105.335938 47.253906-105.335938 105.335938v300.5c0 24.996093-20.335937 45.332031-45.332031 45.332031s-45.332031-20.335938-45.332031-45.332031v-300.5c0-58.082032-47.253907-105.335938-105.335938-105.335938-58.078125 0-105.332031 47.253906-105.332031 105.335938v406.664062h60v-406.664062c0-25 20.335938-45.335938 45.332031-45.335938 24.996094 0 45.335938 20.335938 45.335938 45.335938v300.5c0 58.078124 47.25 105.332031 105.332031 105.332031s105.332031-47.253907 105.332031-105.332031v-300.5c0-25 20.339844-45.335938 45.335938-45.335938 24.996093 0 45.332031 20.335938 45.332031 45.335938v406.664062h60v-406.664062c0-58.082032-47.253906-105.335938-105.332031-105.335938zm0 0" fill="#335777"/></svg>
