<?xml version="1.0" encoding="UTF-8" standalone="no"?>
<!-- Generator: Adobe Illustrator 16.0.0, SVG Export Plug-In . SVG Version: 6.00 Build 0)  -->

<svg
   xmlns:dc="http://purl.org/dc/elements/1.1/"
   xmlns:cc="http://creativecommons.org/ns#"
   xmlns:rdf="http://www.w3.org/1999/02/22-rdf-syntax-ns#"
   xmlns:svg="http://www.w3.org/2000/svg"
   xmlns="http://www.w3.org/2000/svg"
   xmlns:sodipodi="http://sodipodi.sourceforge.net/DTD/sodipodi-0.dtd"
   xmlns:inkscape="http://www.inkscape.org/namespaces/inkscape"
   version="1.1"
   id="Capa_1"
   x="0px"
   y="0px"
   width="512px"
   height="512px"
   viewBox="0 0 32.001 32.002"
   style="enable-background:new 0 0 32.001 32.002;"
   xml:space="preserve"
   sodipodi:docname="Polygon.svg"
   inkscape:version="0.92.2 (5c3e80d, 2017-08-06)"><metadata
     id="metadata44"><rdf:RDF><cc:Work
         rdf:about=""><dc:format>image/svg+xml</dc:format><dc:type
           rdf:resource="http://purl.org/dc/dcmitype/StillImage" /></cc:Work></rdf:RDF></metadata><defs
     id="defs42" /><sodipodi:namedview
     pagecolor="#ffffff"
     bordercolor="#666666"
     borderopacity="1"
     objecttolerance="10"
     gridtolerance="10"
     guidetolerance="10"
     inkscape:pageopacity="0"
     inkscape:pageshadow="2"
     inkscape:window-width="1920"
     inkscape:window-height="1148"
     id="namedview40"
     showgrid="false"
     inkscape:zoom="0.4609375"
     inkscape:cx="-520.67797"
     inkscape:cy="256"
     inkscape:window-x="-8"
     inkscape:window-y="-8"
     inkscape:window-maximized="1"
     inkscape:current-layer="Capa_1" /><g
     id="Statics"
     transform="matrix(0.93752672,0,0,0.93754828,0.99979221,0.99945498)"
     style="stroke-width:1.06662405"><g
       id="g4"
       style="stroke-width:1.06662405"><path
         style="fill:#5A5A5A;stroke-width:1.06662405"
         inkscape:connector-curvature="0"
         id="path2"
         d="M 31.834,1.553 C 32.14,1.092 32.013,0.473 31.552,0.167 31.09,-0.138 30.472,-0.012 30.166,0.45 L 26.467,6.049 C 26.313,6.024 26.16,6.001 26,6.001 c -1.652,0 -3,1.347 -3,3 0,0.318 0.063,0.619 0.155,0.907 l -3.572,4.555 c -0.461,-0.288 -1,-0.462 -1.582,-0.462 -1.613,0 -2.924,1.283 -2.988,2.88 L 9.362,20.172 C 8.812,19.466 7.963,19.001 7,19.001 c -1.654,0 -3,1.347 -3,3 0,0.65 0.214,1.25 0.566,1.742 l -4.402,6.709 c -0.303,0.463 -0.175,1.082 0.287,1.385 0.169,0.111 0.36,0.164 0.548,0.164 0.326,0 0.646,-0.158 0.837,-0.451 l 4.375,-6.666 c 0.253,0.068 0.516,0.117 0.789,0.117 1.613,0 2.924,-1.281 2.988,-2.881 l 5.651,-3.289 c 0.549,0.707 1.398,1.17 2.361,1.17 1.654,0 3,-1.346 3,-3 0,-0.317 -0.062,-0.619 -0.153,-0.906 l 3.57,-4.554 c 0.461,0.287 1,0.461 1.582,0.461 1.653,0 3,-1.346 3,-3 0,-0.767 -0.298,-1.459 -0.771,-1.99 z M 7,23.001 c -0.552,0 -1,-0.447 -1,-1 0,-0.551 0.448,-1 1,-1 0.552,0 1,0.449 1,1 0,0.553 -0.448,1 -1,1 z m 11,-5 c -0.552,0 -1,-0.447 -1,-1 0,-0.551 0.448,-1 1,-1 0.552,0 1,0.449 1,1 0,0.553 -0.448,1 -1,1 z m 8,-8 c -0.552,0 -1,-0.448 -1,-1 0,-0.551 0.448,-1 1,-1 0.552,0 1,0.449 1,1 0,0.552 -0.449,1 -1,1 z"
         sodipodi:nodetypes="ccccssccsccsscccsccsccssccssccsssssssssssssss" /></g></g><g
     id="g9" /><g
     id="g11" /><g
     id="g13" /><g
     id="g15" /><g
     id="g17" /><g
     id="g19" /><g
     id="g21" /><g
     id="g23" /><g
     id="g25" /><g
     id="g27" /><g
     id="g29" /><g
     id="g31" /><g
     id="g33" /><g
     id="g35" /><g
     id="g37" /></svg>