<?xml version="1.0" encoding="UTF-8" standalone="no"?>
<!-- Generator: Adobe Illustrator 18.0.0, SVG Export Plug-In . SVG Version: 6.00 Build 0)  -->

<svg
   xmlns:dc="http://purl.org/dc/elements/1.1/"
   xmlns:cc="http://creativecommons.org/ns#"
   xmlns:rdf="http://www.w3.org/1999/02/22-rdf-syntax-ns#"
   xmlns:svg="http://www.w3.org/2000/svg"
   xmlns="http://www.w3.org/2000/svg"
   xmlns:sodipodi="http://sodipodi.sourceforge.net/DTD/sodipodi-0.dtd"
   xmlns:inkscape="http://www.inkscape.org/namespaces/inkscape"
   version="1.1"
   id="Capa_1"
   x="0px"
   y="0px"
   viewBox="0 0 349.574 349.574"
   style="enable-background:new 0 0 349.574 349.574;"
   xml:space="preserve"
   width="512px"
   height="512px"
   sodipodi:docname="PowerOff.svg"
   inkscape:version="0.92.2 (5c3e80d, 2017-08-06)"><metadata
     id="metadata47"><rdf:RDF><cc:Work
         rdf:about=""><dc:format>image/svg+xml</dc:format><dc:type
           rdf:resource="http://purl.org/dc/dcmitype/StillImage" /></cc:Work></rdf:RDF></metadata><defs
     id="defs45" /><sodipodi:namedview
     pagecolor="#ffffff"
     bordercolor="#666666"
     borderopacity="1"
     objecttolerance="10"
     gridtolerance="10"
     guidetolerance="10"
     inkscape:pageopacity="0"
     inkscape:pageshadow="2"
     inkscape:window-width="1920"
     inkscape:window-height="1028"
     id="namedview43"
     showgrid="false"
     inkscape:zoom="0.921875"
     inkscape:cx="217.41341"
     inkscape:cy="416.23241"
     inkscape:window-x="-8"
     inkscape:window-y="-8"
     inkscape:window-maximized="1"
     inkscape:current-layer="Capa_1" /><g
     id="g10"
     style="fill:#f00066;fill-opacity:1;stroke-width:1.13690722"
     transform="matrix(0.88098286,0,0,0.87817797,20.802649,21.292907)"><g
       id="g4"
       style="fill:#f00066;fill-opacity:1;stroke-width:1.13690722"><path
         d="m 174.787,349.574 c -85.468,0 -155,-69.531 -155,-155 0,-49.915 24.27,-97.069 64.92,-126.142 10.997,-7.861 26.282,-5.323 34.142,5.674 7.864,10.995 5.326,26.281 -5.67,34.142 -27.829,19.902 -44.446,52.174 -44.446,86.326 0,58.482 47.575,106.054 106.054,106.054 58.479,0 106.054,-47.571 106.054,-106.054 0,-34.152 -16.617,-66.424 -44.446,-86.326 -10.996,-7.86 -13.534,-23.146 -5.67,-34.142 7.86,-10.996 23.146,-13.535 34.142,-5.674 40.65,29.072 64.92,76.227 64.92,126.142 0,85.469 -69.532,155 -155,155 z"
         id="path2"
         style="fill:#f00066;fill-opacity:1;stroke-width:1.13690722"
         inkscape:connector-curvature="0" /></g><g
       id="g8"
       style="fill:#f00066;fill-opacity:1;stroke-width:1.13690722"><path
         d="m 174.787,187.631 c -13.516,0 -24.473,-10.957 -24.473,-24.477 V 24.47 C 150.314,10.957 161.271,0 174.787,0 188.303,0 199.26,10.957 199.26,24.47 v 138.685 c 0,13.519 -10.957,24.476 -24.473,24.476 z"
         id="path6"
         style="fill:#f00066;fill-opacity:1;stroke-width:1.13690722"
         inkscape:connector-curvature="0" /></g></g><g
     id="g12" /><g
     id="g14" /><g
     id="g16" /><g
     id="g18" /><g
     id="g20" /><g
     id="g22" /><g
     id="g24" /><g
     id="g26" /><g
     id="g28" /><g
     id="g30" /><g
     id="g32" /><g
     id="g34" /><g
     id="g36" /><g
     id="g38" /><g
     id="g40" /></svg>