<?xml version="1.0" encoding="UTF-8" standalone="no"?>
<svg
   xmlns:dc="http://purl.org/dc/elements/1.1/"
   xmlns:cc="http://creativecommons.org/ns#"
   xmlns:rdf="http://www.w3.org/1999/02/22-rdf-syntax-ns#"
   xmlns:svg="http://www.w3.org/2000/svg"
   xmlns="http://www.w3.org/2000/svg"
   xmlns:sodipodi="http://sodipodi.sourceforge.net/DTD/sodipodi-0.dtd"
   xmlns:inkscape="http://www.inkscape.org/namespaces/inkscape"
   height="512px"
   viewBox="-19 -21 600 600"
   width="512px"
   version="1.1"
   id="svg32"
   sodipodi:docname="Production.svg"
   inkscape:version="0.92.2 (5c3e80d, 2017-08-06)">
  <metadata
     id="metadata38">
    <rdf:RDF>
      <cc:Work
         rdf:about="">
        <dc:format>image/svg+xml</dc:format>
        <dc:type
           rdf:resource="http://purl.org/dc/dcmitype/StillImage" />
      </cc:Work>
    </rdf:RDF>
  </metadata>
  <defs
     id="defs36" />
  <sodipodi:namedview
     pagecolor="#ffffff"
     bordercolor="#666666"
     borderopacity="1"
     objecttolerance="10"
     gridtolerance="10"
     guidetolerance="10"
     inkscape:pageopacity="0"
     inkscape:pageshadow="2"
     inkscape:window-width="1920"
     inkscape:window-height="1148"
     id="namedview34"
     showgrid="false"
     inkscape:zoom="0.4609375"
     inkscape:cx="-46.644068"
     inkscape:cy="256"
     inkscape:window-x="-8"
     inkscape:window-y="-8"
     inkscape:window-maximized="1"
     inkscape:current-layer="svg32" />
  <g
     id="g860"
     transform="matrix(1,0,0,1.0062752,-0.25,-2.1674435)"
     style="stroke-width:0.99687707">
    <path
       id="path2"
       d="M 477.5,380.66797 H 495 v -41.69531 c 0,-4.83203 -4.53516,-8.30469 -9.36719,-8.30469 H 290 v -37.28516 l 18.35547,18.63672 c 1.61328,1.64063 3.8164,2.56641 6.11719,2.56641 2.30078,0 4.5039,-0.92578 6.11328,-2.56641 3.39843,-3.42969 3.36718,-8.97266 -0.0703,-12.37109 l -33.5039,-33.47266 c -3.42578,-3.41797 -8.97266,-3.41797 -12.40235,0 l -33.47656,33.47266 c -2.5039,2.5 -3.25,6.26562 -1.89844,9.53515 1.35157,3.26563 4.54688,5.40235 8.07813,5.40235 2.41016,0.008 4.72266,-0.91016 6.47656,-2.5586 L 272.5,293.59375 v 37.07422 H 78.089844 c -4.832032,0 -9.339844,3.47266 -9.339844,8.30469 v 40.44531 h 17.5 v -31.25 H 272.5 v 32.5 H 290 v -32.5 h 187.5 z m 0,0"
       inkscape:connector-curvature="0"
       style="fill:#5A5A5A;stroke-width:0.99376392" />
    <path
       id="path4"
       d="m 207.95312,129.83203 c -0.42187,19.09375 6.71485,37.57813 19.86329,51.42188 7.80078,8.22265 12.32421,19.0039 12.73046,30.32421 -4.49218,0.89844 -7.59765,5.02344 -7.21093,9.58985 0.3789,4.5625 4.13281,8.11328 8.71484,8.25 h 78.49609 c 4.87891,-0.11328 8.76954,-4.10938 8.75,-8.98828 0.008,-4.59375 -3.5,-8.4336 -8.07812,-8.83203 0.32031,-11.04297 4.75,-21.35547 13.09766,-30.08985 12.83203,-13.65625 20.0039,-31.67969 20.05859,-50.41797 -0.25,-40.019528 -32.57813,-72.429684 -72.59766,-72.769528 -40.01953,-0.34375 -72.90234,31.507813 -73.82812,71.519528 z m 0,0"
       inkscape:connector-curvature="0"
       style="fill:#5A5A5A;stroke-width:0.99376392" />
    <path
       id="path6"
       d="m 257.32031,238.16797 c -4.83594,0 -8.75,3.91797 -8.75,8.75 0,4.82812 3.91406,8.75 8.75,8.75 h 47.96875 c 4.83203,0 8.75,-3.92188 8.75,-8.75 0,-4.83203 -3.91797,-8.75 -8.75,-8.75 z m 0,0"
       inkscape:connector-curvature="0"
       style="fill:#5A5A5A;stroke-width:0.99376392" />
    <path
       id="path8"
       d="M 288.75,35.386719 V 8.667969 c 0,-4.835938 -3.91406,-8.7500002 -8.75,-8.7500002 -4.83594,0 -8.75,3.9140622 -8.75,8.7500002 v 26.710937 c 0,4.832032 3.91406,8.75 8.75,8.75 4.83594,0 8.75,-3.917968 8.75,-8.75 z m 0,0"
       inkscape:connector-curvature="0"
       style="fill:#5A5A5A;stroke-width:0.99376392" />
    <path
       id="path10"
       d="m 351.36719,70.367188 19.625,-18.535157 c 3.45703,-3.332031 3.58593,-8.824219 0.29297,-12.3125 -3.29688,-3.488281 -8.78907,-3.671875 -12.3086,-0.410156 l -19.625,18.535156 C 335.83984,60.960938 335.67969,66.5 339,70.015625 c 3.32031,3.507813 8.85547,3.671875 12.36719,0.351563 z m 0,0"
       inkscape:connector-curvature="0"
       style="fill:#5A5A5A;stroke-width:0.99376392" />
    <path
       id="path12"
       d="m 203.85937,36.328125 c -3.39453,-3.441406 -8.9375,-3.480469 -12.3789,-0.08984 -3.44141,3.390625 -3.48047,8.933594 -0.0898,12.375 l 18.8086,19.082031 c 3.39062,3.441407 8.93359,3.480469 12.375,0.08594 3.4414,-3.390625 3.48047,-8.929688 0.0859,-12.371094 z m 0,0"
       inkscape:connector-curvature="0"
       style="fill:#5A5A5A;stroke-width:0.99376392" />
    <path
       id="path14"
       d="m 211.25,538.35547 60,19.51953 v -89.83984 l -60,-19.52344 z m 0,0"
       inkscape:connector-curvature="0"
       style="fill:#5A5A5A;stroke-width:0.99376392" />
    <path
       id="path16"
       d="m 332.03516,436.49219 -50.78516,-16.375 -50.78516,16.375 50.78516,16.3789 z m 0,0"
       inkscape:connector-curvature="0"
       style="fill:#5A5A5A;stroke-width:0.99376392" />
    <path
       id="path18"
       d="m 351.25,448.51172 -62.5,20.33203 v 89.84375 l 62.5,-20.33203 z m 0,0"
       inkscape:connector-curvature="0"
       style="fill:#5A5A5A;stroke-width:0.99376392" />
    <path
       id="path20"
       d="m 498.75,558.91016 63.75,-20.55469 v -89.84375 l -63.75,20.55469 z m 0,0"
       inkscape:connector-curvature="0"
       style="fill:#5A5A5A;stroke-width:0.99376392" />
    <path
       id="path22"
       d="m 481.25,467.80859 -60,-19.29687 v 89.84375 l 60,19.29687 z m 0,0"
       inkscape:connector-curvature="0"
       style="fill:#5A5A5A;stroke-width:0.99376392" />
    <path
       id="path24"
       d="m 542.73828,436.49219 -50.78516,-16.375 -50.78515,16.375 50.78515,16.3789 z m 0,0"
       inkscape:connector-curvature="0"
       style="fill:#5A5A5A;stroke-width:0.99376392" />
    <path
       id="path26"
       d="M 61.25,468.26562 0,448.51172 v 89.84375 l 61.25,19.75 z m 0,0"
       inkscape:connector-curvature="0"
       style="fill:#5A5A5A;stroke-width:0.99376392" />
    <path
       id="path28"
       d="m 141.25,448.51172 -62.5,20.10547 v 89.83984 l 62.5,-20.10156 z m 0,0"
       inkscape:connector-curvature="0"
       style="fill:#5A5A5A;stroke-width:0.99376392" />
    <path
       id="path30"
       d="m 70.546875,420.11719 -50.785156,16.375 50.785156,16.3789 50.785155,-16.3789 z m 0,0"
       inkscape:connector-curvature="0"
       style="fill:#5A5A5A;stroke-width:0.99376392" />
  </g>
</svg>
