<?xml version="1.0" encoding="UTF-8" standalone="no"?>
<!-- Generator: Adobe Illustrator 19.0.0, SVG Export Plug-In . SVG Version: 6.00 Build 0)  -->

<svg
   xmlns:dc="http://purl.org/dc/elements/1.1/"
   xmlns:cc="http://creativecommons.org/ns#"
   xmlns:rdf="http://www.w3.org/1999/02/22-rdf-syntax-ns#"
   xmlns:svg="http://www.w3.org/2000/svg"
   xmlns="http://www.w3.org/2000/svg"
   xmlns:sodipodi="http://sodipodi.sourceforge.net/DTD/sodipodi-0.dtd"
   xmlns:inkscape="http://www.inkscape.org/namespaces/inkscape"
   version="1.1"
   id="Layer_1"
   x="0px"
   y="0px"
   viewBox="0 0 512 512"
   style="enable-background:new 0 0 512 512;"
   xml:space="preserve"
   sodipodi:docname="Quality.svg"
   inkscape:version="0.92.2 (5c3e80d, 2017-08-06)"><metadata
     id="metadata61"><rdf:RDF><cc:Work
         rdf:about=""><dc:format>image/svg+xml</dc:format><dc:type
           rdf:resource="http://purl.org/dc/dcmitype/StillImage" /></cc:Work></rdf:RDF></metadata><defs
     id="defs59" /><sodipodi:namedview
     pagecolor="#ffffff"
     bordercolor="#666666"
     borderopacity="1"
     objecttolerance="10"
     gridtolerance="10"
     guidetolerance="10"
     inkscape:pageopacity="0"
     inkscape:pageshadow="2"
     inkscape:window-width="2560"
     inkscape:window-height="1388"
     id="namedview57"
     showgrid="false"
     inkscape:zoom="0.4609375"
     inkscape:cx="-520.67797"
     inkscape:cy="256"
     inkscape:window-x="-8"
     inkscape:window-y="-8"
     inkscape:window-maximized="1"
     inkscape:current-layer="Layer_1" /><g
     id="g18"
     style="fill:#757575;fill-opacity:1;stroke-width:1.20000005"
     transform="matrix(0.99833638,0,0,1.0185596,0.42623662,56.000004)"><g
       id="g16"
       style="fill:#757575;fill-opacity:1;stroke-width:1.20000005"><path
         inkscape:connector-curvature="0"
         d="m 438.821,207.791 c -27.69,-18.96 -36.282,-56.605 -19.56,-85.702 10.051,-17.491 4.82,-34.775 -3.427,-45.118 C 407.586,66.631 391.898,57.686 372.611,63.591 340.527,73.418 305.734,56.666 293.41,25.45 286.002,6.686 269.227,0 256,0 242.773,0 225.998,6.686 218.59,25.451 206.266,56.668 171.476,73.418 139.389,63.592 120.1,57.688 104.415,66.631 96.166,76.972 c -8.247,10.343 -13.478,27.625 -3.427,45.118 16.722,29.096 8.13,66.742 -19.56,85.702 -16.646,11.399 -19.431,29.24 -16.489,42.136 2.942,12.896 13.194,27.761 33.137,30.808 33.174,5.068 57.248,35.256 54.809,68.727 -1.468,20.121 10.745,33.423 22.662,39.163 11.918,5.739 29.932,6.995 44.748,-6.698 12.322,-11.387 28.141,-17.083 43.953,-17.083 15.818,0 31.628,5.693 43.952,17.083 14.818,13.694 32.833,12.438 44.75,6.698 11.917,-5.739 24.129,-19.041 22.662,-39.162 -2.439,-33.471 21.635,-63.659 54.809,-68.728 19.943,-3.047 30.193,-17.913 33.137,-30.808 2.943,-12.898 0.156,-30.739 -16.488,-42.137 z M 256,335.923 c -72.575,0 -131.619,-59.044 -131.619,-131.619 0,-72.575 59.043,-131.62 131.619,-131.62 72.576,0 131.619,59.044 131.619,131.619 -0.001,72.575 -59.044,131.62 -131.619,131.62 z"
         id="path14"
         style="fill:#757575;fill-opacity:1;stroke-width:1.20000005" /></g></g><g
     id="g24"
     style="fill:#75b375;fill-opacity:1;stroke-width:1.20000005"
     transform="matrix(0.99833638,0,0,1.0185596,0.42623662,56.000004)"><g
       id="g22"
       style="fill:#75b375;fill-opacity:1;stroke-width:1.20000005"><path
         inkscape:connector-curvature="0"
         d="m 255.999,97.225 c -59.044,0 -107.079,48.036 -107.079,107.079 0,59.043 48.034,107.079 107.079,107.079 59.045,0 107.079,-48.036 107.079,-107.079 0,-59.043 -48.035,-107.079 -107.079,-107.079 z m 54.875,96.697 -66.642,48.675 c -2.115,1.545 -4.653,2.362 -7.237,2.362 -0.666,0 -1.335,-0.054 -2.001,-0.164 -3.249,-0.537 -6.147,-2.358 -8.041,-5.054 l -19.934,-28.382 c -3.895,-5.547 -2.556,-13.2 2.989,-17.095 5.546,-3.895 13.198,-2.557 17.094,2.989 l 12.75,18.154 56.548,-41.302 c 5.473,-3.995 13.15,-2.803 17.146,2.671 3.997,5.472 2.8,13.148 -2.672,17.146 z"
         id="path20"
         style="fill:#75b375;fill-opacity:1;stroke-width:1.20000005" /></g></g><g
     id="g26" /><g
     id="g28" /><g
     id="g30" /><g
     id="g32" /><g
     id="g34" /><g
     id="g36" /><g
     id="g38" /><g
     id="g40" /><g
     id="g42" /><g
     id="g44" /><g
     id="g46" /><g
     id="g48" /><g
     id="g50" /><g
     id="g52" /><g
     id="g54" /></svg>