<?xml version="1.0" encoding="UTF-8" standalone="no"?>
<!-- Generator: Adobe Illustrator 19.0.0, SVG Export Plug-In . SVG Version: 6.00 Build 0)  -->

<svg
   xmlns:dc="http://purl.org/dc/elements/1.1/"
   xmlns:cc="http://creativecommons.org/ns#"
   xmlns:rdf="http://www.w3.org/1999/02/22-rdf-syntax-ns#"
   xmlns:svg="http://www.w3.org/2000/svg"
   xmlns="http://www.w3.org/2000/svg"
   xmlns:sodipodi="http://sodipodi.sourceforge.net/DTD/sodipodi-0.dtd"
   xmlns:inkscape="http://www.inkscape.org/namespaces/inkscape"
   version="1.1"
   id="Layer_1"
   x="0px"
   y="0px"
   viewBox="0 0 426.667 426.667"
   style="enable-background:new 0 0 426.667 426.667;"
   xml:space="preserve"
   sodipodi:docname="Record.svg"
   inkscape:version="0.92.4 (5da689c313, 2019-01-14)"><metadata
   id="metadata55"><rdf:RDF><cc:Work
       rdf:about=""><dc:format>image/svg+xml</dc:format><dc:type
         rdf:resource="http://purl.org/dc/dcmitype/StillImage" /></cc:Work></rdf:RDF></metadata><defs
   id="defs53" /><sodipodi:namedview
   pagecolor="#ffffff"
   bordercolor="#666666"
   borderopacity="1"
   objecttolerance="10"
   gridtolerance="10"
   guidetolerance="10"
   inkscape:pageopacity="0"
   inkscape:pageshadow="2"
   inkscape:window-width="2560"
   inkscape:window-height="1377"
   id="namedview51"
   showgrid="false"
   inkscape:zoom="0.55312458"
   inkscape:cx="213.3335"
   inkscape:cy="213.3335"
   inkscape:window-x="-8"
   inkscape:window-y="-8"
   inkscape:window-maximized="1"
   inkscape:current-layer="Layer_1" />
<g
   id="g6"
   style="fill:#ff0000">
	<g
   id="g4"
   style="fill:#ff0000">
		<path
   d="M213.333,0C95.513,0,0,95.513,0,213.333s95.513,213.333,213.333,213.333s213.333-95.513,213.333-213.333    S331.154,0,213.333,0z M213.333,387.413c-96.142,0-174.08-77.938-174.08-174.08s77.938-174.08,174.08-174.08    c96.093,0.118,173.962,77.987,174.08,174.08C387.413,309.475,309.475,387.413,213.333,387.413z"
   id="path2"
   style="fill:#ff0000" />
	</g>
</g>
<g
   id="g12"
   style="fill:#ff0000">
	<g
   id="g10"
   style="fill:#ff0000">
		<circle
   cx="213.333"
   cy="213.333"
   r="64"
   id="circle8"
   style="fill:#ff0000" />
	</g>
</g>
<g
   id="g18"
   style="fill:#ff5555">
	<g
   id="g16"
   style="fill:#ff5555">
		<path
   d="M213.333,128C166.205,128,128,166.205,128,213.333s38.205,85.333,85.333,85.333s85.333-38.205,85.333-85.333    S260.462,128,213.333,128z M213.333,256c-23.564,0-42.667-19.103-42.667-42.667s19.103-42.667,42.667-42.667    S256,189.769,256,213.333S236.897,256,213.333,256z"
   id="path14"
   style="fill:#ff5555" />
	</g>
</g>
<g
   id="g20">
</g>
<g
   id="g22">
</g>
<g
   id="g24">
</g>
<g
   id="g26">
</g>
<g
   id="g28">
</g>
<g
   id="g30">
</g>
<g
   id="g32">
</g>
<g
   id="g34">
</g>
<g
   id="g36">
</g>
<g
   id="g38">
</g>
<g
   id="g40">
</g>
<g
   id="g42">
</g>
<g
   id="g44">
</g>
<g
   id="g46">
</g>
<g
   id="g48">
</g>
</svg>