<?xml version="1.0" encoding="UTF-8" standalone="no"?>
<!-- Generator: Adobe Illustrator 18.1.1, SVG Export Plug-In . SVG Version: 6.00 Build 0)  -->

<svg
   xmlns:dc="http://purl.org/dc/elements/1.1/"
   xmlns:cc="http://creativecommons.org/ns#"
   xmlns:rdf="http://www.w3.org/1999/02/22-rdf-syntax-ns#"
   xmlns:svg="http://www.w3.org/2000/svg"
   xmlns="http://www.w3.org/2000/svg"
   xmlns:sodipodi="http://sodipodi.sourceforge.net/DTD/sodipodi-0.dtd"
   xmlns:inkscape="http://www.inkscape.org/namespaces/inkscape"
   version="1.1"
   id="Capa_1"
   x="0px"
   y="0px"
   viewBox="0 0 11.328 11.328"
   style="enable-background:new 0 0 11.328 11.328;"
   xml:space="preserve"
   width="512px"
   height="512px"
   sodipodi:docname="Remove.svg"
   inkscape:version="0.92.2 (5c3e80d, 2017-08-06)"><metadata
     id="metadata41"><rdf:RDF><cc:Work
         rdf:about=""><dc:format>image/svg+xml</dc:format><dc:type
           rdf:resource="http://purl.org/dc/dcmitype/StillImage" /></cc:Work></rdf:RDF></metadata><defs
     id="defs39" /><sodipodi:namedview
     pagecolor="#ffffff"
     bordercolor="#666666"
     borderopacity="1"
     objecttolerance="10"
     gridtolerance="10"
     guidetolerance="10"
     inkscape:pageopacity="0"
     inkscape:pageshadow="2"
     inkscape:window-width="1920"
     inkscape:window-height="1148"
     id="namedview37"
     showgrid="false"
     inkscape:zoom="0.4609375"
     inkscape:cx="-46.644068"
     inkscape:cy="256"
     inkscape:window-x="-8"
     inkscape:window-y="-8"
     inkscape:window-maximized="1"
     inkscape:current-layer="Capa_1" /><g
     id="g4"
     transform="matrix(0.93755171,0,0,0.93747931,0.35329685,0.354)"
     style="stroke-width:1.06664896"><path
       d="M 11.145,9.085 7.723,5.664 11.145,2.243 c 0.243,-0.244 0.243,-0.64 0,-0.883 L 9.967,0.183 c -0.244,-0.244 -0.64,-0.244 -0.883,0 L 5.662,3.604 2.242,0.183 c -0.244,-0.244 -0.639,-0.244 -0.883,0 L 0.183,1.36 c -0.243,0.244 -0.243,0.639 0,0.883 L 3.604,5.664 0.183,9.085 c -0.243,0.244 -0.243,0.639 0,0.883 l 1.177,1.178 c 0.244,0.243 0.639,0.243 0.883,0 l 3.42,-3.422 3.422,3.422 c 0.243,0.243 0.639,0.243 0.883,0 L 11.146,9.968 C 11.389,9.724 11.389,9.329 11.145,9.085 Z"
       id="path2"
       inkscape:connector-curvature="0"
       style="fill:#335777;stroke-width:1.10159993" /></g><g
     id="g6" /><g
     id="g8" /><g
     id="g10" /><g
     id="g12" /><g
     id="g14" /><g
     id="g16" /><g
     id="g18" /><g
     id="g20" /><g
     id="g22" /><g
     id="g24" /><g
     id="g26" /><g
     id="g28" /><g
     id="g30" /><g
     id="g32" /><g
     id="g34" /></svg>