<?xml version="1.0" encoding="UTF-8" standalone="no"?>
<!-- Generator: Adobe Illustrator 16.0.0, SVG Export Plug-In . SVG Version: 6.00 Build 0)  -->

<svg
   xmlns:dc="http://purl.org/dc/elements/1.1/"
   xmlns:cc="http://creativecommons.org/ns#"
   xmlns:rdf="http://www.w3.org/1999/02/22-rdf-syntax-ns#"
   xmlns:svg="http://www.w3.org/2000/svg"
   xmlns="http://www.w3.org/2000/svg"
   xmlns:sodipodi="http://sodipodi.sourceforge.net/DTD/sodipodi-0.dtd"
   xmlns:inkscape="http://www.inkscape.org/namespaces/inkscape"
   version="1.1"
   id="Capa_1"
   x="0px"
   y="0px"
   width="87.607px"
   height="87.607px"
   viewBox="0 0 87.607 87.607"
   style="enable-background:new 0 0 87.607 87.607;"
   xml:space="preserve"
   sodipodi:docname="Speed.svg"
   inkscape:version="0.92.2 (5c3e80d, 2017-08-06)"><metadata
     id="metadata44"><rdf:RDF><cc:Work
         rdf:about=""><dc:format>image/svg+xml</dc:format><dc:type
           rdf:resource="http://purl.org/dc/dcmitype/StillImage" /></cc:Work></rdf:RDF></metadata><defs
     id="defs42" /><sodipodi:namedview
     pagecolor="#ffffff"
     bordercolor="#666666"
     borderopacity="1"
     objecttolerance="10"
     gridtolerance="10"
     guidetolerance="10"
     inkscape:pageopacity="0"
     inkscape:pageshadow="2"
     inkscape:window-width="2560"
     inkscape:window-height="1388"
     id="namedview40"
     showgrid="false"
     inkscape:zoom="2.6938486"
     inkscape:cx="-7.9811464"
     inkscape:cy="43.803501"
     inkscape:window-x="-8"
     inkscape:window-y="-8"
     inkscape:window-maximized="1"
     inkscape:current-layer="Capa_1" /><g
     id="g7"
     style="fill:#335777;fill-opacity:1"><g
       id="Gauge"
       style="fill:#335777;fill-opacity:1"><g
         id="g4"
         style="fill:#335777;fill-opacity:1"><path
           d="M52.173,57.876c-0.028-0.329-0.122-0.658-0.286-0.971L31.254,17.971c-0.609-1.144-1.983-1.684-3.229-1.267     c-1.248,0.423-1.993,1.674-1.756,2.95l8.041,43.173c0.063,0.343,0.196,0.65,0.377,0.93c0.078,0.369,0.173,0.736,0.3,1.104     c1.295,3.694,4.838,6.184,8.813,6.184c1.027,0,2.048-0.166,3.024-0.497c2.354-0.792,4.253-2.438,5.347-4.636     c1.095-2.198,1.251-4.68,0.444-6.994C52.492,58.555,52.34,58.21,52.173,57.876z M43.803,19.533c-1.471,0-2.662,1.17-2.662,2.613     c0,1.443,1.191,2.614,2.662,2.614c21.218,0,38.476,16.961,38.476,37.806c0,1.442,1.195,2.613,2.664,2.613     c1.473,0,2.664-1.171,2.664-2.613C87.605,38.834,67.956,19.533,43.803,19.533z M16.276,29.087C5.933,37.306,0,49.507,0,62.565     c0,1.443,1.191,2.615,2.663,2.615c1.474,0,2.665-1.172,2.665-2.615c0-11.47,5.211-22.189,14.298-29.409     c1.146-0.908,1.32-2.556,0.397-3.679C19.1,28.355,17.423,28.179,16.276,29.087z"
           id="path2"
           style="fill:#335777;fill-opacity:1" /></g></g></g><g
     id="g9" /><g
     id="g11" /><g
     id="g13" /><g
     id="g15" /><g
     id="g17" /><g
     id="g19" /><g
     id="g21" /><g
     id="g23" /><g
     id="g25" /><g
     id="g27" /><g
     id="g29" /><g
     id="g31" /><g
     id="g33" /><g
     id="g35" /><g
     id="g37" /></svg>