<?xml version="1.0"?>
<svg xmlns="http://www.w3.org/2000/svg" height="512px" viewBox="-8 0 432 432" width="512px"><path d="m368 64c0 8.835938-7.164062 16-16 16s-16-7.164062-16-16 7.164062-16 16-16 16 7.164062 16 16zm0 0" fill="#0d8dd3"/><path d="m352 184.574219c24.640625-27.773438 64-80.574219 64-120.574219 0-35.347656-28.652344-64-64-64s-64 28.652344-64 64c0 40 39.359375 92.800781 64 120.574219zm0-168.574219c26.507812 0 48 21.492188 48 48s-21.492188 48-48 48-48-21.492188-48-48 21.492188-48 48-48zm0 0" fill="#0d8dd3"/><path d="m64 328.574219c24.65625-27.773438 64-80.574219 64-120.574219 0-35.347656-28.652344-64-64-64s-64 28.652344-64 64c0 40 39.34375 92.800781 64 120.574219zm0-168.574219c26.507812 0 48 21.492188 48 48s-21.492188 48-48 48-48-21.492188-48-48 21.492188-48 48-48zm0 0" fill="#0d8dd3"/><path d="m80 208c0 8.835938-7.164062 16-16 16s-16-7.164062-16-16 7.164062-16 16-16 16 7.164062 16 16zm0 0" fill="#0d8dd3"/><path d="m336 368c0 17.671875-14.328125 32-32 32s-32-14.328125-32-32v-64c0-35.347656-28.652344-64-64-64s-64 28.652344-64 64v64c0 17.671875-14.328125 32-32 32s-32-14.328125-32-32v-16h-32v16c0 35.347656 28.652344 64 64 64s64-28.652344 64-64v-64c0-17.671875 14.328125-32 32-32s32 14.328125 32 32v64c0 35.347656 28.652344 64 64 64s64-28.652344 64-64v-160h-32zm0 0" fill="#0d8dd3"/></svg>
