<?xml version="1.0" encoding="UTF-8" standalone="no"?>
<svg
   xmlns:dc="http://purl.org/dc/elements/1.1/"
   xmlns:cc="http://creativecommons.org/ns#"
   xmlns:rdf="http://www.w3.org/1999/02/22-rdf-syntax-ns#"
   xmlns:svg="http://www.w3.org/2000/svg"
   xmlns="http://www.w3.org/2000/svg"
   xmlns:sodipodi="http://sodipodi.sourceforge.net/DTD/sodipodi-0.dtd"
   xmlns:inkscape="http://www.inkscape.org/namespaces/inkscape"
   height="512px"
   viewBox="-19 -51 617.33452 617"
   width="512px"
   version="1.1"
   id="svg12"
   sodipodi:docname="Statistics.svg"
   inkscape:version="0.92.2 (5c3e80d, 2017-08-06)">
  <metadata
     id="metadata18">
    <rdf:RDF>
      <cc:Work
         rdf:about="">
        <dc:format>image/svg+xml</dc:format>
        <dc:type
           rdf:resource="http://purl.org/dc/dcmitype/StillImage" />
      </cc:Work>
    </rdf:RDF>
  </metadata>
  <defs
     id="defs16" />
  <sodipodi:namedview
     pagecolor="#ffffff"
     bordercolor="#666666"
     borderopacity="1"
     objecttolerance="10"
     gridtolerance="10"
     guidetolerance="10"
     inkscape:pageopacity="0"
     inkscape:pageshadow="2"
     inkscape:window-width="1920"
     inkscape:window-height="1148"
     id="namedview14"
     showgrid="false"
     inkscape:zoom="0.4609375"
     inkscape:cx="-46.644068"
     inkscape:cy="256"
     inkscape:window-x="-8"
     inkscape:window-y="-8"
     inkscape:window-maximized="1"
     inkscape:current-layer="svg12" />
  <g
     id="g833">
    <path
       id="path2"
       fill="#5A5A5A"
       d="m231.613281 192.839844c.460938 4.449218 4.210938 7.835937 8.6875 7.839844.304688 0 .605469-.015626.914063-.046876 1.898437-.195312 47.113281-5.113281 102.972656-30.914062 47.582031-21.984375 111.269531-63.648438 154.675781-139.230469l12.847657 64.238281c.960937 4.722657 5.558593 7.78125 10.285156 6.835938 4.722656-.945312 7.796875-5.539062 6.863281-10.265625l-17.265625-86.324219c-.902344-2.730468-2.917969-4.9531248-5.542969-6.121094-2.628906-1.167968-5.625-1.175781-8.257812-.011718l-82.859375 17.015625c-4.6875 1.011719-7.6875 5.605469-6.722656 10.304687.964843 4.699219 5.535156 7.742188 10.242187 6.820313l66.679687-13.695313c-16.792968 29.980469-38.460937 56.960938-64.113281 79.828125-25.042969 22.152344-53.210937 40.507813-83.601562 54.460938-53.308594 24.738281-97.574219 29.617187-98.015625 29.660156-4.804688.5-8.289063 4.800781-7.789063 9.605469zm0 0" />
    <path
       id="path4"
       fill="#5A5A5A"
       d="m198.132812 274.242188-75.402343-24.316407-75.402344 24.316407 75.402344 24.320312zm0 0" />
    <path
       id="path6"
       fill="#5A5A5A"
       d="m218.179688 286.25-88.675782 28.503906v123.421875l88.675782-28.496093zm0 0" />
    <path
       id="path8"
       fill="#5A5A5A"
       d="m27.085938 409.679688 84.933593 27.230468v-123.429687l-84.933593-27.230469zm0 0" />
    <path
       id="path10"
       fill="#5A5A5A"
       d="m570.007812 494.914062h-23.34375v-347.21875h-42.464843v347.21875h-68.695313v-264.785156h-42.464844v264.785156h-67.445312v-209.832031h-42.464844v209.832031h-274.386718c-4.828126 0-8.742188 3.910157-8.742188 8.742188 0 4.828125 3.914062 8.742188 8.742188 8.742188h561.265624c4.824219 0 8.742188-3.914063 8.742188-8.742188 0-4.832031-3.917969-8.742188-8.742188-8.742188zm0 0" />
  </g>
</svg>
