<?xml version="1.0" encoding="UTF-8" standalone="no"?>
<!-- Generator: Adobe Illustrator 19.0.0, SVG Export Plug-In . SVG Version: 6.00 Build 0)  -->

<svg
   xmlns:dc="http://purl.org/dc/elements/1.1/"
   xmlns:cc="http://creativecommons.org/ns#"
   xmlns:rdf="http://www.w3.org/1999/02/22-rdf-syntax-ns#"
   xmlns:svg="http://www.w3.org/2000/svg"
   xmlns="http://www.w3.org/2000/svg"
   xmlns:sodipodi="http://sodipodi.sourceforge.net/DTD/sodipodi-0.dtd"
   xmlns:inkscape="http://www.inkscape.org/namespaces/inkscape"
   version="1.1"
   id="Layer_1"
   x="0px"
   y="0px"
   viewBox="0 0 512 512"
   style="enable-background:new 0 0 512 512;"
   xml:space="preserve"
   width="512px"
   height="512px"
   sodipodi:docname="StateOk.svg"
   inkscape:version="0.92.2 (5c3e80d, 2017-08-06)"><metadata
     id="metadata49"><rdf:RDF><cc:Work
         rdf:about=""><dc:format>image/svg+xml</dc:format><dc:type
           rdf:resource="http://purl.org/dc/dcmitype/StillImage" /></cc:Work></rdf:RDF></metadata><defs
     id="defs47" /><sodipodi:namedview
     pagecolor="#ffffff"
     bordercolor="#666666"
     borderopacity="1"
     objecttolerance="10"
     gridtolerance="10"
     guidetolerance="10"
     inkscape:pageopacity="0"
     inkscape:pageshadow="2"
     inkscape:window-width="1920"
     inkscape:window-height="1148"
     id="namedview45"
     showgrid="false"
     inkscape:zoom="0.4609375"
     inkscape:cx="-46.644068"
     inkscape:cy="256"
     inkscape:window-x="-8"
     inkscape:window-y="-8"
     inkscape:window-maximized="1"
     inkscape:current-layer="Layer_1" /><g
     id="g862"
     transform="translate(16.00004,-4.794999)"><g
       style="stroke-width:1.01997709"
       transform="matrix(0.9804141,0,0,0.98041418,0,9.8084787)"
       id="g6"><g
         style="stroke-width:1.01997709"
         id="g4"><path
           style="fill:#2ca05a;stroke-width:1.01997709"
           inkscape:connector-curvature="0"
           id="path2"
           d="m 468.907,214.604 c -11.423,0 -20.682,9.26 -20.682,20.682 v 20.831 c -0.031,54.338 -21.221,105.412 -59.666,143.812 -38.417,38.372 -89.467,59.5 -143.761,59.5 -0.04,0 -0.08,0 -0.12,0 C 132.506,459.365 41.3,368.056 41.364,255.883 41.395,201.546 62.585,150.472 101.031,112.07 c 38.417,-38.372 89.468,-59.5 143.761,-59.5 0.04,0 0.08,0 0.12,0 28.672,0.016 56.49,5.942 82.68,17.611 10.436,4.65 22.659,-0.041 27.309,-10.474 4.648,-10.433 -0.04,-22.659 -10.474,-27.309 -31.516,-14.043 -64.989,-21.173 -99.492,-21.192 -0.052,0 -0.092,0 -0.144,0 -65.329,0 -126.767,25.428 -172.993,71.6 C 25.536,129.014 0.038,190.473 0,255.861 c -0.037,65.386 25.389,126.874 71.599,173.136 46.21,46.262 107.668,71.76 173.055,71.798 0.051,0 0.092,0 0.144,0 65.329,0 126.767,-25.427 172.993,-71.6 46.262,-46.209 71.76,-107.668 71.798,-173.066 v -20.842 c 0,-11.423 -9.259,-20.683 -20.682,-20.683 z" /></g></g><g
       style="stroke-width:1.04922926"
       transform="matrix(0.90836245,0,0,1,14.37603,0)"
       id="g12"><g
         style="stroke-width:1.04922926"
         id="g10"><path
           style="fill:#2ca05a;stroke-width:1.04922926"
           inkscape:connector-curvature="0"
           id="path8"
           d="m 505.942,39.803 c -8.077,-8.076 -21.172,-8.076 -29.249,0 L 244.794,271.701 192.185,219.092 c -8.076,-8.077 -21.172,-8.077 -29.248,0 -8.077,8.077 -8.077,21.172 0,29.249 l 67.234,67.234 c 4.038,4.039 9.332,6.058 14.625,6.058 5.293,0 10.586,-2.019 14.625,-6.058 L 505.942,69.052 c 8.077,-8.077 8.077,-21.172 0,-29.249 z" /></g></g></g><g
     id="g14" /><g
     id="g16" /><g
     id="g18" /><g
     id="g20" /><g
     id="g22" /><g
     id="g24" /><g
     id="g26" /><g
     id="g28" /><g
     id="g30" /><g
     id="g32" /><g
     id="g34" /><g
     id="g36" /><g
     id="g38" /><g
     id="g40" /><g
     id="g42" /></svg>