<?xml version="1.0" encoding="UTF-8" standalone="no"?>
<!-- Generator: Adobe Illustrator 19.0.0, SVG Export Plug-In . SVG Version: 6.00 Build 0)  -->

<svg
   xmlns:dc="http://purl.org/dc/elements/1.1/"
   xmlns:cc="http://creativecommons.org/ns#"
   xmlns:rdf="http://www.w3.org/1999/02/22-rdf-syntax-ns#"
   xmlns:svg="http://www.w3.org/2000/svg"
   xmlns="http://www.w3.org/2000/svg"
   xmlns:sodipodi="http://sodipodi.sourceforge.net/DTD/sodipodi-0.dtd"
   xmlns:inkscape="http://www.inkscape.org/namespaces/inkscape"
   version="1.1"
   id="Capa_1"
   x="0px"
   y="0px"
   viewBox="0 0 448 448"
   style="enable-background:new 0 0 448 448;"
   xml:space="preserve"
   sodipodi:docname="history.svg"
   inkscape:version="0.92.2 (5c3e80d, 2017-08-06)"><metadata
     id="metadata47"><rdf:RDF><cc:Work
         rdf:about=""><dc:format>image/svg+xml</dc:format><dc:type
           rdf:resource="http://purl.org/dc/dcmitype/StillImage" /></cc:Work></rdf:RDF></metadata><defs
     id="defs45" /><sodipodi:namedview
     pagecolor="#ffffff"
     bordercolor="#666666"
     borderopacity="1"
     objecttolerance="10"
     gridtolerance="10"
     guidetolerance="10"
     inkscape:pageopacity="0"
     inkscape:pageshadow="2"
     inkscape:window-width="2560"
     inkscape:window-height="1388"
     id="namedview43"
     showgrid="false"
     inkscape:zoom="0.52678571"
     inkscape:cx="-40.813559"
     inkscape:cy="224"
     inkscape:window-x="-8"
     inkscape:window-y="-8"
     inkscape:window-maximized="1"
     inkscape:current-layer="Capa_1" /><g
     id="g10"
     style="fill:#335777;fill-opacity:1"><g
       id="g8"
       style="fill:#335777;fill-opacity:1"><g
         id="g6"
         style="fill:#335777;fill-opacity:1"><path
           d="M255.893,32C149.76,32,64,117.973,64,224H0l83.093,83.093l1.493,3.093L170.667,224h-64     c0-82.453,66.88-149.333,149.333-149.333S405.333,141.547,405.333,224S338.453,373.333,256,373.333     c-41.28,0-78.507-16.853-105.493-43.84L120.32,359.68C154.987,394.453,202.88,416,255.893,416C362.027,416,448,330.027,448,224     S362.027,32,255.893,32z"
           id="path2"
           style="fill:#335777;fill-opacity:1" /><polygon
           points="234.667,138.667 234.667,245.333 325.973,299.52 341.333,273.6 266.667,229.333 266.667,138.667    "
           id="polygon4"
           style="fill:#335777;fill-opacity:1" /></g></g></g><g
     id="g12" /><g
     id="g14" /><g
     id="g16" /><g
     id="g18" /><g
     id="g20" /><g
     id="g22" /><g
     id="g24" /><g
     id="g26" /><g
     id="g28" /><g
     id="g30" /><g
     id="g32" /><g
     id="g34" /><g
     id="g36" /><g
     id="g38" /><g
     id="g40" /></svg>