<?xml version="1.0" encoding="UTF-8" standalone="no"?>
<!-- Generator: Adobe Illustrator 16.0.0, SVG Export Plug-In . SVG Version: 6.00 Build 0)  -->

<svg
   xmlns:dc="http://purl.org/dc/elements/1.1/"
   xmlns:cc="http://creativecommons.org/ns#"
   xmlns:rdf="http://www.w3.org/1999/02/22-rdf-syntax-ns#"
   xmlns:svg="http://www.w3.org/2000/svg"
   xmlns="http://www.w3.org/2000/svg"
   xmlns:sodipodi="http://sodipodi.sourceforge.net/DTD/sodipodi-0.dtd"
   xmlns:inkscape="http://www.inkscape.org/namespaces/inkscape"
   version="1.1"
   id="Capa_1"
   x="0px"
   y="0px"
   width="512px"
   height="512px"
   viewBox="0 0 438.533 438.533"
   style="enable-background:new 0 0 438.533 438.533;"
   xml:space="preserve"
   sodipodi:docname="Unlock.svg"
   inkscape:version="0.92.2 (5c3e80d, 2017-08-06)"><metadata
     id="metadata41"><rdf:RDF><cc:Work
         rdf:about=""><dc:format>image/svg+xml</dc:format><dc:type
           rdf:resource="http://purl.org/dc/dcmitype/StillImage" /></cc:Work></rdf:RDF></metadata><defs
     id="defs39" /><sodipodi:namedview
     pagecolor="#ffffff"
     bordercolor="#666666"
     borderopacity="1"
     objecttolerance="10"
     gridtolerance="10"
     guidetolerance="10"
     inkscape:pageopacity="0"
     inkscape:pageshadow="2"
     inkscape:window-width="2560"
     inkscape:window-height="1388"
     id="namedview37"
     showgrid="false"
     inkscape:zoom="0.4609375"
     inkscape:cx="-520.67797"
     inkscape:cy="256"
     inkscape:window-x="-8"
     inkscape:window-y="-8"
     inkscape:window-maximized="1"
     inkscape:current-layer="Capa_1" /><g
     id="g4"
     transform="matrix(0.83276836,0,0,0.78072212,36.668295,48.080684)"
     style="stroke-width:1.24019408"><path
       d="m 375.721,227.259 c -5.331,-5.331 -11.8,-7.992 -19.417,-7.992 H 146.176 v -91.36 c 0,-20.179 7.139,-37.402 21.415,-51.678 14.277,-14.273 31.501,-21.411 51.678,-21.411 20.175,0 37.402,7.137 51.673,21.411 14.277,14.276 21.416,31.5 21.416,51.678 0,4.947 1.807,9.229 5.42,12.845 3.621,3.617 7.905,5.426 12.847,5.426 h 18.281 c 4.945,0 9.227,-1.809 12.848,-5.426 3.606,-3.616 5.42,-7.898 5.42,-12.845 0,-35.216 -12.515,-65.331 -37.541,-90.362 C 284.603,12.513 254.48,0 219.269,0 184.055,0 153.935,12.513 128.903,37.544 103.875,62.572 91.361,92.69 91.361,127.906 v 91.36 h -9.135 c -7.611,0 -14.084,2.667 -19.414,7.992 -5.33,5.325 -7.994,11.8 -7.994,19.414 v 164.452 c 0,7.617 2.665,14.089 7.994,19.417 5.33,5.325 11.803,7.991 19.414,7.991 h 274.078 c 7.617,0 14.092,-2.666 19.417,-7.991 5.325,-5.328 7.994,-11.8 7.994,-19.417 V 246.673 c 0.004,-7.614 -2.662,-14.082 -7.994,-19.414 z"
       id="path2"
       inkscape:connector-curvature="0"
       style="fill:#757575;stroke-width:1.28086543" /></g><g
     id="g6" /><g
     id="g8" /><g
     id="g10" /><g
     id="g12" /><g
     id="g14" /><g
     id="g16" /><g
     id="g18" /><g
     id="g20" /><g
     id="g22" /><g
     id="g24" /><g
     id="g26" /><g
     id="g28" /><g
     id="g30" /><g
     id="g32" /><g
     id="g34" /></svg>