<svg height="512" viewBox="0 0 64 64" width="512" xmlns="http://www.w3.org/2000/svg"><path d="m37 52h23v-6h-23zm6-4h2v2h-2zm-4 0h2v2h-2z"/><path d="m37 60h23v-6h-23zm6-4h2v2h-2zm-4 0h2v2h-2z"/><path d="m56 36h-3.667l-3.733 2.8a1 1 0 0 1 -.6.2 1 1 0 0 1 -1-1v-2h-3a1 1 0 0 1 -1-1v-14a1 1 0 0 1 1-1h12v-4h-48v10h13a1 1 0 0 1 1 1v12a1 1 0 0 1 -1 1h-3v2a1 1 0 0 1 -1.6.8l-3.733-2.8h-4.667v18a2 2 0 0 0 2 2h25v-15a1 1 0 0 1 1-1h20zm-23 11h-4.68a6.986 6.986 0 0 1 -1.658 8.222 7.025 7.025 0 0 1 -4.678 1.778 7.35 7.35 0 0 1 -.8-.044 6.989 6.989 0 0 1 -5.503-9.956h-3.681a1 1 0 0 1 -1-1v-4h2v3h4.537a1 1 0 0 1 .744 1.668 4.952 4.952 0 0 0 -1.224 4.1 5.033 5.033 0 0 0 4.356 4.2 4.994 4.994 0 0 0 4.306-8.3 1 1 0 0 1 .744-1.668h6.537zm7-21.19a1 1 0 0 1 -1.5.865 5 5 0 0 0 -7.467 4.894 5.052 5.052 0 0 0 4.112 4.359 4.958 4.958 0 0 0 3.356-.6 1 1 0 0 1 1.5.865v5.807h-2.001v-4.292a7 7 0 0 1 -7.214-11.379 7.1 7.1 0 0 1 7.214-2.029v-3.3h-20a5.008 5.008 0 0 0 -4.715 3.333l-1.885-.666a7.012 7.012 0 0 1 6.6-4.667h21a1 1 0 0 1 1 1z"/><path d="m13.6 38.2 2.4 1.8v-1a1 1 0 0 1 1-1h3v-10h-16v10h9a1 1 0 0 1 .6.2zm2.4-8.2h2v2h-2zm-10 0h8v2h-8zm0 4h12v2h-12z"/><path d="m56 10a2 2 0 0 0 -2-2h-44a2 2 0 0 0 -2 2v4h48zm-44 2h-2v-2h2zm4 0h-2v-2h2zm4 0h-2v-2h2z"/><path d="m45 22v12h3a1 1 0 0 1 1 1v1l2.4-1.8a1 1 0 0 1 .6-.2h8v-12zm11.447 6.9-6 3a1 1 0 0 1 -1.447-.9v-6a1 1 0 0 1 1.447-.895l6 3a1 1 0 0 1 0 1.79z"/><path d="m51 29.382 2.764-1.382-2.764-1.382z"/></svg>