<?xml version="1.0" encoding="UTF-8" standalone="no"?>
<svg
   xmlns:dc="http://purl.org/dc/elements/1.1/"
   xmlns:cc="http://creativecommons.org/ns#"
   xmlns:rdf="http://www.w3.org/1999/02/22-rdf-syntax-ns#"
   xmlns:svg="http://www.w3.org/2000/svg"
   xmlns="http://www.w3.org/2000/svg"
   xmlns:sodipodi="http://sodipodi.sourceforge.net/DTD/sodipodi-0.dtd"
   xmlns:inkscape="http://www.inkscape.org/namespaces/inkscape"
   viewBox="0 0 195 202"
   id="svg2"
   version="1.1"
   inkscape:version="0.92.2 (5c3e80d, 2017-08-06)"
   width="100%"
   height="100%"
   sodipodi:docname="Working.svg">
  <metadata
     id="metadata16">
    <rdf:RDF>
      <cc:Work
         rdf:about="">
        <dc:format>image/svg+xml</dc:format>
        <dc:type
           rdf:resource="http://purl.org/dc/dcmitype/StillImage" />
      </cc:Work>
    </rdf:RDF>
  </metadata>
  <defs
     id="defs14">
    <filter
       id="filter3025"
       style="color-interpolation-filters:sRGB;"
       inkscape:label="Darken edges"
       inkscape:menu="Shadows and Glows"
       inkscape:menu-tooltip="Darken the edges with an inner blur"
       color-interpolation-filters="sRGB">
      <feFlood
         id="feFlood3027"
         flood-opacity="0.5"
         flood-color="rgb(255,255,255)"
         result="flood" />
      <feComposite
         id="feComposite3029"
         in2="SourceGraphic"
         in="flood"
         operator="in"
         result="composite1" />
      <feGaussianBlur
         id="feGaussianBlur3031"
         in="composite"
         stdDeviation="2"
         result="blur" />
      <feOffset
         id="feOffset3033"
         dx="4"
         dy="4"
         result="offset" />
      <feComposite
         id="feComposite3035"
         in2="offset"
         in="SourceGraphic"
         operator="over"
         result="fbSourceGraphic" />
      <feColorMatrix
         result="fbSourceGraphicAlpha"
         in="fbSourceGraphic"
         values="0 0 0 -1 0 0 0 0 -1 0 0 0 0 -1 0 0 0 0 1 0"
         id="feColorMatrix3049" />
      <feGaussianBlur
         id="feGaussianBlur3051"
         result="result6"
         stdDeviation="1.5"
         in="fbSourceGraphic" />
      <feComposite
         id="feComposite3053"
         in2="result6"
         operator="atop"
         in="fbSourceGraphic"
         result="result8" />
      <feComposite
         id="feComposite3055"
         in2="fbSourceGraphicAlpha"
         in="result8"
         operator="atop"
         result="result9" />
    </filter>
  </defs>
  <sodipodi:namedview
     pagecolor="#ffffff"
     bordercolor="#666666"
     borderopacity="1"
     objecttolerance="10"
     gridtolerance="10"
     guidetolerance="10"
     inkscape:pageopacity="0"
     inkscape:pageshadow="2"
     inkscape:window-width="1920"
     inkscape:window-height="1148"
     id="namedview12"
     showgrid="false"
     inkscape:zoom="1.1683168"
     inkscape:cx="-370.26695"
     inkscape:cy="101"
     inkscape:window-x="-8"
     inkscape:window-y="-8"
     inkscape:window-maximized="1"
     inkscape:current-layer="svg2" />
  <g
     fill="#ffea01"
     id="g6"
     style="fill:#33aa57;filter:url(#filter3025);fill-opacity:1">
    <path
       d="M 71.4,50.6 103.5,56.8 86.4,74.5 133.8,123.1 c 14,-11.3 20.3,-54 -32.7,-90 52.5,4.5 82.8,68.3 49,106 l 20.7,20.6 c 6.8,6.4 -6.4,18.8 -12.7,12.4 l -21.6,-21.4 c -21.2,15.3 -58.3,10.1 -70.6,-14.2 l -3,2.8 3.7,4 c 3.2,3.3 -3.3,8.1 -5.6,5.8 l -3.6,-3.9 c -7,11.6 -10.1,14 -15.8,19.8 -8.7,8.9 -20.3,-5.4 -12.6,-13.1 5.9,-5.9 12.3,-11.6 19.5,-15.2 l -3.5,-3.9 c -3.6,-4.3 2.9,-9 6.3,-5.2 l 2.8,3.6 9.7,-9.4 7.5,-0 c 7.8,12.1 27.6,25.1 49.1,12.8 L 73.6,87.8 60,102 40.9,82.1 71.5,50.6 z"
       id="path8"
       style="fill:#33aa57;fill-opacity:1" />
  </g>
</svg>
