<?xml version="1.0" encoding="UTF-8" standalone="no"?>
<!-- Generator: Adobe Illustrator 17.1.0, SVG Export Plug-In . SVG Version: 6.00 Build 0)  -->

<svg
   xmlns:dc="http://purl.org/dc/elements/1.1/"
   xmlns:cc="http://creativecommons.org/ns#"
   xmlns:rdf="http://www.w3.org/1999/02/22-rdf-syntax-ns#"
   xmlns:svg="http://www.w3.org/2000/svg"
   xmlns="http://www.w3.org/2000/svg"
   xmlns:sodipodi="http://sodipodi.sourceforge.net/DTD/sodipodi-0.dtd"
   xmlns:inkscape="http://www.inkscape.org/namespaces/inkscape"
   version="1.1"
   id="Capa_1"
   x="0px"
   y="0px"
   viewBox="0 0 340.935 340.935"
   style="enable-background:new 0 0 340.935 340.935;"
   xml:space="preserve"
   width="512px"
   height="512px"
   sodipodi:docname="ZoomReset.svg"
   inkscape:version="0.92.2 (5c3e80d, 2017-08-06)"><metadata
     id="metadata43"><rdf:RDF><cc:Work
         rdf:about=""><dc:format>image/svg+xml</dc:format><dc:type
           rdf:resource="http://purl.org/dc/dcmitype/StillImage" /><dc:title></dc:title></cc:Work></rdf:RDF></metadata><defs
     id="defs41" /><sodipodi:namedview
     pagecolor="#ffffff"
     bordercolor="#666666"
     borderopacity="1"
     objecttolerance="10"
     gridtolerance="10"
     guidetolerance="10"
     inkscape:pageopacity="0"
     inkscape:pageshadow="2"
     inkscape:window-width="1920"
     inkscape:window-height="1028"
     id="namedview39"
     showgrid="false"
     inkscape:zoom="0.4609375"
     inkscape:cx="-46.644068"
     inkscape:cy="256"
     inkscape:window-x="-8"
     inkscape:window-y="-8"
     inkscape:window-maximized="1"
     inkscape:current-layer="g6" /><g
     id="g6"><path
       d="M336.55,275.491l-70.045-70.044c-2.825-2.826-6.592-4.382-10.606-4.382c-4.015,0-7.781,1.556-10.607,4.381l-9.587,9.588   l-20.118-20.117c37.048-47.283,33.816-116.068-9.708-159.591C183.1,12.547,152.814,0.002,120.601,0.002   c-32.214,0-62.499,12.544-85.278,35.323C12.544,58.104,0,88.39,0,120.603c0,32.213,12.544,62.499,35.323,85.277   c22.778,22.779,53.064,35.323,85.278,35.323c27.028,0,52.696-8.835,73.715-25.132l20.176,20.175l-9.047,9.047   c-5.848,5.848-5.848,15.364,0,21.213l70.044,70.044c2.826,2.825,6.592,4.381,10.607,4.381c4.015,0,7.781-1.556,10.607-4.381   l39.847-39.848C342.397,290.856,342.397,281.34,336.55,275.491z M56.536,184.668C39.424,167.556,30,144.804,30,120.603   c0-24.201,9.424-46.953,26.536-64.065S96.4,30.002,120.601,30.002c24.2,0,46.952,9.424,64.064,26.536   c35.325,35.326,35.325,92.804,0,128.129c-17.112,17.112-39.864,26.536-64.064,26.536C96.4,211.204,73.648,201.78,56.536,184.668z"
       fill="#0d8dd3"
       id="path4" /><text
       xml:space="preserve"
       style="font-style:normal;font-weight:normal;font-size:77.31214142px;line-height:125%;font-family:sans-serif;letter-spacing:0px;word-spacing:0px;fill:#0d8dd3;fill-opacity:1;stroke:none;stroke-width:1.93280339px;stroke-linecap:butt;stroke-linejoin:miter;stroke-opacity:1"
       x="63.667858"
       y="142.80273"
       id="text852"
       transform="scale(0.94142917,1.0622148)"><tspan
         sodipodi:role="line"
         id="tspan850"
         x="63.667858"
         y="142.80273"
         style="fill:#0d8dd3;fill-opacity:1;stroke-width:1.93280339px">1:1</tspan><tspan
         sodipodi:role="line"
         x="63.667858"
         y="239.44292"
         style="fill:#0d8dd3;fill-opacity:1;stroke-width:1.93280339px"
         id="tspan872" /></text>
</g><g
     id="g8" /><g
     id="g10" /><g
     id="g12" /><g
     id="g14" /><g
     id="g16" /><g
     id="g18" /><g
     id="g20" /><g
     id="g22" /><g
     id="g24" /><g
     id="g26" /><g
     id="g28" /><g
     id="g30" /><g
     id="g32" /><g
     id="g34" /><g
     id="g36" /></svg>