<?xml version="1.0"?>
<svg xmlns="http://www.w3.org/2000/svg" height="512px" viewBox="0 0 512 512" width="512px"><path d="m121 211h30v-38.789062l188.789062 188.789062h-38.789062v30h90v-90h-30v38.789062l-188.789062-188.789062h38.789062v-30h-90zm0 0" fill="#335777"/><path d="m421 31h-60v30h60v30h30v60h30v-60h31v-91h-91zm0 0" fill="#335777"/><path d="m181 31h60v30h-60zm0 0" fill="#335777"/><path d="m271 31h60v30h-60zm0 0" fill="#335777"/><path d="m451 271h30v60h-30zm0 0" fill="#335777"/><path d="m451 181h30v60h-30zm0 0" fill="#335777"/><path d="m481 361h-30v60h-30v30h-60v30h60v31h91v-91h-31zm0 0" fill="#335777"/><path d="m31 271h30v60h-30zm0 0" fill="#335777"/><path d="m31 181h30v60h-30zm0 0" fill="#335777"/><path d="m31 151h30v-60h30v-30h60v-30h-60v-31h-91v91h31zm0 0" fill="#335777"/><path d="m91 481h60v-30h-60v-30h-30v-60h-30v60h-31v91h91zm0 0" fill="#335777"/><path d="m181 451h60v30h-60zm0 0" fill="#335777"/><path d="m271 451h60v30h-60zm0 0" fill="#335777"/></svg>
