<?xml version="1.0" encoding="UTF-8" standalone="no"?>
<!-- Generator: Adobe Illustrator 19.0.0, SVG Export Plug-In . SVG Version: 6.00 Build 0)  -->

<svg
   xmlns:dc="http://purl.org/dc/elements/1.1/"
   xmlns:cc="http://creativecommons.org/ns#"
   xmlns:rdf="http://www.w3.org/1999/02/22-rdf-syntax-ns#"
   xmlns:svg="http://www.w3.org/2000/svg"
   xmlns="http://www.w3.org/2000/svg"
   xmlns:sodipodi="http://sodipodi.sourceforge.net/DTD/sodipodi-0.dtd"
   xmlns:inkscape="http://www.inkscape.org/namespaces/inkscape"
   version="1.1"
   id="Layer_1"
   x="0px"
   y="0px"
   viewBox="0 0 511.99999 511.99999"
   xml:space="preserve"
   sodipodi:docname="RotationAroundY.svg"
   inkscape:version="0.92.4 (5da689c313, 2019-01-14)"
   width="512"
   height="512"><metadata
     id="metadata51"><rdf:RDF><cc:Work
         rdf:about=""><dc:format>image/svg+xml</dc:format><dc:type
           rdf:resource="http://purl.org/dc/dcmitype/StillImage" /><dc:title /></cc:Work></rdf:RDF></metadata><defs
     id="defs49" /><sodipodi:namedview
     pagecolor="#ffffff"
     bordercolor="#666666"
     borderopacity="1"
     objecttolerance="10"
     gridtolerance="10"
     guidetolerance="10"
     inkscape:pageopacity="0"
     inkscape:pageshadow="2"
     inkscape:window-width="1920"
     inkscape:window-height="1028"
     id="namedview47"
     showgrid="false"
     inkscape:zoom="1.3037561"
     inkscape:cx="223.28022"
     inkscape:cy="250.81312"
     inkscape:window-x="-8"
     inkscape:window-y="-8"
     inkscape:window-maximized="1"
     inkscape:current-layer="Layer_1" /><g
     id="g16"
     transform="translate(0,0.01098633)" /><g
     id="g18"
     transform="translate(0,0.01098633)" /><g
     id="g20"
     transform="translate(0,0.01098633)" /><g
     id="g22"
     transform="translate(0,0.01098633)" /><g
     id="g24"
     transform="translate(0,0.01098633)" /><g
     id="g26"
     transform="translate(0,0.01098633)" /><g
     id="g28"
     transform="translate(0,0.01098633)" /><g
     id="g30"
     transform="translate(0,0.01098633)" /><g
     id="g32"
     transform="translate(0,0.01098633)" /><g
     id="g34"
     transform="translate(0,0.01098633)" /><g
     id="g36"
     transform="translate(0,0.01098633)" /><g
     id="g38"
     transform="translate(0,0.01098633)" /><g
     id="g40"
     transform="translate(0,0.01098633)" /><g
     id="g42"
     transform="translate(0,0.01098633)" /><g
     id="g44"
     transform="translate(0,0.01098633)" /><path
     id="path510"
     d="m 255.99999,56 c -75,0 -139.99998,39.999998 -172.499989,102.5 L 56,131 v 99.99999 H 156 L 118.49999,193.5 c 25,-50 77.5,-87.5 137.5,-87.5 C 338.49999,106 406,173.5 406,255.99999 406,338.49999 338.49999,406 255.99999,406 c -44.99999,0 -85,-20 -112.5,-52.5 L 106,386 c 35,42.5 89.99999,70 149.99999,70 C 366,456 456,366 456,255.99999 456,146 366,56 255.99999,56 Z"
     inkscape:connector-curvature="0"
     style="fill:#335777;stroke-width:25" /><path
     inkscape:connector-curvature="0"
     d="m 246.02743,259.32776 v 40.34074 c 0,5.49564 3.59675,10.44201 8.49266,11.21179 6.1941,0.98927 11.48996,-4.28686 11.48996,-10.88203 v -40.6705 l 36.967,-39.35147 c 3.99671,-4.28686 3.99671,-11.21177 0.19951,-15.60889 -3.79627,-4.39712 -10.19082,-4.50635 -14.18753,-0.2195 l -32.97029,35.17385 -32.9703,-35.17385 c -3.99671,-4.28685 -10.29104,-4.17659 -14.18753,0.2195 -3.89649,4.39712 -3.79626,11.32203 0.19951,15.60889 z"
     id="path4"
     style="fill:#335777;fill-opacity:1;stroke-width:0.98245525" /></svg>
