<?xml version="1.0" encoding="UTF-8" standalone="no"?>
<!-- Generator: Adobe Illustrator 16.0.0, SVG Export Plug-In . SVG Version: 6.00 Build 0)  -->

<svg
   xmlns:dc="http://purl.org/dc/elements/1.1/"
   xmlns:cc="http://creativecommons.org/ns#"
   xmlns:rdf="http://www.w3.org/1999/02/22-rdf-syntax-ns#"
   xmlns:svg="http://www.w3.org/2000/svg"
   xmlns="http://www.w3.org/2000/svg"
   xmlns:sodipodi="http://sodipodi.sourceforge.net/DTD/sodipodi-0.dtd"
   xmlns:inkscape="http://www.inkscape.org/namespaces/inkscape"
   version="1.1"
   id="Capa_1"
   x="0px"
   y="0px"
   width="512px"
   height="512px"
   viewBox="0 0 520.526 520.525"
   style="enable-background:new 0 0 520.526 520.525;"
   xml:space="preserve"
   sodipodi:docname="CalibrationMark.svg"
   inkscape:version="0.92.2 (5c3e80d, 2017-08-06)"><metadata
     id="metadata41"><rdf:RDF><cc:Work
         rdf:about=""><dc:format>image/svg+xml</dc:format><dc:type
           rdf:resource="http://purl.org/dc/dcmitype/StillImage" /></cc:Work></rdf:RDF></metadata><defs
     id="defs39" /><sodipodi:namedview
     pagecolor="#ffffff"
     bordercolor="#666666"
     borderopacity="1"
     objecttolerance="10"
     gridtolerance="10"
     guidetolerance="10"
     inkscape:pageopacity="0"
     inkscape:pageshadow="2"
     inkscape:window-width="2560"
     inkscape:window-height="1388"
     id="namedview37"
     showgrid="false"
     inkscape:zoom="0.4609375"
     inkscape:cx="-520.67797"
     inkscape:cy="256"
     inkscape:window-x="-8"
     inkscape:window-y="-8"
     inkscape:window-maximized="1"
     inkscape:current-layer="Capa_1" /><g
     id="g4"
     transform="matrix(0.76172021,0,0,0.76172021,62.015794,62.015294)"
     style="stroke-width:1.31281805"><path
       d="M 481.686,254.21 C 478.5,140.55 386.245,48.826 272.368,46.515 V 0 H 260.263 V 46.601 C 147.92,50.611 57.426,141.655 54.272,254.21 H 0 v 12.105 h 54.272 c 3.154,112.554 93.647,203.603 205.99,207.61 v 46.6 h 12.105 V 474.007 C 386.244,471.702 478.5,379.979 481.685,266.315 h 38.84 V 254.21 Z M 260.263,58.706 v 61.779 C 188.338,124.159 130.779,182.129 127.711,254.21 H 66.378 C 69.52,148.325 154.596,62.699 260.263,58.706 Z m 0,403.114 C 154.596,457.824 69.52,372.201 66.378,266.315 h 61.333 c 3.068,72.082 60.626,130.049 132.552,133.726 z m 0,-154.732 v -40.27 H 220.49 v -13.116 h 39.773 v -39.271 h 13.116 v 39.271 h 39.773 v 13.116 h -39.773 v 40.27 z m 12.105,154.815 v -61.792 c 73.033,-2.494 131.869,-60.91 134.967,-133.796 h 62.246 C 466.407,373.307 379.572,459.598 272.368,461.903 Z M 407.334,254.21 C 404.23,181.325 345.4,122.911 272.367,120.423 V 58.626 c 107.204,2.3 194.039,88.594 197.213,195.584 z m -133.961,12.608 h -13.116 v -13.116 h 13.116 z"
       id="path2"
       inkscape:connector-curvature="0"
       style="fill:#D9D9D9;stroke-width:1.35587132" /></g><g
     id="g6" /><g
     id="g8" /><g
     id="g10" /><g
     id="g12" /><g
     id="g14" /><g
     id="g16" /><g
     id="g18" /><g
     id="g20" /><g
     id="g22" /><g
     id="g24" /><g
     id="g26" /><g
     id="g28" /><g
     id="g30" /><g
     id="g32" /><g
     id="g34" /></svg>