<?xml version="1.0" encoding="UTF-8" standalone="no"?>
<svg
   height="512"
   viewBox="0 0 24 24"
   width="512"
   version="1.1"
   id="svg1"
   sodipodi:docname="Capture.svg"
   inkscape:version="1.3 (0e150ed6c4, 2023-07-21)"
   xmlns:inkscape="http://www.inkscape.org/namespaces/inkscape"
   xmlns:sodipodi="http://sodipodi.sourceforge.net/DTD/sodipodi-0.dtd"
   xmlns="http://www.w3.org/2000/svg"
   xmlns:svg="http://www.w3.org/2000/svg">
  <defs
     id="defs1" />
  <sodipodi:namedview
     id="namedview1"
     pagecolor="#ffffff"
     bordercolor="#000000"
     borderopacity="0.25"
     inkscape:showpageshadow="2"
     inkscape:pageopacity="0.0"
     inkscape:pagecheckerboard="0"
     inkscape:deskcolor="#d1d1d1"
     inkscape:zoom="2.2929688"
     inkscape:cx="255.78194"
     inkscape:cy="256"
     inkscape:window-width="2560"
     inkscape:window-height="1370"
     inkscape:window-x="-6"
     inkscape:window-y="-6"
     inkscape:window-maximized="1"
     inkscape:current-layer="svg1" />
  <g
     id="Layer_2"
     data-name="Layer 2"
     transform="matrix(0.85227273,0,0,0.85227273,1.7727272,1.7727272)"
     style="fill:#d9d9d9;fill-opacity:1">
    <path
       d="M 2,10 A 1,1 0 0 1 1,9 V 6 A 5.0059,5.0059 0 0 1 6,1 H 9 A 1,1 0 0 1 9,3 H 6 A 3.0033,3.0033 0 0 0 3,6 V 9 A 1,1 0 0 1 2,10 Z M 23,9 V 6 A 5.0059,5.0059 0 0 0 18,1 h -3 a 1,1 0 0 0 0,2 h 3 a 3.0033,3.0033 0 0 1 3,3 v 3 a 1,1 0 0 0 2,0 z m 0,9 v -3 a 1,1 0 0 0 -2,0 v 3 a 3.0033,3.0033 0 0 1 -3,3 h -3 a 1,1 0 0 0 0,2 h 3 a 5.0059,5.0059 0 0 0 5,-5 z M 10,22 A 1,1 0 0 0 9,21 H 6 A 3.0033,3.0033 0 0 1 3,18 v -3 a 1,1 0 0 0 -2,0 v 3 a 5.0059,5.0059 0 0 0 5,5 h 3 a 1,1 0 0 0 1,-1 z m 7,-10 a 5,5 0 1 0 -5,5 5.0059,5.0059 0 0 0 5,-5 z"
       id="path1"
       style="fill:#d9d9d9;fill-opacity:1" />
  </g>
</svg>
