<?xml version="1.0" encoding="UTF-8" standalone="no"?>
<!-- Generator: Adobe Illustrator 25.2.3, SVG Export Plug-In . SVG Version: 6.00 Build 0)  -->

<svg
   xmlns:dc="http://purl.org/dc/elements/1.1/"
   xmlns:cc="http://creativecommons.org/ns#"
   xmlns:rdf="http://www.w3.org/1999/02/22-rdf-syntax-ns#"
   xmlns:svg="http://www.w3.org/2000/svg"
   xmlns="http://www.w3.org/2000/svg"
   xmlns:sodipodi="http://sodipodi.sourceforge.net/DTD/sodipodi-0.dtd"
   xmlns:inkscape="http://www.inkscape.org/namespaces/inkscape"
   version="1.1"
   id="Ebene_1"
   x="0px"
   y="0px"
   viewBox="0 0 512 512"
   xml:space="preserve"
   sodipodi:docname="Collapse.svg"
   width="512"
   height="512"
   inkscape:version="0.92.2 (5c3e80d, 2017-08-06)"><metadata
     id="metadata13"><rdf:RDF><cc:Work
         rdf:about=""><dc:format>image/svg+xml</dc:format><dc:type
           rdf:resource="http://purl.org/dc/dcmitype/StillImage" /><dc:title /></cc:Work></rdf:RDF></metadata><defs
     id="defs11" /><sodipodi:namedview
     pagecolor="#ffffff"
     bordercolor="#666666"
     borderopacity="1"
     objecttolerance="10"
     gridtolerance="10"
     guidetolerance="10"
     inkscape:pageopacity="0"
     inkscape:pageshadow="2"
     inkscape:window-width="1920"
     inkscape:window-height="1028"
     id="namedview9"
     showgrid="false"
     inkscape:zoom="0.921875"
     inkscape:cx="-140.45664"
     inkscape:cy="159.23185"
     inkscape:window-x="-8"
     inkscape:window-y="-8"
     inkscape:window-maximized="1"
     inkscape:current-layer="Ebene_1" /><style
     type="text/css"
     id="style2">
	.st0{fill:#FF00FF;}
</style><g
     id="g822"
     transform="matrix(28.469751,0,0,28.469751,28.241992,27.88612)"
     style="stroke-width:0.035125;fill:#d9d9d9;fill-opacity:1"><path
       id="path4"
       d="m 10,6.8 h 4 C 14.4,6.8 14.8,6.5 14.8,6 14.8,5.5 14.4,5.3 14,5.3 h -2.2 l 3,-3 C 15.1,2 15.1,1.5 14.8,1.2 14.6,1.1 14.4,1 14.3,1 14.2,1 13.9,1.1 13.8,1.2 l -3,3 V 2 C 10.8,1.6 10.5,1.2 10,1.2 9.5,1.2 9.3,1.6 9.3,2 v 4 c 0,0.4 0.3,0.8 0.7,0.8 z"
       class="st0"
       inkscape:connector-curvature="0"
       style="fill:#d9d9d9;stroke-width:0.00123377;fill-opacity:1" /><path
       id="path6"
       d="m 1.2,14.8 c 0.3,0.3 0.8,0.3 1.1,0 l 3,-3 V 14 c 0,0.4 0.3,0.8 0.8,0.8 0.5,0 0.8,-0.3 0.8,-0.8 V 10 C 6.9,9.6 6.6,9.2 6.1,9.2 H 2 c -0.4,0 -0.8,0.3 -0.8,0.8 0,0.5 0.3,0.8 0.8,0.8 h 2.2 l -3,3 c -0.3,0.2 -0.3,0.7 0,1 z"
       class="st0"
       inkscape:connector-curvature="0"
       style="fill:#d9d9d9;stroke-width:0.00123377;fill-opacity:1" /></g></svg>