<?xml version="1.0" encoding="UTF-8" standalone="no"?>
<svg
   xmlns:dc="http://purl.org/dc/elements/1.1/"
   xmlns:cc="http://creativecommons.org/ns#"
   xmlns:rdf="http://www.w3.org/1999/02/22-rdf-syntax-ns#"
   xmlns:svg="http://www.w3.org/2000/svg"
   xmlns="http://www.w3.org/2000/svg"
   xmlns:sodipodi="http://sodipodi.sourceforge.net/DTD/sodipodi-0.dtd"
   xmlns:inkscape="http://www.inkscape.org/namespaces/inkscape"
   version="1.1"
   id="Capa_1"
   x="0px"
   y="0px"
   viewBox="0 0 54.908 54.908"
   style="enable-background:new 0 0 54.908 54.908;"
   xml:space="preserve"
   width="512px"
   height="512px"
   sodipodi:docname="Communication.svg"
   inkscape:version="1.0.2-2 (e86c870879, 2021-01-15)"><metadata
     id="metadata47"><rdf:RDF><cc:Work
         rdf:about=""><dc:format>image/svg+xml</dc:format><dc:type
           rdf:resource="http://purl.org/dc/dcmitype/StillImage" /></cc:Work></rdf:RDF></metadata><defs
     id="defs45" /><sodipodi:namedview
     pagecolor="#ffffff"
     bordercolor="#666666"
     borderopacity="1"
     objecttolerance="10"
     gridtolerance="10"
     guidetolerance="10"
     inkscape:pageopacity="0"
     inkscape:pageshadow="2"
     inkscape:window-width="1920"
     inkscape:window-height="1017"
     id="namedview43"
     showgrid="false"
     inkscape:zoom="0.4609375"
     inkscape:cx="-296.13559"
     inkscape:cy="169.22034"
     inkscape:window-x="-8"
     inkscape:window-y="-8"
     inkscape:window-maximized="1"
     inkscape:current-layer="Capa_1"
     inkscape:document-rotation="0" /><g
     id="g12" /><g
     id="g14" /><g
     id="g16" /><g
     id="g18" /><g
     id="g20" /><g
     id="g22" /><g
     id="g24" /><g
     id="g26" /><g
     id="g28" /><g
     id="g30" /><g
     id="g32" /><g
     id="g34" /><g
     id="g36" /><g
     id="g38" /><g
     id="g40" /><g
     id="g1663"
     transform="translate(0,-1.8612881)"><path
       d="M 48.77404,17.474934 C 43.088644,11.409618 35.516226,8.0696759 27.454,8.0696759 c -8.062226,0 -15.633859,3.3391051 -21.32004,9.4052581 -0.3069156,0.327379 -0.3069156,0.856545 0,1.183925 0.3069156,0.32738 0.8030043,0.32738 1.10992,0 5.38947,-5.749658 12.567057,-8.9154441 20.21012,-8.9154441 7.643063,0 14.82065,3.1657861 20.21012,8.9146071 0.153065,0.163271 0.354013,0.245325 0.55496,0.245325 0.200947,0 0.401895,-0.08205 0.55496,-0.245325 0.306916,-0.326543 0.306916,-0.856546 0,-1.183088 z"
       id="path2"
       inkscape:connector-curvature="0"
       style="fill:#d9d9d9;stroke-width:1.0328" /><path
       d="m 10.747899,22.395676 c -0.306916,0.32738 -0.306916,0.856546 0,1.183925 0.153065,0.163272 0.354013,0.245326 0.55496,0.245326 0.200947,0 0.401895,-0.08205 0.55496,-0.245326 8.599132,-9.173328 22.59166,-9.173328 31.191577,0 0.306916,0.32738 0.803004,0.32738 1.10992,0 0.306916,-0.327379 0.306916,-0.856545 0,-1.183925 -9.210609,-9.824739 -24.199238,-9.826414 -33.411417,0 z"
       id="path4"
       inkscape:connector-curvature="0"
       style="fill:#d9d9d9;stroke-width:1.0328" /><path
       d="m 27.454,21.98373 c -4.572337,0 -8.866016,1.894783 -12.091377,5.334363 -0.306916,0.32738 -0.306916,0.856546 0,1.183925 0.306915,0.32738 0.803004,0.32738 1.10992,0 2.92865,-3.123084 6.828284,-4.843711 10.981457,-4.843711 4.153173,0 8.052807,1.720627 10.981457,4.843711 0.153066,0.163272 0.354013,0.245326 0.55496,0.245326 0.200948,0 0.401895,-0.08205 0.55496,-0.245326 0.306916,-0.327379 0.306916,-0.856545 0,-1.183925 C 36.320801,23.878513 32.026337,21.98373 27.454,21.98373 Z"
       id="path6"
       inkscape:connector-curvature="0"
       style="fill:#d9d9d9;stroke-width:1.0328" /><g
       id="Settings"
       style="fill:#d9d9d9;fill-opacity:1;stroke-width:1.27998"
       transform="matrix(0.08554091,0,0,0.0855388,15.958852,28.75543)"><g
         id="g4"
         style="fill:#d9d9d9;fill-opacity:1;stroke-width:1.27998"><path
           style="clip-rule:evenodd;fill:#d9d9d9;fill-opacity:1;fill-rule:evenodd;stroke-width:1.27998"
           d="m 267.92,119.461 c -0.425,-3.778 -4.83,-6.617 -8.639,-6.617 -12.315,0 -23.243,-7.231 -27.826,-18.414 -4.682,-11.454 -1.663,-24.812 7.515,-33.231 2.889,-2.641 3.24,-7.062 0.817,-10.133 -6.303,-8.004 -13.467,-15.234 -21.289,-21.5 -3.063,-2.458 -7.557,-2.116 -10.213,0.825 -8.01,8.871 -22.398,12.168 -33.516,7.529 -11.57,-4.867 -18.866,-16.591 -18.152,-29.176 0.235,-3.953 -2.654,-7.39 -6.595,-7.849 -10.038,-1.161 -20.164,-1.197 -30.232,-0.08 -3.896,0.43 -6.785,3.786 -6.654,7.689 0.438,12.461 -6.946,23.98 -18.401,28.672 -10.985,4.487 -25.272,1.218 -33.266,-7.574 -2.642,-2.896 -7.063,-3.252 -10.141,-0.853 -8.054,6.319 -15.379,13.555 -21.74,21.493 -2.481,3.086 -2.116,7.559 0.802,10.214 9.353,8.47 12.373,21.944 7.514,33.53 -4.639,11.046 -16.109,18.165 -29.24,18.165 -4.261,-0.137 -7.296,2.723 -7.762,6.597 -1.182,10.096 -1.196,20.383 -0.058,30.561 0.422,3.794 4.961,6.608 8.812,6.608 11.702,-0.299 22.937,6.946 27.65,18.415 4.698,11.454 1.678,24.804 -7.514,33.23 -2.875,2.641 -3.24,7.055 -0.817,10.126 6.244,7.953 13.409,15.19 21.259,21.508 3.079,2.481 7.559,2.131 10.228,-0.81 8.04,-8.893 22.427,-12.184 33.501,-7.536 11.599,4.852 18.895,16.575 18.181,29.167 -0.233,3.955 2.67,7.398 6.595,7.85 5.135,0.599 10.301,0.898 15.481,0.898 4.917,0 9.835,-0.27 14.752,-0.817 3.897,-0.43 6.784,-3.786 6.653,-7.696 -0.451,-12.454 6.946,-23.973 18.386,-28.657 11.059,-4.517 25.286,-1.211 33.281,7.572 2.657,2.89 7.047,3.239 10.142,0.848 8.039,-6.304 15.349,-13.534 21.74,-21.494 2.48,-3.079 2.13,-7.559 -0.803,-10.213 -9.353,-8.47 -12.388,-21.946 -7.529,-33.524 4.568,-10.899 15.612,-18.217 27.491,-18.217 l 1.662,0.043 c 3.853,0.313 7.398,-2.655 7.865,-6.588 1.184,-10.105 1.198,-20.383 0.06,-30.561 z m -133.325,60.03 c -24.718,0 -44.824,-20.106 -44.824,-44.824 0,-24.717 20.106,-44.824 44.824,-44.824 24.717,0 44.823,20.107 44.823,44.824 0,24.718 -20.106,44.824 -44.823,44.824 z"
           id="path2-0"
           inkscape:connector-curvature="0" /></g></g></g></svg>
