<?xml version="1.0" encoding="UTF-8" standalone="no"?>
<svg
   id="Layer_1"
   height="512"
   viewBox="0 0 48 48"
   width="512"
   version="1.1"
   sodipodi:docname="Critical.svg"
   inkscape:version="1.3 (0e150ed6c4, 2023-07-21)"
   xmlns:inkscape="http://www.inkscape.org/namespaces/inkscape"
   xmlns:sodipodi="http://sodipodi.sourceforge.net/DTD/sodipodi-0.dtd"
   xmlns="http://www.w3.org/2000/svg"
   xmlns:svg="http://www.w3.org/2000/svg">
  <defs
     id="defs4" />
  <sodipodi:namedview
     id="namedview4"
     pagecolor="#ffffff"
     bordercolor="#000000"
     borderopacity="0.25"
     inkscape:showpageshadow="2"
     inkscape:pageopacity="0.0"
     inkscape:pagecheckerboard="0"
     inkscape:deskcolor="#d1d1d1"
     inkscape:zoom="2.2929688"
     inkscape:cx="255.78194"
     inkscape:cy="255.99999"
     inkscape:window-width="2560"
     inkscape:window-height="1370"
     inkscape:window-x="-6"
     inkscape:window-y="-6"
     inkscape:window-maximized="1"
     inkscape:current-layer="Layer_1" />
  <path
     d="m 23.968768,42.737479 c -3.087541,0 -6.210776,-0.7585 -9.101999,-2.373658 C 10.49424,37.927697 7.3353108,33.929957 5.970011,29.111251 4.6047111,24.292546 5.193664,19.232905 7.6297873,14.8693 12.671581,5.847613 24.111544,2.5994486 33.133232,7.6323187 c 4.372529,2.4361233 7.531458,6.4338633 8.896757,11.2525693 1.3653,4.818705 0.776347,9.878346 -1.659776,14.241951 -3.426635,6.139388 -9.815881,9.61064 -16.392522,9.61064 z m -8.227493,-3.926352 c 3.953123,2.204111 8.530893,2.739523 12.885575,1.508076 4.354682,-1.24037 7.968711,-4.0959 10.181746,-8.049023 2.213035,-3.953123 2.739523,-8.530893 1.508076,-12.885575 -1.24037,-4.354682 -4.0959,-7.96871 -8.049023,-10.1728218 C 28.314526,7.0076717 23.736756,6.47226 19.382074,7.7037069 15.027392,8.9440773 11.413363,11.799607 9.2003283,15.752729 6.9872932,19.705852 6.460805,24.283622 7.692252,28.638304 c 1.2403704,4.354682 4.095899,7.968711 8.049023,10.172823 z"
     id="path1"
     style="stroke-width:0.892353;fill:#ff2500;fill-opacity:1" />
  <circle
     cx="24"
     cy="24"
     r="3.64"
     id="circle1"
     style="fill:#ff2500;fill-opacity:1" />
  <path
     d="m26.5 19.28c-.13 0-.27-.03-.4-.08-1.29-.56-2.78-.58-4.08-.05-.48.19-1.03 0-1.26-.47l-4.51-8.72c-.13-.24-.15-.53-.06-.79s.28-.47.54-.58c5.14-2.3 9.96-2.3 14.73.01.24.12.43.33.51.58.09.26.06.54-.06.77l-4.52 8.78c-.18.34-.53.54-.89.54z"
     id="path2"
     style="fill:#ff2500;fill-opacity:1" />
  <path
     d="m33.36 38.12c-.06 0-.12 0-.18-.02-.27-.05-.5-.2-.65-.42l-5.54-8.18c-.29-.44-.2-1.03.21-1.35 1.11-.86 1.84-2.16 2-3.56.06-.51.51-.9 1.02-.88l9.82.23c.27 0 .53.13.72.33.18.2.28.47.25.75-.44 5.61-2.76 9.84-7.07 12.92-.17.12-.38.19-.58.19z"
     id="path3"
     style="fill:#ff2500;fill-opacity:1" />
  <path
     d="m15.39 38.54c-.2 0-.39-.06-.55-.17-4.68-3.12-7.25-7.2-7.85-12.47-.03-.27.05-.54.22-.75s.42-.34.69-.36l9.84-.86c.53-.05 1 .32 1.08.84.21 1.39.99 2.66 2.14 3.48.42.3.54.87.28 1.32l-4.98 8.46c-.14.24-.37.41-.64.47-.07.02-.15.03-.22.03z"
     id="path4"
     style="fill:#ff2500;fill-opacity:1" />
</svg>
