<?xml version="1.0" encoding="UTF-8" standalone="no"?>
<svg
   xmlns:dc="http://purl.org/dc/elements/1.1/"
   xmlns:cc="http://creativecommons.org/ns#"
   xmlns:rdf="http://www.w3.org/1999/02/22-rdf-syntax-ns#"
   xmlns:svg="http://www.w3.org/2000/svg"
   xmlns="http://www.w3.org/2000/svg"
   xmlns:sodipodi="http://sodipodi.sourceforge.net/DTD/sodipodi-0.dtd"
   xmlns:inkscape="http://www.inkscape.org/namespaces/inkscape"
   id="Capa_1"
   enable-background="new 0 0 512.001 512.001"
   height="512"
   viewBox="0 0 512.001 512.001"
   width="512"
   version="1.1"
   sodipodi:docname="Csv.svg"
   inkscape:version="1.0.2-2 (e86c870879, 2021-01-15)">
  <metadata
     id="metadata17">
    <rdf:RDF>
      <cc:Work
         rdf:about="">
        <dc:format>image/svg+xml</dc:format>
        <dc:type
           rdf:resource="http://purl.org/dc/dcmitype/StillImage" />
        <dc:title></dc:title>
      </cc:Work>
    </rdf:RDF>
  </metadata>
  <defs
     id="defs15" />
  <sodipodi:namedview
     pagecolor="#ffffff"
     bordercolor="#666666"
     borderopacity="1"
     objecttolerance="10"
     gridtolerance="10"
     guidetolerance="10"
     inkscape:pageopacity="0"
     inkscape:pageshadow="2"
     inkscape:window-width="1920"
     inkscape:window-height="1017"
     id="namedview13"
     showgrid="false"
     inkscape:zoom="0.29347694"
     inkscape:cx="102.66286"
     inkscape:cy="711.77189"
     inkscape:window-x="-8"
     inkscape:window-y="-8"
     inkscape:window-maximized="1"
     inkscape:current-layer="Capa_1" />
  <g
     id="g10"
     transform="matrix(0.78125916,0,0,0.78125916,55.997764,55.997764)"
     style="fill:#d9d9d9;fill-opacity:1">
    <g
       id="g6"
       style="fill:#d9d9d9;fill-opacity:1">
      <path
         d="M 382.781,129.322 V 0.001 l 129.217,129.321 z"
         id="path2"
         style="fill:#d9d9d9;fill-opacity:1" />
      <path
         d="m 367.781,159.322 c -8.284,0 -15,-6.716 -15,-15 V 0 H 102.748 c -8.284,0 -15,6.716 -15,15 v 194.644 h 289.033 c 24.813,0 45,20.187 45,45 v 153.578 c 0,24.813 -20.187,45 -45,45 H 87.748 v 43.779 c 0,8.284 6.716,15 15,15 h 394.25 c 8.284,0 15,-6.716 15,-15 V 159.322 Z"
         id="path4"
         style="fill:#d9d9d9;fill-opacity:1" />
    </g>
    <path
       d="M 376.781,239.644 H 15.003 c -8.284,0 -15,6.716 -15,15 v 153.578 c 0,8.284 6.716,15 15,15 H 376.78 c 8.284,0 15,-6.716 15,-15 V 254.644 c 0.001,-8.284 -6.715,-15 -14.999,-15 z M 138.998,367.782 c -1.38,1.645 -2.882,3.194 -4.464,4.603 -8.081,7.198 -18.443,11.001 -29.969,11.001 -28.647,0 -51.953,-23.306 -51.953,-51.954 0,-28.647 23.306,-51.953 51.953,-51.953 10.41,0 20.457,3.071 29.057,8.881 5.72,3.865 7.225,11.635 3.359,17.355 -3.864,5.719 -11.635,7.225 -17.355,3.359 -4.45,-3.006 -9.658,-4.596 -15.061,-4.596 -14.862,0 -26.953,12.091 -26.953,26.953 0,14.862 12.091,26.954 26.953,26.954 5.373,0 9.861,-1.571 13.34,-4.668 0.68,-0.606 1.333,-1.28 1.938,-2.003 4.438,-5.288 12.32,-5.98 17.61,-1.543 5.29,4.438 5.981,12.322 1.545,17.611 z m 93.333,-12.338 c -2.749,15.395 -17.322,26.569 -34.652,26.569 -13.736,0 -26.646,-5.552 -35.418,-15.232 -4.693,-5.178 -4.237,-13.216 1.06,-17.826 5.171,-4.5 12.999,-3.701 17.697,1.291 3.994,4.244 10.192,6.768 16.66,6.768 5.857,0 9.595,-3.463 10.041,-5.963 0.477,-2.666 -3.932,-5.299 -7.851,-6.745 -11.735,-4.329 -22.163,-8.971 -22.602,-9.166 -0.603,-0.269 -1.182,-0.585 -1.734,-0.944 -8.941,-5.83 -13.549,-16.05 -12.024,-26.671 1.614,-11.239 9.782,-20.38 21.318,-23.855 17.648,-5.316 34.074,3.117 40.998,8.937 l -0.001,0.005 c 5.245,4.437 5.93,12.283 1.516,17.56 -4.429,5.296 -12.312,5.997 -17.608,1.568 l 0.001,-0.001 c -0.074,-0.058 -8.7,-6.841 -17.694,-4.131 -2.182,0.657 -3.561,1.922 -3.783,3.471 -0.001,0.007 -0.002,0.015 -0.003,0.022 -0.123,0.902 0.447,1.758 1.283,2.119 3.512,1.518 11.012,4.691 18.987,7.632 20.742,7.649 25.899,22.885 23.809,34.592 z m 98.64,-59.378 -25.765,77.554 c -1.979,5.83 -7.373,9.724 -13.447,9.767 -0.033,0 -0.068,0 -0.102,0 -6.034,0 -11.434,-3.807 -13.456,-9.5 l -27.008,-77.808 c -2.264,-6.522 1.188,-13.644 7.71,-15.908 6.518,-2.261 13.644,1.188 15.907,7.71 l 16.625,47.895 15.811,-47.592 c 2.177,-6.552 9.248,-10.099 15.804,-7.921 6.551,2.176 10.098,9.252 7.921,15.803 z"
       id="path8"
       style="fill:#d9d9d9;fill-opacity:1" />
  </g>
</svg>
