<?xml version="1.0" encoding="UTF-8" standalone="no"?>
<svg
   id="Layer_1"
   enable-background="new 0 0 512 512"
   viewBox="0 0 512 512"
   version="1.1"
   sodipodi:docname="crm.svg"
   inkscape:version="1.3 (0e150ed6c4, 2023-07-21)"
   xmlns:inkscape="http://www.inkscape.org/namespaces/inkscape"
   xmlns:sodipodi="http://sodipodi.sourceforge.net/DTD/sodipodi-0.dtd"
   xmlns="http://www.w3.org/2000/svg"
   xmlns:svg="http://www.w3.org/2000/svg">
  <defs
     id="defs1" />
  <sodipodi:namedview
     id="namedview1"
     pagecolor="#ffffff"
     bordercolor="#000000"
     borderopacity="0.25"
     inkscape:showpageshadow="2"
     inkscape:pageopacity="0.0"
     inkscape:pagecheckerboard="0"
     inkscape:deskcolor="#d1d1d1"
     inkscape:zoom="2.2929688"
     inkscape:cx="255.78194"
     inkscape:cy="256"
     inkscape:window-width="2560"
     inkscape:window-height="1370"
     inkscape:window-x="-6"
     inkscape:window-y="-6"
     inkscape:window-maximized="1"
     inkscape:current-layer="Layer_1" />
  <path
     d="m 305.48336,243.28576 c 3.71416,-7.42926 5.80577,-15.81155 5.80577,-24.68246 0,-30.5358 -24.75334,-55.28913 -55.28913,-55.28913 -30.5358,0 -55.28913,24.75333 -55.28913,55.28913 0,9.11336 2.20537,17.712 6.11163,25.28953 h -30.40991 c -0.91851,-2.89449 -1.68503,-5.85706 -2.28743,-8.87838 h -16.46803 v -32.82229 h 16.46803 c 2.16621,-10.86742 6.44174,-20.97203 12.3818,-29.87372 l -11.65072,-11.65071 23.20911,-23.20818 11.65071,11.64977 c 8.89983,-5.94097 19.00725,-10.21371 29.87372,-12.38178 v -16.46897 h 32.8223 v 16.46897 c 10.86741,2.1662 20.97203,6.44174 29.87278,12.38178 l 11.65072,-11.65071 23.20817,23.20912 -11.65071,11.65071 c 5.94005,8.89982 10.21372,19.00631 12.38086,29.87278 h 16.46897 v 32.82229 H 337.8739 c -1.33255,6.68606 -3.46425,13.08305 -6.28974,19.08931 -8.26572,-1.85941 -16.94827,-5.29662 -26.1008,-10.81706 z M 204.20589,59.288619 c 16.84757,-5.47287 34.08398,-8.159416 51.79411,-8.159416 17.71013,0 34.94654,2.686546 51.7941,8.159416 3.91093,1.271003 8.11186,-0.868162 9.38286,-4.779086 1.27101,-3.910925 -0.86816,-8.111858 -4.77908,-9.382862 C 294.2905,39.2435 275.03801,36.20913 256,36.20913 c -19.03895,0 -38.29051,3.03437 -56.39788,8.917541 -3.91092,1.271004 -6.05009,5.47287 -4.77909,9.382862 1.27101,3.910924 5.47194,6.050089 9.38286,4.779086 z M 337.75268,270.22582 c -17.67936,-1.99836 -36.74721,-9.62998 -57.41991,-26.68549 -10.02629,-8.27131 -23.44782,-9.6365 -33.62798,-1.13672 l -51.906,43.33722 c -4.04148,3.37473 -6.51168,7.77803 -5.37403,12.99072 l 14.02021,64.24491 c 25.25875,-9.48263 27.13402,-30.73815 29.15476,-53.70201 0.40284,-4.25501 0.35621,-8.43264 2.65111,-12.2158 2.51776,-4.15058 6.60213,-6.46879 11.9286,-6.85951 12.74454,-0.93343 33.94783,12.77717 42.08207,21.85698 l 90.21702,91.53092 9.31292,-9.31292 -24.89601,-124.96867 c -8.30954,1.47148 -17.00515,1.95359 -26.14276,0.92037 z m 118.10637,117.10487 -28.6195,-143.65981 c -0.78797,-3.95288 -4.66625,-6.54338 -8.62007,-5.75635 l -36.82927,7.33695 c -3.95382,0.78797 -6.54432,4.66719 -5.75635,8.62007 l 28.6195,143.6598 c 0.78796,3.95383 4.66625,6.54433 8.621,5.75543 l 36.82927,-7.33695 c 3.95289,-0.78704 6.54245,-4.66625 5.75542,-8.61914 z M 154.29545,136.35546 c -7.38823,-9.81182 -18.87389,-15.6409 -31.21466,-15.6409 -12.34076,0 -23.826422,5.82908 -31.214656,15.6409 9.074206,5.60342 19.766296,8.83828 31.214656,8.83828 11.44836,-9.4e-4 22.14046,-3.2358 31.21466,-8.83828 z M 101.66023,110.26025 C 94.543355,104.05257 90.480432,95.142488 90.480432,85.685027 c 0,-18.003867 14.597428,-32.600362 32.601288,-32.600362 18.00387,0 32.6013,14.597428 32.6013,32.600362 0,9.457461 -4.06293,18.367543 -11.1798,24.574293 8.42145,3.675 15.80129,9.46865 21.39445,16.74964 10.33309,-10.70421 16.69277,-25.27087 16.69277,-41.323933 0,-32.865193 -26.64259,-59.507782 -59.50778,-59.507782 -32.865194,0 -59.507783,26.642589 -59.507783,59.507782 0,16.053063 6.359681,30.619723 16.692765,41.323933 5.59223,-7.28099 12.969274,-13.07277 21.392588,-16.74871 z M 278.66079,322.4955 c -8.92127,-8.12212 -16.89885,-13.31243 -23.20724,-15.82926 -3.02971,-1.20853 -5.471,-1.7326 -7.22505,-1.60391 -0.87095,0.0634 -0.58281,3.39991 -0.76745,5.49526 -2.67815,30.43227 -5.14556,58.40742 -47.32834,69.00626 -4.17482,1.31577 -8.60515,-1.23836 -9.53299,-5.53255 l -15.74534,-72.15068 c -2.33779,-10.71074 2.18579,-20.71465 10.38624,-27.5611 l 18.57083,-15.50568 h -53.61622 l -27.30747,137.0735 85.64029,85.6403 c 2.75649,2.75649 6.46692,4.29512 10.36479,4.29512 8.12492,0 14.66177,-6.52567 14.66177,-14.65992 0,-3.744 -1.43139,-7.50013 -4.29418,-10.36291 l -26.1493,-26.15024 c -2.91314,-2.91314 -2.91314,-7.63628 0,-10.54849 2.91315,-2.91314 7.63628,-2.91314 10.5485,0 l 56.25613,56.25614 c 2.75649,2.75649 6.46692,4.29418 10.36573,4.29418 8.12957,0 14.63099,-6.53125 14.63099,-14.66083 0,-3.76266 -1.42207,-7.52064 -4.26621,-10.36385 l -52.52612,-52.52612 c -2.91314,-2.91314 -2.91314,-7.63629 0,-10.54849 2.91315,-2.91315 7.63629,-2.91315 10.5485,0 l 69.58815,69.58814 c 5.72558,5.72652 15.00307,5.72558 20.72865,0 5.69014,-5.68921 5.68921,-15.04223 9.3e-4,-20.73051 l -65.8572,-65.85627 c -2.91315,-2.91314 -2.91315,-7.63627 0,-10.54849 2.91314,-2.91314 7.63628,-2.91314 10.54942,0 l 65.85627,65.85627 c 2.69121,2.74716 6.52847,4.29605 10.36479,4.29605 7.21386,0 13.38984,-5.25746 14.46968,-12.43402 0.41776,-2.77793 0.0578,-5.64072 -1.08078,-8.21629 z m -148.451,-77.24402 -36.829268,-7.33695 c -3.95382,-0.78702 -7.832107,1.80347 -8.620073,5.75635 L 56.14095,387.33069 c -0.787034,3.95381 1.802531,7.8321 5.755418,8.62006 l 36.82927,7.33695 c 3.954752,0.78797 7.833042,-1.80252 8.621002,-5.75542 l 28.6195,-143.65979 c 0.78797,-3.95382 -1.8016,-7.83304 -5.75635,-8.62101 z M 88.116533,168.73575 c -3.99112,-0.99778 -8.036325,1.42859 -9.033172,5.41971 -3.203153,12.78837 -4.9889,25.93855 -5.368429,39.11577 -0.112833,4.10396 3.122958,7.52252 7.226911,7.63535 4.103952,0.11284 7.522514,-3.12296 7.635347,-7.22691 0.348757,-12.12442 2.013278,-24.14534 4.959992,-35.91075 0.996848,-3.99112 -1.429529,-8.03539 -5.420649,-9.03317 z M 140.76201,85.685027 c 0,-9.766121 -7.9151,-17.68122 -17.68122,-17.68122 -9.76612,0 -17.68122,7.914166 -17.68122,17.68122 0,9.76612 7.91417,17.681223 17.68122,17.681223 9.76612,0 17.68122,-7.915103 17.68122,-17.681223 z m 216.94254,50.670433 c 9.0742,5.60342 19.7663,8.83828 31.21466,8.83828 11.44835,0 22.14045,-3.23486 31.21465,-8.83828 -7.38823,-9.81182 -18.87389,-15.6409 -31.21465,-15.6409 -12.34077,-9.4e-4 -23.82643,5.82908 -31.21466,15.6409 z m 48.89494,-50.670433 c 0,-9.766121 -7.9151,-17.68122 -17.68122,-17.68122 -9.76612,0 -17.68122,7.914166 -17.68122,17.68122 0,9.76612 7.9151,17.681223 17.68122,17.681223 9.76706,0 17.68122,-7.915103 17.68122,-17.681223 z m -39.10178,24.575223 c -7.11688,-6.20768 -11.1798,-15.117762 -11.1798,-24.574291 0,-18.003866 14.59743,-32.600361 32.60036,-32.600361 18.00387,0 32.6013,14.597427 32.6013,32.600361 0,9.457462 -4.06293,18.367541 -11.1798,24.574291 8.42145,3.675 15.80129,9.46865 21.39445,16.74965 10.33309,-10.70422 16.69277,-25.27087 16.69277,-41.323941 0,-32.865192 -26.64259,-59.507782 -59.50778,-59.507782 -32.8652,0 -59.50779,26.64259 -59.50779,59.507782 0,16.053071 6.35969,30.619721 16.69277,41.323951 5.59409,-7.28193 12.97114,-13.07372 21.39352,-16.74966 z m 55.92603,103.41942 c 0.11283,4.10395 3.5314,7.33975 7.63535,7.22691 4.10395,-0.11283 7.33974,-3.53138 7.22691,-7.63534 -0.3786,-13.17722 -2.16528,-26.32647 -5.36843,-39.11577 -0.99778,-3.99112 -5.04205,-6.41749 -9.0341,-5.41972 -3.99112,0.99779 -6.4175,5.04205 -5.41972,9.03318 2.94671,11.76448 4.61123,23.78633 4.95999,35.91074 z"
     id="path1"
     style="stroke-width:0.932505;fill:#d9d9d9;fill-opacity:1" />
</svg>
