<?xml version="1.0" encoding="UTF-8"?>
<svg xmlns="http://www.w3.org/2000/svg" xmlns:xlink="http://www.w3.org/1999/xlink" width="512px" height="512px" viewBox="0 0 512 512" version="1.1">
<g id="surface1">
<path style=" stroke:none;fill-rule:nonzero;fill:rgb(85.098039%,85.098039%,85.098039%);fill-opacity:1;" d="M 473.21875 0 L 38.78125 0 C 25.929688 0 15.507812 10.421875 15.507812 23.273438 L 15.507812 116.367188 C 15.507812 122.925781 18.277344 129.175781 23.128906 133.589844 L 186.179688 281.804688 L 186.179688 488.726562 C 186.179688 496.792969 190.355469 504.285156 197.214844 508.523438 C 200.957031 510.832031 205.199219 512 209.453125 512 C 213.011719 512 216.578125 511.183594 219.859375 509.542969 L 312.953125 462.996094 C 320.839844 459.054688 325.820312 450.996094 325.820312 442.179688 L 325.820312 281.804688 L 488.871094 133.589844 C 493.722656 129.175781 496.492188 122.925781 496.492188 116.367188 L 496.492188 23.273438 C 496.492188 10.421875 486.070312 0 473.21875 0 Z M 286.890625 254.289062 C 282.039062 258.699219 279.273438 264.953125 279.273438 271.511719 L 279.273438 427.796875 L 232.726562 451.070312 L 232.726562 271.511719 C 232.726562 264.953125 229.960938 258.699219 225.109375 254.289062 L 98.984375 139.640625 L 413.015625 139.640625 Z M 449.945312 93.09375 L 62.054688 93.09375 L 62.054688 46.546875 L 449.945312 46.546875 Z M 449.945312 93.09375 "/>
</g>
</svg>
