<?xml version="1.0" encoding="UTF-8" standalone="no"?>
<!-- Generator: Adobe Illustrator 19.0.0, SVG Export Plug-In . SVG Version: 6.00 Build 0)  -->

<svg
   version="1.1"
   id="Capa_1"
   x="0px"
   y="0px"
   viewBox="0 0 389.44 389.44"
   style="enable-background:new 0 0 389.44 389.44;"
   xml:space="preserve"
   sodipodi:docname="FolderClosed.svg"
   inkscape:version="1.2.1 (9c6d41e410, 2022-07-14)"
   xmlns:inkscape="http://www.inkscape.org/namespaces/inkscape"
   xmlns:sodipodi="http://sodipodi.sourceforge.net/DTD/sodipodi-0.dtd"
   xmlns="http://www.w3.org/2000/svg"
   xmlns:svg="http://www.w3.org/2000/svg"><defs
   id="defs41" /><sodipodi:namedview
   id="namedview39"
   pagecolor="#ffffff"
   bordercolor="#000000"
   borderopacity="0.25"
   inkscape:showpageshadow="2"
   inkscape:pageopacity="0.0"
   inkscape:pagecheckerboard="0"
   inkscape:deskcolor="#d1d1d1"
   showgrid="false"
   inkscape:zoom="2.63712"
   inkscape:cx="194.9096"
   inkscape:cy="194.9096"
   inkscape:window-width="3840"
   inkscape:window-height="2054"
   inkscape:window-x="-11"
   inkscape:window-y="-11"
   inkscape:window-maximized="1"
   inkscape:current-layer="Capa_1" />
<g
   id="g6"
   style="fill:#D9D9D9">
	<g
   id="g4"
   style="fill:#D9D9D9">
		<path
   d="M 354.72,84.64 H 197.08 l -31.44,-37.4 c -0.924,-1.096 -2.286,-1.726 -3.72,-1.72 H 34.72 C 15.554,45.542 0.022,61.074 0,80.24 V 309.2 c 0.022,19.166 15.554,34.698 34.72,34.72 h 320 c 19.166,-0.022 34.698,-15.554 34.72,-34.72 V 119.36 C 389.418,100.194 373.886,84.662 354.72,84.64 Z m 25.04,224.56 c -0.022,13.82 -11.22,25.018 -25.04,25.04 h -320 C 20.9,334.218 9.702,323.02 9.68,309.2 V 80.24 C 9.702,66.42 20.9,55.222 34.72,55.2 H 159.56 L 191,92.6 c 0.924,1.096 2.286,1.726 3.72,1.72 h 160 c 13.82,0.022 25.018,11.22 25.04,25.04 z"
   id="path2"
   style="fill:#D9D9D9" />
	</g>
</g>
<g
   id="g8">
</g>
<g
   id="g10">
</g>
<g
   id="g12">
</g>
<g
   id="g14">
</g>
<g
   id="g16">
</g>
<g
   id="g18">
</g>
<g
   id="g20">
</g>
<g
   id="g22">
</g>
<g
   id="g24">
</g>
<g
   id="g26">
</g>
<g
   id="g28">
</g>
<g
   id="g30">
</g>
<g
   id="g32">
</g>
<g
   id="g34">
</g>
<g
   id="g36">
</g>
</svg>
