<?xml version="1.0" encoding="UTF-8" standalone="no"?>
<!-- Generator: Adobe Illustrator 19.0.0, SVG Export Plug-In . SVG Version: 6.00 Build 0)  -->

<svg
   version="1.1"
   id="Capa_1"
   x="0px"
   y="0px"
   viewBox="0 0 389.661 389.661"
   style="enable-background:new 0 0 389.661 389.661;"
   xml:space="preserve"
   sodipodi:docname="FolderOpened.svg"
   inkscape:version="1.2.1 (9c6d41e410, 2022-07-14)"
   xmlns:inkscape="http://www.inkscape.org/namespaces/inkscape"
   xmlns:sodipodi="http://sodipodi.sourceforge.net/DTD/sodipodi-0.dtd"
   xmlns="http://www.w3.org/2000/svg"
   xmlns:svg="http://www.w3.org/2000/svg"><defs
   id="defs41" /><sodipodi:namedview
   id="namedview39"
   pagecolor="#ffffff"
   bordercolor="#000000"
   borderopacity="0.25"
   inkscape:showpageshadow="2"
   inkscape:pageopacity="0.0"
   inkscape:pagecheckerboard="0"
   inkscape:deskcolor="#d1d1d1"
   showgrid="false"
   inkscape:zoom="2.6356242"
   inkscape:cx="195.02022"
   inkscape:cy="195.02022"
   inkscape:window-width="3840"
   inkscape:window-height="2054"
   inkscape:window-x="-11"
   inkscape:window-y="-11"
   inkscape:window-maximized="1"
   inkscape:current-layer="Capa_1" />
<g
   id="g6"
   style="fill:#D9D9D9">
	<g
   id="g4"
   style="fill:#D9D9D9">
		<path
   d="m 351.211,107.551 v -9.8 c -0.022,-15.83 -12.85,-28.658 -28.68,-28.68 h -125.44 l -24.8,-29.48 c -0.924,-1.096 -2.286,-1.726 -3.72,-1.72 h -101.4 c -15.83,0.022 -28.658,12.85 -28.68,28.68 v 41 c -21.275,0.132 -38.458,17.405 -38.48,38.68 -0.014,0.213 -0.014,0.427 0,0.64 l 22.32,166.56 c 0.219,21.219 17.46,38.317 38.68,38.36 h 267.6 c 21.22,-0.043 38.461,-17.141 38.68,-38.36 l 22.36,-166.6 c 0.014,-0.213 0.014,-0.427 0,-0.64 -0.044,-21.245 -17.197,-38.487 -38.44,-38.64 z m -303.04,-41 c 0,-10.478 8.482,-18.978 18.96,-19 h 99.2 l 24.8,29.48 c 0.909,1.126 2.273,1.786 3.72,1.8 h 127.68 c 10.478,0.022 18.96,8.522 18.96,19 v 9.76 H 48.171 Z m 309.52,245.88 c -0.014,0.213 -0.014,0.427 0,0.64 -0.022,16.007 -12.993,28.978 -29,29 H 61.051 c -16.007,-0.022 -28.978,-12.993 -29,-29 0.014,-0.213 0.014,-0.427 0,-0.64 L 9.691,145.911 c 0.195,-15.805 12.995,-28.551 28.8,-28.68 h 312.72 c 15.805,0.129 28.605,12.875 28.8,28.68 z"
   id="path2"
   style="fill:#D9D9D9" />
	</g>
</g>
<g
   id="g8">
</g>
<g
   id="g10">
</g>
<g
   id="g12">
</g>
<g
   id="g14">
</g>
<g
   id="g16">
</g>
<g
   id="g18">
</g>
<g
   id="g20">
</g>
<g
   id="g22">
</g>
<g
   id="g24">
</g>
<g
   id="g26">
</g>
<g
   id="g28">
</g>
<g
   id="g30">
</g>
<g
   id="g32">
</g>
<g
   id="g34">
</g>
<g
   id="g36">
</g>
</svg>
