<?xml version="1.0" encoding="utf-8"?>
<!-- Svg Vector Icons : http://www.onlinewebfonts.com/icon -->
<!DOCTYPE svg PUBLIC "-//W3C//DTD SVG 1.1//EN" "http://www.w3.org/Graphics/SVG/1.1/DTD/svg11.dtd">
<svg version="1.1" xmlns="http://www.w3.org/2000/svg" xmlns:xlink="http://www.w3.org/1999/xlink" x="0px" y="0px" viewBox="0 0 256 256" enable-background="new 0 0 256 256" xml:space="preserve">
<metadata> Svg Vector Icons : http://www.onlinewebfonts.com/icon </metadata>
<g><g><g><path fill="#D9D9D9" d="M41.7,10.5c-0.5,0.2-1.5,1-2.2,1.7l-1.2,1.3L38.1,110c-0.1,69,0,97,0.4,98.4c0.3,1.2,1.1,2.2,2.1,2.8c1.4,0.9,2.5,1,10.8,1h9.2V227c0,13.9,0.1,15,1,16.5c0.6,1,1.6,1.8,2.8,2.1c1.3,0.4,23.2,0.5,76,0.4l74.2-0.1l1.6-1.6l1.6-1.6l0.1-97c0.1-91.6,0.1-97.1-0.7-98.7c-1.4-2.7-2.3-3-12.5-3h-9.2V29.1c0-16.5-0.1-17.2-3.2-18.5c-1.4-0.6-12.8-0.7-75.6-0.6C75.9,10,42.2,10.2,41.7,10.5z M184.1,111.3v90h-67.4H49.3v-90v-90h67.4h67.4V111.3z"/><path fill="#D9D9D9" d="M63.7,33.1c-0.6,0.2-1.6,1.2-2.1,2.1c-1,1.6-1,2.5-1,64.7c0,70-0.2,65.4,3.2,66.8c2.6,1.1,103.9,1,106-0.1c3.2-1.6,3,3.5,3-66.8V35.9l-1.7-1.7l-1.7-1.7l-52.3,0C87.2,32.6,64.3,32.8,63.7,33.1z M161.8,70.3c0.1,14.7,0,26.7-0.2,26.7c-0.1,0-2.1-1.5-4.2-3.4c-5.2-4.6-6.1-5.1-7.7-4.7c-1.5,0.4-3.6,2.3-18.2,16.4l-10.8,10.5l-9.6-11c-5.3-6-10.2-11.3-10.9-11.6c-1.6-0.7-3.1-0.7-4.5,0c-0.6,0.3-6.2,5.4-12.4,11.3l-11.4,10.7v-36V43.4l44.9,0.1l44.9,0.1L161.8,70.3z"/><path fill="#D9D9D9" d="M117.9,58.2c-5,1-10,5-12.1,9.7c-0.8,1.8-1.1,3.2-1.1,6.7c0,3.9,0.1,4.8,1.4,7.3c5.4,10.6,19.4,12.6,27.3,4c2.9-3.1,4.1-6.1,4.4-10.6c0.3-5.3-1-8.7-5-12.6C128.5,58.7,123.2,57,117.9,58.2z"/></g></g></g>
</svg>