<svg xmlns="http://www.w3.org/2000/svg" xmlns:xlink="http://www.w3.org/1999/xlink" version="1.1" viewBox="0 0 512 512" enable-background="new 0 0 512 512"><g><g fill="#d9d9d9"><path d="M457.9,57.7H330.7V21.4c0-5.8-4.7-10.4-10.4-10.4H191.7c-5.8,0-10.4,4.7-10.4,10.4v36.3H54.1 c-5.8,0-10.4,4.7-10.4,10.4v46.8c0,5.8,4.7,10.4,10.4,10.4h52.1v365.2c0,5.8,4.7,10.4,10.4,10.4h278.8c5.8,0,10.4-4.7,10.4-10.4 V125.3h52.1c5.8,0,10.4-4.7,10.4-10.4V68.2C468.4,62.4,463.7,57.7,457.9,57.7z M202.1,31.9h107.7v25.9H202.1V31.9z M385,480.1H127 V125.3h258V480.1z M447.5,104.5h-383V78.6h383V104.5z" fill="#d9d9d9"/><path d="m193.7,412.5c5.8,0 10.4-4.7 10.4-10.4v-198.7c0-5.8-4.7-10.4-10.4-10.4s-10.4,4.7-10.4,10.4v198.7c-0.1,5.8 4.6,10.4 10.4,10.4z" fill="#d9d9d9"/><path d="m256,412.5c5.8,0 10.4-4.7 10.4-10.4v-198.7c0-5.8-4.7-10.4-10.4-10.4s-10.4,4.7-10.4,10.4v198.7c2.84217e-14,5.8 4.6,10.4 10.4,10.4z" fill="#d9d9d9"/><path d="m318.3,412.5c5.8,0 10.4-4.7 10.4-10.4v-198.7c0-5.8-4.7-10.4-10.4-10.4s-10.4,4.7-10.4,10.4v198.7c-5.68434e-14,5.8 4.7,10.4 10.4,10.4z" fill="#d9d9d9"/></g></g></svg>