<svg width="28" height="28" viewBox="0 0 28 28" fill="none" xmlns="http://www.w3.org/2000/svg">
<path d="M14 24C19.5228 24 24 19.5228 24 14C24 8.47715 19.5228 4 14 4C8.47715 4 4 8.47715 4 14C4 19.5228 8.47715 24 14 24Z" stroke="#D9D9D9" stroke-width="2" stroke-miterlimit="10" stroke-linecap="round"/>
<path d="M15.414 15.414C15.0368 15.7783 14.5316 15.9799 14.0072 15.9753C13.4828 15.9708 12.9811 15.7604 12.6103 15.3896C12.2395 15.0188 12.0292 14.5172 12.0246 13.9928C12.0201 13.4684 12.2216 12.9632 12.586 12.586C13.367 11.805 20.718 7.286 20.718 7.286C20.718 7.286 16.2 14.633 15.414 15.414Z" stroke="#D9D9D9" stroke-width="2" stroke-linecap="round" stroke-linejoin="round"/>
<path d="M5.5 14H7" stroke="#D9D9D9" stroke-width="2" stroke-miterlimit="10" stroke-linecap="round"/>
<path d="M7.98999 7.99001L9.04999 9.05001" stroke="#D9D9D9" stroke-width="2" stroke-miterlimit="10" stroke-linecap="round"/>
<path d="M14 5.5V7" stroke="#D9D9D9" stroke-width="2" stroke-miterlimit="10" stroke-linecap="round"/>
<path d="M22.5 14H21" stroke="#D9D9D9" stroke-width="2" stroke-miterlimit="10" stroke-linecap="round"/>
<path d="M21 21.1077C18.9449 19.6895 16.4965 18.9521 14 18.9995C11.5035 18.9521 9.0551 19.6895 7 21.1077" stroke="#D9D9D9" stroke-width="2" stroke-miterlimit="10" stroke-linecap="round"/>
</svg>
