<svg width="36" height="36" viewBox="0 0 36 36" fill="none" xmlns="http://www.w3.org/2000/svg">
<g clip-path="url(#clip0_404_37)">
<path d="M18 10.5C22.14 10.5 25.5 13.86 25.5 18C25.5 18.975 25.305 19.89 24.96 20.745L29.34 25.125C31.605 23.235 33.39 20.79 34.485 18C31.89 11.415 25.485 6.75 17.985 6.75C15.885 6.75 13.875 7.125 12.015 7.8L15.255 11.04C16.11 10.695 17.025 10.5 18 10.5ZM3 6.405L6.42 9.825L7.11 10.515C4.62 12.45 2.67 15.03 1.5 18C4.095 24.585 10.5 29.25 18 29.25C20.325 29.25 22.545 28.8 24.57 27.99L25.2 28.62L29.595 33L31.5 31.095L4.905 4.5L3 6.405ZM11.295 14.7L13.62 17.025C13.545 17.34 13.5 17.67 13.5 18C13.5 20.49 15.51 22.5 18 22.5C18.33 22.5 18.66 22.455 18.975 22.38L21.3 24.705C20.295 25.2 19.185 25.5 18 25.5C13.86 25.5 10.5 22.14 10.5 18C10.5 16.815 10.8 15.705 11.295 14.7ZM17.76 13.53L22.485 18.255L22.515 18.015C22.515 15.525 20.505 13.515 18.015 13.515L17.76 13.53Z" fill="#D9D9D9"/>
</g>
<defs>
<clipPath id="clip0_404_37">
<rect width="36" height="36" fill="white"/>
</clipPath>
</defs>
</svg>
