<?xml version="1.0" encoding="UTF-8" standalone="no"?>
<svg
   xmlns:dc="http://purl.org/dc/elements/1.1/"
   xmlns:cc="http://creativecommons.org/ns#"
   xmlns:rdf="http://www.w3.org/1999/02/22-rdf-syntax-ns#"
   xmlns:svg="http://www.w3.org/2000/svg"
   xmlns="http://www.w3.org/2000/svg"
   xmlns:sodipodi="http://sodipodi.sourceforge.net/DTD/sodipodi-0.dtd"
   xmlns:inkscape="http://www.inkscape.org/namespaces/inkscape"
   fill="#d9d9d9"
   width="512"
   height="512"
   viewBox="0 0 327.68 327.68"
   version="1.1"
   id="svg902"
   sodipodi:docname="Link.svg"
   inkscape:version="1.0.2-2 (e86c870879, 2021-01-15)">
  <metadata
     id="metadata908">
    <rdf:RDF>
      <cc:Work
         rdf:about="">
        <dc:format>image/svg+xml</dc:format>
        <dc:type
           rdf:resource="http://purl.org/dc/dcmitype/StillImage" />
        <dc:title></dc:title>
      </cc:Work>
    </rdf:RDF>
  </metadata>
  <defs
     id="defs906" />
  <sodipodi:namedview
     pagecolor="#ffffff"
     bordercolor="#666666"
     borderopacity="1"
     objecttolerance="10"
     gridtolerance="10"
     guidetolerance="10"
     inkscape:pageopacity="0"
     inkscape:pageshadow="2"
     inkscape:window-width="1920"
     inkscape:window-height="1017"
     id="namedview904"
     showgrid="false"
     inkscape:zoom="0.73097164"
     inkscape:cx="168.79631"
     inkscape:cy="441.1173"
     inkscape:window-x="-8"
     inkscape:window-y="-8"
     inkscape:window-maximized="1"
     inkscape:current-layer="svg902"
     inkscape:document-rotation="0" />
  <path
     d="m 187.88098,238.79325 c 2.34299,2.34298 2.34299,6.14198 0,8.48547 l -22.33692,22.33692 c -29.6314,29.6309 -77.846237,29.6329 -107.480136,0 -29.631899,-29.6324 -29.631899,-77.84774 0,-107.47963 l 22.337423,-22.33743 c 2.342993,-2.34298 6.141979,-2.34298 8.485471,0 l 19.798932,19.79894 c 2.34299,2.34299 2.34299,6.14198 0,8.48547 l -22.337422,22.33692 c -14.035953,14.03645 -14.035953,36.87488 0,50.91133 14.035952,14.03595 36.874872,14.03645 50.911822,0 l 22.33693,-22.33693 c 2.34299,-2.34299 6.14198,-2.34299 8.48547,0 z m -28.2839,-130.10756 c 2.34299,2.34299 6.14198,2.34299 8.48547,0 l 22.33692,-22.336925 c 14.03596,-14.037453 36.87488,-14.036453 50.91183,0 14.03595,14.036455 14.03595,36.874875 0,50.911325 l -22.33743,22.33693 c -2.34299,2.34299 -2.34299,6.14198 0,8.48547 l 19.79894,19.79893 c 2.34298,2.34299 6.14198,2.34299 8.48547,0 L 269.6157,165.544 c 29.6324,-29.6324 29.6324,-77.847241 0,-107.479639 -29.6329,-29.631898 -77.84723,-29.631898 -107.48013,0 l -22.33693,22.336924 c -2.34299,2.342991 -2.34299,6.141979 0,8.485471 z"
     id="path900"
     sodipodi:nodetypes="ccccsscsccccscccccccccscsccscc"
     style="stroke-width:0.499998" />
</svg>
