<?xml version="1.0" encoding="utf-8"?>
<!-- Generator: Adobe Illustrator 21.1.0, SVG Export Plug-In . SVG Version: 6.00 Build 0)  -->
<svg version="1.1" id="Ebene_1" xmlns="http://www.w3.org/2000/svg" xmlns:xlink="http://www.w3.org/1999/xlink" x="0px" y="0px"
	 viewBox="0 0 73.7 73.7" style="enable-background:new 0 0 73.7 73.7;" xml:space="preserve">
<style type="text/css">
	.st0{fill:none;stroke:#D9D9D9;stroke-width:4;stroke-miterlimit:10;}
	.st1{fill:#D9D9D9;}
	.st2{fill:#D9D9D9;}
	.st3{fill:#D9D9D9;}
</style>
<path class="st0" d="M64.6,32.3v35.4c0,1.6-1.3,2.9-2.9,2.9H6.2c-1.6,0-2.9-1.3-2.9-2.9V18.7c0-1.6,1.3-2.9,2.9-2.9h34.5"/>
<rect x="8.8" y="21" class="st1" width="5.8" height="4.6"/>
<rect x="17.6" y="21" class="st2" width="5.8" height="4.6"/>
<rect x="26.5" y="21" class="st3" width="5.8" height="4.6"/>
<rect x="35.3" y="21" class="st2" width="5.8" height="4.6"/>
<rect x="8.8" y="27.6" class="st2" width="5.8" height="4.6"/>
<rect x="17.6" y="27.6" class="st1" width="5.8" height="4.6"/>
<rect x="26.5" y="27.6" class="st2" width="5.8" height="4.6"/>
<rect x="35.3" y="27.6" class="st2" width="5.8" height="4.6"/>
<rect x="8.8" y="34.3" class="st1" width="5.8" height="4.6"/>
<rect x="17.6" y="34.3" class="st2" width="5.8" height="4.6"/>
<rect x="26.5" y="34.3" class="st1" width="5.8" height="4.6"/>
<rect x="35.3" y="34.3" class="st2" width="5.8" height="4.6"/>
<rect x="8.8" y="40.9" class="st2" width="5.8" height="4.6"/>
<rect x="17.6" y="40.9" class="st3" width="5.8" height="4.6"/>
<rect x="26.5" y="40.9" class="st2" width="5.8" height="4.6"/>
<rect x="35.3" y="40.9" class="st2" width="5.8" height="4.6"/>
<rect x="53" y="40.9" class="st2" width="5.8" height="4.6"/>
<rect x="8.8" y="47.5" class="st3" width="5.8" height="4.6"/>
<rect x="17.6" y="47.5" class="st1" width="5.8" height="4.6"/>
<rect x="26.5" y="47.5" class="st2" width="5.8" height="4.6"/>
<rect x="35.3" y="47.5" class="st3" width="5.8" height="4.6"/>
<rect x="44.2" y="47.5" class="st2" width="5.8" height="4.6"/>
<rect x="53" y="47.5" class="st2" width="5.8" height="4.6"/>
<rect x="8.8" y="54.2" class="st2" width="5.8" height="4.6"/>
<rect x="17.6" y="54.2" class="st3" width="5.8" height="4.6"/>
<rect x="26.5" y="54.2" class="st1" width="5.8" height="4.6"/>
<rect x="35.3" y="54.2" class="st2" width="5.8" height="4.6"/>
<rect x="44.2" y="54.2" class="st1" width="5.8" height="4.6"/>
<rect x="53" y="54.2" class="st1" width="5.8" height="4.6"/>
<rect x="8.8" y="60.8" class="st1" width="5.8" height="4.6"/>
<rect x="17.6" y="60.8" class="st2" width="5.8" height="4.6"/>
<rect x="26.5" y="60.8" class="st3" width="5.8" height="4.6"/>
<rect x="35.3" y="60.8" class="st2" width="5.8" height="4.6"/>
<rect x="44.2" y="60.8" class="st3" width="5.8" height="4.6"/>
<rect x="53" y="60.8" class="st2" width="5.8" height="4.6"/>
<polygon class="st0" points="47.5,4.8 47.5,36.8 69.5,20.6 "/>
</svg>
