<?xml version="1.0" encoding="UTF-8" standalone="no"?>
<svg
   clip-rule="evenodd"
   fill-rule="evenodd"
   height="512in"
   image-rendering="optimizeQuality"
   shape-rendering="geometricPrecision"
   text-rendering="geometricPrecision"
   viewBox="0 0 512 512"
   width="512in"
   version="1.1"
   id="svg7"
   sodipodi:docname="Move3d.svg"
   inkscape:version="1.3 (0e150ed6c4, 2023-07-21)"
   xmlns:inkscape="http://www.inkscape.org/namespaces/inkscape"
   xmlns:sodipodi="http://sodipodi.sourceforge.net/DTD/sodipodi-0.dtd"
   xmlns="http://www.w3.org/2000/svg"
   xmlns:svg="http://www.w3.org/2000/svg">
  <defs
     id="defs7" />
  <sodipodi:namedview
     id="namedview7"
     pagecolor="#ffffff"
     bordercolor="#000000"
     borderopacity="0.25"
     inkscape:showpageshadow="2"
     inkscape:pageopacity="0.0"
     inkscape:pagecheckerboard="0"
     inkscape:deskcolor="#d1d1d1"
     inkscape:document-units="in"
     inkscape:zoom="0.01"
     inkscape:cx="-36350"
     inkscape:cy="6200"
     inkscape:window-width="2560"
     inkscape:window-height="1370"
     inkscape:window-x="-6"
     inkscape:window-y="-6"
     inkscape:window-maximized="1"
     inkscape:current-layer="svg7" />
  <g
     id="Layer_x0020_1"
     transform="matrix(0.23447152,0,0,0.23447152,55.899263,55.921221)"
     style="fill:#d9d9d9;fill-opacity:1">
    <g
       id="_455213776"
       style="fill:#d9d9d9;fill-opacity:1">
      <path
         d="M 1524,907 H 1288 V 800 h 236 l -97,-97 c -49,-50 26,-125 76,-75 l 188,188 c 21,21 21,55 -3,77 l -185,187 c -50,50 -126,-25 -76,-75 z"
         id="path1"
         style="fill:#d9d9d9;fill-opacity:1" />
      <path
         d="m 243,1096 c -14,0 -27,-6 -38,-16 L 16,891 C -6,869 -5,835 21,812 L 206,628 c 50,-50 124,26 75,75 l -98,97 H 418 V 907 H 183 l 98,98 c 33,33 9,91 -38,91 z"
         id="path2"
         style="fill:#d9d9d9;fill-opacity:1" />
      <path
         d="m 906,1325 1,200 98,-97 c 50,-50 124,26 75,75 l -189,188 c -22,21 -56,20 -77,-2 L 628,1503 c -50,-50 25,-125 75,-76 l 97,97 v -199 c 16,9 34,14 52,14 18,0 35,-4 51,-13 1,0 1,0 2,-1 z"
         id="path3"
         style="fill:#d9d9d9;fill-opacity:1" />
      <path
         d="M 800,382 V 183 l -97,97 C 654,330 578,255 628,205 L 816,16 c 21,-21 55,-21 77,2 l 187,187 c 50,50 -26,125 -75,75 l -98,-98 v 200 h -1 c -34,-19 -74,-19 -106,0 z"
         id="path4"
         style="fill:#d9d9d9;fill-opacity:1" />
      <path
         d="m 689,1138 111,64 -1,-318 -274,-158 v 318 z"
         id="path5"
         style="fill:#d9d9d9;fill-opacity:1" />
      <path
         d="M 578,634 852,792 1127,634 1016,570 852,475 688,570 Z"
         id="path6"
         style="fill:#d9d9d9;fill-opacity:1" />
      <path
         d="M 1180,726 906,884 v 318 l 110,-63 161,-93 c 1,-1 2,-1 3,-2 z"
         id="path7"
         style="fill:#d9d9d9;fill-opacity:1" />
    </g>
  </g>
</svg>
