<svg width="512" height="512" xmlns="http://www.w3.org/2000/svg" xml:space="preserve" version="1.1">

 <g>
  <title>Layer 1</title>
  <g stroke="null" stroke-width="99" id="svg_1">
   <path fill="#d9d9d9" stroke="null" id="svg_2" d="m300.81028,136.31222c20.02679,12.55661 34.06987,33.80501 36.6266,58.46958c8.16747,3.81617 17.23223,6.01074 26.84293,6.01074c35.08607,0 63.52358,-28.4375 63.52358,-63.51817c0,-35.08607 -28.4375,-63.52358 -63.52358,-63.52358c-34.75094,0.01081 -62.9398,27.94021 -63.46952,62.56143zm-41.61573,130.06333c35.08607,0 63.52358,-28.44291 63.52358,-63.52358s-28.44291,-63.51817 -63.52358,-63.51817c-35.08067,0 -63.53439,28.44291 -63.53439,63.52358s28.45372,63.51817 63.53439,63.51817zm26.94563,4.32968l-53.90207,0c-44.84812,0 -81.33418,36.49146 -81.33418,81.33958l0,65.91814l0.16757,1.03242l4.54049,1.4216c42.7995,13.37282 79.98284,17.83222 110.58789,17.83222c59.77768,0 94.42592,-17.04304 96.56103,-18.12952l4.24319,-2.14592l0.45405,0l0,-65.92895c0.01622,-44.84812 -36.46984,-81.33958 -81.31796,-81.33958zm105.09606,-65.57761l-53.48586,0c-0.57837,21.39975 -9.7134,40.66979 -24.16188,54.52909c39.8644,11.85391 69.03162,48.82105 69.03162,92.4854l0,20.31327c52.81019,-1.93511 83.24226,-16.9025 85.24765,-17.9079l4.24319,-2.15133l0.45405,0l0,-65.93976c0,-44.84272 -36.48606,-81.32877 -81.32877,-81.32877zm-243.50524,-4.32427c12.42688,0 23.98891,-3.62698 33.78339,-9.80529c3.11348,-20.30787 13.99984,-38.05361 29.551,-50.13995c0.06486,-1.18918 0.17838,-2.36754 0.17838,-3.56753c0,-35.08607 -28.44291,-63.52358 -63.51277,-63.52358c-35.09148,0 -63.52358,28.4375 -63.52358,63.52358c0,35.06986 28.4321,63.51277 63.52358,63.51277zm57.04798,58.85336c-14.37821,-13.78903 -23.4808,-32.95637 -24.14566,-54.22639c-1.98376,-0.14594 -3.9459,-0.3027 -5.9675,-0.3027l-53.89666,0c-44.84812,0 -81.33418,36.48606 -81.33418,81.32877l0,65.92895l0.16757,1.0162l4.54049,1.43242c34.33473,10.71879 64.97761,15.65928 91.59352,17.21601l0,-19.90787c0.01081,-43.66435 29.16722,-80.62067 69.04243,-92.4854z"/>
  </g>
  <g id="svg_3"/>
  <g id="svg_4"/>
  <g id="svg_5"/>
  <g id="svg_6"/>
  <g id="svg_7"/>
  <g id="svg_8"/>
  <g id="svg_9"/>
  <g id="svg_10"/>
  <g id="svg_11"/>
  <g id="svg_12"/>
  <g id="svg_13"/>
  <g id="svg_14"/>
  <g id="svg_15"/>
  <g id="svg_16"/>
  <g id="svg_17"/>
 </g>
</svg>