<?xml version="1.0" encoding="UTF-8" standalone="no"?>
<svg
   xmlns:dc="http://purl.org/dc/elements/1.1/"
   xmlns:cc="http://creativecommons.org/ns#"
   xmlns:rdf="http://www.w3.org/1999/02/22-rdf-syntax-ns#"
   xmlns:svg="http://www.w3.org/2000/svg"
   xmlns="http://www.w3.org/2000/svg"
   xmlns:sodipodi="http://sodipodi.sourceforge.net/DTD/sodipodi-0.dtd"
   xmlns:inkscape="http://www.inkscape.org/namespaces/inkscape"
   height="511pt"
   viewBox="1 -14 511.99978 511"
   width="511pt"
   version="1.1"
   id="svg26"
   sodipodi:docname="ProductionHistory.svg"
   inkscape:version="1.0.2-2 (e86c870879, 2021-01-15)">
  <metadata
     id="metadata32">
    <rdf:RDF>
      <cc:Work
         rdf:about="">
        <dc:format>image/svg+xml</dc:format>
        <dc:type
           rdf:resource="http://purl.org/dc/dcmitype/StillImage" />
      </cc:Work>
    </rdf:RDF>
  </metadata>
  <defs
     id="defs30" />
  <sodipodi:namedview
     pagecolor="#ffffff"
     bordercolor="#666666"
     borderopacity="1"
     objecttolerance="10"
     gridtolerance="10"
     guidetolerance="10"
     inkscape:pageopacity="0"
     inkscape:pageshadow="2"
     inkscape:window-width="1920"
     inkscape:window-height="1001"
     id="namedview28"
     showgrid="false"
     inkscape:zoom="0.34637965"
     inkscape:cx="-62.070621"
     inkscape:cy="340.66667"
     inkscape:window-x="-9"
     inkscape:window-y="-9"
     inkscape:window-maximized="1"
     inkscape:current-layer="svg26"
     inkscape:document-rotation="0" />
  <g
     id="g851"
     transform="matrix(0.88983025,0,0,0.88983025,29.202729,26.54765)"
     style="stroke-width:1.12380981;fill:#D9D9D9;fill-opacity:1">
    <path
       style="fill:#D9D9D9;fill-opacity:1;stroke-width:1.12380981"
       id="path2"
       d="M 270.89062,0.5 C 137.94531,0.5 29.785156,108.66016 29.785156,241.60547 H 6.3125 c -4.917969,0 -7.941406,5.38672 -5.378906,9.58594 l 45.601562,74.77343 c 2.457032,4.02735 8.308594,4.02735 10.765625,0 l 45.601559,-74.77343 c 2.5625,-4.19922 -0.46093,-9.58594 -5.378902,-9.58594 H 76.375 c 0,-107.41797 87.52734,-194.781251 195.01172,-194.51172 106.64844,0.265625 193.7539,87.37109 194.01953,194.01953 0.26562,105.42969 -83.78516,191.66016 -188.37891,194.91406 -3.41406,0.10547 -6.13281,2.87891 -6.13281,6.29688 v 33.99219 c 0,3.55078 2.92969,6.40625 6.47656,6.3125 C 407.33594,479.18359 512,372.38672 512,241.60937 512,108.80859 403.69141,0.5 270.89062,0.5 Z m 0,0"
       inkscape:connector-curvature="0" />
    <path
       style="fill:#D9D9D9;fill-opacity:1;stroke-width:1.12380981"
       id="path4"
       d="m 40.960938,316.82812 5.574218,9.13672 c 2.457032,4.02735 8.304688,4.02735 10.761719,0 l 45.605465,-74.77343 c 2.5625,-4.19922 -0.46093,-9.58594 -5.382809,-9.58594 H 86.839844 Z m 0,0"
       inkscape:connector-curvature="0" />
    <path
       style="fill:#D9D9D9;fill-opacity:1;stroke-width:1.12380981"
       id="path6"
       d="m 257.49609,47.089844 c -105.08984,0 -190.984371,83.777346 -194.410152,188.054686 -0.113282,3.53906 2.761718,6.46094 6.304687,6.46094 H 76.375 c 0,-105.01172 83.65234,-190.843751 187.82031,-194.38672 -2.22265,-0.07422 -4.45703,-0.128906 -6.69922,-0.128906 z m 0,0"
       inkscape:connector-curvature="0" />
    <path
       style="fill:#D9D9D9;fill-opacity:1;stroke-width:1.12380981"
       id="path8"
       d="m 450.28125,80.695312 c 30.79687,40.492188 49.10937,90.976558 49.10937,145.660158 0,128.71875 -101.39062,234.19922 -228.49609,240.78125 v 9.17969 c 0,3.54296 2.92188,6.40625 6.46485,6.30859 C 407.32813,479.1875 512,372.39062 512,241.60547 512,179.82422 488.63281,123.40234 450.28125,80.695312 Z m 0,0"
       inkscape:connector-curvature="0" />
    <path
       style="fill:#D9D9D9;fill-opacity:1;stroke-width:1.12380981"
       id="path10"
       d="m 163.69922,382.39062 c -13.01563,0 -24.00391,-8.6914 -27.47266,-20.58593 -1.17187,-4.01953 1.88672,-8.03125 6.07031,-8.03125 h 170.94532 c 3.05468,0 5.64843,2.19531 6.19922,5.19922 2.44531,13.32421 14.11718,23.41796 28.14453,23.41796 z m 0,0"
       inkscape:connector-curvature="0" />
    <path
       style="fill:#D9D9D9;fill-opacity:1;stroke-width:1.12380981"
       id="path12"
       d="M 163.69922,353.77344 V 120.78125 c 0,-3.48047 2.82422,-6.30078 6.30469,-6.30078 h 199.89843 c 3.48047,0 6.30078,2.82031 6.30078,6.30078 v 232.39844 c 0,15.59375 -12.22265,28.77343 -27.8125,29.20312 -14.375,0.39063 -26.44531,-9.82031 -28.94531,-23.38672 -0.55469,-2.99609 -3.08594,-5.22265 -6.13281,-5.22265 z m 0,0"
       inkscape:connector-curvature="0" />
    <path
       style="fill:#D9D9D9;fill-opacity:1;stroke-width:1.12380981"
       id="path14"
       d="m 354.80078,114.48047 v 239.29297 c 0,12.01953 -7.41406,22.30078 -17.91797,26.54297 3.63672,1.46484 7.63672,2.21484 11.83594,2.05468 15.46484,-0.60156 27.48437,-13.75781 27.48437,-29.23047 V 120.78125 c 0,-3.48047 -2.82031,-6.30078 -6.30468,-6.30078 z m 0,0"
       inkscape:connector-curvature="0" />
    <g
       style="fill:#D9D9D9;fill-opacity:1;stroke-width:1.12380981"
       id="g24">
      <path
         style="fill:#D9D9D9;fill-opacity:1;stroke-width:1.12380981"
         id="path16"
         d="M 338.59375,196.23047 H 201.3125 c -4.35547,0 -7.88281,-3.52735 -7.88281,-7.87891 0,-4.35547 3.52734,-7.88281 7.88281,-7.88281 h 137.28125 c 4.35156,0 7.87891,3.52734 7.87891,7.88281 0,4.35156 -3.52735,7.87891 -7.87891,7.87891 z m 0,0"
         inkscape:connector-curvature="0" />
      <path
         style="fill:#D9D9D9;fill-opacity:1;stroke-width:1.12380981"
         id="path18"
         d="M 338.59375,235.12891 H 201.3125 c -4.35547,0 -7.88281,-3.52735 -7.88281,-7.88282 0,-4.35156 3.52734,-7.8789 7.88281,-7.8789 h 137.28125 c 4.35156,0 7.87891,3.52734 7.87891,7.8789 0,4.35547 -3.52735,7.88282 -7.87891,7.88282 z m 0,0"
         inkscape:connector-curvature="0" />
      <path
         style="fill:#D9D9D9;fill-opacity:1;stroke-width:1.12380981"
         id="path20"
         d="M 338.59375,274.02734 H 201.3125 c -4.35547,0 -7.88281,-3.53125 -7.88281,-7.88281 0,-4.35156 3.52734,-7.8789 7.88281,-7.8789 h 137.28125 c 4.35156,0 7.87891,3.52734 7.87891,7.8789 0,4.35156 -3.52735,7.88281 -7.87891,7.88281 z m 0,0"
         inkscape:connector-curvature="0" />
      <path
         style="fill:#D9D9D9;fill-opacity:1;stroke-width:1.12380981"
         id="path22"
         d="M 338.59375,312.92578 H 201.3125 c -4.35547,0 -7.88281,-3.53125 -7.88281,-7.88281 0,-4.35156 3.52734,-7.87891 7.88281,-7.87891 h 137.28125 c 4.35156,0 7.87891,3.52735 7.87891,7.87891 0,4.35156 -3.52735,7.88281 -7.87891,7.88281 z m 0,0"
         inkscape:connector-curvature="0" />
    </g>
  </g>
</svg>
