<svg width="512" height="512" xmlns="http://www.w3.org/2000/svg" xml:space="preserve" version="1.1">
 <g>
  <title>Layer 1</title>
  <g id="svg_3"/>
  <g id="svg_4"/>
  <g id="svg_5"/>
  <g id="svg_6"/>
  <g id="svg_7"/>
  <g id="svg_8"/>
  <g id="svg_9"/>
  <g id="svg_10"/>
  <g id="svg_11"/>
  <g id="svg_12"/>
  <g id="svg_13"/>
  <g id="svg_14"/>
  <g id="svg_15"/>
  <g id="svg_16"/>
  <g id="svg_17"/>
  <g stroke="null">
   <path fill="#d9d9d9" stroke="null" d="m216.0276,190.58551c-1.91434,1.62842 -3.77853,3.34746 -5.5873,5.15535c-18.74047,18.74047 -27.81951,43.46414 -27.25999,68.01185c-51.34672,-0.00088 -113.47303,-0.0044 -131.30472,-0.01232c-1.27476,0 -2.48706,-0.55512 -3.32018,-1.52021s-1.20438,-2.24513 -1.01787,-3.50669c7.91777,-50.69922 51.76372,-89.49715 104.66672,-89.49715c23.96796,0 46.07436,7.9556 63.82336,21.36917zm-63.82336,-30.16669c-29.4972,0 -53.5417,-24.07265 -53.5417,-53.56985s24.0445,-53.56897 53.5417,-53.56897c29.52535,0 53.56897,24.07177 53.56897,53.56897s-24.04362,53.56985 -53.56897,53.56985zm126.7784,180.24795c-8.56702,0.28592 -17.171,-0.81113 -25.45034,-3.28939l-51.79715,51.79627l-30.46493,-1.5035l1.52197,30.44733l-30.46493,-1.50438l1.5035,30.46581l-9.83914,9.83914s-36.90735,1.32227 -50.22943,1.79909c-1.22022,0.04399 -2.40436,-0.42228 -3.26828,-1.2862c-0.86304,-0.86392 -1.32931,-2.04806 -1.28444,-3.26916c0.48122,-13.31856 1.81493,-50.21008 1.81493,-50.21008l119.54156,-119.54068c-8.07612,-26.97583 -1.48502,-57.40381 19.82785,-78.71668c30.87401,-30.87401 80.96268,-30.87401 111.83669,0c14.25286,14.25374 21.93045,32.59305 23.03278,51.2473l-29.36524,-2.30143l-0.01847,-0.00176c-1.36274,-0.10469 -2.70524,-0.16627 -4.0275,-0.17859c2.0419,-10.32565 -0.9387,-21.44571 -8.94356,-29.45057c-12.73001,-12.73001 -33.39538,-12.73001 -46.1509,0.02551c-12.72913,12.72913 -12.72913,33.39538 0,46.12539c5.89874,5.89786 13.48836,9.06848 21.2029,9.51452c-0.30175,1.19382 -0.56744,2.4158 -0.80145,3.66505l-0.00264,0.01847l-8.50632,45.76997c-0.68709,3.65273 -0.57096,7.18933 0.33255,10.53855zm25.01838,-62.89874l-19.74251,-25.7389c-2.36477,-3.08177 -1.7815,-7.5034 1.30027,-9.8673c3.08265,-2.36477 7.50428,-1.7815 9.86818,1.30027l19.74251,25.7389c3.01667,-0.75307 6.2348,-0.78914 9.62888,-0.52785l46.41043,3.63689c2.87503,0.22962 5.25564,1.52285 7.00722,3.80581l84.27847,109.86957c3.28587,4.27735 2.46418,10.46377 -1.81317,13.7382l-68.31625,52.41561c-4.28879,3.27444 -10.46377,2.46418 -13.74964,-1.81317l-84.26615,-109.86869c-1.75159,-2.28384 -2.39205,-4.93013 -1.86068,-7.75677l8.50632,-45.76997c0.62638,-3.3457 1.49558,-6.4433 3.00611,-9.16262zm11.91624,15.53466c-0.25249,0.75307 -0.43724,1.5422 -0.54633,2.35949c-0.90087,6.89286 3.93953,13.20156 10.83238,14.11914c6.89286,0.90175 13.21827,-3.93865 14.13585,-10.8315c0.90087,-6.89286 -3.95536,-13.21827 -10.84822,-14.13673c-0.81465,-0.10645 -1.6205,-0.13196 -2.40964,-0.08446l6.25943,8.16146c2.36389,3.08177 1.7815,7.5034 -1.30115,9.8673c-3.08177,2.36389 -7.5034,1.7815 -9.86818,-1.30027l-6.25416,-8.15442zm53.82322,56.94458l-2.30847,-0.93166c-3.6017,-1.45423 -7.70663,0.28856 -9.16174,3.89026c-1.45423,3.6017 0.28944,7.70751 3.89114,9.16174l2.30847,0.93166l-1.96097,1.53341c-3.06066,2.39205 -3.60346,6.81808 -1.21142,9.87873s6.81896,3.60346 9.87961,1.21142l1.96097,-1.53341l0.3475,2.46594c0.54105,3.84628 4.10316,6.52952 7.94944,5.98847c3.84715,-0.54193 6.5304,-4.10404 5.98847,-7.95032l-0.34662,-2.46506l2.30847,0.93166c3.6017,1.45423 7.70663,-0.28856 9.16086,-3.89026c1.45511,-3.60258 -0.28856,-7.70751 -3.89026,-9.16174l-2.30935,-0.93166l1.96185,-1.53341c3.06066,-2.39205 3.60346,-6.81896 1.21142,-9.87961s-6.81896,-3.60258 -9.87961,-1.21054l-1.96097,1.53253l-0.3475,-2.46506c-0.54105,-3.84628 -4.10316,-6.52952 -7.95032,-5.98847c-3.84628,0.54105 -6.52952,4.10404 -5.98847,7.95032l0.3475,2.46506zm28.21628,36.10062l-2.30935,-0.93254c-3.6017,-1.45423 -7.70663,0.28944 -9.16086,3.89114s0.28944,7.70663 3.89114,9.16086l2.30847,0.93254l-1.96185,1.53253c-3.05978,2.39205 -3.60258,6.81896 -1.21054,9.87961c2.39205,3.05978 6.81896,3.60258 9.87873,1.21054l1.96185,-1.53253l0.34662,2.46506c0.54193,3.84715 4.10404,6.5304 7.95032,5.98847c3.84628,-0.54105 6.52952,-4.10316 5.98847,-7.95032l-0.34662,-2.46506l2.30847,0.93254c3.6017,1.45423 7.70663,-0.28944 9.16086,-3.89114s-0.28856,-7.70663 -3.89114,-9.16086l-2.30847,-0.93254l1.96185,-1.53341c3.06066,-2.39205 3.60346,-6.81896 1.21054,-9.87873c-2.39205,-3.06066 -6.81808,-3.60346 -9.87873,-1.21142l-1.96185,1.53341l-0.34662,-2.46594c-0.54105,-3.84628 -4.10404,-6.52952 -7.95032,-5.98759c-3.84628,0.54105 -6.52952,4.10316 -5.98847,7.94944l0.3475,2.46594zm-56.43256,-72.20035l-2.30847,-0.93254c-3.6017,-1.45423 -7.70663,0.28944 -9.16086,3.89114c-1.45511,3.6017 0.28856,7.70663 3.89026,9.16086l2.30847,0.93254l-1.96097,1.53253c-3.06066,2.39205 -3.60346,6.81896 -1.21142,9.87961s6.81896,3.60258 9.87961,1.21054l1.96097,-1.53253l0.3475,2.46506c0.54105,3.84715 4.10316,6.5304 7.95032,5.98847c3.84628,-0.54105 6.52952,-4.10316 5.98847,-7.94944l-0.3475,-2.46594l2.30847,0.93254c3.6017,1.45423 7.70663,-0.28944 9.16174,-3.89114c1.45423,-3.6017 -0.28944,-7.70663 -3.89114,-9.16086l-2.30847,-0.93254l1.96185,-1.53341c3.05978,-2.39205 3.60258,-6.81896 1.21054,-9.87873c-2.39205,-3.06066 -6.81896,-3.60346 -9.87961,-1.21142l-1.96097,1.53341l-0.3475,-2.46506c-0.54105,-3.84715 -4.10316,-6.5304 -7.94944,-5.98847c-3.84715,0.54105 -6.5304,4.10316 -5.98847,7.94944l0.34662,2.46594z"/>
  </g>
 </g>

</svg>