<svg width="22" height="22" viewBox="0 0 22 22" fill="none" xmlns="http://www.w3.org/2000/svg">
<path d="M9.11874 17.6063C4.43749 17.6063 0.587494 13.8001 0.587494 9.07507C0.587494 4.39382 4.39374 0.543823 9.11874 0.543823C13.8437 0.543823 17.65 4.35007 17.65 9.07507C17.6062 13.8001 13.8 17.6063 9.11874 17.6063ZM9.11874 1.81257C5.09374 1.81257 1.81249 5.09382 1.81249 9.11882C1.81249 13.1438 5.09374 16.4251 9.11874 16.4251C13.1437 16.4251 16.425 13.1438 16.425 9.11882C16.3812 5.09382 13.1 1.81257 9.11874 1.81257Z" fill="#D9D9D9"/>
<path d="M20.4937 21.4124L14.5437 15.5062L15.5062 14.5437L21.4125 20.4937L20.4937 21.4124Z" fill="#D9D9D9"/>
</svg>
