<?xml version="1.0" encoding="UTF-8" standalone="no"?>
<svg
   xmlns:dc="http://purl.org/dc/elements/1.1/"
   xmlns:cc="http://creativecommons.org/ns#"
   xmlns:rdf="http://www.w3.org/1999/02/22-rdf-syntax-ns#"
   xmlns:svg="http://www.w3.org/2000/svg"
   xmlns="http://www.w3.org/2000/svg"
   xmlns:sodipodi="http://sodipodi.sourceforge.net/DTD/sodipodi-0.dtd"
   xmlns:inkscape="http://www.inkscape.org/namespaces/inkscape"
   fill="#d9d9d9"
   width="512"
   height="512"
   viewBox="0 0 327.68 327.68"
   version="1.1"
   id="svg902"
   sodipodi:docname="ShowLinked.svg"
   inkscape:version="1.0.2-2 (e86c870879, 2021-01-15)">
  <metadata
     id="metadata908">
    <rdf:RDF>
      <cc:Work
         rdf:about="">
        <dc:format>image/svg+xml</dc:format>
        <dc:type
           rdf:resource="http://purl.org/dc/dcmitype/StillImage" />
        <dc:title />
      </cc:Work>
    </rdf:RDF>
  </metadata>
  <defs
     id="defs906">
    <filter
       inkscape:menu-tooltip="In and out glow with a possible offset and colorizable flood"
       inkscape:menu="Shadows and Glows"
       inkscape:label="Drop Shadow"
       style="color-interpolation-filters:sRGB;"
       id="filter865">
      <feOffset
         dy="3"
         dx="3"
         id="feOffset855" />
      <feGaussianBlur
         stdDeviation="3"
         result="blur"
         id="feGaussianBlur857" />
      <feFlood
         flood-color="rgb(0,0,0)"
         flood-opacity="1"
         result="flood"
         id="feFlood859" />
      <feComposite
         in="flood"
         in2="SourceGraphic"
         operator="in"
         result="composite"
         id="feComposite861" />
      <feBlend
         in="blur"
         in2="composite"
         mode="normal"
         id="feBlend863"
         result="fbSourceGraphic" />
      <feColorMatrix
         result="fbSourceGraphicAlpha"
         in="fbSourceGraphic"
         values="0 0 0 -1 0 0 0 0 -1 0 0 0 0 -1 0 0 0 0 1 0"
         id="feColorMatrix867" />
      <feFlood
         id="feFlood869"
         flood-opacity="0.498039"
         flood-color="rgb(0,0,0)"
         result="flood"
         in="fbSourceGraphic" />
      <feComposite
         in2="fbSourceGraphic"
         id="feComposite871"
         in="flood"
         operator="in"
         result="composite1" />
      <feGaussianBlur
         id="feGaussianBlur873"
         in="composite1"
         stdDeviation="10"
         result="blur" />
      <feOffset
         id="feOffset875"
         dx="8.6"
         dy="7.4"
         result="offset" />
      <feComposite
         in2="offset"
         id="feComposite877"
         in="fbSourceGraphic"
         operator="over"
         result="composite2" />
    </filter>
    <filter
       style="color-interpolation-filters:sRGB;"
       inkscape:label="Drop Shadow"
       id="filter849">
      <feFlood
         flood-opacity="0.498039"
         flood-color="rgb(0,0,0)"
         result="flood"
         id="feFlood839" />
      <feComposite
         in="flood"
         in2="SourceGraphic"
         operator="in"
         result="composite1"
         id="feComposite841" />
      <feGaussianBlur
         in="composite1"
         stdDeviation="10"
         result="blur"
         id="feGaussianBlur843" />
      <feOffset
         dx="8.6"
         dy="7.4"
         result="offset"
         id="feOffset845" />
      <feComposite
         in="SourceGraphic"
         in2="offset"
         operator="over"
         result="composite2"
         id="feComposite847" />
    </filter>
    <clipPath
       id="clip0_404_2">
      <rect
         width="36"
         height="36"
         fill="#ffffff"
         id="rect128"
         x="0"
         y="0" />
    </clipPath>
  </defs>
  <sodipodi:namedview
     pagecolor="#ffffff"
     bordercolor="#666666"
     borderopacity="1"
     objecttolerance="10"
     gridtolerance="10"
     guidetolerance="10"
     inkscape:pageopacity="0"
     inkscape:pageshadow="2"
     inkscape:window-width="1920"
     inkscape:window-height="1017"
     id="namedview904"
     showgrid="false"
     inkscape:zoom="0.36548582"
     inkscape:cx="-216.38589"
     inkscape:cy="34.461051"
     inkscape:window-x="-8"
     inkscape:window-y="-8"
     inkscape:window-maximized="1"
     inkscape:current-layer="svg902"
     inkscape:document-rotation="0" />
  <g
     id="g208"
     transform="matrix(0.27394396,0,0,0.26908128,119.12304,34.85879)">
    <path
       d="m 250.99265,757.89259 c 8.55288,8.70738 8.55288,22.82586 0,31.5351 l -81.53828,83.01214 c -108.165935,110.11907 -284.16846,110.12648 -392.34341,0 -108.16781,-110.12474 -108.16781,-289.31041 0,-399.43323 l 81.54004,-83.01397 c 8.55286,-8.70743 22.42055,-8.70743 30.9752,0 l 72.273684,73.58001 c 8.552819,8.70735 8.552819,22.82579 0,31.53503 l -81.540084,83.01208 c -51.23658,52.16453 -51.23658,137.04045 0,189.20504 51.236589,52.1626 134.607322,52.16446 185.847571,0 l 81.538279,-83.01218 c 8.55281,-8.70741 22.4206,-8.70741 30.97516,0 z m -103.247,-483.52673 c 8.55281,8.70742 22.4206,8.70742 30.97516,0 l 81.53839,-83.01211 c 51.23656,-52.16826 134.60732,-52.16453 185.8476,0 51.23655,52.16462 51.23655,137.04042 0,189.205 l -81.54014,83.01197 c -8.55285,8.70749 -8.55285,22.82589 0,31.53513 l 72.27362,73.58002 c 8.5528,8.70738 22.4206,8.70738 30.97529,0 l 81.54009,-83.01398 c 108.16954,-110.12471 108.16954,-289.30852 0,-399.433266 -108.17146,-110.122804 -284.17215,-110.122804 -392.34356,0 L 75.47374,169.25074 c -8.552728,8.70749 -8.552728,22.82585 0,31.53512 z"
       id="path900"
       sodipodi:nodetypes="ccccsscsccccscccccccccscsccscc"
       style="stroke-width:1.84161" />
    <g
       clip-path="url(#clip0_404_2)"
       id="g126"
       transform="matrix(8.2652145,0,0,8.0888428,10.979165,328.98178)">
      <path
         d="M 18,6.75 C 10.5,6.75 4.095,11.415 1.5,18 4.095,24.585 10.5,29.25 18,29.25 25.5,29.25 31.905,24.585 34.5,18 31.905,11.415 25.5,6.75 18,6.75 Z m 0,18.75 c -4.14,0 -7.5,-3.36 -7.5,-7.5 0,-4.14 3.36,-7.5 7.5,-7.5 4.14,0 7.5,3.36 7.5,7.5 0,4.14 -3.36,7.5 -7.5,7.5 z m 0,-12 c -2.49,0 -4.5,2.01 -4.5,4.5 0,2.49 2.01,4.5 4.5,4.5 2.49,0 4.5,-2.01 4.5,-4.5 0,-2.49 -2.01,-4.5 -4.5,-4.5 z"
         fill="#d9d9d9"
         id="path124" />
    </g>
  </g>
</svg>
