<?xml version="1.0" encoding="UTF-8" standalone="no"?>
<svg
   xmlns:dc="http://purl.org/dc/elements/1.1/"
   xmlns:cc="http://creativecommons.org/ns#"
   xmlns:rdf="http://www.w3.org/1999/02/22-rdf-syntax-ns#"
   xmlns:svg="http://www.w3.org/2000/svg"
   xmlns="http://www.w3.org/2000/svg"
   xmlns:sodipodi="http://sodipodi.sourceforge.net/DTD/sodipodi-0.dtd"
   xmlns:inkscape="http://www.inkscape.org/namespaces/inkscape"
   fill="#d9d9d9"
   width="512"
   height="512"
   viewBox="0 0 327.68 327.68"
   version="1.1"
   id="svg1556"
   sodipodi:docname="ShowUnlinked.svg"
   inkscape:version="1.0.2-2 (e86c870879, 2021-01-15)">
  <metadata
     id="metadata1562">
    <rdf:RDF>
      <cc:Work
         rdf:about="">
        <dc:format>image/svg+xml</dc:format>
        <dc:type
           rdf:resource="http://purl.org/dc/dcmitype/StillImage" />
        <dc:title></dc:title>
      </cc:Work>
    </rdf:RDF>
  </metadata>
  <defs
     id="defs1560">
    <clipPath
       id="clip0_404_2">
      <rect
         width="36"
         height="36"
         fill="#ffffff"
         id="rect128"
         x="0"
         y="0" />
    </clipPath>
  </defs>
  <sodipodi:namedview
     pagecolor="#ffffff"
     bordercolor="#666666"
     borderopacity="1"
     objecttolerance="10"
     gridtolerance="10"
     guidetolerance="10"
     inkscape:pageopacity="0"
     inkscape:pageshadow="2"
     inkscape:window-width="1920"
     inkscape:window-height="1017"
     id="namedview1558"
     showgrid="false"
     inkscape:zoom="0.37565048"
     inkscape:cx="451.66857"
     inkscape:cy="545.83171"
     inkscape:window-x="-8"
     inkscape:window-y="-8"
     inkscape:window-maximized="1"
     inkscape:current-layer="svg1556"
     inkscape:document-rotation="0"
     showguides="false" />
  <g
     id="g251"
     transform="matrix(0.92057174,0,0,0.92057174,5.1438742,7.2445274)">
    <path
       d="m 268.70333,286.22203 c 0.96302,0.96302 0.96302,2.52449 0,3.48772 l -9.18094,9.18098 c -12.17913,12.17896 -31.99644,12.17979 -44.1766,0 -12.17933,-12.17958 -12.17933,-31.99717 0,-44.17654 l 9.18115,-9.18119 c 0.96302,-0.96302 2.52448,-0.96302 3.48771,0 l 8.13778,8.13781 c 0.96302,0.96302 0.96302,2.52449 0,3.48772 l -9.18115,9.18098 c -5.76908,5.76929 -5.76908,15.1564 0,20.92569 5.76907,5.76909 15.15635,5.7693 20.92583,0 l 9.18094,-9.18097 c 0.96302,-0.96303 2.52449,-0.96303 3.48771,0 z m -11.62528,-53.47712 c 0.96302,0.96302 2.52449,0.96302 3.48771,0 l 9.18095,-9.18098 c 5.76907,-5.76971 15.15635,-5.7693 20.92583,0 5.76907,5.76929 5.76907,15.1564 0,20.9257 l -9.18115,9.18097 c -0.96302,0.96303 -0.96302,2.52449 0,3.48772 l 8.13777,8.13781 c 0.96302,0.96302 2.52449,0.96302 3.48771,0 l 9.18115,-9.18118 c 12.17955,-12.17958 12.17955,-31.99697 0,-44.17655 -12.17974,-12.17937 -31.99685,-12.17937 -44.17659,0 l -9.18095,9.18098 c -0.96302,0.96302 -0.96302,2.52449 0,3.48772 z m 48.25947,73.83582 4.65007,-4.65009 c 1.92624,-1.92625 1.92624,-5.04919 0,-6.97523 L 219.2813,204.2484 c -1.92624,-1.92625 -5.04917,-1.92625 -6.97521,0 l -4.65027,4.6503 c -1.92625,1.92625 -1.92625,5.04918 0,6.97523 l 90.70649,90.7068 c 1.92624,1.92604 5.04917,1.92604 6.97521,0 z"
       id="path1554"
       style="stroke-width:0.20551" />
    <g
       clip-path="url(#clip0_404_2)"
       id="g126"
       transform="matrix(7.0655741,0,0,7.1024965,22.74627,-15.7536)">
      <path
         d="M 18,6.75 C 10.5,6.75 4.095,11.415 1.5,18 4.095,24.585 10.5,29.25 18,29.25 25.5,29.25 31.905,24.585 34.5,18 31.905,11.415 25.5,6.75 18,6.75 Z m 0,18.75 c -4.14,0 -7.5,-3.36 -7.5,-7.5 0,-4.14 3.36,-7.5 7.5,-7.5 4.14,0 7.5,3.36 7.5,7.5 0,4.14 -3.36,7.5 -7.5,7.5 z m 0,-12 c -2.49,0 -4.5,2.01 -4.5,4.5 0,2.49 2.01,4.5 4.5,4.5 2.49,0 4.5,-2.01 4.5,-4.5 0,-2.49 -2.01,-4.5 -4.5,-4.5 z"
         fill="#d9d9d9"
         id="path124" />
    </g>
  </g>
</svg>
