<?xml version="1.0" encoding="UTF-8" standalone="no"?>
<svg
   xmlns:dc="http://purl.org/dc/elements/1.1/"
   xmlns:cc="http://creativecommons.org/ns#"
   xmlns:rdf="http://www.w3.org/1999/02/22-rdf-syntax-ns#"
   xmlns:svg="http://www.w3.org/2000/svg"
   xmlns="http://www.w3.org/2000/svg"
   xmlns:sodipodi="http://sodipodi.sourceforge.net/DTD/sodipodi-0.dtd"
   xmlns:inkscape="http://www.inkscape.org/namespaces/inkscape"
   fill="#d9d9d9"
   width="512"
   height="512"
   viewBox="0 0 327.68 327.68"
   version="1.1"
   id="svg1556"
   sodipodi:docname="Unlink.svg"
   inkscape:version="1.0.2-2 (e86c870879, 2021-01-15)">
  <metadata
     id="metadata1562">
    <rdf:RDF>
      <cc:Work
         rdf:about="">
        <dc:format>image/svg+xml</dc:format>
        <dc:type
           rdf:resource="http://purl.org/dc/dcmitype/StillImage" />
        <dc:title></dc:title>
      </cc:Work>
    </rdf:RDF>
  </metadata>
  <defs
     id="defs1560" />
  <sodipodi:namedview
     pagecolor="#ffffff"
     bordercolor="#666666"
     borderopacity="1"
     objecttolerance="10"
     gridtolerance="10"
     guidetolerance="10"
     inkscape:pageopacity="0"
     inkscape:pageshadow="2"
     inkscape:window-width="1920"
     inkscape:window-height="1017"
     id="namedview1558"
     showgrid="false"
     inkscape:zoom="0.75130096"
     inkscape:cx="396.46299"
     inkscape:cy="366.10217"
     inkscape:window-x="-8"
     inkscape:window-y="-8"
     inkscape:window-maximized="1"
     inkscape:current-layer="svg1556" />
  <path
     d="m 187.88113,238.79358 c 2.34299,2.34299 2.34299,6.14199 0,8.48549 l -22.33689,22.33696 c -29.63135,29.63096 -77.846118,29.63296 -107.479974,0 -29.631855,-29.63245 -29.631855,-77.84788 0,-107.47984 l 22.337391,-22.33747 c 2.342989,-2.34299 6.14197,-2.34299 8.485459,0 l 19.798904,19.79897 c 2.34299,2.343 2.34299,6.14199 0,8.48549 l -22.337392,22.33697 c -14.035931,14.03648 -14.035931,36.87494 0,50.91142 14.035932,14.03598 36.874822,14.03648 50.911752,0 l 22.33689,-22.33696 c 2.34299,-2.343 6.14197,-2.343 8.48546,0 z M 159.59727,108.68577 c 2.34299,2.34299 6.14197,2.34299 8.48546,0 L 190.41962,86.3488 c 14.03593,-14.037479 36.87482,-14.036479 50.91175,0 14.03593,14.03648 14.03593,36.87495 0,50.91143 l -22.33739,22.33696 c -2.34299,2.343 -2.34299,6.14199 0,8.48549 l 19.7989,19.79897 c 2.34299,2.343 6.14197,2.343 8.48546,0 l 22.33739,-22.33746 c 29.63236,-29.63246 29.63236,-77.847392 0,-107.479849 -29.63285,-29.631956 -77.84712,-29.631956 -107.47997,0 l -22.33689,22.336968 c -2.34299,2.342996 -2.34299,6.141991 0,8.485487 z m 117.41343,179.63974 11.31344,-11.31349 c 4.68648,-4.68649 4.68648,-12.28448 0,-16.97047 L 67.63922,39.354869 c -4.686477,-4.686494 -12.28444,-4.686494 -16.970417,0 L 39.354858,50.668852 c -4.686477,4.686493 -4.686477,12.284482 0,16.970475 L 260.04028,288.32551 c 4.68648,4.68599 12.28444,4.68599 16.97042,0 z"
     id="path1554"
     style="stroke-width:0.499998" />
</svg>
