<?xml version="1.0" encoding="UTF-8" standalone="no"?>
<svg
   xmlns:dc="http://purl.org/dc/elements/1.1/"
   xmlns:cc="http://creativecommons.org/ns#"
   xmlns:rdf="http://www.w3.org/1999/02/22-rdf-syntax-ns#"
   xmlns:svg="http://www.w3.org/2000/svg"
   xmlns="http://www.w3.org/2000/svg"
   xmlns:xlink="http://www.w3.org/1999/xlink"
   xmlns:sodipodi="http://sodipodi.sourceforge.net/DTD/sodipodi-0.dtd"
   xmlns:inkscape="http://www.inkscape.org/namespaces/inkscape"
   height="512"
   viewBox="0 0 383.99999 383.99999"
   width="512"
   version="1.1"
   id="svg80"
   sodipodi:docname="Camera.svg"
   inkscape:version="0.92.2 (5c3e80d, 2017-08-06)">
  <metadata
     id="metadata86">
    <rdf:RDF>
      <cc:Work
         rdf:about="">
        <dc:format>image/svg+xml</dc:format>
        <dc:type
           rdf:resource="http://purl.org/dc/dcmitype/StillImage" />
        <dc:title></dc:title>
      </cc:Work>
    </rdf:RDF>
  </metadata>
  <defs
     id="defs84">
    <radialGradient
       id="a-0"
       cx="55.690392"
       cy="-57.817429"
       gradientUnits="userSpaceOnUse"
       r="598.44604">
      <stop
         offset="0"
         stop-color="#f2f2f2"
         id="stop2-2" />
      <stop
         offset=".5234"
         stop-color="#f0f0f0"
         id="stop4-7" />
      <stop
         offset=".7119"
         stop-color="#e9e9e9"
         id="stop6-6" />
      <stop
         offset=".8463"
         stop-color="#dedede"
         id="stop8-4" />
      <stop
         offset=".9541"
         stop-color="#cdcdcd"
         id="stop10-4" />
      <stop
         offset="1"
         stop-color="#c3c3c3"
         id="stop12-0" />
    </radialGradient>
    <radialGradient
       id="b-0"
       cx="156.05835"
       cy="125.54743"
       gradientUnits="userSpaceOnUse"
       r="408.75385">
      <stop
         offset="0"
         stop-color="#feffb3"
         stop-opacity="0"
         id="stop15-5" />
      <stop
         offset=".3038"
         stop-color="#fefcb0"
         stop-opacity=".301961"
         id="stop17-4" />
      <stop
         offset=".5384"
         stop-color="#fef4a6"
         stop-opacity=".537255"
         id="stop19-3" />
      <stop
         offset=".7498"
         stop-color="#fee696"
         stop-opacity=".74902"
         id="stop21" />
      <stop
         offset=".9465"
         stop-color="#ffd37f"
         stop-opacity=".945098"
         id="stop23" />
      <stop
         offset="1"
         stop-color="#fc7"
         id="stop25" />
    </radialGradient>
    <radialGradient
       id="c-8"
       cx="255.96758"
       cy="255.96797"
       gradientUnits="userSpaceOnUse"
       r="150.56569">
      <stop
         offset="0"
         stop-color="#feffb3"
         id="stop28-9" />
      <stop
         offset=".3038"
         stop-color="#fefcb0"
         id="stop30-4" />
      <stop
         offset=".5384"
         stop-color="#fef4a6"
         id="stop32-3" />
      <stop
         offset=".7498"
         stop-color="#fee696"
         id="stop34" />
      <stop
         offset=".9465"
         stop-color="#ffd37f"
         id="stop36" />
      <stop
         offset="1"
         stop-color="#fc7"
         id="stop38" />
    </radialGradient>
    <radialGradient
       id="d-5"
       cx="281.78494"
       cy="118.48584"
       gradientUnits="userSpaceOnUse"
       r="488.79779">
      <stop
         offset="0"
         stop-color="#fff"
         stop-opacity="0"
         id="stop41-7"
         style="stop-color:#ebebeb;stop-opacity:0" />
      <stop
         offset=".3945"
         stop-color="#fefdfd"
         stop-opacity=".396078"
         id="stop43"
         style="stop-color:#f1e3e3;stop-opacity:0.39607844" />
      <stop
         offset=".5366"
         stop-color="#fcf6f7"
         stop-opacity=".537255"
         id="stop45"
         style="stop-color:#f2d8dc;stop-opacity:0.53725493" />
      <stop
         offset=".6379"
         stop-color="#f8ebeb"
         stop-opacity=".639216"
         id="stop47"
         style="stop-color:#eecece;stop-opacity:0.63921571" />
      <stop
         offset=".7199"
         stop-color="#f2dadb"
         stop-opacity=".721569"
         id="stop49"
         style="stop-color:#e8bcbe;stop-opacity:0.72156864" />
      <stop
         offset=".7901"
         stop-color="#ebc4c5"
         stop-opacity=".788235"
         id="stop51"
         style="stop-color:#e1a7a8;stop-opacity:0.78823531" />
      <stop
         offset=".8522"
         stop-color="#e2a8ab"
         stop-opacity=".85098"
         id="stop53-1"
         style="stop-color:#d88a8e;stop-opacity:0.8509804" />
      <stop
         offset=".9083"
         stop-color="#d7888c"
         stop-opacity=".909804"
         id="stop55-1"
         style="stop-color:#cd6b70;stop-opacity:0.90980393" />
      <stop
         offset=".9583"
         stop-color="#ca6469"
         stop-opacity=".956863"
         id="stop57-2"
         style="stop-color:#c0464c;stop-opacity:0.95686275" />
      <stop
         offset="1"
         stop-color="#be3f45"
         id="stop59-4"
         style="stop-color:#9f353a;stop-opacity:1" />
    </radialGradient>
    <linearGradient
       id="e-3"
       gradientUnits="userSpaceOnUse"
       x1="170.39313"
       x2="298.72247"
       y1="170.39354"
       y2="298.72287">
      <stop
         offset="0"
         stop-color="#7f7979"
         id="stop62" />
      <stop
         offset=".2304"
         stop-color="#767071"
         id="stop64" />
      <stop
         offset=".6083"
         stop-color="#5d595a"
         id="stop66" />
      <stop
         offset="1"
         stop-color="#3d3b3c"
         id="stop68" />
    </linearGradient>
    <linearGradient
       id="g-4"
       gradientUnits="userSpaceOnUse"
       x1="285.56473"
       x2="201.2601"
       xlink:href="#f-8"
       y1="270.12317"
       y2="185.81853" />
    <linearGradient
       id="f-8">
      <stop
         offset=".0013"
         stop-color="#e7eeed"
         stop-opacity="0"
         id="stop71" />
      <stop
         offset=".7731"
         stop-color="#f9fbfa"
         stop-opacity=".772549"
         id="stop73" />
      <stop
         offset="1"
         stop-color="#fff"
         id="stop75" />
    </linearGradient>
    <linearGradient
       id="h-8"
       gradientUnits="userSpaceOnUse"
       x1="330.17496"
       x2="253.7795"
       xlink:href="#f-8"
       y1="314.7334"
       y2="238.33794" />
    <linearGradient
       id="i"
       gradientUnits="userSpaceOnUse"
       x1="402.9444"
       x2="291.34329"
       xlink:href="#f-8"
       y1="387.50284"
       y2="275.90161" />
    <radialGradient
       id="k"
       cx="140.4922"
       cy="65.971497"
       gradientTransform="matrix(0.968159,0.265102,-0.265102,0.968159,76.752571,-58.340785)"
       gradientUnits="userSpaceOnUse"
       r="797.82172"
       xlink:href="#j" />
    <linearGradient
       id="j">
      <stop
         offset="0"
         stop-color="#be3f45"
         stop-opacity="0"
         id="stop81" />
      <stop
         offset="1"
         stop-color="#be3f45"
         id="stop83" />
    </linearGradient>
    <radialGradient
       id="l"
       cx="140.48801"
       cy="65.983101"
       gradientTransform="matrix(0.968159,0.265102,-0.265102,0.968159,76.752571,-58.340785)"
       gradientUnits="userSpaceOnUse"
       r="797.79858"
       xlink:href="#j" />
    <radialGradient
       id="m"
       cx="140.48351"
       cy="65.9786"
       gradientTransform="matrix(0.968159,0.265102,-0.265102,0.968159,76.752571,-58.340785)"
       gradientUnits="userSpaceOnUse"
       r="797.80798"
       xlink:href="#j" />
    <radialGradient
       id="n"
       cx="140.48869"
       cy="65.973198"
       gradientTransform="matrix(0.968159,0.265102,-0.265102,0.968159,76.752571,-58.340785)"
       gradientUnits="userSpaceOnUse"
       r="797.8092"
       xlink:href="#j" />
    <radialGradient
       id="o"
       cx="140.4865"
       cy="65.977997"
       gradientTransform="matrix(0.968159,0.265102,-0.265102,0.968159,76.752571,-58.340785)"
       gradientUnits="userSpaceOnUse"
       r="797.80359"
       xlink:href="#j" />
    <radialGradient
       id="p"
       cx="140.4895"
       cy="65.982002"
       gradientTransform="matrix(0.968159,0.265102,-0.265102,0.968159,76.752571,-58.340785)"
       gradientUnits="userSpaceOnUse"
       r="797.79749"
       xlink:href="#j" />
    <radialGradient
       id="q"
       cx="140.4901"
       cy="65.9795"
       gradientTransform="matrix(0.968159,0.265102,-0.265102,0.968159,76.752571,-58.340785)"
       gradientUnits="userSpaceOnUse"
       r="797.80188"
       xlink:href="#j" />
    <radialGradient
       id="r"
       cx="140.5005"
       cy="65.974297"
       gradientTransform="matrix(0.968159,0.265102,-0.265102,0.968159,76.752571,-58.340785)"
       gradientUnits="userSpaceOnUse"
       r="797.80127"
       xlink:href="#j" />
    <radialGradient
       id="s"
       cx="140.4839"
       cy="65.974503"
       gradientTransform="matrix(0.968159,0.265102,-0.265102,0.968159,76.752571,-58.340785)"
       gradientUnits="userSpaceOnUse"
       r="797.81183"
       xlink:href="#j" />
    <radialGradient
       id="t"
       cx="140.4873"
       cy="65.971497"
       gradientTransform="matrix(0.968159,0.265102,-0.265102,0.968159,76.752571,-58.340785)"
       gradientUnits="userSpaceOnUse"
       r="797.80432"
       xlink:href="#j" />
    <radialGradient
       id="u"
       cx="140.49159"
       cy="65.970596"
       gradientTransform="matrix(0.968159,0.265102,-0.265102,0.968159,76.752571,-58.340785)"
       gradientUnits="userSpaceOnUse"
       r="797.79901"
       xlink:href="#j" />
    <radialGradient
       id="v"
       cx="140.4908"
       cy="65.969398"
       gradientTransform="matrix(0.968159,0.265102,-0.265102,0.968159,76.752571,-58.340785)"
       gradientUnits="userSpaceOnUse"
       r="797.80511"
       xlink:href="#j" />
    <radialGradient
       id="w"
       cx="140.48241"
       cy="65.980103"
       gradientTransform="matrix(0.968159,0.265102,-0.265102,0.968159,76.752571,-58.340785)"
       gradientUnits="userSpaceOnUse"
       r="797.77802"
       xlink:href="#j" />
    <radialGradient
       id="x"
       cx="140.48689"
       cy="65.979797"
       gradientTransform="matrix(0.968159,0.265102,-0.265102,0.968159,76.752571,-58.340785)"
       gradientUnits="userSpaceOnUse"
       r="797.80969"
       xlink:href="#j" />
    <radialGradient
       id="y"
       cx="140.4843"
       cy="65.978302"
       gradientTransform="matrix(0.968159,0.265102,-0.265102,0.968159,76.752571,-58.340785)"
       gradientUnits="userSpaceOnUse"
       r="797.82123"
       xlink:href="#j" />
    <radialGradient
       id="z"
       cx="140.48399"
       cy="65.977501"
       gradientTransform="matrix(0.968159,0.265102,-0.265102,0.968159,76.752571,-58.340785)"
       gradientUnits="userSpaceOnUse"
       r="797.8252"
       xlink:href="#j" />
    <radialGradient
       id="A"
       cx="140.48331"
       cy="65.976601"
       gradientTransform="matrix(0.968159,0.265102,-0.265102,0.968159,76.752571,-58.340785)"
       gradientUnits="userSpaceOnUse"
       r="797.81732"
       xlink:href="#j" />
    <radialGradient
       id="B"
       cx="140.4926"
       cy="65.981903"
       gradientTransform="matrix(0.968159,0.265102,-0.265102,0.968159,76.752571,-58.340785)"
       gradientUnits="userSpaceOnUse"
       r="797.79938"
       xlink:href="#j" />
    <radialGradient
       id="C"
       cx="140.49001"
       cy="65.970299"
       gradientTransform="matrix(0.968159,0.265102,-0.265102,0.968159,76.752571,-58.340785)"
       gradientUnits="userSpaceOnUse"
       r="797.83282"
       xlink:href="#j" />
    <radialGradient
       id="D"
       cx="140.4902"
       cy="65.982498"
       gradientTransform="matrix(0.968159,0.265102,-0.265102,0.968159,76.752571,-58.340785)"
       gradientUnits="userSpaceOnUse"
       r="797.79773"
       xlink:href="#j" />
    <radialGradient
       id="E"
       cx="140.4882"
       cy="65.982101"
       gradientTransform="matrix(0.968159,0.265102,-0.265102,0.968159,76.752571,-58.340785)"
       gradientUnits="userSpaceOnUse"
       r="797.79797"
       xlink:href="#j" />
    <radialGradient
       id="F"
       cx="140.4888"
       cy="65.975899"
       gradientTransform="matrix(0.968159,0.265102,-0.265102,0.968159,76.752571,-58.340785)"
       gradientUnits="userSpaceOnUse"
       r="797.78992"
       xlink:href="#j" />
    <radialGradient
       id="G"
       cx="140.4912"
       cy="65.974899"
       gradientTransform="matrix(0.968159,0.265102,-0.265102,0.968159,76.752571,-58.340785)"
       gradientUnits="userSpaceOnUse"
       r="797.78552"
       xlink:href="#j" />
    <radialGradient
       id="H"
       cx="140.494"
       cy="65.979797"
       gradientTransform="matrix(0.968159,0.265102,-0.265102,0.968159,76.752571,-58.340785)"
       gradientUnits="userSpaceOnUse"
       r="797.80109"
       xlink:href="#j" />
    <radialGradient
       id="I"
       cx="140.495"
       cy="65.9739"
       gradientTransform="matrix(0.968159,0.265102,-0.265102,0.968159,76.752571,-58.340785)"
       gradientUnits="userSpaceOnUse"
       r="797.80829"
       xlink:href="#j" />
  </defs>
  <sodipodi:namedview
     pagecolor="#ffffff"
     bordercolor="#666666"
     borderopacity="1"
     objecttolerance="10"
     gridtolerance="10"
     guidetolerance="10"
     inkscape:pageopacity="0"
     inkscape:pageshadow="2"
     inkscape:window-width="2560"
     inkscape:window-height="1388"
     id="namedview82"
     showgrid="false"
     inkscape:zoom="0.48889805"
     inkscape:cx="-364.65524"
     inkscape:cy="66.064471"
     inkscape:window-x="-8"
     inkscape:window-y="-8"
     inkscape:window-maximized="1"
     inkscape:current-layer="svg80"
     units="px" />
  <linearGradient
     id="a"
     gradientUnits="userSpaceOnUse"
     x1="100.90641"
     x2="410.11469"
     y1="57.60133"
     y2="453.14639"
     gradientTransform="translate(586.84744,68.338981)">
    <stop
       offset="0"
       stop-color="#ff4974"
       id="stop2" />
    <stop
       offset=".3262"
       stop-color="#fe4672"
       id="stop4" />
    <stop
       offset=".5324"
       stop-color="#fb3e6c"
       id="stop6" />
    <stop
       offset=".7054"
       stop-color="#f52f60"
       id="stop8" />
    <stop
       offset=".8591"
       stop-color="#ee1a51"
       id="stop10" />
    <stop
       offset="1"
       stop-color="#e4003d"
       id="stop12" />
  </linearGradient>
  <linearGradient
     id="b"
     gradientUnits="userSpaceOnUse"
     x1="416.37033"
     x2="243.69635"
     y1="665.7265"
     y2="201.91592">
    <stop
       offset="0"
       stop-color="#e4003d"
       stop-opacity="0"
       id="stop15" />
    <stop
       offset=".5838"
       stop-color="#bd294b"
       stop-opacity=".584314"
       id="stop17" />
    <stop
       offset="1"
       stop-color="#a64153"
       id="stop19" />
  </linearGradient>
  <linearGradient
     id="c"
     gradientUnits="userSpaceOnUse"
     x1="152.45288"
     x2="450.60818"
     y1="152.45338"
     y2="450.6088">
    <stop
       offset="0"
       stop-color="#fffcf8"
       id="stop22" />
    <stop
       offset=".1875"
       stop-color="#faf8f6"
       id="stop24" />
    <stop
       offset=".4041"
       stop-color="#eceef2"
       id="stop26" />
    <stop
       offset=".6353"
       stop-color="#d5dcea"
       id="stop28" />
    <stop
       offset=".875"
       stop-color="#b5c4df"
       id="stop30" />
    <stop
       offset="1"
       stop-color="#a1b5d8"
       id="stop32" />
  </linearGradient>
  <linearGradient
     id="d"
     gradientUnits="userSpaceOnUse"
     x1="182.64162"
     x2="362.92743"
     y1="182.64162"
     y2="362.92743">
    <stop
       offset="0"
       stop-color="#445ea0"
       id="stop35" />
    <stop
       offset=".3216"
       stop-color="#415a9b"
       id="stop37" />
    <stop
       offset=".6926"
       stop-color="#364d8d"
       id="stop39" />
    <stop
       offset="1"
       stop-color="#2a3d7c"
       id="stop41" />
  </linearGradient>
  <linearGradient
     id="e"
     gradientUnits="userSpaceOnUse"
     x1="373.32013"
     x2="228.50861"
     y1="335.12955"
     y2="255.1022">
    <stop
       offset="0"
       stop-color="#2a3d7c"
       stop-opacity="0"
       id="stop44" />
    <stop
       offset=".3949"
       stop-color="#273a77"
       stop-opacity=".396078"
       id="stop46" />
    <stop
       offset=".8504"
       stop-color="#1e3069"
       stop-opacity=".85098"
       id="stop48" />
    <stop
       offset="1"
       stop-color="#1a2b63"
       id="stop50" />
  </linearGradient>
  <linearGradient
     id="f">
    <stop
       offset="0"
       stop-color="#ffd00d"
       id="stop53" />
    <stop
       offset=".2378"
       stop-color="#ffcb0e"
       id="stop55" />
    <stop
       offset=".5353"
       stop-color="#fb1"
       id="stop57" />
    <stop
       offset=".8632"
       stop-color="#ffa215"
       id="stop59" />
    <stop
       offset="1"
       stop-color="#ff9517"
       id="stop61" />
  </linearGradient>
  <linearGradient
     id="g"
     gradientUnits="userSpaceOnUse"
     x1="387.8204"
     x2="286.30881"
     xlink:href="#f"
     y1="256.00012"
     y2="256.00012" />
  <linearGradient
     id="h"
     gradientUnits="userSpaceOnUse"
     x1="203.49559"
     x2="316.82492"
     xlink:href="#f"
     y1="256.00012"
     y2="256.00012" />
  <g
     id="g989"
     transform="matrix(0.59251471,0,0,0.59251471,40.316234,40.316234)"
     style="stroke-width:1.68772185">
    <path
       inkscape:connector-curvature="0"
       style="fill:#33aa77;fill-opacity:1;stroke-width:1.68772185"
       id="path66"
       d="m 511.99997,255.99999 c 0,141.38672 -114.61324,256 -255.99996,256 -141.38672,0 -255.99999585144,-114.61328 -255.99999585144,-256 C 1.414856e-5,114.61327 114.61329,-5.5560011e-6 256.00001,-5.5560011e-6 397.38673,-5.5560011e-6 511.99997,114.61327 511.99997,255.99999 Z m 0,0" />
    <g
       style="stroke-width:2.07203174"
       transform="matrix(0.8145251,0,0,0.8145251,47.481567,47.508613)"
       id="g955">
      <path
         d="m 511.93359,255.96875 c 0,141.36719 -114.59765,255.96484 -255.96484,255.96484 C 114.60156,511.93359 0,397.33594 0,255.96875 0,114.60156 114.60156,0 255.96875,0 397.33594,0 511.93359,114.60156 511.93359,255.96875 Z m 0,0"
         id="path112"
         inkscape:connector-curvature="0"
         style="fill:url(#a-0);stroke-width:2.07203174" />
      <path
         d="m 511.93359,255.96875 c 0,141.36719 -114.59765,255.96484 -255.96484,255.96484 C 114.60156,511.93359 0,397.33594 0,255.96875 0,114.60156 114.60156,0 255.96875,0 397.33594,0 511.93359,114.60156 511.93359,255.96875 Z m 0,0"
         id="path114"
         inkscape:connector-curvature="0"
         style="fill:url(#b-0);stroke-width:2.07203174" />
      <path
         d="m 391.50781,255.96875 c 0,74.85547 -60.68359,135.53906 -135.53906,135.53906 -74.85938,0 -135.53906,-60.68359 -135.53906,-135.53906 0,-74.85938 60.67968,-135.53906 135.53906,-135.53906 74.85547,0 135.53906,60.67968 135.53906,135.53906 z m 0,0"
         id="path116"
         inkscape:connector-curvature="0"
         style="fill:url(#c-8);stroke-width:2.07203174" />
      <path
         d="m 511.93359,255.96875 c 0,141.36719 -114.59765,255.96484 -255.96484,255.96484 C 114.60156,511.93359 0,397.33594 0,255.96875 0,114.60156 114.60156,0 255.96875,0 397.33594,0 511.93359,114.60156 511.93359,255.96875 Z m 0,0"
         id="path118"
         inkscape:connector-curvature="0"
         style="fill:url(#d-5);stroke-width:2.07203174" />
      <path
         d="m 332.76953,255.96875 c 0,42.41406 -34.38672,76.80078 -76.80078,76.80078 -42.41797,0 -76.80469,-34.38672 -76.80469,-76.80078 0,-42.41797 34.38672,-76.80469 76.80469,-76.80469 42.41406,0 76.80078,34.38672 76.80078,76.80469 z m 0,0"
         id="path120"
         inkscape:connector-curvature="0"
         style="fill:url(#e-3);stroke-width:2.07203174" />
      <path
         d="m 258.54297,202.56641 c 0,22.38671 -18.14844,40.53515 -40.53516,40.53515 -22.39062,0 -40.53515,-18.14844 -40.53515,-40.53515 0,-22.39063 18.14453,-40.53516 40.53515,-40.53516 22.38672,0 40.53516,18.14453 40.53516,40.53516 z m 0,0"
         id="path122"
         inkscape:connector-curvature="0"
         style="fill:url(#g-4);stroke-width:2.07203174" />
      <path
         d="m 322.08203,283.85937 c 0,12.58204 -10.19922,22.78125 -22.78125,22.78125 -12.58594,0 -22.78516,-10.19921 -22.78516,-22.78125 0,-12.58593 10.19922,-22.78515 22.78516,-22.78515 12.58203,0 22.78125,10.19922 22.78125,22.78515 z m 0,0"
         id="path124"
         inkscape:connector-curvature="0"
         style="fill:url(#h-8);stroke-width:2.07203174" />
      <path
         d="m 391.12109,342.39844 c 0,18.3789 -14.89843,33.28125 -33.28125,33.28125 -18.3789,0 -33.28125,-14.90235 -33.28125,-33.28125 0,-18.38282 14.90235,-33.28125 33.28125,-33.28125 18.38282,0 33.28125,14.89843 33.28125,33.28125 z m 0,0"
         id="path126"
         inkscape:connector-curvature="0"
         style="fill:url(#i);stroke-width:2.07203174" />
      <path
         d="m 93.222656,394.46484 -0.04687,0.1211 c -1.882812,-0.48828 -3.785156,-0.9961 -5.605469,-0.92188 -0.90625,0.0469 -1.789062,0.2461 -2.515624,0.69922 -0.738282,0.41406 -1.425782,1.11719 -2.410157,1.64844 -0.5,0.26562 -1.15625,0.47266 -1.847656,0.32031 -0.699219,-0.12109 -1.207031,-0.60937 -1.53125,-0.89844 -0.359375,-0.33984 -0.574219,-0.47656 -0.921875,-0.53125 -0.351562,-0.0703 -0.765625,-0.0234 -1.207031,0.082 -1.816407,0.4375 -3.660157,1.08203 -5.546875,1.58984 -1.882813,0.53906 -3.785156,1.01953 -5.75,1.17578 -1.949219,0.1875 -4.046875,0.0508 -5.890625,-0.90625 -0.890625,-0.45703 -1.679688,-0.98047 -2.496094,-1.3125 -0.824219,-0.30469 -1.714844,-0.45703 -2.632813,-0.42578 -1.496093,0.0156 -2.996093,0.42187 -4.507812,0.83203 -1.96875,1.28906 -3.925781,2.58203 -5.84375,3.9375 -0.08594,-0.11719 -0.160156,-0.24219 -0.234375,-0.35547 l 8.917969,-6.25781 c 3.519531,-2.48047 7.128906,-4.83985 10.933594,-6.89453 3.792968,-2.0586 7.746093,-3.88281 11.910156,-5.14453 4.140625,-1.33203 8.386718,-2.02735 12.476562,-3.1875 4.074219,-1.14063 8.121094,-2.75391 11.203125,-5.77735 l 0.09375,0.0899 c -2.816406,3.32422 -6.921875,5.3125 -11,6.64843 -4.117187,1.35547 -8.34375,2.21094 -12.375,3.4961 -2.03125,0.63281 -4.003906,1.41406 -5.964843,2.23828 -1.96875,0.80469 -3.878907,1.73828 -5.773438,2.71484 -3.789062,1.94922 -7.472656,4.14453 -11.117188,6.39844 -0.464843,0.28906 -0.925781,0.60156 -1.394531,0.90234 0.832031,-0.30859 1.695313,-0.53906 2.617188,-0.63281 1.019531,-0.12109 2.09375,0 3.089843,0.35547 1.007813,0.36719 1.820313,0.94922 2.621094,1.4375 1.527344,1.00391 3.417969,1.50781 5.335938,1.41797 1.914062,-0.0742 3.777344,-0.68359 5.550781,-1.41406 1.792969,-0.75 3.546875,-1.55078 5.484375,-2.10157 0.507812,-0.14062 1.054688,-0.24218 1.679688,-0.17968 0.625,0.0508 1.257812,0.46484 1.613281,0.77734 0.773437,0.69141 1.105469,0.74219 1.882812,0.38281 0.761719,-0.33984 1.464844,-1.05468 2.460938,-1.52734 0.976562,-0.49609 2.066406,-0.625 3.085937,-0.59766 2.070313,0.125 3.921875,0.91407 5.65625,1.80078 z m 0,0"
         id="path128"
         inkscape:connector-curvature="0"
         style="fill:url(#k);stroke-width:2.07203174" />
      <path
         d="m 471.33594,383.87891 c 1.60547,1.05468 3.23437,2.07421 4.89843,3.0625 -0.17578,0.30078 -0.35546,0.60937 -0.54296,0.90625 -1.69141,-0.92969 -3.3711,-1.91016 -5.00391,-2.96094 -3.65234,-2.30469 -7.17969,-4.8711 -10.30078,-7.89063 -3.17969,-2.96093 -5.85547,-6.35156 -8.86328,-9.34765 -2.98047,-2.99219 -6.36328,-5.7461 -10.5,-6.97266 l 0.0351,-0.125 c 4.26563,0.83594 8.00391,3.46094 11.15625,6.37891 3.1836,2.9375 6,6.20312 9.08594,9.10547 1.53516,1.46093 3.17969,2.80468 4.85156,4.11718 1.66797,1.3086 3.41407,2.53516 5.1836,3.72657 z m 0,0"
         id="path130"
         inkscape:connector-curvature="0"
         style="fill:url(#l);stroke-width:2.07203174" />
      <path
         d="m 480.63672,379.24609 c -0.125,0.20703 -0.23438,0.41797 -0.34766,0.62891 -0.22656,-0.63672 -0.51172,-1.25 -0.875,-1.82813 -1.0039,-1.63671 -2.4414,-2.96484 -3.94531,-4.14843 -1.52344,-1.20703 -3.08984,-2.35547 -4.51563,-3.77344 -0.35156,-0.375 -0.71875,-0.79688 -0.96093,-1.37109 -0.26563,-0.57813 -0.22266,-1.32813 -0.10547,-1.80469 0.22265,-1.00391 0.10937,-1.31641 -0.59375,-1.82813 -0.66406,-0.48828 -1.6211,-0.75 -2.52344,-1.39843 -0.90234,-0.60547 -1.55469,-1.49219 -2.03516,-2.41016 -0.89062,-1.87109 -1.10546,-3.86719 -1.17187,-5.80469 l 0.125,-0.0195 c 0.48437,1.87891 0.96484,3.78516 1.92578,5.34375 0.48438,0.75781 1.08594,1.44141 1.83594,1.86328 0.72265,0.4375 1.66406,0.69531 2.625,1.29297 0.46484,0.30078 0.95703,0.78125 1.17187,1.45313 0.23047,0.67968 0.0586,1.35156 -0.043,1.77734 -0.11718,0.47656 -0.13671,0.73828 -0.0273,1.07422 0.125,0.32422 0.375,0.67578 0.66797,1.00781 1.26562,1.375 2.72656,2.66797 4.08984,4.07031 1.38282,1.37891 2.73828,2.81641 3.82813,4.44922 0.3164,0.44922 0.60937,0.92969 0.875,1.42578 z m 0,0"
         id="path132"
         inkscape:connector-curvature="0"
         style="fill:url(#m);stroke-width:2.07203174" />
      <path
         d="m 404.32031,464.80859 c -0.24609,0.17188 -0.50781,0.35157 -0.76172,0.53907 -0.23437,-0.26563 -0.46484,-0.54297 -0.6914,-0.83203 -1.125,-1.39844 -2.14844,-2.88282 -3.1211,-4.39063 -0.45312,-0.77734 -0.9414,-1.53516 -1.3125,-2.37109 l -0.58593,-1.21485 -0.50782,-1.27344 c -0.875,-2.2539 -1.30078,-4.69531 -1.22656,-7.11328 l -6.08984,-3.14843 c -1.10156,-0.60938 -2.20313,-1.25782 -3.39844,-1.71875 -0.58984,-0.23047 -1.20312,-0.42188 -1.82031,-0.56641 -0.6211,-0.16797 -1.26172,-0.21094 -1.92578,-0.46094 -0.67578,-0.22265 -1.3086,-0.83593 -1.60938,-1.48047 -0.33203,-0.64062 -0.48437,-1.26562 -0.71484,-1.82421 -0.4336,-1.14844 -1.04688,-2.22266 -1.69922,-3.25391 -1.31641,-2.06641 -3.03125,-3.88672 -5.08594,-5.44922 l 0.0547,-0.10156 c 2.47656,0.84765 4.65234,2.59375 6.17187,4.79687 0.75391,1.10157 1.32032,2.33594 1.70703,3.61328 0.41797,1.28907 0.46485,2.49219 1.48047,3.0625 0.4961,0.28516 1.125,0.48047 1.73828,0.67579 l 1.83985,0.58593 c 1.23047,0.375 2.49609,0.6836 3.71484,1.14844 2.08594,0.86328 4.01172,2.11328 5.65625,3.65625 0.0625,-1.05078 0.19922,-2.08984 0.46485,-3.11328 0.96875,-3.53906 3.5625,-6.32422 6.30078,-8.57422 2.71094,-2.3125 5.66015,-4.35937 7.71875,-7.10547 1.07812,-1.34765 1.69922,-2.9375 2.11719,-4.55859 0.33984,-1.64063 0.35156,-3.3711 0.3125,-5.14453 -0.0234,-1.76563 -0.0352,-3.625 0.30078,-5.42578 0.30859,-1.8125 0.86718,-3.56641 1.61328,-5.21485 1.5,-3.32812 3.875,-6.21094 6.78906,-8.28125 l 0.082,0.10156 c -2.64062,2.3711 -4.6914,5.33204 -5.9375,8.56641 -0.64062,1.61328 -1.10156,3.30078 -1.32031,5.01563 -0.23828,1.70703 -0.22656,3.42187 -0.15625,5.21484 0.0351,1.76953 0.0586,3.62891 -0.36328,5.46094 -0.51172,1.8125 -1.28516,3.57422 -2.47656,4.99609 -2.29688,2.93359 -5.42188,4.83984 -8.2461,6.93359 -2.82812,2.03907 -5.49609,4.67188 -6.29687,8.13672 -0.25391,1.15625 -0.27735,4.71094 -0.1836,5.19141 0.0703,0.87109 0.375,1.70312 0.5586,2.54297 0.30859,0.8164 0.53515,1.65234 0.91797,2.4375 1.35156,3.21094 3.22265,6.21875 5.32812,9.05078 0.21484,0.30078 0.4375,0.60156 0.66406,0.89062 z m 0,0"
         id="path134"
         inkscape:connector-curvature="0"
         style="fill:url(#n);stroke-width:2.07203174" />
      <path
         d="m 372.85547,483.87891 c -0.33985,0.17187 -0.67969,0.34765 -1.01953,0.51953 -0.37891,-0.66407 -0.72656,-1.34766 -1.03125,-2.04297 -0.55469,-1.37891 -0.98047,-2.80469 -1.5586,-4.14844 -0.57812,-1.34766 -1.30859,-2.62891 -2.17578,-3.80078 -0.88281,-1.16016 -1.82422,-2.20703 -2.86719,-3.21484 -1.04296,-1.01563 -2.18359,-2.02344 -3.02734,-3.375 -1.77734,-2.71485 -1.44141,-6.51954 0.61719,-8.73047 l 0.10937,0.082 c -1.30468,2.63281 -1.11718,5.69922 0.42578,7.91015 0.75391,1.14063 1.75,2.1836 2.7461,3.27344 1.01172,1.07813 1.91797,2.35156 2.59375,3.6836 0.70312,1.32812 1.28125,2.67187 1.96094,3.99218 0.67187,1.30469 1.42968,2.57813 2.14453,3.85938 0.36328,0.67187 0.71484,1.34375 1.08203,1.99219 z m 0,0"
         id="path136"
         inkscape:connector-curvature="0"
         style="fill:url(#o);stroke-width:2.07203174" />
      <path
         d="m 332.32031,500.44922 c -0.33594,0.10937 -0.67187,0.21875 -1.0039,0.3125 -1.375,-1.5625 -2.70703,-3.17188 -4.11719,-4.70313 -0.87891,-0.97265 -1.78906,-1.89062 -2.71485,-2.85156 -0.45312,-0.48437 -0.86328,-1.1289 -0.94921,-1.84765 -0.0508,-0.38672 -0.0391,-0.76954 0.0195,-1.14063 -1.59375,-1.82422 -3.24219,-3.55859 -4.98828,-5.16797 -0.86719,-0.82812 -1.78907,-1.59765 -2.71094,-2.37109 -0.92578,-0.77344 -1.83203,-1.55469 -2.8086,-2.26563 l -0.76562,-0.57031 0.88281,-0.10547 c 1.14453,-0.14062 1.96875,-1.59375 1.73828,-2.84375 -0.21875,-1.30078 -0.99609,-2.44922 -1.82422,-3.51562 -1.64843,-2.1211 -3.55468,-4.13672 -4.89843,-6.625 -1.38672,-2.44532 -2.23828,-5.08203 -3.11328,-7.62891 -0.90235,-2.55469 -1.875,-5.05078 -3.4336,-7.30469 l 0.10156,-0.0781 c 2.03125,1.88672 3.34766,4.4375 4.4336,6.94922 1.10156,2.51562 1.97265,5.07812 3.13672,7.46093 1.17968,2.36719 2.85547,4.51953 4.27734,6.88282 0.69141,1.17578 1.50391,2.35937 1.71094,3.78906 0.11328,0.71094 0.0117,1.47265 -0.30078,2.13281 -0.20703,0.45313 -0.54688,0.86719 -0.98828,1.17188 0.88671,0.50781 1.75,1.05468 2.55468,1.67578 0.98438,0.74609 1.90235,1.58594 2.76953,2.46484 1.66407,1.71094 3.125,3.62891 4.26563,5.71485 0.0469,-0.22657 0.0977,-0.46485 0.14844,-0.69141 0.78515,-2.53125 1.34375,-5.00781 1.52734,-7.58594 0.19531,-2.5625 0.004,-5.12109 -0.45703,-7.63672 -0.4375,-2.53515 -1.27734,-4.92578 -2.27734,-7.375 -0.9336,-2.42968 -1.85547,-5.09765 -1.46094,-7.76562 l 0.1289,0.0117 c 0.0391,2.63672 1.15235,5.00781 2.25391,7.36718 1.13281,2.33594 2.20703,4.85938 2.69531,7.5 1.04297,5.26172 0.3711,10.8711 -1.73047,15.6836 -0.20703,0.60937 -0.37109,1.20703 -0.33593,1.80469 0.0117,0.60156 0.3164,1.14062 0.73437,1.61328 0.8711,0.96093 1.76563,1.92578 2.6836,2.85937 1.5664,1.60156 3.20312,3.11719 4.8164,4.67969 z m 0,0"
         id="path138"
         inkscape:connector-curvature="0"
         style="fill:url(#p);stroke-width:2.07203174" />
      <path
         d="m 272.26172,492.67969 c 0.49609,4.42968 0.19531,9.08593 -1.36328,13.27343 -0.67578,1.97657 -1.47266,3.86719 -2.15235,5.81641 -0.14843,0 -0.29687,0.0117 -0.44922,0.0234 0.75782,-1.98047 1.4375,-3.98438 1.9336,-6.03516 0.40234,-1.60937 0.66015,-3.23437 0.80078,-4.875 -0.37891,-1.24219 -1.07031,-2.32422 -1.96094,-3.21875 -1.12109,-1.16406 -2.53125,-2.05469 -3.9414,-2.94922 -2.82422,-1.8125 -5.79297,-3.64062 -8.34766,-5.95312 -1.32813,-1.20703 -2.09375,-2.9375 -2.5625,-4.58594 -0.45313,-1.65625 -0.92969,-3.28125 -1.31641,-4.9375 -0.40234,-1.65625 -0.71875,-3.31641 -1.03515,-4.99219 -0.29297,-1.66797 -0.64453,-3.39062 -0.50391,-5.125 l 0.13281,-0.004 c 0.30469,1.67187 0.89844,3.24609 1.38282,4.88672 0.48828,1.6289 0.96093,3.26562 1.36718,4.91015 0.41407,1.64844 0.72657,3.33594 1.09375,4.96875 0.35157,1.63281 0.75782,3.22656 1.83594,4.4961 1.09766,1.25781 2.46094,2.32812 3.94531,3.09375 1.50391,0.78515 3.07813,1.41796 4.59375,2.26953 1.48438,0.85937 2.92969,1.91015 4.07813,3.27734 0.59375,0.71094 1.05078,1.53125 1.32812,2.40625 0.10547,-2.1875 0.0195,-4.39844 -0.23437,-6.58984 -0.41406,-4.33985 -1.31641,-8.64453 -2.01172,-13.02344 l 0.12891,-0.0312 c 1.47265,4.17578 2.6875,8.45703 3.25781,12.89844 z m 0,0"
         id="path140"
         inkscape:connector-curvature="0"
         style="fill:url(#q);stroke-width:2.07203174" />
      <path
         d="m 278.90625,503.01172 c -0.62891,0.6914 -1.32813,1.25 -1.89844,1.82812 -0.58594,0.57032 -1.02734,1.11719 -1.25,1.8711 -0.20703,0.75781 -0.30078,1.63672 -0.5039,2.53125 -0.15235,0.74609 -0.39063,1.48047 -0.70313,2.16797 -0.14844,0.0117 -0.3125,0.0312 -0.47265,0.0312 0.40625,-0.66407 0.50781,-1.46485 0.47265,-2.26172 -0.043,-0.86328 -0.16015,-1.76563 0.0312,-2.75 0.15235,-0.98828 0.76563,-1.96875 1.48047,-2.58594 1.41016,-1.29297 3.09375,-1.79297 3.8125,-3.4375 l 0.12891,0.0195 c 0.082,0.96094 -0.48047,1.89844 -1.09766,2.58594 z m 0,0"
         id="path142"
         inkscape:connector-curvature="0"
         style="fill:url(#r);stroke-width:2.07203174" />
      <path
         d="m 487.79687,147.01562 -0.17968,0.0195 c -2.94922,0.20703 -5.96094,-0.19141 -8.76563,-1.16016 l -5.8789,5.96875 c -1.11719,1.06641 -2.27735,2.125 -3.23828,3.35547 -0.47657,0.61719 -0.92969,1.2539 -1.32813,1.91797 -0.41797,0.66015 -0.6875,1.39843 -1.23437,2.07812 -0.50391,0.71485 -1.44532,1.23047 -2.30469,1.34375 -0.8711,0.16016 -1.66797,0.10156 -2.39453,0.1836 -1.50391,0.082 -2.98438,0.41015 -4.42578,0.80468 -2.89454,0.78125 -5.63672,2.125 -8.19532,3.96094 l -0.11328,-0.11328 c 1.89063,-2.57813 4.72266,-4.48438 7.84375,-5.45703 1.57031,-0.47656 3.20703,-0.69531 4.83985,-0.67578 1.66015,-0.0234 3.08984,0.36718 4.10546,-0.6211 0.52344,-0.48828 0.98438,-1.14843 1.4375,-1.78515 l 1.35547,-1.9336 c 0.87891,-1.30859 1.69532,-2.68359 2.67969,-3.9375 1.78125,-2.11328 3.92578,-3.91406 6.32813,-5.26953 -1.19922,-0.44922 -2.3711,-0.99609 -3.46094,-1.68359 -3.79688,-2.41406 -6.09375,-6.44531 -7.73438,-10.45703 -1.72656,-4.01953 -3.04687,-8.21094 -5.50781,-11.60547 -1.17578,-1.73828 -2.81641,-3.06641 -4.55078,-4.12891 -1.79688,-1 -3.82813,-1.62109 -5.90234,-2.23047 -2.07422,-0.60937 -4.25391,-1.27343 -6.23438,-2.32031 -2.00391,-1.01562 -3.83984,-2.30469 -5.50391,-3.77734 -3.33984,-2.95313 -5.85156,-6.79297 -7.21093,-10.937502 l 0.13672,-0.05859 c 1.82812,3.945312 4.53515,7.406242 7.86718,10.054682 1.64844,1.33203 3.45703,2.48047 5.37891,3.35156 1.91406,0.89844 3.92187,1.51563 6.03516,2.08204 2.07421,0.60546 4.26562,1.23437 6.25,2.40625 1.92968,1.24609 3.70703,2.78906 4.94921,4.6875 2.57032,3.76171 3.66407,8.10156 5.08985,12.16015 1.37109,4.04688 3.47265,8.11719 7.22265,10.31641 1.25782,0.70703 5.40625,2.02734 6.00391,2.09765 1.04297,0.23047 2.125,0.17969 3.17969,0.26953 0.94922,-0.0586 1.90625,-0.0391 2.87109,-0.16015 0.19531,0.41406 0.38672,0.82812 0.58984,1.2539 z m 0,0"
         id="path144"
         inkscape:connector-curvature="0"
         style="fill:url(#s);stroke-width:2.07203174" />
      <path
         d="m 503.45703,189.62109 -0.004,0.0117 c -1.58203,0.57031 -3.03906,1.26172 -4.53125,2.08203 -1.5625,0.83985 -3.16406,1.80469 -5.03515,2.30469 -3.80469,1.09375 -8.14063,-0.66797 -9.98047,-3.89453 l 0.13281,-0.0977 c 2.60547,2.47657 6.26563,3.38282 9.39844,2.375 1.60547,-0.45312 3.18359,-1.25 4.82031,-2.01562 1.53906,-0.75391 3.25391,-1.3086 4.96094,-1.64453 0.0742,0.30078 0.16016,0.57812 0.23828,0.8789 z m 0,0"
         id="path146"
         inkscape:connector-curvature="0"
         style="fill:url(#t);stroke-width:2.07203174" />
      <path
         d="m 512,245.15625 c -1.07422,0.51953 -2.13281,1.07031 -3.21875,1.61328 -0.73438,0.34766 -1.64453,0.60547 -2.51953,0.43359 -0.47266,-0.0781 -0.90625,-0.23828 -1.32031,-0.42968 -2.70313,1.19531 -5.32813,2.49218 -7.84766,3.94922 -1.27734,0.71484 -2.50781,1.51171 -3.75391,2.30468 -1.23046,0.80078 -2.47265,1.57813 -3.66406,2.46875 l -0.93359,0.67578 0.1875,-1.07031 c 0.26172,-1.39453 -1.14844,-2.875 -2.69922,-3.05859 -1.59375,-0.22266 -3.21094,0.28125 -4.75781,0.85937 -3.07813,1.15625 -6.125,2.64453 -9.52735,3.3125 -3.34765,0.73828 -6.73437,0.77344 -10.03125,0.88282 -3.3125,0.10546 -6.58203,0.34765 -9.77343,1.33984 l -0.0703,-0.13672 c 2.95703,-1.6875 6.41016,-2.30469 9.73438,-2.66016 3.34375,-0.36328 6.65234,-0.46093 9.86719,-0.95312 3.1875,-0.52734 6.3125,-1.70313 9.58984,-2.51172 1.60937,-0.375 3.29687,-0.89844 5.04687,-0.60547 0.86329,0.11719 1.71485,0.51172 2.375,1.11719 0.44922,0.40234 0.82422,0.94531 1.01172,1.57031 0.92578,-0.83984 1.85547,-1.65234 2.87891,-2.37109 1.22656,-0.87891 2.54297,-1.64063 3.88281,-2.33985 2.61719,-1.32421 5.38672,-2.32812 8.24219,-2.90625 -0.26953,-0.14062 -0.52734,-0.27734 -0.76563,-0.4375 -2.67187,-1.83984 -5.36718,-3.39062 -8.3125,-4.51953 -2.91406,-1.15625 -5.98437,-1.875 -9.08593,-2.24609 -3.11719,-0.39844 -6.23047,-0.29297 -9.44141,-0.0117 -3.16406,0.20313 -6.625,0.30859 -9.59766,-1.10547 l 0.0508,-0.14453 c 3.10546,0.89063 6.27734,0.46484 9.42578,0.0312 3.14453,-0.47266 6.48047,-0.8125 9.75,-0.4375 6.52343,0.69141 12.83593,3.51172 17.69921,7.72656 0.6211,0.46485 1.26954,0.86719 1.98047,1.04688 0.70703,0.19531 1.44141,0.0508 2.14453,-0.27735 1.16016,-0.53515 2.29688,-1.07812 3.4375,-1.64843 0.008,0.17578 0.0117,0.35156 0.0156,0.53906 z m 0,0"
         id="path148"
         inkscape:connector-curvature="0"
         style="fill:url(#u);stroke-width:2.07203174" />
      <path
         d="m 506.06641,311.60156 c -0.90625,-0.43359 -1.79297,-0.90234 -2.64844,-1.42969 -2.33203,-1.48046 -4.39063,-3.26953 -6.49219,-4.9414 -2.12891,-1.67578 -4.30859,-3.27344 -6.61719,-4.64063 -1.73437,-1.0625 -3.53125,-1.95312 -5.39062,-2.71484 -1.58985,0.004 -3.11328,0.40234 -4.48438,1.12109 -1.76562,0.89063 -3.3125,2.21485 -4.86718,3.55078 -3.14844,2.63282 -6.35938,5.4336 -10,7.57422 -1.87891,1.11328 -4.1836,1.39063 -6.27735,1.33594 -2.09765,-0.082 -4.15625,-0.10937 -6.24219,-0.2539 -2.07031,-0.14063 -4.14062,-0.35938 -6.21093,-0.60547 -2.05078,-0.25391 -4.20313,-0.48438 -6.17188,-1.27735 l 0.0391,-0.14844 c 2.0625,0.25782 4.11329,0.125 6.21485,0.15235 2.07812,0.0234 4.16015,0.0586 6.23047,0.19922 2.07812,0.10156 4.16015,0.35156 6.21093,0.51172 2.03125,0.18359 4.04688,0.28125 5.91797,-0.51563 1.86719,-0.82031 3.60938,-2.02734 5.05078,-3.48437 1.45704,-1.47266 2.76563,-3.08594 4.3086,-4.53125 1.53906,-1.4336 3.30078,-2.73828 5.3164,-3.57422 1.03125,-0.45313 2.17579,-0.6875 3.30079,-0.69922 -2.53907,-0.92188 -5.14063,-1.60547 -7.80079,-2.1211 -5.21484,-1.08203 -10.57421,-1.57421 -15.93359,-2.36328 l 0.004,-0.16015 c 5.40625,-0.21094 10.85547,-0.082 16.25,0.875 5.36328,1.02734 10.6875,3.0625 15.01562,6.40625 2.19922,1.61719 4.26953,3.35937 6.4375,4.95312 1.07032,0.77344 2.15235,1.4961 3.26172,2.17188 -0.15625,-2.0586 -0.34375,-3.96485 -0.79687,-5.8086 -0.19922,-0.98828 -0.50391,-2.01953 -1.16016,-2.83984 -0.65234,-0.83203 -1.62891,-1.3125 -2.65234,-1.56641 -1.01953,-0.26562 -2.12891,-0.46093 -3.19532,-1.04687 -1.09765,-0.52735 -2.01562,-1.60547 -2.48828,-2.65625 -1.00781,-2.11719 -0.96484,-4.26953 -2.625,-5.71094 l 0.0664,-0.14062 c 1.14062,0.26172 2.04297,1.2539 2.60547,2.22265 0.59765,0.97656 0.98437,2.00391 1.46484,2.88281 0.46485,0.88672 0.91797,1.60938 1.73828,2.12891 0.80469,0.52734 1.79297,0.95703 2.77344,1.51953 0.98828,0.53516 1.90625,1.23047 2.69141,2.01953 0.79687,0.78907 1.55859,1.70703 2.02343,2.78125 0.79297,2.08203 0.65235,4.39453 -0.16015,6.38672 1.08984,0.65625 2.18359,1.28906 3.30469,1.86328 0.75781,0.41016 1.51562,0.80469 2.29296,1.17578 -0.10156,0.46875 -0.20312,0.9336 -0.30468,1.39844 z m 0,0"
         id="path150"
         inkscape:connector-curvature="0"
         style="fill:url(#v);stroke-width:2.07203174" />
      <path
         d="m 114.01953,43.96875 c -0.84375,1.863281 -1.29297,3.941406 -1.72656,6.0625 -0.4375,2.125 -0.92188,4.339844 -1.80859,6.40625 -0.84766,2.074219 -1.98047,4.019531 -3.3086,5.804688 -2.67187,3.5625 -6.27344,6.382812 -10.30078,8.078124 l -0.06641,-0.136718 c 3.77344,-2.140625 7.00782,-5.125 9.36329,-8.671875 1.1875,-1.753907 2.1875,-3.644531 2.90234,-5.621094 0.73047,-1.988281 1.18359,-4.039063 1.57422,-6.1875 0.34375,-1.691406 0.70312,-3.449219 1.33984,-5.140625 0.90235,-0.609375 1.80078,-1.214844 2.69922,-1.8125 -0.23047,0.402344 -0.46094,0.808594 -0.66797,1.21875 z m 0,0"
         id="path152"
         inkscape:connector-curvature="0"
         style="fill:url(#w);stroke-width:2.07203174" />
      <path
         d="m 162.12891,47.242188 -0.10157,0.117187 c -2.73047,-1.667969 -4.86718,-4.347656 -6.09375,-7.363281 -0.59765,-1.527344 -0.95312,-3.144532 -1.0664,-4.777344 -0.16407,-1.644531 0.10156,-3.105469 -0.96094,-4.050781 -0.52734,-0.464844 -1.21484,-0.867188 -1.89453,-1.265625 l -2.05078,-1.1875 c -1.375,-0.777344 -2.79297,-1.484375 -4.12891,-2.359375 -0.34766,-0.242188 -0.6875,-0.507813 -1.02734,-0.773438 0.4414,-0.214843 0.89062,-0.4375 1.35156,-0.65625 l 0.46875,0.394531 c 1.16016,1.023438 2.30469,2.097657 3.60547,2.949219 0.65625,0.429688 1.33594,0.816407 2.03125,1.15625 0.6875,0.371094 1.4414,0.578125 2.17578,1.074219 0.74609,0.445312 1.33984,1.339844 1.52344,2.175781 0.23437,0.851563 0.24218,1.65625 0.375,2.386719 0.20703,1.484375 0.65234,2.925781 1.16406,4.320312 1.02734,2.828126 2.59375,5.445313 4.62891,7.859376 z m 0,0"
         id="path154"
         inkscape:connector-curvature="0"
         style="fill:url(#x);stroke-width:2.07203174" />
      <path
         d="m 233.56641,13.992188 c 0.47265,3.144531 0.86718,6.574218 -0.3125,9.65625 l -0.14844,-0.04297 c 0.64062,-3.160157 -0.0508,-6.285157 -0.75,-9.382813 -0.72656,-3.109375 -1.33203,-6.394531 -1.23438,-9.675781 0.0273,-1.117187 0.11719,-2.226563 0.25782,-3.332031 0.5625,-0.058594 1.14062,-0.117188 1.71093,-0.160156 -0.14453,1.171874 -0.24609,2.359374 -0.28515,3.535156 -0.14063,3.140625 0.23047,6.230468 0.76172,9.402344 z m 0,0"
         id="path156"
         inkscape:connector-curvature="0"
         style="fill:url(#y);stroke-width:2.07203174" />
      <path
         d="m 254.57422,37.304688 -0.13672,0.06641 C 252.52344,34.56641 251.62109,31.171879 251,27.890629 c -0.65625,-3.300781 -1.01172,-6.585937 -1.77344,-9.742187 -0.78125,-3.136719 -2.21094,-6.15625 -3.28515,-9.347657 -0.51172,-1.59375 -1.17188,-3.230469 -1.02344,-4.988281 0.0508,-0.867188 0.36328,-1.757812 0.91406,-2.460938 0.36328,-0.488281 0.88672,-0.890624 1.48828,-1.140624 -0.0234,-0.015626 -0.043,-0.035157 -0.0664,-0.054688 0.41796,-0.007812 0.84765,-0.023438 1.28125,-0.039062 -0.004,0.011718 0.008,0.015624 0.008,0.015624 l 0.76172,0.878907 -1.07813,-0.109375 c -1.41797,-0.136719 -2.78125,1.386718 -2.83594,2.945312 -0.0937,1.601563 0.54297,3.179688 1.2461,4.664063 1.41015,2.988281 3.14844,5.890625 4.09375,9.21875 1.0039,3.289062 1.32422,6.660156 1.70703,9.941406 0.37891,3.28125 0.87891,6.523437 2.13672,9.632813 z m 0,0"
         id="path158"
         inkscape:connector-curvature="0"
         style="fill:url(#z);stroke-width:2.07203174" />
      <path
         d="m 306.22656,44.535156 -0.15234,-0.02734 c 0.0859,-2.070312 -0.21094,-4.101562 -0.35547,-6.195312 -0.15234,-2.082031 -0.27734,-4.160156 -0.32031,-6.238281 -0.0625,-2.070313 0.0195,-4.171875 0.0117,-6.230469 0.008,-2.035156 -0.0664,-4.046875 -1.01563,-5.851562 -0.96484,-1.785157 -2.31641,-3.421876 -3.87891,-4.734376 -1.58203,-1.339843 -3.3125,-2.519531 -4.8789,-3.921874 -1.55469,-1.425782 -3,-3.0625 -4.00391,-5.007813 -0.52734,-0.996094 -0.85156,-2.113281 -0.96094,-3.222656 -0.71093,2.59375 -1.17968,5.238281 -1.46484,7.9375 C 288.55078,16.320312 288.5,21.710938 288.15234,27.125 l -0.16015,-0.0039 c -0.64844,-5.367188 -0.96485,-10.804688 -0.45313,-16.269532 0.30469,-2.917968 0.91797,-5.84375 1.85938,-8.640624 0.64453,0.082031 1.28906,0.164062 1.92968,0.257812 0.23829,1.175781 0.69532,2.285156 1.33985,3.292969 1.03515,1.679687 2.46875,3.117187 3.92969,4.554687 2.88281,2.925782 5.9414,5.882813 8.38281,9.34375 1.25781,1.785156 1.71875,4.042969 1.83984,6.144532 0.0937,2.09375 0.23438,4.160156 0.26563,6.238281 0.0312,2.074219 -0.0195,4.167969 -0.0937,6.242187 -0.0977,2.058594 -0.14063,4.21875 -0.76563,6.25 z m 0,0"
         id="path160"
         inkscape:connector-curvature="0"
         style="fill:url(#A);stroke-width:2.07203174" />
      <path
         d="m 55.40625,347.3125 -0.125,0.0195 c -0.875,-3.44141 -2.535156,-6.62891 -4.820312,-9.25781 -1.121094,-1.30469 -2.390626,-2.50781 -3.816407,-3.5 -1.40625,-0.9961 -2.921875,-1.80078 -4.539062,-2.57422 -1.582031,-0.79688 -3.234375,-1.63281 -4.65625,-2.87891 -1.371094,-1.28125 -2.558594,-2.78125 -3.273438,-4.51172 -1.511719,-3.40234 -1.738281,-7.05078 -2.269531,-10.51953 -0.496094,-3.45703 -1.570312,-7.03515 -4.253906,-9.37109 -0.910156,-0.76953 -4.050782,-2.45313 -4.503906,-2.59375 -0.800782,-0.33984 -1.6875,-0.46094 -2.519532,-0.6875 -0.867187,-0.10547 -1.707031,-0.29688 -2.59375,-0.32422 -3.46875,-0.29687 -6.988281,-0.0586 -10.472656,0.48047 -1.066406,0.14844 -2.144531,0.33594 -3.214844,0.53516 C 4.3125,301.86716 4.265625,301.60153 4.21875,301.332 c 1.050781,-0.27344 2.113281,-0.50391 3.183594,-0.70312 1.75,-0.34766 3.539062,-0.55079 5.332031,-0.71485 0.902344,-0.0312 1.804687,-0.11719 2.710937,-0.0586 l 1.359376,0.0547 1.347656,0.14062 c 2.40625,0.27344 4.773437,1.03906 6.871094,2.24219 l 5.621093,-3.91797 c 1.054688,-0.6875 2.148438,-1.35938 3.113281,-2.20313 0.476563,-0.42968 0.917969,-0.87109 1.34375,-1.35546 0.433594,-0.46485 0.773438,-1.01563 1.3125,-1.48047 0.511719,-0.5 1.34375,-0.76563 2.042969,-0.73438 0.730469,0.0117 1.355469,0.17188 1.957031,0.21485 1.222657,0.16015 2.449219,0.10937 3.675782,0.0195 2.441406,-0.19922 4.839844,-0.86328 7.179687,-1.95703 l 0.07422,0.11328 c -1.902344,1.78906 -4.476562,2.89843 -7.121094,3.21484 -1.335937,0.14063 -2.675781,0.0664 -3.992187,-0.1875 -1.339844,-0.23047 -2.421875,-0.75391 -3.398438,-0.11328 -0.484375,0.30469 -0.945312,0.76562 -1.414062,1.21484 l -1.382813,1.35157 c -0.894531,0.91797 -1.761718,1.89453 -2.746094,2.75781 -1.738281,1.43359 -3.738281,2.55469 -5.875,3.28906 0.90625,0.53906 1.761719,1.16406 2.53125,1.86719 2.6875,2.51172 3.933594,6.09375 4.648438,9.57031 0.78125,3.48438 1.222656,7.04688 2.679688,10.15234 0.691406,1.56641 1.816406,2.875 3.042968,3.9961 1.292969,1.07422 2.832032,1.88281 4.417969,2.67578 1.566406,0.80469 3.214844,1.65625 4.648437,2.79687 1.457032,1.11719 2.75,2.4336 3.863282,3.8711 2.234375,2.86719 3.675781,6.3164 4.160156,9.86328 z m 0,0"
         id="path162"
         inkscape:connector-curvature="0"
         style="fill:url(#B);stroke-width:2.07203174" />
      <path
         d="m 26.363281,253.25391 -0.105469,0.0508 c -1.726562,-2.37891 -4.527343,-3.64063 -7.207031,-3.3086 -1.355469,0.125 -2.730469,0.51953 -4.167969,0.88672 -1.429687,0.39844 -2.976562,0.60156 -4.46875,0.58985 -1.492187,-0.008 -2.96875,-0.11719 -4.445312,-0.13672 -1.476562,-0.0156 -2.953125,0.0625 -4.417969,0.10156 -0.453125,-0.004 -0.894531,0.008 -1.335937,0.008 0.007812,-0.37109 0.015625,-0.74219 0.027344,-1.1289 0.457031,-0.008 0.902343,0.0234 1.347656,0.0508 1.484375,0.14062 2.933594,0.4414 4.398437,0.55078 1.460938,0.12109 2.929688,0.0703 4.363281,-0.15235 1.453126,-0.23046 2.800782,-0.58203 4.195313,-1.03906 1.378906,-0.44922 2.804687,-0.98047 4.394531,-1.09375 3.222656,-0.30469 6.433594,1.7461 7.421875,4.6211 z m 0,0"
         id="path164"
         inkscape:connector-curvature="0"
         style="fill:url(#C);stroke-width:2.07203174" />
      <path
         d="m 78.328125,219.48828 -0.03516,0.13672 c -3.148438,-0.48828 -6.054688,-2.05859 -8.703125,-3.74219 -2.671875,-1.6914 -5.164063,-3.55078 -7.804688,-5.07031 -2.648437,-1.48828 -5.636718,-2.45313 -8.519531,-3.77344 -1.402344,-0.66797 -2.945313,-1.27734 -4.058594,-2.51562 -0.558593,-0.59375 -0.960937,-1.3711 -1.089843,-2.20703 -0.101563,-0.5586 -0.05469,-1.17579 0.179687,-1.73829 -1.164063,0.0703 -2.339844,0.1211 -3.507813,0.0547 -1.417968,-0.082 -2.828124,-0.29297 -4.226562,-0.55469 -2.6875,-0.5625 -5.3125,-1.44531 -7.746094,-2.69531 0.117188,0.25781 0.21875,0.51172 0.296875,0.77344 0.898438,2.90234 1.96875,5.62109 3.457031,8.17969 1.472657,2.5625 3.304688,4.8789 5.375,6.98047 2.050782,2.10937 4.402344,3.84765 6.917969,5.52343 2.453125,1.71094 5.058594,3.65235 6.402344,6.4375 l -0.125,0.0703 c -1.753906,-2.46485 -4.332031,-4.01172 -6.90625,-5.53125 -2.578125,-1.4961 -5.234375,-3.19532 -7.40625,-5.39063 -4.394531,-4.32812 -7.378906,-10.09375 -8.484375,-16.03906 -0.183594,-0.70313 -0.421875,-1.38281 -0.835938,-1.92578 -0.40625,-0.5625 -1.039062,-0.88282 -1.753906,-1.05078 -1.4375,-0.35547 -2.917968,-0.69532 -4.398437,-0.99219 -2.945313,-0.59375 -5.933594,-1.02344 -8.898438,-1.55469 -2.632812,-0.52344 -5.238281,-1.08984 -7.839843,-1.72266 0.089843,-0.38671 0.199218,-0.78515 0.304687,-1.16796 2.613281,0.5 5.207031,1.0625 7.800781,1.67968 2.917969,0.7461 5.804688,1.60547 8.734375,2.30078 1.480469,0.35157 2.9375,0.62891 4.4375,0.94532 0.738281,0.17578 1.554688,0.51953 2.101563,1.14843 0.292968,0.33594 0.523437,0.71875 0.710937,1.10157 2.691407,0.69922 5.371094,1.28515 8.074219,1.6914 1.371094,0.21485 2.730469,0.36328 4.109375,0.5 1.375,0.13672 2.75,0.28516 4.132813,0.34375 l 1.097656,0.0352 -0.773438,0.67969 c -1,0.875 -0.839844,2.78515 0.195313,3.83203 1.03125,1.09375 2.515625,1.67578 3.988281,2.14453 2.953125,0.95703 6.058594,1.64453 8.945312,3.14453 2.890626,1.42969 5.398438,3.38281 7.890626,5.24219 2.496093,1.84375 5.03125,3.59375 7.960937,4.72656 z m 0,0"
         id="path166"
         inkscape:connector-curvature="0"
         style="fill:url(#D);stroke-width:2.07203174" />
      <path
         d="m 109.67969,126.56641 -0.0859,0.125 c -1.72266,-0.82032 -3.55078,-1.30469 -5.375,-1.95313 -1.80859,-0.61328 -3.62109,-1.25781 -5.382812,-1.98047 -1.78125,-0.70312 -3.53125,-1.52734 -5.277344,-2.25781 -1.714844,-0.75 -3.441406,-1.42578 -5.308594,-1.26953 -1.863281,0.17187 -3.75,0.72266 -5.421875,1.57031 -1.703125,0.85547 -3.320313,1.89453 -5.089844,2.70313 -1.765625,0.79687 -3.675781,1.4375 -5.6875,1.57812 -1.027343,0.0937 -2.085937,-0.0352 -3.082031,-0.34765 1.945312,1.53125 4.027344,2.89062 6.199219,4.11328 4.234375,2.46484 8.769531,4.46875 13.226562,6.71484 l -0.05078,0.13281 c -4.785156,-1.39062 -9.507812,-3.09765 -13.945312,-5.5 -4.367188,-2.46093 -8.4375,-5.77734 -11.242188,-9.96093 -1.453125,-2.05079 -2.738281,-4.17969 -4.183594,-6.20313 -0.695312,-0.97656 -1.433594,-1.92578 -2.210937,-2.84766 -0.464844,1.84766 -0.859375,3.57032 -0.988281,5.32032 -0.117188,0.91406 -0.164063,1.90625 0.175781,2.8125 0.335937,0.91797 1.039062,1.61718 1.855469,2.13281 0.828124,0.53516 1.722656,1.01953 2.5,1.84766 0.800781,0.77734 1.292968,1.99609 1.390624,3.04687 0.269532,2.14453 -0.402343,4 0.632813,5.73828 l -0.09766,0.10938 c -0.929688,-0.55079 -1.421875,-1.6836 -1.636719,-2.69141 -0.222656,-1.03516 -0.269531,-2.04687 -0.421875,-2.94531 -0.148437,-0.92188 -0.355469,-1.6836 -0.902344,-2.36719 -0.554687,-0.69922 -1.292969,-1.36719 -1.976562,-2.12891 -0.710938,-0.76953 -1.316407,-1.6289 -1.769531,-2.55468 -0.46875,-0.92578 -0.867188,-1.94532 -0.964844,-3.01172 -0.07422,-2.0625 0.71875,-4.03125 2.011718,-5.53125 -0.757812,-0.89063 -1.542968,-1.76953 -2.347656,-2.58985 -1.34375,-1.4375 -2.761718,-2.78515 -4.25,-4.0625 0.234375,-0.33203 0.484375,-0.65234 0.730469,-0.97265 1.609375,1.24219 3.101563,2.66406 4.421875,4.22656 1.597656,1.95703 2.875,4.12109 4.238281,6.20313 1.363281,2.08203 2.792969,4.11328 4.40625,5.98437 1.222657,1.42969 2.53125,2.73438 3.9375,3.93359 1.382813,0.45704 2.824219,0.5586 4.234375,0.31641 1.804688,-0.25 3.542969,-0.94922 5.285156,-1.66016 3.515626,-1.38671 7.132813,-2.90234 10.933594,-3.71875 1.96875,-0.42187 4.054688,0.004 5.875,0.66407 1.800782,0.67968 3.605469,1.30468 5.378906,2.04297 1.765631,0.71093 3.503911,1.52343 5.246101,2.33203 1.70703,0.82812 3.52734,1.64453 5.01953,2.90625 z m 0,0"
         id="path168"
         inkscape:connector-curvature="0"
         style="fill:url(#E);stroke-width:2.07203174" />
      <path
         d="M 376.94531,65.324219 376.26172,64.75 c -0.88672,-0.75 -2.5,-0.363281 -3.27344,0.652344 -0.8164,1.03125 -1.12109,2.390625 -1.33594,3.71875 -0.44922,2.652344 -0.64453,5.414062 -1.5664,8.097656 -0.86328,2.671875 -2.21485,5.074219 -3.4961,7.460938 -1.28125,2.382812 -2.45703,4.78125 -3.05859,7.460937 l -0.125,-0.01953 c 0.0234,-2.769532 1.00391,-5.476563 2.10937,-7.960938 1.10547,-2.527344 2.39454,-4.894531 3.36719,-7.363281 0.94141,-2.476563 1.38672,-5.171875 2.16406,-7.8125 0.39844,-1.304687 0.71485,-2.714844 1.63282,-3.824219 0.44922,-0.558594 1.0625,-1.003906 1.76562,-1.222656 0.46875,-0.152344 1.01172,-0.191406 1.52344,-0.06641 -0.20703,-1.003906 -0.39844,-2.003906 -0.49609,-3.015625 -0.11329,-1.234375 -0.10938,-2.472657 -0.0547,-3.699219 0.13672,-2.390625 0.55859,-4.769531 1.32031,-7.015625 -0.20312,0.117187 -0.41406,0.246094 -0.61328,0.351563 -2.39063,1.132812 -4.59766,2.410156 -6.61328,4.019531 -2.01172,1.597656 -3.78125,3.476562 -5.3086,5.511719 -1.5625,2.042968 -2.76171,4.285156 -3.88281,6.675781 -1.15625,2.324219 -2.49219,4.8125 -4.72265,6.324219 l -0.0781,-0.101563 c 1.91016,-1.8125 2.90625,-4.234375 3.88672,-6.644531 0.95703,-2.421875 2.08203,-4.917969 3.68359,-7.066406 3.17579,-4.332032 7.75,-7.644532 12.72657,-9.347657 0.57812,-0.257812 1.13672,-0.542969 1.54687,-0.980469 0.4336,-0.414062 0.63672,-1 0.69141,-1.636718 0.125,-1.289063 0.21484,-2.597656 0.29297,-3.910156 0.11718,-2.609376 0.11328,-5.238282 0.1914,-7.859376 0.0625,-1.394531 0.15235,-2.796874 0.25782,-4.199218 0.37109,0.195312 0.74218,0.40625 1.10156,0.597656 -0.0781,1.21875 -0.17578,2.445312 -0.28516,3.671875 -0.27344,2.605469 -0.64062,5.214844 -0.85937,7.820313 -0.11719,1.300781 -0.16797,2.609374 -0.25,3.933593 -0.0469,0.65625 -0.25,1.398438 -0.72266,1.953125 -0.25391,0.300782 -0.54687,0.542969 -0.84766,0.765625 -0.26953,2.394531 -0.42968,4.78125 -0.42578,7.15625 -0.0117,1.210938 0.0352,2.410157 0.0937,3.601563 0.0586,1.203125 0.10157,2.402344 0.23828,3.613281 z m 0,0"
         id="path170"
         inkscape:connector-curvature="0"
         style="fill:url(#F);stroke-width:2.07203174" />
      <path
         d="m 432.33984,70.246094 c -0.59375,0.410156 -1.23047,0.796875 -1.87109,1.140625 -1.99609,1.042969 -4.11719,1.769531 -6.16406,2.570312 -2.05078,0.8125 -4.07813,1.699219 -5.98828,2.777344 -1.45704,0.789063 -2.82813,1.707031 -4.12891,2.699219 -0.65625,1.128906 -0.99609,2.367187 -1.04297,3.621094 -0.0977,1.628906 0.19922,3.257812 0.5,4.902343 0.57422,3.304688 1.23828,6.730469 1.26563,10.179688 0.0195,1.789062 -0.73829,3.531251 -1.62891,4.984371 -0.91797,1.45704 -1.78125,2.89844 -2.74219,4.31641 -0.94531,1.41016 -1.94922,2.77734 -2.97656,4.13672 -1.01953,1.34766 -2.0625,2.76953 -3.42578,3.85156 l -0.0977,-0.0937 c 1.02735,-1.35937 1.78516,-2.85937 2.66797,-4.32812 0.8711,-1.46875 1.7461,-2.92188 2.69531,-4.33203 0.92188,-1.42579 1.95313,-2.80079 2.90625,-4.17969 0.96094,-1.36328 1.85938,-2.746096 2.0586,-4.39844 0.17969,-1.644531 0.043,-3.378906 -0.39453,-4.992188 -0.4375,-1.625 -1.05078,-3.234374 -1.42969,-4.914062 -0.38281,-1.679688 -0.59375,-3.445312 -0.35938,-5.222656 0.11719,-0.914063 0.41407,-1.808594 0.86328,-2.617188 -1.68359,1.417969 -3.24218,2.980469 -4.6875,4.652344 -2.91406,3.230469 -5.45703,6.816406 -8.21093,10.292969 l -0.11328,-0.07031 c 2.07421,-3.914062 4.39453,-7.710937 7.29296,-11.132812 2.92188,-3.363282 6.53907,-6.292969 10.6875,-7.988282 2.03125,-0.894531 4.11329,-1.632812 6.13282,-2.523437 0.97265,-0.441406 1.9414,-0.910156 2.86718,-1.414063 -1.5039,-0.734374 -2.9414,-1.378906 -4.4375,-1.816406 -0.76953,-0.265625 -1.6289,-0.484375 -2.48046,-0.34375 -0.84766,0.125 -1.59375,0.601563 -2.19141,1.226563 -0.60938,0.621093 -1.1875,1.316406 -2.04688,1.828125 -0.82031,0.5625 -1.96093,0.785156 -2.90625,0.671875 -1.90625,-0.148438 -3.40234,-1.066407 -5.11328,-0.480469 l -0.0664,-0.09766 c 0.65234,-0.714844 1.72656,-0.941406 2.63672,-0.945313 0.93359,-0.01172 1.82812,0.140625 2.63672,0.160157 0.8164,0.03906 1.51953,0.0039 2.22265,-0.363282 0.69531,-0.359375 1.41406,-0.882812 2.21875,-1.328125 0.78516,-0.480469 1.64844,-0.855469 2.52344,-1.082031 0.89062,-0.238281 1.84375,-0.402344 2.80078,-0.289062 1.80078,0.292968 3.38281,1.339843 4.44141,2.722656 0.92578,-0.492188 1.8125,-1.011719 2.68359,-1.558594 0.52734,-0.324219 1.04687,-0.660156 1.57031,-1.011719 0.28125,0.265625 0.5586,0.527344 0.83203,0.789063 z m 0,0"
         id="path172"
         inkscape:connector-curvature="0"
         style="fill:url(#G);stroke-width:2.07203174" />
      <path
         d="m 122.73047,468.54687 -0.84766,-0.71093 c -1.10156,-0.94532 -3.1289,-0.45703 -4.08984,0.8125 -0.48828,0.61328 -0.82813,1.32031 -1.07813,2.08203 -0.16015,-0.0977 -0.32031,-0.19531 -0.47656,-0.30469 0.28125,-0.73828 0.64844,-1.44922 1.16797,-2.08203 0.55469,-0.70313 1.33203,-1.25 2.20703,-1.53125 0.58594,-0.1875 1.26953,-0.23828 1.90625,-0.0781 -0.26172,-1.24609 -0.5039,-2.5 -0.61328,-3.75781 -0.14844,-1.54687 -0.14062,-3.09375 -0.0781,-4.63672 0.16406,-2.98437 0.69531,-5.94922 1.65234,-8.76562 -0.25781,0.16797 -0.51172,0.3125 -0.77734,0.45312 -2.99219,1.42188 -5.7461,3.00391 -8.2461,5.02735 -2.51562,1.98047 -4.71875,4.32422 -6.64453,6.8789 -0.33594,0.44141 -0.65625,0.875 -0.95703,1.33985 -0.45703,-0.32422 -0.91406,-0.65235 -1.35547,-1 0.28906,-0.46485 0.60156,-0.91406 0.93359,-1.35938 3.96485,-5.41015 9.6836,-9.54297 15.89063,-11.68359 0.72266,-0.30859 1.42578,-0.67969 1.94141,-1.20313 0.54687,-0.53125 0.78125,-1.2539 0.85546,-2.05078 0.14844,-1.61328 0.27735,-3.25781 0.36329,-4.88672 0.16015,-3.26562 0.14062,-6.55468 0.24609,-9.82031 0.3125,-6.54687 0.93359,-13.05859 1.91406,-19.55469 l 0.16016,0.004 c 0.0977,6.5625 -0.16016,13.10938 -0.73438,19.63672 -0.33203,3.25781 -0.79297,6.50781 -1.07422,9.76562 -0.14062,1.64454 -0.21093,3.26563 -0.32031,4.91797 -0.0508,0.82422 -0.30469,1.74219 -0.89453,2.4375 -0.31641,0.37891 -0.67969,0.67969 -1.05859,0.94922 -0.33203,3.00391 -0.53125,5.97656 -0.53125,8.95313 -0.0234,1.5 0.0469,3 0.11718,4.48828 0.0703,1.5 0.125,3.01172 0.28907,4.50781 z m 0,0"
         id="path174"
         inkscape:connector-curvature="0"
         style="fill:url(#H);stroke-width:2.07203174" />
      <path
         d="m 209.22266,463.69141 c -2.92188,4.72265 -7.14844,8.70312 -12.06641,11.37109 -2.49219,1.30469 -5.125,2.19922 -7.69531,3.20312 -2.5625,1.01954 -5.09375,2.12891 -7.48438,3.46094 -1.82031,0.9961 -3.53515,2.14063 -5.16015,3.39063 -0.8086,1.39453 -1.2461,2.9414 -1.30469,4.52343 -0.11328,2.02735 0.25,4.0586 0.63672,6.11329 0.20703,1.1914 0.42187,2.39843 0.625,3.61328 -0.39453,-0.1211 -0.78516,-0.25391 -1.1875,-0.39063 -0.3086,-0.96484 -0.60547,-1.9414 -0.82422,-2.93359 -0.46875,-2.08985 -0.74219,-4.3125 -0.44141,-6.52735 0.13672,-1.13671 0.51172,-2.26171 1.07813,-3.26562 -2.10938,1.76953 -4.0586,3.71875 -5.86719,5.79687 -1.07813,1.20313 -2.10938,2.44141 -3.12109,3.69532 -0.48438,-0.17188 -0.96875,-0.35547 -1.45313,-0.54297 1.02734,-1.46485 2.11719,-2.90235 3.28125,-4.27735 3.65625,-4.20312 8.16797,-7.86328 13.35156,-9.98046 2.54297,-1.10547 5.14844,-2.04688 7.66407,-3.14454 1.23046,-0.54296 2.42187,-1.13671 3.59375,-1.76562 -1.89844,-0.91797 -3.69141,-1.73047 -5.54297,-2.26563 -0.97266,-0.34375 -2.03516,-0.60937 -3.09375,-0.44531 -1.07032,0.16016 -1.9961,0.76172 -2.7461,1.54297 -0.75781,0.78125 -1.49218,1.64844 -2.55859,2.28906 -1.03516,0.70313 -2.45313,0.96875 -3.63281,0.83203 -2.37891,-0.18359 -4.25391,-1.32421 -6.375,-0.59765 l -0.0937,-0.13281 c 0.8125,-0.8711 2.14453,-1.16016 3.29297,-1.16407 1.17968,-0.0234 2.27343,0.16797 3.29687,0.19532 1.02734,0.0391 1.89453,-0.004 2.77734,-0.45313 0.8711,-0.44531 1.76954,-1.09375 2.75,-1.66406 0.98047,-0.59766 2.06641,-1.0625 3.17579,-1.35938 1.09375,-0.28906 2.30078,-0.5039 3.48437,-0.35156 2.24609,0.37109 4.22656,1.67578 5.5625,3.41797 1.13281,-0.625 2.25781,-1.27734 3.33984,-1.96875 4.63282,-2.82813 8.83985,-6.26563 12.60157,-10.30469 z m 0,0"
         id="path176"
         inkscape:connector-curvature="0"
         style="fill:url(#I);stroke-width:2.07203174" />
    </g>
  </g>
</svg>
