<?xml version="1.0" encoding="UTF-8" standalone="no"?>
<svg
   xmlns:dc="http://purl.org/dc/elements/1.1/"
   xmlns:cc="http://creativecommons.org/ns#"
   xmlns:rdf="http://www.w3.org/1999/02/22-rdf-syntax-ns#"
   xmlns:svg="http://www.w3.org/2000/svg"
   xmlns="http://www.w3.org/2000/svg"
   xmlns:sodipodi="http://sodipodi.sourceforge.net/DTD/sodipodi-0.dtd"
   xmlns:inkscape="http://www.inkscape.org/namespaces/inkscape"
   id="Capa_1"
   enable-background="new 0 0 512 512"
   height="512"
   viewBox="0 0 512 512"
   width="512"
   version="1.1"
   sodipodi:docname="Checkup.svg"
   inkscape:version="0.92.2 (5c3e80d, 2017-08-06)">
  <metadata
     id="metadata57">
    <rdf:RDF>
      <cc:Work
         rdf:about="">
        <dc:format>image/svg+xml</dc:format>
        <dc:type
           rdf:resource="http://purl.org/dc/dcmitype/StillImage" />
      </cc:Work>
    </rdf:RDF>
  </metadata>
  <defs
     id="defs55" />
  <sodipodi:namedview
     pagecolor="#ffffff"
     bordercolor="#666666"
     borderopacity="1"
     objecttolerance="10"
     gridtolerance="10"
     guidetolerance="10"
     inkscape:pageopacity="0"
     inkscape:pageshadow="2"
     inkscape:window-width="1920"
     inkscape:window-height="1028"
     id="namedview53"
     showgrid="false"
     inkscape:zoom="0.4609375"
     inkscape:cx="-46.644068"
     inkscape:cy="256"
     inkscape:window-x="-8"
     inkscape:window-y="-8"
     inkscape:window-maximized="1"
     inkscape:current-layer="Capa_1" />
  <g
     id="g889"
     transform="matrix(0.83898305,0,0,0.83898305,41.220692,41.220339)"
     style="stroke-width:1.19191921">
    <path
       id="path2"
       d="m 329.648,308.5 v -2 h -19.405 c -11.997,0 -21.757,-9.843 -21.757,-21.942 v -6.117 c 0,-7.265 3.521,-13.713 8.931,-17.708 H 253.87 v -71.795 c 0,-14.744 -11.998,-26.739 -26.745,-26.739 h -21.396 c -2.954,0 -5.349,2.395 -5.349,5.348 V 294.75 h -33.96 v 105.052 c 3.688,7.549 6.16,15.783 7.207,24.448 h 28.492 c 7.89,19.921 27.316,34.019 50.049,34.019 h 42.016 c -5.408,-3.996 -8.93,-10.443 -8.93,-17.708 v -6.117 c 0,-12.099 9.76,-21.942 21.756,-21.942 h 16.169 v -2 c -11.997,0 -21.758,-9.843 -21.758,-21.941 v -6.118 c 0,-12.099 9.761,-21.942 21.758,-21.942 h 6.47 v -2 c -11.998,0 -21.759,-9.843 -21.759,-21.942 v -6.117 c -10e-4,-12.099 9.76,-21.942 21.758,-21.942 z"
       inkscape:connector-curvature="0"
       style="fill:#fed2a4;stroke-width:1.42067134" />
    <path
       id="path4"
       d="m 205.728,162.198 c -2.954,0 -5.349,2.395 -5.349,5.348 V 294.75 H 166.42 v 25.377 h 54.266 c 2.804,0 5.077,-2.273 5.077,-5.075 V 187.848 c 0,-12.912 0.004,-21.011 0.012,-25.65 z"
       inkscape:connector-curvature="0"
       style="fill:#ffbd86;stroke-width:1.42067134" />
    <path
       id="path6"
       d="m 307.009,411.501 c -12.518,0 -22.756,10.323 -22.756,22.942 v 6.117 c 0,12.619 10.238,22.942 22.756,22.942 h 68.269 c 12.517,0 22.758,-10.322 22.758,-22.942 v -6.117 c 0,-12.62 -10.241,-22.942 -22.758,-22.942 z"
       inkscape:connector-curvature="0"
       style="fill:#ffbd86;stroke-width:1.42067134" />
    <path
       id="path8"
       d="m 307.009,443.055 h 68.269 c 10.035,0 18.594,-6.642 21.598,-15.776 0.743,2.258 1.16,4.663 1.16,7.165 v 6.117 c 0,12.619 -10.241,22.942 -22.758,22.942 h -68.269 c -12.518,0 -22.756,-10.322 -22.756,-22.942 v -6.117 c 0,-2.502 0.417,-4.907 1.16,-7.165 3.004,9.134 11.56,15.776 21.596,15.776 z"
       inkscape:connector-curvature="0"
       style="fill:#f6a96c;stroke-width:1.42067134" />
    <path
       id="path10"
       d="m 323.178,359.5 c -12.518,0 -22.758,10.325 -22.758,22.942 v 6.118 c 0,12.618 10.24,22.941 22.758,22.941 h 68.269 c 12.516,0 22.759,-10.323 22.759,-22.941 v -6.118 c 0,-12.617 -10.243,-22.942 -22.759,-22.942 z"
       inkscape:connector-curvature="0"
       style="fill:#ffbd86;stroke-width:1.42067134" />
    <path
       id="path12"
       d="m 323.178,391.055 h 68.269 c 10.034,0 18.594,-6.643 21.599,-15.777 0.743,2.259 1.16,4.663 1.16,7.165 v 6.118 c 0,12.618 -10.243,22.941 -22.759,22.941 h -68.269 c -12.518,0 -22.758,-10.323 -22.758,-22.941 v -6.118 c 0,-2.502 0.417,-4.906 1.16,-7.165 3.004,9.134 11.562,15.777 21.598,15.777 z"
       inkscape:connector-curvature="0"
       style="fill:#f6a96c;stroke-width:1.42067134" />
    <path
       id="path14"
       d="m 329.648,307.5 c -12.518,0 -22.759,10.324 -22.759,22.941 v 6.117 c 0,12.619 10.241,22.942 22.759,22.942 h 68.27 c 12.515,0 22.754,-10.323 22.754,-22.942 v -6.117 c 0,-12.618 -10.239,-22.941 -22.754,-22.941 z"
       inkscape:connector-curvature="0"
       style="fill:#ffbd86;stroke-width:1.42067134" />
    <path
       id="path16"
       d="m 329.648,339.053 h 68.27 c 10.034,0 18.591,-6.643 21.595,-15.776 0.742,2.259 1.159,4.664 1.159,7.165 v 6.117 c 0,12.619 -10.239,22.942 -22.754,22.942 h -68.27 c -12.518,0 -22.759,-10.323 -22.759,-22.942 v -6.117 c 0,-2.501 0.417,-4.906 1.16,-7.165 3.004,9.133 11.562,15.776 21.599,15.776 z"
       inkscape:connector-curvature="0"
       style="fill:#f6a96c;stroke-width:1.42067134" />
    <path
       id="path18"
       d="m 310.242,255.499 c -12.514,0 -22.757,10.325 -22.757,22.942 v 6.117 c 0,12.619 10.243,22.942 22.757,22.942 h 68.269 c 12.518,0 22.757,-10.323 22.757,-22.942 v -6.117 c 0,-12.617 -10.239,-22.942 -22.757,-22.942 z"
       inkscape:connector-curvature="0"
       style="fill:#ffbd86;stroke-width:1.42067134" />
    <path
       id="path20"
       d="m 310.242,287.053 h 68.269 c 10.036,0 18.594,-6.642 21.598,-15.777 0.742,2.258 1.159,4.663 1.159,7.164 v 6.117 c 0,12.619 -10.239,22.942 -22.757,22.942 h -68.269 c -12.514,0 -22.757,-10.323 -22.757,-22.942 v -6.117 c 0,-2.501 0.417,-4.906 1.16,-7.164 3.007,9.135 11.563,15.777 21.597,15.777 z"
       inkscape:connector-curvature="0"
       style="fill:#f6a96c;stroke-width:1.42067134" />
    <path
       id="path22"
       d="m 124.791,361.456 c 18.975,7.445 34.32,22.08 42.629,40.518 V 282.701 c 0,-2.792 -2.285,-5.076 -5.077,-5.076 h -37.552 z"
       inkscape:connector-curvature="0"
       style="fill:#d4f2f6;stroke-width:1.42067134" />
    <path
       id="path24"
       d="m 124.791,308.078 h 37.552 c 2.792,0 5.077,2.284 5.077,5.076 v -30.453 c 0,-2.792 -2.285,-5.076 -5.077,-5.076 h -37.552 z"
       inkscape:connector-curvature="0"
       style="fill:#a6e7f0;stroke-width:1.42067134" />
    <path
       id="path26"
       d="m 96.277,356.061 c 10.442,0 20.404,2.067 29.514,5.787 v -92.304 c 0,-2.792 -2.284,-5.075 -5.077,-5.075 H 41.283 c -2.792,0 -5.076,2.284 -5.076,5.075 v 114.691 c 14.305,-17.197 35.922,-28.174 60.07,-28.174 z"
       inkscape:connector-curvature="0"
       style="fill:#08a9f1;stroke-width:1.42067134" />
    <path
       id="path28"
       d="M 120.714,264.469 H 41.283 c -2.792,0 -5.076,2.284 -5.076,5.075 v 30.453 c 0,-2.792 2.284,-5.075 5.076,-5.075 h 79.431 c 2.793,0 5.077,2.284 5.077,5.075 v -30.453 c 0,-2.792 -2.284,-5.075 -5.077,-5.075 z"
       inkscape:connector-curvature="0"
       style="fill:#0290cf;stroke-width:1.42067134" />
    <ellipse
       id="ellipse30"
       ry="78.470001"
       rx="78.928001"
       cy="433.53"
       cx="96.277"
       style="fill:#97d729;stroke-width:1.42067134" />
    <path
       id="path32"
       d="m 47.81,433.53 c 0,-38.156 27.398,-69.938 63.697,-76.995 -4.929,-0.958 -10.018,-1.474 -15.229,-1.474 -43.589,0 -78.928,35.131 -78.928,78.469 0,43.337 35.339,78.47 78.928,78.47 5.212,0 10.301,-0.516 15.229,-1.474 C 75.208,503.468 47.81,471.686 47.81,433.53 Z"
       inkscape:connector-curvature="0"
       style="fill:#8bc727;stroke-width:1.42067134" />
    <path
       id="path34"
       d="m 86.811,461.835 c -1.913,0 -3.825,-0.727 -5.288,-2.182 L 58.606,436.868 c -2.937,-2.92 -2.951,-7.669 -0.03,-10.607 2.921,-2.938 7.67,-2.95 10.606,-0.03 l 17.629,17.527 36.563,-36.352 c 2.937,-2.919 7.686,-2.906 10.606,0.031 2.921,2.938 2.906,7.686 -0.03,10.607 l -41.851,41.609 c -1.463,1.454 -3.376,2.182 -5.288,2.182 z"
       inkscape:connector-curvature="0"
       style="fill:#017b4e;stroke-width:1.42067134" />
    <path
       id="path36"
       d="m 394.277,205.251 c -0.972,0 -1.946,-0.228 -2.837,-0.692 l -37.564,-19.551 -37.559,19.551 c -0.892,0.464 -1.867,0.692 -2.839,0.692 -1.263,0 -2.522,-0.39 -3.587,-1.153 -1.879,-1.353 -2.82,-3.642 -2.428,-5.908 l 7.178,-41.408 -30.385,-29.326 c -1.663,-1.605 -2.263,-4.006 -1.547,-6.191 0.718,-2.188 2.631,-3.784 4.93,-4.115 l 41.991,-6.04 18.775,-37.675 c 1.03,-2.061 3.148,-3.365 5.47,-3.365 2.322,0 4.445,1.305 5.473,3.365 l 18.781,37.675 41.991,6.04 c 2.298,0.331 4.205,1.926 4.925,4.113 0.716,2.187 0.118,4.587 -1.548,6.193 l -30.382,29.326 7.175,41.408 c 0.391,2.266 -0.551,4.556 -2.43,5.909 -1.057,0.762 -2.319,1.152 -3.583,1.152 z"
       inkscape:connector-curvature="0"
       style="fill:#ffdc48;stroke-width:1.42067134" />
    <path
       id="path38"
       d="m 337.924,188.039 7.178,-41.408 -30.385,-29.326 c -1.064,-1.026 -1.685,-2.377 -1.814,-3.789 l -25.264,3.634 c -2.299,0.331 -4.212,1.926 -4.93,4.115 -0.716,2.186 -0.116,4.586 1.547,6.191 l 30.385,29.326 -7.178,41.408 c -0.393,2.266 0.549,4.556 2.428,5.908 1.065,0.764 2.324,1.153 3.587,1.153 0.972,0 1.947,-0.228 2.839,-0.692 l 22.765,-11.85 c -1.006,-1.312 -1.448,-2.997 -1.158,-4.67 z"
       inkscape:connector-curvature="0"
       style="fill:#fac600;stroke-width:1.42067134" />
    <path
       id="path40"
       d="m 420.848,52.554 c -1.282,0 -2.581,-0.329 -3.768,-1.021 -3.58,-2.084 -4.791,-6.676 -2.707,-10.255 l 9.969,-17.115 c 2.084,-3.58 6.678,-4.79 10.255,-2.707 3.58,2.085 4.791,6.676 2.707,10.255 l -9.969,17.115 c -1.392,2.393 -3.906,3.728 -6.487,3.728 z"
       inkscape:connector-curvature="0"
       style="fill:#fac600;stroke-width:1.42067134" />
    <path
       id="path42"
       d="m 353.876,34.764 c -4.142,0 -7.5,-3.358 -7.5,-7.5 V 7.5 c 0,-4.142 3.358,-7.5 7.5,-7.5 4.143,0 7.5,3.358 7.5,7.5 v 19.764 c 0,4.142 -3.357,7.5 -7.5,7.5 z"
       inkscape:connector-curvature="0"
       style="fill:#fe9901;stroke-width:1.42067134" />
    <path
       id="path44"
       d="m 286.907,52.557 c -2.582,0 -5.095,-1.335 -6.488,-3.727 l -9.967,-17.116 c -2.084,-3.58 -0.872,-8.171 2.708,-10.255 3.578,-2.083 8.17,-0.873 10.255,2.708 l 9.967,17.116 c 2.084,3.58 0.872,8.171 -2.707,10.255 -1.188,0.69 -2.486,1.019 -3.768,1.019 z"
       inkscape:connector-curvature="0"
       style="fill:#fac600;stroke-width:1.42067134" />
    <g
       id="g50"
       style="fill:#fe9901;stroke-width:1.42067134">
      <path
         id="path46"
         d="m 237.865,101.162 c -1.264,0 -2.545,-0.32 -3.72,-0.993 l -17.264,-9.883 c -3.595,-2.058 -4.841,-6.64 -2.782,-10.235 2.058,-3.595 6.642,-4.84 10.234,-2.783 l 17.264,9.883 c 3.595,2.058 4.841,6.64 2.783,10.235 -1.385,2.421 -3.913,3.776 -6.515,3.776 z"
         inkscape:connector-curvature="0"
         style="stroke-width:1.19191921" />
      <path
         id="path48"
         d="m 469.89,101.157 c -2.602,0 -5.131,-1.356 -6.516,-3.776 -2.058,-3.595 -0.812,-8.177 2.784,-10.234 l 17.266,-9.88 c 3.594,-2.058 8.177,-0.812 10.234,2.784 2.058,3.595 0.811,8.177 -2.784,10.234 l -17.266,9.88 c -1.174,0.672 -2.455,0.992 -3.718,0.992 z"
         inkscape:connector-curvature="0"
         style="stroke-width:1.19191921" />
    </g>
  </g>
</svg>
