<?xml version="1.0" encoding="UTF-8" standalone="no"?>
<!-- Generator: Adobe Illustrator 19.0.0, SVG Export Plug-In . SVG Version: 6.00 Build 0)  -->

<svg
   xmlns:dc="http://purl.org/dc/elements/1.1/"
   xmlns:cc="http://creativecommons.org/ns#"
   xmlns:rdf="http://www.w3.org/1999/02/22-rdf-syntax-ns#"
   xmlns:svg="http://www.w3.org/2000/svg"
   xmlns="http://www.w3.org/2000/svg"
   xmlns:sodipodi="http://sodipodi.sourceforge.net/DTD/sodipodi-0.dtd"
   xmlns:inkscape="http://www.inkscape.org/namespaces/inkscape"
   version="1.1"
   id="Capa_1"
   x="0px"
   y="0px"
   viewBox="0 0 512 512"
   style="enable-background:new 0 0 512 512;"
   xml:space="preserve"
   sodipodi:docname="Trend.svg"
   inkscape:version="0.92.2 (5c3e80d, 2017-08-06)"><metadata
     id="metadata65"><rdf:RDF><cc:Work
         rdf:about=""><dc:format>image/svg+xml</dc:format><dc:type
           rdf:resource="http://purl.org/dc/dcmitype/StillImage" /></cc:Work></rdf:RDF></metadata><defs
     id="defs63" /><sodipodi:namedview
     pagecolor="#ffffff"
     bordercolor="#666666"
     borderopacity="1"
     objecttolerance="10"
     gridtolerance="10"
     guidetolerance="10"
     inkscape:pageopacity="0"
     inkscape:pageshadow="2"
     inkscape:window-width="1920"
     inkscape:window-height="1028"
     id="namedview61"
     showgrid="false"
     inkscape:zoom="0.4609375"
     inkscape:cx="-46.644068"
     inkscape:cy="256"
     inkscape:window-x="-8"
     inkscape:window-y="-8"
     inkscape:window-maximized="1"
     inkscape:current-layer="Capa_1" /><g
     id="g880"
     transform="matrix(0.87518329,0,0,0.87518329,24.809136,50.623502)"
     style="stroke-width:1.14261782"><g
       id="g18"
       style="stroke-width:1.14261782"><path
         id="path14"
         d="M 34.859,383.982 33.408,366.915 C 211.729,351.461 364.467,232.984 423.765,64.101 l 20.48,-58.401 16.111,5.632 -20.48,58.402 C 378.377,244.983 219.895,367.948 34.859,383.982 Z"
         style="fill:#ed1c24;stroke-width:1.14261782"
         inkscape:connector-curvature="0" /><path
         id="path16"
         d="M 42.667,418.116 H 102.4 v 51.2 H 42.667 Z"
         style="fill:#ed1c24;stroke-width:1.14261782"
         inkscape:connector-curvature="0" /></g><path
       id="path20"
       d="m 136.533,392.516 h 59.733 v 76.8 h -59.733 z"
       style="fill:#fbb03b;stroke-width:1.30557549"
       inkscape:connector-curvature="0" /><path
       id="path22"
       d="m 230.4,349.849 h 59.733 V 469.316 H 230.4 Z"
       style="fill:#f8cf26;stroke-width:1.30557549"
       inkscape:connector-curvature="0" /><path
       id="path24"
       d="M 324.267,290.116 H 384 v 179.2 h -59.733 z"
       style="fill:#39b54a;stroke-width:1.30557549"
       inkscape:connector-curvature="0" /><path
       id="path26"
       d="m 418.133,170.649 h 59.733 v 298.667 h -59.733 z"
       style="fill:#0071bc;stroke-width:1.30557549"
       inkscape:connector-curvature="0" /><path
       id="path28"
       d="m 486.4,85.316 c -3.251,0.017 -6.229,-1.809 -7.68,-4.719 L 448.41,20.01 387.815,50.329 c -4.215,2.108 -9.344,0.393 -11.452,-3.823 -2.108,-4.215 -0.393,-9.344 3.823,-11.452 L 448.453,0.921 c 4.215,-2.108 9.344,-0.401 11.452,3.814 v 0.009 l 34.133,68.267 c 2.082,4.224 0.341,9.344 -3.883,11.426 -1.169,0.571 -2.449,0.879 -3.755,0.879 z"
       style="fill:#ed1c24;stroke-width:1.30557549"
       inkscape:connector-curvature="0" /></g><g
     id="g30" /><g
     id="g32" /><g
     id="g34" /><g
     id="g36" /><g
     id="g38" /><g
     id="g40" /><g
     id="g42" /><g
     id="g44" /><g
     id="g46" /><g
     id="g48" /><g
     id="g50" /><g
     id="g52" /><g
     id="g54" /><g
     id="g56" /><g
     id="g58" /></svg>