<?xml version="1.0" encoding="UTF-8" standalone="no"?>
<!-- Generator: Adobe Illustrator 19.0.0, SVG Export Plug-In . SVG Version: 6.00 Build 0)  -->

<svg
   xmlns:dc="http://purl.org/dc/elements/1.1/"
   xmlns:cc="http://creativecommons.org/ns#"
   xmlns:rdf="http://www.w3.org/1999/02/22-rdf-syntax-ns#"
   xmlns:svg="http://www.w3.org/2000/svg"
   xmlns="http://www.w3.org/2000/svg"
   xmlns:sodipodi="http://sodipodi.sourceforge.net/DTD/sodipodi-0.dtd"
   xmlns:inkscape="http://www.inkscape.org/namespaces/inkscape"
   version="1.1"
   id="Layer_1"
   x="0px"
   y="0px"
   viewBox="0 0 512.009 512.009"
   style="enable-background:new 0 0 512.009 512.009;"
   xml:space="preserve"
   sodipodi:docname="Environment.svg"
   inkscape:version="0.92.2 (5c3e80d, 2017-08-06)"><metadata
     id="metadata71"><rdf:RDF><cc:Work
         rdf:about=""><dc:format>image/svg+xml</dc:format><dc:type
           rdf:resource="http://purl.org/dc/dcmitype/StillImage" /></cc:Work></rdf:RDF></metadata><defs
     id="defs69" /><sodipodi:namedview
     pagecolor="#ffffff"
     bordercolor="#666666"
     borderopacity="1"
     objecttolerance="10"
     gridtolerance="10"
     guidetolerance="10"
     inkscape:pageopacity="0"
     inkscape:pageshadow="2"
     inkscape:window-width="2560"
     inkscape:window-height="1388"
     id="namedview67"
     showgrid="false"
     inkscape:zoom="0.46092942"
     inkscape:cx="-520.68709"
     inkscape:cy="256.00449"
     inkscape:window-x="-8"
     inkscape:window-y="-8"
     inkscape:window-maximized="1"
     inkscape:current-layer="Layer_1" /><polygon
     style="fill:#e6eaee;stroke-width:1.6135428"
     points="0.032,48.394 58.789,158.558 110.192,107.151 "
     id="polygon2"
     transform="matrix(0.78724471,0,0,0.78724471,54.464911,54.466298)" /><polygon
     style="fill:#aab5bd;stroke-width:1.6135428"
     points="110.192,107.151 94.023,123.312 0.032,48.394 "
     id="polygon4"
     transform="matrix(0.78724471,0,0,0.78724471,54.464911,54.466298)" /><polygon
     style="fill:#ff7059;stroke-width:1.6135428"
     points="354.497,454.246 58.789,158.558 110.192,107.151 405.907,402.859 "
     id="polygon6"
     transform="matrix(0.78724471,0,0,0.78724471,54.464911,54.466298)" /><rect
     x="-16.214325"
     y="198.00989"
     transform="rotate(-44.983795)"
     style="fill:#e64732;stroke-width:1.2702409"
     width="17.99703"
     height="329.22101"
     id="rect8" /><polygon
     style="fill:#34495e;stroke-width:1.6135428"
     points="0.032,48.394 22.983,91.558 43.148,71.393 "
     id="polygon10"
     transform="matrix(0.78724471,0,0,0.78724471,54.464911,54.466298)" /><polygon
     style="fill:#283a4d;stroke-width:1.6135428"
     points="0.032,48.394 36.837,77.693 43.148,71.393 "
     id="polygon12"
     transform="matrix(0.78724471,0,0,0.78724471,54.464911,54.466298)" /><polygon
     style="fill:#e6eaee;stroke-width:1.6135428"
     points="354.497,454.246 384.319,484.083 435.726,432.665 405.907,402.859 "
     id="polygon14"
     transform="matrix(0.78724471,0,0,0.78724471,54.464911,54.466298)" /><rect
     x="-16.367823"
     y="527.2384"
     transform="rotate(-45.008103)"
     style="fill:#aab5bd;stroke-width:1.2702409"
     width="18.004902"
     height="33.189919"
     id="rect16" /><path
     inkscape:connector-curvature="0"
     style="fill:#34495e;stroke-width:1.27025306"
     d="m 410.21135,407.8203 c 5.18558,5.18164 8.38809,12.35187 8.42588,20.24636 -0.0425,7.86379 -3.23873,15.02614 -8.42588,20.19991 v 0 c -5.17771,5.19739 -12.32825,8.38573 -20.19362,8.43218 -7.90393,-0.0323 -15.08675,-3.23243 -20.2684,-8.42431 l -12.73132,-12.71872 40.46989,-40.47855 z"
     id="path18" /><path
     inkscape:connector-curvature="0"
     style="fill:#283a4d;stroke-width:1.27025306"
     d="m 384.75894,407.81243 c 5.17771,5.18951 8.39203,12.36604 8.3999,20.2621 0.0142,7.86379 -3.20409,15.0104 -8.38573,20.19991 -2.1846,2.17831 -4.72977,3.91418 -7.5048,5.27454 3.8512,1.97284 8.11964,3.12615 12.74942,3.14977 7.86379,-0.0441 15.01434,-3.23243 20.19362,-8.43218 5.18558,-5.17377 8.38415,-12.33612 8.42588,-20.19991 -0.0386,-7.89449 -3.23873,-15.06472 -8.42588,-20.24636 l -12.72266,-12.74077 z"
     id="path20" /><rect
     x="-390.06442"
     y="-255.80275"
     transform="rotate(-135)"
     style="fill:#ffbd19;stroke-width:1.27024078;fill-opacity:1"
     width="57.234505"
     height="457.85794"
     id="rect22" /><polygon
     style="fill:#f6a320;stroke-width:1.6135428;fill-opacity:1"
     points="35.276,494.773 446.512,83.527 462.693,99.686 51.445,510.937 "
     id="polygon24"
     transform="matrix(0.78724471,0,0,0.78724471,54.464911,54.466298)" /><g
     style="stroke-width:1.27025306"
     id="g30"
     transform="matrix(0.78724471,0,0,0.78724471,54.464911,54.466298)"><rect
       x="331.5"
       y="70.401001"
       transform="matrix(-0.707,-0.7072,0.7072,-0.707,579.3818,482.612)"
       style="fill:#283a4d;stroke-width:1.27025306"
       width="116.325"
       height="101.774"
       id="rect26" /><rect
       x="448.73001"
       y="145.453"
       transform="matrix(-0.7071,-0.7071,0.7071,-0.7071,654.4877,663.7866)"
       style="fill:#283a4d;stroke-width:1.27025306"
       width="31.976999"
       height="101.782"
       id="rect28" /></g><path
     inkscape:connector-curvature="0"
     style="fill:#34495e;stroke-width:1.27025306"
     d="m 421.94208,171.80748 c -4.91319,-4.9376 -4.91162,-12.89428 0,-17.80747 l -56.65721,56.6517 c 4.92185,-4.92185 12.90058,-4.92185 17.81535,0 4.91713,4.9132 4.91713,12.87775 0,17.80748 l 56.65721,-56.65958 c -4.91319,4.91556 -12.89192,4.91556 -17.81535,0.008 z"
     id="path32" /><path
     inkscape:connector-curvature="0"
     style="fill:#283a4d;stroke-width:1.27025306"
     d="M 345.05661,77.094073 C 331.59237,63.635337 312.99056,55.310224 292.44584,55.310224 c -20.53213,0 -39.14023,8.323539 -52.60842,21.783849 l -4.05509,4.059033 17.81141,17.807476 c 12.97064,-12.970644 33.98063,-12.970644 46.9434,-0.0079 12.96513,12.962768 12.96513,33.980628 0,46.937098 l 56.65958,-56.651697 z"
     id="path34" /><g
     id="g36" /><g
     id="g38" /><g
     id="g40" /><g
     id="g42" /><g
     id="g44" /><g
     id="g46" /><g
     id="g48" /><g
     id="g50" /><g
     id="g52" /><g
     id="g54" /><g
     id="g56" /><g
     id="g58" /><g
     id="g60" /><g
     id="g62" /><g
     id="g64" /></svg>