<?xml version="1.0" encoding="UTF-8" standalone="no"?>
<svg
   xmlns:dc="http://purl.org/dc/elements/1.1/"
   xmlns:cc="http://creativecommons.org/ns#"
   xmlns:rdf="http://www.w3.org/1999/02/22-rdf-syntax-ns#"
   xmlns:svg="http://www.w3.org/2000/svg"
   xmlns="http://www.w3.org/2000/svg"
   xmlns:sodipodi="http://sodipodi.sourceforge.net/DTD/sodipodi-0.dtd"
   xmlns:inkscape="http://www.inkscape.org/namespaces/inkscape"
   height="512pt"
   viewBox="0 -37 512 512"
   width="512pt"
   version="1.1"
   id="svg18"
   sodipodi:docname="FileSystemSettings.svg"
   inkscape:version="0.92.2 (5c3e80d, 2017-08-06)">
  <metadata
     id="metadata24">
    <rdf:RDF>
      <cc:Work
         rdf:about="">
        <dc:format>image/svg+xml</dc:format>
        <dc:type
           rdf:resource="http://purl.org/dc/dcmitype/StillImage" />
      </cc:Work>
    </rdf:RDF>
  </metadata>
  <defs
     id="defs22" />
  <sodipodi:namedview
     pagecolor="#ffffff"
     bordercolor="#666666"
     borderopacity="1"
     objecttolerance="10"
     gridtolerance="10"
     guidetolerance="10"
     inkscape:pageopacity="0"
     inkscape:pageshadow="2"
     inkscape:window-width="1920"
     inkscape:window-height="1028"
     id="namedview20"
     showgrid="false"
     inkscape:zoom="0.34570313"
     inkscape:cx="-62.19209"
     inkscape:cy="341.33333"
     inkscape:window-x="-8"
     inkscape:window-y="-8"
     inkscape:window-maximized="1"
     inkscape:current-layer="svg18" />
  <g
     id="g842"
     transform="matrix(0.8220339,0,0,0.8220339,45.559314,38.613321)"
     style="stroke-width:1.2164948">
    <path
       id="path2"
       d="M 470.94141,359.5625 H 10 c -5.523438,0 -10,-4.47656 -10,-10 V 59.945312 c 0,-5.523437 4.476562,-10 10,-10 h 460.94141 c 5.52343,0 10,4.476563 10,10 V 349.5625 c 0,5.52344 -4.47657,10 -10,10 z m 0,0"
       inkscape:connector-curvature="0"
       style="fill:#ffe046;stroke-width:1.47985959" />
    <path
       id="path4"
       d="M 470.57422,49.945312 H 428.58203 V 311.81641 c 0,5.72656 -4.64062,10.36718 -10.36719,10.36718 H 0 v 27.01172 c 0,5.72656 4.640625,10.36719 10.367188,10.36719 H 470.57422 c 5.72656,0 10.36719,-4.64063 10.36719,-10.36719 V 60.3125 c 0,-5.726562 -4.64063,-10.367188 -10.36719,-10.367188 z m 0,0"
       inkscape:connector-curvature="0"
       style="fill:#eec707;stroke-width:1.47985959" />
    <path
       id="path6"
       d="M 470.57422,49.945312 H 202.03125 V 26.074219 C 202.03125,11.675781 190.35547,0 175.95703,0 H 26.074219 C 11.675781,0 0,11.675781 0,26.074219 V 124.29297 H 480.94141 V 60.3125 c 0,-5.726562 -4.64063,-10.367188 -10.36719,-10.367188 z m 0,0"
       inkscape:connector-curvature="0"
       style="fill:#eec707;stroke-width:1.47985959" />
    <path
       id="path8"
       d="m 470.57422,49.945312 h -70.54688 l 0.3125,39.488282 c 0,5.886718 -4.77734,10.664066 -10.66797,10.664066 H 0 v 24.1914 H 480.94141 V 60.3125 c 0,-5.726562 -4.64063,-10.367188 -10.36719,-10.367188 z m 0,0"
       inkscape:connector-curvature="0"
       style="fill:#fba72d;stroke-width:1.47985959" />
    <path
       id="path10"
       d="m 508.27734,199.55078 h -10.39062 c -1.15625,-4.61328 -2.98047,-8.96484 -5.36719,-12.94141 l 7.35156,-7.34765 c 1.45313,-1.45313 1.45313,-3.8125 0,-5.26563 l -11.25,-11.2539 c -1.45703,-1.45313 -3.8125,-1.45313 -5.26562,0 l -7.35156,7.35156 c -3.97657,-2.38281 -8.32422,-4.20703 -12.94141,-5.36328 v -10.39063 c 0,-2.05859 -1.66797,-3.72656 -3.72266,-3.72656 h -15.91406 c -2.05469,0 -3.72265,1.66797 -3.72265,3.72656 v 10.39063 c -4.61719,1.15625 -8.96485,2.98047 -12.94141,5.36328 l -7.35156,-7.35156 c -1.45313,-1.45313 -3.8086,-1.45313 -5.26563,0 l -11.25,11.2539 c -1.45312,1.45313 -1.45312,3.8125 0,5.26563 l 7.35156,7.34765 c -2.38671,3.97657 -4.21093,8.32813 -5.36328,12.94141 h -10.39453 c -2.05469,0 -3.72265,1.66797 -3.72265,3.72656 v 15.91016 c 0,2.05859 1.66796,3.72266 3.72265,3.72266 h 10.39453 c 1.15235,4.61718 2.97657,8.96875 5.36328,12.9414 l -7.35156,7.35156 c -1.45312,1.45313 -1.45312,3.8125 0,5.26563 l 11.25,11.25 c 1.45703,1.45703 3.8125,1.45703 5.26563,0 l 7.35156,-7.34766 c 3.97656,2.38282 8.32812,4.20703 12.94141,5.36328 V 268.125 c 0,2.05469 1.66796,3.72266 3.72265,3.72266 h 15.91406 c 2.05469,0 3.72266,-1.66407 3.72266,-3.72266 v -10.39063 c 4.61719,-1.15625 8.96484,-2.98046 12.94141,-5.36328 l 7.35156,7.34766 c 1.45312,1.45703 3.80859,1.45703 5.26562,0 l 11.25,-11.25 c 1.45313,-1.45313 1.45313,-3.8125 0,-5.26563 l -7.35156,-7.35156 c 2.38672,-3.97265 4.21094,-8.32422 5.36719,-12.9414 h 10.39062 c 2.05469,0 3.72266,-1.66407 3.72266,-3.72266 v -15.91016 c 0,-2.05859 -1.66797,-3.72656 -3.72266,-3.72656 z m -56.89453,30.85938 c -10.58984,0 -19.17578,-8.58594 -19.17578,-19.17969 0,-10.58985 8.58594,-19.17578 19.17578,-19.17578 10.58985,0 19.17578,8.58593 19.17578,19.17578 0,10.59375 -8.58593,19.17969 -19.17578,19.17969 z m 0,0"
       inkscape:connector-curvature="0"
       style="fill:#8f8f99;stroke-width:1.47985959" />
    <path
       id="path12"
       d="m 508.27734,199.55078 h -10.39453 c -1.15625,-4.61328 -2.98047,-8.96094 -5.36328,-12.9375 l 7.35156,-7.35156 c 1.45313,-1.45313 1.45313,-3.8125 0,-5.26563 l -11.2539,-11.2539 c -1.45313,-1.45313 -3.8086,-1.45313 -5.26563,0 l -7.35547,7.35937 c -4.02343,-2.41406 -8.43359,-4.25781 -13.11328,-5.41406 12.16016,8.69922 20.09375,22.92187 20.09375,39.01172 0,26.48047 -21.46484,47.9414 -47.9414,47.9414 -3.96875,0 -7.81641,-0.48828 -11.50391,-1.39843 4.80859,3.4375 10.27344,6.00781 16.17187,7.48828 V 268.125 c 0,2.05859 1.66797,3.72656 3.72266,3.72656 h 15.91406 c 2.05469,0 3.72266,-1.66797 3.72266,-3.72656 v -10.39063 c 4.61719,-1.15625 8.96484,-2.97656 12.94141,-5.36328 l 7.35156,7.35157 c 1.45312,1.45312 3.80859,1.45312 5.26562,0 l 11.25,-11.25391 c 1.45313,-1.45313 1.45313,-3.8125 0,-5.26563 l -7.35156,-7.34765 c 2.38672,-3.97656 4.21094,-8.32813 5.36719,-12.94141 h 10.39062 c 2.05469,0 3.72266,-1.66797 3.72266,-3.72656 v -15.91016 c 0,-2.05859 -1.66797,-3.72656 -3.72266,-3.72656 z m 0,0"
       inkscape:connector-curvature="0"
       style="fill:#777784;stroke-width:1.47985959" />
    <path
       id="path14"
       d="M 443.23828,294.28516 H 422.45703 C 420.14844,285.05469 416.5,276.35547 411.73047,268.40625 l 14.69922,-14.70313 c 2.91015,-2.90625 2.91015,-7.62109 0,-10.53125 l -22.5,-22.5 c -2.91016,-2.91015 -7.625,-2.91015 -10.53516,0 l -14.69922,14.69922 c -7.95312,-4.76953 -16.64844,-8.41797 -25.88281,-10.72656 v -20.78516 c 0,-4.11328 -3.33203,-7.44531 -7.44531,-7.44531 h -31.82422 c -4.11328,0 -7.44531,3.33594 -7.44531,7.44531 v 20.78516 c -9.23047,2.30859 -17.92969,5.95703 -25.88282,10.72656 l -14.69922,-14.69922 c -2.91015,-2.91015 -7.625,-2.91015 -10.53125,0 l -22.5039,22.5 c -2.91016,2.91016 -2.91016,7.625 0,10.53125 l 14.69922,14.70313 c -4.76953,7.94922 -8.41407,16.64844 -10.72657,25.87891 h -20.78125 c -4.11328,0 -7.44921,3.33593 -7.44921,7.44922 v 31.82421 c 0,4.11329 3.33593,7.44532 7.44921,7.44532 h 20.78125 c 2.3125,9.23047 5.95704,17.92968 10.72657,25.88281 l -14.69922,14.69922 c -2.91016,2.91015 -2.91016,7.625 0,10.53125 l 22.5039,22.5039 c 2.90625,2.91016 7.6211,2.91016 10.53125,0 l 14.69922,-14.69921 c 7.95313,4.76953 16.65235,8.41796 25.88282,10.72656 v 20.78125 c 0,4.11328 3.33203,7.44922 7.44531,7.44922 h 31.82422 c 4.11328,0 7.44531,-3.33594 7.44531,-7.44922 v -20.78125 c 9.23437,-2.3086 17.92969,-5.95703 25.88281,-10.72656 l 14.69922,14.69921 c 2.91016,2.91016 7.625,2.91016 10.53516,0 l 22.5,-22.5039 c 2.91015,-2.90625 2.91015,-7.6211 0,-10.53125 l -14.69922,-14.69922 c 4.76953,-7.95313 8.41797,-16.65234 10.72656,-25.88281 h 20.78125 c 4.11328,0 7.44922,-3.33203 7.44922,-7.44532 v -31.82421 c 0,-4.11329 -3.33594,-7.44922 -7.44922,-7.44922 z M 329.45312,356 c -21.17968,0 -38.35156,-17.17188 -38.35156,-38.35156 0,-21.1836 17.17188,-38.35547 38.35156,-38.35547 21.1836,0 38.35547,17.17187 38.35547,38.35547 0,21.17968 -17.17187,38.35156 -38.35547,38.35156 z m 0,0"
       inkscape:connector-curvature="0"
       style="fill:#8f8f99;stroke-width:1.47985959" />
    <path
       id="path16"
       d="m 443.23828,294.28516 h -20.78516 c -2.3125,-9.22657 -5.95703,-17.92579 -10.72656,-25.875 l 14.70313,-14.70704 c 2.91015,-2.90625 2.91015,-7.62109 0,-10.53125 l -22.5,-22.5 c -2.91016,-2.91015 -7.625,-2.91015 -10.53516,0 l -14.71094,14.71094 c -8.05078,-4.82812 -16.86328,-8.51562 -26.22265,-10.82031 24.3164,17.39062 40.17968,45.84375 40.17968,78.01953 0,52.95313 -42.92578,95.88281 -95.88281,95.88281 -7.93359,0 -15.63281,-0.98047 -23.0039,-2.79687 9.60937,6.875 20.54296,12.01172 32.33984,14.97656 v 20.78906 c 0,4.11328 3.33594,7.44532 7.44531,7.44532 h 31.82422 c 4.11328,0 7.44922,-3.33594 7.44922,-7.44532 v -20.78515 c 9.23047,-2.3086 17.92969,-5.95703 25.87891,-10.72657 l 14.70312,14.69922 c 2.90625,2.91016 7.62109,2.91016 10.53125,0 l 22.50391,-22.5 c 2.90625,-2.91015 2.90625,-7.625 0,-10.53125 l -14.70313,-14.70312 c 4.76953,-7.94922 8.41797,-16.64844 10.72656,-25.87891 h 20.78516 c 4.11328,0 7.44531,-3.33594 7.44531,-7.44922 v -31.82422 c 0.004,-4.11328 -3.33203,-7.44921 -7.44531,-7.44921 z m 0,0"
       inkscape:connector-curvature="0"
       style="fill:#777784;stroke-width:1.47985959" />
  </g>
</svg>
