<?xml version="1.0" encoding="iso-8859-1"?>
<!-- Generator: Adobe Illustrator 19.0.0, SVG Export Plug-In . SVG Version: 6.00 Build 0)  -->
<svg version="1.1" id="Capa_1" xmlns="http://www.w3.org/2000/svg" xmlns:xlink="http://www.w3.org/1999/xlink" x="0px" y="0px"
	 viewBox="0 0 512 512" style="enable-background:new 0 0 512 512;" xml:space="preserve">
<path style="fill:#E6E9ED;" d="M494.207,95.356c-1.448-1.438-3.444-2.264-5.482-2.264h-372.35c-0.072,0-0.134,0-0.207,0H23.275
	c-2.038,0-4.044,0.827-5.482,2.264c-1.448,1.448-2.276,3.455-2.276,5.493v124.11v13.629v79.471c0,2.038,0.827,4.044,2.276,5.482
	c1.438,1.448,3.444,2.276,5.482,2.276h465.451c2.038,0,4.033-0.827,5.482-2.276c1.448-1.448,2.276-3.444,2.276-5.482V100.85
	C496.483,98.801,495.655,96.805,494.207,95.356z"/>
<g>
	<path style="fill:#CCD1D9;" d="M54.307,181.01h31.03c4.285,0,7.758-3.472,7.758-7.758v-31.03c0-4.285-3.472-7.758-7.758-7.758
		h-31.03c-4.285,0-7.758,3.472-7.758,7.758v31.03C46.549,177.537,50.021,181.01,54.307,181.01z"/>
	<path style="fill:#CCD1D9;" d="M147.397,134.465h-31.03c-4.285,0-7.758,3.472-7.758,7.758v31.03c0,4.285,3.472,7.758,7.758,7.758
		h31.03c4.285,0,7.758-3.472,7.758-7.758v-31.03C155.154,137.937,151.681,134.465,147.397,134.465z"/>
	<path style="fill:#CCD1D9;" d="M178.427,181.01h31.03c4.285,0,7.758-3.472,7.758-7.758v-31.03c0-4.285-3.472-7.758-7.758-7.758
		h-31.03c-4.285,0-7.758,3.472-7.758,7.758v31.03C170.669,177.537,174.142,181.01,178.427,181.01z"/>
	<path style="fill:#CCD1D9;" d="M240.487,181.01h31.03c4.285,0,7.758-3.472,7.758-7.758v-31.03c0-4.285-3.472-7.758-7.758-7.758
		h-31.03c-4.285,0-7.758,3.472-7.758,7.758v31.03C232.73,177.537,236.202,181.01,240.487,181.01z"/>
	<path style="fill:#CCD1D9;" d="M333.577,134.465h-31.03c-4.285,0-7.758,3.472-7.758,7.758v31.03c0,4.285,3.472,7.758,7.758,7.758
		h31.03c4.285,0,7.758-3.472,7.758-7.758v-31.03C341.335,137.937,337.862,134.465,333.577,134.465z"/>
	<path style="fill:#CCD1D9;" d="M395.637,134.465h-31.03c-4.285,0-7.758,3.472-7.758,7.758v31.03c0,4.285,3.472,7.758,7.758,7.758
		h31.03c4.285,0,7.758-3.472,7.758-7.758v-31.03C403.395,137.937,399.923,134.465,395.637,134.465z"/>
	<path style="fill:#CCD1D9;" d="M457.697,134.465h-31.03c-4.285,0-7.758,3.472-7.758,7.758v31.03c0,4.285,3.472,7.758,7.758,7.758
		h31.03c4.285,0,7.758-3.472,7.758-7.758v-31.03C465.455,137.937,461.983,134.465,457.697,134.465z"/>
	<path style="fill:#CCD1D9;" d="M147.397,196.525h-93.09c-4.285,0-7.758,3.472-7.758,7.758v31.03c0,4.285,3.472,7.758,7.758,7.758
		h93.09c4.285,0,7.758-3.472,7.758-7.758v-31.03C155.154,199.997,151.681,196.525,147.397,196.525z"/>
	<path style="fill:#CCD1D9;" d="M178.427,243.07h31.03c4.285,0,7.758-3.472,7.758-7.758v-31.03c0-4.285-3.472-7.758-7.758-7.758
		h-31.03c-4.285,0-7.758,3.472-7.758,7.758v31.03C170.669,239.598,174.142,243.07,178.427,243.07z"/>
	<path style="fill:#CCD1D9;" d="M240.487,243.07h31.03c4.285,0,7.758-3.472,7.758-7.758v-31.03c0-4.285-3.472-7.758-7.758-7.758
		h-31.03c-4.285,0-7.758,3.472-7.758,7.758v31.03C232.73,239.598,236.202,243.07,240.487,243.07z"/>
	<path style="fill:#CCD1D9;" d="M333.577,196.525h-31.03c-4.285,0-7.758,3.472-7.758,7.758v31.03c0,4.285,3.472,7.758,7.758,7.758
		h31.03c4.285,0,7.758-3.472,7.758-7.758v-31.03C341.335,199.997,337.862,196.525,333.577,196.525z"/>
	<path style="fill:#CCD1D9;" d="M395.637,196.525h-31.03c-4.285,0-7.758,3.472-7.758,7.758v31.03c0,4.285,3.472,7.758,7.758,7.758
		h31.03c4.285,0,7.758-3.472,7.758-7.758v-31.03C403.395,199.997,399.923,196.525,395.637,196.525z"/>
	<path style="fill:#CCD1D9;" d="M457.697,196.525h-31.03c-4.285,0-7.758,3.472-7.758,7.758v93.09c0,4.285,3.472,7.758,7.758,7.758
		h31.03c4.285,0,7.758-3.472,7.758-7.758v-93.09C465.455,199.997,461.983,196.525,457.697,196.525z"/>
	<path style="fill:#CCD1D9;" d="M85.337,258.585h-31.03c-4.285,0-7.758,3.472-7.758,7.758v31.03c0,4.285,3.472,7.758,7.758,7.758
		h31.03c4.285,0,7.758-3.472,7.758-7.758v-31.03C93.094,262.057,89.621,258.585,85.337,258.585z"/>
	<path style="fill:#CCD1D9;" d="M147.397,258.585h-31.03c-4.285,0-7.758,3.472-7.758,7.758v31.03c0,4.285,3.472,7.758,7.758,7.758
		h31.03c4.285,0,7.758-3.472,7.758-7.758v-31.03C155.154,262.057,151.681,258.585,147.397,258.585z"/>
	<path style="fill:#CCD1D9;" d="M333.577,258.585h-155.15c-4.285,0-7.758,3.472-7.758,7.758v31.03c0,4.285,3.472,7.758,7.758,7.758
		h155.15c4.285,0,7.758-3.472,7.758-7.758v-31.03C341.335,262.057,337.862,258.585,333.577,258.585z"/>
	<path style="fill:#CCD1D9;" d="M395.637,258.585h-31.03c-4.285,0-7.758,3.472-7.758,7.758v31.03c0,4.285,3.472,7.758,7.758,7.758
		h31.03c4.285,0,7.758-3.472,7.758-7.758v-31.03C403.395,262.057,399.923,258.585,395.637,258.585z"/>
</g>
<g>
	<path style="fill:#FFFFFF;" d="M85.337,170.665h-31.03c-4.285,0-7.758-3.472-7.758-7.758v-31.03c0-4.285,3.472-7.758,7.758-7.758
		h31.03c4.285,0,7.758,3.472,7.758,7.758v31.03C93.094,167.193,89.621,170.665,85.337,170.665z"/>
	<path style="fill:#FFFFFF;" d="M147.397,170.665h-31.03c-4.285,0-7.758-3.472-7.758-7.758v-31.03c0-4.285,3.472-7.758,7.758-7.758
		h31.03c4.285,0,7.758,3.472,7.758,7.758v31.03C155.154,167.193,151.681,170.665,147.397,170.665z"/>
	<path style="fill:#FFFFFF;" d="M209.457,170.665h-31.03c-4.285,0-7.758-3.472-7.758-7.758v-31.03c0-4.285,3.472-7.758,7.758-7.758
		h31.03c4.285,0,7.758,3.472,7.758,7.758v31.03C217.214,167.193,213.741,170.665,209.457,170.665z"/>
	<path style="fill:#FFFFFF;" d="M271.517,170.665h-31.03c-4.285,0-7.758-3.472-7.758-7.758v-31.03c0-4.285,3.472-7.758,7.758-7.758
		h31.03c4.285,0,7.758,3.472,7.758,7.758v31.03C279.275,167.193,275.802,170.665,271.517,170.665z"/>
	<path style="fill:#FFFFFF;" d="M333.577,170.665h-31.03c-4.285,0-7.758-3.472-7.758-7.758v-31.03c0-4.285,3.472-7.758,7.758-7.758
		h31.03c4.285,0,7.758,3.472,7.758,7.758v31.03C341.335,167.193,337.862,170.665,333.577,170.665z"/>
	<path style="fill:#FFFFFF;" d="M395.637,170.665h-31.03c-4.285,0-7.758-3.472-7.758-7.758v-31.03c0-4.285,3.472-7.758,7.758-7.758
		h31.03c4.285,0,7.758,3.472,7.758,7.758v31.03C403.395,167.193,399.923,170.665,395.637,170.665z"/>
	<path style="fill:#FFFFFF;" d="M457.697,170.665h-31.03c-4.285,0-7.758-3.472-7.758-7.758v-31.03c0-4.285,3.472-7.758,7.758-7.758
		h31.03c4.285,0,7.758,3.472,7.758,7.758v31.03C465.455,167.193,461.983,170.665,457.697,170.665z"/>
	<path style="fill:#FFFFFF;" d="M147.397,232.725h-93.09c-4.285,0-7.758-3.472-7.758-7.758v-31.03c0-4.285,3.472-7.758,7.758-7.758
		h93.09c4.285,0,7.758,3.472,7.758,7.758v31.03C155.154,229.253,151.681,232.725,147.397,232.725z"/>
	<path style="fill:#FFFFFF;" d="M209.457,232.725h-31.03c-4.285,0-7.758-3.472-7.758-7.758v-31.03c0-4.285,3.472-7.758,7.758-7.758
		h31.03c4.285,0,7.758,3.472,7.758,7.758v31.03C217.214,229.253,213.741,232.725,209.457,232.725z"/>
	<path style="fill:#FFFFFF;" d="M271.517,232.725h-31.03c-4.285,0-7.758-3.472-7.758-7.758v-31.03c0-4.285,3.472-7.758,7.758-7.758
		h31.03c4.285,0,7.758,3.472,7.758,7.758v31.03C279.275,229.253,275.802,232.725,271.517,232.725z"/>
	<path style="fill:#FFFFFF;" d="M333.577,232.725h-31.03c-4.285,0-7.758-3.472-7.758-7.758v-31.03c0-4.285,3.472-7.758,7.758-7.758
		h31.03c4.285,0,7.758,3.472,7.758,7.758v31.03C341.335,229.253,337.862,232.725,333.577,232.725z"/>
	<path style="fill:#FFFFFF;" d="M395.637,232.725h-31.03c-4.285,0-7.758-3.472-7.758-7.758v-31.03c0-4.285,3.472-7.758,7.758-7.758
		h31.03c4.285,0,7.758,3.472,7.758,7.758v31.03C403.395,229.253,399.923,232.725,395.637,232.725z"/>
	<path style="fill:#FFFFFF;" d="M457.697,294.786h-31.03c-4.285,0-7.758-3.472-7.758-7.758v-93.09c0-4.285,3.472-7.758,7.758-7.758
		h31.03c4.285,0,7.758,3.472,7.758,7.758v93.09C465.455,291.313,461.983,294.786,457.697,294.786z"/>
	<path style="fill:#FFFFFF;" d="M85.337,294.786h-31.03c-4.285,0-7.758-3.472-7.758-7.758v-31.03c0-4.285,3.472-7.758,7.758-7.758
		h31.03c4.285,0,7.758,3.472,7.758,7.758v31.03C93.094,291.313,89.621,294.786,85.337,294.786z"/>
	<path style="fill:#FFFFFF;" d="M147.397,294.786h-31.03c-4.285,0-7.758-3.472-7.758-7.758v-31.03c0-4.285,3.472-7.758,7.758-7.758
		h31.03c4.285,0,7.758,3.472,7.758,7.758v31.03C155.154,291.313,151.681,294.786,147.397,294.786z"/>
	<path style="fill:#FFFFFF;" d="M333.577,294.786h-155.15c-4.285,0-7.758-3.472-7.758-7.758v-31.03c0-4.285,3.472-7.758,7.758-7.758
		h155.15c4.285,0,7.758,3.472,7.758,7.758v31.03C341.335,291.313,337.862,294.786,333.577,294.786z"/>
	<path style="fill:#FFFFFF;" d="M395.637,294.786h-31.03c-4.285,0-7.758-3.472-7.758-7.758v-31.03c0-4.285,3.472-7.758,7.758-7.758
		h31.03c4.285,0,7.758,3.472,7.758,7.758v31.03C403.395,291.313,399.923,294.786,395.637,294.786z"/>
</g>
<path style="fill:#E6E9ED;" d="M256,512c-33.08,0-65.278-7.765-93.113-22.455c-27.28-14.398-49.252-34.774-63.542-58.927
	c-1.442-2.436-1.442-5.464,0-7.901c14.289-24.153,36.263-44.529,63.542-58.927c27.835-14.691,60.033-22.455,93.113-22.455
	c33.079,0,65.277,7.765,93.112,22.455c27.281,14.398,49.253,34.774,63.543,58.927c1.441,2.436,1.441,5.464,0,7.901
	c-14.289,24.153-36.263,44.529-63.543,58.927C321.277,504.235,289.079,512,256,512z"/>
<path style="fill:#5D9CEC;" d="M256,512c-47.052,0-85.333-38.281-85.333-85.333s38.281-85.333,85.333-85.333
	s85.333,38.281,85.333,85.333S303.052,512,256,512z"/>
<path style="fill:#4A89DC;" d="M256,341.335c-5.3,0-10.481,0.51-15.517,1.44c39.667,7.321,69.817,42.142,69.817,83.893
	s-30.15,76.572-69.817,83.893C245.519,511.489,250.7,512,256,512c47.052,0,85.333-38.281,85.333-85.333S303.052,341.335,256,341.335
	z"/>
<path style="fill:#656D78;" d="M395.676,0.002c-0.014,0-0.026-0.002-0.04-0.002H121.52c-4.285,0-7.758,3.473-7.758,7.758
	c0,4.285,3.472,7.758,7.758,7.758h274.095c0.007,0,0.013,0.001,0.021,0.001c7.13,0,12.929,5.8,12.929,12.929
	s-5.799,12.929-12.929,12.929H276.687c-15.684,0-28.444,12.761-28.444,28.444v23.274h15.515V69.819c0-7.13,5.8-12.929,12.929-12.929
	h118.949c15.684,0,28.444-12.761,28.444-28.444C424.079,12.776,411.341,0.024,395.676,0.002z"/>
<g>
</g>
<g>
</g>
<g>
</g>
<g>
</g>
<g>
</g>
<g>
</g>
<g>
</g>
<g>
</g>
<g>
</g>
<g>
</g>
<g>
</g>
<g>
</g>
<g>
</g>
<g>
</g>
<g>
</g>
</svg>
