<?xml version="1.0" encoding="UTF-8" standalone="no"?>
<svg
   xmlns:dc="http://purl.org/dc/elements/1.1/"
   xmlns:cc="http://creativecommons.org/ns#"
   xmlns:rdf="http://www.w3.org/1999/02/22-rdf-syntax-ns#"
   xmlns:svg="http://www.w3.org/2000/svg"
   xmlns="http://www.w3.org/2000/svg"
   xmlns:sodipodi="http://sodipodi.sourceforge.net/DTD/sodipodi-0.dtd"
   xmlns:inkscape="http://www.inkscape.org/namespaces/inkscape"
   id="Capa_1"
   enable-background="new 0 0 497 497"
   height="512"
   viewBox="0 0 497 497"
   width="512"
   version="1.1"
   sodipodi:docname="Manual.svg"
   inkscape:version="0.92.2 (5c3e80d, 2017-08-06)">
  <metadata
     id="metadata23">
    <rdf:RDF>
      <cc:Work
         rdf:about="">
        <dc:format>image/svg+xml</dc:format>
        <dc:type
           rdf:resource="http://purl.org/dc/dcmitype/StillImage" />
      </cc:Work>
    </rdf:RDF>
  </metadata>
  <defs
     id="defs21" />
  <sodipodi:namedview
     pagecolor="#ffffff"
     bordercolor="#666666"
     borderopacity="1"
     objecttolerance="10"
     gridtolerance="10"
     guidetolerance="10"
     inkscape:pageopacity="0"
     inkscape:pageshadow="2"
     inkscape:window-width="1920"
     inkscape:window-height="1028"
     id="namedview19"
     showgrid="false"
     inkscape:zoom="0.4609375"
     inkscape:cx="-64"
     inkscape:cy="256"
     inkscape:window-x="-8"
     inkscape:window-y="-8"
     inkscape:window-maximized="1"
     inkscape:current-layer="Capa_1" />
  <path
     style="fill:#268fde;fill-opacity:1"
     inkscape:connector-curvature="0"
     id="path2"
     d="m 248.5,0 v 497 c 5.003,0 9.421,-2.458 12.146,-6.223 L 400.551,297.215 C 422.849,266.368 436,228.472 436,187.5 436,83.947 352.053,0 248.5,0 Z" />
  <path
     style="fill:#2390dc;fill-opacity:1"
     inkscape:connector-curvature="0"
     id="path4"
     d="M 248.5,0 C 144.947,0 61,83.947 61,187.5 c 0,40.972 13.151,78.868 35.449,109.716 l 139.905,193.562 c 2.725,3.764 7.144,6.223 12.146,6.223 4.202,0 7.914,-2.458 10.203,-6.223 L 376.223,297.216 C 394.953,266.368 406,228.472 406,187.5 406,83.947 335.485,0 248.5,0 Z" />
  <path
     style="fill:#ffffff;fill-opacity:0.94117647"
     inkscape:connector-curvature="0"
     id="path6"
     d="M 248.5,75 V 300 C 310.632,300 361,249.632 361,187.5 361,125.368 310.632,75 248.5,75 Z" />
  <path
     style="fill:#ffffff"
     inkscape:connector-curvature="0"
     id="path8"
     d="M 248.5,75 C 186.368,75 136,125.368 136,187.5 136,249.632 186.368,300 248.5,300 294.063,300 331,249.632 331,187.5 331,125.368 294.063,75 248.5,75 Z" />
  <g
     style="fill:#ff5777;fill-opacity:1"
     id="g14">
    <circle
       id="circle10"
       r="15"
       cy="120"
       cx="248.5"
       style="fill:#ff5777;fill-opacity:1" />
    <path
       inkscape:connector-curvature="0"
       id="path12"
       d="m 248.5,165 c -8.284,0 -15,6.716 -15,15 v 75 c 0,8.284 6.716,15 15,15 8.284,0 15,-6.716 15,-15 v -75 c 0,-8.284 -6.716,-15 -15,-15 z"
       style="fill:#ff5777;fill-opacity:1" />
  </g>
</svg>
