<svg id="Capa_1" enable-background="new 0 0 512 512" height="512" viewBox="0 0 512 512" width="512" xmlns="http://www.w3.org/2000/svg"><path d="m241 0h-120.5l-60 37.5 60 37.5h45.5v91h-45.5l-60 37.5 60 37.5h120.5z" fill="#61ce5a"/><path d="m75 166v-91h45.5v-75h-120.5v241h120.5v-75z" fill="#94e368"/><path d="m512 0h-120.5l-60 37.5 60 37.5h45.5v91h-45.5l-60 37.5 60 37.5h120.5z" fill="#6241ea"/><path d="m346 166v-91h45.5v-75h-120.5v241h120.5v-75z" fill="#725fee"/><path d="m241 271h-120.5l-60 37.5 60 37.5h45.5v91h-45.5l-60 37.5 60 37.5h120.5z" fill="#6241ea"/><path d="m75 437v-91h45.5v-75h-120.5v241h120.5v-75z" fill="#725fee"/><path d="m512 271h-120.5l-60 37.5 60 37.5h45.5v91h-45.5l-60 37.5 60 37.5h120.5z" fill="#61ce5a"/><path d="m346 437v-91h45.5v-75h-120.5v241h120.5v-75z" fill="#94e368"/></svg>