<?xml version="1.0" encoding="UTF-8" standalone="no"?>
<!-- Generator: Adobe Illustrator 19.0.0, SVG Export Plug-In . SVG Version: 6.00 Build 0)  -->

<svg
   xmlns:dc="http://purl.org/dc/elements/1.1/"
   xmlns:cc="http://creativecommons.org/ns#"
   xmlns:rdf="http://www.w3.org/1999/02/22-rdf-syntax-ns#"
   xmlns:svg="http://www.w3.org/2000/svg"
   xmlns="http://www.w3.org/2000/svg"
   xmlns:sodipodi="http://sodipodi.sourceforge.net/DTD/sodipodi-0.dtd"
   xmlns:inkscape="http://www.inkscape.org/namespaces/inkscape"
   version="1.1"
   id="Layer_1"
   x="0px"
   y="0px"
   viewBox="0 0 512.032 512.032"
   style="enable-background:new 0 0 512.032 512.032;"
   xml:space="preserve"
   sodipodi:docname="Report1.svg"
   inkscape:version="0.92.2 (5c3e80d, 2017-08-06)"><metadata
     id="metadata129"><rdf:RDF><cc:Work
         rdf:about=""><dc:format>image/svg+xml</dc:format><dc:type
           rdf:resource="http://purl.org/dc/dcmitype/StillImage" /><dc:title></dc:title></cc:Work></rdf:RDF></metadata><defs
     id="defs127" /><sodipodi:namedview
     pagecolor="#ffffff"
     bordercolor="#666666"
     borderopacity="1"
     objecttolerance="10"
     gridtolerance="10"
     guidetolerance="10"
     inkscape:pageopacity="0"
     inkscape:pageshadow="2"
     inkscape:window-width="1920"
     inkscape:window-height="1028"
     id="namedview125"
     showgrid="false"
     inkscape:zoom="0.46090871"
     inkscape:cx="-46.646981"
     inkscape:cy="256.01599"
     inkscape:window-x="-8"
     inkscape:window-y="-8"
     inkscape:window-maximized="1"
     inkscape:current-layer="Layer_1" /><g
     id="g4671"
     transform="matrix(0.78389831,0,0,0.78389831,55.325481,55.325485)"
     style="stroke-width:1.27567565"><polygon
       id="polygon2"
       points="66.016,510 66.016,2 446.016,2 446.016,452.496 388.52,510 "
       style="fill:#ffffff;stroke-width:1.62734842" /><path
       id="path4"
       d="M 444.016,4 V 451.672 L 387.696,508 H 68.016 V 4 h 376 m 4,-4 h -384 v 512 h 325.336 l 58.664,-58.672 z"
       style="fill:#aac1ce;stroke-width:1.62734842"
       inkscape:connector-curvature="0" /><g
       id="g12"
       style="stroke-width:1.27567565"><polygon
         id="polygon6"
         points="389.352,512 389.352,453.328 448.016,453.328 "
         style="fill:#cfd7e1;stroke-width:1.27567565" /><rect
         id="rect8"
         height="1.952"
         width="58.664001"
         style="fill:#cfd7e1;stroke-width:1.27567565"
         y="451.35999"
         x="389.35199" /><rect
         id="rect10"
         height="60.624001"
         width="1.952"
         style="fill:#cfd7e1;stroke-width:1.27567565"
         y="451.40799"
         x="387.40799" /></g><path
       id="path14"
       d="m 165.256,378.776 c -25.304,0 -45.824,20.512 -45.824,45.824 0,25.304 20.512,45.824 45.824,45.824 25.296,0 45.8,-20.496 45.816,-45.784 h -45.816 z"
       style="fill:#32bea6;stroke-width:1.62734842"
       inkscape:connector-curvature="0" /><g
       id="g20"
       style="stroke-width:1.27567565"><path
         id="path16"
         d="m 197.672,392.216 -32.416,32.416 h 45.816 c 0,-0.008 0,-0.024 0,-0.032 0.008,-12.648 -5.12,-24.096 -13.4,-32.384 z"
         style="fill:#cfdce5;stroke-width:1.27567565"
         inkscape:connector-curvature="0" /><path
         id="path18"
         d="m 165.256,378.776 v 45.856 l 32.416,-32.416 c -8.296,-8.304 -19.752,-13.44 -32.416,-13.44 z"
         style="fill:#cfdce5;stroke-width:1.27567565"
         inkscape:connector-curvature="0" /></g><path
       id="path22"
       d="m 197.672,456.944 -32.416,-32.416 h 45.816 c 0,0.008 0,0.024 0,0.032 0.008,12.648 -5.12,24.096 -13.4,32.384 z"
       style="fill:#aac1ce;stroke-width:1.62734842"
       inkscape:connector-curvature="0" /><path
       id="path24"
       d="m 165.256,470.384 v -45.856 l 32.416,32.416 c -8.296,8.304 -19.752,13.44 -32.416,13.44 z"
       style="fill:#8ba0ae;stroke-width:1.62734842"
       inkscape:connector-curvature="0" /><g
       id="g32"
       style="stroke-width:1.27567565"><rect
         id="rect26"
         height="4"
         width="155.472"
         style="fill:#aac1ce;stroke-width:1.27567565"
         y="402.79999"
         x="237.12801" /><rect
         id="rect28"
         height="4"
         width="155.472"
         style="fill:#aac1ce;stroke-width:1.27567565"
         y="422.52802"
         x="237.12801" /><rect
         id="rect30"
         height="4"
         width="62.984001"
         style="fill:#aac1ce;stroke-width:1.27567565"
         y="442.23999"
         x="237.12801" /></g><path
       id="path34"
       d="m 165.256,261.752 c -25.304,0 -45.824,20.512 -45.824,45.824 0,25.304 20.512,45.824 45.824,45.824 25.296,0 45.8,-20.496 45.816,-45.784 h -45.816 z"
       style="fill:#ffd07d;stroke-width:1.62734842"
       inkscape:connector-curvature="0" /><g
       id="g40"
       style="stroke-width:1.27567565"><path
         id="path36"
         d="m 197.672,275.192 -32.416,32.416 h 45.816 c 0,-0.008 0,-0.024 0,-0.032 0.008,-12.648 -5.12,-24.096 -13.4,-32.384 z"
         style="fill:#cfdce5;stroke-width:1.27567565"
         inkscape:connector-curvature="0" /><path
         id="path38"
         d="m 165.256,261.752 v 45.856 l 32.416,-32.416 c -8.296,-8.304 -19.752,-13.44 -32.416,-13.44 z"
         style="fill:#cfdce5;stroke-width:1.27567565"
         inkscape:connector-curvature="0" /></g><path
       id="path42"
       d="m 197.672,339.928 -32.416,-32.416 h 45.816 c 0,0.008 0,0.024 0,0.032 0.008,12.64 -5.12,24.088 -13.4,32.384 z"
       style="fill:#aac1ce;stroke-width:1.62734842"
       inkscape:connector-curvature="0" /><path
       id="path44"
       d="m 165.256,353.36 v -45.856 l 32.416,32.416 c -8.296,8.304 -19.752,13.44 -32.416,13.44 z"
       style="fill:#8ba0ae;stroke-width:1.62734842"
       inkscape:connector-curvature="0" /><g
       id="g52"
       style="stroke-width:1.27567565"><rect
         id="rect46"
         height="4"
         width="155.472"
         style="fill:#aac1ce;stroke-width:1.27567565"
         y="285.90399"
         x="237.12801" /><rect
         id="rect48"
         height="4"
         width="155.472"
         style="fill:#aac1ce;stroke-width:1.27567565"
         y="305.60001"
         x="237.12801" /><rect
         id="rect50"
         height="4"
         width="62.984001"
         style="fill:#aac1ce;stroke-width:1.27567565"
         y="325.31201"
         x="237.12801" /></g><path
       id="path54"
       d="m 165.256,144.736 c -25.304,0 -45.824,20.512 -45.824,45.824 0,25.304 20.512,45.824 45.824,45.824 25.296,0 45.8,-20.496 45.816,-45.784 h -45.816 z"
       style="fill:#e04f5f;stroke-width:1.62734842"
       inkscape:connector-curvature="0" /><g
       id="g60"
       style="stroke-width:1.27567565"><path
         id="path56"
         d="m 197.672,158.168 -32.416,32.416 h 45.816 c 0,-0.008 0,-0.024 0,-0.032 0.008,-12.64 -5.12,-24.088 -13.4,-32.384 z"
         style="fill:#cfdce5;stroke-width:1.27567565"
         inkscape:connector-curvature="0" /><path
         id="path58"
         d="m 165.256,144.736 v 45.856 l 32.416,-32.416 c -8.296,-8.304 -19.752,-13.44 -32.416,-13.44 z"
         style="fill:#cfdce5;stroke-width:1.27567565"
         inkscape:connector-curvature="0" /></g><path
       id="path62"
       d="m 197.672,222.904 -32.416,-32.416 h 45.816 c 0,0.008 0,0.024 0,0.032 0.008,12.648 -5.12,24.096 -13.4,32.384 z"
       style="fill:#aac1ce;stroke-width:1.62734842"
       inkscape:connector-curvature="0" /><path
       id="path64"
       d="M 165.256,236.336 V 190.48 l 32.416,32.416 c -8.296,8.312 -19.752,13.44 -32.416,13.44 z"
       style="fill:#8ba0ae;stroke-width:1.62734842"
       inkscape:connector-curvature="0" /><g
       id="g72"
       style="stroke-width:1.27567565"><rect
         id="rect66"
         height="4"
         width="155.472"
         style="fill:#aac1ce;stroke-width:1.27567565"
         y="168.8"
         x="237.12801" /><rect
         id="rect68"
         height="4"
         width="155.472"
         style="fill:#aac1ce;stroke-width:1.27567565"
         y="188.48801"
         x="237.12801" /><rect
         id="rect70"
         height="4"
         width="62.984001"
         style="fill:#aac1ce;stroke-width:1.27567565"
         y="208.16"
         x="237.12801" /></g><path
       id="path74"
       d="m 165.256,27.712 c -25.304,0 -45.824,20.512 -45.824,45.824 0,25.304 20.512,45.824 45.824,45.824 25.296,0 45.8,-20.496 45.816,-45.784 h -45.816 z"
       style="fill:#25b6d2;stroke-width:1.62734842"
       inkscape:connector-curvature="0" /><g
       id="g80"
       style="stroke-width:1.27567565"><path
         id="path76"
         d="m 197.672,41.152 -32.416,32.416 h 45.816 c 0,-0.008 0,-0.024 0,-0.032 0.008,-12.648 -5.12,-24.096 -13.4,-32.384 z"
         style="fill:#cfdce5;stroke-width:1.27567565"
         inkscape:connector-curvature="0" /><path
         id="path78"
         d="M 165.256,27.712 V 73.568 L 197.672,41.152 C 189.376,32.848 177.92,27.712 165.256,27.712 Z"
         style="fill:#cfdce5;stroke-width:1.27567565"
         inkscape:connector-curvature="0" /></g><path
       id="path82"
       d="M 197.672,105.88 165.256,73.464 h 45.816 c 0,0.008 0,0.024 0,0.032 0.008,12.648 -5.12,24.096 -13.4,32.384 z"
       style="fill:#aac1ce;stroke-width:1.62734842"
       inkscape:connector-curvature="0" /><path
       id="path84"
       d="M 165.256,119.32 V 73.464 l 32.416,32.416 c -8.296,8.304 -19.752,13.44 -32.416,13.44 z"
       style="fill:#8ba0ae;stroke-width:1.62734842"
       inkscape:connector-curvature="0" /><g
       id="g92"
       style="stroke-width:1.27567565"><rect
         id="rect86"
         height="4"
         width="155.472"
         style="fill:#aac1ce;stroke-width:1.27567565"
         y="51.863998"
         x="237.12801" /><rect
         id="rect88"
         height="4"
         width="155.472"
         style="fill:#aac1ce;stroke-width:1.27567565"
         y="71.559998"
         x="237.12801" /><rect
         id="rect90"
         height="4"
         width="62.984001"
         style="fill:#aac1ce;stroke-width:1.27567565"
         y="91.264"
         x="237.12801" /></g></g><g
     id="g94" /><g
     id="g96" /><g
     id="g98" /><g
     id="g100" /><g
     id="g102" /><g
     id="g104" /><g
     id="g106" /><g
     id="g108" /><g
     id="g110" /><g
     id="g112" /><g
     id="g114" /><g
     id="g116" /><g
     id="g118" /><g
     id="g120" /><g
     id="g122" /></svg>