<?xml version="1.0" encoding="UTF-8" standalone="no"?>
<svg
   xmlns:dc="http://purl.org/dc/elements/1.1/"
   xmlns:cc="http://creativecommons.org/ns#"
   xmlns:rdf="http://www.w3.org/1999/02/22-rdf-syntax-ns#"
   xmlns:svg="http://www.w3.org/2000/svg"
   xmlns="http://www.w3.org/2000/svg"
   xmlns:sodipodi="http://sodipodi.sourceforge.net/DTD/sodipodi-0.dtd"
   xmlns:inkscape="http://www.inkscape.org/namespaces/inkscape"
   id="Layer_1"
   enable-background="new 0 0 512 512"
   height="512"
   viewBox="0 0 512 512"
   width="512"
   version="1.1"
   sodipodi:docname="SimulationHighlight.svg"
   inkscape:version="0.92.2 (5c3e80d, 2017-08-06)">
  <metadata
     id="metadata23">
    <rdf:RDF>
      <cc:Work
         rdf:about="">
        <dc:format>image/svg+xml</dc:format>
        <dc:type
           rdf:resource="http://purl.org/dc/dcmitype/StillImage" />
        <dc:title />
      </cc:Work>
    </rdf:RDF>
  </metadata>
  <defs
     id="defs21" />
  <sodipodi:namedview
     pagecolor="#ffffff"
     bordercolor="#666666"
     borderopacity="1"
     objecttolerance="10"
     gridtolerance="10"
     guidetolerance="10"
     inkscape:pageopacity="0"
     inkscape:pageshadow="2"
     inkscape:window-width="1920"
     inkscape:window-height="1028"
     id="namedview19"
     showgrid="false"
     inkscape:zoom="0.921875"
     inkscape:cx="-211.19035"
     inkscape:cy="96.861969"
     inkscape:window-x="-8"
     inkscape:window-y="-8"
     inkscape:window-maximized="1"
     inkscape:current-layer="Layer_1" />
  <path
     style="fill:#007399;stroke-width:1.1313709;fill-opacity:1"
     inkscape:connector-curvature="0"
     d="m 256,456 c -19.38516,0 -35.15625,-15.77109 -35.15625,-35.15625 v -10.17969 c -17.41563,-3.9625 -34.18438,-10.91328 -49.3375,-20.45234 l -7.20938,7.20937 c -6.62187,6.62188 -15.44921,10.26875 -24.85859,10.26875 -9.40859,0 -18.2375,-3.64609 -24.85859,-10.26875 -13.70781,-13.70781 -13.70781,-36.01171 -7.8e-4,-49.71875 l 7.20625,-7.20625 c -9.54141,-15.15 -16.49532,-31.92265 -20.45782,-49.33984 H 91.15625 C 71.771094,291.15625 56,275.38516 56,256 56,236.61484 71.771094,220.84375 91.15625,220.84375 h 10.17266 c 3.96328,-17.41563 10.91796,-34.18906 20.45547,-49.34063 l -7.20625,-7.20625 c -13.70704,-13.70703 -13.70704,-36.01093 0,-49.71796 6.62187,-6.62188 15.45078,-10.26875 24.85859,-10.26875 h 7.8e-4 c 9.40859,0 18.2375,3.64687 24.85859,10.26875 l 7.20625,7.20625 C 186.64766,112.25 203.42031,105.3 220.84375,101.33594 V 91.15625 C 220.84375,71.771094 236.61484,56 256,56 c 19.38516,0 35.15625,15.771094 35.15625,35.15625 v 10.17891 c 17.41641,3.9625 34.1875,10.91484 49.33672,20.45234 l 7.21015,-7.20937 c 6.62188,-6.62188 15.45,-10.26875 24.8586,-10.26875 9.40859,0 18.2375,3.64687 24.85859,10.26875 13.70781,13.70703 13.70781,36.01093 7.8e-4,49.71874 l -7.20625,7.20625 c 9.54141,15.15313 16.49454,31.92344 20.45782,49.34063 h 10.17109 C 440.22891,220.84375 456,236.61484 456,256 c 0,19.38516 -15.77109,35.15625 -35.15625,35.15625 h -10.17188 c -3.96328,17.41953 -10.91718,34.18984 -20.45703,49.34141 l 7.20625,7.20625 c 13.70703,13.70703 13.70703,36.01093 0,49.71796 -13.70859,13.70704 -36.01172,13.70704 -49.71875,0 l -7.20703,-7.20625 c -15.14453,9.5336 -31.91719,16.48438 -49.33906,20.44844 v 10.17969 C 291.15625,440.22891 275.38516,456 256,456 Z"
     id="path2" />
  <path
     style="fill:#e9d9d0;stroke-width:1.1313709;fill-opacity:1"
     inkscape:connector-curvature="0"
     d="m 256,362.69062 c -27.84844,0 -54.50625,-11.7289 -75.06094,-33.02578 -19.62812,-20.33672 -30.88515,-46.91484 -30.88515,-72.92031 0,-45.77266 24.47578,-81.90078 65.95937,-98.19687 V 72.407031 c 0,-6.471875 5.24688,-11.71875 11.71875,-11.71875 h 56.53672 c 6.47188,0 11.71875,5.246875 11.71875,11.71875 v 86.139839 c 41.48359,16.29688 65.95938,52.425 65.95938,98.19688 0,26.00547 -11.25704,52.58359 -30.88516,72.92031 C 310.50625,350.96172 283.84844,362.69062 256,362.69062 Z"
     id="path6" />
  <path
     style="fill:#f0e4db;fill-opacity:1;stroke-width:1.1313709"
     inkscape:connector-curvature="0"
     d="m 296.625,77.438281 h -81.25 c -6.47187,0 -11.71875,-5.246875 -11.71875,-11.71875 0,-6.471875 5.24688,-11.71875 11.71875,-11.71875 h 81.25 c 6.47187,0 11.71875,5.246875 11.71875,11.71875 0,6.471875 -5.24688,11.71875 -11.71875,11.71875 z"
     id="path10" />
  <path
     style="fill:#00d8c1;stroke-width:1.1313709;fill-opacity:1"
     inkscape:connector-curvature="0"
     d="m 263.43359,247.32344 c -21.6375,-13.22969 -45.47734,-27.78985 -84.02265,-17.63672 -1.37813,0.36328 -2.44844,1.43047 -2.8211,2.80625 -2.04218,7.54062 -3.09843,15.65 -3.09843,24.25156 0,38.94844 35.28593,82.50859 82.50859,82.50859 43.94141,0 77.54531,-37.71718 82.00312,-74.33828 0.34297,-2.81562 -2.33593,-5.07578 -5.03828,-4.2125 -31.29843,9.98828 -49.33515,-1.03047 -69.53125,-13.3789 z"
     id="path12" />
</svg>
