<?xml version="1.0" encoding="UTF-8" standalone="no"?>
<svg
   xmlns:dc="http://purl.org/dc/elements/1.1/"
   xmlns:cc="http://creativecommons.org/ns#"
   xmlns:rdf="http://www.w3.org/1999/02/22-rdf-syntax-ns#"
   xmlns:svg="http://www.w3.org/2000/svg"
   xmlns="http://www.w3.org/2000/svg"
   xmlns:sodipodi="http://sodipodi.sourceforge.net/DTD/sodipodi-0.dtd"
   xmlns:inkscape="http://www.inkscape.org/namespaces/inkscape"
   id="Icons"
   height="512"
   viewBox="0 0 60 60"
   width="512"
   version="1.1"
   sodipodi:docname="Timeline.svg"
   inkscape:version="0.92.2 (5c3e80d, 2017-08-06)">
  <metadata
     id="metadata41">
    <rdf:RDF>
      <cc:Work
         rdf:about="">
        <dc:format>image/svg+xml</dc:format>
        <dc:type
           rdf:resource="http://purl.org/dc/dcmitype/StillImage" />
      </cc:Work>
    </rdf:RDF>
  </metadata>
  <defs
     id="defs39" />
  <sodipodi:namedview
     pagecolor="#ffffff"
     bordercolor="#666666"
     borderopacity="1"
     objecttolerance="10"
     gridtolerance="10"
     guidetolerance="10"
     inkscape:pageopacity="0"
     inkscape:pageshadow="2"
     inkscape:window-width="1920"
     inkscape:window-height="1028"
     id="namedview37"
     showgrid="false"
     inkscape:zoom="0.4609375"
     inkscape:cx="-46.644068"
     inkscape:cy="256"
     inkscape:window-x="-8"
     inkscape:window-y="-8"
     inkscape:window-maximized="1"
     inkscape:current-layer="Icons" />
  <g
     id="g865"
     transform="matrix(0.88135593,0,0,0.88135593,3.5593221,3.5583213)"
     style="stroke-width:1.13461542">
    <path
       id="path2"
       d="m 9,28 h 2 V 45 H 9 Z"
       inkscape:connector-curvature="0"
       style="fill:#ccd0da;stroke-width:1.28735209" />
    <path
       id="path4"
       d="m 29,28 h 2 v 17 h -2 z"
       inkscape:connector-curvature="0"
       style="fill:#ccd0da;stroke-width:1.28735209" />
    <path
       id="path6"
       d="m 49,28 h 2 v 17 h -2 z"
       inkscape:connector-curvature="0"
       style="fill:#ccd0da;stroke-width:1.28735209" />
    <path
       id="path8"
       d="M 59,46 H 1 a 1,1 0 0 1 0,-2 h 58 a 1,1 0 0 1 0,2 z"
       inkscape:connector-curvature="0"
       style="fill:#ccd0da;stroke-width:1.28735209" />
    <path
       id="path10"
       d="m 35.657,14.305 a 8.1,8.1 0 0 0 -11.314,0 7.78,7.78 0 0 0 0,11.13 L 30,31 35.657,25.435 a 7.78,7.78 0 0 0 0,-11.13 z"
       inkscape:connector-curvature="0"
       style="fill:#f84861;stroke-width:1.28735209" />
    <path
       id="path12"
       d="m 15.657,14.305 a 8.1,8.1 0 0 0 -11.314,0 7.78,7.78 0 0 0 0,11.13 L 10,31 15.657,25.435 a 7.78,7.78 0 0 0 0,-11.13 z"
       inkscape:connector-curvature="0"
       style="fill:#186fee;stroke-width:1.28735209" />
    <path
       id="path14"
       d="m 55.657,14.305 a 8.1,8.1 0 0 0 -11.314,0 7.78,7.78 0 0 0 0,11.13 L 50,31 55.657,25.435 a 7.78,7.78 0 0 0 0,-11.13 z"
       inkscape:connector-curvature="0"
       style="fill:#38d6d2;stroke-width:1.28735209" />
    <circle
       id="circle16"
       r="3"
       cy="45"
       cx="10"
       style="fill:#1169d3;stroke-width:1.28735209" />
    <circle
       id="circle18"
       r="3"
       cy="45"
       cx="30"
       style="fill:#d83a59;stroke-width:1.28735209" />
    <circle
       id="circle20"
       r="3"
       cy="45"
       cx="50"
       style="fill:#2dbab3;stroke-width:1.28735209" />
    <g
       id="g34"
       style="fill:#ffffff;stroke-width:1.28735209">
      <path
         id="path22"
         d="M 13,19 H 7 a 1,1 0 0 1 0,-2 h 6 a 1,1 0 0 1 0,2 z"
         inkscape:connector-curvature="0"
         style="stroke-width:1.13461542" />
      <path
         id="path24"
         d="M 11,23 H 7 a 1,1 0 0 1 0,-2 h 4 a 1,1 0 0 1 0,2 z"
         inkscape:connector-curvature="0"
         style="stroke-width:1.13461542" />
      <path
         id="path26"
         d="m 33,19 h -6 a 1,1 0 0 1 0,-2 h 6 a 1,1 0 0 1 0,2 z"
         inkscape:connector-curvature="0"
         style="stroke-width:1.13461542" />
      <path
         id="path28"
         d="m 31,23 h -4 a 1,1 0 0 1 0,-2 h 4 a 1,1 0 0 1 0,2 z"
         inkscape:connector-curvature="0"
         style="stroke-width:1.13461542" />
      <path
         id="path30"
         d="m 53,19 h -6 a 1,1 0 0 1 0,-2 h 6 a 1,1 0 0 1 0,2 z"
         inkscape:connector-curvature="0"
         style="stroke-width:1.13461542" />
      <path
         id="path32"
         d="m 51,23 h -4 a 1,1 0 0 1 0,-2 h 4 a 1,1 0 0 1 0,2 z"
         inkscape:connector-curvature="0"
         style="stroke-width:1.13461542" />
    </g>
  </g>
</svg>
