<?xml version="1.0" encoding="UTF-8" standalone="no"?>
<svg
   xmlns:dc="http://purl.org/dc/elements/1.1/"
   xmlns:cc="http://creativecommons.org/ns#"
   xmlns:rdf="http://www.w3.org/1999/02/22-rdf-syntax-ns#"
   xmlns:svg="http://www.w3.org/2000/svg"
   xmlns="http://www.w3.org/2000/svg"
   xmlns:sodipodi="http://sodipodi.sourceforge.net/DTD/sodipodi-0.dtd"
   xmlns:inkscape="http://www.inkscape.org/namespaces/inkscape"
   height="512"
   viewBox="0 0 58 58"
   width="512"
   version="1.1"
   id="svg39"
   sodipodi:docname="Dependencies.svg"
   inkscape:version="0.92.2 (5c3e80d, 2017-08-06)">
  <metadata
     id="metadata45">
    <rdf:RDF>
      <cc:Work
         rdf:about="">
        <dc:format>image/svg+xml</dc:format>
        <dc:type
           rdf:resource="http://purl.org/dc/dcmitype/StillImage" />
      </cc:Work>
    </rdf:RDF>
  </metadata>
  <defs
     id="defs43" />
  <sodipodi:namedview
     pagecolor="#ffffff"
     bordercolor="#666666"
     borderopacity="1"
     objecttolerance="10"
     gridtolerance="10"
     guidetolerance="10"
     inkscape:pageopacity="0"
     inkscape:pageshadow="2"
     inkscape:window-width="1920"
     inkscape:window-height="1028"
     id="namedview41"
     showgrid="false"
     inkscape:zoom="0.65186406"
     inkscape:cx="-270.5053"
     inkscape:cy="296.86228"
     inkscape:window-x="-8"
     inkscape:window-y="-8"
     inkscape:window-maximized="1"
     inkscape:current-layer="svg39" />
  <rect
     style="fill:#2fb1b4;stroke-width:1.25531912;fill-opacity:1"
     y="5.7773438"
     x="15.386719"
     width="27.226562"
     rx="2.4023438"
     height="11.210938"
     id="Rectangle" />
  <rect
     style="fill:#53748c;stroke-width:1.25531912;fill-opacity:1"
     x="5.7773438"
     y="41.011719"
     width="20.820312"
     rx="2.4023438"
     height="11.210938"
     id="rect3" />
  <rect
     style="fill:#ffa334;stroke-width:1.25531912"
     x="5.7773438"
     y="26.597656"
     width="20.820312"
     rx="2.4023438"
     height="11.210938"
     id="rect5" />
  <rect
     style="fill:#53748c;stroke-width:1.25531912;fill-opacity:1"
     y="41.011719"
     x="31.402344"
     width="20.820312"
     rx="2.4023438"
     height="11.210938"
     id="rect7" />
  <rect
     style="fill:#ffa334;stroke-width:1.25531912"
     y="26.597656"
     x="31.402344"
     width="20.820312"
     rx="2.4023438"
     height="11.210938"
     id="rect9" />
  <path
     style="fill:#8ab6b7;stroke-width:1.25531912;fill-opacity:1"
     inkscape:connector-curvature="0"
     d="m 19.390625,9.78125 h -0.800781 c -0.44226,0 -0.800782,-0.3585221 -0.800782,-0.8007813 0,-0.4422592 0.358522,-0.8007812 0.800782,-0.8007812 h 0.800781 c 0.442259,0 0.800781,0.358522 0.800781,0.8007812 0,0.4422592 -0.358522,0.8007813 -0.800781,0.8007813 z"
     id="Path" />
  <path
     style="fill:#8ab6b7;stroke-width:1.25531912;fill-opacity:1"
     inkscape:connector-curvature="0"
     d="M 29.800781,9.78125 H 22.59375 c -0.44226,0 -0.800781,-0.3585221 -0.800781,-0.8007813 0,-0.4422592 0.358521,-0.8007812 0.800781,-0.8007812 h 7.207031 c 0.44226,0 0.800781,0.358522 0.800781,0.8007812 0,0.4422592 -0.358521,0.8007813 -0.800781,0.8007813 z"
     id="path12" />
  <path
     style="fill:#50939d;stroke-width:1.25531912;fill-opacity:1"
     inkscape:connector-curvature="0"
     d="M 9.78125,45.015625 H 8.9804687 c -0.4422592,0 -0.8007812,-0.358522 -0.8007812,-0.800781 0,-0.44226 0.358522,-0.800782 0.8007812,-0.800782 H 9.78125 c 0.442259,0 0.800781,0.358522 0.800781,0.800782 0,0.442259 -0.358522,0.800781 -0.800781,0.800781 z"
     id="path14" />
  <path
     style="fill:#50939d;stroke-width:1.25531912;fill-opacity:1"
     inkscape:connector-curvature="0"
     d="m 20.191406,45.015625 h -7.207031 c -0.442259,0 -0.800781,-0.358522 -0.800781,-0.800781 0,-0.44226 0.358522,-0.800782 0.800781,-0.800782 h 7.207031 c 0.44226,0 0.800781,0.358522 0.800781,0.800782 0,0.442259 -0.358521,0.800781 -0.800781,0.800781 z"
     id="path16" />
  <path
     style="fill:#ffcd62;stroke-width:1.25531912"
     inkscape:connector-curvature="0"
     d="M 9.78125,30.601562 H 8.9804687 c -0.4422592,0 -0.8007812,-0.358521 -0.8007812,-0.800781 C 8.1796875,29.358522 8.5382095,29 8.9804687,29 H 9.78125 c 0.442259,0 0.800781,0.358522 0.800781,0.800781 0,0.44226 -0.358522,0.800781 -0.800781,0.800781 z"
     id="path18" />
  <path
     style="fill:#ffcd62;stroke-width:1.25531912"
     inkscape:connector-curvature="0"
     d="m 20.191406,30.601562 h -7.207031 c -0.442259,0 -0.800781,-0.358521 -0.800781,-0.800781 C 12.183594,29.358522 12.542116,29 12.984375,29 h 7.207031 c 0.44226,0 0.800781,0.358522 0.800781,0.800781 0,0.44226 -0.358521,0.800781 -0.800781,0.800781 z"
     id="path20" />
  <path
     style="fill:#50939d;stroke-width:1.25531912;fill-opacity:1"
     inkscape:connector-curvature="0"
     d="m 35.40625,45.015625 h -0.800781 c -0.44226,0 -0.800782,-0.358522 -0.800782,-0.800781 0,-0.44226 0.358522,-0.800782 0.800782,-0.800782 h 0.800781 c 0.442259,0 0.800781,0.358522 0.800781,0.800782 0,0.442259 -0.358522,0.800781 -0.800781,0.800781 z"
     id="path22" />
  <path
     style="fill:#50939d;stroke-width:1.25531912;fill-opacity:1"
     inkscape:connector-curvature="0"
     d="m 45.816406,45.015625 h -7.207031 c -0.44226,0 -0.800781,-0.358522 -0.800781,-0.800781 0,-0.44226 0.358521,-0.800782 0.800781,-0.800782 h 7.207031 c 0.44226,0 0.800781,0.358522 0.800781,0.800782 0,0.442259 -0.358521,0.800781 -0.800781,0.800781 z"
     id="path24" />
  <path
     style="fill:#ffcd62;stroke-width:1.25531912"
     inkscape:connector-curvature="0"
     d="m 35.40625,30.601562 h -0.800781 c -0.44226,0 -0.800782,-0.358521 -0.800782,-0.800781 C 33.804687,29.358522 34.163209,29 34.605469,29 h 0.800781 c 0.442259,0 0.800781,0.358522 0.800781,0.800781 0,0.44226 -0.358522,0.800781 -0.800781,0.800781 z"
     id="path26" />
  <path
     style="fill:#ffcd62;stroke-width:1.25531912"
     inkscape:connector-curvature="0"
     d="m 45.816406,30.601562 h -7.207031 c -0.44226,0 -0.800781,-0.358521 -0.800781,-0.800781 C 37.808594,29.358522 38.167115,29 38.609375,29 h 7.207031 c 0.44226,0 0.800781,0.358522 0.800781,0.800781 0,0.44226 -0.358521,0.800781 -0.800781,0.800781 z"
     id="path28" />
  <g
     style="fill:#79818f;stroke-width:1.56761801"
     id="g36"
     transform="matrix(0.80078125,0,0,0.80078125,5.7773437,5.7773437)">
    <path
       style="stroke-width:1.24878049"
       inkscape:connector-curvature="0"
       d="m 46,23 v 3 h -2 v -3 c 0,-0.552285 -0.447715,-1 -1,-1 H 15 c -0.552285,0 -1,0.447715 -1,1 v 3 h -2 v -3 c 0.0049,-1.654803 1.345197,-2.995058 3,-3 h 13 v -6 h 2 v 6 h 13 c 1.654803,0.0049 2.995058,1.345197 3,3 z"
       id="path30" />
    <path
       style="stroke-width:1.24878049"
       inkscape:connector-curvature="0"
       d="m 12,40 h 2 v 4 h -2 z"
       id="path32" />
    <path
       style="stroke-width:1.24878049"
       inkscape:connector-curvature="0"
       d="m 44,40 h 2 v 4 h -2 z"
       id="path34" />
  </g>
</svg>
