<?xml version="1.0" encoding="UTF-8" standalone="no"?>
<!-- Generator: Adobe Illustrator 19.0.0, SVG Export Plug-In . SVG Version: 6.00 Build 0)  -->

<svg
   xmlns:dc="http://purl.org/dc/elements/1.1/"
   xmlns:cc="http://creativecommons.org/ns#"
   xmlns:rdf="http://www.w3.org/1999/02/22-rdf-syntax-ns#"
   xmlns:svg="http://www.w3.org/2000/svg"
   xmlns="http://www.w3.org/2000/svg"
   xmlns:sodipodi="http://sodipodi.sourceforge.net/DTD/sodipodi-0.dtd"
   xmlns:inkscape="http://www.inkscape.org/namespaces/inkscape"
   version="1.1"
   id="Capa_1"
   x="0px"
   y="0px"
   viewBox="0 0 512 512"
   xml:space="preserve"
   sodipodi:docname="Account.svg"
   inkscape:version="0.92.2 (5c3e80d, 2017-08-06)"
   width="512"
   height="512"><metadata
     id="metadata43"><rdf:RDF><cc:Work
         rdf:about=""><dc:format>image/svg+xml</dc:format><dc:type
           rdf:resource="http://purl.org/dc/dcmitype/StillImage" /><dc:title></dc:title></cc:Work></rdf:RDF></metadata><defs
     id="defs41" /><sodipodi:namedview
     pagecolor="#ffffff"
     bordercolor="#666666"
     borderopacity="1"
     objecttolerance="10"
     gridtolerance="10"
     guidetolerance="10"
     inkscape:pageopacity="0"
     inkscape:pageshadow="2"
     inkscape:window-width="1920"
     inkscape:window-height="1028"
     id="namedview39"
     showgrid="false"
     inkscape:zoom="0.32242566"
     inkscape:cx="-136.32884"
     inkscape:cy="-491.01744"
     inkscape:window-x="-8"
     inkscape:window-y="-8"
     inkscape:window-maximized="1"
     inkscape:current-layer="Capa_1" /><g
     id="g847"
     transform="matrix(7.5474606,0,0,7.5474606,55.999613,55.992091)"
     style="stroke-width:0.1324949"><path
       id="path2"
       d="m 18.613,41.552 -7.907,4.313 C 10.242,46.118 9.825,46.429 9.437,46.768 14.047,50.655 19.998,53 26.5,53 32.954,53 38.867,50.69 43.464,46.856 43.04,46.498 42.58,46.176 42.07,45.922 l -8.467,-4.233 c -1.094,-0.547 -1.785,-1.665 -1.785,-2.888 v -3.322 c 0.238,-0.271 0.51,-0.619 0.801,-1.03 1.154,-1.63 2.027,-3.423 2.632,-5.304 1.086,-0.335 1.886,-1.338 1.886,-2.53 v -3.546 c 0,-0.78 -0.347,-1.477 -0.886,-1.965 v -5.126 c 0,0 1.053,-7.977 -9.75,-7.977 -10.803,0 -9.75,7.977 -9.75,7.977 v 5.126 c -0.54,0.488 -0.886,1.185 -0.886,1.965 v 3.546 c 0,0.934 0.491,1.756 1.226,2.231 0.886,3.857 3.206,6.633 3.206,6.633 v 3.24 c -0.001,1.18 -0.647,2.267 -1.684,2.833 z"
       style="fill:#00FF00;stroke-width:0.0175549"
       inkscape:connector-curvature="0" /><g
       style="fill:#335777;fill-opacity:1;stroke-width:0.1324949"
       id="g6"><path
         id="path4"
         d="M 26.953,0.004 C 12.32,-0.246 0.254,11.414 0.004,26.047 -0.138,34.344 3.56,41.801 9.448,46.76 c 0.385,-0.336 0.798,-0.644 1.257,-0.894 l 7.907,-4.313 c 1.037,-0.566 1.683,-1.653 1.683,-2.835 v -3.24 c 0,0 -2.321,-2.776 -3.206,-6.633 -0.734,-0.475 -1.226,-1.296 -1.226,-2.231 v -3.546 c 0,-0.78 0.347,-1.477 0.886,-1.965 v -5.126 c 0,0 -1.053,-7.977 9.75,-7.977 10.803,0 9.75,7.977 9.75,7.977 v 5.126 c 0.54,0.488 0.886,1.185 0.886,1.965 v 3.546 c 0,1.192 -0.8,2.195 -1.886,2.53 -0.605,1.881 -1.478,3.674 -2.632,5.304 -0.291,0.411 -0.563,0.759 -0.801,1.03 V 38.8 c 0,1.223 0.691,2.342 1.785,2.888 l 8.467,4.233 c 0.508,0.254 0.967,0.575 1.39,0.932 5.71,-4.762 9.399,-11.882 9.536,-19.9 C 53.246,12.32 41.587,0.254 26.953,0.004 Z"
         style="fill:#335777;fill-opacity:1;stroke-width:0.1324949"
         inkscape:connector-curvature="0" /></g><g
       id="g8"
       style="stroke-width:0.1324949" /><g
       id="g10"
       style="stroke-width:0.1324949" /><g
       id="g12"
       style="stroke-width:0.1324949" /><g
       id="g14"
       style="stroke-width:0.1324949" /><g
       id="g16"
       style="stroke-width:0.1324949" /><g
       id="g18"
       style="stroke-width:0.1324949" /><g
       id="g20"
       style="stroke-width:0.1324949" /><g
       id="g22"
       style="stroke-width:0.1324949" /><g
       id="g24"
       style="stroke-width:0.1324949" /><g
       id="g26"
       style="stroke-width:0.1324949" /><g
       id="g28"
       style="stroke-width:0.1324949" /><g
       id="g30"
       style="stroke-width:0.1324949" /><g
       id="g32"
       style="stroke-width:0.1324949" /><g
       id="g34"
       style="stroke-width:0.1324949" /><g
       id="g36"
       style="stroke-width:0.1324949" /></g></svg>