<?xml version="1.0" encoding="UTF-8" standalone="no"?>
<svg
   xmlns:dc="http://purl.org/dc/elements/1.1/"
   xmlns:cc="http://creativecommons.org/ns#"
   xmlns:rdf="http://www.w3.org/1999/02/22-rdf-syntax-ns#"
   xmlns:svg="http://www.w3.org/2000/svg"
   xmlns="http://www.w3.org/2000/svg"
   xmlns:sodipodi="http://sodipodi.sourceforge.net/DTD/sodipodi-0.dtd"
   xmlns:inkscape="http://www.inkscape.org/namespaces/inkscape"
   version="1.1"
   id="Capa_1"
   x="0px"
   y="0px"
   viewBox="0 0 512 512"
   xml:space="preserve"
   sodipodi:docname="Account_Off_Selected.svg"
   inkscape:version="1.0.2-2 (e86c870879, 2021-01-15)"
   width="512"
   height="512"><metadata
     id="metadata43"><rdf:RDF><cc:Work
         rdf:about=""><dc:format>image/svg+xml</dc:format><dc:type
           rdf:resource="http://purl.org/dc/dcmitype/StillImage" /><dc:title /></cc:Work></rdf:RDF></metadata><defs
     id="defs41" /><sodipodi:namedview
     pagecolor="#ffffff"
     bordercolor="#666666"
     borderopacity="1"
     objecttolerance="10"
     gridtolerance="10"
     guidetolerance="10"
     inkscape:pageopacity="0"
     inkscape:pageshadow="2"
     inkscape:window-width="1920"
     inkscape:window-height="1057"
     id="namedview39"
     showgrid="false"
     inkscape:zoom="0.32242566"
     inkscape:cx="-733.36569"
     inkscape:cy="-491.01744"
     inkscape:window-x="892"
     inkscape:window-y="-8"
     inkscape:window-maximized="1"
     inkscape:current-layer="Capa_1"
     inkscape:document-rotation="0" /><path
     id="path2"
     d="m 196.4805,369.60417 -59.67777,32.5522 c -3.50203,1.90951 -6.64932,4.25677 -9.57773,6.81536 34.79379,29.33698 79.70873,47.03577 128.78232,47.03577 48.71131,0 93.33944,-17.43463 128.03512,-46.3716 -3.20012,-2.70199 -6.67195,-5.13227 -10.52116,-7.04932 l -63.90435,-31.9484 c -8.25692,-4.12846 -13.47222,-12.56653 -13.47222,-21.79707 v -25.07266 c 1.7963,-2.04537 3.84921,-4.67188 6.04552,-7.77389 8.70977,-12.30236 15.2987,-25.83496 19.86492,-40.03173 8.19654,-2.5284 14.23451,-10.0985 14.23451,-19.09508 v -26.76329 c 0,-5.88702 -2.61897,-11.1476 -6.68705,-14.83076 v -38.68828 c 0,0 7.94747,-60.2061 -73.58774,-60.2061 -81.53522,0 -73.58774,60.2061 -73.58774,60.2061 v 38.68828 c -4.07563,3.68316 -6.68705,8.94374 -6.68705,14.83076 v 26.76329 c 0,7.04933 3.7058,13.25335 9.25318,16.83839 6.68705,29.11056 24.19716,50.06231 24.19716,50.06231 v 24.45377 c -0.008,8.906 -4.88321,17.11009 -12.70992,21.38195 z"
     style="fill:#b8d6f8;stroke-width:0.132495;fill-opacity:1"
     inkscape:connector-curvature="0" /><g
     style="fill:#1a76e7;fill-opacity:1;stroke-width:0.132495"
     id="g6"
     transform="matrix(7.5474606,0,0,7.5474606,55.999613,55.992091)"><path
       id="path4"
       d="M 26.953,0.004 C 12.32,-0.246 0.254,11.414 0.004,26.047 -0.138,34.344 3.56,41.801 9.448,46.76 c 0.385,-0.336 0.798,-0.644 1.257,-0.894 l 7.907,-4.313 c 1.037,-0.566 1.683,-1.653 1.683,-2.835 v -3.24 c 0,0 -2.321,-2.776 -3.206,-6.633 -0.734,-0.475 -1.226,-1.296 -1.226,-2.231 v -3.546 c 0,-0.78 0.347,-1.477 0.886,-1.965 v -5.126 c 0,0 -1.053,-7.977 9.75,-7.977 10.803,0 9.75,7.977 9.75,7.977 v 5.126 c 0.54,0.488 0.886,1.185 0.886,1.965 v 3.546 c 0,1.192 -0.8,2.195 -1.886,2.53 -0.605,1.881 -1.478,3.674 -2.632,5.304 -0.291,0.411 -0.563,0.759 -0.801,1.03 V 38.8 c 0,1.223 0.691,2.342 1.785,2.888 l 8.467,4.233 c 0.508,0.254 0.967,0.575 1.39,0.932 5.71,-4.762 9.399,-11.882 9.536,-19.9 C 53.246,12.32 41.587,0.254 26.953,0.004 Z"
       style="fill:#1a76e7;fill-opacity:1;stroke-width:0.132495"
       inkscape:connector-curvature="0" /></g><g
     id="g8"
     style="stroke-width:0.132495"
     transform="matrix(7.5474606,0,0,7.5474606,55.999613,55.992091)" /><g
     id="g10"
     style="stroke-width:0.132495"
     transform="matrix(7.5474606,0,0,7.5474606,55.999613,55.992091)" /><g
     id="g12"
     style="stroke-width:0.132495"
     transform="matrix(7.5474606,0,0,7.5474606,55.999613,55.992091)" /><g
     id="g14"
     style="stroke-width:0.132495"
     transform="matrix(7.5474606,0,0,7.5474606,55.999613,55.992091)" /><g
     id="g16"
     style="stroke-width:0.132495"
     transform="matrix(7.5474606,0,0,7.5474606,55.999613,55.992091)" /><g
     id="g18"
     style="stroke-width:0.132495"
     transform="matrix(7.5474606,0,0,7.5474606,55.999613,55.992091)" /><g
     id="g20"
     style="stroke-width:0.132495"
     transform="matrix(7.5474606,0,0,7.5474606,55.999613,55.992091)" /><g
     id="g22"
     style="stroke-width:0.132495"
     transform="matrix(7.5474606,0,0,7.5474606,55.999613,55.992091)" /><g
     id="g24"
     style="stroke-width:0.132495"
     transform="matrix(7.5474606,0,0,7.5474606,55.999613,55.992091)" /><g
     id="g26"
     style="stroke-width:0.132495"
     transform="matrix(7.5474606,0,0,7.5474606,55.999613,55.992091)" /><g
     id="g28"
     style="stroke-width:0.132495"
     transform="matrix(7.5474606,0,0,7.5474606,55.999613,55.992091)" /><g
     id="g30"
     style="stroke-width:0.132495"
     transform="matrix(7.5474606,0,0,7.5474606,55.999613,55.992091)" /><g
     id="g32"
     style="stroke-width:0.132495"
     transform="matrix(7.5474606,0,0,7.5474606,55.999613,55.992091)" /><g
     id="g34"
     style="stroke-width:0.132495"
     transform="matrix(7.5474606,0,0,7.5474606,55.999613,55.992091)" /><g
     id="g36"
     style="stroke-width:0.132495"
     transform="matrix(7.5474606,0,0,7.5474606,55.999613,55.992091)" /></svg>
